<svg width="35" height="36" viewBox="0 0 35 36" fill="none" xmlns="http://www.w3.org/2000/svg">
<path d="M17.4375 35.4375C27.068 35.4375 34.875 27.6305 34.875 18C34.875 8.36953 27.068 0.5625 17.4375 0.5625C7.80703 0.5625 0 8.36953 0 18C0 27.6305 7.80703 35.4375 17.4375 35.4375Z" fill="#E6ECFF"/>
<path d="M31.4304 28.3921C29.8041 26.2148 27.6924 24.4468 25.263 23.2287C22.8337 22.0106 20.1537 21.3759 17.4361 21.375C14.7185 21.3741 12.0382 22.0072 9.60807 23.2238C7.17798 24.4404 5.06516 26.207 3.4375 28.3833C5.05688 30.5706 7.16625 32.3481 9.59649 33.5731C12.0267 34.7981 14.7102 35.4367 17.4317 35.4375C20.1533 35.4384 22.8371 34.8015 25.2681 33.578C27.6991 32.3545 29.8096 30.5784 31.4304 28.3921Z" fill="#4294FF"/>
<path d="M17.4375 19.125C21.1654 19.125 24.1875 16.1029 24.1875 12.375C24.1875 8.64708 21.1654 5.625 17.4375 5.625C13.7096 5.625 10.6875 8.64708 10.6875 12.375C10.6875 16.1029 13.7096 19.125 17.4375 19.125Z" fill="#4294FF"/>
</svg>
