<svg width="195" height="189" viewBox="0 0 225 219" fill="none" xmlns="http://www.w3.org/2000/svg">
<g opacity="0.2">
<path d="M253.915 76.542C252.006 73.4023 250.849 69.8499 250.538 66.1716C250.227 62.4933 250.771 58.7921 252.125 55.3669C252.635 53.9849 252.825 52.5019 252.68 51.0331C252.536 49.5642 252.061 48.1489 251.292 46.8969L249.669 44.61C247.212 40.8861 244.425 37.3988 241.343 34.1919C236.989 30.6318 234.18 25.4779 233.517 19.8352C233.412 14.709 231.608 9.76915 228.397 5.81734C224.967 1.91507 220.402 -0.770588 215.367 -1.84803C212.798 -2.40138 210.399 -3.5806 208.376 -5.28452C206.353 -6.98843 204.767 -9.16616 203.753 -11.6309C201.823 -16.5358 198.393 -20.6786 193.97 -23.4466C189.415 -25.9939 184.181 -27.0024 179.026 -26.3264C176.332 -26.0105 173.604 -26.3486 171.064 -27.3129C168.524 -28.2773 166.245 -29.8405 164.414 -31.8742C161.415 -35.6231 157.217 -38.1814 152.553 -39.1025C147.89 -40.0236 143.056 -39.249 138.896 -36.9139C136.023 -35.4911 132.87 -34.7517 129.675 -34.7517C126.48 -34.7517 123.327 -35.4911 120.455 -36.9139C116.301 -39.0808 111.574 -39.8377 106.967 -39.0738C102.391 -38.0912 98.2375 -35.6599 95.103 -32.1283C90.6904 -27.4275 85.8199 -25.9029 77.744 -26.7499C73.2868 -27.2606 68.7889 -26.2531 64.9547 -23.8851C61.1205 -21.5171 58.1665 -17.9223 56.5552 -13.6637C55.2839 -10.5586 53.2896 -7.81438 50.7443 -5.6675C48.1989 -3.52063 45.1786 -2.03543 41.9437 -1.33982C37.5796 -0.316219 33.6455 2.08517 30.7041 5.52089C27.9097 9.05753 26.2787 13.3983 26.0417 17.9295C25.9187 21.2198 25.023 24.4323 23.4298 27.2984C21.8365 30.1645 19.5918 32.6008 16.8835 34.4036C13.8656 36.3202 11.4159 39.0343 9.79562 42.2564C8.17536 45.4786 7.44541 49.0877 7.68364 52.6989C8.27878 63.2145 6.4097 73.7236 2.23034 83.3604C0.868152 86.5423 0.396087 90.045 0.866193 93.4825C1.3363 96.92 2.73032 100.159 4.89455 102.841C6.70878 105.155 7.95367 107.877 8.52568 110.779C9.09768 113.681 8.98026 116.681 8.18318 119.527C6.80425 124.449 6.94961 129.684 8.59946 134.519C10.4423 139.272 13.7223 143.306 17.9658 146.038C20.3287 147.665 22.2805 149.836 23.6622 152.375C25.0439 154.914 25.8164 157.749 25.9168 160.649C26.1811 165.395 27.8337 169.952 30.6624 173.735C33.5605 177.257 37.5053 179.724 41.9021 180.766C45.0606 181.498 48.0073 182.971 50.5078 185.066C53.0083 187.162 54.9935 189.822 56.3055 192.835C58.2626 197.314 61.5923 201.029 65.7967 203.423C70.0955 205.752 74.9836 206.711 79.8254 206.176C82.4287 205.746 85.0958 205.973 87.5926 206.837C90.0895 207.701 92.3396 209.175 94.1456 211.131C96.2664 213.476 98.8394 215.352 101.704 216.642C104.569 217.932 107.664 218.607 110.797 218.627C112.861 218.604 114.915 218.334 116.916 217.822C124.952 215.559 133.441 215.559 141.477 217.822C143.752 218.48 146.105 218.821 148.47 218.838C151.612 218.777 154.709 218.066 157.571 216.749C160.434 215.431 163.003 213.534 165.122 211.173C167.042 209.178 169.407 207.683 172.015 206.813C174.623 205.943 177.399 205.725 180.108 206.176C184.75 206.786 189.463 205.913 193.595 203.677C197.614 201.335 200.804 197.763 202.712 193.471C203.934 190.317 205.892 187.514 208.415 185.3C210.939 183.087 213.953 181.531 217.199 180.766C221.536 179.808 225.444 177.43 228.324 173.995C231.204 170.56 232.897 166.258 233.142 161.75C233.195 158.342 234.092 155.003 235.751 152.041C237.41 149.08 239.778 146.593 242.634 144.81C246.365 142.368 249.271 138.821 250.959 134.646C252.425 130.559 252.527 126.094 251.251 121.941C250.342 118.839 250.084 115.578 250.493 112.368C250.901 109.158 251.968 106.071 253.623 103.307C256.115 99.3154 257.463 94.6953 257.514 89.9668C257.566 85.2383 256.319 80.589 253.915 76.542ZM250.085 101.317C248.157 104.572 246.92 108.202 246.454 111.973C245.988 115.744 246.303 119.572 247.379 123.212C248.466 126.608 248.363 130.282 247.088 133.609C245.813 136.937 243.445 139.712 240.386 141.465C237.018 143.625 234.229 146.601 232.267 150.126C230.306 153.652 229.234 157.616 229.146 161.666C228.928 165.275 227.558 168.712 225.243 171.457C222.929 174.201 219.798 176.101 216.325 176.869C212.496 177.709 208.923 179.475 205.908 182.018C202.893 184.562 200.526 187.808 199.007 191.48C197.537 195.088 194.911 198.085 191.556 199.984C188.201 201.883 184.313 202.573 180.524 201.941C177.234 201.411 173.868 201.68 170.699 202.725C167.531 203.77 164.65 205.562 162.291 207.954C159.896 210.728 156.757 212.73 153.259 213.715C149.762 214.701 146.058 214.627 142.601 213.502C138.534 212.355 134.333 211.771 130.112 211.766C125.335 211.799 120.58 212.439 115.959 213.672C114.302 214.123 112.595 214.351 110.88 214.349C108.327 214.33 105.805 213.77 103.476 212.706C101.147 211.641 99.0609 210.095 97.3509 208.166C95.1002 205.748 92.3086 203.92 89.2137 202.836C86.1188 201.752 82.8123 201.445 79.5757 201.941C75.6017 202.632 71.5147 201.948 67.9679 199.998C64.4212 198.048 61.6193 194.944 60.0104 191.184C58.4638 187.602 56.1147 184.438 53.1511 181.945C50.1874 179.452 46.6914 177.699 42.9428 176.827C39.2418 175.998 35.9294 173.91 33.5528 170.907C31.1762 167.904 29.8776 164.166 29.8715 160.31C29.7437 156.81 28.8109 153.389 27.1481 150.322C25.4853 147.255 23.1388 144.628 20.297 142.65C16.7035 140.439 13.9554 137.051 12.5031 133.042C11.0509 129.033 10.9808 124.641 12.3044 120.586C13.2361 117.118 13.3445 113.474 12.6208 109.954C11.897 106.435 10.3618 103.14 8.14155 100.343C6.41896 98.2359 5.29516 95.6902 4.89163 92.9807C4.4881 90.2712 4.82019 87.501 5.852 84.9697C10.29 74.7935 12.2739 63.6858 11.6383 52.5718C11.4656 49.695 12.0636 46.8245 13.3686 44.2663C14.6735 41.7081 16.6365 39.5581 19.0482 38.0458C22.2678 35.8917 24.9391 32.9912 26.8423 29.5824C28.7456 26.1737 29.8266 22.3541 29.9964 18.4377C30.0626 14.7192 31.3926 11.1388 33.7604 8.30534C36.1282 5.47182 39.3876 3.56009 42.9844 2.89518C46.8187 2.05509 50.3963 0.283653 53.4118 -2.26793C56.4273 -4.81952 58.7912 -8.07549 60.3018 -11.7579C61.5638 -15.2101 63.9158 -18.1389 66.9893 -20.0855C70.0628 -22.0321 73.6842 -22.8865 77.2861 -22.5149C81.0391 -21.8106 84.9053 -22.0649 88.538 -23.2549C92.1707 -24.4449 95.4563 -26.5334 98.1002 -29.3332C100.576 -32.2859 103.974 -34.284 107.725 -34.9933C111.476 -35.7025 115.353 -35.0798 118.706 -33.2294C122.106 -31.5258 125.844 -30.6398 129.634 -30.6398C133.423 -30.6398 137.162 -31.5258 140.561 -33.2294C143.957 -35.165 147.921 -35.8019 151.737 -35.0253C155.554 -34.2487 158.972 -32.1097 161.375 -28.9944C163.625 -26.4991 166.424 -24.5806 169.542 -23.3956C172.66 -22.2106 176.01 -21.7927 179.317 -22.1761C183.642 -22.9542 188.099 -22.1361 191.884 -19.8691C195.669 -17.602 198.535 -14.035 199.965 -9.80984C201.227 -6.74666 203.201 -4.04061 205.716 -1.92369C208.232 0.193226 211.215 1.65786 214.41 2.34463C218.587 3.02844 222.388 5.20202 225.134 8.47643C227.879 11.7508 229.39 15.9124 229.396 20.2164C230.135 26.8701 233.427 32.9579 238.554 37.1564C241.421 40.1983 244.025 43.4855 246.338 46.9816L247.92 49.2685C248.299 49.9374 248.525 50.684 248.583 51.4535C248.64 52.223 248.528 52.9958 248.253 53.7153C246.662 57.7576 246.036 62.1263 246.427 66.4626C246.818 70.7988 248.214 74.9789 250.501 78.6595C252.549 82.0883 253.597 86.0383 253.523 90.0496C253.449 94.0608 252.257 97.9682 250.085 101.317Z" fill="#0E0E0E"/>
<path d="M92.5112 103.807L97.9645 98.5557L109.995 111.261L146.67 59.0854L152.997 63.744L111.369 123.034L92.5112 103.807Z" fill="#0E0E0E"/>
<path d="M129.015 183.044H126.975V173.897H132.678L132.97 183.044H128.807H129.015ZM128.515 181.52H131.513L131.304 175.464H128.599L128.515 181.52ZM120.398 182.663H119.649L115.069 182.07H114.32L115.694 173.007H116.443L120.606 173.558H121.355L120.398 182.663ZM116.235 180.546C117.192 180.546 118.192 180.842 119.191 180.927L119.815 174.913L117.109 174.574L116.235 180.546ZM139.838 182.452L138.714 173.346H139.505L143.668 172.711H144.417L145.999 181.732H145.25C143.751 181.986 142.211 182.24 140.712 182.409L139.838 182.452ZM140.421 174.701L141.004 180.758L143.959 180.292L142.96 174.32L140.421 174.701ZM107.826 180.758H107.077C105.62 180.376 104.121 179.953 102.664 179.487H101.915L104.496 170.721H105.245L109.408 171.864H110.157L107.826 180.758ZM103.663 178.047L106.536 178.894L107.993 173.007L105.537 172.287L103.663 178.047ZM152.035 180.249L149.662 171.398H150.412L154.575 170.17L155.324 169.916L158.113 178.64L157.405 178.894C155.948 179.36 154.45 179.826 152.951 180.207L152.035 180.249ZM151.702 172.287L153.284 178.132L156.157 177.242L154.283 171.525L151.702 172.287ZM95.6706 176.522H94.963L90.8001 174.659L90.0925 174.32L93.8806 165.85L94.5467 166.147C95.8372 166.782 97.1276 167.333 98.3765 167.841L99.0842 168.137L95.6706 176.522ZM92.2988 173.431L95.0462 174.659L97.2525 169.027L94.5883 168.052L92.2988 173.431ZM164.441 175.887L160.902 167.417L161.61 167.121L165.356 165.384L166.064 165.046L170.019 173.262L169.353 173.6C167.979 174.278 166.564 174.956 165.19 175.548L164.441 175.887ZM162.9 168.307L165.273 173.854L167.979 172.584L165.356 167.163L162.9 168.307ZM84.3894 171.102L83.7233 170.721C82.3912 169.958 81.1008 169.111 79.8103 168.264L79.1442 167.841L83.9731 160.175L84.6392 160.599L88.1776 162.801L88.8436 163.182L84.3894 171.102ZM81.2673 167.375L83.8482 168.984L86.5957 163.817L84.2645 162.378L81.2673 167.375ZM175.555 170.085L170.893 162.251L171.559 161.827L175.056 159.582L175.68 159.117L180.717 166.697L180.093 167.163L176.221 169.662L175.555 170.085ZM173.016 162.759L176.138 168.052C176.971 167.544 177.803 166.994 178.636 166.401L175.306 161.404L173.016 162.759ZM73.566 163.817L72.9416 163.309C71.7344 162.378 70.5688 161.361 69.4032 160.345L68.8204 159.837L74.69 152.891L75.2728 153.399C76.3135 154.331 77.3958 155.22 78.4782 156.11L79.1026 156.576L73.566 163.817ZM70.9851 159.582C71.7344 160.26 72.5253 160.895 73.3163 161.531L76.9379 156.745L74.8565 155.009L70.9851 159.582ZM186.046 162.462L180.384 155.347H180.967C182.049 154.458 183.09 153.526 184.131 152.595L184.672 152.044L190.708 158.863L190.167 159.371C189.001 160.444 187.836 161.46 186.67 162.42L186.046 162.462ZM182.507 155.559L186.295 160.26L188.543 158.27L184.589 153.781C183.881 154.628 183.215 155.347 182.507 155.813V155.559ZM64.0332 155.347L63.492 154.797C62.4097 153.696 61.369 152.51 60.3699 151.367L59.8703 150.774L66.6141 144.718L67.1137 145.31C68.0295 146.369 68.9869 147.428 69.9444 148.444L70.4855 148.995L64.0332 155.347ZM62.035 151.112L64.0332 153.357L68.196 149.122L66.4892 146.877L62.035 151.112ZM195.245 154.119L188.668 147.851L189.168 147.301C190.111 146.285 191.027 145.226 191.915 144.125L192.415 143.532L199.325 149.418L198.825 150.011C197.826 151.239 196.786 152.383 195.787 153.526L195.245 154.119ZM190.791 147.767L194.954 152.002L196.952 149.715L192.373 145.819C192.207 146.242 191.582 146.877 190.958 147.597L190.791 147.767ZM55.5826 145.734L55.1247 145.141C54.2089 143.871 53.3347 142.558 52.5021 141.287L52.0859 140.61L59.5789 135.612L60.0369 136.248C60.7445 137.391 61.5355 138.577 62.368 139.72L62.8259 140.356L55.5826 145.734ZM54.2089 141.075C54.7501 141.922 55.3329 142.769 55.9157 143.574L60.7029 140.017L59.1627 137.73L54.2089 141.075ZM203.321 144.082L195.953 138.831L196.369 138.196C197.16 137.052 197.951 135.866 198.659 134.681L199.075 134.045L206.693 138.873L206.319 139.551C205.486 140.864 204.653 142.177 203.779 143.447L203.321 144.082ZM198.243 138.407L203.113 141.88C203.696 141.033 204.237 140.186 204.778 139.339L199.741 136.12L198.243 138.407ZM48.8805 134.808L48.5058 134.172C47.7981 132.817 47.0905 131.42 46.4244 129.937L46.0914 129.26L54.417 125.321L54.7501 126.041C55.3329 127.269 55.9573 128.54 56.6233 129.81L56.9564 130.488L48.8805 134.808ZM48.1312 129.937L49.5049 132.648L54.8333 129.937L53.5845 127.481L48.1312 129.937ZM210.107 132.944L202.114 128.709L202.447 128.032C203.072 126.761 203.654 125.491 204.237 124.22L204.529 123.5L212.854 127.227L212.521 127.947C211.938 129.344 211.272 130.784 210.565 132.182L210.107 132.944ZM204.154 128.116L209.441 130.869C209.899 129.937 210.315 129.006 210.731 128.116L205.32 125.702C204.945 126.38 204.695 127.227 204.154 128.032V128.116ZM43.5521 122.907L43.3023 122.187C42.7472 120.691 42.2477 119.209 41.8037 117.741V117.021L50.3791 114.31L50.6289 115.03C51.0451 116.385 51.4614 117.741 51.961 119.265L52.2107 119.985L43.5521 122.907ZM43.5521 118.037C43.8435 119.011 44.1765 119.985 44.5095 120.917L50.0877 118.842L49.2135 116.258L43.5521 118.037ZM215.227 120.959L206.693 117.995L206.943 117.275C207.401 115.962 207.817 114.607 208.192 113.251L208.4 112.489L217.059 115.03L216.851 115.75C216.434 117.275 215.976 118.757 215.477 120.239L215.227 120.959ZM208.608 117.232L214.228 119.223C214.519 118.249 214.852 117.275 215.102 116.301L209.399 114.649C209.149 115.284 208.858 116.174 208.608 117.232ZM39.9304 110.499V109.736C39.5974 108.254 39.306 106.687 39.0562 105.163V104.4L47.9647 102.918V103.68C47.9647 105.078 48.4226 106.475 48.714 107.915V108.678L39.9304 110.499ZM40.5548 105.671C40.5548 106.687 40.8878 107.661 41.096 108.678L46.924 107.407C46.924 106.518 46.5493 105.586 46.4244 104.697L40.5548 105.671ZM218.557 108.466L209.69 106.772V106.01C209.94 104.654 210.148 103.257 210.357 101.775V101.012L219.307 102.283V103.045C219.307 104.57 218.849 106.137 218.557 107.661V108.466ZM211.48 105.544L217.308 106.645C217.308 105.671 217.683 104.654 217.808 103.638L211.938 102.833C211.814 103.723 211.647 104.527 211.48 105.544ZM38.182 97.709V96.9467C38.182 95.3797 38.182 93.8128 38.182 92.2458V91.4835L47.1737 91.2718V92.0764C47.1737 93.474 47.1737 94.8715 47.1737 96.3114V97.1161L38.182 97.709ZM39.4725 93.0081V96.0573L45.4253 95.6338C45.4253 94.7021 45.4253 93.7704 45.4253 92.8811L39.4725 93.0081ZM220.306 95.6338L211.314 95.168V94.4057C211.314 93.0081 211.314 91.6106 211.314 90.1707V88.9002H220.306V90.213C220.306 91.78 220.306 93.3893 220.306 94.9139V95.6338ZM212.937 93.7281L218.849 94.0245C218.849 92.8387 218.849 91.6106 218.849 90.4248H213.021C213.021 91.5259 213.021 92.627 212.771 93.7281H212.937ZM47.0072 85.258L38.0571 84.6651V83.8605C38.0571 82.3359 38.3069 80.7689 38.4734 79.202V78.4397L47.4235 79.4984V80.2607C47.4235 81.6583 47.1321 83.0982 47.0488 84.4957L47.0072 85.258ZM39.5141 83.3523L45.4253 83.7758L45.6751 81.023L39.7639 80.3454L39.5141 83.3523ZM211.023 83.0558V82.2935C211.023 80.896 210.731 79.4561 210.523 78.0585V77.2539L219.431 75.941V76.7033C219.681 78.2703 219.848 79.8372 219.973 81.3618V82.1665L211.023 83.0558ZM212.063 78.6091C212.063 79.5408 212.313 80.4301 212.396 81.3618L218.308 80.7689C218.308 79.7949 218.099 78.7785 217.933 77.7621L212.063 78.6091ZM48.2977 73.8235L39.4725 71.9178V71.1555C39.8055 69.6732 40.1385 68.1063 40.5132 66.624L40.7213 65.8617L49.4216 68.191V68.9109C49.047 70.2661 48.7556 71.6637 48.4642 73.1459L48.2977 73.8235ZM41.3041 70.6473L47.1321 71.8754C47.1321 70.9861 47.5067 70.0967 47.7149 69.2074L41.9702 67.6828C41.7204 68.7415 41.5123 69.7579 41.3041 70.6473ZM209.233 71.4096V70.6473C208.941 69.2921 208.566 67.8945 208.192 66.4123L207.942 65.6923L216.601 63.1089V63.8712C217.059 65.3959 217.433 66.9205 217.808 68.4027V69.165L209.233 71.4096ZM209.69 66.8781C209.94 67.7675 210.148 68.6568 210.398 69.5038L216.143 68.1063C215.949 67.1463 215.699 66.1723 215.394 65.1841L209.69 66.8781ZM51.2949 62.6431L42.9693 59.5092L43.219 58.7892C43.7602 57.3493 44.3014 55.8671 44.8842 54.5542L45.2172 53.8343L53.5428 57.3493L53.2514 58.0693C52.7103 59.3821 52.2107 60.695 51.7528 62.0502L51.2949 62.6431ZM44.8009 58.4081L50.3791 60.4832L51.3782 57.8999L45.8832 55.5706C45.5086 56.587 45.1339 57.5611 44.8009 58.4928V58.4081ZM205.902 60.2291L205.653 59.5092C205.153 58.1963 204.612 56.8835 204.029 55.613L203.696 54.9354L212.022 51.1239L212.355 51.8438C212.979 53.2837 213.604 54.7236 214.145 56.0788L214.436 56.7988L205.902 60.2291ZM205.902 55.6977C206.277 56.5447 206.61 57.3493 206.943 58.1963L212.48 55.9941C212.105 55.0624 211.73 54.1307 211.314 53.199L205.902 55.6977ZM56.0405 51.7591L48.0895 47.5241L48.4642 46.8465C49.1719 45.449 49.9628 44.0938 50.7121 42.6115L51.1284 41.9339L58.8296 46.5924L58.455 47.27C57.7473 48.4982 57.0812 49.7263 56.4152 50.9545L56.0405 51.7591ZM50.171 46.8042L55.4161 49.6416L56.7482 47.2277L51.6279 44.1361L50.171 46.8042ZM201.282 49.6416L200.532 49.0487C199.866 47.8629 199.159 46.6348 198.409 45.449L197.993 44.7714L205.611 39.9011L206.027 40.5364C206.86 41.8492 207.651 43.2044 208.4 44.5596L208.858 45.2372L201.282 49.6416ZM200.491 45.4066C200.949 46.1689 201.448 46.9736 201.864 47.7359L207.068 44.7714L205.528 42.188L200.491 45.4066ZM61.8269 41.8492L54.5003 36.4707L54.9582 35.8355C55.874 34.6073 56.7898 33.3368 57.7473 32.1087L58.2468 31.5158L65.282 37.233L64.7825 37.8683C63.9083 38.927 63.0757 40.0705 62.2848 41.2139L61.8269 41.8492ZM56.665 36.1319L61.4938 39.6894C61.9934 38.9271 62.5762 38.2071 63.1173 37.4871L58.4966 33.718L56.665 36.1319ZM194.871 39.9435L194.413 39.3506C193.58 38.2494 192.665 37.106 191.79 36.0472L191.291 35.4543L198.159 29.5253L198.659 30.1182C199.658 31.304 200.616 32.5322 201.531 33.7603L201.989 34.3956L194.871 39.9435ZM193.455 35.7084L195.121 37.8683L199.866 34.1838L197.993 31.8122L193.455 35.7084ZM69.0702 32.9133L62.5762 26.5608L63.1173 26.0103C64.1997 24.8668 65.282 23.7657 66.406 22.707L66.9471 22.1564L73.1081 28.8054L72.567 29.3559L69.6113 32.3204L69.0702 32.9133ZM64.9074 26.5185L69.0702 30.7535C69.6946 30.0759 70.3607 29.4406 70.9851 28.8054L66.8223 24.5704L64.9074 26.5185ZM187.503 31.2193L186.961 30.6688C186.004 29.6947 185.005 28.7207 183.923 27.789L183.381 27.2384L189.376 20.4201L189.917 20.9283C191.083 21.987 192.207 23.0458 193.289 24.1469L193.83 24.6974L187.503 31.2193ZM185.546 26.9843L187.503 28.8477L191.665 24.6127L189.501 22.5376L185.546 26.9843ZM77.6872 24.7821L71.9425 17.7097L72.5253 17.2015C73.7326 16.2697 74.9814 15.2957 76.2302 14.4063L76.8547 13.9405L82.0582 21.4365L81.4338 21.86L78.1035 24.401L77.6872 24.7821ZM74.2737 17.8791L77.937 22.6223L80.1017 20.9706L76.6465 16.058L74.2737 17.8791ZM178.886 23.3422L178.261 22.8764C177.179 22.0717 176.013 21.2247 174.848 20.4624L174.223 20.0389L179.219 12.4159L179.885 12.8394C181.133 13.6864 182.382 14.6181 183.631 15.5498L184.256 16.0156L178.886 23.3422ZM176.18 19.8272C176.929 20.3354 177.678 20.8436 178.386 21.3941L181.924 16.5662C181.133 15.9309 180.301 15.338 179.468 14.7875L176.18 19.8272ZM86.9287 18.3449L82.3912 10.4254L83.0573 10.0443C84.3894 9.28198 85.7215 8.51968 87.2201 7.79973L87.8862 7.41858L92.049 15.5498L91.3413 15.9309L87.7196 17.9638L86.9287 18.3449ZM84.4726 11.0183L87.4699 16.2274L89.8427 14.9145L87.0952 9.53608L84.4726 11.0183ZM169.103 17.1591L168.437 16.8203C167.23 16.1427 165.981 15.4651 164.732 14.8722L164.066 14.5334L167.979 6.06338L168.645 6.40218C170.06 7.07978 171.448 7.79973 172.808 8.56203L173.474 8.94318L169.103 17.1591ZM166.106 13.8134C166.897 14.2369 167.688 14.6181 168.478 15.0839L171.392 9.62078L168.728 8.22323L166.106 13.8134ZM97.1693 13.0935L93.7557 4.62347L94.4634 4.32702C95.8788 3.73412 97.2942 3.18357 98.6263 2.67537L99.3756 2.37892L102.331 11.0607L101.623 11.3148L97.7521 12.797L97.1693 13.0935ZM95.7539 5.47047L98.0018 11.0607L100.541 10.0866L98.543 4.36937L95.7539 5.47047ZM158.904 12.0771L158.155 11.823C156.864 11.3148 155.574 10.8489 154.242 10.4254L153.492 10.1713L156.24 1.44722L156.989 1.70132C158.46 2.15305 159.848 2.66125 161.152 3.22592L161.86 3.52237L158.904 12.0771ZM155.449 9.15493L157.988 10.0866L160.07 4.41172L157.239 3.43767L155.449 9.15493ZM108.201 9.15493L105.828 0.346112L106.536 0.134365L111.031 -0.88204H111.781L113.571 8.09618H112.821C111.448 8.35028 110.116 8.68908 108.659 9.02788L108.201 9.15493ZM107.826 1.40486L108.95 7.33388L111.573 6.74098L110.449 0.811966C109.616 0.981366 108.659 1.23547 107.66 1.44722L107.826 1.40486ZM147.914 8.60438H147.165C145.833 8.30793 144.459 8.01148 143.002 7.79973H142.253L143.71 -1.34789H144.459L148.955 -0.416187H149.704L147.914 8.60438ZM144.126 6.23278L146.749 6.74098L148.039 0.854317L145.125 0.261414L144.126 6.23278ZM119.274 7.12213L118.316 -1.98314H119.066C120.592 -2.15254 122.132 -2.27959 123.686 -2.36429H124.436L124.935 6.78333H124.186L120.023 7.12213H119.274ZM120.023 -0.585587L120.648 5.42813L123.353 5.17402L122.979 -0.924387C121.98 -0.882037 120.981 -0.797339 120.023 -0.670289V-0.585587ZM136.425 6.86803H135.675C134.302 6.86803 132.928 6.65628 131.513 6.61393H130.763L131.013 -2.53369H131.804C133.303 -2.53369 134.884 -2.53369 136.383 -2.27959H137.132L136.425 6.86803ZM132.262 5.04697H134.926L135.426 -0.966738H132.428L132.262 5.04697Z" fill="#0E0E0E"/>
</g>
</svg>
