<svg width="257" height="239" viewBox="0 0 257 239" fill="none" xmlns="http://www.w3.org/2000/svg">
<g opacity="0.2">
<path d="M253.399 116.256C251.49 113.116 250.333 109.564 250.022 105.885C249.711 102.207 250.255 98.506 251.609 95.0808C252.119 93.6987 252.309 92.2158 252.165 90.7469C252.02 89.2781 251.545 87.8628 250.777 86.6108L249.153 84.3239C246.696 80.6 243.909 77.1127 240.827 73.9058C236.474 70.3457 233.664 65.1918 233.001 59.5491C232.897 54.4229 231.092 49.483 227.881 45.5312C224.452 41.6289 219.887 38.9433 214.851 37.8658C212.282 37.3125 209.883 36.1333 207.86 34.4294C205.837 32.7254 204.251 30.5477 203.237 28.083C201.308 23.1781 197.878 19.0353 193.454 16.2673C188.899 13.72 183.666 12.7115 178.51 13.3875C175.817 13.7034 173.088 13.3653 170.548 12.4009C168.009 11.4366 165.73 9.87339 163.898 7.83963C160.9 4.09078 156.702 1.5325 152.038 0.611406C147.374 -0.309691 142.54 0.464905 138.38 2.79997C135.508 4.22281 132.355 4.96221 129.16 4.96221C125.965 4.96221 122.812 4.22281 119.939 2.79997C115.785 0.633106 111.059 -0.123796 106.451 0.640116C101.875 1.62263 97.7219 4.05394 94.5874 7.58553C90.1748 12.2864 85.3043 13.811 77.2284 12.964C72.7712 12.4533 68.2733 13.4608 64.4391 15.8288C60.6049 18.1968 57.6509 21.7916 56.0396 26.0502C54.7683 29.1553 52.774 31.8995 50.2286 34.0464C47.6832 36.1932 44.663 37.6784 41.4281 38.374C37.064 39.3976 33.1299 41.799 30.1884 45.2348C27.394 48.7714 25.7631 53.1122 25.5261 57.6433C25.403 60.9336 24.5074 64.1462 22.9141 67.0122C21.3208 69.8783 19.0762 72.3147 16.3679 74.1175C13.35 76.034 10.9003 78.7482 9.27999 81.9703C7.65974 85.1924 6.92978 88.8016 7.16802 92.4128C7.76316 102.928 5.89407 113.437 1.71472 123.074C0.352527 126.256 -0.119538 129.759 0.350568 133.196C0.820674 136.634 2.21469 139.872 4.37892 142.555C6.19316 144.869 7.43805 147.591 8.01005 150.493C8.58205 153.395 8.46463 156.394 7.66756 159.241C6.28863 164.163 6.43398 169.398 8.08384 174.233C9.92665 178.986 13.2067 183.02 17.4502 185.752C19.8131 187.378 21.7649 189.549 23.1466 192.089C24.5283 194.628 25.3008 197.463 25.4012 200.363C25.6655 205.109 27.3181 209.666 30.1468 213.449C33.0448 216.971 36.9897 219.438 41.3865 220.479C44.5449 221.212 47.4917 222.685 49.9922 224.78C52.4927 226.876 54.4779 229.536 55.7898 232.549C57.747 237.028 61.0767 240.743 65.2811 243.137C69.5799 245.466 74.468 246.425 79.3098 245.889C81.9131 245.46 84.5802 245.687 87.077 246.551C89.5738 247.415 91.824 248.889 93.6299 250.844C95.7508 253.19 98.3238 255.066 101.189 256.356C104.053 257.646 107.149 258.321 110.281 258.34C112.345 258.318 114.399 258.048 116.401 257.536C124.436 255.273 132.925 255.273 140.961 257.536C143.237 258.193 145.589 258.535 147.955 258.552C151.096 258.491 154.193 257.78 157.056 256.462C159.918 255.145 162.487 253.247 164.606 250.887C166.527 248.892 168.891 247.396 171.499 246.527C174.108 245.657 176.883 245.438 179.592 245.889C184.234 246.5 188.948 245.627 193.08 243.391C197.098 241.049 200.288 237.477 202.196 233.184C203.419 230.031 205.376 227.227 207.9 225.014C210.423 222.801 213.437 221.245 216.683 220.479C221.02 219.522 224.929 217.144 227.809 213.709C230.689 210.274 232.381 205.972 232.627 201.464C232.679 198.056 233.576 194.716 235.235 191.755C236.895 188.794 239.262 186.307 242.118 184.524C245.85 182.082 248.756 178.535 250.444 174.36C251.909 170.273 252.011 165.808 250.735 161.655C249.827 158.553 249.568 155.292 249.977 152.082C250.386 148.872 251.452 145.785 253.108 143.021C255.6 139.029 256.947 134.409 256.999 129.681C257.05 124.952 255.803 120.303 253.399 116.256ZM249.569 141.031C247.641 144.286 246.405 147.916 245.939 151.687C245.473 155.458 245.788 159.286 246.864 162.926C247.95 166.322 247.847 169.996 246.572 173.323C245.297 176.651 242.929 179.426 239.87 181.179C236.502 183.339 233.713 186.315 231.752 189.84C229.79 193.365 228.718 197.33 228.63 201.38C228.412 204.988 227.042 208.426 224.728 211.171C222.414 213.915 219.282 215.815 215.809 216.583C211.98 217.422 208.407 219.189 205.392 221.732C202.378 224.276 200.01 227.521 198.492 231.194C197.021 234.802 194.396 237.799 191.04 239.698C187.685 241.597 183.797 242.286 180.009 241.654C176.719 241.125 173.352 241.394 170.184 242.439C167.015 243.484 164.134 245.276 161.775 247.668C159.38 250.442 156.241 252.444 152.744 253.429C149.246 254.415 145.542 254.341 142.085 253.216C138.018 252.069 133.817 251.485 129.597 251.48C124.819 251.512 120.065 252.153 115.443 253.385C113.787 253.837 112.079 254.065 110.364 254.063C107.811 254.044 105.29 253.484 102.96 252.42C100.631 251.355 98.5452 249.809 96.8353 247.88C94.5846 245.462 91.793 243.633 88.6981 242.55C85.6032 241.466 82.2967 241.159 79.06 241.654C75.0861 242.346 70.9991 241.662 67.4523 239.712C63.9055 237.762 61.1037 234.658 59.4947 230.898C57.9481 227.316 55.5991 224.152 52.6354 221.659C49.6718 219.166 46.1758 217.413 42.4272 216.541C38.7262 215.712 35.4138 213.624 33.0372 210.621C30.6606 207.618 29.362 203.88 29.3559 200.024C29.228 196.524 28.2953 193.103 26.6325 190.036C24.9697 186.969 22.6232 184.342 19.7814 182.364C16.1879 180.153 13.4397 176.765 11.9875 172.756C10.5353 168.747 10.4652 164.355 11.7888 160.3C12.7204 156.831 12.8289 153.187 12.1051 149.668C11.3814 146.148 9.84618 142.854 7.62593 140.057C5.90334 137.95 4.77954 135.404 4.37601 132.695C3.97248 129.985 4.30456 127.215 5.33637 124.684C9.77441 114.507 11.7583 103.4 11.1227 92.2857C10.95 89.4089 11.548 86.5383 12.8529 83.9801C14.1579 81.4219 16.1209 79.272 18.5325 77.7596C21.7522 75.6056 24.4234 72.705 26.3267 69.2963C28.23 65.8876 29.3109 62.068 29.4808 58.1515C29.5469 54.4331 30.877 50.8527 33.2448 48.0192C35.6126 45.1857 38.872 43.274 42.4688 42.6091C46.3031 41.769 49.8807 39.9975 52.8962 37.4459C55.9117 34.8943 58.2756 31.6384 59.7861 27.9559C61.0482 24.5037 63.4002 21.575 66.4737 19.6284C69.5471 17.6818 73.1685 16.8274 76.7705 17.199C80.5235 17.9033 84.3897 17.649 88.0224 16.459C91.655 15.269 94.9407 13.1805 97.5846 10.3806C100.061 7.42792 103.459 5.42982 107.209 4.72059C110.96 4.01136 114.837 4.63403 118.191 6.48443C121.59 8.18808 125.329 9.07411 129.118 9.07411C132.907 9.07411 136.646 8.18808 140.045 6.48443C143.441 4.54892 147.405 3.91198 151.222 4.68857C155.039 5.46516 158.457 7.60412 160.86 10.7194C163.11 13.2148 165.908 15.1333 169.026 16.3183C172.145 17.5033 175.494 17.9212 178.801 17.5378C183.127 16.7597 187.583 17.5778 191.368 19.8448C195.153 22.1118 198.019 25.6789 199.449 29.904C200.711 32.9672 202.685 35.6733 205.201 37.7902C207.717 39.9071 210.7 41.3717 213.894 42.0585C218.071 42.7423 221.872 44.9159 224.618 48.1903C227.364 51.4647 228.875 55.6262 228.88 59.9302C229.62 66.584 232.911 72.6718 238.038 76.8703C240.905 79.9122 243.51 83.1994 245.823 86.6955L247.405 88.9824C247.783 89.6512 248.01 90.3978 248.067 91.1673C248.125 91.9368 248.012 92.7097 247.738 93.4292C246.146 97.4715 245.521 101.84 245.911 106.176C246.302 110.513 247.698 114.693 249.986 118.373C252.033 121.802 253.081 125.752 253.007 129.763C252.934 133.775 251.741 137.682 249.569 141.031Z" fill="#0E0E0E"/>
<path d="M91.9961 143.521L97.4494 138.27L109.48 150.975L146.154 98.7993L152.482 103.458L110.854 162.748L91.9961 143.521Z" fill="#0E0E0E"/>
<path d="M128.5 222.758H126.46V213.611H132.163L132.454 222.758H128.292H128.5ZM128 221.234H130.997L130.789 215.178H128.083L128 221.234ZM119.883 222.377H119.133L114.554 221.784H113.805L115.179 212.721H115.928L120.091 213.272H120.84L119.883 222.377ZM115.72 220.26C116.677 220.26 117.676 220.556 118.675 220.641L119.3 214.627L116.594 214.288L115.72 220.26ZM139.323 222.165L138.199 213.06H138.99L143.153 212.425H143.902L145.484 221.445H144.735C143.236 221.7 141.696 221.954 140.197 222.123L139.323 222.165ZM139.906 214.415L140.489 220.471L143.444 220.006L142.445 214.034L139.906 214.415ZM107.311 220.471H106.562C105.105 220.09 103.606 219.667 102.149 219.201H101.4L103.981 210.434H104.73L108.893 211.578H109.642L107.311 220.471ZM103.148 217.761L106.02 218.608L107.477 212.721L105.021 212.001L103.148 217.761ZM151.52 219.963L149.147 211.112H149.897L154.06 209.884L154.809 209.63L157.598 218.354L156.89 218.608C155.433 219.074 153.935 219.54 152.436 219.921L151.52 219.963ZM151.187 212.001L152.769 217.846L155.641 216.956L153.768 211.239L151.187 212.001ZM95.1555 216.236H94.4478L90.285 214.373L89.5773 214.034L93.3655 205.564L94.0316 205.861C95.322 206.496 96.6125 207.046 97.8613 207.555L98.569 207.851L95.1555 216.236ZM91.7836 213.145L94.5311 214.373L96.7374 208.74L94.0732 207.766L91.7836 213.145ZM163.925 215.601L160.387 207.131L161.095 206.835L164.841 205.098L165.549 204.759L169.504 212.975L168.838 213.314C167.464 213.992 166.048 214.669 164.675 215.262L163.925 215.601ZM162.385 208.02L164.758 213.568L167.464 212.298L164.841 206.877L162.385 208.02ZM83.8743 210.816L83.2082 210.434C81.8761 209.672 80.5856 208.825 79.2951 207.978L78.6291 207.555L83.458 199.889L84.124 200.313L87.6624 202.515L88.3285 202.896L83.8743 210.816ZM80.7521 207.089L83.3331 208.698L86.0805 203.531L83.7494 202.091L80.7521 207.089ZM175.04 209.799L170.378 201.964L171.044 201.541L174.541 199.296L175.165 198.83L180.202 206.411L179.578 206.877L175.706 209.376L175.04 209.799ZM172.501 202.473L175.623 207.766C176.456 207.258 177.288 206.708 178.121 206.115L174.79 201.117L172.501 202.473ZM73.0509 203.531L72.4265 203.023C71.2193 202.091 70.0537 201.075 68.8881 200.059L68.3053 199.55L74.1749 192.605L74.7577 193.113C75.7984 194.045 76.8807 194.934 77.963 195.824L78.5875 196.289L73.0509 203.531ZM70.4699 199.296C71.2193 199.974 72.0102 200.609 72.8011 201.244L76.4228 196.459L74.3414 194.723L70.4699 199.296ZM185.53 202.176L179.869 195.061H180.452C181.534 194.172 182.575 193.24 183.616 192.309L184.157 191.758L190.193 198.576L189.652 199.085C188.486 200.157 187.32 201.174 186.155 202.134L185.53 202.176ZM181.992 195.273L185.78 199.974L188.028 197.983L184.073 193.494C183.366 194.341 182.7 195.061 181.992 195.527V195.273ZM63.518 195.061L62.9769 194.511C61.8945 193.41 60.8538 192.224 59.8547 191.08L59.3552 190.488L66.099 184.431L66.5985 185.024C67.5143 186.083 68.4718 187.142 69.4292 188.158L69.9704 188.709L63.518 195.061ZM61.5199 190.826L63.518 193.071L67.6809 188.836L65.9741 186.591L61.5199 190.826ZM194.73 193.833L188.153 187.565L188.653 187.015C189.596 185.998 190.512 184.94 191.4 183.839L191.9 183.246L198.81 189.132L198.31 189.725C197.311 190.953 196.271 192.097 195.271 193.24L194.73 193.833ZM190.276 187.481L194.439 191.716L196.437 189.429L191.858 185.533C191.691 185.956 191.067 186.591 190.443 187.311L190.276 187.481ZM55.0675 185.448L54.6096 184.855C53.6938 183.584 52.8196 182.272 51.987 181.001L51.5707 180.323L59.0638 175.326L59.5217 175.961C60.2294 177.105 61.0203 178.291 61.8529 179.434L62.3108 180.069L55.0675 185.448ZM53.6938 180.789C54.2349 181.636 54.8177 182.483 55.4005 183.288L60.1878 179.731L58.6475 177.444L53.6938 180.789ZM202.806 183.796L195.438 178.545L195.854 177.91C196.645 176.766 197.436 175.58 198.144 174.394L198.56 173.759L206.178 178.587L205.803 179.265C204.971 180.578 204.138 181.89 203.264 183.161L202.806 183.796ZM197.728 178.121L202.598 181.594C203.181 180.747 203.722 179.9 204.263 179.053L199.226 175.834L197.728 178.121ZM48.3653 174.522L47.9907 173.886C47.283 172.531 46.5753 171.134 45.9093 169.651L45.5762 168.974L53.9019 165.035L54.2349 165.755C54.8177 166.983 55.4421 168.254 56.1082 169.524L56.4412 170.202L48.3653 174.522ZM47.616 169.651L48.9898 172.362L54.3182 169.651L53.0693 167.195L47.616 169.651ZM209.592 172.658L201.599 168.423L201.932 167.745C202.556 166.475 203.139 165.204 203.722 163.934L204.013 163.214L212.339 166.941L212.006 167.661C211.423 169.058 210.757 170.498 210.05 171.896L209.592 172.658ZM203.639 167.83L208.926 170.583C209.383 169.651 209.8 168.72 210.216 167.83L204.804 165.416C204.43 166.094 204.18 166.941 203.639 167.745V167.83ZM43.0369 162.621L42.7872 161.901C42.2321 160.405 41.7326 158.923 41.2885 157.454V156.734L49.864 154.024L50.1137 154.744C50.53 156.099 50.9463 157.454 51.4458 158.979L51.6956 159.699L43.0369 162.621ZM43.0369 157.751C43.3283 158.725 43.6613 159.699 43.9944 160.631L49.5726 158.556L48.6984 155.972L43.0369 157.751ZM214.712 160.673L206.178 157.709L206.428 156.989C206.886 155.676 207.302 154.321 207.677 152.965L207.885 152.203L216.544 154.744L216.335 155.464C215.919 156.989 215.461 158.471 214.962 159.953L214.712 160.673ZM208.093 156.946L213.713 158.937C214.004 157.963 214.337 156.989 214.587 156.015L208.884 154.363C208.634 154.998 208.343 155.887 208.093 156.946ZM39.4153 150.213V149.45C39.0822 147.968 38.7908 146.401 38.5411 144.876V144.114L47.4495 142.632V143.394C47.4495 144.792 47.9074 146.189 48.1988 147.629V148.392L39.4153 150.213ZM40.0397 145.385C40.0397 146.401 40.3727 147.375 40.5809 148.392L46.4088 147.121C46.4088 146.232 46.0342 145.3 45.9093 144.411L40.0397 145.385ZM218.042 148.18L209.175 146.486V145.723C209.425 144.368 209.633 142.971 209.841 141.488V140.726L218.791 141.997V142.759C218.791 144.284 218.334 145.851 218.042 147.375V148.18ZM210.965 145.258L216.793 146.359C216.793 145.385 217.168 144.368 217.293 143.352L211.423 142.547C211.298 143.437 211.132 144.241 210.965 145.258ZM37.6669 137.423V136.661C37.6669 135.094 37.6669 133.527 37.6669 131.96V131.197L46.6586 130.986V131.79C46.6586 133.188 46.6586 134.585 46.6586 136.025V136.83L37.6669 137.423ZM38.9574 132.722V135.771L44.9102 135.348C44.9102 134.416 44.9102 133.484 44.9102 132.595L38.9574 132.722ZM219.791 135.348L210.799 134.882V134.12C210.799 132.722 210.799 131.324 210.799 129.885V128.614H219.791V129.927C219.791 131.494 219.791 133.103 219.791 134.628V135.348ZM212.422 133.442L218.334 133.738C218.334 132.553 218.334 131.324 218.334 130.139H212.506C212.506 131.24 212.506 132.341 212.256 133.442H212.422ZM46.4921 124.972L37.542 124.379V123.574C37.542 122.05 37.7918 120.483 37.9583 118.916V118.154L46.9084 119.212V119.975C46.9084 121.372 46.617 122.812 46.5337 124.21L46.4921 124.972ZM38.999 123.066L44.9102 123.49L45.16 120.737L39.2488 120.059L38.999 123.066ZM210.507 122.77V122.007C210.507 120.61 210.216 119.17 210.008 117.772V116.968L218.916 115.655V116.417C219.166 117.984 219.333 119.551 219.458 121.076V121.88L210.507 122.77ZM211.548 118.323C211.548 119.255 211.798 120.144 211.881 121.076L217.792 120.483C217.792 119.509 217.584 118.492 217.418 117.476L211.548 118.323ZM47.7825 113.537L38.9574 111.632V110.869C39.2904 109.387 39.6234 107.82 39.9981 106.338L40.2062 105.576L48.9065 107.905V108.625C48.5319 109.98 48.2405 111.378 47.9491 112.86L47.7825 113.537ZM40.789 110.361L46.617 111.589C46.617 110.7 46.9916 109.811 47.1997 108.921L41.455 107.397C41.2053 108.455 40.9971 109.472 40.789 110.361ZM208.717 111.123V110.361C208.426 109.006 208.051 107.608 207.677 106.126L207.427 105.406L216.086 102.823V103.585C216.544 105.11 216.918 106.634 217.293 108.117V108.879L208.717 111.123ZM209.175 106.592C209.425 107.481 209.633 108.371 209.883 109.218L215.628 107.82C215.433 106.86 215.184 105.886 214.878 104.898L209.175 106.592ZM50.7798 102.357L42.4541 99.2231L42.7039 98.5031C43.2451 97.0632 43.7862 95.581 44.369 94.2681L44.7021 93.5481L53.0277 97.0632L52.7363 97.7832C52.1951 99.096 51.6956 100.409 51.2377 101.764L50.7798 102.357ZM44.2858 98.122L49.864 100.197L50.863 97.6138L45.3681 95.2845C44.9935 96.3009 44.6188 97.275 44.2858 98.2067V98.122ZM205.387 99.943L205.137 99.2231C204.638 97.9102 204.097 96.5974 203.514 95.3269L203.181 94.6493L211.507 90.8377L211.84 91.5577C212.464 92.9976 213.088 94.4375 213.63 95.7927L213.921 96.5127L205.387 99.943ZM205.387 95.4115C205.762 96.2585 206.095 97.0632 206.428 97.9102L211.964 95.708C211.59 94.7763 211.215 93.8446 210.799 92.9129L205.387 95.4115ZM55.5254 91.473L47.5744 87.238L47.9491 86.5604C48.6567 85.1628 49.4477 83.8076 50.197 82.3254L50.6133 81.6478L58.3145 86.3063L57.9398 86.9839C57.2322 88.212 56.5661 89.4402 55.9001 90.6683L55.5254 91.473ZM49.6558 86.518L54.901 89.3555L56.2331 86.9415L51.1128 83.85L49.6558 86.518ZM200.766 89.3555L200.017 88.7626C199.351 87.5768 198.643 86.3486 197.894 85.1628L197.478 84.4852L205.096 79.615L205.512 80.2502C206.345 81.5631 207.136 82.9183 207.885 84.2735L208.343 84.9511L200.766 89.3555ZM199.975 85.1205C200.433 85.8828 200.933 86.6874 201.349 87.4497L206.553 84.4852L205.012 81.9019L199.975 85.1205ZM61.3117 81.5631L53.9852 76.1846L54.4431 75.5494C55.3589 74.3212 56.2747 73.0507 57.2322 71.8225L57.7317 71.2296L64.7669 76.9469L64.2673 77.5822C63.3931 78.6409 62.5606 79.7844 61.7696 80.9278L61.3117 81.5631ZM56.1498 75.8458L60.9787 79.4032C61.4782 78.6409 62.061 77.921 62.6022 77.201L57.9815 73.4319L56.1498 75.8458ZM194.356 79.6573L193.898 79.0644C193.065 77.9633 192.149 76.8199 191.275 75.7611L190.776 75.1682L197.644 69.2392L198.144 69.8321C199.143 71.0179 200.1 72.2461 201.016 73.4742L201.474 74.1095L194.356 79.6573ZM192.94 75.4223L194.605 77.5822L199.351 73.8977L197.478 71.5261L192.94 75.4223ZM68.555 72.6272L62.061 66.2747L62.6022 65.7241C63.6845 64.5807 64.7669 63.4796 65.8908 62.4208L66.432 61.8703L72.593 68.5192L72.0518 69.0698L69.0962 72.0343L68.555 72.6272ZM64.3922 66.2323L68.555 70.4673C69.1795 69.7897 69.8455 69.1545 70.4699 68.5192L66.3071 64.2842L64.3922 66.2323ZM186.987 70.9332L186.446 70.3826C185.489 69.4086 184.49 68.4345 183.407 67.5028L182.866 66.9523L188.861 60.1339L189.402 60.6421C190.567 61.7009 191.691 62.7596 192.774 63.8607L193.315 64.4113L186.987 70.9332ZM185.031 66.6982L186.987 68.5616L191.15 64.3266L188.986 62.2514L185.031 66.6982ZM77.1721 64.496L71.4274 57.4235L72.0102 56.9153C73.2174 55.9836 74.4663 55.0096 75.7151 54.1202L76.3395 53.6544L81.5431 61.1503L80.9186 61.5738L77.5884 64.1148L77.1721 64.496ZM73.7586 57.5929L77.4219 62.3361L79.5865 60.6845L76.1314 55.7719L73.7586 57.5929ZM178.37 63.0561L177.746 62.5902C176.664 61.7856 175.498 60.9386 174.332 60.1763L173.708 59.7528L178.703 52.1298L179.369 52.5533C180.618 53.4003 181.867 54.332 183.116 55.2637L183.74 55.7295L178.37 63.0561ZM175.665 59.541C176.414 60.0492 177.163 60.5574 177.871 61.108L181.409 56.2801C180.618 55.6448 179.786 55.0519 178.953 54.5014L175.665 59.541ZM86.4136 58.0588L81.8761 50.1393L82.5421 49.7582C83.8743 48.9958 85.2064 48.2335 86.705 47.5136L87.371 47.1324L91.5339 55.2637L90.8262 55.6448L87.2045 57.6776L86.4136 58.0588ZM83.9575 50.7322L86.9547 55.9413L89.3276 54.6284L86.5801 49.2499L83.9575 50.7322ZM168.588 56.873L167.922 56.5342C166.714 55.8566 165.466 55.179 164.217 54.5861L163.551 54.2473L167.464 45.7772L168.13 46.116C169.545 46.7936 170.933 47.5136 172.293 48.2759L172.959 48.6571L168.588 56.873ZM165.591 53.5273C166.381 53.9508 167.172 54.332 167.963 54.7978L170.877 49.3347L168.213 47.9371L165.591 53.5273ZM96.6541 52.8074L93.2406 44.3373L93.9483 44.0409C95.3637 43.448 96.779 42.8974 98.1111 42.3892L98.8604 42.0928L101.816 50.7746L101.108 51.0287L97.2369 52.5109L96.6541 52.8074ZM95.2388 45.1843L97.4867 50.7746L100.026 49.8005L98.0279 44.0832L95.2388 45.1843ZM158.389 51.791L157.64 51.5369C156.349 51.0287 155.059 50.5628 153.726 50.1393L152.977 49.8852L155.725 41.1611L156.474 41.4152C157.945 41.8669 159.332 42.3751 160.637 42.9398L161.344 43.2362L158.389 51.791ZM154.934 48.8688L157.473 49.8005L159.554 44.1256L156.724 43.1515L154.934 48.8688ZM107.686 48.8688L105.313 40.06L106.02 39.8482L110.516 38.8318H111.266L113.056 47.81H112.306C110.933 48.0641 109.601 48.4029 108.144 48.7417L107.686 48.8688ZM107.311 41.1187L108.435 47.0477L111.058 46.4548L109.934 40.5258C109.101 40.6952 108.144 40.9493 107.144 41.1611L107.311 41.1187ZM147.399 48.3183H146.65C145.318 48.0218 143.944 47.7253 142.487 47.5136H141.738L143.195 38.366H143.944L148.44 39.2977H149.189L147.399 48.3183ZM143.611 45.9466L146.233 46.4548L147.524 40.5682L144.61 39.9753L143.611 45.9466ZM118.759 46.836L117.801 37.7307H118.551C120.077 37.5613 121.617 37.4343 123.171 37.3496H123.921L124.42 46.4972H123.671L119.508 46.836H118.759ZM119.508 39.1283L120.132 45.142L122.838 44.8879L122.464 38.7895C121.465 38.8318 120.465 38.9165 119.508 39.0436V39.1283ZM135.91 46.5819H135.16C133.787 46.5819 132.413 46.3701 130.997 46.3278H130.248L130.498 37.1802H131.289C132.787 37.1802 134.369 37.1802 135.868 37.4343H136.617L135.91 46.5819ZM131.747 44.7608H134.411L134.91 38.7471H131.913L131.747 44.7608Z" fill="#0E0E0E"/>
</g>
</svg>
