<svg width="440" height="288" viewBox="0 0 440 288" fill="none"
  xmlns="http://www.w3.org/2000/svg">
  <g clip-path="url(#clip0)">
    <path d="M292.673 263.24L292.125 262.426C292.935 261.879 293.739 261.324 294.538 260.762L295.102 261.565C294.299 262.131 293.489 262.69 292.673 263.24Z" fill="#CCCCCC"/>
    <path d="M213.569 287.692L213.562 286.71C215.544 286.696 217.548 286.64 219.518 286.545L219.565 287.526C217.582 287.622 215.564 287.677 213.569 287.692ZM207.57 287.612C205.58 287.544 203.564 287.434 201.581 287.284L201.654 286.305C203.625 286.454 205.626 286.563 207.604 286.63L207.57 287.612ZM225.548 287.112L225.461 286.134C227.428 285.957 229.42 285.736 231.381 285.477L231.509 286.45C229.535 286.711 227.53 286.934 225.548 287.112ZM195.609 286.709C193.628 286.476 191.628 286.199 189.667 285.885L189.822 284.915C191.77 285.227 193.755 285.502 195.723 285.734L195.609 286.709ZM237.437 285.539L237.268 284.572C239.214 284.232 241.181 283.844 243.113 283.422L243.323 284.381C241.377 284.807 239.396 285.197 237.437 285.539ZM183.764 284.812C181.814 284.415 179.845 283.971 177.912 283.492L178.147 282.539C180.067 283.015 182.022 283.455 183.96 283.85L183.764 284.812ZM249.155 282.976L248.905 282.026C250.817 281.523 252.744 280.972 254.633 280.388L254.923 281.326C253.02 281.914 251.08 282.469 249.155 282.976ZM172.106 281.923C170.194 281.362 168.265 280.753 166.374 280.111L166.688 279.181C168.567 279.818 170.482 280.424 172.382 280.981L172.106 281.923ZM260.616 279.435L260.288 278.51C262.151 277.847 264.025 277.136 265.859 276.395L266.225 277.306C264.379 278.051 262.492 278.768 260.616 279.435ZM160.723 278.058C158.862 277.337 156.992 276.567 155.166 275.77L155.558 274.87C157.372 275.662 159.228 276.426 161.077 277.143L160.723 278.058ZM271.741 274.942L271.336 274.048C273.139 273.229 274.947 272.363 276.71 271.472L277.152 272.348C275.377 273.245 273.556 274.118 271.741 274.942ZM149.711 273.25C147.919 272.376 146.121 271.452 144.367 270.504L144.833 269.64C146.575 270.582 148.361 271.5 150.14 272.368L149.711 273.25ZM282.45 269.53L281.972 268.673C283.699 267.707 285.429 266.691 287.112 265.655L287.626 266.492C285.93 267.535 284.189 268.557 282.45 269.53ZM139.144 267.536C137.434 266.516 135.72 265.445 134.051 264.353L134.587 263.531C136.245 264.616 137.947 265.68 139.646 266.692L139.144 267.536ZM129.095 260.96C127.476 259.801 125.857 258.591 124.285 257.364L124.888 256.59C126.45 257.809 128.057 259.01 129.665 260.161L129.095 260.96ZM119.63 253.571C118.11 252.28 116.598 250.94 115.136 249.589L115.801 248.867C117.253 250.209 118.755 251.54 120.264 252.822L119.63 253.571ZM110.812 245.423C109.406 244.011 108.011 242.551 106.665 241.083L107.388 240.418C108.724 241.877 110.11 243.327 111.506 244.73L110.812 245.423ZM102.702 236.574C101.42 235.052 100.151 233.482 98.9301 231.905L99.705 231.303C100.917 232.869 102.178 234.429 103.451 235.94L102.702 236.574ZM95.3557 227.083C94.2029 225.459 93.0688 223.789 91.9852 222.118L92.8074 221.583C93.8837 223.242 95.0099 224.901 96.1549 226.515L95.3557 227.083ZM88.8249 217.017C87.8113 215.303 86.8206 213.544 85.8804 211.79L86.7443 211.326C87.6781 213.068 88.6619 214.814 89.6686 216.517L88.8249 217.017ZM83.1574 206.445C82.2911 204.653 81.4511 202.818 80.6607 200.992L81.5605 200.601C82.3454 202.415 83.1796 204.237 84.0399 206.017L83.1574 206.445ZM78.3954 195.44C77.6815 193.58 76.9977 191.68 76.3633 189.794L77.2924 189.48C77.9227 191.354 78.6016 193.241 79.3106 195.088L78.3954 195.44Z" fill="#CCCCCC"/>
    <path d="M74.5549 184.011C74.2811 183.066 74.0167 182.117 73.7617 181.164L74.7088 180.91C74.9619 181.857 75.2245 182.799 75.4965 183.738L74.5549 184.011Z" fill="#CCCCCC"/>
    <path d="M354.3 127.836C354.191 126.861 354.073 125.89 353.945 124.922L354.917 124.793C355.046 125.768 355.165 126.746 355.274 127.727L354.3 127.836Z" fill="#CCCCCC"/>
    <path d="M341.615 207.012L340.734 206.581C341.577 204.857 342.395 203.093 343.168 201.335L344.065 201.731C343.287 203.501 342.463 205.277 341.615 207.012ZM346.298 196.354L345.385 195.995C346.085 194.209 346.758 192.383 347.384 190.569L348.311 190.89C347.68 192.717 347.003 194.555 346.298 196.354ZM350.1 185.349L349.16 185.066C349.713 183.225 350.235 181.351 350.711 179.494L351.661 179.738C351.181 181.608 350.656 183.495 350.1 185.349ZM352.992 174.069L352.034 173.864C352.434 171.987 352.802 170.076 353.126 168.184L354.092 168.35C353.766 170.255 353.396 172.18 352.992 174.069ZM354.959 162.59L353.987 162.464C354.234 160.563 354.446 158.628 354.617 156.713L355.593 156.8C355.421 158.729 355.208 160.677 354.959 162.59ZM355.994 150.989L355.015 150.941C355.108 149.027 355.164 147.081 355.181 145.158L356.162 145.167C356.144 147.103 356.088 149.062 355.994 150.989ZM355.119 139.372C355.06 137.453 354.961 135.509 354.826 133.597L355.804 133.527C355.94 135.453 356.039 137.409 356.099 139.342L355.119 139.372Z" fill="#CCCCCC"/>
    <path d="M337.532 214.758L336.68 214.273C337.161 213.423 337.635 212.568 338.099 211.707L338.962 212.174C338.494 213.041 338.017 213.902 337.532 214.758Z" fill="#CCCCCC"/>
    <path d="M83.6742 82.4445L82.7891 82.0221C83.2128 81.132 83.6453 80.2471 84.0866 79.3672L84.9629 79.8078C84.5246 80.6818 84.0951 81.5607 83.6742 82.4445Z" fill="#CCCCCC"/>
    <path d="M87.6971 74.6189L86.8398 74.1423C87.7905 72.4271 88.7894 70.7093 89.8088 69.0358L90.6458 69.5473C89.6333 71.2091 88.6413 72.9154 87.6971 74.6189ZM334.815 70.2365C333.814 68.5714 332.762 66.9022 331.691 65.2755L332.509 64.7347C333.588 66.3727 334.647 68.0534 335.655 69.7298L334.815 70.2365ZM93.8005 64.5999L92.9852 64.0548C94.073 62.4237 95.2095 60.7929 96.363 59.2081L97.1553 59.7863C96.0097 61.3606 94.881 62.9802 93.8005 64.6V64.5999ZM328.366 60.4465C327.229 58.8665 326.045 57.2889 324.846 55.7575L325.617 55.1515C326.825 56.6934 328.017 58.2818 329.161 59.8726L328.366 60.4465ZM100.704 55.1149L99.9359 54.5045C101.154 52.9677 102.419 51.4358 103.697 49.9515L104.44 50.593C103.17 52.0671 101.913 53.5884 100.704 55.1149V55.1149ZM321.137 51.216C319.875 49.7329 318.565 48.2569 317.246 46.8294L317.966 46.1624C319.294 47.5998 320.612 49.0856 321.883 50.5788L321.137 51.216ZM108.357 46.2277L107.641 45.5565C108.979 44.1261 110.365 42.7028 111.761 41.3268L112.449 42.0263C111.062 43.3932 109.685 44.8069 108.357 46.2277ZM313.179 42.6053C311.801 41.2317 310.376 39.8674 308.943 38.5504L309.606 37.8269C311.049 39.153 312.484 40.5266 313.871 41.9096L313.179 42.6053ZM116.707 37.9964L116.049 37.2691C117.498 35.9525 118.995 34.6475 120.498 33.3904L121.127 34.1441C119.634 35.3925 118.147 36.6887 116.707 37.9964ZM304.544 34.6719C303.058 33.4146 301.527 32.1712 299.991 30.9761L300.593 30.2009C302.139 31.4041 303.681 32.6561 305.177 33.9221L304.544 34.6719ZM125.699 30.4759L125.102 29.6972C126.653 28.5039 128.252 27.3259 129.852 26.1959L130.417 26.9984C128.827 28.1208 127.24 29.2909 125.699 30.4758V30.4759ZM295.29 27.4695C293.706 26.3378 292.078 25.2238 290.45 24.1585L290.986 23.3365C292.625 24.4092 294.265 25.5306 295.86 26.6703L295.29 27.4695ZM135.273 23.7176L134.741 22.8925C136.385 21.8303 138.074 20.7875 139.761 19.7931L140.258 20.6393C138.583 21.627 136.905 22.6626 135.273 23.7176ZM285.476 21.049C283.807 20.0518 282.092 19.0752 280.38 18.1465L280.847 17.283C282.571 18.2182 284.297 19.2015 285.979 20.2057L285.476 21.049ZM145.365 17.7684L144.903 16.9026C146.63 15.9782 148.398 15.0781 150.159 14.227L150.585 15.1111C148.836 15.9564 147.08 16.8505 145.365 17.7684V17.7684ZM275.168 15.4561C273.415 14.5974 271.626 13.7655 269.848 12.9836L270.242 12.0846C272.032 12.8719 273.834 13.7095 275.598 14.5744L275.168 15.4561ZM155.909 12.6722L155.519 11.7708C157.314 10.9934 159.149 10.2424 160.976 9.53878L161.328 10.4555C159.514 11.154 157.691 11.8998 155.909 12.6722ZM264.43 10.7328C262.618 10.0237 260.765 9.34246 258.924 8.70838L259.242 7.7797C261.097 8.41832 262.963 9.10416 264.787 9.81829L264.43 10.7328ZM166.833 8.46507L166.519 7.53495C168.374 6.90735 170.265 6.31093 172.139 5.7622L172.414 6.70479C170.553 7.24968 168.675 7.84203 166.833 8.46507ZM253.337 6.91383C251.47 6.35672 249.567 5.83125 247.68 5.35228L247.92 4.40059C249.821 4.88291 251.737 5.41173 253.617 5.97268L253.337 6.91383ZM178.063 5.1768L177.827 4.22367C179.726 3.75214 181.659 3.31417 183.572 2.92246L183.768 3.88423C181.869 4.27354 179.949 4.70839 178.063 5.1768ZM241.961 4.02686C240.064 3.62796 238.127 3.26263 236.203 2.94068L236.365 1.9722C238.301 2.29631 240.252 2.66428 242.163 3.06604L241.961 4.02686ZM189.532 2.82681L189.375 1.85738C191.307 1.54382 193.273 1.26646 195.217 1.03298L195.334 2.00768C193.403 2.23974 191.451 2.51541 189.532 2.82681ZM230.406 2.09302C228.481 1.85187 226.52 1.64691 224.578 1.48437L224.66 0.505828C226.615 0.669555 228.589 0.875722 230.528 1.1188L230.406 2.09302ZM201.164 1.42779L201.087 0.448766C203.038 0.295099 205.019 0.179314 206.976 0.104758L207.014 1.08595C205.07 1.16003 203.102 1.27485 201.164 1.4278V1.42779ZM218.731 1.11423C216.789 1.03129 214.818 0.986696 212.873 0.9819L212.875 0C214.834 0.00479658 216.818 0.0496299 218.773 0.133293L218.731 1.11423Z" fill="#CCCCCC"/>
    <path d="M339.138 77.9553C338.687 77.0868 338.227 76.2236 337.758 75.3658L338.618 74.8945C339.09 75.7582 339.553 76.6273 340.008 77.5017L339.138 77.9553Z" fill="#CCCCCC"/>
    <path d="M181.146 96.2266H172.076V173.06C172.074 175.013 171.299 176.884 169.92 178.265C168.541 179.645 166.672 180.422 164.723 180.424H16.4219V187.052C16.425 189.265 17.3041 191.386 18.8664 192.95C20.4287 194.515 22.5467 195.395 24.7561 195.398H181.146C183.356 195.395 185.474 194.515 187.036 192.95C188.598 191.386 189.477 189.265 189.48 187.052V104.573C189.477 102.36 188.598 100.239 187.036 98.6746C185.474 97.11 183.356 96.2297 181.146 96.2266Z" fill="#F2F2F2"/>
    <path d="M164.724 82.2344H8.33426C6.12484 82.2375 4.0068 83.1178 2.4445 84.6824C0.882198 86.2469 0.00312554 88.3679 0 90.5805V173.06C0.00312683 175.273 0.882206 177.394 2.44451 178.958C4.00681 180.523 6.12484 181.403 8.33426 181.406H164.724C166.934 181.403 169.052 180.523 170.614 178.958C172.176 177.394 173.055 175.273 173.058 173.06V90.5805C173.055 88.3679 172.176 86.2469 170.614 84.6824C169.052 83.1178 166.934 82.2375 164.724 82.2344ZM172.078 173.06C172.076 175.012 171.3 176.884 169.921 178.265C168.543 179.645 166.674 180.422 164.724 180.424H8.33426C6.38465 180.422 4.51557 179.645 3.13699 178.265C1.7584 176.884 0.982873 175.012 0.980501 173.06V90.5805C0.982873 88.6281 1.7584 86.7564 3.13699 85.3758C4.51557 83.9953 6.38465 83.2186 8.33426 83.2163H164.724C166.674 83.2186 168.543 83.9953 169.921 85.3758C171.3 86.7564 172.076 88.6281 172.078 90.5805V173.06Z" fill="#3F3D56"/>
    <path d="M152.928 143.113H98.0197C96.9795 143.113 95.9819 142.699 95.2464 141.963C94.5109 141.226 94.0977 140.227 94.0977 139.185C94.0977 138.144 94.5109 137.145 95.2464 136.408C95.9819 135.672 96.9795 135.258 98.0197 135.258H152.928C153.968 135.258 154.965 135.672 155.701 136.408C156.437 137.145 156.85 138.144 156.85 139.185C156.85 140.227 156.437 141.226 155.701 141.963C154.965 142.699 153.968 143.113 152.928 143.113Z" fill="#CCCCCC"/>
    <path d="M118.61 126.418H98.0197C96.9795 126.418 95.9819 126.004 95.2464 125.267C94.5109 124.531 94.0977 123.532 94.0977 122.49C94.0977 121.448 94.5109 120.449 95.2464 119.713C95.9819 118.976 96.9795 118.562 98.0197 118.562H118.61C119.65 118.562 120.648 118.976 121.383 119.713C122.119 120.449 122.532 121.448 122.532 122.49C122.532 123.532 122.119 124.531 121.383 125.267C120.648 126.004 119.65 126.418 118.61 126.418Z" fill="#CCCCCC"/>
    <path d="M73.2938 162.749H23.2882C22.1834 162.748 21.1242 162.308 20.343 161.526C19.5618 160.743 19.1223 159.683 19.1211 158.576V103.099C19.1223 101.992 19.5618 100.932 20.343 100.149C21.1242 99.3671 22.1834 98.927 23.2882 98.9258H73.2938C74.3986 98.927 75.4578 99.3671 76.239 100.149C77.0202 100.932 77.4597 101.992 77.4609 103.099V158.576C77.4597 159.683 77.0202 160.743 76.239 161.526C75.4578 162.308 74.3986 162.748 73.2938 162.749Z" fill="#766458"/>
    <path d="M49.0482 151.195C47.9456 151.164 46.5733 151.125 45.5167 150.352C45.202 150.112 44.9434 149.807 44.759 149.456C44.5747 149.106 44.469 148.72 44.4495 148.324C44.4304 148.043 44.4765 147.761 44.5841 147.501C44.6917 147.241 44.858 147.009 45.0699 146.824C45.3849 146.588 45.7537 146.435 46.1427 146.379C46.5317 146.323 46.9285 146.366 47.297 146.503L46.3969 139.915L47.0576 139.824L48.1159 147.569L47.5641 147.315C46.9244 147.021 46.0462 146.872 45.5005 147.334C45.3665 147.454 45.2621 147.604 45.1954 147.772C45.1288 147.94 45.1016 148.121 45.1161 148.3C45.1322 148.595 45.2115 148.882 45.3486 149.143C45.4856 149.404 45.6771 149.633 45.9102 149.813C46.7324 150.414 47.8262 150.492 49.0669 150.527L49.0482 151.195Z" fill="white"/>
    <path d="M43.1274 140.48H39.5352V141.148H43.1274V140.48Z" fill="white"/>
    <path d="M54.4672 140.48H50.875V141.148H54.4672V140.48Z" fill="white"/>
    <path d="M33.2935 131.257C30.4008 130.927 28.1604 128.151 27.9143 125.335C27.6216 121.985 29.57 118.803 32.2429 116.923C35.0383 114.957 38.521 114.136 41.8907 113.955C48.4641 113.627 54.9243 115.76 60.0149 119.937C62.5399 122.037 64.898 124.713 65.7918 127.944C66.568 130.75 65.9363 133.929 63.6826 135.894C63.1251 136.376 62.4739 136.737 61.7702 136.954C61.0665 137.171 60.3256 137.239 59.5941 137.155C57.8453 136.973 56.2318 136.052 54.8351 135.035C52.1183 133.057 49.8879 130.301 46.5779 129.268C44.1509 128.51 41.0014 129.177 39.5182 131.375C39.1817 131.878 38.9636 132.451 38.8804 133.051C38.8498 133.179 38.8688 133.314 38.9337 133.428C38.9985 133.542 39.1044 133.628 39.2298 133.667C39.3577 133.702 39.494 133.684 39.6092 133.619C39.7244 133.553 39.8092 133.445 39.8451 133.317C40.2345 130.549 43.6335 129.516 46.0188 130.148C49.4965 131.07 51.8311 134.178 54.6845 136.152C56.1615 137.255 57.9015 137.951 59.7309 138.169C61.3171 138.294 62.8912 137.81 64.134 136.815C66.5716 134.887 67.5038 131.572 66.9648 128.587C66.3406 125.13 64.0174 122.168 61.4683 119.874C56.3007 115.273 49.5918 112.792 42.6785 112.923C39.1524 113.004 35.4732 113.733 32.4355 115.599C29.4889 117.41 27.2114 120.438 26.9137 123.959C26.6517 127.058 28.3119 130.299 31.1618 131.657C31.8337 131.975 32.5543 132.179 33.2935 132.259C33.9321 132.332 33.9269 131.33 33.2935 131.257Z" fill="white"/>
    <path d="M430.687 226.328H422.813V252.015C422.81 254.227 421.931 256.348 420.369 257.913C418.807 259.477 416.688 260.358 414.479 260.361H217.918V264.131C217.92 266.605 218.902 268.976 220.649 270.725C222.395 272.474 224.763 273.457 227.233 273.459H430.687C433.157 273.457 435.524 272.474 437.271 270.725C439.017 268.976 439.999 266.605 440.002 264.131V235.656C439.999 233.183 439.017 230.812 437.271 229.063C435.524 227.314 433.157 226.33 430.687 226.328Z" fill="#F2F2F2"/>
    <path d="M414.476 214.211H211.022C208.552 214.213 206.184 215.197 204.438 216.946C202.691 218.694 201.709 221.066 201.707 223.539V252.014C201.709 254.487 202.691 256.859 204.438 258.608C206.184 260.356 208.552 261.34 211.022 261.342H414.476C416.946 261.34 419.314 260.356 421.06 258.608C422.806 256.859 423.788 254.487 423.791 252.014V223.539C423.788 221.066 422.806 218.694 421.06 216.946C419.314 215.197 416.946 214.213 414.476 214.211ZM422.81 252.014C422.807 254.227 421.928 256.348 420.366 257.912C418.803 259.477 416.685 260.357 414.476 260.36H211.022C208.812 260.357 206.694 259.477 205.132 257.912C203.57 256.348 202.691 254.227 202.688 252.014V223.539C202.691 221.326 203.57 219.205 205.132 217.641C206.694 216.076 208.812 215.196 211.022 215.193H414.476C416.685 215.196 418.803 216.076 420.366 217.641C421.928 219.205 422.807 221.326 422.81 223.539V252.014Z" fill="#3F3D56"/>
    <path d="M246.731 222.066C243.628 222.066 240.595 222.988 238.015 224.714C235.435 226.44 233.425 228.894 232.237 231.765C231.05 234.635 230.739 237.794 231.344 240.842C231.95 243.889 233.444 246.689 235.638 248.886C237.832 251.083 240.627 252.579 243.67 253.185C246.714 253.791 249.868 253.48 252.735 252.291C255.601 251.102 258.051 249.089 259.775 246.505C261.499 243.921 262.419 240.884 262.419 237.777C262.414 233.612 260.76 229.618 257.819 226.673C254.878 223.728 250.89 222.071 246.731 222.066Z" fill="#766458"/>
    <path d="M390.537 251.035H278.27C277.229 251.035 276.232 250.621 275.496 249.885C274.761 249.148 274.348 248.149 274.348 247.107C274.348 246.066 274.761 245.067 275.496 244.33C276.232 243.593 277.229 243.18 278.27 243.18H390.537C391.577 243.18 392.575 243.593 393.31 244.33C394.046 245.067 394.459 246.066 394.459 247.107C394.459 248.149 394.046 249.148 393.31 249.885C392.575 250.621 391.577 251.035 390.537 251.035Z" fill="#CCCCCC"/>
    <path d="M334.158 234.34H278.27C277.229 234.34 276.232 233.926 275.496 233.189C274.761 232.453 274.348 231.454 274.348 230.412C274.348 229.37 274.761 228.371 275.496 227.635C276.232 226.898 277.229 226.484 278.27 226.484H334.158C335.198 226.484 336.196 226.898 336.932 227.635C337.667 228.371 338.08 229.37 338.08 230.412C338.08 231.454 337.667 232.453 336.932 233.189C336.196 233.926 335.198 234.34 334.158 234.34Z" fill="#CCCCCC"/>
    <path d="M245.667 244.646C245.261 244.646 244.867 244.515 244.543 244.272L244.522 244.256L240.288 241.012C239.892 240.708 239.632 240.259 239.567 239.764C239.502 239.268 239.636 238.767 239.939 238.37C240.243 237.974 240.691 237.714 241.186 237.648C241.681 237.583 242.182 237.717 242.578 238.021L245.321 240.128L251.802 231.66C251.952 231.463 252.14 231.298 252.354 231.175C252.568 231.051 252.804 230.97 253.049 230.938C253.294 230.906 253.542 230.922 253.781 230.986C254.02 231.05 254.243 231.16 254.44 231.311L254.44 231.311L254.4 231.367L254.441 231.311C254.837 231.616 255.095 232.065 255.161 232.56C255.226 233.055 255.092 233.556 254.789 233.953L247.165 243.909C246.989 244.138 246.762 244.324 246.503 244.451C246.243 244.579 245.958 244.644 245.668 244.644L245.667 244.646Z" fill="white"/>
    <path d="M401.761 86.4062H400.722C400.742 86.6174 400.751 86.8334 400.751 87.0543V115.529C400.748 117.742 399.869 119.863 398.307 121.428C396.745 122.992 394.627 123.872 392.417 123.876H294.887V124.209C294.887 124.425 294.897 124.641 294.911 124.857C295.075 127.213 296.125 129.419 297.85 131.029C299.574 132.64 301.844 133.536 304.201 133.537H401.761C404.231 133.535 406.599 132.552 408.345 130.803C410.092 129.054 411.074 126.683 411.076 124.209V95.7343C411.074 93.261 410.092 90.8897 408.345 89.1408C406.599 87.392 404.231 86.4085 401.761 86.4062Z" fill="#F2F2F2"/>
    <path d="M401.708 86.4066C401.544 84.051 400.494 81.8454 398.77 80.2346C397.045 78.6237 394.776 77.7275 392.418 77.7266H294.858C292.388 77.7288 290.02 78.7123 288.274 80.4612C286.527 82.21 285.545 84.5813 285.543 87.0546V115.53C285.545 118.003 286.527 120.374 288.274 122.123C290.02 123.872 292.388 124.855 294.858 124.858H392.418C394.887 124.855 397.255 123.872 399.002 122.123C400.748 120.374 401.73 118.003 401.732 115.53V87.0546C401.732 86.8386 401.723 86.6226 401.708 86.4066ZM400.752 115.53C400.749 117.742 399.87 119.863 398.307 121.428C396.745 122.992 394.627 123.873 392.418 123.876H294.858C292.648 123.873 290.53 122.992 288.968 121.428C287.406 119.863 286.527 117.742 286.523 115.53V87.0546C286.527 84.842 287.406 82.721 288.968 81.1564C290.53 79.5919 292.648 78.7116 294.858 78.7085H392.418C394.515 78.7114 396.534 79.5052 398.073 80.9317C399.612 82.3583 400.558 84.313 400.722 86.4066C400.742 86.6177 400.752 86.8337 400.752 87.0546V115.53Z" fill="#3F3D56"/>
    <path d="M367.658 113.566H319.613C318.573 113.566 317.576 113.152 316.84 112.416C316.105 111.679 315.691 110.68 315.691 109.639C315.691 108.597 316.105 107.598 316.84 106.861C317.576 106.125 318.573 105.711 319.613 105.711H367.658C368.698 105.711 369.696 106.125 370.431 106.861C371.167 107.598 371.58 108.597 371.58 109.639C371.58 110.68 371.167 111.679 370.431 112.416C369.696 113.152 368.698 113.566 367.658 113.566Z" fill="#CCCCCC"/>
    <path d="M352.95 96.8747H319.613C318.573 96.8747 317.576 96.4609 316.84 95.7244C316.105 94.9878 315.691 93.9888 315.691 92.9471C315.691 91.9055 316.105 90.9065 316.84 90.1699C317.576 89.4333 318.573 89.0195 319.613 89.0195H352.95C353.991 89.0195 354.988 89.4333 355.724 90.1699C356.459 90.9065 356.872 91.9055 356.872 92.9471C356.872 93.9888 356.459 94.9878 355.724 95.7244C354.988 96.4609 353.991 96.8747 352.95 96.8747Z" fill="#CCCCCC"/>
  </g>
  <defs>
    <clipPath id="clip0">
      <rect width="440" height="287.692" fill="white"/>
    </clipPath>
  </defs>
</svg>
