<svg width="73" height="73" viewBox="0 0 73 73" fill="none" xmlns="http://www.w3.org/2000/svg">
<g filter="url(#filter0_i_613_45675)">
<path fill-rule="evenodd" clip-rule="evenodd" d="M60.8301 36.9033L59.6529 36.8841C59.655 36.7561 59.656 36.6279 59.656 36.4993C59.656 36.3708 59.655 36.2426 59.6529 36.1146L60.8301 36.0954C60.8323 36.2298 60.8334 36.3644 60.8334 36.4993C60.8334 36.6343 60.8323 36.7689 60.8301 36.9033ZM60.781 34.8896L59.6061 34.9663C59.5894 34.7109 59.5686 34.4567 59.5437 34.2037L60.7155 34.0884C60.7416 34.3542 60.7635 34.6213 60.781 34.8896ZM60.5676 32.8904L59.403 33.0635C59.3653 32.8101 59.3235 32.558 59.2777 32.3074L60.436 32.0957C60.4841 32.3591 60.528 32.6241 60.5676 32.8904ZM60.1894 30.9142L59.0432 31.1834C58.9847 30.9345 58.9223 30.6872 58.8558 30.4415L59.9925 30.1342C60.0623 30.3926 60.128 30.6526 60.1894 30.9142ZM59.6485 28.9773L58.5287 29.3409C58.4497 29.0979 58.3669 28.8567 58.2802 28.6172L59.3874 28.2165C59.4785 28.4682 59.5656 28.7218 59.6485 28.9773ZM58.9483 27.0922L57.8626 27.5477C57.7637 27.3119 57.661 27.0781 57.5545 26.8464L58.6245 26.355C58.7364 26.5986 58.8443 26.8443 58.9483 27.0922ZM58.0936 25.2711L57.0494 25.8151C56.9314 25.5886 56.8097 25.3642 56.6844 25.1421L57.71 24.5637C57.8416 24.7971 57.9695 25.0329 58.0936 25.2711ZM57.0912 23.5274L56.0956 24.1559C55.9592 23.94 55.8194 23.7264 55.6762 23.5153L56.6505 22.8543C56.801 23.0761 56.9479 23.3005 57.0912 23.5274ZM55.9483 21.8725L55.0079 22.5809C54.8542 22.3769 54.6972 22.1754 54.5369 21.9767L55.4535 21.2377C55.6219 21.4465 55.7868 21.6581 55.9483 21.8725ZM54.673 20.317L53.794 21.1003C53.6241 20.9097 53.451 20.7218 53.275 20.5369L54.1278 19.7251C54.3128 19.9194 54.4945 20.1167 54.673 20.317ZM53.2743 18.8716L52.4626 19.7244C52.2776 19.5484 52.0898 19.3754 51.8991 19.2055L52.6824 18.3264C52.8827 18.5049 53.0801 18.6867 53.2743 18.8716ZM51.7617 17.5459L51.0227 18.4625C50.824 18.3023 50.6226 18.1453 50.4185 17.9916L51.127 17.0511C51.3413 17.2126 51.553 17.3776 51.7617 17.5459ZM50.1451 16.3489L49.4841 17.3232C49.273 17.18 49.0595 17.0402 48.8435 16.9039L49.472 15.9082C49.699 16.0515 49.9234 16.1984 50.1451 16.3489ZM48.4357 15.2894L47.8573 16.315C47.6352 16.1897 47.4109 16.068 47.1843 15.95L47.7284 14.9058C47.9665 15.0299 48.2023 15.1578 48.4357 15.2894ZM46.6444 14.3749L46.153 15.4449C45.9213 15.3385 45.6875 15.2357 45.4517 15.1368L45.9073 14.0511C46.1551 14.1551 46.4008 14.263 46.6444 14.3749ZM44.7829 13.6121L44.3822 14.7192C44.1428 14.6325 43.9015 14.5497 43.6585 14.4708L44.0221 13.3509C44.2776 13.4339 44.5312 13.521 44.7829 13.6121ZM42.8652 13.007L42.558 14.1436C42.3122 14.0772 42.0649 14.0147 41.816 13.9563L42.0852 12.81C42.3469 12.8715 42.6069 12.9371 42.8652 13.007ZM40.9037 12.5635L40.692 13.7217C40.4414 13.6759 40.1893 13.6341 39.9359 13.5964L40.109 12.4318C40.3754 12.4714 40.6403 12.5153 40.9037 12.5635ZM38.911 12.2839L38.7958 13.4557C38.5427 13.4308 38.2885 13.41 38.0331 13.3933L38.1098 12.2184C38.3781 12.2359 38.6452 12.2578 38.911 12.2839ZM36.904 12.1693L36.8848 13.3466C36.7569 13.3445 36.6286 13.3434 36.5001 13.3434C36.3716 13.3434 36.2433 13.3445 36.1153 13.3466L36.0962 12.1693C36.2305 12.1671 36.3652 12.166 36.5001 12.166C36.635 12.166 36.7696 12.1671 36.904 12.1693ZM34.8903 12.2184L34.9671 13.3933C34.7117 13.41 34.4574 13.4308 34.2044 13.4557L34.0892 12.2839C34.355 12.2578 34.6221 12.2359 34.8903 12.2184ZM32.8911 12.4318L33.0643 13.5964C32.8108 13.6341 32.5588 13.6759 32.3081 13.7217L32.0964 12.5635C32.3599 12.5153 32.6248 12.4714 32.8911 12.4318ZM30.9149 12.81L31.1841 13.9563C30.9352 14.0147 30.6879 14.0772 30.4422 14.1436L30.135 13.007C30.3933 12.9371 30.6533 12.8715 30.9149 12.81ZM28.978 13.3509L29.3417 14.4708C29.0987 14.5497 28.8574 14.6325 28.618 14.7192L28.2172 13.6121C28.4689 13.521 28.7226 13.4339 28.978 13.3509ZM27.0929 14.0511L27.5484 15.1368C27.3127 15.2357 27.0789 15.3385 26.8471 15.4449L26.3557 14.3749C26.5993 14.263 26.8451 14.1551 27.0929 14.0511ZM25.2718 14.9058L25.8159 15.95C25.5893 16.068 25.3649 16.1897 25.1428 16.315L24.5644 15.2894C24.7979 15.1578 25.0337 15.0299 25.2718 14.9058ZM23.5281 15.9082L24.1567 16.9039C23.9407 17.0402 23.7271 17.18 23.5161 17.3232L22.855 16.3489C23.0768 16.1984 23.3012 16.0515 23.5281 15.9082ZM21.8732 17.0511L22.5816 17.9916C22.3776 18.1453 22.1762 18.3023 21.9774 18.4625L21.2384 17.5459C21.4472 17.3776 21.6588 17.2126 21.8732 17.0511ZM20.3177 18.3264L21.1011 19.2055C20.9104 19.3754 20.7225 19.5484 20.5376 19.7244L19.7258 18.8716C19.9201 18.6867 20.1174 18.5049 20.3177 18.3264ZM18.8723 19.7251L19.7252 20.5369C19.5491 20.7218 19.3761 20.9097 19.2062 21.1003L18.3272 20.317C18.5056 20.1167 18.6874 19.9194 18.8723 19.7251ZM17.5466 21.2377L18.4632 21.9767C18.303 22.1754 18.146 22.3769 17.9923 22.5809L17.0518 21.8725C17.2133 21.6581 17.3783 21.4465 17.5466 21.2377ZM16.3496 22.8543L17.324 23.5153C17.1807 23.7264 17.0409 23.94 16.9046 24.1559L15.909 23.5274C16.0522 23.3005 16.1992 23.0761 16.3496 22.8543ZM15.2902 24.5637L16.3157 25.1421C16.1905 25.3642 16.0688 25.5886 15.9507 25.8151L14.9065 25.2711C15.0306 25.0329 15.1585 24.7971 15.2902 24.5637ZM14.3756 26.355L15.4456 26.8464C15.3392 27.0781 15.2365 27.3119 15.1376 27.5477L14.0518 27.0922C14.1558 26.8443 14.2638 26.5986 14.3756 26.355ZM13.6128 28.2165L14.7199 28.6172C14.6333 28.8567 14.5504 29.0979 14.4715 29.341L13.3517 28.9773C13.4346 28.7218 13.5217 28.4682 13.6128 28.2165ZM13.0077 30.1343L14.1443 30.4415C14.0779 30.6872 14.0154 30.9345 13.957 31.1834L12.8108 30.9142C12.8722 30.6526 12.9379 30.3926 13.0077 30.1343ZM12.5642 32.0957L13.7224 32.3074C13.6766 32.558 13.6348 32.8101 13.5972 33.0635L12.4325 32.8904C12.4721 32.6241 12.516 32.3591 12.5642 32.0957ZM12.2847 34.0884L13.4564 34.2037C13.4316 34.4567 13.4107 34.7109 13.3941 34.9663L12.2191 34.8896C12.2367 34.6213 12.2585 34.3542 12.2847 34.0884ZM12.17 36.0954C12.1678 36.2298 12.1667 36.3644 12.1667 36.4993C12.1667 36.6343 12.1678 36.7689 12.17 36.9033L13.3473 36.8841C13.3452 36.7561 13.3442 36.6279 13.3442 36.4993C13.3442 36.3708 13.3452 36.2426 13.3473 36.1146L12.17 36.0954ZM12.2191 38.1091L13.3941 38.0324C13.4107 38.2878 13.4316 38.542 13.4564 38.795L12.2847 38.9103C12.2585 38.6445 12.2367 38.3774 12.2191 38.1091ZM12.4325 40.1083L13.5972 39.9352C13.6348 40.1886 13.6766 40.4407 13.7224 40.6913L12.5642 40.903C12.516 40.6396 12.4721 40.3747 12.4325 40.1083ZM12.8108 42.0845L13.957 41.8153C14.0154 42.0642 14.0779 42.3115 14.1443 42.5572L13.0077 42.8645C12.9379 42.6061 12.8722 42.3461 12.8108 42.0845ZM13.3517 44.0214L14.4715 43.6578C14.5504 43.9008 14.6333 44.142 14.7199 44.3815L13.6128 44.7822C13.5217 44.5305 13.4346 44.2769 13.3517 44.0214ZM14.0518 45.9065L15.1376 45.451C15.2365 45.6868 15.3392 45.9206 15.4456 46.1523L14.3756 46.6437C14.2638 46.4001 14.1558 46.1544 14.0518 45.9065ZM14.9066 47.7276L15.9507 47.1836C16.0688 47.4101 16.1905 47.6345 16.3157 47.8566L15.2902 48.435C15.1585 48.2016 15.0306 47.9658 14.9066 47.7276ZM15.909 49.4713L16.9046 48.8428C17.0409 49.0587 17.1807 49.2723 17.324 49.4834L16.3496 50.1444C16.1992 49.9226 16.0522 49.6982 15.909 49.4713ZM17.0518 51.1262L17.9923 50.4178C18.146 50.6218 18.303 50.8233 18.4632 51.022L17.5466 51.761C17.3783 51.5522 17.2133 51.3406 17.0518 51.1262ZM18.3272 52.6817L19.2062 51.8984C19.3761 52.089 19.5491 52.2769 19.7252 52.4618L18.8723 53.2736C18.6874 53.0793 18.5056 52.882 18.3272 52.6817ZM19.7258 54.1271L20.5376 53.2743C20.7225 53.4503 20.9104 53.6233 21.1011 53.7932L20.3177 54.6723C20.1174 54.4938 19.9201 54.312 19.7258 54.1271ZM21.2384 55.4528L21.9774 54.5362C22.1762 54.6964 22.3776 54.8534 22.5816 55.0071L21.8732 55.9476C21.6588 55.7861 21.4472 55.6212 21.2384 55.4528ZM22.855 56.6498L23.5161 55.6755C23.7272 55.8187 23.9407 55.9585 24.1567 56.0948L23.5281 57.0905C23.3012 56.9472 23.0768 56.8003 22.855 56.6498ZM24.5644 57.7093L25.1428 56.6837C25.3649 56.809 25.5893 56.9307 25.8159 57.0487L25.2718 58.0929C25.0337 57.9688 24.7979 57.8409 24.5644 57.7093ZM26.3557 58.6238L26.8471 57.5538C27.0789 57.6602 27.3127 57.763 27.5484 57.8619L27.0929 58.9476C26.8451 58.8436 26.5993 58.7357 26.3557 58.6238ZM28.2172 59.3866L28.618 58.2795C28.8574 58.3662 29.0987 58.449 29.3417 58.5279L28.978 59.6478C28.7226 59.5648 28.4689 59.4777 28.2172 59.3866ZM30.135 59.9917L30.4422 58.8551C30.6879 58.9215 30.9352 58.984 31.1841 59.0424L30.9149 60.1887C30.6533 60.1272 30.3933 60.0616 30.135 59.9917ZM32.0964 60.4352L32.3081 59.277C32.5588 59.3228 32.8108 59.3646 33.0643 59.4023L32.8911 60.5669C32.6248 60.5273 32.3599 60.4834 32.0964 60.4352ZM34.0892 60.7148L34.2044 59.543C34.4574 59.5679 34.7117 59.5887 34.9671 59.6054L34.8903 60.7803C34.6221 60.7628 34.355 60.7409 34.0892 60.7148ZM36.0962 60.8294L36.1153 59.6521C36.2433 59.6542 36.3716 59.6553 36.5001 59.6553C36.6286 59.6553 36.7569 59.6542 36.8849 59.6521L36.904 60.8294C36.7696 60.8316 36.635 60.8327 36.5001 60.8327C36.3652 60.8327 36.2305 60.8316 36.0962 60.8294ZM38.1098 60.7803L38.0331 59.6054C38.2885 59.5887 38.5427 59.5679 38.7958 59.543L38.911 60.7148C38.6452 60.7409 38.3781 60.7628 38.1098 60.7803ZM40.109 60.5669L39.9359 59.4023C40.1893 59.3646 40.4414 59.3228 40.692 59.277L40.9038 60.4352C40.6403 60.4834 40.3754 60.5273 40.109 60.5669ZM42.0852 60.1887L41.816 59.0424C42.0649 58.984 42.3123 58.9215 42.558 58.8551L42.8652 59.9917C42.6069 60.0616 42.3469 60.1272 42.0852 60.1887ZM44.0221 59.6478L43.6585 58.5279C43.9015 58.449 44.1428 58.3662 44.3822 58.2795L44.7829 59.3866C44.5312 59.4777 44.2776 59.5648 44.0221 59.6478ZM45.9073 58.9476L45.4517 57.8619C45.6875 57.763 45.9213 57.6602 46.153 57.5538L46.6444 58.6238C46.4008 58.7357 46.1551 58.8436 45.9073 58.9476ZM47.7284 58.0929L47.1843 57.0487C47.4109 56.9307 47.6352 56.809 47.8573 56.6837L48.4357 57.7093C48.2023 57.8409 47.9665 57.9688 47.7284 58.0929ZM49.472 57.0905L48.8435 56.0948C49.0595 55.9585 49.273 55.8187 49.4841 55.6755L50.1452 56.6498C49.9234 56.8003 49.699 56.9472 49.472 57.0905ZM51.127 55.9476L50.4185 55.0071C50.6226 54.8534 50.824 54.6964 51.0227 54.5362L51.7617 55.4528C51.553 55.6211 51.3413 55.7861 51.127 55.9476ZM52.6824 54.6723L51.8991 53.7932C52.0898 53.6233 52.2776 53.4503 52.4626 53.2743L53.2743 54.1271C53.0801 54.312 52.8827 54.4938 52.6824 54.6723ZM54.1278 53.2736L53.275 52.4618C53.451 52.2769 53.6241 52.089 53.794 51.8984L54.673 52.6817C54.4945 52.882 54.3128 53.0793 54.1278 53.2736ZM55.4536 51.761L54.5369 51.022C54.6972 50.8233 54.8542 50.6218 55.0079 50.4178L55.9483 51.1262C55.7868 51.3406 55.6219 51.5522 55.4536 51.761ZM56.6505 50.1444L55.6762 49.4834C55.8194 49.2723 55.9592 49.0587 56.0956 48.8428L57.0912 49.4713C56.9479 49.6982 56.801 49.9226 56.6505 50.1444ZM57.71 48.435L56.6844 47.8566C56.8097 47.6345 56.9314 47.4101 57.0494 47.1836L58.0936 47.7276C57.9695 47.9658 57.8416 48.2016 57.71 48.435ZM58.6245 46.6437L57.5545 46.1523C57.661 45.9206 57.7637 45.6868 57.8626 45.451L58.9483 45.9065C58.8444 46.1544 58.7364 46.4001 58.6245 46.6437ZM59.3874 44.7822L58.2802 44.3815C58.3669 44.142 58.4497 43.9008 58.5287 43.6577L59.6485 44.0214C59.5656 44.2769 59.4785 44.5305 59.3874 44.7822ZM59.9925 42.8644L58.8558 42.5572C58.9223 42.3115 58.9847 42.0642 59.0432 41.8153L60.1894 42.0845C60.128 42.3461 60.0623 42.6061 59.9925 42.8644ZM60.436 40.903L59.2777 40.6913C59.3235 40.4407 59.3653 40.1886 59.403 39.9352L60.5676 40.1083C60.528 40.3746 60.4841 40.6396 60.436 40.903ZM60.7155 38.9103L59.5437 38.795C59.5686 38.542 59.5894 38.2878 59.6061 38.0324L60.781 38.1091C60.7635 38.3774 60.7416 38.6445 60.7155 38.9103Z" fill="#003BB3"/>
<path fill-rule="evenodd" clip-rule="evenodd" d="M72.9979 36.8972L70.6432 36.8721C70.6445 36.7482 70.6452 36.6242 70.6452 36.5C70.6452 36.3758 70.6445 36.2518 70.6432 36.1279L72.9979 36.1028C72.9993 36.235 73 36.3674 73 36.5C73 36.6326 72.9993 36.765 72.9979 36.8972ZM72.9663 34.9172L70.6136 35.0176C70.6031 34.7703 70.5899 34.5237 70.5741 34.2778L72.9241 34.127C72.941 34.3897 72.955 34.6531 72.9663 34.9172ZM72.8291 32.9455L70.4852 33.172C70.4614 32.9256 70.435 32.68 70.406 32.4353L72.7444 32.1581C72.7754 32.4197 72.8037 32.6822 72.8291 32.9455ZM72.5859 30.984L70.2577 31.337C70.2206 31.0922 70.1809 30.8484 70.1386 30.6054L72.4586 30.2018C72.5038 30.4616 72.5463 30.7224 72.5859 30.984ZM72.2366 29.0379L69.931 29.5169C69.8807 29.2747 69.8278 29.0335 69.7724 28.7933L72.067 28.2641C72.1263 28.521 72.1828 28.779 72.2366 29.0379ZM71.7817 27.1135L69.5057 27.7175C69.4423 27.4787 69.3764 27.2409 69.3081 27.0043L71.5704 26.3507C71.6435 26.6039 71.714 26.8581 71.7817 27.1135ZM71.2226 25.2169C71.1411 24.9659 71.0569 24.716 70.9701 24.4673L68.7468 25.2433C68.828 25.4758 68.9067 25.7095 68.9829 25.9442L71.2226 25.2169ZM70.5609 23.3539L68.3642 24.2023C68.2754 23.9722 68.1841 23.7433 68.0904 23.5156L70.2681 22.6195C70.3682 22.863 70.4659 23.1078 70.5609 23.3539ZM69.7986 21.5297L67.6514 22.4966C67.5502 22.2717 67.4466 22.0482 67.3407 21.826L69.4663 20.8127C69.5796 21.0503 69.6904 21.2893 69.7986 21.5297ZM68.9382 19.7499L66.8468 20.8321C66.7335 20.6131 66.6179 20.3955 66.5 20.1793L68.5675 19.052C68.6935 19.2831 68.8171 19.5158 68.9382 19.7499ZM67.9825 18.0194L65.9528 19.2135C65.8277 19.0008 65.7004 18.7897 65.5708 18.58L67.5742 17.3423C67.7126 17.5664 67.8487 17.7922 67.9825 18.0194ZM66.9343 16.3433L64.9722 17.6454C64.8358 17.4398 64.6972 17.2358 64.5564 17.0333L66.4899 15.6891C66.6403 15.9055 66.7885 16.1236 66.9343 16.3433ZM65.7971 14.7263L63.9082 16.1325C63.7608 15.9345 63.6113 15.7381 63.4598 15.5435L65.3179 14.0969C65.4799 14.3049 65.6396 14.5147 65.7971 14.7263ZM64.5742 13.1728L62.7638 14.6788C62.606 14.489 62.4462 14.301 62.2844 14.1148L64.0619 12.5702C64.2348 12.7692 64.4056 12.9701 64.5742 13.1728ZM63.2694 11.6875C63.0901 11.4942 62.9088 11.3028 62.7254 11.1134L61.0336 12.7514C61.2052 12.9287 61.375 13.1078 61.5427 13.2887L63.2694 11.6875ZM61.8866 10.2746L60.2486 11.9664C60.0713 11.7948 59.8922 11.625 59.7113 11.4573L61.3125 9.73059C61.5058 9.90986 61.6972 10.0912 61.8866 10.2746ZM60.4298 8.93815L58.8852 10.7156C58.699 10.5538 58.511 10.394 58.3212 10.2362L59.8272 8.42578C60.0299 8.59443 60.2308 8.76523 60.4298 8.93815ZM58.9031 7.68208L57.4565 9.54021C57.2619 9.38867 57.0655 9.23919 56.8675 9.0918L58.2737 7.20288C58.4853 7.36039 58.6951 7.52013 58.9031 7.68208ZM57.3109 6.51012L55.9667 8.44359C55.7642 8.30283 55.5602 8.16421 55.3546 8.02776L56.6567 6.06567C56.8764 6.21152 57.0945 6.35968 57.3109 6.51012ZM55.6577 5.42582L54.42 7.42915C54.2103 7.29962 53.9992 7.1723 53.7865 7.04722L54.9806 5.01755C55.2078 5.15126 55.4336 5.28736 55.6577 5.42582ZM53.948 4.43254L52.8207 6.50002C52.6045 6.38214 52.3869 6.26653 52.1679 6.15322L53.2501 4.06176C53.4842 4.18291 53.7169 4.30651 53.948 4.43254ZM52.1873 3.53367L51.174 5.65933C50.9518 5.5534 50.7282 5.4498 50.5034 5.34857L51.4703 3.20136C51.7107 3.30961 51.9497 3.42039 52.1873 3.53367ZM50.3805 2.73195L49.4844 4.90962C49.2567 4.81594 49.0278 4.72464 48.7977 4.63578L49.6461 2.43908C49.8922 2.53412 50.137 2.63176 50.3805 2.73195ZM48.5327 2.02986L47.7567 4.25316C47.5242 4.17201 47.2905 4.0933 47.0558 4.01707L47.7831 1.77736C48.0341 1.85889 48.284 1.94307 48.5327 2.02986ZM46.6493 1.42961L45.9957 3.69194C45.7591 3.62357 45.5213 3.55769 45.2825 3.49433L45.8865 1.21826C46.1419 1.28602 46.3961 1.35648 46.6493 1.42961ZM44.7359 0.932996L44.2067 3.2276C43.9665 3.1722 43.7253 3.11934 43.4831 3.06904L43.9621 0.763422C44.221 0.817214 44.479 0.873749 44.7359 0.932996ZM42.7981 0.541364L42.3946 2.86137C42.1516 2.81911 41.9078 2.77941 41.663 2.74231L42.016 0.414073C42.2776 0.453736 42.5383 0.496177 42.7981 0.541364ZM40.8419 0.255565L40.5647 2.59403C40.32 2.56502 40.0744 2.53859 39.828 2.51478L40.0545 0.170864C40.3178 0.19631 40.5803 0.224554 40.8419 0.255565ZM38.873 0.0759035L38.7222 2.42591C38.4763 2.41013 38.2297 2.39695 37.9824 2.3864L38.0828 0.0336998C38.3469 0.0449699 38.6103 0.0590475 38.873 0.0759035ZM36.8972 0.00211684L36.8721 2.35682C36.7482 2.3555 36.6242 2.35484 36.5 2.35484C36.3758 2.35484 36.2518 2.3555 36.1279 2.35682L36.1028 0.00211695C36.235 0.000706839 36.3674 0 36.5 0C36.6326 0 36.765 0.000706801 36.8972 0.00211684ZM34.9172 0.0337001L35.0176 2.3864C34.7703 2.39695 34.5237 2.41013 34.2778 2.42591L34.127 0.075904C34.3897 0.0590479 34.6531 0.0449702 34.9172 0.0337001ZM32.9455 0.170865L33.172 2.51478C32.9256 2.53859 32.68 2.56502 32.4353 2.59404L32.1581 0.255566C32.4197 0.224555 32.6822 0.196311 32.9455 0.170865ZM30.984 0.414073L31.337 2.74231C31.0922 2.77941 30.8484 2.81911 30.6054 2.86137L30.2018 0.541366C30.4616 0.496178 30.7224 0.453736 30.984 0.414073ZM29.0379 0.763422L29.5169 3.06904C29.2747 3.11934 29.0335 3.1722 28.7933 3.2276L28.2641 0.932997C28.521 0.87375 28.779 0.817214 29.0379 0.763422ZM27.1135 1.21826L27.7175 3.49433C27.4787 3.55769 27.2409 3.62357 27.0043 3.69194L26.3507 1.42961C26.6039 1.35648 26.8581 1.28602 27.1135 1.21826ZM25.2169 1.77736L25.9442 4.01707C25.7095 4.0933 25.4758 4.17201 25.2433 4.25316L24.4673 2.02986C24.716 1.94307 24.9659 1.85889 25.2169 1.77736ZM23.3539 2.43908L24.2023 4.63578C23.9722 4.72464 23.7433 4.81594 23.5156 4.90962L22.6195 2.73195C22.863 2.63176 23.1078 2.53412 23.3539 2.43908ZM21.5297 3.20136L22.4966 5.34857C22.2717 5.4498 22.0482 5.5534 21.826 5.65933L20.8127 3.53367C21.0503 3.42039 21.2893 3.30961 21.5297 3.20136ZM19.7499 4.06177L20.8321 6.15322C20.6131 6.26653 20.3955 6.38214 20.1793 6.50002L19.052 4.43255C19.2831 4.30652 19.5158 4.18291 19.7499 4.06177ZM18.0194 5.01755L19.2135 7.04722C19.0008 7.1723 18.7897 7.29962 18.58 7.42915L17.3423 5.42582C17.5664 5.28736 17.7922 5.15126 18.0194 5.01755ZM16.3433 6.06567L17.6454 8.02776C17.4398 8.16421 17.2358 8.30284 17.0333 8.4436L15.6891 6.51012C15.9055 6.35968 16.1236 6.21152 16.3433 6.06567ZM14.7263 7.20288L16.1325 9.0918C15.9345 9.23918 15.7381 9.38867 15.5435 9.54021L14.0969 7.68208C14.3049 7.52013 14.5147 7.36039 14.7263 7.20288ZM13.1728 8.42578L14.6788 10.2362C14.489 10.394 14.301 10.5538 14.1148 10.7156L12.5702 8.93815C12.7692 8.76523 12.9701 8.59443 13.1728 8.42578ZM11.6875 9.73059L13.2887 11.4573C13.1078 11.625 12.9287 11.7948 12.7514 11.9664L11.1134 10.2746C11.3028 10.0912 11.4942 9.90986 11.6875 9.73059ZM10.2746 11.1134L11.9664 12.7514C11.7948 12.9287 11.625 13.1078 11.4573 13.2887L9.73059 11.6875C9.90986 11.4942 10.0912 11.3028 10.2746 11.1134ZM8.93815 12.5702L10.7156 14.1148C10.5538 14.301 10.394 14.489 10.2362 14.6788L8.42578 13.1728C8.59443 12.9701 8.76523 12.7692 8.93815 12.5702ZM7.68208 14.0969L9.54021 15.5435C9.38867 15.7381 9.23919 15.9345 9.0918 16.1324L7.20288 14.7263C7.36039 14.5147 7.52013 14.3049 7.68208 14.0969ZM6.51012 15.6891C6.35968 15.9055 6.21152 16.1236 6.06567 16.3433L8.02776 17.6454C8.16421 17.4398 8.30283 17.2358 8.44359 17.0333L6.51012 15.6891ZM5.42582 17.3423L7.42915 18.58C7.29962 18.7897 7.1723 19.0008 7.04722 19.2135L5.01755 18.0195C5.15126 17.7922 5.28736 17.5664 5.42582 17.3423ZM4.43255 19.052L6.50002 20.1793C6.38214 20.3955 6.26653 20.6131 6.15322 20.8321L4.06176 19.7499C4.18291 19.5158 4.30651 19.2831 4.43255 19.052ZM3.53367 20.8127L5.65933 21.826C5.5534 22.0482 5.4498 22.2718 5.34857 22.4966L3.20136 21.5297C3.30961 21.2893 3.42039 21.0503 3.53367 20.8127ZM2.73195 22.6195L4.90962 23.5156C4.81594 23.7433 4.72464 23.9722 4.63578 24.2023L2.43908 23.3539C2.53412 23.1078 2.63176 22.863 2.73195 22.6195ZM2.02986 24.4673L4.25316 25.2433C4.17201 25.4758 4.0933 25.7095 4.01707 25.9442L1.77736 25.2169C1.85889 24.9659 1.94307 24.716 2.02986 24.4673ZM1.42961 26.3507L3.69194 27.0043C3.62357 27.241 3.55769 27.4787 3.49433 27.7175L1.21826 27.1135C1.28602 26.8581 1.35648 26.6039 1.42961 26.3507ZM0.932996 28.2641L3.2276 28.7933C3.1722 29.0335 3.11934 29.2747 3.06904 29.5169L0.763422 29.0379C0.817214 28.779 0.873749 28.521 0.932996 28.2641ZM0.541365 30.2019L2.86137 30.6054C2.81911 30.8484 2.77941 31.0922 2.74231 31.337L0.414073 30.9841C0.453736 30.7224 0.496177 30.4617 0.541365 30.2019ZM0.255565 32.1581L2.59403 32.4353C2.56502 32.68 2.53859 32.9256 2.51478 33.172L0.170864 32.9455C0.196311 32.6822 0.224554 32.4197 0.255565 32.1581ZM0.0759035 34.127L2.42591 34.2778C2.41013 34.5237 2.39695 34.7703 2.3864 35.0176L0.0336998 34.9172C0.0449699 34.6531 0.0590475 34.3897 0.0759035 34.127ZM0.00211684 36.1028C0.000706801 36.235 0 36.3674 0 36.5C0 36.6326 0.000706839 36.765 0.00211695 36.8972L2.35682 36.8721C2.3555 36.7482 2.35484 36.6242 2.35484 36.5C2.35484 36.3758 2.3555 36.2518 2.35682 36.1279L0.00211684 36.1028ZM0.0337001 38.0828L2.3864 37.9824C2.39695 38.2297 2.41013 38.4763 2.42591 38.7222L0.075904 38.873C0.0590479 38.6103 0.0449702 38.3469 0.0337001 38.0828ZM0.170865 40.0545L2.51478 39.828C2.53859 40.0744 2.56502 40.32 2.59404 40.5648L0.255566 40.8419C0.224555 40.5803 0.196311 40.3178 0.170865 40.0545ZM0.414073 42.016L2.74231 41.663C2.77941 41.9078 2.81911 42.1516 2.86137 42.3946L0.541365 42.7982C0.496177 42.5384 0.453736 42.2776 0.414073 42.016ZM0.763422 43.9621L3.06904 43.4831C3.11934 43.7253 3.1722 43.9665 3.2276 44.2067L0.932996 44.7359C0.873749 44.479 0.817214 44.221 0.763422 43.9621ZM1.21826 45.8865L3.49433 45.2826C3.55769 45.5213 3.62357 45.7591 3.69194 45.9957L1.42961 46.6493C1.35648 46.3961 1.28602 46.1419 1.21826 45.8865ZM1.77736 47.7831L4.01707 47.0558C4.0933 47.2905 4.17201 47.5242 4.25316 47.7567L2.02986 48.5327C1.94307 48.284 1.85889 48.0341 1.77736 47.7831ZM2.43908 49.6461L4.63578 48.7977C4.72464 49.0278 4.81594 49.2567 4.90962 49.4844L2.73195 50.3805C2.63176 50.137 2.53412 49.8922 2.43908 49.6461ZM3.20136 51.4703L5.34857 50.5034C5.4498 50.7283 5.5534 50.9518 5.65933 51.174L3.53367 52.1873C3.42039 51.9497 3.30961 51.7107 3.20136 51.4703ZM4.06177 53.2501L6.15322 52.1679C6.26653 52.3869 6.38214 52.6045 6.50002 52.8207L4.43255 53.948C4.30652 53.7169 4.18291 53.4842 4.06177 53.2501ZM5.01755 54.9806L7.04722 53.7865C7.1723 53.9992 7.29962 54.2103 7.42915 54.42L5.42582 55.6577C5.28736 55.4336 5.15126 55.2078 5.01755 54.9806ZM6.06567 56.6567L8.02776 55.3546C8.16421 55.5602 8.30284 55.7642 8.4436 55.9667L6.51012 57.3109C6.35968 57.0945 6.21152 56.8764 6.06567 56.6567ZM7.20288 58.2737L9.0918 56.8675C9.23918 57.0655 9.38867 57.2619 9.54021 57.4565L7.68208 58.9031C7.52013 58.6951 7.36039 58.4853 7.20288 58.2737ZM8.42578 59.8272L10.2362 58.3212C10.394 58.511 10.5538 58.699 10.7156 58.8852L8.93815 60.4298C8.76523 60.2308 8.59443 60.0299 8.42578 59.8272ZM9.73059 61.3125L11.4573 59.7113C11.625 59.8922 11.7948 60.0713 11.9664 60.2486L10.2746 61.8866C10.0912 61.6972 9.90986 61.5058 9.73059 61.3125ZM11.1134 62.7254L12.7514 61.0336C12.9287 61.2052 13.1078 61.375 13.2887 61.5427L11.6875 63.2694C11.4942 63.0901 11.3028 62.9088 11.1134 62.7254ZM12.5702 64.0619L14.1148 62.2844C14.301 62.4462 14.489 62.606 14.6788 62.7638L13.1728 64.5742C12.9701 64.4056 12.7692 64.2348 12.5702 64.0619ZM14.0969 65.3179L15.5435 63.4598C15.7381 63.6113 15.9345 63.7608 16.1324 63.9082L14.7263 65.7971C14.5147 65.6396 14.3049 65.4799 14.0969 65.3179ZM15.6891 66.4899L17.0333 64.5564C17.2358 64.6972 17.4398 64.8358 17.6454 64.9722L16.3433 66.9343C16.1236 66.7885 15.9055 66.6403 15.6891 66.4899ZM17.3423 67.5742L18.58 65.5708C18.7897 65.7004 19.0008 65.8277 19.2135 65.9528L18.0195 67.9825C17.7922 67.8487 17.5664 67.7126 17.3423 67.5742ZM19.052 68.5675L20.1793 66.5C20.3955 66.6179 20.6131 66.7335 20.8321 66.8468L19.7499 68.9382C19.5158 68.8171 19.2831 68.6935 19.052 68.5675ZM20.8127 69.4663L21.826 67.3407C22.0482 67.4466 22.2718 67.5502 22.4966 67.6514L21.5297 69.7986C21.2893 69.6904 21.0503 69.5796 20.8127 69.4663ZM22.6195 70.2681L23.5156 68.0904C23.7433 68.1841 23.9722 68.2754 24.2023 68.3642L23.3539 70.5609C23.1078 70.4659 22.863 70.3682 22.6195 70.2681ZM24.4673 70.9701L25.2433 68.7468C25.4758 68.828 25.7095 68.9067 25.9442 68.9829L25.2169 71.2226C24.9659 71.1411 24.716 71.0569 24.4673 70.9701ZM26.3507 71.5704L27.0043 69.3081C27.241 69.3764 27.4787 69.4423 27.7175 69.5057L27.1135 71.7817C26.8581 71.714 26.6039 71.6435 26.3507 71.5704ZM28.2641 72.067L28.7933 69.7724C29.0335 69.8278 29.2747 69.8807 29.5169 69.931L29.0379 72.2366C28.779 72.1828 28.521 72.1263 28.2641 72.067ZM30.2019 72.4586L30.6054 70.1386C30.8484 70.1809 31.0922 70.2206 31.337 70.2577L30.9841 72.5859C30.7224 72.5463 30.4617 72.5038 30.2019 72.4586ZM32.1581 72.7444L32.4353 70.406C32.68 70.435 32.9256 70.4614 33.172 70.4852L32.9455 72.8291C32.6822 72.8037 32.4197 72.7754 32.1581 72.7444ZM34.127 72.9241L34.2778 70.5741C34.5237 70.5899 34.7703 70.6031 35.0176 70.6136L34.9172 72.9663C34.6531 72.955 34.3897 72.941 34.127 72.9241ZM36.1028 72.9979L36.1279 70.6432C36.2518 70.6445 36.3758 70.6452 36.5 70.6452C36.6242 70.6452 36.7482 70.6445 36.8721 70.6432L36.8972 72.9979C36.765 72.9993 36.6326 73 36.5 73C36.3674 73 36.235 72.9993 36.1028 72.9979ZM38.0828 72.9663L37.9824 70.6136C38.2297 70.6031 38.4763 70.5899 38.7222 70.5741L38.873 72.9241C38.6103 72.941 38.3469 72.955 38.0828 72.9663ZM40.0545 72.8291L39.828 70.4852C40.0744 70.4614 40.32 70.435 40.5648 70.406L40.8419 72.7444C40.5803 72.7754 40.3178 72.8037 40.0545 72.8291ZM42.016 72.5859L41.663 70.2577C41.9078 70.2206 42.1516 70.1809 42.3946 70.1386L42.7982 72.4586C42.5384 72.5038 42.2776 72.5463 42.016 72.5859ZM43.9621 72.2366L43.4831 69.931C43.7253 69.8807 43.9665 69.8278 44.2067 69.7724L44.7359 72.067C44.479 72.1263 44.221 72.1828 43.9621 72.2366ZM45.8865 71.7817L45.2826 69.5057C45.5213 69.4423 45.7591 69.3764 45.9957 69.3081L46.6493 71.5704C46.3961 71.6435 46.1419 71.714 45.8865 71.7817ZM47.7831 71.2226C48.0341 71.1411 48.284 71.0569 48.5327 70.9701L47.7567 68.7468C47.5242 68.828 47.2905 68.9067 47.0558 68.9829L47.7831 71.2226ZM49.6461 70.5609L48.7977 68.3642C49.0278 68.2754 49.2567 68.1841 49.4844 68.0904L50.3805 70.2681C50.137 70.3682 49.8922 70.4659 49.6461 70.5609ZM51.4703 69.7986L50.5034 67.6514C50.7283 67.5502 50.9518 67.4466 51.174 67.3407L52.1873 69.4663C51.9497 69.5796 51.7107 69.6904 51.4703 69.7986ZM53.2501 68.9382L52.1679 66.8468C52.3869 66.7335 52.6045 66.6179 52.8207 66.5L53.948 68.5675C53.7169 68.6935 53.4842 68.8171 53.2501 68.9382ZM54.9806 67.9825L53.7865 65.9528C53.9992 65.8277 54.2103 65.7004 54.42 65.5708L55.6577 67.5742C55.4336 67.7126 55.2078 67.8487 54.9806 67.9825ZM56.6567 66.9343L55.3546 64.9722C55.5602 64.8358 55.7642 64.6972 55.9667 64.5564L57.3109 66.4899C57.0945 66.6403 56.8764 66.7885 56.6567 66.9343ZM58.2737 65.7971L56.8675 63.9082C57.0655 63.7608 57.2619 63.6113 57.4565 63.4598L58.9031 65.3179C58.6951 65.4799 58.4853 65.6396 58.2737 65.7971ZM59.8272 64.5742L58.3212 62.7638C58.511 62.606 58.699 62.4462 58.8852 62.2844L60.4298 64.0619C60.2308 64.2348 60.0299 64.4056 59.8272 64.5742ZM61.3125 63.2694L59.7113 61.5427C59.8922 61.375 60.0713 61.2052 60.2486 61.0336L61.8866 62.7254C61.6972 62.9088 61.5058 63.0901 61.3125 63.2694ZM62.7254 61.8866L61.0336 60.2486C61.2052 60.0713 61.375 59.8922 61.5427 59.7113L63.2694 61.3125C63.0901 61.5058 62.9088 61.6972 62.7254 61.8866ZM64.0619 60.4298L62.2844 58.8852C62.4462 58.699 62.606 58.511 62.7638 58.3212L64.5742 59.8272C64.4056 60.0299 64.2348 60.2308 64.0619 60.4298ZM65.3179 58.9031L63.4598 57.4565C63.6113 57.2619 63.7608 57.0655 63.9082 56.8675L65.7971 58.2737C65.6396 58.4853 65.4799 58.6951 65.3179 58.9031ZM66.4899 57.3109L64.5564 55.9667C64.6972 55.7642 64.8358 55.5602 64.9722 55.3546L66.9343 56.6567C66.7885 56.8764 66.6403 57.0945 66.4899 57.3109ZM67.5742 55.6577L65.5708 54.42C65.7004 54.2103 65.8277 53.9992 65.9528 53.7865L67.9825 54.9806C67.8487 55.2078 67.7126 55.4336 67.5742 55.6577ZM68.5675 53.948L66.5 52.8207C66.6179 52.6045 66.7335 52.3869 66.8468 52.1679L68.9382 53.2501C68.8171 53.4842 68.6935 53.7169 68.5675 53.948ZM69.4663 52.1873L67.3407 51.174C67.4466 50.9518 67.5502 50.7282 67.6514 50.5034L69.7986 51.4703C69.6904 51.7107 69.5796 51.9497 69.4663 52.1873ZM70.2681 50.3805L68.0904 49.4844C68.1841 49.2567 68.2754 49.0278 68.3642 48.7977L70.5609 49.6461C70.4659 49.8922 70.3682 50.137 70.2681 50.3805ZM70.9701 48.5327L68.7468 47.7567C68.828 47.5242 68.9067 47.2905 68.9829 47.0558L71.2226 47.7831C71.1411 48.0341 71.0569 48.284 70.9701 48.5327ZM71.5704 46.6493L69.3081 45.9957C69.3764 45.7591 69.4423 45.5213 69.5057 45.2825L71.7817 45.8865C71.714 46.1419 71.6435 46.3961 71.5704 46.6493ZM72.067 44.7359L69.7724 44.2067C69.8278 43.9665 69.8807 43.7253 69.931 43.4831L72.2366 43.9621C72.1828 44.221 72.1263 44.479 72.067 44.7359ZM72.4586 42.7981L70.1386 42.3946C70.1809 42.1516 70.2206 41.9078 70.2577 41.663L72.5859 42.0159C72.5463 42.2776 72.5038 42.5383 72.4586 42.7981ZM72.7444 40.8419L70.406 40.5647C70.435 40.32 70.4614 40.0744 70.4852 39.828L72.8291 40.0545C72.8037 40.3178 72.7754 40.5803 72.7444 40.8419ZM72.9241 38.873L70.5741 38.7222C70.5899 38.4763 70.6031 38.2297 70.6136 37.9824L72.9663 38.0828C72.955 38.3469 72.941 38.6103 72.9241 38.873Z" fill="#003BB3"/>
<path d="M25.9879 31.8364L26.8073 34.9044L23.9708 32.3752L22.7648 32.6973L24.0872 37.6484L25.2932 37.3262L24.4775 34.2724L27.3103 36.7874L28.5163 36.4653L27.1939 31.5143L25.9879 31.8364Z" fill="#003BB3"/>
<path d="M33.1711 33.2658C32.9422 31.7426 31.6338 30.8467 30.19 31.0636C28.7535 31.2795 27.7445 32.5236 27.9734 34.0468C28.2023 35.57 29.5334 36.4699 30.97 36.254C32.4066 36.0382 33.4 34.789 33.1711 33.2658ZM29.2367 33.857C29.1011 32.9546 29.5352 32.3062 30.3582 32.1825C31.1667 32.0611 31.7794 32.5522 31.915 33.4545C32.0484 34.3425 31.6093 35.0064 30.8008 35.1279C29.9778 35.2515 29.3702 34.7449 29.2367 33.857Z" fill="#003BB3"/>
<path d="M33.0114 31.8552L34.3679 31.7954L34.5496 35.9159L35.7967 35.8609L35.615 31.7404L36.9715 31.6806L36.9274 30.6815L32.9674 30.8561L33.0114 31.8552Z" fill="#003BB3"/>
<path d="M40.9792 36.0794L42.2983 36.1555L40.7423 30.9326L39.2993 30.8494L37.153 35.8587L38.4576 35.9339L38.8158 35.0479L40.7252 35.1581L40.9792 36.0794ZM40.4601 34.1776L39.1992 34.1048L39.9341 32.268L40.4601 34.1776Z" fill="#003BB3"/>
<path d="M45.3359 33.2878C45.2708 33.684 45.0157 33.8862 44.5547 33.8105L43.7911 33.6852L43.9969 32.4318L44.7604 32.5571C45.2215 32.6328 45.3974 32.9132 45.3359 33.2878ZM42.933 31.2066L42.1028 36.2636L43.3346 36.4658L43.648 34.5568L43.9433 34.6053L44.6817 36.6869L46.072 36.9151L45.2338 34.721C46.0496 34.6182 46.4935 34.077 46.5976 33.4431C46.7418 32.5643 46.2394 31.7494 45.0004 31.546L42.933 31.2066Z" fill="#003BB3"/>
<path d="M48.1243 35.7946L47.6817 37.4294L48.8867 37.7556L49.3293 36.1209L51.9382 33.2727L50.5853 32.9064L49.0731 34.7205L48.6757 32.3894L47.3087 32.0193L48.1243 35.7946Z" fill="#003BB3"/>
<path d="M25.1641 41.8038L25.5151 40.5679L26.1682 40.7533C26.6457 40.8889 26.7815 41.1855 26.6739 41.5647C26.5662 41.9439 26.2947 42.1249 25.8172 41.9893L25.1641 41.8038ZM27.8958 41.9117C28.153 41.0058 27.7425 40.1531 26.5346 39.8102L24.5894 39.2578L23.1896 44.1876L24.3905 44.5285L24.893 42.7589L25.6373 42.9703C26.8943 43.3272 27.6645 42.7263 27.8958 41.9117Z" fill="#003BB3"/>
<path d="M28.0887 43.3108C27.8351 44.7042 28.6218 45.5596 29.7924 45.7726C30.9559 45.9844 32.0582 45.4726 32.3117 44.0793L32.8593 41.07L31.6312 40.8465L31.0823 43.863C30.9738 44.4591 30.6022 44.7477 30.0205 44.6418C29.4387 44.5359 29.207 44.1376 29.3155 43.5415L29.8644 40.525L28.6363 40.3016L28.0887 43.3108Z" fill="#003BB3"/>
<path d="M35.6414 44.7758C35.6122 45.1397 35.3569 45.3096 34.9422 45.2763L34.0253 45.2028L34.1157 44.075L35.018 44.1473C35.4328 44.1806 35.6706 44.412 35.6414 44.7758ZM35.6793 42.7503C35.6513 43.0996 35.4111 43.2634 35.0037 43.2307L34.1887 43.1654L34.2744 42.0957L35.0894 42.161C35.4969 42.1937 35.7073 42.401 35.6793 42.7503ZM36.8869 45.0441C36.9335 44.462 36.5899 43.9071 36.0031 43.7356C36.5096 43.6297 36.9128 43.2593 36.9624 42.6408C37.0271 41.8331 36.45 41.2668 35.4095 41.1834L33.11 40.9991L32.7005 46.1073L35.08 46.298C36.1569 46.3844 36.8192 45.8882 36.8869 45.0441Z" fill="#003BB3"/>
<path d="M37.6273 41.236L37.6786 46.3603L40.5619 46.3315L40.5523 45.3679L38.9172 45.3843L38.8756 41.2235L37.6273 41.236Z" fill="#003BB3"/>
<path d="M41.6667 46.209L42.9107 46.1051L42.4841 40.9983L41.2402 41.1022L41.6667 46.209Z" fill="#003BB3"/>
<path d="M44.4187 43.3494C44.6781 44.8604 45.9101 45.7377 47.3994 45.482C48.6009 45.2758 49.3926 44.451 49.4927 43.308L48.14 43.5402C48.0055 44.0077 47.6612 44.289 47.1936 44.3693C46.4381 44.499 45.8238 44.0267 45.6706 43.1346C45.5175 42.2424 45.9392 41.5923 46.6946 41.4626C47.1623 41.3823 47.5806 41.5327 47.8634 41.9286L49.216 41.6964C48.7405 40.6522 47.7179 40.1315 46.5163 40.3378C45.027 40.5934 44.1594 41.8385 44.4187 43.3494Z" fill="#003BB3"/>
<path d="M8.11359 27.9214L8.87014 28.1122L9.17782 26.8922L9.88109 27.0695L9.57342 28.2896L10.3939 28.4965L10.7419 27.1166L11.4718 27.3006L10.8941 29.5916L7.15393 28.6484L7.73166 26.3575L8.46157 26.5415L8.11359 27.9214Z" fill="#003BB3"/>
<path d="M10.719 19.3886L14.1701 21.1114L13.7504 21.952L11.6808 20.9188L13.3651 22.7239L13.0265 23.4023L10.5641 23.1434L12.6387 24.179L12.2191 25.0197L8.76794 23.2969L9.26368 22.3038L12.1364 22.5281L10.2257 20.3767L10.719 19.3886Z" fill="#003BB3"/>
<path d="M13.0344 16.1814L16.0861 18.5406L15.5114 19.2839L12.4597 16.9248L13.0344 16.1814Z" fill="#003BB3"/>
<path d="M18.0569 15.3159L18.9495 14.4685L19.4489 14.9945L17.8748 16.4888L15.2191 13.6914L15.9005 13.0445L18.0569 15.3159Z" fill="#003BB3"/>
<path d="M21.8801 8.56359L22.1533 11.4579L22.8426 12.5302L22.0523 13.0383L21.363 11.966L18.8434 10.5156L19.7401 9.93922L21.2422 10.894L20.9926 9.13405L21.8801 8.56359Z" fill="#003BB3"/>
<path d="M30.5927 9.30885L29.4542 8.09745L29.236 8.15336L29.5974 9.56388L28.6872 9.79708L27.7299 6.06055L29.2575 5.66915C29.552 5.59369 29.8153 5.58104 30.0475 5.63122C30.2832 5.68048 30.4757 5.78242 30.625 5.93702C30.7734 6.08808 30.8757 6.27361 30.9321 6.49362C30.9958 6.74201 30.9816 6.98197 30.8897 7.2135C30.8013 7.44413 30.6309 7.63525 30.3786 7.78687L31.62 9.04565L30.5927 9.30885ZM29.071 7.50932L29.6352 7.36476C29.802 7.32203 29.9157 7.2494 29.9764 7.14687C30.0407 7.04344 30.0537 6.9172 30.0155 6.76817C29.9791 6.62623 29.9079 6.52536 29.8019 6.46557C29.6993 6.40486 29.5647 6.39588 29.3979 6.43861L28.8337 6.58317L29.071 7.50932Z" fill="#003BB3"/>
<path d="M34.534 8.72846C34.3697 8.74223 34.2307 8.70609 34.1169 8.62006C34.0064 8.53006 33.9452 8.41389 33.9333 8.27153C33.921 8.12551 33.9619 7.99895 34.0558 7.89182C34.1534 7.7844 34.2844 7.7238 34.4486 7.71003C34.6092 7.69657 34.7448 7.73484 34.8553 7.82483C34.9694 7.91452 35.0325 8.03237 35.0448 8.17838C35.0567 8.32074 35.0139 8.44564 34.9163 8.55306C34.822 8.65654 34.6946 8.715 34.534 8.72846Z" fill="#003BB3"/>
<path d="M46.35 6.18273L44.4919 9.7093L43.3844 9.45009L43.3637 6.83812L42.1646 9.16458L41.0571 8.90537L40.9839 4.92676L41.9629 5.15591L41.8634 8.01625L43.1721 5.43891L44.1779 5.67433L44.18 8.55846L45.3656 5.95232L46.35 6.18273Z" fill="#003BB3"/>
<path d="M49.7919 11.2941L48.5155 10.6284L47.9958 11.1258L47.1238 10.671L50.1449 7.89636L51.1095 8.39946L50.5633 12.4649L49.6815 12.005L49.7919 11.2941ZM49.913 10.5393L50.1421 9.06615L49.0701 10.0997L49.913 10.5393Z" fill="#003BB3"/>
<path d="M53.9225 15.0145L54.2416 13.383L54.0688 13.2384L53.1344 14.3552L52.4138 13.7522L54.889 10.7939L56.0985 11.8059C56.3317 12.001 56.4956 12.2074 56.5904 12.4253C56.688 12.6454 56.7176 12.8612 56.6792 13.0727C56.6431 13.2813 56.5522 13.4727 56.4065 13.6469C56.2419 13.8436 56.0388 13.9721 55.7972 14.0326C55.5583 14.0955 55.3037 14.0687 55.0333 13.9523L54.7358 15.695L53.9225 15.0145ZM54.4955 12.7285L54.9421 13.1023C55.0742 13.2128 55.1996 13.2627 55.3182 13.2522C55.4397 13.244 55.5498 13.1809 55.6486 13.0629C55.7426 12.9505 55.7829 12.8338 55.7696 12.7128C55.759 12.5941 55.6877 12.4795 55.5557 12.369L55.109 11.9953L54.4955 12.7285Z" fill="#003BB3"/>
<path d="M57.6759 19.0219L58.3266 17.4921L58.1876 17.3149L57.0418 18.2134L56.462 17.4741L59.4972 15.0938L60.4703 16.3346C60.658 16.5739 60.7755 16.8099 60.8231 17.0426C60.8728 17.2782 60.857 17.4955 60.7756 17.6943C60.697 17.8909 60.5683 18.0593 60.3896 18.1995C60.1879 18.3577 59.9625 18.4413 59.7136 18.4504C59.4669 18.4623 59.2233 18.3833 58.983 18.2133L58.3303 19.8564L57.6759 19.0219ZM58.7108 16.9046L59.0702 17.3629C59.1764 17.4983 59.2887 17.5732 59.407 17.5875C59.5275 17.6047 59.6483 17.5658 59.7694 17.4709C59.8847 17.3805 59.9483 17.2747 59.9604 17.1535C59.9747 17.0352 59.9287 16.9084 59.8225 16.7729L59.4631 16.3146L58.7108 16.9046Z" fill="#003BB3"/>
<path d="M62.8293 21.4013L62.1337 21.7546L62.7035 22.8765L62.0568 23.2049L61.487 22.0831L60.7326 22.4663L61.3771 23.7351L60.7059 24.076L59.6359 21.9695L63.075 20.2227L64.1449 22.3292L63.4738 22.6701L62.8293 21.4013Z" fill="#003BB3"/>
<path d="M62.533 29.626L62.2843 28.7199L64.1625 26.5747L61.8682 27.2045L61.6195 26.2985L65.3391 25.2773L65.5878 26.1834L63.699 28.3316L66.0039 27.6988L66.2526 28.6049L62.533 29.626Z" fill="#003BB3"/>
<path d="M7.05767 37.1133C7.43826 37.0965 7.78041 37.1638 8.08411 37.3154C8.39147 37.4668 8.63397 37.6852 8.81159 37.9707C8.99304 38.2597 9.09202 38.5908 9.10853 38.9641C9.12876 39.4215 9.02532 39.8184 8.7982 40.1548C8.57107 40.4912 8.25135 40.7235 7.83902 40.8517L7.79338 39.8197C7.951 39.7358 8.06873 39.6206 8.14659 39.4741C8.22461 39.3313 8.25965 39.1703 8.25172 38.991C8.23893 38.7019 8.12794 38.4721 7.91874 38.3017C7.70953 38.1313 7.43659 38.0535 7.09992 38.0684C6.76324 38.0833 6.49824 38.1849 6.30489 38.3731C6.11155 38.5613 6.02127 38.8 6.03406 39.0891C6.04199 39.2684 6.09112 39.4257 6.18144 39.561C6.27192 39.7 6.39937 39.8044 6.56378 39.8741L6.60943 40.9061C6.18739 40.8148 5.8484 40.6116 5.59247 40.2966C5.3402 39.9814 5.20394 39.5951 5.18371 39.1377C5.1672 38.7644 5.23473 38.4259 5.3863 38.1222C5.54169 37.822 5.76395 37.583 6.05309 37.4052C6.34222 37.2274 6.67708 37.1301 7.05767 37.1133Z" fill="#003BB3"/>
<path d="M9.54855 42.7336L7.29107 43.2126C7.06532 43.2605 6.90332 43.3529 6.80506 43.4899C6.7068 43.6268 6.68048 43.8028 6.7261 44.0178C6.77172 44.2327 6.86761 44.3847 7.01378 44.4735C7.15994 44.5623 7.3459 44.5827 7.57164 44.5348L9.82912 44.0558L10.0242 44.9749L7.77205 45.4528C7.43522 45.5243 7.13514 45.5131 6.87181 45.4192C6.60848 45.3252 6.39184 45.169 6.22189 44.9504C6.0527 44.7354 5.93654 44.4792 5.87344 44.1818C5.81033 43.8844 5.81101 43.6053 5.87549 43.3445C5.94432 43.0865 6.08074 42.8647 6.28476 42.6791C6.49237 42.4927 6.76458 42.3638 7.10141 42.2923L9.35352 41.8145L9.54855 42.7336Z" fill="#003BB3"/>
<path d="M12.0058 50.0754L8.43042 51.5227L8.07788 50.6518L10.2221 49.7838L7.7542 49.8522L7.46969 49.1493L9.29327 47.4746L7.14395 48.3446L6.79141 47.4736L10.3668 46.0264L10.7833 47.0552L8.71414 49.0605L11.5914 49.0517L12.0058 50.0754Z" fill="#003BB3"/>
<path d="M12.1753 53.8039C12.2536 54.0185 12.2544 54.2299 12.1774 54.4382C12.1036 54.6445 11.972 54.807 11.7827 54.9257C11.5096 55.097 11.2321 55.137 10.95 55.0458C10.673 54.9558 10.4275 54.7401 10.2134 54.3987L9.25876 52.8766L12.5265 50.8271L13.449 52.2981C13.6573 52.6301 13.7438 52.9369 13.7085 53.2185C13.6751 53.5032 13.5281 53.7273 13.2675 53.8907C13.0751 54.0114 12.8831 54.0604 12.6917 54.0378C12.5021 54.0183 12.33 53.9403 12.1753 53.8039ZM11.7037 52.4522L12.0307 52.9736C12.1124 53.1039 12.2026 53.1857 12.3013 53.219C12.405 53.2534 12.5128 53.2355 12.6245 53.1655C12.7362 53.0954 12.7992 53.0062 12.8134 52.8978C12.8295 52.7926 12.7967 52.6748 12.715 52.5444L12.388 52.0231L11.7037 52.4522ZM10.7682 53.8562C10.8519 53.9896 10.9456 54.0736 11.0493 54.1079C11.1581 54.1435 11.2699 54.1253 11.3847 54.0533C11.4995 53.9812 11.5652 53.886 11.5817 53.7676C11.6002 53.6522 11.5676 53.5278 11.4839 53.3944L11.1219 52.8172L10.4004 53.2697L10.7682 53.8562Z" fill="#003BB3"/>
<path d="M15.0316 55.6525L14.4394 56.1605L15.2587 57.1155L14.7083 57.5878L13.889 56.6328L13.2468 57.1838L14.1734 58.2638L13.6021 58.754L12.0636 56.9608L14.9911 54.4492L16.5295 56.2424L15.9582 56.7325L15.0316 55.6525Z" fill="#003BB3"/>
<path d="M16.4826 61.4194L16.8278 59.7932L16.6574 59.6459L15.7052 60.7475L14.9944 60.1331L17.5167 57.2148L18.7098 58.2461C18.9398 58.4449 19.1004 58.6539 19.1917 58.8732C19.2858 59.0949 19.3119 59.3112 19.2701 59.522C19.2307 59.73 19.1367 59.92 18.9882 60.0918C18.8205 60.2858 18.6154 60.4111 18.3728 60.4677C18.133 60.5267 17.8788 60.4958 17.6103 60.3751L17.2849 62.1128L16.4826 61.4194ZM17.0922 59.1429L17.5328 59.5237C17.663 59.6363 17.7876 59.6883 17.9064 59.6796C18.028 59.6734 18.1391 59.6121 18.2397 59.4957C18.3356 59.3848 18.3778 59.2688 18.3663 59.1476C18.3577 59.0287 18.2882 58.913 18.158 58.8004L17.7173 58.4196L17.0922 59.1429Z" fill="#003BB3"/>
<path d="M20.0536 63.1016L21.0903 63.7649L20.6995 64.3759L18.8712 63.2062L20.95 59.957L21.7414 60.4634L20.0536 63.1016Z" fill="#003BB3"/>
<path d="M24.7835 65.6053L23.4692 65.018L22.9805 65.5459L22.0826 65.1447L24.9303 62.1924L25.9236 62.6362L25.6243 66.7272L24.7163 66.3215L24.7835 65.6053ZM24.8587 64.8445L24.9983 63.3602L23.9908 64.4567L24.8587 64.8445Z" fill="#003BB3"/>
<path d="M30.5772 68.0686L29.6668 67.8361L28.7328 65.1421L28.1442 67.4473L27.2338 67.2149L28.1881 63.4775L29.0985 63.71L30.0298 66.4146L30.6211 64.0988L31.5315 64.3312L30.5772 68.0686Z" fill="#003BB3"/>
<path d="M34.1655 64.5908C34.5708 64.6232 34.9185 64.7318 35.2088 64.9167C35.499 65.1016 35.7146 65.3467 35.8555 65.6519C36.0004 65.9538 36.0577 66.2947 36.0273 66.6744C35.9973 67.0505 35.8866 67.3779 35.6952 67.6566C35.5076 67.9355 35.254 68.1431 34.9344 68.2792C34.6185 68.4157 34.2597 68.4678 33.858 68.4357L32.4175 68.3205L32.725 64.4756L34.1655 64.5908ZM33.8626 67.6203C34.2168 67.6486 34.5002 67.5739 34.7129 67.3961C34.9255 67.2184 35.046 66.9524 35.0743 66.5982C35.1026 66.244 35.0261 65.9604 34.8447 65.7475C34.6633 65.5346 34.3955 65.4139 34.0413 65.3856L33.5976 65.3501L33.419 67.5848L33.8626 67.6203Z" fill="#003BB3"/>
<path d="M39.86 66.4232C39.7935 66.0481 39.8154 65.7 39.9259 65.3791C40.0358 65.0546 40.2206 64.7856 40.4804 64.5721C40.7431 64.3543 41.0584 64.2129 41.4263 64.1476C41.8771 64.0677 42.2842 64.1182 42.6474 64.2993C43.0106 64.4805 43.2828 64.767 43.4639 65.159L42.4468 65.3394C42.3429 65.1941 42.2133 65.0925 42.0579 65.0345C41.9061 64.9758 41.7419 64.9622 41.5651 64.9935C41.2802 65.0441 41.067 65.1842 40.9254 65.4139C40.7839 65.6436 40.7425 65.9244 40.8014 66.2562C40.8602 66.588 40.9956 66.8375 41.2075 67.0045C41.4194 67.1715 41.6679 67.2298 41.9528 67.1792C42.1295 67.1479 42.2791 67.0786 42.4014 66.9713C42.5274 66.8634 42.6141 66.7234 42.6617 66.5513L43.6789 66.3709C43.6436 66.8012 43.4865 67.1639 43.2078 67.4589C42.9283 67.7503 42.5632 67.9359 42.1123 68.0159C41.7445 68.0811 41.4 68.0585 41.0791 67.948C40.7611 67.8333 40.4951 67.6442 40.281 67.3809C40.0668 67.1175 39.9265 66.7983 39.86 66.4232Z" fill="#003BB3"/>
<path d="M47.2659 66.5812C46.9253 66.706 46.5834 66.7415 46.2399 66.6878C45.8999 66.6329 45.594 66.4953 45.3222 66.2749C45.0525 66.0499 44.8528 65.7603 44.723 65.406C44.5933 65.0517 44.5593 64.7033 44.6211 64.3608C44.6864 64.017 44.831 63.7143 45.0551 63.4528C45.2827 63.19 45.5667 62.9963 45.9073 62.8716C46.2478 62.7469 46.588 62.712 46.928 62.7669C47.2715 62.8206 47.5757 62.9588 47.8406 63.1817C48.109 63.4032 48.3081 63.6912 48.4379 64.0455C48.5676 64.3998 48.6022 64.7499 48.5417 65.0958C48.4799 65.4384 48.3369 65.7404 48.1128 66.0019C47.8887 66.2634 47.6064 66.4565 47.2659 66.5812ZM46.9711 65.7764C47.26 65.6705 47.4552 65.4898 47.5566 65.2342C47.6615 64.9774 47.656 64.6907 47.5401 64.3743C47.423 64.0544 47.242 63.832 46.9973 63.707C46.7548 63.5774 46.4891 63.5655 46.2001 63.6713C45.9078 63.7784 45.7085 63.9586 45.6024 64.212C45.4997 64.4642 45.5075 64.752 45.6259 65.0753C45.7431 65.3952 45.9229 65.6199 46.1655 65.7496C46.4102 65.8745 46.6787 65.8834 46.9711 65.7764Z" fill="#003BB3"/>
<path d="M49.6074 61.2147L50.7566 63.216C50.8715 63.4161 51.0093 63.5419 51.1697 63.5933C51.3302 63.6448 51.5058 63.6158 51.6964 63.5063C51.887 63.3969 52.0021 63.259 52.0417 63.0926C52.0813 62.9262 52.0437 62.743 51.9288 62.5428L50.7795 60.5416L51.5943 60.0737L52.7408 62.0702C52.9123 62.3688 52.9938 62.6578 52.9853 62.9372C52.9768 63.2167 52.8947 63.4708 52.7388 63.6997C52.5862 63.9268 52.3781 64.116 52.1144 64.2674C51.8508 64.4188 51.5849 64.5039 51.3169 64.5226C51.0502 64.5364 50.7972 64.4746 50.558 64.3375C50.3169 64.1972 50.1106 63.9777 49.9391 63.6791L48.7926 61.6826L49.6074 61.2147Z" fill="#003BB3"/>
<path d="M57.6132 60.1916L56.8862 60.7869L54.163 59.9418L55.6704 61.7825L54.9435 62.3778L52.4996 59.3936L53.2266 58.7983L55.9567 59.6518L54.4424 57.8026L55.1693 57.2073L57.6132 60.1916Z" fill="#003BB3"/>
<path d="M57.8402 54.2259L58.4036 54.7251L57.7259 55.49L60.0494 57.5488L59.4263 58.2521L57.1028 56.1933L56.425 56.9582L55.8616 56.459L57.8402 54.2259Z" fill="#003BB3"/>
<path d="M60.3747 50.4027L61.8263 52.9216L62.899 53.6103L62.3913 54.401L61.3187 53.7122L58.4242 53.4404L59.0001 52.5435L60.7632 52.7875L59.8047 51.2905L60.3747 50.4027Z" fill="#003BB3"/>
<path d="M63.9565 49.7226L65.1261 50.9435L64.8722 51.486L63.5791 50.5288L63.9565 49.7226Z" fill="#003BB3"/>
<path d="M67.1657 42.0243L66.9658 42.9424L64.3067 43.9716L66.6314 44.4778L66.4315 45.3959L62.6626 44.5752L62.8625 43.6571L65.5323 42.6302L63.1969 42.1217L63.3968 41.2036L67.1657 42.0243Z" fill="#003BB3"/>
<path d="M65.4138 40.251C65.0332 40.2341 64.6983 40.1368 64.4092 39.959C64.1164 39.7811 63.8941 39.5421 63.7424 39.2421C63.5872 38.9382 63.5178 38.5996 63.5343 38.2264C63.5545 37.7689 63.6926 37.3827 63.9486 37.0677C64.2045 36.7527 64.5435 36.5495 64.9655 36.4582L64.9199 37.4901C64.7555 37.5599 64.628 37.6642 64.5375 37.8032C64.4472 37.9386 64.3981 38.0959 64.3902 38.2752C64.3774 38.5643 64.4676 38.803 64.661 38.9912C64.8543 39.1794 65.1193 39.281 65.456 39.2958C65.7927 39.3107 66.0656 39.233 66.2748 39.0626C66.484 38.8922 66.595 38.6624 66.6078 38.3733C66.6157 38.194 66.5807 38.0329 66.5027 37.8901C66.4248 37.7437 66.3071 37.6285 66.1495 37.5445L66.1951 36.5125C66.6074 36.6408 66.9272 36.8731 67.1543 37.2095C67.3777 37.5457 67.4794 37.9425 67.4591 38.3999C67.4426 38.7732 67.3455 39.1044 67.1677 39.3936C66.9864 39.6789 66.7439 39.8973 66.4402 40.0489C66.1365 40.2004 65.7944 40.2678 65.4138 40.251Z" fill="#003BB3"/>
<circle cx="6.67252" cy="32.575" r="0.784946" fill="#003BB3"/>
<circle cx="65.543" cy="32.575" r="0.784946" fill="#003BB3"/>
<path d="M14.9968 33.656L17.7239 33.7103L17.715 34.1576L15.8472 34.1204L17.6985 34.9895L17.6923 35.2995L15.8078 36.0981L17.6756 36.1353L17.6667 36.5826L14.9396 36.5283L14.9492 36.0457L17.1068 35.1308L14.9873 34.1347L14.9968 33.656Z" fill="#003BB3"/>
<path d="M16.2451 30.2521L19.085 32.2018L18.9901 32.6551L18.0506 32.0094L15.7941 32.4072L15.8962 31.9194L17.6342 31.6616L16.1503 30.7054L16.2451 30.2521Z" fill="#003BB3"/>
<path d="M18.3436 26.9704C18.1099 26.8414 17.9301 26.6718 17.804 26.4617C17.6792 26.2493 17.6165 26.0219 17.6159 25.7795C17.6142 25.5335 17.6748 25.2994 17.7975 25.0772C17.9379 24.823 18.1254 24.6322 18.3602 24.5048C18.5939 24.3738 18.85 24.3269 19.1283 24.3641L18.8684 24.8347C18.7083 24.827 18.5669 24.861 18.4444 24.9368C18.3218 25.0126 18.2207 25.1227 18.141 25.267C18.0537 25.425 18.0115 25.5855 18.0142 25.7484C18.0169 25.9113 18.065 26.0649 18.1587 26.2092C18.2535 26.3513 18.3892 26.4711 18.5655 26.5685C18.7419 26.6659 18.9155 26.7169 19.0863 26.7215C19.2583 26.7239 19.4152 26.6835 19.5568 26.6003C19.6961 26.5158 19.8094 26.3945 19.8966 26.2365C19.9763 26.0922 20.0156 25.948 20.0145 25.8039C20.0133 25.6598 19.9669 25.5221 19.8751 25.3907L20.135 24.92C20.3147 25.1358 20.4114 25.3775 20.425 25.645C20.4399 25.9103 20.3772 26.1701 20.2368 26.4243C20.1128 26.6488 19.9481 26.8253 19.7425 26.9539C19.5347 27.0813 19.3077 27.1487 19.0615 27.1562C18.8165 27.1614 18.5772 27.0994 18.3436 26.9704Z" fill="#003BB3"/>
<path d="M22.189 23.6646C22.0589 23.8219 21.9061 23.9348 21.7305 24.0035C21.5528 24.0705 21.3695 24.0869 21.1804 24.0528C20.9893 24.017 20.8081 23.9282 20.6367 23.7865C20.4673 23.6464 20.3479 23.4849 20.2786 23.3019C20.2092 23.1189 20.1926 22.9337 20.2287 22.7463C20.2649 22.5589 20.3488 22.3856 20.4805 22.2263C20.6123 22.067 20.7668 21.952 20.9441 21.8813C21.1214 21.8106 21.3064 21.7922 21.4991 21.826C21.6919 21.8597 21.873 21.9467 22.0423 22.0867C22.2117 22.2268 22.3302 22.3893 22.3979 22.5743C22.4656 22.7593 22.4808 22.9484 22.4433 23.1415C22.4055 23.3309 22.3207 23.5053 22.189 23.6646ZM21.8896 23.417C21.9629 23.3282 22.0101 23.2281 22.0311 23.1164C22.0538 23.0028 22.0428 22.8867 21.9982 22.7683C21.9535 22.6499 21.8707 22.5406 21.7497 22.4406C21.6287 22.3406 21.5077 22.2795 21.3867 22.2575C21.2637 22.2339 21.1493 22.2429 21.0436 22.2845C20.9379 22.3261 20.8483 22.3912 20.775 22.48C20.7016 22.5687 20.6544 22.6688 20.6334 22.7805C20.614 22.8901 20.6284 23.0021 20.6764 23.1165C20.7223 23.2292 20.8058 23.3356 20.9268 23.4357C21.1063 23.5841 21.2829 23.6538 21.4567 23.6447C21.6302 23.632 21.7745 23.5561 21.8896 23.417Z" fill="#003BB3"/>
<path d="M24.4961 18.5021C24.6293 18.3964 24.7701 18.3297 24.9185 18.302C25.069 18.2727 25.2171 18.2888 25.3627 18.3502C25.5104 18.41 25.6453 18.5168 25.7673 18.6705L26.5605 19.6694L26.2131 19.9452L25.4615 18.9985C25.3411 18.8468 25.2113 18.7612 25.072 18.7414C24.9311 18.7197 24.7951 18.7609 24.6639 18.865C24.5328 18.9691 24.4608 19.0931 24.448 19.2369C24.4357 19.377 24.4897 19.5228 24.6101 19.6745L25.3617 20.6212L25.0144 20.897L24.2627 19.9502C24.1423 19.7986 24.0125 19.7129 23.8732 19.6932C23.7323 19.6714 23.5963 19.7126 23.4652 19.8167C23.334 19.9209 23.2621 20.0448 23.2493 20.1886C23.2369 20.3287 23.2909 20.4746 23.4113 20.6263L24.163 21.573L23.8126 21.8512L22.4679 20.1575L22.8183 19.8793L22.972 20.073C22.9741 19.9578 23.0037 19.8457 23.0609 19.7368C23.1181 19.6279 23.1969 19.5336 23.2973 19.4539C23.4326 19.3465 23.5763 19.2792 23.7284 19.252C23.8805 19.2247 24.0283 19.2427 24.1719 19.3057C24.1418 19.1626 24.1575 19.0182 24.2189 18.8725C24.2787 18.7248 24.3711 18.6014 24.4961 18.5021Z" fill="#003BB3"/>
<path d="M28.9546 16.1089C29.109 16.0377 29.2616 16.0061 29.4123 16.0143C29.5655 16.0215 29.7055 16.0721 29.8326 16.1662C29.9619 16.2592 30.0678 16.3948 30.15 16.5729L30.6846 17.7311L30.2819 17.9169L29.7753 16.8194C29.6941 16.6436 29.5882 16.5297 29.4576 16.4776C29.3258 16.4231 29.1839 16.431 29.0319 16.5012C28.8798 16.5714 28.7806 16.6748 28.7342 16.8115C28.6891 16.9447 28.7071 17.0992 28.7882 17.275L29.2948 18.3726L28.8922 18.5584L28.3856 17.4609C28.3044 17.2851 28.1985 17.1712 28.0678 17.1191C27.9361 17.0646 27.7942 17.0725 27.6421 17.1427C27.4901 17.2129 27.3909 17.3163 27.3445 17.453C27.2993 17.5862 27.3173 17.7407 27.3985 17.9165L27.9051 19.0141L27.4989 19.2016L26.5926 17.2381L26.9988 17.0506L27.1024 17.2751C27.1317 17.1636 27.1869 17.0617 27.2682 16.9695C27.3496 16.8772 27.4484 16.8042 27.5648 16.7504C27.7216 16.6781 27.8771 16.6466 28.0314 16.6561C28.1856 16.6656 28.325 16.718 28.4497 16.8132C28.4542 16.667 28.5036 16.5304 28.5977 16.4033C28.6907 16.274 28.8096 16.1758 28.9546 16.1089Z" fill="#003BB3"/>
<path d="M31.3893 15.0991C31.3108 15.1194 31.2381 15.1099 31.1711 15.0705C31.1041 15.031 31.0605 14.9721 31.0401 14.8936C31.0198 14.815 31.0293 14.7423 31.0687 14.6753C31.1081 14.6084 31.1671 14.5647 31.2456 14.5444C31.3216 14.5247 31.3931 14.5345 31.46 14.5739C31.527 14.6133 31.5707 14.6723 31.591 14.7508C31.6114 14.8293 31.6018 14.9021 31.5624 14.9691C31.523 15.036 31.4653 15.0794 31.3893 15.0991ZM31.6739 15.3213L32.2163 17.4147L31.7832 17.5269L31.2408 15.4335L31.6739 15.3213Z" fill="#003BB3"/>
<path d="M34.7626 17.014C34.5936 17.033 34.4381 17.0201 34.2962 16.9755C34.1566 16.928 34.042 16.8566 33.9523 16.7614C33.8623 16.6635 33.8074 16.5499 33.7876 16.4205L34.2478 16.3688C34.2659 16.4589 34.3174 16.5308 34.4024 16.5845C34.4897 16.6352 34.5932 16.6539 34.7128 16.6404C34.8376 16.6264 34.9312 16.5922 34.9935 16.5378C35.0582 16.4805 35.0863 16.4142 35.0778 16.3388C35.0687 16.2582 35.023 16.2028 34.9406 16.1725C34.8608 16.142 34.7351 16.1127 34.5635 16.0845C34.3973 16.0584 34.2612 16.0303 34.1551 16.0001C34.049 15.9699 33.9534 15.9161 33.8684 15.8388C33.786 15.7611 33.7369 15.6521 33.7211 15.5117C33.7082 15.3973 33.7304 15.2895 33.7874 15.1883C33.8442 15.0845 33.932 14.9983 34.0507 14.9297C34.1719 14.8608 34.3145 14.8171 34.4783 14.7987C34.7227 14.7713 34.926 14.8116 35.0882 14.9198C35.2528 15.025 35.3522 15.1837 35.3866 15.3957L34.9419 15.4457C34.9233 15.3503 34.8757 15.278 34.7991 15.2287C34.7225 15.1794 34.6243 15.1614 34.5047 15.1749C34.3877 15.188 34.3005 15.2202 34.2431 15.2714C34.1856 15.3226 34.161 15.3846 34.1692 15.4574C34.1756 15.5146 34.2018 15.5604 34.2478 15.5947C34.2938 15.6291 34.348 15.6546 34.4104 15.6712C34.4725 15.6853 34.564 15.7027 34.6848 15.7234C34.8455 15.7474 34.9777 15.776 35.0815 15.8091C35.1876 15.8394 35.2817 15.892 35.3638 15.967C35.446 16.042 35.4961 16.1483 35.5142 16.2858C35.5279 16.408 35.5064 16.521 35.4496 16.6248C35.3928 16.7286 35.305 16.8148 35.1863 16.8835C35.0703 16.9518 34.929 16.9953 34.7626 17.014Z" fill="#003BB3"/>
<path d="M37.4177 14.4426C37.3367 14.4402 37.2695 14.4107 37.2162 14.3542C37.1629 14.2976 37.1375 14.2288 37.1399 14.1477C37.1423 14.0666 37.1718 13.9995 37.2284 13.9462C37.2849 13.8929 37.3537 13.8675 37.4348 13.8699C37.5133 13.8722 37.5791 13.9017 37.6324 13.9582C37.6857 14.0148 37.7111 14.0836 37.7087 14.1647C37.7063 14.2458 37.6768 14.3129 37.6203 14.3662C37.5637 14.4195 37.4962 14.445 37.4177 14.4426ZM37.6289 14.7356L37.5644 16.8971L37.1172 16.8838L37.1817 14.7222L37.6289 14.7356Z" fill="#003BB3"/>
<path d="M40.2627 17.2507C40.0618 17.2143 39.8885 17.1365 39.7426 17.017C39.5971 16.895 39.493 16.7432 39.4301 16.5616C39.3677 16.3775 39.3563 16.176 39.3958 15.9572C39.435 15.7409 39.5173 15.5577 39.6428 15.4076C39.7684 15.2575 39.9217 15.1522 40.1028 15.0919C40.2838 15.0316 40.4761 15.0199 40.6795 15.0567C40.8829 15.0934 41.0588 15.1718 41.2073 15.2917C41.3558 15.4116 41.4625 15.5639 41.5275 15.7485C41.5925 15.9331 41.6054 16.1335 41.5663 16.3498C41.5272 16.5661 41.4436 16.749 41.3155 16.8987C41.1874 17.0483 41.03 17.1541 40.8433 17.2161C40.6596 17.2759 40.4661 17.2875 40.2627 17.2507ZM40.3318 16.8683C40.4451 16.8888 40.5556 16.8809 40.6632 16.8445C40.7734 16.8086 40.8692 16.7422 40.9505 16.6452C41.0319 16.5482 41.0865 16.4225 41.1145 16.268C41.1424 16.1136 41.1363 15.9782 41.0962 15.8619C41.0565 15.7431 40.9927 15.6478 40.9046 15.576C40.8166 15.5042 40.7159 15.4581 40.6026 15.4376C40.4893 15.4171 40.3789 15.425 40.2712 15.4614C40.1662 15.4983 40.0756 15.5656 39.9994 15.6635C39.9236 15.7588 39.8718 15.8837 39.8438 16.0382C39.8024 16.2674 39.8282 16.4555 39.9212 16.6026C40.0173 16.7476 40.1542 16.8362 40.3318 16.8683Z" fill="#003BB3"/>
<path d="M44.4515 16.1429C44.6108 16.2025 44.7406 16.2888 44.8408 16.4017C44.9435 16.5155 45.0061 16.6507 45.0286 16.8071C45.0511 16.9636 45.0279 17.1337 44.9592 17.3175L44.5124 18.5123L44.097 18.3569L44.5204 17.2247C44.5883 17.0433 44.5947 16.8879 44.5398 16.7584C44.4858 16.6265 44.3803 16.5312 44.2235 16.4725C44.0667 16.4138 43.9233 16.4161 43.7935 16.4793C43.6671 16.541 43.57 16.6625 43.5022 16.8438L43.0787 17.9761L42.6597 17.8193L43.4172 15.7938L43.8363 15.9506L43.7496 16.1821C43.8494 16.1245 43.9607 16.0921 44.0835 16.0849C44.2088 16.0787 44.3314 16.098 44.4515 16.1429Z" fill="#003BB3"/>
<path d="M49.4997 18.7604L49.016 19.3984L49.7666 19.9675L49.5461 20.2583L48.7955 19.6893L48.2904 20.3554L49.1349 20.9956L48.9143 21.2865L47.7134 20.376L49.3636 18.1992L50.5646 19.1097L50.3441 19.4006L49.4997 18.7604Z" fill="#003BB3"/>
<path d="M51.5359 22.3005L51.2305 23.5629L50.8797 23.1979L51.0852 22.3526L50.2515 22.5442L49.9279 22.2074L51.1788 21.9742L51.4871 20.709L51.8379 21.074L51.6323 21.9193L52.4661 21.7277L52.7897 22.0645L51.5359 22.3005Z" fill="#003BB3"/>
<path d="M53.735 23.8373C53.8599 23.8436 53.9875 23.8815 54.1176 23.9508C54.2477 24.0202 54.3594 24.1228 54.4527 24.2587C54.5593 24.4141 54.6174 24.582 54.6271 24.7626C54.6405 24.9439 54.6033 25.1185 54.5155 25.2866C54.4278 25.4547 54.2944 25.6002 54.1154 25.7231C53.9363 25.846 53.7504 25.9197 53.5577 25.944C53.3671 25.9669 53.1875 25.941 53.0189 25.8664C52.8539 25.7924 52.7181 25.6778 52.6114 25.5224C52.5182 25.3865 52.4622 25.2472 52.4436 25.1045C52.4271 24.9603 52.4369 24.8266 52.473 24.7035L51.3663 25.463L51.1132 25.0942L53.7439 23.2885L53.9971 23.6574L53.735 23.8373ZM53.8577 25.3478C53.9807 25.2634 54.0686 25.1649 54.1216 25.0525C54.1781 24.9407 54.2002 24.8271 54.1877 24.7119C54.1789 24.5974 54.1419 24.4926 54.0768 24.3977C54.0131 24.305 53.9287 24.2328 53.8235 24.1812C53.7198 24.1318 53.6048 24.1123 53.4787 24.1227C53.354 24.1353 53.2302 24.1838 53.1073 24.2682C52.9843 24.3526 52.8935 24.4514 52.8348 24.5647C52.7797 24.6787 52.7565 24.7929 52.7654 24.9075C52.7756 25.0242 52.8126 25.1289 52.8763 25.2217C52.9414 25.3166 53.0259 25.3888 53.1296 25.4382C53.2369 25.4882 53.354 25.5063 53.4808 25.4922C53.6091 25.4803 53.7348 25.4322 53.8577 25.3478Z" fill="#003BB3"/>
<path d="M56.0492 26.5804C56.0137 26.5075 56.0087 26.4343 56.0341 26.3608C56.0595 26.2874 56.1087 26.233 56.1816 26.1975C56.2546 26.162 56.3278 26.157 56.4012 26.1824C56.4747 26.2078 56.5291 26.257 56.5646 26.33C56.5989 26.4006 56.6033 26.4726 56.5779 26.546C56.5525 26.6194 56.5033 26.6739 56.4304 26.7093C56.3574 26.7448 56.2842 26.7498 56.2108 26.7244C56.1374 26.699 56.0835 26.651 56.0492 26.5804ZM55.8876 26.9033L53.9426 27.8486L53.747 27.4462L55.692 26.5009L55.8876 26.9033Z" fill="#003BB3"/>
<path d="M56.5252 29.3589C56.6502 29.3857 56.7584 29.4403 56.8498 29.5227C56.9444 29.6067 57.0156 29.7194 57.0633 29.8607L56.6245 30.0089L56.5881 29.901C56.532 29.7349 56.4472 29.6227 56.3336 29.5644C56.2209 29.5086 56.0604 29.5158 55.8521 29.5861L54.7738 29.9502L54.6307 29.5263L56.6795 28.8345L56.8227 29.2585L56.5252 29.3589Z" fill="#003BB3"/>
<path d="M56.7826 33.7172C56.7027 33.7308 56.6296 33.738 56.5633 33.7387L56.2854 32.1099C56.1173 32.1519 55.9914 32.2384 55.9076 32.3695C55.8238 32.5006 55.796 32.6487 55.8242 32.8137C55.8647 33.051 55.9926 33.2017 56.2079 33.2658L56.2891 33.7417C56.0821 33.7107 55.9009 33.6208 55.7454 33.4722C55.593 33.3257 55.4955 33.1273 55.4528 32.8771C55.418 32.6734 55.4319 32.4825 55.4944 32.3046C55.56 32.1289 55.6674 31.9805 55.8166 31.8595C55.9688 31.7406 56.1546 31.6624 56.3738 31.625C56.593 31.5876 56.7927 31.5987 56.9727 31.6582C57.1558 31.7198 57.3061 31.8229 57.4236 31.9674C57.5416 32.1145 57.6185 32.2925 57.6541 32.5014C57.6884 32.7026 57.6752 32.8893 57.6144 33.0616C57.5535 33.2339 57.4506 33.3776 57.3057 33.4926C57.1633 33.6071 56.989 33.682 56.7826 33.7172ZM56.8433 33.233C57.0054 33.2027 57.1257 33.1225 57.2044 32.9922C57.283 32.862 57.308 32.7131 57.2794 32.5455C57.2534 32.3933 57.1822 32.2714 57.0657 32.1798C56.9518 32.0878 56.8105 32.0455 56.6419 32.0531L56.8433 33.233Z" fill="#003BB3"/>
<path d="M55.6935 36.1257C55.6939 35.9557 55.7243 35.8027 55.7849 35.6668C55.848 35.5335 55.932 35.4277 56.0368 35.3495C56.1443 35.2712 56.2634 35.2297 56.3943 35.2248L56.3931 35.6879C56.3015 35.6955 56.2242 35.7385 56.1613 35.8168C56.1009 35.8978 56.0705 35.9984 56.0702 36.1188C56.0699 36.2444 56.0933 36.3413 56.1402 36.4094C56.1897 36.4802 56.2524 36.5157 56.3283 36.5158C56.4094 36.516 56.4697 36.4769 56.5091 36.3985C56.5486 36.3228 56.592 36.2012 56.6395 36.0339C56.6844 35.8717 56.7279 35.7397 56.77 35.6378C56.8121 35.5358 56.8765 35.447 56.963 35.3714C57.0495 35.2983 57.1634 35.262 57.3047 35.2623C57.4198 35.2626 57.5244 35.2969 57.6184 35.3651C57.7151 35.4334 57.7907 35.5304 57.8454 35.6561C57.9 35.7845 57.9271 35.931 57.9267 36.0959C57.9261 36.3418 57.8628 36.5392 57.7369 36.688C57.6135 36.8395 57.4446 36.9202 57.23 36.9301L57.2311 36.4827C57.3279 36.4751 57.4052 36.4361 57.4629 36.3656C57.5207 36.295 57.5497 36.1996 57.55 36.0793C57.5503 35.9615 57.5282 35.8712 57.4839 35.8083C57.4396 35.7454 57.3808 35.7138 57.3075 35.7137C57.25 35.7135 57.2015 35.7343 57.1622 35.7761C57.1228 35.8179 57.0913 35.8688 57.0676 35.9289C57.0465 35.9891 57.0188 36.078 56.9845 36.1956C56.9423 36.3525 56.8988 36.4806 56.8541 36.5799C56.812 36.6819 56.7489 36.7694 56.665 36.8424C56.5811 36.9155 56.4698 36.9531 56.3312 36.9554C56.2082 36.9551 56.0984 36.9208 56.0017 36.8526C55.9051 36.7843 55.8294 36.6873 55.7748 36.5616C55.7202 36.4385 55.693 36.2932 55.6935 36.1257Z" fill="#003BB3"/>
<path d="M19.116 46.8594L18.6235 45.8289L18.036 45.8922L17.8347 45.4708L20.7207 45.1747L20.9441 45.6421L18.9008 47.7017L18.6977 47.2768L19.116 46.8594ZM19.3911 46.5887L20.3437 45.642L19.007 45.7849L19.3911 46.5887Z" fill="#003BB3"/>
<path d="M22.7826 49.4518L21.0556 50.7533L20.7863 50.396L20.9901 50.2424C20.8765 50.2395 20.7642 50.2079 20.6531 50.1474C20.5457 50.0875 20.4534 50.0063 20.3762 49.904C20.2739 49.7681 20.21 49.6246 20.1845 49.4735C20.1606 49.3244 20.1804 49.1768 20.2439 49.0306C20.309 48.8866 20.4199 48.7555 20.5766 48.6374L21.5922 47.8721L21.8591 48.2263L20.8968 48.9514C20.7422 49.0679 20.6522 49.1963 20.6269 49.3366C20.6037 49.4754 20.6424 49.6116 20.7432 49.7453C20.844 49.8791 20.9643 49.9539 21.104 49.9698C21.2475 49.9862 21.3965 49.9361 21.5511 49.8196L22.5134 49.0945L22.7826 49.4518Z" fill="#003BB3"/>
<path d="M24.6305 51.2323C24.7558 51.3434 24.8439 51.4669 24.8948 51.6028C24.9493 51.7385 24.971 51.8679 24.9599 51.9909L25.1682 51.7559L25.506 52.0552L24.0485 53.7003C23.9167 53.8491 23.7682 53.9536 23.6032 54.0136C23.4364 54.0756 23.2638 54.0869 23.0853 54.0477C22.9088 54.0102 22.7383 53.9185 22.5738 53.7728C22.3545 53.5784 22.2183 53.3652 22.1653 53.133C22.1106 52.9028 22.1516 52.6908 22.2881 52.4972L22.6201 52.7913C22.5709 52.8981 22.5649 53.0134 22.6021 53.1372C22.6395 53.2647 22.7159 53.3796 22.8315 53.4819C22.9666 53.6017 23.1117 53.6568 23.2668 53.6475C23.4239 53.6398 23.5719 53.5577 23.7107 53.401L23.9501 53.1307C23.8257 53.1568 23.6911 53.1529 23.5463 53.119C23.4052 53.0849 23.273 53.0132 23.1496 52.9039C23.0086 52.7789 22.9106 52.6292 22.8555 52.4546C22.8042 52.2797 22.8006 52.0983 22.8448 51.9103C22.8928 51.722 22.9887 51.5466 23.1328 51.3841C23.2768 51.2215 23.4376 51.1071 23.6152 51.0407C23.7948 50.9761 23.9727 50.9607 24.149 50.9946C24.329 51.0282 24.4895 51.1074 24.6305 51.2323ZM24.4524 52.5637C24.5513 52.4521 24.6137 52.3343 24.6396 52.2105C24.6674 52.0883 24.6632 51.9727 24.627 51.8637C24.5907 51.7547 24.5295 51.662 24.4433 51.5856C24.3572 51.5093 24.2578 51.4597 24.1452 51.4369C24.0343 51.412 23.919 51.4199 23.7991 51.4606C23.6829 51.501 23.5754 51.577 23.4765 51.6886C23.3776 51.8002 23.3133 51.9181 23.2838 52.0422C23.2562 52.1681 23.2596 52.2865 23.2941 52.3975C23.3323 52.5082 23.3935 52.6009 23.4778 52.6755C23.5639 52.7519 23.6633 52.8014 23.7759 52.8243C23.8885 52.8471 24.0038 52.8374 24.1217 52.795C24.2433 52.7525 24.3535 52.6754 24.4524 52.5637Z" fill="#003BB3"/>
<path d="M28.5079 53.9328L27.424 55.8041L27.0369 55.5799L27.1647 55.3591C27.059 55.4007 26.9432 55.4153 26.8174 55.4028C26.6951 55.3895 26.5785 55.3507 26.4676 55.2864C26.3204 55.2012 26.2057 55.0939 26.1233 54.9645C26.0433 54.8365 26.004 54.6929 26.0056 54.5335C26.0095 54.3755 26.0606 54.2116 26.1589 54.0418L26.7963 52.9414L27.18 53.1637L26.5761 54.2063C26.4791 54.3739 26.4462 54.5272 26.4775 54.6663C26.5102 54.8031 26.5989 54.9135 26.7438 54.9974C26.8887 55.0813 27.0286 55.1034 27.1636 55.0636C27.302 55.0229 27.4198 54.9188 27.5169 54.7512L28.1208 53.7086L28.5079 53.9328Z" fill="#003BB3"/>
<path d="M30.1008 56.9398C29.9401 56.8841 29.8053 56.8056 29.6965 56.7042C29.5909 56.6012 29.5182 56.4874 29.4782 56.3629C29.4392 56.2358 29.4386 56.1096 29.4764 55.9843L29.914 56.1358C29.8915 56.2249 29.907 56.312 29.9607 56.397C30.0176 56.4804 30.103 56.5418 30.2167 56.5812C30.3354 56.6223 30.4346 56.6317 30.5143 56.6095C30.5973 56.5856 30.6512 56.5378 30.676 56.4661C30.7026 56.3895 30.6852 56.3198 30.6238 56.257C30.565 56.1951 30.4641 56.1145 30.3213 56.0152C30.1826 55.9201 30.0718 55.836 29.9891 55.7631C29.9064 55.6901 29.8433 55.6005 29.7998 55.494C29.7589 55.3885 29.7615 55.2689 29.8077 55.1354C29.8454 55.0266 29.9118 54.9389 30.0069 54.8721C30.1028 54.8029 30.2191 54.7629 30.3558 54.752C30.4949 54.7421 30.6424 54.764 30.7981 54.818C31.0306 54.8985 31.1967 55.0224 31.2965 55.1899C31.3997 55.3558 31.4211 55.5418 31.3608 55.7479L30.938 55.6015C30.9623 55.5075 30.9504 55.4217 30.9025 55.3442C30.8546 55.2667 30.7738 55.2083 30.66 55.1689C30.5488 55.1304 30.4562 55.1218 30.3823 55.1433C30.3084 55.1648 30.2595 55.2102 30.2355 55.2794C30.2167 55.3338 30.2206 55.3864 30.2473 55.4372C30.274 55.4879 30.312 55.5343 30.3611 55.5762C30.4112 55.6157 30.4862 55.6708 30.5864 55.7415C30.721 55.8324 30.828 55.9151 30.9074 55.9897C30.9902 56.0626 31.0525 56.1507 31.0943 56.2537C31.1361 56.3568 31.1356 56.4743 31.0927 56.6062C31.0525 56.7224 30.9844 56.8151 30.8884 56.8844C30.7924 56.9536 30.6761 56.9936 30.5395 57.0044C30.4053 57.0161 30.2591 56.9946 30.1008 56.9398Z" fill="#003BB3"/>
<path d="M33.7705 55.9683L33.572 57.1488C33.5585 57.2288 33.5668 57.2899 33.5968 57.3321C33.6299 57.3721 33.6916 57.3997 33.7819 57.4149L34.0528 57.4605L33.991 57.8282L33.6426 57.7696C33.444 57.7362 33.2995 57.6641 33.2094 57.5534C33.1192 57.4427 33.0917 57.2829 33.1269 57.0739L33.3255 55.8934L33.0739 55.8511L33.1344 55.4912L33.386 55.5335L33.4752 55.0033L33.9203 55.0781L33.8311 55.6084L34.3497 55.6956L34.2892 56.0556L33.7705 55.9683Z" fill="#003BB3"/>
<path d="M40.1636 55.2081L38.862 55.3938L38.9723 56.167C39.0163 56.0867 39.0879 56.0143 39.1871 55.95C39.2889 55.8852 39.4006 55.8442 39.5224 55.8268C39.74 55.7958 39.9227 55.8173 40.0707 55.8914C40.2213 55.965 40.3353 56.069 40.4126 56.2034C40.4925 56.3373 40.5437 56.4833 40.5662 56.6413C40.5936 56.833 40.5804 57.0093 40.5267 57.1703C40.4752 57.3283 40.3818 57.4605 40.2463 57.5671C40.1134 57.6732 39.9408 57.7415 39.7284 57.7717C39.4461 57.812 39.2094 57.7744 39.0185 57.6589C38.8276 57.5434 38.6989 57.3728 38.6323 57.1471L39.0636 57.0856C39.1095 57.2032 39.1868 57.2913 39.2956 57.3498C39.404 57.4057 39.532 57.4231 39.6796 57.4021C39.8636 57.3759 39.9929 57.3006 40.0677 57.1763C40.145 57.0516 40.1706 56.8973 40.1444 56.7134C40.1178 56.5269 40.0508 56.3911 39.9435 56.3059C39.8359 56.2182 39.6914 56.1873 39.5101 56.2131C39.3832 56.2312 39.2803 56.279 39.2014 56.3563C39.1248 56.4306 39.0749 56.525 39.0515 56.6393L38.6319 56.6992L38.3986 55.0634L40.1082 54.8196L40.1636 55.2081Z" fill="#003BB3"/>
<path d="M43.0161 56.4308L42.8923 57.6071L42.6156 57.6952L42.5524 56.5785L43.0161 56.4308Z" fill="#003BB3"/>
<path d="M47.4804 54.2051C47.5651 53.884 47.6277 53.6257 47.6682 53.43C47.7093 53.2306 47.727 53.041 47.7212 52.8611C47.7154 52.6812 47.6697 52.5286 47.584 52.4033C47.4954 52.2738 47.3946 52.1937 47.2818 52.1631C47.1711 52.131 47.0499 52.1601 46.9181 52.2502C46.7907 52.3374 46.7195 52.4464 46.7043 52.5772C46.6899 52.7043 46.7271 52.8374 46.8158 52.9764L46.4595 53.2202C46.2976 52.9696 46.2424 52.7315 46.2942 52.5059C46.3466 52.2766 46.4818 52.0874 46.6999 51.9382C46.9353 51.7772 47.1632 51.7164 47.3836 51.7558C47.6061 51.7938 47.7912 51.9208 47.939 52.1367C48.0453 52.2922 48.1081 52.4696 48.1272 52.669C48.1469 52.8647 48.1409 53.0574 48.1091 53.2472C48.0779 53.4334 48.0291 53.6586 47.9626 53.9228L47.9055 54.1521L48.9323 53.4496L49.1428 53.7573L47.5686 54.8344L47.3846 54.5655L47.4804 54.2051Z" fill="#003BB3"/>
<path d="M49.5518 51.5354C49.2298 51.2173 49.0317 50.9151 48.9578 50.6288C48.8838 50.3388 48.9783 50.0607 49.2412 49.7944C49.5041 49.5282 49.7801 49.4312 50.0692 49.5034C50.3582 49.5719 50.6638 49.7652 50.9859 50.0832C51.3117 50.405 51.5125 50.7118 51.5883 51.0036C51.6641 51.2918 51.5706 51.569 51.3077 51.8352C51.0448 52.1014 50.7679 52.1994 50.4769 52.129C50.186 52.055 49.8776 51.8571 49.5518 51.5354ZM50.677 50.396C50.5262 50.2471 50.3886 50.1314 50.2641 50.0489C50.1414 49.9646 50.0181 49.92 49.8941 49.9152C49.7683 49.9086 49.6474 49.964 49.5316 50.0813C49.4158 50.1985 49.362 50.3201 49.3702 50.4458C49.3765 50.5697 49.4217 50.6934 49.5057 50.8169C49.5916 50.9384 49.7099 51.0737 49.8607 51.2226C50.0171 51.377 50.1575 51.4973 50.282 51.5835C50.4065 51.6697 50.5308 51.7152 50.6548 51.7199C50.7806 51.7229 50.9014 51.6657 51.0172 51.5484C51.1331 51.4311 51.1878 51.3105 51.1815 51.1866C51.177 51.0608 51.1309 50.9362 51.0432 50.8128C50.9554 50.6894 50.8334 50.5504 50.677 50.396Z" fill="#003BB3"/>
<path d="M52.9196 48.9656C52.878 48.6362 52.8394 48.3731 52.8038 48.1765C52.7674 47.9762 52.7129 47.7938 52.6402 47.6291C52.5675 47.4644 52.4681 47.34 52.3417 47.2559C52.2111 47.1689 52.0877 47.1323 51.9716 47.1461C51.8569 47.1578 51.7554 47.2301 51.6669 47.3629C51.5814 47.4914 51.556 47.6191 51.5909 47.7461C51.6251 47.8695 51.7093 47.979 51.8436 48.0747L51.6044 48.434C51.3604 48.2622 51.2203 48.062 51.1839 47.8334C51.1467 47.6012 51.2014 47.3751 51.3479 47.1552C51.5059 46.9178 51.6945 46.7762 51.9137 46.7303C52.1342 46.6823 52.3534 46.7308 52.5712 46.8758C52.728 46.9803 52.8525 47.1213 52.9448 47.2991C53.0363 47.4732 53.1028 47.6542 53.1443 47.8421C53.185 48.0264 53.224 48.2536 53.2611 48.5235L53.2939 48.7575L53.9835 47.722L54.2938 47.9286L53.2366 49.5162L52.9655 49.3357L52.9196 48.9656Z" fill="#003BB3"/>
<path d="M52.9088 45.3454L52.5363 45.1787L52.8697 44.4336L55.4813 45.6023L55.2969 46.0143L53.0579 45.0123L52.9088 45.3454Z" fill="#003BB3"/>
</g>
<defs>
<filter id="filter0_i_613_45675" x="0" y="0" width="73" height="73.5214" filterUnits="userSpaceOnUse" color-interpolation-filters="sRGB">
<feFlood flood-opacity="0" result="BackgroundImageFix"/>
<feBlend mode="normal" in="SourceGraphic" in2="BackgroundImageFix" result="shape"/>
<feColorMatrix in="SourceAlpha" type="matrix" values="0 0 0 0 0 0 0 0 0 0 0 0 0 0 0 0 0 0 127 0" result="hardAlpha"/>
<feOffset dy="0.521429"/>
<feGaussianBlur stdDeviation="0.260714"/>
<feComposite in2="hardAlpha" operator="arithmetic" k2="-1" k3="1"/>
<feColorMatrix type="matrix" values="0 0 0 0 0.211765 0 0 0 0 0.215686 0 0 0 0 0.25098 0 0 0 0.24 0"/>
<feBlend mode="normal" in2="shape" result="effect1_innerShadow_613_45675"/>
</filter>
</defs>
</svg>
