<svg width="131" height="48" viewBox="0 0 131 48" fill="none" xmlns="http://www.w3.org/2000/svg">
<path d="M38.0359 14.617H34.6561V20.1348H38.0359V19.0579H36.0002V17.8475H37.8001V16.81H36.0002V15.6939H38.0359V14.617ZM44.9528 20.1348H46.289V17.5724C46.289 16.3934 45.5895 15.7017 44.5048 15.7017C43.8682 15.7017 43.318 16.0554 43.0271 16.5192C42.7285 15.9925 42.194 15.7017 41.5337 15.7017C40.96 15.7017 40.5119 15.9454 40.2526 16.2991V15.7489H38.9085V20.1348H40.2526V17.7532C40.2526 17.1794 40.5827 16.865 41.0936 16.865C41.6045 16.865 41.9346 17.1794 41.9346 17.7532V20.1348H43.2708V17.7532C43.2708 17.1794 43.6009 16.865 44.1118 16.865C44.6227 16.865 44.9528 17.1794 44.9528 17.7532V20.1348ZM47.229 20.1348H48.5731V15.7489H47.229V20.1348ZM47.905 15.293C48.3766 15.293 48.6989 14.9707 48.6989 14.5699C48.6989 14.1612 48.3766 13.8389 47.905 13.8389C47.4255 13.8389 47.1033 14.1612 47.1033 14.5699C47.1033 14.9707 47.4255 15.293 47.905 15.293ZM49.5471 20.1348H50.8912V14.3184H49.5471V20.1348ZM53.8852 18.492L52.8713 15.7489H51.37L53.1543 19.9854L52.1482 22.2177H53.5944L56.3454 15.7489H54.8913L53.8852 18.492ZM61.4132 16.4091C61.4132 16.8414 61.1774 17.1008 60.6743 17.1008H59.8412V15.7332H60.6743C61.1774 15.7332 61.4132 16.0004 61.4132 16.4091ZM58.4971 14.617V20.1348H59.8412V18.0519H60.1634L61.311 20.1348H62.828L61.5546 17.9497C62.4035 17.6982 62.7808 17.0458 62.7808 16.3541C62.7808 15.3952 62.1048 14.617 60.7529 14.617H58.4971ZM65.0472 19.4745C65.0472 19.0579 64.7249 18.7357 64.2533 18.7357C63.7739 18.7357 63.4516 19.0579 63.4516 19.4745C63.4516 19.8754 63.7739 20.1976 64.2533 20.1976C64.7249 20.1976 65.0472 19.8754 65.0472 19.4745ZM68.6167 20.1348H70.2437L71.1555 16.5034L72.0358 20.1348H73.6628L75.1012 14.617H73.655L72.8533 18.6335L71.9101 14.617H70.4324L69.4499 18.6335L68.656 14.617H67.2176L68.6167 20.1348ZM75.508 17.934C75.508 19.3173 76.3648 20.1976 77.4337 20.1976C78.0861 20.1976 78.5499 19.899 78.7935 19.5138V20.1348H80.1376V15.7489H78.7935V16.3698C78.5577 15.9847 78.094 15.686 77.4416 15.686C76.3648 15.686 75.508 16.5506 75.508 17.934ZM78.7935 17.9418C78.7935 18.6414 78.3455 19.0265 77.8346 19.0265C77.3316 19.0265 76.8757 18.6335 76.8757 17.934C76.8757 17.2344 77.3316 16.8571 77.8346 16.8571C78.3455 16.8571 78.7935 17.2423 78.7935 17.9418ZM82.454 18.099C82.454 17.3445 82.8234 17.1244 83.4601 17.1244H83.8295V15.7017C83.24 15.7017 82.7605 16.0161 82.454 16.4799V15.7489H81.1099V20.1348H82.454V18.099ZM85.816 18.099C85.816 17.3445 86.1854 17.1244 86.8221 17.1244H87.1915V15.7017C86.602 15.7017 86.1225 16.0161 85.816 16.4799V15.7489H84.4719V20.1348H85.816V18.099ZM89.7675 16.7628C90.2155 16.7628 90.5928 17.0379 90.5928 17.5174H88.9108C88.9894 17.0301 89.3273 16.7628 89.7675 16.7628ZM91.8661 18.6807H90.4356C90.3256 18.9165 90.1133 19.1051 89.7361 19.1051C89.3038 19.1051 88.9501 18.8379 88.9029 18.2641H91.9447C91.9604 18.1305 91.9683 17.9968 91.9683 17.8711C91.9683 16.5349 91.0644 15.686 89.7832 15.686C88.4785 15.686 87.5667 16.5506 87.5667 17.9418C87.5667 19.333 88.4942 20.1976 89.7832 20.1976C90.8758 20.1976 91.6539 19.5374 91.8661 18.6807ZM95.7034 20.1348H97.0396V17.5724C97.0396 16.3934 96.3637 15.7017 95.3497 15.7017C94.7602 15.7017 94.2886 15.9611 94.0214 16.3305V15.7489H92.6773V20.1348H94.0214V17.7532C94.0214 17.1558 94.3515 16.8257 94.8624 16.8257C95.3733 16.8257 95.7034 17.1558 95.7034 17.7532V20.1348Z" fill="#766458"/>
<path d="M16.8524 30.4922C16.8524 32.135 18.055 33.2825 19.5877 33.2825C20.7746 33.2825 21.7178 32.693 22.1265 31.6398H21.2697C20.9711 32.2922 20.3894 32.6616 19.5877 32.6616C18.4401 32.6616 17.5834 31.8284 17.5834 30.4922C17.5834 29.1482 18.4401 28.315 19.5877 28.315C20.3894 28.315 20.9711 28.6844 21.2697 29.3447H22.1265C21.7178 28.2836 20.7746 27.6862 19.5877 27.6862C18.055 27.6862 16.8524 28.8495 16.8524 30.4922ZM27.0112 28.9281H26.2959V31.2939C26.2959 32.2214 25.8007 32.6773 25.0619 32.6773C24.3388 32.6773 23.8593 32.2293 23.8593 31.3568V28.9281H23.1519V31.4511C23.1519 32.6852 23.93 33.2982 24.9204 33.2982C25.4942 33.2982 26.0208 33.0467 26.2959 32.5987V33.2354H27.0112V28.9281ZM34.4361 33.2354H35.1435V30.6966C35.1435 29.4626 34.3811 28.8495 33.3986 28.8495C32.7383 28.8495 32.1253 29.1875 31.8737 29.8084C31.5908 29.1639 31.0013 28.8495 30.2939 28.8495C29.728 28.8495 29.2171 29.0931 28.9341 29.549V28.9281H28.2188V33.2354H28.9341V30.8616C28.9341 29.9342 29.4293 29.4704 30.1524 29.4704C30.8598 29.4704 31.3314 29.9184 31.3314 30.7988V33.2354H32.0388V30.8616C32.0388 29.9342 32.534 29.4704 33.2571 29.4704C33.9645 29.4704 34.4361 29.9184 34.4361 30.7988V33.2354ZM37.0321 29.7298V27.419H36.3168V33.2354H37.0321V32.4415C37.2993 32.9131 37.8574 33.3061 38.6434 33.3061C39.7988 33.3061 40.687 32.4022 40.687 31.066C40.687 29.7219 39.8066 28.8573 38.6434 28.8573C37.8809 28.8573 37.3072 29.2503 37.0321 29.7298ZM39.956 31.066C39.956 32.0799 39.2879 32.6773 38.494 32.6773C37.7159 32.6773 37.0321 32.0878 37.0321 31.0739C37.0321 30.0756 37.7159 29.4783 38.494 29.4783C39.2879 29.4783 39.956 30.0521 39.956 31.066ZM43.4598 29.4626C44.1987 29.4626 44.8275 29.9263 44.8196 30.7673H42.1C42.1786 29.9263 42.7603 29.4626 43.4598 29.4626ZM45.472 31.907H44.7017C44.5445 32.3708 44.1358 32.7009 43.4913 32.7009C42.7603 32.7009 42.1472 32.2214 42.0922 31.349H45.5349C45.5506 31.1996 45.5584 31.0739 45.5584 30.9167C45.5584 29.7377 44.741 28.8573 43.4913 28.8573C42.2337 28.8573 41.3612 29.7141 41.3612 31.0739C41.3612 32.4415 42.2651 33.3061 43.4913 33.3061C44.5602 33.3061 45.2519 32.693 45.472 31.907ZM47.2178 30.8931C47.2178 29.8949 47.7366 29.5883 48.4204 29.5883H48.609V28.8495C47.9252 28.8495 47.4615 29.1482 47.2178 29.6276V28.9281H46.5026V33.2354H47.2178V30.8931ZM49.4347 33.2354H50.15V27.419H49.4347V33.2354ZM51.1018 31.066C51.1018 32.4022 51.9899 33.3061 53.1375 33.3061C53.9314 33.3061 54.4894 32.8974 54.7488 32.4336V33.2354H55.4719V28.9281H54.7488V29.7141C54.4973 29.2661 53.9471 28.8573 53.1454 28.8573C51.9899 28.8573 51.1018 29.7219 51.1018 31.066ZM54.7488 31.0739C54.7488 32.0878 54.0728 32.6773 53.2868 32.6773C52.5008 32.6773 51.8327 32.0799 51.8327 31.066C51.8327 30.0521 52.5008 29.4783 53.2868 29.4783C54.0728 29.4783 54.7488 30.0756 54.7488 31.0739ZM59.8325 33.2354H60.5399V30.6966C60.5399 29.4626 59.7775 28.8495 58.7793 28.8495C58.1976 28.8495 57.6789 29.0931 57.3959 29.5412V28.9281H56.6806V33.2354H57.3959V30.8538C57.3959 29.9263 57.8989 29.4704 58.6299 29.4704C59.353 29.4704 59.8325 29.9184 59.8325 30.7988V33.2354ZM61.441 31.066C61.441 32.4022 62.3292 33.3061 63.4846 33.3061C64.2706 33.3061 64.8287 32.9052 65.0881 32.4258V33.2354H65.8112V27.419H65.0881V29.6984C64.7894 29.2032 64.1685 28.8573 63.4925 28.8573C62.3292 28.8573 61.441 29.7219 61.441 31.066ZM65.0881 31.0739C65.0881 32.0878 64.4121 32.6773 63.6261 32.6773C62.8401 32.6773 62.172 32.0799 62.172 31.066C62.172 30.0521 62.8401 29.4783 63.6261 29.4783C64.4121 29.4783 65.0881 30.0756 65.0881 31.0739ZM68.8482 30.4922C68.8482 32.135 70.0507 33.2825 71.5834 33.2825C72.7703 33.2825 73.7135 32.693 74.1222 31.6398H73.2655C72.9668 32.2922 72.3852 32.6616 71.5834 32.6616C70.4359 32.6616 69.5791 31.8284 69.5791 30.4922C69.5791 29.1482 70.4359 28.315 71.5834 28.315C72.3852 28.315 72.9668 28.6844 73.2655 29.3447H74.1222C73.7135 28.2836 72.7703 27.6862 71.5834 27.6862C70.0507 27.6862 68.8482 28.8495 68.8482 30.4922ZM79.2741 31.0739C79.2741 29.7141 78.3231 28.8573 77.0969 28.8573C75.8786 28.8573 74.9197 29.7141 74.9197 31.0739C74.9197 32.4415 75.8472 33.3061 77.0655 33.3061C78.2916 33.3061 79.2741 32.4415 79.2741 31.0739ZM75.6507 31.0739C75.6507 29.9892 76.3345 29.4783 77.0891 29.4783C77.8279 29.4783 78.5432 29.9892 78.5432 31.0739C78.5432 32.1664 77.8122 32.6773 77.0655 32.6773C76.3188 32.6773 75.6507 32.1664 75.6507 31.0739ZM84.0345 28.9281H83.3193V31.2939C83.3193 32.2214 82.8241 32.6773 82.0853 32.6773C81.3621 32.6773 80.8827 32.2293 80.8827 31.3568V28.9281H80.1753V31.4511C80.1753 32.6852 80.9534 33.2982 81.9438 33.2982C82.5176 33.2982 83.0442 33.0467 83.3193 32.5987V33.2354H84.0345V28.9281ZM88.3941 33.2354H89.1015V30.6966C89.1015 29.4626 88.3391 28.8495 87.3408 28.8495C86.7592 28.8495 86.2404 29.0931 85.9575 29.5412V28.9281H85.2422V33.2354H85.9575V30.8538C85.9575 29.9263 86.4605 29.4704 87.1915 29.4704C87.9146 29.4704 88.3941 29.9184 88.3941 30.7988V33.2354ZM90.4271 32.0564C90.4271 32.921 90.8594 33.2354 91.6218 33.2354H92.2663V32.6301H91.7397C91.2995 32.6301 91.1423 32.4808 91.1423 32.0564V29.5176H92.2663V28.9281H91.1423V27.8434H90.4271V28.9281H89.869V29.5176H90.4271V32.0564ZM93.8482 30.8931C93.8482 29.8949 94.3669 29.5883 95.0508 29.5883H95.2394V28.8495C94.5556 28.8495 94.0919 29.1482 93.8482 29.6276V28.9281H93.1329V33.2354H93.8482V30.8931ZM97.7 32.4179L96.348 28.9281H95.5542L97.2912 33.1882L96.4424 35.2632H97.1812L99.775 28.9281H99.0362L97.7 32.4179ZM99.8731 34.3593H100.353L101.233 32.245H100.447L99.8731 34.3593ZM107.74 27.7491V32.1035L104.863 27.7491H104.148V33.2354H104.863V28.8731L107.74 33.2354H108.455V27.7491H107.74ZM109.407 30.4922C109.407 32.135 110.61 33.2825 112.142 33.2825C113.329 33.2825 114.272 32.693 114.681 31.6398H113.824C113.526 32.2922 112.944 32.6616 112.142 32.6616C110.995 32.6616 110.138 31.8284 110.138 30.4922C110.138 29.1482 110.995 28.315 112.142 28.315C112.944 28.315 113.526 28.6844 113.824 29.3447H114.681C114.272 28.2836 113.329 27.6862 112.142 27.6862C110.61 27.6862 109.407 28.8495 109.407 30.4922Z" fill="#766458"/>
<rect x="0.655" y="0.655" width="129.69" height="45.85" rx="1.965" stroke="#766458" stroke-width="1.31" stroke-dasharray="1.31 1.31"/>
</svg>
