<svg width="140" height="140" viewBox="0 0 140 140" fill="none" xmlns="http://www.w3.org/2000/svg">
<g filter="url(#filter0_i_1727_50780)">
<path fill-rule="evenodd" clip-rule="evenodd" d="M116.66 70.7746L114.402 70.7378C114.406 70.4924 114.408 70.2464 114.408 69.9999C114.408 69.7535 114.406 69.5075 114.402 69.262L116.66 69.2253C116.664 69.483 116.666 69.7412 116.666 69.9999C116.666 70.2586 116.664 70.5169 116.66 70.7746ZM116.566 66.9127L114.313 67.0599C114.281 66.5701 114.241 66.0825 114.193 65.5972L116.44 65.3762C116.49 65.886 116.532 66.3982 116.566 66.9127ZM116.157 63.0786L113.923 63.4107C113.851 62.9247 113.771 62.4412 113.683 61.9606L115.904 61.5545C115.996 62.0598 116.081 62.5678 116.157 63.0786ZM115.431 59.2887L113.233 59.8049C113.121 59.3276 113.001 58.8533 112.874 58.3821L115.054 57.7929C115.187 58.2883 115.313 58.7869 115.431 59.2887ZM114.394 55.5741L112.246 56.2715C112.095 55.8054 111.936 55.3427 111.77 54.8835L113.893 54.115C114.068 54.5977 114.235 55.0841 114.394 55.5741ZM113.051 51.9587L110.969 52.8324C110.779 52.3802 110.582 51.9318 110.378 51.4874L112.43 50.545C112.645 51.0122 112.852 51.4834 113.051 51.9587ZM111.412 48.4662L109.409 49.5096C109.183 49.0751 108.95 48.6448 108.709 48.2189L110.676 47.1096C110.929 47.5573 111.174 48.0095 111.412 48.4662ZM109.489 45.1222L107.58 46.3276C107.319 45.9134 107.05 45.5039 106.776 45.0991L108.644 43.8313C108.933 44.2566 109.215 44.687 109.489 45.1222ZM107.298 41.9484L105.494 43.307C105.199 42.9157 104.898 42.5294 104.591 42.1483L106.349 40.731C106.672 41.1314 106.988 41.5372 107.298 41.9484ZM104.852 38.9653L103.166 40.4676C102.84 40.1019 102.508 39.7416 102.171 39.387L103.806 37.8301C104.161 38.2027 104.51 38.5811 104.852 38.9653ZM102.169 36.1933L100.613 37.8288C100.258 37.4912 99.8977 37.1594 99.532 36.8336L101.034 35.1477C101.418 35.49 101.797 35.8386 102.169 36.1933ZM99.2686 33.6508L97.8513 35.4087C97.4702 35.1014 97.0839 34.8003 96.6926 34.5055L98.0512 32.7019C98.4623 33.0116 98.8682 33.328 99.2686 33.6508ZM96.1683 31.3552L94.9005 33.2238C94.4957 32.9491 94.0861 32.681 93.672 32.4195L94.8774 30.5101C95.3126 30.7849 95.743 31.0666 96.1683 31.3552ZM92.8899 29.3233L91.7807 31.2902C91.3548 31.05 90.9245 30.8166 90.49 30.5902L91.5334 28.5877C91.99 28.8256 92.4423 29.0709 92.8899 29.3233ZM89.4546 27.5695L88.5122 29.6215C88.0677 29.4174 87.6194 29.2204 87.1672 29.0307L88.0409 26.9485C88.5161 27.1479 88.9874 27.355 89.4546 27.5695ZM85.8846 26.1065L85.116 28.2297C84.6569 28.0635 84.1942 27.9047 83.7281 27.7533L84.4255 25.6057C84.9155 25.7648 85.4019 25.9318 85.8846 26.1065ZM82.2067 24.946L81.6175 27.1259C81.1463 26.9985 80.672 26.8787 80.1946 26.7666L80.7109 24.5683C81.2127 24.6862 81.7113 24.8121 82.2067 24.946ZM78.4451 24.0955L78.039 26.3168C77.5583 26.2289 77.0749 26.1488 76.5889 26.0765L76.921 23.843C77.4317 23.9189 77.9398 24.0031 78.4451 24.0955ZM74.6234 23.5594L74.4023 25.8066C73.9171 25.7589 73.4295 25.719 72.9397 25.687L73.0869 23.4337C73.6014 23.4673 74.1136 23.5093 74.6234 23.5594ZM70.7743 23.3396L70.7376 25.5973C70.4921 25.5933 70.2461 25.5913 69.9997 25.5913C69.7532 25.5913 69.5072 25.5933 69.2618 25.5973L69.225 23.3396C69.4827 23.3354 69.741 23.3333 69.9997 23.3333C70.2584 23.3333 70.5166 23.3354 70.7743 23.3396ZM66.9125 23.4337L67.0596 25.687C66.5698 25.719 66.0822 25.7589 65.597 25.8066L65.376 23.5594C65.8858 23.5093 66.398 23.4673 66.9125 23.4337ZM63.0784 23.843L63.4104 26.0765C62.9244 26.1488 62.441 26.2289 61.9603 26.3168L61.5543 24.0955C62.0595 24.0031 62.5676 23.9189 63.0784 23.843ZM59.2884 24.5683L59.8047 26.7666C59.3274 26.8787 58.853 26.9985 58.3818 27.1259L57.7926 24.946C58.288 24.8121 58.7867 24.6862 59.2884 24.5683ZM55.5738 25.6057L56.2712 27.7533C55.8052 27.9047 55.3425 28.0635 54.8833 28.2297L54.1147 26.1065C54.5975 25.9318 55.0839 25.7648 55.5738 25.6057ZM51.9585 26.9485L52.8321 29.0307C52.38 29.2204 51.9316 29.4174 51.4872 29.6215L50.5448 27.5695C51.0119 27.355 51.4832 27.1479 51.9585 26.9485ZM48.466 28.5877L49.5094 30.5902C49.0749 30.8166 48.6446 31.05 48.2186 31.2902L47.1094 29.3233C47.5571 29.0709 48.0093 28.8256 48.466 28.5877ZM45.122 30.5101L46.3274 32.4195C45.9132 32.681 45.5036 32.9491 45.0988 33.2238L43.831 31.3552C44.2564 31.0666 44.6867 30.7849 45.122 30.5101ZM41.9481 32.7019L43.3068 34.5055C42.9154 34.8003 42.5291 35.1014 42.148 35.4087L40.7307 33.6508C41.1312 33.328 41.537 33.0116 41.9481 32.7019ZM38.9651 35.1477L40.4673 36.8336C40.1016 37.1594 39.7414 37.4912 39.3867 37.8288L37.8299 36.1933C38.2025 35.8386 38.5809 35.49 38.9651 35.1477ZM36.193 37.8301L37.8286 39.387C37.491 39.7416 37.1592 40.1019 36.8333 40.4676L35.1475 38.9653C35.4898 38.5812 35.8384 38.2027 36.193 37.8301ZM33.6506 40.731L35.4084 42.1483C35.1012 42.5294 34.8001 42.9157 34.5053 43.307L32.7017 41.9484C33.0114 41.5372 33.3277 41.1314 33.6506 40.731ZM31.355 43.8313L33.2235 45.0991C32.9489 45.5039 32.6808 45.9134 32.4193 46.3276L30.5099 45.1222C30.7846 44.687 31.0664 44.2566 31.355 43.8313ZM29.3231 47.1096L31.29 48.2189C31.0497 48.6448 30.8164 49.0751 30.59 49.5096L28.5874 48.4662C28.8254 48.0096 29.0706 47.5573 29.3231 47.1096ZM27.5692 50.545L29.6212 51.4874C29.4171 51.9319 29.2202 52.3802 29.0305 52.8324L26.9482 51.9587C27.1477 51.4835 27.3547 51.0122 27.5692 50.545ZM26.1062 54.115L28.2295 54.8835C28.0633 55.3427 27.9044 55.8054 27.7531 56.2715L25.6054 55.5741C25.7645 55.0841 25.9315 54.5977 26.1062 54.115ZM24.9458 57.7929L27.1256 58.3821C26.9982 58.8533 26.8784 59.3276 26.7663 59.805L24.5681 59.2887C24.6859 58.7869 24.8119 58.2883 24.9458 57.7929ZM24.0953 61.5545L26.3165 61.9606C26.2286 62.4413 26.1485 62.9247 26.0763 63.4107L23.8427 63.0786C23.9187 62.5678 24.0029 62.0598 24.0953 61.5545ZM23.5592 65.3762L25.8064 65.5973C25.7587 66.0825 25.7188 66.5701 25.6868 67.0599L23.4335 66.9127C23.4671 66.3982 23.509 65.886 23.5592 65.3762ZM23.3393 69.2253C23.3351 69.483 23.333 69.7412 23.333 69.9999C23.333 70.2586 23.3351 70.5169 23.3393 70.7746L25.5971 70.7378C25.5931 70.4924 25.5911 70.2464 25.5911 69.9999C25.5911 69.7535 25.5931 69.5075 25.5971 69.262L23.3393 69.2253ZM23.4335 73.0871L25.6868 72.94C25.7188 73.4298 25.7587 73.9174 25.8064 74.4026L23.5592 74.6236C23.509 74.1138 23.4671 73.6016 23.4335 73.0871ZM23.8427 76.9212L26.0763 76.5891C26.1485 77.0752 26.2286 77.5586 26.3165 78.0393L24.0953 78.4453C24.0029 77.9401 23.9187 77.432 23.8427 76.9212ZM24.5681 80.7112L26.7663 80.1949C26.8784 80.6722 26.9983 81.1466 27.1256 81.6178L24.9458 82.207C24.8119 81.7116 24.6859 81.2129 24.5681 80.7112ZM25.6054 84.4258L27.7531 83.7284C27.9044 84.1944 28.0633 84.6571 28.2295 85.1163L26.1062 85.8848C25.9315 85.4021 25.7645 84.9157 25.6054 84.4258ZM26.9482 88.0411L29.0305 87.1675C29.2202 87.6196 29.4171 88.068 29.6213 88.5124L27.5693 89.4548C27.3547 88.9877 27.1477 88.5164 26.9482 88.0411ZM28.5874 91.5336L30.59 90.4902C30.8164 90.9247 31.0497 91.355 31.29 91.781L29.3231 92.8902C29.0706 92.4425 28.8254 91.9903 28.5874 91.5336ZM30.5099 94.8776L32.4193 93.6722C32.6808 94.0864 32.9489 94.496 33.2235 94.9008L31.355 96.1685C31.0664 95.7432 30.7846 95.3128 30.5099 94.8776ZM32.7017 98.0515L34.5053 96.6928C34.8001 97.0841 35.1012 97.4704 35.4084 97.8516L33.6506 99.2688C33.3277 98.8684 33.0114 98.4626 32.7017 98.0515ZM35.1475 101.035L36.8333 99.5323C37.1592 99.898 37.491 100.258 37.8286 100.613L36.193 102.17C35.8384 101.797 35.4898 101.419 35.1475 101.035ZM37.8299 103.807L39.3867 102.171C39.7414 102.509 40.1016 102.84 40.4673 103.166L38.9651 104.852C38.5809 104.51 38.2025 104.161 37.8299 103.807ZM40.7307 106.349L42.148 104.591C42.5292 104.898 42.9154 105.2 43.3068 105.494L41.9481 107.298C41.537 106.988 41.1312 106.672 40.7307 106.349ZM43.8311 108.645L45.0988 106.776C45.5036 107.051 45.9132 107.319 46.3274 107.58L45.122 109.49C44.6867 109.215 44.2564 108.933 43.8311 108.645ZM47.1094 110.676L48.2186 108.71C48.6446 108.95 49.0749 109.183 49.5094 109.41L48.466 111.412C48.0093 111.174 47.5571 110.929 47.1094 110.676ZM50.5448 112.43L51.4872 110.378C51.9316 110.582 52.38 110.779 52.8321 110.969L51.9585 113.051C51.4832 112.852 51.0119 112.645 50.5448 112.43ZM54.1148 113.893L54.8833 111.77C55.3425 111.936 55.8052 112.095 56.2712 112.246L55.5738 114.394C55.0839 114.235 54.5975 114.068 54.1148 113.893ZM57.7926 115.054L58.3818 112.874C58.8531 113.001 59.3274 113.121 59.8047 113.233L59.2884 115.431C58.7867 115.314 58.288 115.188 57.7926 115.054ZM61.5543 115.904L61.9603 113.683C62.441 113.771 62.9244 113.851 63.4105 113.923L63.0784 116.157C62.5676 116.081 62.0595 115.997 61.5543 115.904ZM65.376 116.44L65.597 114.193C66.0822 114.241 66.5698 114.281 67.0596 114.313L66.9125 116.566C66.398 116.532 65.8858 116.491 65.376 116.44ZM69.225 116.66L69.2618 114.403C69.5072 114.407 69.7532 114.409 69.9997 114.409C70.2461 114.409 70.4921 114.407 70.7376 114.403L70.7743 116.66C70.5166 116.664 70.2584 116.667 69.9997 116.667C69.741 116.667 69.4827 116.664 69.225 116.66ZM73.0869 116.566L72.9397 114.313C73.4295 114.281 73.9171 114.241 74.4023 114.193L74.6234 116.44C74.1136 116.491 73.6014 116.532 73.0869 116.566ZM76.921 116.157L76.5889 113.923C77.0749 113.851 77.5584 113.771 78.039 113.683L78.4451 115.904C77.9398 115.997 77.4318 116.081 76.921 116.157ZM80.7109 115.431L80.1946 113.233C80.672 113.121 81.1463 113.001 81.6175 112.874L82.2067 115.054C81.7113 115.188 81.2127 115.314 80.7109 115.431ZM84.4255 114.394L83.7281 112.246C84.1942 112.095 84.6569 111.936 85.1161 111.77L85.8846 113.893C85.4019 114.068 84.9155 114.235 84.4255 114.394ZM88.0409 113.051L87.1672 110.969C87.6194 110.779 88.0677 110.582 88.5122 110.378L89.4546 112.43C88.9874 112.645 88.5161 112.852 88.0409 113.051ZM91.5334 111.412L90.49 109.41C90.9245 109.183 91.3548 108.95 91.7807 108.71L92.8899 110.676C92.4423 110.929 91.99 111.174 91.5334 111.412ZM94.8774 109.49L93.672 107.58C94.0861 107.319 94.4957 107.051 94.9005 106.776L96.1683 108.645C95.743 108.933 95.3126 109.215 94.8774 109.49ZM98.0512 107.298L96.6926 105.494C97.0839 105.2 97.4702 104.898 97.8513 104.591L99.2686 106.349C98.8682 106.672 98.4623 106.988 98.0512 107.298ZM101.034 104.852L99.532 103.166C99.8977 102.84 100.258 102.509 100.613 102.171L102.169 103.807C101.797 104.161 101.418 104.51 101.034 104.852ZM103.806 102.17L102.171 100.613C102.508 100.258 102.84 99.898 103.166 99.5323L104.852 101.035C104.51 101.419 104.161 101.797 103.806 102.17ZM106.349 99.2688L104.591 97.8516C104.898 97.4704 105.199 97.0841 105.494 96.6928L107.298 98.0514C106.988 98.4626 106.672 98.8684 106.349 99.2688ZM108.644 96.1685L106.776 94.9008C107.05 94.496 107.319 94.0864 107.58 93.6722L109.489 94.8776C109.215 95.3128 108.933 95.7432 108.644 96.1685ZM110.676 92.8902L108.709 91.781C108.95 91.355 109.183 90.9247 109.409 90.4902L111.412 91.5336C111.174 91.9903 110.929 92.4425 110.676 92.8902ZM112.43 89.4548L110.378 88.5124C110.582 88.068 110.779 87.6196 110.969 87.1675L113.051 88.0411C112.852 88.5164 112.645 88.9877 112.43 89.4548ZM113.893 85.8848L111.77 85.1163C111.936 84.6571 112.095 84.1944 112.246 83.7283L114.394 84.4257C114.235 84.9157 114.068 85.4021 113.893 85.8848ZM115.054 82.2069L112.874 81.6178C113.001 81.1465 113.121 80.6722 113.233 80.1949L115.431 80.7112C115.313 81.2129 115.187 81.7116 115.054 82.2069ZM115.904 78.4453L113.683 78.0393C113.771 77.5586 113.851 77.0752 113.923 76.5891L116.157 76.9212C116.081 77.432 115.996 77.9401 115.904 78.4453ZM116.44 74.6236L114.193 74.4026C114.241 73.9174 114.281 73.4298 114.313 72.94L116.566 73.0871C116.532 73.6016 116.49 74.1138 116.44 74.6236Z" fill="#766458"/>
<path fill-rule="evenodd" clip-rule="evenodd" d="M139.996 70.7618L135.48 70.7136C135.483 70.4761 135.484 70.2382 135.484 70C135.484 69.7618 135.483 69.5239 135.48 69.2863L139.996 69.2382C139.999 69.4918 140 69.7457 140 70C140 70.2543 139.999 70.5082 139.996 70.7618ZM139.935 66.9645L135.423 67.1571C135.403 66.6827 135.378 66.2098 135.348 65.7382L139.854 65.449C139.887 65.9528 139.914 66.458 139.935 66.9645ZM139.672 63.1831L135.177 63.6176C135.131 63.145 135.081 62.674 135.025 62.2046L139.51 61.673C139.569 62.1748 139.624 62.6782 139.672 63.1831ZM139.206 59.4215L134.741 60.0983C134.67 59.6289 134.593 59.1612 134.512 58.6952L138.962 57.9214C139.048 58.4196 139.13 58.9197 139.206 59.4215ZM138.536 55.6891L134.114 56.6077C134.018 56.1433 133.916 55.6808 133.81 55.2201L138.211 54.2052C138.324 54.6979 138.433 55.1925 138.536 55.6891ZM137.664 51.9985L133.299 53.1568C133.177 52.6988 133.051 52.2429 132.92 51.789L137.258 50.5356C137.399 51.0211 137.534 51.5087 137.664 51.9985ZM136.591 48.3612C136.435 47.8797 136.274 47.4005 136.107 46.9236L131.843 48.4119C131.999 48.8578 132.15 49.3058 132.296 49.756L136.591 48.3612ZM135.322 44.7882L131.109 46.4153C130.939 45.974 130.764 45.535 130.584 45.0984L134.761 43.3798C134.953 43.8468 135.14 44.3163 135.322 44.7882ZM133.86 41.2899L129.742 43.1441C129.548 42.7129 129.35 42.2842 129.146 41.8581L133.223 39.9147C133.44 40.3704 133.653 40.8288 133.86 41.2899ZM132.21 37.8765L128.199 39.9519C127.982 39.5319 127.76 39.1146 127.534 38.7L131.499 36.538C131.741 36.9813 131.978 37.4275 132.21 37.8765ZM130.377 34.5578L126.485 36.8477C126.245 36.44 126.001 36.035 125.752 35.633L129.594 33.2593C129.86 33.6891 130.121 34.1219 130.377 34.5578ZM128.367 31.3434L124.604 33.8406C124.343 33.4462 124.077 33.0549 123.807 32.6666L127.515 30.0886C127.803 30.5036 128.088 30.9219 128.367 31.3434ZM126.186 28.2422L122.564 30.9389C122.281 30.5592 121.994 30.1827 121.704 29.8094L125.267 27.0351C125.578 27.4341 125.884 27.8364 126.186 28.2422ZM123.841 25.263L120.369 28.151C120.066 27.7872 119.76 27.4266 119.449 27.0695L122.858 24.1073C123.19 24.4889 123.518 24.8742 123.841 25.263ZM121.339 22.4144C120.995 22.0436 120.647 21.6766 120.295 21.3134L117.051 24.4548C117.38 24.7947 117.705 25.1382 118.027 25.4852L121.339 22.4144ZM118.687 19.7047L115.545 22.9492C115.205 22.6201 114.862 22.2946 114.515 21.9728L117.586 18.6614C117.956 19.0052 118.323 19.353 118.687 19.7047ZM115.893 17.1417L112.931 20.5506C112.573 20.2402 112.213 19.9337 111.849 19.631L114.737 16.159C115.126 16.4825 115.511 16.81 115.893 17.1417ZM112.965 14.7328L110.191 18.2963C109.817 18.0057 109.441 17.719 109.061 17.4363L111.758 13.8137C112.164 14.1158 112.566 14.4222 112.965 14.7328ZM109.911 12.4852L107.333 16.1932C106.945 15.9232 106.554 15.6574 106.159 15.3957L108.657 11.6328C109.078 11.9125 109.496 12.1966 109.911 12.4852ZM106.741 10.4057L104.367 14.2477C103.965 13.9993 103.56 13.7551 103.152 13.5152L105.442 9.62269C105.878 9.87912 106.311 10.1401 106.741 10.4057ZM103.462 8.50077L101.3 12.4658C100.885 12.2397 100.468 12.018 100.048 11.8007L102.123 7.78968C102.573 8.02201 103.019 8.25907 103.462 8.50077ZM100.085 6.77689L98.1419 10.8535C97.7158 10.6503 97.287 10.4517 96.8559 10.2575L98.7101 6.13959C99.1712 6.3472 99.6296 6.55966 100.085 6.77689ZM96.6202 5.23935L94.9016 9.41571C94.465 9.23604 94.026 9.06096 93.5847 8.89053L95.2118 4.67769C95.6837 4.85996 96.1532 5.0472 96.6202 5.23935ZM93.0764 3.89288L91.5881 8.15674C91.1422 8.00111 90.6942 7.85017 90.244 7.70397L91.6388 3.40863C92.1203 3.56499 92.5995 3.72643 93.0764 3.89288ZM89.4644 2.74172L88.211 7.08043C87.7571 6.94931 87.3012 6.82296 86.8432 6.70145L88.0015 2.33639C88.4913 2.46634 88.9789 2.60147 89.4644 2.74172ZM85.7948 1.78931L84.7799 6.18992C84.3192 6.08368 83.8567 5.98229 83.3923 5.88582L84.3109 1.4641C84.8075 1.56726 85.3021 1.67568 85.7948 1.78931ZM82.0786 1.03823L81.3048 5.48756C80.8388 5.40651 80.3711 5.33038 79.9017 5.25923L80.5785 0.794112C81.0803 0.870178 81.5804 0.951572 82.0786 1.03823ZM78.327 0.490125L77.7954 4.97486C77.326 4.91922 76.855 4.86854 76.3824 4.82287L76.8169 0.327685C77.3218 0.376486 77.8252 0.430652 78.327 0.490125ZM74.551 0.145568L74.2618 4.65243C73.7902 4.62217 73.3173 4.59689 72.8429 4.57665L73.0354 0.0646298C73.542 0.0862437 74.0472 0.113242 74.551 0.145568ZM70.7618 0.00405969L70.7136 4.51993C70.4761 4.5174 70.2382 4.51613 70 4.51613C69.7618 4.51613 69.5239 4.5174 69.2863 4.51993L69.2382 0.00405991C69.4918 0.00135558 69.7457 0 70 0C70.2543 0 70.5082 0.00135551 70.7618 0.00405969ZM66.9645 0.0646303L67.1571 4.57665C66.6827 4.59689 66.2098 4.62217 65.7382 4.65243L65.449 0.145569C65.9528 0.113243 66.458 0.0862443 66.9645 0.0646303ZM63.1831 0.327686L63.6176 4.82287C63.145 4.86854 62.674 4.91922 62.2046 4.97486L61.673 0.490126C62.1748 0.430653 62.6782 0.376487 63.1831 0.327686ZM59.4215 0.794113L60.0983 5.25923C59.6289 5.33038 59.1612 5.40651 58.6952 5.48756L57.9214 1.03824C58.4196 0.951573 58.9197 0.870179 59.4215 0.794113ZM55.6891 1.4641L56.6077 5.88582C56.1433 5.98229 55.6808 6.08368 55.2201 6.18992L54.2052 1.78931C54.6979 1.67568 55.1925 1.56726 55.6891 1.4641ZM51.9985 2.33639L53.1568 6.70145C52.6988 6.82296 52.2429 6.94931 51.789 7.08043L50.5356 2.74172C51.0211 2.60147 51.5087 2.46634 51.9985 2.33639ZM48.3612 3.40863L49.756 7.70398C49.3058 7.85017 48.8578 8.00111 48.4119 8.15674L46.9236 3.89288C47.4005 3.72643 47.8797 3.56499 48.3612 3.40863ZM44.7882 4.67769L46.4153 8.89053C45.974 9.06096 45.535 9.23604 45.0984 9.41571L43.3798 5.23935C43.8468 5.04721 44.3163 4.85996 44.7882 4.67769ZM41.2899 6.13959L43.1441 10.2575C42.7129 10.4517 42.2842 10.6504 41.8581 10.8535L39.9147 6.7769C40.3704 6.55966 40.8288 6.3472 41.2899 6.13959ZM37.8765 7.78969L39.9519 11.8007C39.5319 12.018 39.1146 12.2397 38.7 12.4658L36.538 8.50078C36.9813 8.25907 37.4275 8.02202 37.8765 7.78969ZM34.5578 9.62269L36.8477 13.5152C36.44 13.7551 36.035 13.9993 35.633 14.2477L33.2593 10.4057C33.6891 10.1401 34.1219 9.87912 34.5578 9.62269ZM31.3434 11.6328L33.8406 15.3957C33.4462 15.6574 33.0549 15.9232 32.6666 16.1932L30.0886 12.4852C30.5036 12.1966 30.9219 11.9125 31.3434 11.6328ZM28.2422 13.8137L30.9389 17.4363C30.5592 17.719 30.1827 18.0057 29.8094 18.2963L27.0351 14.7328C27.4341 14.4222 27.8364 14.1158 28.2422 13.8137ZM25.263 16.159L28.151 19.631C27.7872 19.9337 27.4266 20.2402 27.0695 20.5506L24.1073 17.1417C24.4889 16.81 24.8742 16.4825 25.263 16.159ZM22.4144 18.6614L25.4852 21.9728C25.1382 22.2946 24.7947 22.6201 24.4548 22.9492L21.3134 19.7047C21.6766 19.353 22.0436 19.0052 22.4144 18.6614ZM19.7047 21.3134L22.9492 24.4548C22.6201 24.7947 22.2946 25.1382 21.9728 25.4852L18.6614 22.4144C19.0052 22.0436 19.353 21.6766 19.7047 21.3134ZM17.1417 24.1073L20.5506 27.0695C20.2402 27.4266 19.9337 27.7872 19.631 28.151L16.159 25.263C16.4825 24.8741 16.81 24.4889 17.1417 24.1073ZM14.7328 27.0351L18.2963 29.8094C18.0057 30.1827 17.719 30.5592 17.4363 30.9389L13.8137 28.2422C14.1158 27.8364 14.4222 27.4341 14.7328 27.0351ZM12.4852 30.0887C12.1966 30.5036 11.9125 30.9219 11.6328 31.3434L15.3957 33.8406C15.6574 33.4462 15.9232 33.0549 16.1932 32.6666L12.4852 30.0887ZM10.4057 33.2593L14.2477 35.633C13.9993 36.035 13.7551 36.44 13.5152 36.8477L9.62269 34.5578C9.87912 34.1219 10.1401 33.6891 10.4057 33.2593ZM8.50077 36.538L12.4658 38.7C12.2397 39.1146 12.018 39.5319 11.8007 39.9519L7.78969 37.8765C8.02202 37.4275 8.25907 36.9813 8.50077 36.538ZM6.7769 39.9147L10.8535 41.8581C10.6503 42.2843 10.4517 42.7129 10.2575 43.1441L6.13959 41.2899C6.3472 40.8288 6.55966 40.3704 6.7769 39.9147ZM5.23935 43.3798L9.41571 45.0984C9.23604 45.535 9.06096 45.974 8.89053 46.4153L4.67769 44.7882C4.85996 44.3163 5.0472 43.8468 5.23935 43.3798ZM3.89288 46.9236L8.15674 48.4119C8.00111 48.8578 7.85017 49.3058 7.70397 49.756L3.40863 48.3612C3.56499 47.8797 3.72643 47.4005 3.89288 46.9236ZM2.74172 50.5356L7.08043 51.789C6.94931 52.2429 6.82296 52.6988 6.70145 53.1568L2.33639 51.9985C2.46634 51.5087 2.60147 51.0211 2.74172 50.5356ZM1.78931 54.2052L6.18992 55.2201C6.08368 55.6808 5.98229 56.1433 5.88582 56.6077L1.4641 55.6891C1.56726 55.1925 1.67568 54.6979 1.78931 54.2052ZM1.03823 57.9214L5.48756 58.6952C5.40651 59.1612 5.33038 59.6289 5.25923 60.0983L0.794112 59.4215C0.870178 58.9197 0.951572 58.4196 1.03823 57.9214ZM0.490125 61.673L4.97486 62.2046C4.91922 62.674 4.86854 63.145 4.82287 63.6176L0.327685 63.1831C0.376486 62.6782 0.430652 62.1748 0.490125 61.673ZM0.145568 65.449L4.65243 65.7382C4.62217 66.2098 4.59689 66.6827 4.57665 67.1571L0.0646298 66.9646C0.0862437 66.458 0.113242 65.9528 0.145568 65.449ZM0.0040597 69.2382C0.00135551 69.4918 0 69.7457 0 70C0 70.2543 0.00135558 70.5082 0.00405991 70.7618L4.51993 70.7137C4.5174 70.4761 4.51613 70.2382 4.51613 70C4.51613 69.7618 4.5174 69.5239 4.51993 69.2864L0.0040597 69.2382ZM0.0646302 73.0355L4.57665 72.8429C4.59689 73.3173 4.62217 73.7902 4.65243 74.2618L0.145569 74.551C0.113243 74.0472 0.0862443 73.542 0.0646302 73.0355ZM0.327686 76.8169L4.82287 76.3824C4.86854 76.855 4.91922 77.326 4.97486 77.7954L0.490126 78.327C0.430653 77.8252 0.376487 77.3218 0.327686 76.8169ZM0.794113 80.5785L5.25923 79.9017C5.33038 80.3711 5.40651 80.8388 5.48756 81.3048L1.03824 82.0786C0.951573 81.5804 0.870179 81.0803 0.794113 80.5785ZM1.4641 84.3109L5.88582 83.3923C5.98229 83.8567 6.08368 84.3192 6.18992 84.7799L1.78931 85.7948C1.67568 85.3021 1.56726 84.8075 1.4641 84.3109ZM2.33639 88.0015L6.70145 86.8432C6.82296 87.3012 6.94931 87.7571 7.08043 88.211L2.74172 89.4644C2.60147 88.9789 2.46634 88.4913 2.33639 88.0015ZM3.40863 91.6388L7.70398 90.244C7.85017 90.6942 8.00111 91.1422 8.15674 91.5881L3.89288 93.0764C3.72643 92.5995 3.56499 92.1203 3.40863 91.6388ZM4.67769 95.2118L8.89053 93.5847C9.06096 94.026 9.23604 94.465 9.41571 94.9016L5.23935 96.6202C5.04721 96.1532 4.85996 95.6837 4.67769 95.2118ZM6.13959 98.7101L10.2575 96.8559C10.4517 97.2871 10.6504 97.7158 10.8535 98.1419L6.7769 100.085C6.55966 99.6296 6.3472 99.1712 6.13959 98.7101ZM7.78969 102.123L11.8007 100.048C12.018 100.468 12.2397 100.885 12.4658 101.3L8.50077 103.462C8.25907 103.019 8.02202 102.573 7.78969 102.123ZM9.62269 105.442L13.5152 103.152C13.7551 103.56 13.9993 103.965 14.2477 104.367L10.4057 106.741C10.1401 106.311 9.87912 105.878 9.62269 105.442ZM11.6328 108.657L15.3957 106.159C15.6574 106.554 15.9232 106.945 16.1932 107.333L12.4852 109.911C12.1966 109.496 11.9125 109.078 11.6328 108.657ZM13.8137 111.758L17.4363 109.061C17.719 109.441 18.0057 109.817 18.2963 110.191L14.7328 112.965C14.4222 112.566 14.1158 112.164 13.8137 111.758ZM16.159 114.737L19.631 111.849C19.9337 112.213 20.2402 112.573 20.5506 112.931L17.1417 115.893C16.81 115.511 16.4825 115.126 16.159 114.737ZM18.6614 117.586L21.9728 114.515C22.2946 114.862 22.6201 115.205 22.9492 115.545L19.7047 118.687C19.353 118.323 19.0052 117.956 18.6614 117.586ZM21.3134 120.295L24.4548 117.051C24.7947 117.38 25.1382 117.705 25.4852 118.027L22.4144 121.339C22.0436 120.995 21.6766 120.647 21.3134 120.295ZM24.1073 122.858L27.0695 119.449C27.4266 119.76 27.7872 120.066 28.151 120.369L25.263 123.841C24.8741 123.518 24.4889 123.19 24.1073 122.858ZM27.0351 125.267L29.8094 121.704C30.1827 121.994 30.5592 122.281 30.9389 122.564L28.2422 126.186C27.8364 125.884 27.4341 125.578 27.0351 125.267ZM30.0886 127.515L32.6666 123.807C33.0549 124.077 33.4462 124.343 33.8406 124.604L31.3434 128.367C30.9219 128.088 30.5036 127.803 30.0886 127.515ZM33.2593 129.594L35.633 125.752C36.035 126.001 36.44 126.245 36.8477 126.485L34.5578 130.377C34.1219 130.121 33.6891 129.86 33.2593 129.594ZM36.538 131.499L38.7 127.534C39.1146 127.76 39.5319 127.982 39.9519 128.199L37.8765 132.21C37.4275 131.978 36.9813 131.741 36.538 131.499ZM39.9147 133.223L41.8581 129.146C42.2843 129.35 42.7129 129.548 43.1441 129.742L41.2899 133.86C40.8288 133.653 40.3704 133.44 39.9147 133.223ZM43.3798 134.761L45.0984 130.584C45.535 130.764 45.974 130.939 46.4153 131.109L44.7882 135.322C44.3163 135.14 43.8468 134.953 43.3798 134.761ZM46.9236 136.107L48.4119 131.843C48.8578 131.999 49.3058 132.15 49.756 132.296L48.3612 136.591C47.8797 136.435 47.4005 136.274 46.9236 136.107ZM50.5356 137.258L51.789 132.92C52.2429 133.051 52.6988 133.177 53.1568 133.299L51.9985 137.664C51.5087 137.534 51.0211 137.399 50.5356 137.258ZM54.2052 138.211L55.2201 133.81C55.6808 133.916 56.1433 134.018 56.6077 134.114L55.6891 138.536C55.1925 138.433 54.6979 138.324 54.2052 138.211ZM57.9214 138.962L58.6952 134.512C59.1612 134.593 59.6289 134.67 60.0983 134.741L59.4215 139.206C58.9197 139.13 58.4196 139.048 57.9214 138.962ZM61.673 139.51L62.2046 135.025C62.674 135.081 63.145 135.131 63.6176 135.177L63.1831 139.672C62.6782 139.624 62.1748 139.569 61.673 139.51ZM65.449 139.854L65.7382 135.348C66.2098 135.378 66.6827 135.403 67.1571 135.423L66.9646 139.935C66.458 139.914 65.9528 139.887 65.449 139.854ZM69.2382 139.996L69.2864 135.48C69.5239 135.483 69.7618 135.484 70 135.484C70.2382 135.484 70.4761 135.483 70.7137 135.48L70.7618 139.996C70.5082 139.999 70.2543 140 70 140C69.7457 140 69.4918 139.999 69.2382 139.996ZM73.0355 139.935L72.8429 135.423C73.3173 135.403 73.7902 135.378 74.2618 135.348L74.551 139.854C74.0472 139.887 73.542 139.914 73.0355 139.935ZM76.8169 139.672L76.3824 135.177C76.855 135.131 77.326 135.081 77.7954 135.025L78.327 139.51C77.8252 139.569 77.3218 139.624 76.8169 139.672ZM80.5785 139.206L79.9017 134.741C80.3711 134.67 80.8388 134.593 81.3048 134.512L82.0786 138.962C81.5804 139.048 81.0803 139.13 80.5785 139.206ZM84.3109 138.536L83.3923 134.114C83.8567 134.018 84.3192 133.916 84.7799 133.81L85.7948 138.211C85.3021 138.324 84.8075 138.433 84.3109 138.536ZM88.0015 137.664L86.8432 133.299C87.3012 133.177 87.7571 133.051 88.211 132.92L89.4644 137.258C88.9789 137.399 88.4913 137.534 88.0015 137.664ZM91.6388 136.591C92.1203 136.435 92.5995 136.274 93.0764 136.107L91.5881 131.843C91.1422 131.999 90.6942 132.15 90.244 132.296L91.6388 136.591ZM95.2118 135.322L93.5847 131.109C94.026 130.939 94.465 130.764 94.9016 130.584L96.6202 134.761C96.1532 134.953 95.6837 135.14 95.2118 135.322ZM98.7101 133.86L96.8559 129.742C97.2871 129.548 97.7158 129.35 98.1419 129.146L100.085 133.223C99.6296 133.44 99.1712 133.653 98.7101 133.86ZM102.123 132.21L100.048 128.199C100.468 127.982 100.885 127.76 101.3 127.534L103.462 131.499C103.019 131.741 102.573 131.978 102.123 132.21ZM105.442 130.377L103.152 126.485C103.56 126.245 103.965 126.001 104.367 125.752L106.741 129.594C106.311 129.86 105.878 130.121 105.442 130.377ZM108.657 128.367L106.159 124.604C106.554 124.343 106.945 124.077 107.333 123.807L109.911 127.515C109.496 127.803 109.078 128.088 108.657 128.367ZM111.758 126.186L109.061 122.564C109.441 122.281 109.817 121.994 110.191 121.704L112.965 125.267C112.566 125.578 112.164 125.884 111.758 126.186ZM114.737 123.841L111.849 120.369C112.213 120.066 112.573 119.76 112.931 119.449L115.893 122.858C115.511 123.19 115.126 123.518 114.737 123.841ZM117.586 121.339L114.515 118.027C114.862 117.705 115.205 117.38 115.545 117.051L118.687 120.295C118.323 120.647 117.956 120.995 117.586 121.339ZM120.295 118.687L117.051 115.545C117.38 115.205 117.705 114.862 118.027 114.515L121.339 117.586C120.995 117.956 120.647 118.323 120.295 118.687ZM122.858 115.893L119.449 112.931C119.76 112.573 120.066 112.213 120.369 111.849L123.841 114.737C123.518 115.126 123.19 115.511 122.858 115.893ZM125.267 112.965L121.704 110.191C121.994 109.817 122.281 109.441 122.564 109.061L126.186 111.758C125.884 112.164 125.578 112.566 125.267 112.965ZM127.515 109.911L123.807 107.333C124.077 106.945 124.343 106.554 124.604 106.159L128.367 108.657C128.088 109.078 127.803 109.496 127.515 109.911ZM129.594 106.741L125.752 104.367C126.001 103.965 126.245 103.56 126.485 103.152L130.377 105.442C130.121 105.878 129.86 106.311 129.594 106.741ZM131.499 103.462L127.534 101.3C127.76 100.885 127.982 100.468 128.199 100.048L132.21 102.123C131.978 102.573 131.741 103.019 131.499 103.462ZM133.223 100.085L129.146 98.1419C129.35 97.7158 129.548 97.287 129.742 96.8559L133.86 98.7101C133.653 99.1712 133.44 99.6296 133.223 100.085ZM134.761 96.6202L130.584 94.9016C130.764 94.465 130.939 94.026 131.109 93.5847L135.322 95.2118C135.14 95.6837 134.953 96.1532 134.761 96.6202ZM136.107 93.0764L131.843 91.5881C131.999 91.1422 132.15 90.6942 132.296 90.244L136.591 91.6388C136.435 92.1203 136.274 92.5995 136.107 93.0764ZM137.258 89.4644L132.92 88.211C133.051 87.7571 133.177 87.3012 133.299 86.8432L137.664 88.0015C137.534 88.4913 137.399 88.9789 137.258 89.4644ZM138.211 85.7948L133.81 84.7799C133.916 84.3192 134.018 83.8567 134.114 83.3923L138.536 84.3109C138.433 84.8075 138.324 85.3021 138.211 85.7948ZM138.962 82.0786L134.512 81.3048C134.593 80.8388 134.67 80.3711 134.741 79.9017L139.206 80.5785C139.13 81.0803 139.048 81.5804 138.962 82.0786ZM139.51 78.327L135.025 77.7954C135.081 77.326 135.131 76.855 135.177 76.3824L139.672 76.8169C139.624 77.3218 139.569 77.8252 139.51 78.327ZM139.854 74.551L135.348 74.2618C135.378 73.7902 135.403 73.3173 135.423 72.8429L139.935 73.0354C139.914 73.542 139.887 74.0472 139.854 74.551Z" fill="#766458"/>
<path d="M49.7511 60.7257L51.3227 66.6095L45.8827 61.759L43.5698 62.3768L46.106 71.8719L48.4189 71.2541L46.8546 65.3975L52.2873 70.2208L54.6002 69.603L52.064 60.1079L49.7511 60.7257Z" fill="#766458"/>
<path d="M63.5641 63.4596C63.1251 60.5384 60.616 58.8202 57.847 59.2363C55.092 59.6503 53.1571 62.0363 53.596 64.9575C54.035 67.8787 56.5878 69.6045 59.3429 69.1905C62.0979 68.7765 64.0031 66.3808 63.5641 63.4596ZM56.0188 64.5934C55.7588 62.8629 56.5912 61.6194 58.1695 61.3822C59.7201 61.1492 60.8951 62.091 61.1552 63.8216C61.411 65.5245 60.5689 66.7978 59.0183 67.0308C57.44 67.2679 56.2747 66.2963 56.0188 64.5934Z" fill="#766458"/>
<path d="M63.2945 60.7502L65.896 60.6355L66.2444 68.5378L68.6361 68.4323L68.2876 60.53L70.8891 60.4153L70.8046 58.4992L63.21 58.8341L63.2945 60.7502Z" fill="#766458"/>
<path d="M78.6096 68.8522L81.1394 68.9982L78.1554 58.9817L75.388 58.822L71.2718 68.4289L73.7736 68.5733L74.4607 66.874L78.1226 67.0853L78.6096 68.8522ZM77.614 65.2048L75.196 65.0654L76.6053 61.5427L77.614 65.2048Z" fill="#766458"/>
<path d="M87.001 63.5019C86.8763 64.2617 86.387 64.6496 85.5028 64.5044L84.0384 64.264L84.4331 61.8602L85.8975 62.1006C86.7816 62.2458 87.119 62.7835 87.001 63.5019ZM82.3927 59.5107L80.8006 69.2088L83.163 69.5967L83.764 65.9357L84.3304 66.0286L85.7464 70.0208L88.4127 70.4585L86.8052 66.2505C88.3698 66.0533 89.2212 65.0155 89.4207 63.7998C89.6974 62.1144 88.7338 60.5516 86.3577 60.1616L82.3927 59.5107Z" fill="#766458"/>
<path d="M92.3823 68.3174L91.5335 71.4525L93.8443 72.0781L94.6931 68.943L99.6965 63.4807L97.1019 62.7783L94.2019 66.2573L93.4398 61.7867L90.8182 61.077L92.3823 68.3174Z" fill="#766458"/>
<path d="M48.3535 79.841L49.0266 77.4707L50.2791 77.8264C51.1949 78.0864 51.4554 78.6552 51.2489 79.3824C51.0424 80.1097 50.5218 80.4567 49.606 80.1967L48.3535 79.841ZM53.5923 80.0478C54.0856 78.3105 53.2983 76.6753 50.9819 76.0175L47.2514 74.9583L44.5668 84.4125L46.8698 85.0664L47.8335 81.6726L49.261 82.078C51.6717 82.7625 53.1487 81.6101 53.5923 80.0478Z" fill="#766458"/>
<path d="M53.9303 82.7235C53.444 85.3956 54.9527 87.0362 57.1978 87.4448C59.4292 87.8508 61.543 86.8694 62.0293 84.1973L63.0795 78.426L60.7241 77.9974L59.6714 83.7824C59.4634 84.9257 58.7508 85.479 57.6352 85.276C56.5195 85.073 56.0751 84.3091 56.2831 83.1659L57.3358 77.3809L54.9805 76.9523L53.9303 82.7235Z" fill="#766458"/>
<path d="M68.3808 85.5287C68.3249 86.2265 67.8353 86.5524 67.0398 86.4886L65.2815 86.3477L65.4549 84.1846L67.1853 84.3233C67.9808 84.3871 68.4368 84.831 68.3808 85.5287ZM68.4535 81.6441C68.3998 82.314 67.9392 82.6282 67.1577 82.5655L65.5947 82.4402L65.7592 80.3888L67.3222 80.5141C68.1037 80.5768 68.5072 80.9743 68.4535 81.6441ZM70.7693 86.0433C70.8588 84.9268 70.1998 83.8628 69.0745 83.5338C70.0458 83.3308 70.819 82.6203 70.9141 81.4341C71.0383 79.8851 69.9316 78.7991 67.936 78.6392L63.5261 78.2856L62.7407 88.0822L67.3041 88.448C69.3695 88.6136 70.6396 87.6621 70.7693 86.0433Z" fill="#766458"/>
<path d="M72.1589 78.7384L72.2572 88.5659L77.7869 88.5106L77.7685 86.6627L74.6326 86.694L74.5528 78.7144L72.1589 78.7384Z" fill="#766458"/>
<path d="M79.8801 88.2778L82.2658 88.0785L81.4478 78.2846L79.0621 78.4839L79.8801 88.2778Z" fill="#766458"/>
<path d="M85.1291 82.7969C85.6265 85.6945 87.9892 87.377 90.8454 86.8867C93.1497 86.4912 94.668 84.9095 94.8599 82.7175L92.2658 83.1627C92.0078 84.0593 91.3476 84.5988 90.4507 84.7528C89.0019 85.0015 87.8237 84.0957 87.53 82.3848C87.2363 80.6738 88.045 79.427 89.4938 79.1783C90.3907 79.0243 91.193 79.3127 91.7353 80.072L94.3294 79.6267C93.4174 77.6241 91.4562 76.6255 89.1519 77.021C86.2957 77.5113 84.6317 79.8993 85.1291 82.7969Z" fill="#766458"/>
<path d="M15.5602 53.5462L17.0111 53.9121L17.6011 51.5722L18.9499 51.9123L18.3598 54.2522L19.9334 54.649L20.6007 52.0026L22.0006 52.3556L20.8926 56.7493L13.7197 54.9404L14.8277 50.5468L16.2275 50.8998L15.5602 53.5462Z" fill="#766458"/>
<path d="M20.5571 37.1811L27.1757 40.4851L26.3709 42.0973L22.4016 40.1159L25.632 43.5776L24.9824 44.8787L20.2601 44.3821L24.2388 46.3683L23.434 47.9805L16.8154 44.6765L17.7662 42.772L23.2754 43.2021L19.6111 39.0762L20.5571 37.1811Z" fill="#766458"/>
<path d="M24.9976 31.0309L30.8501 35.5552L29.7481 36.9809L23.8955 32.4565L24.9976 31.0309Z" fill="#766458"/>
<path d="M34.6298 29.3723L36.3417 27.7471L37.2993 28.7559L34.2807 31.6217L29.1875 26.2568L30.4943 25.0162L34.6298 29.3723Z" fill="#766458"/>
<path d="M41.9615 16.4229L42.4856 21.9737L43.8075 24.0302L42.2917 25.0045L40.9698 22.948L36.1377 20.1665L37.8573 19.0611L40.7381 20.8922L40.2595 17.5169L41.9615 16.4229Z" fill="#766458"/>
<path d="M58.6711 17.8502L56.4877 15.527L56.0692 15.6342L56.7622 18.3393L55.0167 18.7866L53.1807 11.6206L56.1103 10.87C56.6752 10.7253 57.1802 10.701 57.6255 10.7972C58.0776 10.8917 58.4467 11.0872 58.733 11.3837C59.0176 11.6734 59.2139 12.0292 59.322 12.4511C59.444 12.9275 59.4169 13.3877 59.2406 13.8318C59.0711 14.274 58.7444 14.6406 58.2605 14.9314L60.6412 17.3455L58.6711 17.8502ZM55.7527 14.3991L56.8347 14.1218C57.1546 14.0399 57.3727 13.9006 57.4891 13.704C57.6123 13.5056 57.6373 13.2635 57.5641 12.9777C57.4944 12.7055 57.3578 12.512 57.1544 12.3974C56.9577 12.2809 56.6995 12.2637 56.3796 12.3457L55.2976 12.6229L55.7527 14.3991Z" fill="#766458"/>
<path d="M66.2299 16.7369C65.9149 16.7633 65.6482 16.694 65.4299 16.529C65.2181 16.3564 65.1007 16.1336 65.0778 15.8606C65.0544 15.5806 65.1327 15.3379 65.3129 15.1324C65.5001 14.9264 65.7512 14.8102 66.0662 14.7838C66.3742 14.758 66.6342 14.8314 66.846 15.0039C67.0649 15.1759 67.186 15.402 67.2095 15.682C67.2324 15.955 67.1502 16.1945 66.9631 16.4005C66.7823 16.599 66.5379 16.7111 66.2299 16.7369Z" fill="#766458"/>
<path d="M88.8907 11.856L85.3272 18.6193L83.2033 18.1221L83.1637 13.1129L80.864 17.5746L78.7401 17.0775L78.5996 9.44727L80.4773 9.88674L80.2864 15.3723L82.7961 10.4295L84.725 10.881L84.7291 16.4122L87.0028 11.4141L88.8907 11.856Z" fill="#766458"/>
<path d="M95.4911 21.6598L93.0432 20.3831L92.0465 21.337L90.3741 20.4647L96.1681 15.1435L98.0181 16.1083L96.9704 23.905L95.2793 23.023L95.4911 21.6598ZM95.7233 20.2121L96.1628 17.3869L94.1069 19.3691L95.7233 20.2121Z" fill="#766458"/>
<path d="M103.413 28.7935L104.025 25.6645L103.694 25.3873L101.902 27.529L100.52 26.3727L105.267 20.6992L107.586 22.6399C108.033 23.0141 108.348 23.41 108.53 23.8278C108.717 24.25 108.773 24.6639 108.7 25.0694C108.631 25.4695 108.456 25.8366 108.177 26.1706C107.861 26.5478 107.472 26.7944 107.008 26.9104C106.55 27.0309 106.062 26.9796 105.543 26.7564L104.973 30.0986L103.413 28.7935ZM104.512 24.4094L105.368 25.1262C105.622 25.3381 105.862 25.4339 106.09 25.4136C106.323 25.3979 106.534 25.2769 106.723 25.0506C106.904 24.8351 106.981 24.6113 106.955 24.3792C106.935 24.1516 106.798 23.9318 106.545 23.7199L105.688 23.0032L104.512 24.4094Z" fill="#766458"/>
<path d="M110.612 36.48L111.86 33.5461L111.593 33.2062L109.396 34.9294L108.284 33.5115L114.104 28.9465L115.971 31.3263C116.331 31.7851 116.556 32.2377 116.647 32.684C116.743 33.1359 116.712 33.5525 116.556 33.9339C116.405 34.311 116.159 34.6339 115.816 34.9027C115.429 35.2062 114.997 35.3666 114.519 35.3839C114.046 35.4068 113.579 35.2552 113.118 34.9293L111.867 38.0803L110.612 36.48ZM112.596 32.4193L113.286 33.2983C113.489 33.5581 113.705 33.7017 113.931 33.7291C114.163 33.7621 114.394 33.6875 114.626 33.5055C114.848 33.332 114.97 33.1292 114.993 32.8968C115.02 32.6699 114.932 32.4266 114.728 32.1668L114.039 31.2878L112.596 32.4193Z" fill="#766458"/>
<path d="M120.495 41.0423L119.161 41.72L120.253 43.8715L119.013 44.5014L117.92 42.3499L116.474 43.0848L117.71 45.5181L116.422 46.1719L114.37 42.132L120.966 38.782L123.018 42.8219L121.731 43.4757L120.495 41.0423Z" fill="#766458"/>
<path d="M119.926 56.8157L119.449 55.0781L123.051 50.9639L118.651 52.1718L118.174 50.4342L125.308 48.4758L125.785 50.2135L122.162 54.3332L126.582 53.1197L127.06 54.8574L119.926 56.8157Z" fill="#766458"/>
<path d="M13.5359 71.1777C14.2658 71.1454 14.922 71.2746 15.5044 71.5653C16.0939 71.8556 16.5589 72.2746 16.8996 72.8221C17.2476 73.3763 17.4374 74.0113 17.4691 74.7271C17.5079 75.6044 17.3095 76.3656 16.8739 77.0107C16.4383 77.6558 15.8251 78.1014 15.0344 78.3473L14.9468 76.3681C15.2491 76.2071 15.4749 75.9862 15.6242 75.7053C15.7739 75.4315 15.8411 75.1226 15.8259 74.7787C15.8013 74.2243 15.5885 73.7836 15.1873 73.4568C14.786 73.13 14.2626 72.9809 13.6169 73.0094C12.9712 73.038 12.463 73.2328 12.0922 73.5937C11.7214 73.9547 11.5483 74.4124 11.5728 74.9668C11.588 75.3107 11.6822 75.6124 11.8554 75.872C12.029 76.1386 12.2734 76.3387 12.5887 76.4724L12.6763 78.4516C11.8669 78.2764 11.2167 77.8868 10.7259 77.2826C10.2421 76.6782 9.9808 75.9373 9.942 75.0601C9.91034 74.3442 10.0398 73.695 10.3305 73.1126C10.6285 72.5369 11.0548 72.0785 11.6093 71.7375C12.1638 71.3966 12.806 71.21 13.5359 71.1777Z" fill="#766458"/>
<path d="M18.3125 81.9562L13.9831 82.8749C13.5502 82.9667 13.2395 83.144 13.051 83.4066C12.8626 83.6692 12.8121 84.0067 12.8996 84.419C12.9871 84.8313 13.171 85.1226 13.4513 85.293C13.7316 85.4633 14.0882 85.5025 14.5212 85.4106L18.8506 84.492L19.2246 86.2547L14.9055 87.1711C14.2596 87.3082 13.6841 87.2867 13.179 87.1066C12.674 86.9265 12.2586 86.6269 11.9326 86.2077C11.6081 85.7954 11.3854 85.304 11.2643 84.7337C11.1433 84.1633 11.1446 83.628 11.2683 83.1278C11.4003 82.6329 11.6619 82.2076 12.0532 81.8517C12.4513 81.4943 12.9734 81.247 13.6194 81.11L17.9385 80.1935L18.3125 81.9562Z" fill="#766458"/>
<path d="M23.0251 96.0354L16.1682 98.811L15.4921 97.1407L19.6043 95.4761L14.8713 95.6072L14.3257 94.2592L17.823 91.0474L13.701 92.7159L13.0249 91.0456L19.8818 88.27L20.6805 90.2431L16.7123 94.0889L22.2304 94.0721L23.0251 96.0354Z" fill="#766458"/>
<path d="M23.3499 103.187C23.5002 103.599 23.5016 104.004 23.354 104.404C23.2124 104.799 22.96 105.111 22.597 105.339C22.0733 105.667 21.541 105.744 21.0001 105.569C20.4689 105.396 19.998 104.983 19.5874 104.328L17.7566 101.409L24.0234 97.4784L25.7927 100.299C26.1921 100.936 26.3579 101.525 26.2903 102.065C26.2263 102.611 25.9444 103.04 25.4445 103.354C25.0755 103.585 24.7074 103.679 24.3402 103.636C23.9768 103.598 23.6466 103.449 23.3499 103.187ZM22.4455 100.595L23.0726 101.595C23.2294 101.845 23.4024 102.002 23.5916 102.065C23.7905 102.131 23.9971 102.097 24.2114 101.963C24.4256 101.828 24.5464 101.657 24.5736 101.45C24.6046 101.248 24.5417 101.022 24.3849 100.772L23.7578 99.772L22.4455 100.595ZM20.6514 103.288C20.8119 103.543 20.9916 103.704 21.1905 103.77C21.3991 103.839 21.6135 103.804 21.8337 103.665C22.0539 103.527 22.1799 103.345 22.2115 103.118C22.2469 102.896 22.1844 102.658 22.0239 102.402L21.3296 101.295L19.9459 102.163L20.6514 103.288Z" fill="#766458"/>
<path d="M28.8277 106.731L27.692 107.705L29.2633 109.537L28.2076 110.442L26.6363 108.611L25.4047 109.668L27.1818 111.739L26.0862 112.679L23.1357 109.24L28.75 104.423L31.7005 107.862L30.6048 108.802L28.8277 106.731Z" fill="#766458"/>
<path d="M31.6105 117.791L32.2726 114.672L31.9457 114.389L30.1196 116.502L28.7564 115.324L33.5938 109.727L35.8818 111.705C36.3229 112.086 36.631 112.487 36.8061 112.908C36.9864 113.333 37.0365 113.747 36.9564 114.152C36.8808 114.551 36.7006 114.915 36.4158 115.244C36.0942 115.616 35.7008 115.857 35.2355 115.965C34.7756 116.079 34.2882 116.019 33.7733 115.788L33.1491 119.12L31.6105 117.791ZM32.7795 113.425L33.6246 114.155C33.8744 114.371 34.1132 114.471 34.3411 114.454C34.5743 114.442 34.7874 114.324 34.9804 114.101C35.1641 113.889 35.245 113.666 35.2231 113.434C35.2066 113.206 35.0734 112.984 34.8236 112.768L33.9785 112.037L32.7795 113.425Z" fill="#766458"/>
<path d="M38.4596 121.017L40.448 122.289L39.6983 123.461L36.1921 121.218L40.1787 114.987L41.6966 115.958L38.4596 121.017Z" fill="#766458"/>
<path d="M47.5303 125.818L45.0096 124.692L44.0725 125.704L42.3504 124.935L47.8119 119.273L49.7168 120.124L49.1427 127.97L47.4013 127.192L47.5303 125.818ZM47.6744 124.359L47.9422 121.512L46.01 123.615L47.6744 124.359Z" fill="#766458"/>
<path d="M58.6413 130.543L56.8954 130.098L55.1042 124.931L53.9753 129.352L52.2294 128.906L54.0596 121.739L55.8055 122.185L57.5915 127.372L58.7256 122.93L60.4715 123.376L58.6413 130.543Z" fill="#766458"/>
<path d="M65.5233 123.874C66.3006 123.936 66.9676 124.144 67.5242 124.499C68.0808 124.853 68.4942 125.323 68.7645 125.909C69.0424 126.488 69.1523 127.141 69.094 127.87C69.0364 128.591 68.8241 129.219 68.4572 129.753C68.0972 130.288 67.6108 130.686 66.998 130.948C66.3921 131.209 65.704 131.309 64.9337 131.248L62.1711 131.027L62.7607 123.653L65.5233 123.874ZM64.9425 129.684C65.6218 129.738 66.1653 129.595 66.5731 129.254C66.9809 128.913 67.212 128.403 67.2663 127.724C67.3206 127.044 67.1738 126.501 66.8259 126.092C66.478 125.684 65.9644 125.452 65.2852 125.398L64.4343 125.33L64.0917 129.616L64.9425 129.684Z" fill="#766458"/>
<path d="M76.444 127.388C76.3164 126.669 76.3585 126.001 76.5704 125.386C76.7811 124.763 77.1355 124.248 77.6337 123.838C78.1375 123.421 78.7422 123.149 79.4478 123.024C80.3124 122.871 81.093 122.968 81.7896 123.315C82.4862 123.662 83.0082 124.212 83.3556 124.964L81.405 125.31C81.2057 125.031 80.9571 124.836 80.6591 124.725C80.368 124.612 80.053 124.586 79.7141 124.646C79.1676 124.743 78.7587 125.012 78.4872 125.453C78.2158 125.893 78.1365 126.432 78.2493 127.068C78.3622 127.704 78.6218 128.183 79.0282 128.503C79.4347 128.823 79.9111 128.935 80.4575 128.838C80.7965 128.778 81.0833 128.645 81.3179 128.439C81.5595 128.233 81.7259 127.964 81.8172 127.634L83.7678 127.288C83.7001 128.113 83.399 128.809 82.8643 129.375C82.3284 129.933 81.6282 130.289 80.7635 130.443C80.058 130.568 79.3975 130.524 78.782 130.313C78.1722 130.093 77.6619 129.73 77.2513 129.225C76.8407 128.72 76.5715 128.108 76.444 127.388Z" fill="#766458"/>
<path d="M90.6473 127.691C89.9943 127.93 89.3384 127.999 88.6798 127.896C88.0277 127.79 87.441 127.526 86.9197 127.104C86.4025 126.672 86.0195 126.117 85.7707 125.437C85.5219 124.758 85.4567 124.09 85.5752 123.433C85.7004 122.773 85.9778 122.193 86.4076 121.692C86.844 121.188 87.3887 120.816 88.0418 120.577C88.6949 120.338 89.3474 120.271 89.9995 120.376C90.6581 120.479 91.2415 120.744 91.7497 121.171C92.2644 121.596 92.6462 122.149 92.895 122.828C93.1439 123.508 93.2102 124.179 93.0941 124.843C92.9756 125.499 92.7014 126.079 92.2716 126.58C91.8418 127.082 91.3004 127.452 90.6473 127.691ZM90.082 126.148C90.6361 125.945 91.0105 125.598 91.205 125.108C91.4061 124.615 91.3956 124.066 91.1733 123.459C90.9486 122.845 90.6016 122.419 90.1323 122.179C89.6672 121.93 89.1576 121.908 88.6035 122.111C88.0428 122.316 87.6606 122.662 87.4571 123.148C87.2601 123.631 87.2752 124.183 87.5023 124.803C87.727 125.417 88.0719 125.848 88.537 126.096C89.0063 126.336 89.5213 126.353 90.082 126.148Z" fill="#766458"/>
<path d="M95.1378 117.399L97.3418 121.237C97.5622 121.621 97.8263 121.862 98.1341 121.961C98.4419 122.059 98.7786 122.004 99.1441 121.794C99.5096 121.584 99.7304 121.319 99.8064 121C99.8824 120.681 99.8102 120.33 99.5898 119.946L97.3858 116.108L98.9484 115.211L101.147 119.039C101.476 119.612 101.632 120.166 101.616 120.702C101.6 121.238 101.442 121.726 101.143 122.165C100.851 122.6 100.451 122.963 99.9458 123.253C99.4402 123.544 98.9303 123.707 98.4163 123.743C97.9049 123.769 97.4197 123.651 96.9608 123.388C96.4984 123.119 96.1028 122.698 95.7739 122.125L93.5752 118.296L95.1378 117.399Z" fill="#766458"/>
<path d="M110.491 115.437L109.097 116.579L103.875 114.958L106.766 118.489L105.371 119.63L100.685 113.907L102.079 112.765L107.315 114.402L104.41 110.856L105.804 109.714L110.491 115.437Z" fill="#766458"/>
<path d="M110.926 103.996L112.007 104.953L110.707 106.42L115.163 110.368L113.968 111.717L109.512 107.769L108.212 109.236L107.132 108.278L110.926 103.996Z" fill="#766458"/>
<path d="M115.788 96.6631L118.572 101.494L120.629 102.815L119.655 104.331L117.598 103.01L112.047 102.489L113.151 100.769L116.533 101.237L114.694 98.3656L115.788 96.6631Z" fill="#766458"/>
<path d="M122.657 95.3601L124.9 97.7016L124.413 98.7419L121.933 96.9062L122.657 95.3601Z" fill="#766458"/>
<path d="M128.811 80.596L128.427 82.3567L123.328 84.3306L127.786 85.3015L127.403 87.0621L120.175 85.4882L120.558 83.7275L125.678 81.7581L121.199 80.7827L121.583 79.0221L128.811 80.596Z" fill="#766458"/>
<path d="M125.451 77.1948C124.722 77.1625 124.079 76.9759 123.525 76.6349C122.963 76.2936 122.537 75.8353 122.246 75.2598C121.948 74.6771 121.815 74.0278 121.847 73.3119C121.886 72.4346 122.151 71.6939 122.641 71.0898C123.132 70.4857 123.782 70.096 124.592 69.9209L124.504 71.9C124.189 72.0337 123.944 72.2339 123.771 72.5004C123.598 72.76 123.504 73.0617 123.488 73.4056C123.464 73.9601 123.637 74.4178 124.008 74.7787C124.379 75.1397 124.887 75.3345 125.532 75.363C126.178 75.3916 126.702 75.2424 127.103 74.9156C127.504 74.5888 127.717 74.1482 127.741 73.5937C127.757 73.2498 127.689 72.941 127.54 72.6671C127.39 72.3863 127.165 72.1653 126.862 72.0043L126.95 70.0252C127.741 70.2711 128.354 70.7166 128.789 71.3617C129.218 72.0065 129.413 72.7676 129.374 73.6448C129.342 74.3607 129.156 74.9959 128.815 75.5504C128.467 76.0976 128.002 76.5165 127.42 76.8072C126.837 77.0979 126.181 77.2271 125.451 77.1948Z" fill="#766458"/>
<circle cx="12.7964" cy="62.4733" r="1.50538" fill="#766458"/>
<circle cx="125.699" cy="62.4733" r="1.50538" fill="#766458"/>
<path d="M28.7611 64.546L33.9913 64.6502L33.9742 65.5081L30.3921 65.4367L33.9424 67.1035L33.9305 67.698L30.3165 69.2295L33.8986 69.3009L33.8815 70.1588L28.6514 70.0546L28.6698 69.1289L32.8077 67.3745L28.7428 65.4641L28.7611 64.546Z" fill="#766458"/>
<path d="M31.1551 58.0182L36.6014 61.7573L36.4194 62.6267L34.6177 61.3883L30.29 62.1512L30.4859 61.2156L33.8191 60.7213L30.9731 58.8876L31.1551 58.0182Z" fill="#766458"/>
<path d="M35.1799 51.7239C34.7318 51.4764 34.3869 51.1513 34.1451 50.7483C33.9058 50.341 33.7855 49.9048 33.7843 49.4399C33.7812 48.9681 33.8973 48.5191 34.1326 48.0931C34.4018 47.6055 34.7616 47.2395 35.2118 46.9952C35.66 46.744 36.1511 46.6541 36.685 46.7253L36.1864 47.628C35.8794 47.6132 35.6083 47.6785 35.3733 47.8238C35.1382 47.9692 34.9443 48.1802 34.7915 48.4569C34.6241 48.76 34.543 49.0678 34.5481 49.3802C34.5533 49.6926 34.6457 49.9872 34.8253 50.2641C35.0073 50.5366 35.2674 50.7662 35.6056 50.953C35.9438 51.1398 36.2767 51.2376 36.6043 51.2465C36.9342 51.2511 37.235 51.1735 37.5066 51.014C37.7737 50.852 37.991 50.6194 38.1584 50.3163C38.3112 50.0396 38.3865 49.7631 38.3844 49.4867C38.3822 49.2104 38.2931 48.9462 38.117 48.6942L38.6155 47.7915C38.9602 48.2054 39.1456 48.6689 39.1717 49.1821C39.2003 49.6908 39.08 50.189 38.8107 50.6766C38.573 51.107 38.257 51.4456 37.8629 51.6922C37.4643 51.9364 37.0289 52.0657 36.5567 52.0801C36.0869 52.09 35.6279 51.9713 35.1799 51.7239Z" fill="#766458"/>
<path d="M42.554 45.3828C42.3046 45.6845 42.0115 45.9011 41.6747 46.0328C41.334 46.1613 40.9824 46.1928 40.6198 46.1274C40.2533 46.0587 39.9057 45.8885 39.577 45.6167C39.2522 45.3481 39.0233 45.0383 38.8902 44.6873C38.7572 44.3364 38.7253 43.9812 38.7947 43.6218C38.864 43.2624 39.025 42.93 39.2776 42.6245C39.5302 42.319 39.8265 42.0985 40.1665 41.9629C40.5065 41.8273 40.8614 41.792 41.2311 41.8567C41.6007 41.9215 41.948 42.0882 42.2728 42.3568C42.5976 42.6255 42.8249 42.9372 42.9548 43.292C43.0846 43.6468 43.1136 44.0094 43.0418 44.3797C42.9692 44.743 42.8067 45.0774 42.554 45.3828ZM41.9798 44.908C42.1205 44.7378 42.211 44.5457 42.2513 44.3316C42.2948 44.1136 42.2738 43.8911 42.1881 43.664C42.1024 43.4369 41.9436 43.2274 41.7116 43.0355C41.4796 42.8436 41.2475 42.7266 41.0154 42.6844C40.7794 42.6391 40.5601 42.6563 40.3574 42.7361C40.1547 42.8158 39.9829 42.9408 39.8422 43.111C39.7015 43.2811 39.611 43.4732 39.5707 43.6873C39.5336 43.8976 39.5611 44.1124 39.6531 44.3317C39.7413 44.5479 39.9014 44.752 40.1334 44.9438C40.4776 45.2284 40.8164 45.3621 41.1497 45.3448C41.4825 45.3204 41.7591 45.1748 41.9798 44.908Z" fill="#766458"/>
<path d="M46.9787 35.482C47.2342 35.2792 47.5042 35.1513 47.7889 35.0982C48.0775 35.0421 48.3614 35.0729 48.6408 35.1907C48.924 35.3054 49.1827 35.5101 49.4167 35.8049L50.9378 37.7207L50.2717 38.2495L48.8302 36.4339C48.5993 36.1431 48.3503 35.9788 48.0832 35.941C47.813 35.8992 47.5521 35.9782 47.3006 36.1779C47.0491 36.3776 46.9111 36.6153 46.8865 36.8911C46.8628 37.1598 46.9664 37.4396 47.1973 37.7304L48.6388 39.546L47.9727 40.0749L46.5312 38.2593C46.3003 37.9684 46.0513 37.8041 45.7842 37.7663C45.514 37.7246 45.2531 37.8035 45.0016 38.0032C44.7501 38.2029 44.6121 38.4407 44.5876 38.7164C44.5638 38.9851 44.6674 39.2649 44.8983 39.5557L46.3398 41.3713L45.6678 41.9049L43.089 38.6568L43.761 38.1233L44.0559 38.4946C44.0598 38.2737 44.1166 38.0587 44.2263 37.8499C44.336 37.6411 44.4872 37.4602 44.6797 37.3073C44.9391 37.1014 45.2147 36.9723 45.5064 36.9201C45.7981 36.8679 46.0817 36.9022 46.3571 37.0232C46.2993 36.7487 46.3293 36.4717 46.4471 36.1924C46.5618 35.9091 46.739 35.6723 46.9787 35.482Z" fill="#766458"/>
<path d="M55.5289 30.8923C55.8251 30.7556 56.1177 30.6951 56.4069 30.7109C56.7006 30.7245 56.9692 30.8216 57.2128 31.0021C57.4609 31.1804 57.6638 31.4405 57.8216 31.7822L58.8468 34.0032L58.0746 34.3597L57.103 32.2548C56.9473 31.9177 56.7442 31.6992 56.4936 31.5993C56.241 31.4949 55.9688 31.5099 55.6772 31.6445C55.3857 31.7791 55.1954 31.9775 55.1064 32.2397C55.0198 32.4951 55.0543 32.7915 55.21 33.1286L56.1816 35.2335L55.4093 35.5899L54.4377 33.4851C54.2821 33.1479 54.079 32.9294 53.8284 32.8296C53.5757 32.7251 53.3036 32.7402 53.012 32.8748C52.7204 33.0094 52.5301 33.2078 52.4411 33.4699C52.3546 33.7254 52.3891 34.0217 52.5447 34.3589L53.5163 36.4637L52.7372 36.8234L50.9991 33.0578L51.7782 32.6982L51.9769 33.1288C52.033 32.915 52.139 32.7196 52.2949 32.5426C52.4509 32.3656 52.6405 32.2256 52.8637 32.1225C53.1644 31.9837 53.4626 31.9234 53.7584 31.9416C54.0542 31.9599 54.3216 32.0603 54.5607 32.2428C54.5694 31.9625 54.664 31.7005 54.8445 31.4569C55.0229 31.2088 55.251 31.0205 55.5289 30.8923Z" fill="#766458"/>
<path d="M60.1991 28.9568C60.0485 28.9958 59.909 28.9775 59.7806 28.9019C59.6521 28.8263 59.5684 28.7132 59.5294 28.5627C59.4904 28.4121 59.5087 28.2726 59.5843 28.1441C59.6598 28.0157 59.7729 27.932 59.9235 27.893C60.0692 27.8552 60.2063 27.8741 60.3347 27.9497C60.4632 28.0253 60.5469 28.1384 60.5859 28.2889C60.6249 28.4395 60.6067 28.579 60.5311 28.7075C60.4555 28.8359 60.3448 28.919 60.1991 28.9568ZM60.745 29.3829L61.7851 33.3977L60.9545 33.6129L59.9143 29.5981L60.745 29.3829Z" fill="#766458"/>
<path d="M66.6681 32.6292C66.344 32.6656 66.0458 32.641 65.7736 32.5555C65.5059 32.4644 65.286 32.3275 65.114 32.1448C64.9414 31.9572 64.8362 31.7392 64.7982 31.491L65.6808 31.3919C65.7154 31.5648 65.8142 31.7026 65.9772 31.8055C66.1447 31.9028 66.3431 31.9386 66.5725 31.9128C66.8118 31.886 66.9913 31.8204 67.1109 31.716C67.2349 31.6062 67.2887 31.4789 67.2725 31.3343C67.2551 31.1797 67.1675 31.0735 67.0095 31.0155C66.8565 30.9569 66.6153 30.9007 66.2861 30.8467C65.9674 30.7967 65.7064 30.7427 65.5029 30.6848C65.2995 30.6268 65.1162 30.5237 64.9531 30.3754C64.795 30.2265 64.7009 30.0174 64.6706 29.7481C64.646 29.5287 64.6884 29.322 64.7979 29.1279C64.9068 28.9288 65.0751 28.7635 65.3027 28.6319C65.5353 28.4998 65.8086 28.416 66.1228 28.3808C66.5915 28.3281 66.9814 28.4055 67.2926 28.6129C67.6081 28.8148 67.7988 29.1191 67.8647 29.5258L67.012 29.6215C66.9763 29.4387 66.885 29.3 66.738 29.2054C66.5911 29.1108 66.4029 29.0764 66.1735 29.1022C65.9491 29.1274 65.7818 29.1891 65.6717 29.2873C65.5615 29.3855 65.5143 29.5044 65.53 29.6441C65.5423 29.7538 65.5925 29.8415 65.6807 29.9074C65.7689 29.9732 65.8729 30.0221 65.9926 30.0541C66.1118 30.0811 66.2872 30.1145 66.5189 30.1541C66.827 30.2003 67.0806 30.2551 67.2796 30.3186C67.4831 30.3765 67.6635 30.4774 67.8211 30.6213C67.9786 30.7652 68.0747 30.969 68.1094 31.2328C68.1357 31.4671 68.0944 31.6838 67.9855 31.8829C67.8766 32.082 67.7083 32.2473 67.4807 32.3789C67.2581 32.5099 66.9872 32.5934 66.6681 32.6292Z" fill="#766458"/>
<path d="M71.7606 27.6973C71.6051 27.6927 71.4763 27.6361 71.3741 27.5277C71.2719 27.4192 71.2231 27.2872 71.2278 27.1317C71.2324 26.9763 71.2889 26.8474 71.3974 26.7452C71.5059 26.643 71.6379 26.5943 71.7934 26.5989C71.9438 26.6034 72.0702 26.6599 72.1723 26.7683C72.2745 26.8768 72.3233 27.0088 72.3187 27.1643C72.314 27.3198 72.2575 27.4486 72.149 27.5508C72.0405 27.653 71.9111 27.7018 71.7606 27.6973ZM72.1655 28.2591L72.0418 32.4046L71.1842 32.379L71.3078 28.2335L72.1655 28.2591Z" fill="#766458"/>
<path d="M77.2165 33.0822C76.8314 33.0126 76.4989 32.8632 76.2191 32.6341C75.9401 32.4001 75.7404 32.109 75.6198 31.7608C75.5001 31.4077 75.4782 31.0213 75.5541 30.6015C75.6291 30.1868 75.787 29.8354 76.0278 29.5475C76.2685 29.2596 76.5625 29.0578 76.9098 28.9422C77.2571 28.8265 77.6258 28.804 78.0159 28.8745C78.4059 28.9451 78.7434 29.0953 79.0281 29.3253C79.3129 29.5553 79.5176 29.8473 79.6422 30.2013C79.7669 30.5553 79.7917 30.9397 79.7166 31.3545C79.6416 31.7693 79.4813 32.1201 79.2356 32.4072C78.9899 32.6942 78.688 32.8971 78.33 33.0159C77.9777 33.1307 77.6066 33.1528 77.2165 33.0822ZM77.3491 32.349C77.5664 32.3883 77.7782 32.373 77.9846 32.3033C78.196 32.2344 78.3796 32.107 78.5356 31.9211C78.6917 31.7351 78.7965 31.494 78.8501 31.1977C78.9037 30.9015 78.892 30.6418 78.815 30.4188C78.739 30.1909 78.6165 30.0081 78.4476 29.8705C78.2787 29.7329 78.0857 29.6444 77.8684 29.6051C77.6511 29.5658 77.4393 29.581 77.2329 29.6508C77.0315 29.7214 76.8577 29.8506 76.7115 30.0384C76.5663 30.2212 76.4669 30.4607 76.4133 30.757C76.3338 31.1964 76.3832 31.5572 76.5617 31.8394C76.7459 32.1175 77.0084 32.2873 77.3491 32.349Z" fill="#766458"/>
<path d="M85.2499 30.9581C85.5554 31.0724 85.8043 31.2378 85.9965 31.4543C86.1935 31.6726 86.3135 31.9318 86.3566 32.2319C86.3998 32.5319 86.3554 32.8582 86.2236 33.2107L85.3667 35.502L84.57 35.204L85.3821 33.0326C85.5122 32.6848 85.5246 32.3868 85.4192 32.1384C85.3156 31.8854 85.1134 31.7026 84.8126 31.5901C84.5118 31.4776 84.237 31.482 83.9881 31.6032C83.7456 31.7214 83.5594 31.9545 83.4293 32.3023L82.6172 34.4737L81.8135 34.1731L83.2663 30.2885L84.07 30.5891L83.9039 31.0333C84.0953 30.9227 84.3087 30.8605 84.5442 30.8468C84.7844 30.8349 85.0196 30.872 85.2499 30.9581Z" fill="#766458"/>
<path d="M94.9308 35.9785L94.0032 37.2021L95.4427 38.2935L95.0198 38.8513L93.5803 37.76L92.6117 39.0375L94.2312 40.2653L93.8083 40.8231L91.505 39.077L94.6699 34.9023L96.9732 36.6485L96.5503 37.2063L94.9308 35.9785Z" fill="#766458"/>
<path d="M98.8359 42.7665L98.2502 45.1876L97.5774 44.4876L97.9716 42.8664L96.3726 43.2339L95.7519 42.5881L98.151 42.1407L98.7422 39.7144L99.415 40.4144L99.0208 42.0356L100.62 41.6681L101.24 42.3139L98.8359 42.7665Z" fill="#766458"/>
<path d="M103.054 45.7151C103.294 45.7271 103.538 45.7997 103.788 45.9327C104.037 46.0658 104.251 46.2626 104.43 46.5233C104.635 46.8211 104.746 47.1432 104.765 47.4896C104.79 47.8372 104.719 48.1722 104.551 48.4946C104.383 48.817 104.127 49.096 103.783 49.3317C103.44 49.5674 103.084 49.7086 102.714 49.7553C102.348 49.7992 102.004 49.7496 101.681 49.6064C101.364 49.4645 101.104 49.2447 100.899 48.9468C100.72 48.6861 100.613 48.419 100.577 48.1453C100.546 47.8687 100.565 47.6124 100.634 47.3762L98.5113 48.8329L98.0258 48.1254L103.071 44.6626L103.557 45.3701L103.054 45.7151ZM103.289 48.6118C103.525 48.45 103.694 48.2612 103.795 48.0455C103.904 47.831 103.946 47.6133 103.922 47.3924C103.905 47.1727 103.834 46.9718 103.709 46.7898C103.587 46.6119 103.425 46.4735 103.224 46.3746C103.025 46.2799 102.804 46.2425 102.562 46.2624C102.323 46.2865 102.086 46.3795 101.85 46.5414C101.614 46.7032 101.44 46.8928 101.327 47.11C101.222 47.3286 101.177 47.5477 101.194 47.7674C101.214 47.9912 101.285 48.1921 101.407 48.37C101.532 48.552 101.694 48.6904 101.893 48.7851C102.099 48.8812 102.323 48.9157 102.567 48.8888C102.813 48.866 103.054 48.7737 103.289 48.6118Z" fill="#766458"/>
<path d="M107.492 50.976C107.424 50.8361 107.414 50.6957 107.463 50.5549C107.512 50.414 107.606 50.3096 107.746 50.2416C107.886 50.1736 108.026 50.164 108.167 50.2127C108.308 50.2614 108.412 50.3557 108.48 50.4957C108.546 50.6311 108.555 50.7692 108.506 50.91C108.457 51.0508 108.363 51.1553 108.223 51.2233C108.083 51.2912 107.943 51.3009 107.802 51.2522C107.661 51.2035 107.558 51.1114 107.492 50.976ZM107.182 51.5953L103.452 53.4081L103.077 52.6363L106.807 50.8235L107.182 51.5953Z" fill="#766458"/>
<path d="M108.404 56.3029C108.644 56.3543 108.852 56.4591 109.027 56.6171C109.208 56.7782 109.345 56.9943 109.436 57.2653L108.595 57.5494L108.525 57.3426C108.418 57.0241 108.255 56.8089 108.037 56.6971C107.821 56.59 107.513 56.6039 107.114 56.7387L105.046 57.437L104.771 56.624L108.7 55.2973L108.975 56.1103L108.404 56.3029Z" fill="#766458"/>
<path d="M108.899 64.6625C108.745 64.6887 108.605 64.7025 108.478 64.7038L107.945 61.5801C107.623 61.6606 107.381 61.8265 107.22 62.0779C107.06 62.3293 107.006 62.6133 107.06 62.9299C107.138 63.3849 107.383 63.674 107.796 63.7969L107.952 64.7095C107.555 64.65 107.208 64.4777 106.909 64.1926C106.617 63.9116 106.43 63.5312 106.348 63.0514C106.281 62.6607 106.308 62.2947 106.428 61.9535C106.554 61.6165 106.76 61.3319 107.046 61.0998C107.338 60.8718 107.694 60.7219 108.115 60.6502C108.535 60.5784 108.918 60.5996 109.263 60.7137C109.614 60.832 109.902 61.0297 110.128 61.3068C110.354 61.5889 110.502 61.9303 110.57 62.3309C110.636 62.7167 110.61 63.0749 110.494 63.4053C110.377 63.7357 110.18 64.0112 109.902 64.2317C109.629 64.4514 109.294 64.595 108.899 64.6625ZM109.015 63.734C109.326 63.6759 109.557 63.522 109.707 63.2722C109.858 63.0225 109.906 62.7369 109.851 62.4154C109.801 62.1235 109.665 61.8898 109.441 61.7141C109.223 61.5376 108.952 61.4566 108.629 61.471L109.015 63.734Z" fill="#766458"/>
<path d="M106.81 69.2815C106.81 68.9553 106.869 68.6619 106.985 68.4013C107.106 68.1456 107.267 67.9428 107.468 67.7928C107.674 67.6427 107.903 67.563 108.154 67.5536L108.152 68.4418C107.976 68.4564 107.828 68.5388 107.707 68.6891C107.591 68.8443 107.533 69.0374 107.532 69.2682C107.532 69.5091 107.576 69.6948 107.666 69.8255C107.761 69.9612 107.882 70.0293 108.027 70.0296C108.183 70.03 108.298 69.955 108.374 69.8047C108.45 69.6593 108.533 69.4262 108.624 69.1053C108.71 68.7944 108.794 68.5412 108.874 68.3457C108.955 68.1502 109.078 67.9799 109.244 67.8347C109.41 67.6947 109.629 67.6249 109.9 67.6256C110.121 67.6261 110.321 67.6919 110.501 67.8228C110.687 67.9537 110.832 68.1397 110.937 68.3808C111.041 68.627 111.093 68.9081 111.093 69.2242C111.091 69.6959 110.97 70.0745 110.729 70.3599C110.492 70.6504 110.168 70.8051 109.756 70.8242L109.759 69.9661C109.944 69.9515 110.092 69.8766 110.203 69.7414C110.314 69.6062 110.37 69.4232 110.37 69.1923C110.371 68.9665 110.328 68.7933 110.243 68.6727C110.158 68.552 110.046 68.4916 109.905 68.4912C109.795 68.4909 109.702 68.5309 109.626 68.611C109.551 68.6911 109.49 68.7888 109.445 68.9041C109.405 69.0194 109.351 69.1899 109.286 69.4155C109.205 69.7164 109.121 69.9621 109.035 70.1525C108.955 70.348 108.834 70.5158 108.673 70.6559C108.512 70.796 108.299 70.8683 108.033 70.8727C107.797 70.8721 107.586 70.8063 107.401 70.6754C107.216 70.5445 107.07 70.3585 106.966 70.1173C106.861 69.8812 106.809 69.6026 106.81 69.2815Z" fill="#766458"/>
<path d="M36.6612 89.8662L35.7168 87.8899L34.5902 88.0112L34.2039 87.203L39.7388 86.6352L40.1672 87.5317L36.2486 91.4815L35.8591 90.6666L36.6612 89.8662ZM37.1889 89.347L39.0158 87.5313L36.4522 87.8054L37.1889 89.347Z" fill="#766458"/>
<path d="M43.6932 94.838L40.3811 97.334L39.8647 96.6487L40.2554 96.3542C40.0376 96.3487 39.8222 96.288 39.6092 96.1721C39.4032 96.0571 39.2262 95.9015 39.0782 95.7051C38.8819 95.4446 38.7594 95.1694 38.7105 94.8795C38.6647 94.5936 38.7027 94.3105 38.8245 94.0302C38.9493 93.7539 39.162 93.5025 39.4626 93.276L41.4102 91.8083L41.922 92.4876L40.0766 93.8783C39.7801 94.1018 39.6075 94.348 39.559 94.6171C39.5144 94.8832 39.5888 95.1444 39.7821 95.4009C39.9753 95.6574 40.206 95.8009 40.474 95.8314C40.7491 95.8629 41.0349 95.7669 41.3314 95.5434L43.1768 94.1527L43.6932 94.838Z" fill="#766458"/>
<path d="M47.2373 98.2527C47.4776 98.4657 47.6466 98.7025 47.7441 98.9632C47.8487 99.2235 47.8904 99.4716 47.8691 99.7075L48.2684 99.2568L48.9163 99.8308L46.1212 102.986C45.8683 103.271 45.5836 103.471 45.267 103.587C44.9472 103.705 44.6162 103.727 44.2739 103.652C43.9354 103.58 43.6084 103.404 43.2929 103.125C42.8723 102.752 42.6111 102.343 42.5096 101.898C42.4047 101.456 42.4832 101.05 42.7451 100.678L43.3817 101.243C43.2875 101.447 43.2759 101.668 43.3472 101.906C43.4188 102.15 43.5655 102.371 43.7871 102.567C44.0462 102.797 44.3246 102.902 44.6221 102.884C44.9233 102.87 45.2071 102.712 45.4733 102.412L45.9325 101.893C45.6938 101.943 45.4356 101.936 45.158 101.871C44.8874 101.806 44.6338 101.668 44.3972 101.458C44.1268 101.219 43.9388 100.932 43.8332 100.597C43.7347 100.261 43.7279 99.9135 43.8127 99.5529C43.9047 99.1918 44.0887 98.8554 44.3649 98.5437C44.6411 98.232 44.9495 98.0125 45.2902 97.8852C45.6346 97.7613 45.9758 97.7318 46.3139 97.7967C46.6591 97.8611 46.9668 98.0131 47.2373 98.2527ZM46.8958 100.806C47.0855 100.592 47.2051 100.366 47.2547 100.129C47.3081 99.8942 47.3 99.6726 47.2305 99.4635C47.161 99.2544 47.0436 99.0767 46.8783 98.9302C46.7131 98.7838 46.5225 98.6887 46.3065 98.6449C46.0939 98.5973 45.8727 98.6125 45.6428 98.6904C45.42 98.7678 45.2137 98.9136 45.0241 99.1277C44.8344 99.3418 44.7112 99.5678 44.6545 99.8059C44.6016 100.047 44.6082 100.274 44.6744 100.487C44.7477 100.7 44.865 100.877 45.0265 101.02C45.1918 101.167 45.3824 101.262 45.5983 101.306C45.8143 101.35 46.0353 101.331 46.2614 101.25C46.4947 101.168 46.7061 101.02 46.8958 100.806Z" fill="#766458"/>
<path d="M54.6733 103.432L52.5946 107.021L51.8521 106.591L52.0973 106.167C51.8946 106.247 51.6725 106.275 51.4311 106.251C51.1966 106.225 50.973 106.151 50.7603 106.028C50.478 105.864 50.258 105.659 50.1001 105.411C49.9465 105.165 49.8713 104.889 49.8743 104.584C49.8817 104.281 49.9797 103.966 50.1683 103.641L51.3906 101.531L52.1266 101.957L50.9684 103.956C50.7823 104.278 50.7193 104.572 50.7794 104.838C50.8419 105.101 51.0122 105.313 51.2901 105.474C51.5679 105.634 51.8363 105.677 52.095 105.601C52.3606 105.522 52.5865 105.323 52.7726 105.001L53.9308 103.002L54.6733 103.432Z" fill="#766458"/>
<path d="M57.7277 109.199C57.4195 109.092 57.161 108.941 56.9522 108.747C56.7498 108.549 56.6103 108.331 56.5337 108.092C56.4588 107.849 56.4576 107.607 56.5302 107.366L57.3695 107.657C57.3263 107.828 57.3561 107.995 57.4589 108.158C57.5682 108.318 57.7318 108.435 57.9499 108.511C58.1776 108.59 58.3678 108.608 58.5206 108.565C58.6798 108.519 58.7832 108.428 58.8309 108.29C58.8818 108.143 58.8484 108.01 58.7308 107.889C58.6179 107.77 58.4245 107.616 58.1506 107.425C57.8845 107.243 57.6721 107.082 57.5135 106.942C57.3548 106.802 57.2338 106.63 57.1505 106.426C57.0719 106.224 57.0769 105.994 57.1656 105.738C57.2378 105.53 57.3652 105.361 57.5475 105.233C57.7316 105.101 57.9546 105.024 58.2167 105.003C58.4835 104.984 58.7663 105.026 59.065 105.129C59.5108 105.284 59.8294 105.522 60.0208 105.843C60.2187 106.161 60.2598 106.518 60.1441 106.913L59.3333 106.632C59.3798 106.452 59.3571 106.287 59.2652 106.139C59.1733 105.99 59.0183 105.878 58.8002 105.802C58.5868 105.729 58.4092 105.712 58.2675 105.753C58.1258 105.795 58.032 105.882 57.986 106.014C57.9499 106.119 57.9574 106.22 58.0087 106.317C58.0599 106.414 58.1327 106.503 58.227 106.584C58.3229 106.659 58.4669 106.765 58.6589 106.901C58.9171 107.075 59.1224 107.234 59.2747 107.377C59.4333 107.516 59.5528 107.685 59.633 107.883C59.7132 108.081 59.7122 108.306 59.6299 108.559C59.5528 108.782 59.4222 108.96 59.2381 109.092C59.0541 109.225 58.831 109.302 58.569 109.323C58.3116 109.345 58.0312 109.304 57.7277 109.199Z" fill="#766458"/>
<path d="M64.7657 107.336L64.3848 109.6C64.359 109.753 64.3749 109.87 64.4325 109.951C64.4959 110.028 64.6142 110.081 64.7874 110.11L65.307 110.197L65.1884 110.903L64.5204 110.79C64.1393 110.726 63.8624 110.588 63.6895 110.376C63.5165 110.163 63.4638 109.857 63.5312 109.456L63.9121 107.192L63.4296 107.111L63.5457 106.421L64.0282 106.502L64.1993 105.485L65.0529 105.628L64.8818 106.645L65.8764 106.813L65.7603 107.503L64.7657 107.336Z" fill="#766458"/>
<path d="M77.0266 105.877L74.5304 106.233L74.7419 107.715C74.8263 107.562 74.9637 107.423 75.1539 107.299C75.3491 107.175 75.5634 107.097 75.7969 107.063C76.2142 107.004 76.5647 107.045 76.8485 107.187C77.1373 107.328 77.3559 107.528 77.5041 107.785C77.6573 108.042 77.7556 108.322 77.7988 108.625C77.8512 108.993 77.8259 109.331 77.723 109.64C77.6243 109.943 77.445 110.196 77.1852 110.401C76.9304 110.604 76.5994 110.735 76.192 110.793C75.6505 110.87 75.1967 110.798 74.8306 110.577C74.4645 110.355 74.2176 110.028 74.09 109.595L74.9171 109.477C75.005 109.703 75.1533 109.872 75.3619 109.984C75.5698 110.091 75.8153 110.125 76.0985 110.084C76.4512 110.034 76.6993 109.89 76.8427 109.651C76.991 109.412 77.0401 109.116 76.9898 108.763C76.9387 108.406 76.8104 108.145 76.6046 107.982C76.3981 107.814 76.121 107.754 75.7733 107.804C75.5299 107.839 75.3326 107.93 75.1814 108.079C75.0345 108.221 74.9386 108.402 74.8939 108.621L74.0891 108.736L73.6417 105.599L76.9203 105.131L77.0266 105.877Z" fill="#766458"/>
<path d="M82.4972 108.223L82.2598 110.479L81.7291 110.648L81.6078 108.506L82.4972 108.223Z" fill="#766458"/>
<path d="M91.0593 103.955C91.2217 103.339 91.3417 102.843 91.4193 102.468C91.4982 102.086 91.5322 101.722 91.5211 101.377C91.51 101.032 91.4222 100.739 91.2579 100.499C91.0879 100.251 90.8947 100.097 90.6783 100.038C90.466 99.9769 90.2335 100.033 89.9809 100.205C89.7365 100.373 89.5998 100.582 89.5708 100.832C89.5432 101.076 89.6144 101.332 89.7846 101.598L89.1013 102.066C88.7907 101.585 88.685 101.128 88.7842 100.696C88.8847 100.256 89.1441 99.8933 89.5624 99.6071C90.0138 99.2983 90.4509 99.1817 90.8735 99.2573C91.3003 99.3301 91.6553 99.5736 91.9386 99.9878C92.1426 100.286 92.2629 100.626 92.2995 101.009C92.3374 101.384 92.3259 101.754 92.2648 102.118C92.2051 102.475 92.1114 102.906 91.9839 103.413L91.8744 103.853L93.8436 102.506L94.2474 103.096L91.2282 105.161L90.8755 104.646L91.0593 103.955Z" fill="#766458"/>
<path d="M95.0314 98.8329C94.4137 98.2229 94.034 97.6434 93.8921 97.0943C93.7503 96.5381 93.9314 96.0047 94.4356 95.4941C94.9398 94.9836 95.4691 94.7975 96.0235 94.936C96.5779 95.0673 97.1639 95.438 97.7816 96.048C98.4064 96.665 98.7915 97.2534 98.937 97.8131C99.0824 98.3657 98.903 98.8973 98.3988 99.4079C97.8946 99.9185 97.3635 100.106 96.8056 99.9714C96.2476 99.8294 95.6562 99.4499 95.0314 98.8329ZM97.1892 96.6478C96.9 96.3622 96.6361 96.1403 96.3974 95.9822C96.1622 95.8204 95.9257 95.735 95.6879 95.7258C95.4465 95.7131 95.2148 95.8193 94.9926 96.0442C94.7705 96.2691 94.6673 96.5022 94.683 96.7434C94.6951 96.981 94.7818 97.2182 94.9429 97.4549C95.1076 97.6881 95.3345 97.9475 95.6237 98.2331C95.9237 98.5292 96.193 98.76 96.4318 98.9252C96.6705 99.0905 96.9088 99.1777 97.1466 99.1869C97.3879 99.1925 97.6197 99.0828 97.8418 98.8579C98.0639 98.6329 98.1689 98.4016 98.1568 98.164C98.1482 97.9227 98.0597 97.6838 97.8915 97.4471C97.7232 97.2104 97.4892 96.944 97.1892 96.6478Z" fill="#766458"/>
<path d="M101.491 93.9054C101.411 93.2736 101.337 92.7691 101.269 92.392C101.199 92.0079 101.094 91.6579 100.955 91.3421C100.816 91.0262 100.625 90.7877 100.383 90.6264C100.132 90.4595 99.8953 90.3893 99.6726 90.4159C99.4528 90.4383 99.258 90.5769 99.0883 90.8316C98.9242 91.0781 98.8757 91.323 98.9426 91.5665C99.0081 91.8031 99.1697 92.0132 99.4273 92.1967L98.9684 92.8859C98.5006 92.5563 98.2318 92.1723 98.1619 91.734C98.0907 91.2887 98.1956 90.8551 98.4765 90.4332C98.7796 89.978 99.1413 89.7064 99.5616 89.6185C99.9846 89.5264 100.405 89.6194 100.823 89.8976C101.123 90.0978 101.362 90.3684 101.539 90.7092C101.715 91.0432 101.842 91.3903 101.922 91.7507C102 92.1042 102.075 92.5398 102.146 93.0574L102.209 93.5062L103.531 91.5202L104.126 91.9166L102.099 94.9613L101.579 94.6151L101.491 93.9054Z" fill="#766458"/>
<path d="M101.469 86.963L100.755 86.6432L101.394 85.2142L106.403 87.4556L106.049 88.2457L101.755 86.324L101.469 86.963Z" fill="#766458"/>
</g>
<defs>
<filter id="filter0_i_1727_50780" x="0" y="0" width="140" height="141" filterUnits="userSpaceOnUse" color-interpolation-filters="sRGB">
<feFlood flood-opacity="0" result="BackgroundImageFix"/>
<feBlend mode="normal" in="SourceGraphic" in2="BackgroundImageFix" result="shape"/>
<feColorMatrix in="SourceAlpha" type="matrix" values="0 0 0 0 0 0 0 0 0 0 0 0 0 0 0 0 0 0 127 0" result="hardAlpha"/>
<feOffset dy="1"/>
<feGaussianBlur stdDeviation="0.5"/>
<feComposite in2="hardAlpha" operator="arithmetic" k2="-1" k3="1"/>
<feColorMatrix type="matrix" values="0 0 0 0 0.211765 0 0 0 0 0.215686 0 0 0 0 0.25098 0 0 0 0.24 0"/>
<feBlend mode="normal" in2="shape" result="effect1_innerShadow_1727_50780"/>
</filter>
</defs>
</svg>
