<svg width="200" height="72" viewBox="0 0 200 72" fill="none" xmlns="http://www.w3.org/2000/svg">
<path d="M58.07 21.576H52.91V30H58.07V28.356H54.962V26.508H57.71V24.924H54.962V23.22H58.07V21.576ZM68.6302 30H70.6702V26.088C70.6702 24.288 69.6022 23.232 67.9462 23.232C66.9742 23.232 66.1342 23.772 65.6902 24.48C65.2342 23.676 64.4182 23.232 63.4102 23.232C62.5342 23.232 61.8502 23.604 61.4542 24.144V23.304H59.4022V30H61.4542V26.364C61.4542 25.488 61.9582 25.008 62.7382 25.008C63.5182 25.008 64.0222 25.488 64.0222 26.364V30H66.0622V26.364C66.0622 25.488 66.5662 25.008 67.3462 25.008C68.1262 25.008 68.6302 25.488 68.6302 26.364V30ZM72.1053 30H74.1573V23.304H72.1053V30ZM73.1373 22.608C73.8573 22.608 74.3493 22.116 74.3493 21.504C74.3493 20.88 73.8573 20.388 73.1373 20.388C72.4053 20.388 71.9133 20.88 71.9133 21.504C71.9133 22.116 72.4053 22.608 73.1373 22.608ZM75.6444 30H77.6964V21.12H75.6444V30ZM82.2675 27.492L80.7195 23.304H78.4275L81.1515 29.772L79.6155 33.18H81.8235L86.0235 23.304H83.8035L82.2675 27.492ZM93.7605 24.312C93.7605 24.972 93.4005 25.368 92.6325 25.368H91.3605V23.28H92.6325C93.4005 23.28 93.7605 23.688 93.7605 24.312ZM89.3085 21.576V30H91.3605V26.82H91.8525L93.6045 30H95.9205L93.9765 26.664C95.2725 26.28 95.8485 25.284 95.8485 24.228C95.8485 22.764 94.8165 21.576 92.7525 21.576H89.3085ZM99.3086 28.992C99.3086 28.356 98.8166 27.864 98.0966 27.864C97.3646 27.864 96.8726 28.356 96.8726 28.992C96.8726 29.604 97.3646 30.096 98.0966 30.096C98.8166 30.096 99.3086 29.604 99.3086 28.992ZM104.758 30H107.242L108.634 24.456L109.978 30H112.462L114.658 21.576H112.45L111.226 27.708L109.786 21.576H107.53L106.03 27.708L104.818 21.576H102.622L104.758 30ZM115.279 26.64C115.279 28.752 116.587 30.096 118.219 30.096C119.215 30.096 119.923 29.64 120.295 29.052V30H122.347V23.304H120.295V24.252C119.935 23.664 119.227 23.208 118.231 23.208C116.587 23.208 115.279 24.528 115.279 26.64ZM120.295 26.652C120.295 27.72 119.611 28.308 118.831 28.308C118.063 28.308 117.367 27.708 117.367 26.64C117.367 25.572 118.063 24.996 118.831 24.996C119.611 24.996 120.295 25.584 120.295 26.652ZM125.884 26.892C125.884 25.74 126.448 25.404 127.42 25.404H127.984V23.232C127.084 23.232 126.352 23.712 125.884 24.42V23.304H123.832V30H125.884V26.892ZM131.017 26.892C131.017 25.74 131.581 25.404 132.553 25.404H133.117V23.232C132.217 23.232 131.485 23.712 131.017 24.42V23.304H128.965V30H131.017V26.892ZM137.05 24.852C137.734 24.852 138.31 25.272 138.31 26.004H135.742C135.862 25.26 136.378 24.852 137.05 24.852ZM140.254 27.78H138.07C137.902 28.14 137.578 28.428 137.002 28.428C136.342 28.428 135.802 28.02 135.73 27.144H140.374C140.398 26.94 140.41 26.736 140.41 26.544C140.41 24.504 139.03 23.208 137.074 23.208C135.082 23.208 133.69 24.528 133.69 26.652C133.69 28.776 135.106 30.096 137.074 30.096C138.742 30.096 139.93 29.088 140.254 27.78ZM146.112 30H148.152V26.088C148.152 24.288 147.12 23.232 145.572 23.232C144.672 23.232 143.952 23.628 143.544 24.192V23.304H141.492V30H143.544V26.364C143.544 25.452 144.048 24.948 144.828 24.948C145.608 24.948 146.112 25.452 146.112 26.364V30Z" fill="#766458"/>
<path d="M25.7289 45.812C25.7289 48.32 27.5649 50.072 29.9049 50.072C31.7169 50.072 33.1569 49.172 33.7809 47.564H32.4729C32.0169 48.56 31.1289 49.124 29.9049 49.124C28.1529 49.124 26.8449 47.852 26.8449 45.812C26.8449 43.76 28.1529 42.488 29.9049 42.488C31.1289 42.488 32.0169 43.052 32.4729 44.06H33.7809C33.1569 42.44 31.7169 41.528 29.9049 41.528C27.5649 41.528 25.7289 43.304 25.7289 45.812ZM41.2384 43.424H40.1464V47.036C40.1464 48.452 39.3904 49.148 38.2624 49.148C37.1584 49.148 36.4264 48.464 36.4264 47.132V43.424H35.3464V47.276C35.3464 49.16 36.5344 50.096 38.0464 50.096C38.9224 50.096 39.7264 49.712 40.1464 49.028V50H41.2384V43.424ZM52.5742 50H53.6542V46.124C53.6542 44.24 52.4902 43.304 50.9902 43.304C49.9822 43.304 49.0462 43.82 48.6622 44.768C48.2302 43.784 47.3302 43.304 46.2502 43.304C45.3862 43.304 44.6062 43.676 44.1742 44.372V43.424H43.0822V50H44.1742V46.376C44.1742 44.96 44.9302 44.252 46.0342 44.252C47.1142 44.252 47.8342 44.936 47.8342 46.28V50H48.9142V46.376C48.9142 44.96 49.6702 44.252 50.7742 44.252C51.8542 44.252 52.5742 44.936 52.5742 46.28V50ZM56.5375 44.648V41.12H55.4455V50H56.5375V48.788C56.9455 49.508 57.7975 50.108 58.9975 50.108C60.7615 50.108 62.1175 48.728 62.1175 46.688C62.1175 44.636 60.7735 43.316 58.9975 43.316C57.8335 43.316 56.9575 43.916 56.5375 44.648ZM61.0015 46.688C61.0015 48.236 59.9815 49.148 58.7695 49.148C57.5815 49.148 56.5375 48.248 56.5375 46.7C56.5375 45.176 57.5815 44.264 58.7695 44.264C59.9815 44.264 61.0015 45.14 61.0015 46.688ZM66.3509 44.24C67.4789 44.24 68.4389 44.948 68.4269 46.232H64.2749C64.3949 44.948 65.2829 44.24 66.3509 44.24ZM69.4229 47.972H68.2469C68.0069 48.68 67.3829 49.184 66.3989 49.184C65.2829 49.184 64.3469 48.452 64.2629 47.12H69.5189C69.5429 46.892 69.5549 46.7 69.5549 46.46C69.5549 44.66 68.3069 43.316 66.3989 43.316C64.4789 43.316 63.1469 44.624 63.1469 46.7C63.1469 48.788 64.5269 50.108 66.3989 50.108C68.0309 50.108 69.0869 49.172 69.4229 47.972ZM72.0883 46.424C72.0883 44.9 72.8803 44.432 73.9243 44.432H74.2123V43.304C73.1683 43.304 72.4603 43.76 72.0883 44.492V43.424H70.9963V50H72.0883V46.424ZM75.4728 50H76.5648V41.12H75.4728V50ZM78.018 46.688C78.018 48.728 79.374 50.108 81.126 50.108C82.338 50.108 83.19 49.484 83.586 48.776V50H84.69V43.424H83.586V44.624C83.202 43.94 82.362 43.316 81.138 43.316C79.374 43.316 78.018 44.636 78.018 46.688ZM83.586 46.7C83.586 48.248 82.554 49.148 81.354 49.148C80.154 49.148 79.134 48.236 79.134 46.688C79.134 45.14 80.154 44.264 81.354 44.264C82.554 44.264 83.586 45.176 83.586 46.7ZM91.3473 50H92.4273V46.124C92.4273 44.24 91.2633 43.304 89.7393 43.304C88.8513 43.304 88.0593 43.676 87.6273 44.36V43.424H86.5353V50H87.6273V46.364C87.6273 44.948 88.3953 44.252 89.5113 44.252C90.6153 44.252 91.3473 44.936 91.3473 46.28V50ZM93.8031 46.688C93.8031 48.728 95.1591 50.108 96.9231 50.108C98.1231 50.108 98.9751 49.496 99.3711 48.764V50H100.475V41.12H99.3711V44.6C98.9151 43.844 97.9671 43.316 96.9351 43.316C95.1591 43.316 93.8031 44.636 93.8031 46.688ZM99.3711 46.7C99.3711 48.248 98.3391 49.148 97.1391 49.148C95.9391 49.148 94.9191 48.236 94.9191 46.688C94.9191 45.14 95.9391 44.264 97.1391 44.264C98.3391 44.264 99.3711 45.176 99.3711 46.7ZM105.112 45.812C105.112 48.32 106.948 50.072 109.288 50.072C111.1 50.072 112.54 49.172 113.164 47.564H111.856C111.4 48.56 110.512 49.124 109.288 49.124C107.536 49.124 106.228 47.852 106.228 45.812C106.228 43.76 107.536 42.488 109.288 42.488C110.512 42.488 111.4 43.052 111.856 44.06H113.164C112.54 42.44 111.1 41.528 109.288 41.528C106.948 41.528 105.112 43.304 105.112 45.812ZM121.029 46.7C121.029 44.624 119.577 43.316 117.705 43.316C115.845 43.316 114.381 44.624 114.381 46.7C114.381 48.788 115.797 50.108 117.657 50.108C119.529 50.108 121.029 48.788 121.029 46.7ZM115.497 46.7C115.497 45.044 116.541 44.264 117.693 44.264C118.821 44.264 119.913 45.044 119.913 46.7C119.913 48.368 118.797 49.148 117.657 49.148C116.517 49.148 115.497 48.368 115.497 46.7ZM128.297 43.424H127.205V47.036C127.205 48.452 126.449 49.148 125.321 49.148C124.217 49.148 123.485 48.464 123.485 47.132V43.424H122.405V47.276C122.405 49.16 123.593 50.096 125.105 50.096C125.981 50.096 126.785 49.712 127.205 49.028V50H128.297V43.424ZM134.953 50H136.033V46.124C136.033 44.24 134.869 43.304 133.345 43.304C132.457 43.304 131.665 43.676 131.233 44.36V43.424H130.141V50H131.233V46.364C131.233 44.948 132.001 44.252 133.117 44.252C134.221 44.252 134.953 44.936 134.953 46.28V50ZM138.057 48.2C138.057 49.52 138.717 50 139.881 50H140.865V49.076H140.061C139.389 49.076 139.149 48.848 139.149 48.2V44.324H140.865V43.424H139.149V41.768H138.057V43.424H137.205V44.324H138.057V48.2ZM143.28 46.424C143.28 44.9 144.072 44.432 145.116 44.432H145.404V43.304C144.36 43.304 143.652 43.76 143.28 44.492V43.424H142.188V50H143.28V46.424ZM149.16 48.752L147.096 43.424H145.884L148.536 49.928L147.24 53.096H148.368L152.328 43.424H151.2L149.16 48.752ZM152.478 51.716H153.21L154.554 48.488H153.354L152.478 51.716ZM164.488 41.624V48.272L160.096 41.624H159.004V50H160.096V43.34L164.488 50H165.58V41.624H164.488ZM167.034 45.812C167.034 48.32 168.87 50.072 171.21 50.072C173.022 50.072 174.462 49.172 175.086 47.564H173.778C173.322 48.56 172.434 49.124 171.21 49.124C169.458 49.124 168.15 47.852 168.15 45.812C168.15 43.76 169.458 42.488 171.21 42.488C172.434 42.488 173.322 43.052 173.778 44.06H175.086C174.462 42.44 173.022 41.528 171.21 41.528C168.87 41.528 167.034 43.304 167.034 45.812Z" fill="#766458"/>
<rect x="1" y="1" width="198" height="70" rx="3" stroke="#766458" stroke-width="2" stroke-dasharray="2 2"/>
</svg>
