<svg xmlns="http://www.w3.org/2000/svg" width="385" height="383" fill="none"
  xmlns="https://vecta.io/nano">
  <g clip-path="url(#A)">
    <path d="M256.079 383H21.015c-5.571-.006-10.913-2.223-14.853-6.163S.006 367.554 0 361.981V21.019c.006-5.572 2.222-10.915 6.162-14.855S15.443.006 21.015 0h235.065c5.571.006 10.913 2.223 14.852 6.163a21.04 21.04 0 0 1 6.162 14.855v340.962c-.006 5.573-2.222 10.915-6.162 14.856s-9.281 6.157-14.852 6.163z" fill="#3f3d56"/>
    <g fill="#fff">
      <path d="M256.493 369.589H20.601c-1.717-.002-3.364-.685-4.578-1.9a6.49 6.49 0 0 1-1.9-4.579V19.889c.002-1.718.685-3.365 1.9-4.579a6.49 6.49 0 0 1 4.578-1.9h235.892c1.717.002 3.364.685 4.578 1.9a6.49 6.49 0 0 1 1.9 4.579V363.11c-.002 1.718-.685 3.365-1.9 4.579a6.49 6.49 0 0 1-4.578 1.9zM137.653 8.225a1.79 1.79 0 0 0 1.788-1.788 1.79 1.79 0 0 0-1.788-1.788 1.79 1.79 0 0 0-1.788 1.788 1.79 1.79 0 0 0 1.788 1.788z"/>
    </g>
    <g fill="#9e616a">
      <path d="M201.469 158.561l-7.81-23.393-.132-.407 32.887-20.777 1.748 2.357 9.159 12.335-3.348 9.978-8.653 25.777-.38 1.133 16.025 11.917 1.592 3.221c4.784 10.903-2.297 10.409-2.297 10.409l-32.592-13.973-6.199-18.577z"/>
      <path d="M218.722 162.915l-1.437-4.306-7.051-21.14-1.469-4.407-1.234-3.687 16.08-10.163 16.806-10.614 10.908 14.692-3.306 9.851-1.607 4.787-2.484 7.403-4.984 14.846 16.025 11.917c1.213 2.127 2.17 4.389 2.852 6.74a10.34 10.34 0 0 1 .392 3.019 3.7 3.7 0 0 1-.249 1.53c-.19.487-.482.928-.855 1.294a3.7 3.7 0 0 1-2.845 1.047l-32.592-13.973-2.95-8.836z"/>
    </g>
    <g fill="#000">
      <path opacity=".15" d="M217.194 163.869l-1.891-19.941 9.425-5.112.616 1.139-8.673 4.703 1.754 18.486 19.269 13.199-.731 1.067-19.769-13.541zm20.557-.668l-.769 1.041 19.446 14.37.769-1.04-19.446-14.371z"/>
    </g>
    <path d="M236.594 182.748l-97.825-68.783-98.824 68.142 97.35 41.116 99.299-40.475z" fill="#fff"/>
    <path d="M166.555 124.365l32.941-32.214 58.914-3.981 73.233 69.945L385 187.321l-15.031 44.213-64.402-30.577c-13.112-.963-21.549-5.315-26.885-9.892-1.834-1.571-3.488-3.343-4.93-5.282a23.74 23.74 0 0 1-3.647-6.809l-26.176-33.643-5.397-6.942-3.495-4.493-11.425-14.684-.822-1.055-19.41-.514-10.101 13.264-7.095 9.308a15.78 15.78 0 0 1-3.387 8.997c-6.362 7.741-19.264 6.23-19.264 6.23l3.022-31.077z" fill="#9e616a"/>
    <path d="M40.321 182.043h.07l40.402 17.255 55.278 23.609c.216.091.448.138.682.14a1.78 1.78 0 0 0 .684-.133l57.031-23.665 41.395-17.178.063-.028h.07a2.47 2.47 0 0 1 2.464 2.464v107.009c-.001.654-.26 1.28-.722 1.742s-1.088.722-1.742.722H40.321a2.46 2.46 0 0 1-1.741-.722c-.462-.462-.722-1.088-.722-1.742V184.507a2.47 2.47 0 0 1 2.464-2.464z" fill="#fff"/>
    <path d="M40.145 182.748c.072 0 .142-.022.201-.063l97.331-67.798c.296-.205.648-.315 1.009-.314s.712.111 1.007.318l96.63 67.793c.076.053.171.074.263.058s.173-.068.227-.145.074-.171.058-.262-.068-.174-.144-.228l-96.63-67.793a2.47 2.47 0 0 0-2.822-.005l-97.331 67.798c-.062.042-.108.104-.132.175a.35.35 0 0 0-.003.219c.022.072.067.134.128.178a.35.35 0 0 0 .208.069h0z" fill="#3f3d56"/>
    <path d="M230.802 185.15l-92.212-68.353-92.91 73.217 88.16 52.273 47.863-10.912 49.099-46.225z" fill="#e6e6e6"/>
    <g fill="#6c63ff">
      <path d="M177.662 274.574h45.555a2.13 2.13 0 0 0 1.504-.622c.399-.399.624-.94.625-1.504a2.13 2.13 0 0 0-2.123-2.132h-45.561a2.13 2.13 0 0 0-1.504.622c-.399.399-.624.94-.625 1.504s.222 1.106.621 1.505a2.13 2.13 0 0 0 1.502.627h.006zm29.211-9.153h16.344a2.12 2.12 0 0 0 1.504-.622c.4-.398.624-.939.625-1.503s-.222-1.106-.62-1.505a2.13 2.13 0 0 0-1.503-.627h-16.35a2.13 2.13 0 0 0-1.509 3.631c.398.4.939.625 1.503.626h.006z"/>
    </g>
    <path d="M137.294 223.222c.347 0 .69-.067 1.01-.198l56.87-23.601v-73.877c-.001-.653-.261-1.279-.723-1.741s-1.088-.722-1.741-.723H83.61c-.653.001-1.279.261-1.741.723s-.722 1.088-.722 1.741v73.928l.107.046 55.001 23.493a2.69 2.69 0 0 0 1.04.209z" fill="#fff"/>
    <g fill="#3f3d56">
      <path d="M136.185 223.175l-55.214-23.584v-74.045c.001-.7.279-1.371.774-1.866s1.166-.773 1.866-.774h109.1c.7.001 1.371.279 1.866.774s.773 1.166.774 1.866v73.994l-56.979 23.647a2.86 2.86 0 0 1-2.186-.012h0zm58.461-97.629a1.94 1.94 0 0 0-.568-1.368c-.362-.363-.854-.567-1.368-.568H83.61a1.94 1.94 0 0 0-1.936 1.936v73.58l54.786 23.401a2.15 2.15 0 0 0 1.643.009l56.543-23.466v-73.524z"/>
      <path d="M38.387 184.507v107.009c.001.654.261 1.28.722 1.742a2.46 2.46 0 0 0 1.741.722h195.677a2.46 2.46 0 0 0 1.741-.722c.462-.462.722-1.088.722-1.742V184.507c0-.653-.26-1.28-.722-1.742a2.47 2.47 0 0 0-1.741-.722h-.071l-.063.028-41.395 17.178-57.031 23.665a1.78 1.78 0 0 1-.683.133c-.235-.002-.467-.049-.683-.14l-55.278-23.609-40.402-17.255h-.07a2.47 2.47 0 0 0-2.464 2.464zm.704 0a1.77 1.77 0 0 1 .492-1.219c.315-.328.743-.521 1.197-.541l40.543 17.315 55 23.493c.612.257 1.301.26 1.915.01l56.76-23.556 41.596-17.262c.454.018.884.212 1.2.54a1.76 1.76 0 0 1 .492 1.22v107.009a1.76 1.76 0 0 1-1.759 1.76H40.85a1.76 1.76 0 0 1-1.76-1.76V184.507z"/>
    </g>
    <g fill="#6c63ff">
      <path d="M93.161 150.698h38.713c.747 0 1.463-.296 1.991-.824a2.82 2.82 0 0 0 .825-1.992c0-.746-.297-1.463-.825-1.991s-1.244-.825-1.991-.825H93.161c-.747 0-1.463.297-1.991.825s-.825 1.245-.825 1.991a2.82 2.82 0 0 0 .825 1.992c.528.528 1.244.824 1.991.824zm.024-11.968h18.652c.747 0 1.463-.297 1.991-.825s.825-1.244.825-1.991a2.82 2.82 0 0 0-.825-1.992c-.528-.528-1.244-.824-1.991-.824H93.185c-.747 0-1.463.296-1.991.824a2.82 2.82 0 0 0-.825 1.992c0 .747.297 1.463.825 1.991s1.244.825 1.991.825z"/>
    </g>
    <g fill="#ccc">
      <path d="M109.206 178.859h59.125c.747 0 1.463-.297 1.991-.825s.825-1.245.825-1.991a2.82 2.82 0 0 0-.825-1.992c-.528-.528-1.244-.824-1.991-.824h-59.125c-.747 0-1.463.296-1.991.824s-.824 1.245-.824 1.992.296 1.463.824 1.991 1.244.825 1.991.825zm0 13.023h59.125c.747 0 1.463-.297 1.991-.825s.825-1.244.825-1.991-.297-1.463-.825-1.991-1.244-.825-1.991-.825h-59.125c-.747 0-1.463.297-1.991.825s-.824 1.244-.824 1.991.296 1.463.824 1.991 1.244.825 1.991.825z"/>
    </g>
    <path opacity=".1" d="M246.412 137.927l11.743-.679 46.921 57.837-16.576-2.536-9.818-1.484a32.47 32.47 0 0 1-4.931-5.282l-10.909-3.239-5.021-3.71c.315 1.205-11.409-40.907-11.409-40.907z" fill="#000"/>
    <path d="M171.348 136.087a8.29 8.29 0 0 1 3.279-5.402c1.764-1.297 3.968-1.843 6.133-1.52l12.518 1.742 15.487 2.155 11.969 1.664 14.303-.83 12.982-.755 7.67-.443 51.001 62.866-43.848-13.02-5.02-3.71-21.981-16.238s-7.202-1.327-18.555-3.987c-1.69-.402-20.801-5.199-29.779-7.807a55.27 55.27 0 0 1-4.71-1.59c-10.01-3.941-12.012-8.993-11.449-13.125z" fill="#9e616a"/>
    <g fill="#000">
      <path opacity=".15" d="M178.518 143.941c.044-.005 4.512-.562 6.42-3.835 1.285-2.204 1.155-5.173-.384-8.824l1.192-.503c1.708 4.051 1.811 7.411.304 9.988-2.24 3.832-7.176 4.436-7.385 4.46l-.147-1.286zm45.18-8.74l-.003-1.294 23.004-.036-24.252-15.166.686-1.098 28.065 17.55-27.5.044z"/>
    </g>
  </g>
  <defs>
    <clipPath id="A">
      <path fill="#fff" d="M0 0h385v383H0z"/>
    </clipPath>
  </defs>
</svg>
