<svg width="21" height="21" viewBox="0 0 21 21" fill="none" xmlns="http://www.w3.org/2000/svg">
<path d="M21 5.0313V15.9687C21 17.2988 19.9238 18.375 18.5937 18.375H2.4063C2.18745 18.375 1.97756 18.3487 1.78498 18.2875C0.752541 18.0163 0 17.08 0 15.9687V5.0313C0 3.70118 1.07618 2.625 2.4063 2.625H18.5937C19.9238 2.625 21 3.70118 21 5.0313Z" fill="#ECEFF1"/>
<path d="M6.12495 7.00005C6.12495 7.96648 5.34148 8.74995 4.37505 8.74995C3.40846 8.74995 2.625 7.96648 2.625 7.00005C2.625 6.03346 3.40846 5.25 4.37505 5.25C5.34148 5.25 6.12495 6.03346 6.12495 7.00005Z" fill="#FFC107"/>
<path d="M20.9999 13.9472V15.9684C20.9999 17.2985 19.9238 18.3747 18.5936 18.3747H2.40623C2.18738 18.3747 1.97749 18.3484 1.78491 18.2872L12.4775 7.5946C13.0724 6.99972 14.0524 6.99972 14.6475 7.5946L20.9999 13.9472Z" fill="#388E3C"/>
<path d="M14.9274 18.3747H2.4063C2.18745 18.3747 1.97756 18.3485 1.78498 18.2873C0.752541 18.016 0 17.0797 0 15.9684V15.6972L5.03996 10.6572C5.635 10.0622 6.61505 10.0622 7.20994 10.6572L14.9274 18.3747Z" fill="#4CAF50"/>
</svg>