<svg width="142" height="137" viewBox="0 0 142 137" fill="none" xmlns="http://www.w3.org/2000/svg">
<path d="M139.07 75.3981C138.16 76.8486 137.574 78.4684 137.35 80.1528C137.125 81.8373 137.267 83.5487 137.766 85.1765C138.467 87.3557 138.411 89.6986 137.606 91.8436C136.679 94.0343 135.082 95.8959 133.031 97.1773C131.462 98.1126 130.161 99.4178 129.249 100.972C128.338 102.526 127.845 104.278 127.816 106.067C127.674 108.435 126.735 110.691 125.144 112.49C123.553 114.289 121.397 115.53 119.009 116.023C117.226 116.425 115.57 117.241 114.183 118.403C112.796 119.564 111.721 121.035 111.049 122.69C110.005 124.951 108.251 126.833 106.04 128.068C103.769 129.242 101.179 129.7 98.6286 129.379C97.16 129.14 95.6538 129.242 94.2341 129.679C92.8144 130.116 91.5217 130.874 90.4625 131.891C89.2983 133.13 87.8867 134.125 86.3137 134.817C84.7407 135.508 83.0392 135.881 81.3129 135.913C80.0131 135.904 78.7205 135.725 77.4701 135.38C73.0545 134.193 68.3899 134.193 63.9744 135.38C62.8745 135.648 61.7459 135.79 60.6119 135.802C58.8905 135.792 57.1898 135.437 55.6156 134.761C54.0414 134.084 52.6276 133.099 51.4623 131.869C50.4539 130.848 49.2019 130.085 47.8174 129.647C46.4329 129.209 44.9585 129.109 43.525 129.357C40.846 129.69 38.1259 129.225 35.7249 128.024C33.4146 126.767 31.585 124.818 30.5096 122.468C29.8121 120.876 28.7416 119.465 27.3835 118.346C26.0253 117.227 24.417 116.431 22.6867 116.023C20.2647 115.465 18.0963 114.154 16.5107 112.289C14.9564 110.304 14.0483 107.913 13.9031 105.422C13.8408 103.908 13.4129 102.429 12.654 101.105C11.8951 99.7807 10.8264 98.6485 9.5341 97.7996C7.2279 96.3551 5.45058 94.2394 4.45606 91.7547C3.54949 89.2175 3.46962 86.4705 4.22732 83.8875C4.65594 82.3885 4.70933 80.8115 4.38304 79.2883C4.05675 77.7652 3.36025 76.3399 2.35165 75.1314C1.16244 73.7236 0.396447 72.0241 0.138131 70.2202C-0.120184 68.4164 0.139208 66.5782 0.887708 64.9085C3.17349 59.8718 4.20029 54.3812 3.88421 48.8852C3.7533 46.9902 4.1544 45.0963 5.04471 43.4054C5.93501 41.7146 7.28112 40.2903 8.93938 39.2846C10.4276 38.3385 11.661 37.06 12.5364 35.556C13.4119 34.052 13.9041 32.3662 13.9717 30.6396C14.1019 28.2618 14.9981 25.9839 16.5336 24.128C18.14 22.3004 20.3028 21.0163 22.7096 20.4611C24.4847 20.0983 26.1427 19.3223 27.5412 18.1997C28.9397 17.0771 30.0368 15.6415 30.7384 14.0162C31.6198 11.7773 33.2413 9.88607 35.3485 8.6392C37.4557 7.39233 39.9293 6.86041 42.3813 7.12688C46.8188 7.48246 49.4951 6.68241 51.9197 4.21558C53.6549 2.39507 55.9356 1.15108 58.4389 0.659786C60.9704 0.258914 63.5676 0.656107 65.85 1.79319C67.4285 2.53985 69.1611 2.92786 70.9166 2.92786C72.6722 2.92786 74.4048 2.53985 75.9833 1.79319C78.2665 0.565372 80.9209 0.155325 83.4835 0.634587C86.0461 1.11385 88.3541 2.452 90.0051 4.41559C91.0113 5.48283 92.2635 6.30312 93.6591 6.80919C95.0548 7.31525 96.554 7.49267 98.0339 7.3269C100.867 6.97216 103.742 7.50137 106.246 8.83811C108.676 10.2906 110.561 12.4646 111.621 15.0385C112.178 16.3319 113.05 17.4747 114.161 18.3689C115.273 19.263 116.591 19.8818 118.003 20.1722C120.77 20.7376 123.278 22.1469 125.162 24.1947C126.932 26.2744 127.924 28.8752 127.976 31.573C128.357 34.5328 129.918 37.2295 132.322 39.0846C134.016 40.7674 135.547 42.5974 136.897 44.5516L137.789 45.7517C138.211 46.4087 138.472 47.1514 138.552 47.9222C138.631 48.693 138.527 49.4711 138.246 50.1964C137.502 51.9938 137.204 53.9361 137.374 55.8663C137.545 57.7965 138.181 59.6607 139.23 61.3083C140.56 63.437 141.25 65.8852 141.222 68.3754C141.194 70.8656 140.448 73.2984 139.07 75.3981Z" fill="#766458"/>
<path d="M139.184 61.3304C138.135 59.6828 137.5 57.8187 137.329 55.8884C137.158 53.9582 137.457 52.016 138.201 50.2186C138.481 49.4933 138.585 48.7151 138.506 47.9443C138.427 47.1735 138.166 46.4308 137.743 45.7738L136.851 44.5737C135.501 42.6196 133.97 40.7896 132.276 39.1067C129.884 37.2385 128.34 34.5339 127.976 31.5729C127.918 28.8828 126.927 26.2906 125.162 24.2168C123.278 22.1691 120.77 20.7597 118.003 20.1943C116.591 19.904 115.273 19.2852 114.161 18.391C113.05 17.4969 112.178 16.3541 111.621 15.0607C110.561 12.4868 108.676 10.3128 106.246 8.86026C103.742 7.52352 100.867 6.99431 98.0339 7.34905C96.554 7.51483 95.0548 7.33741 93.6591 6.83135C92.2635 6.32528 91.0113 5.50499 90.0051 4.43775C88.3572 2.47049 86.0506 1.12801 83.4878 0.644653C80.9251 0.161297 78.269 0.567775 75.9833 1.79313C74.4048 2.53978 72.6722 2.92779 70.9166 2.92779C69.1611 2.92779 67.4285 2.53978 65.85 1.79313C63.5676 0.65604 60.9704 0.258847 58.4389 0.659719C55.9242 1.1753 53.6421 2.45116 51.9197 4.3044C49.4951 6.77124 46.8188 7.57129 42.3813 7.12681C39.9321 6.85881 37.4606 7.38752 35.3537 8.63015C33.2469 9.87279 31.6237 11.7592 30.7384 13.9939C30.0398 15.6234 28.944 17.0634 27.5453 18.19C26.1467 19.3166 24.4871 20.096 22.7096 20.461C20.3116 20.9982 18.1499 22.2583 16.5336 24.0613C14.9981 25.9172 14.1019 28.195 13.9717 30.5728C13.9041 32.2994 13.4119 33.9852 12.5364 35.4893C11.661 36.9933 10.4276 38.2718 8.93938 39.2178C7.28112 40.2236 5.93501 41.6478 5.04471 43.3387C4.1544 45.0295 3.7533 46.9235 3.88421 48.8185C4.21123 54.3367 3.1842 59.8514 0.887708 64.9084C0.139208 66.5782 -0.120184 68.4163 0.138131 70.2201C0.396447 72.024 1.16244 73.7235 2.35165 75.1313C3.34854 76.3457 4.03259 77.7737 4.34689 79.2967C4.6612 80.8197 4.59668 82.3936 4.1587 83.8875C3.401 86.4704 3.48087 89.2174 4.38744 91.7547C5.40003 94.2488 7.20235 96.3656 9.5341 97.7995C10.8325 98.6528 11.905 99.7921 12.6642 101.124C13.4234 102.457 13.8479 103.945 13.9031 105.467C14.0483 107.957 14.9564 110.348 16.5107 112.334C18.1031 114.182 20.2707 115.476 22.6867 116.023C24.4222 116.407 26.0414 117.18 27.4154 118.28C28.7894 119.379 29.8802 120.775 30.6011 122.357C31.6765 124.707 33.5061 126.656 35.8164 127.913C38.1785 129.135 40.8645 129.638 43.525 129.357C44.9554 129.132 46.421 129.251 47.7929 129.704C49.1649 130.158 50.4013 130.931 51.3936 131.957C52.559 133.188 53.9728 134.173 55.547 134.85C57.1211 135.526 58.8219 135.881 60.5433 135.891C61.6773 135.879 62.8059 135.737 63.9058 135.469C68.3213 134.281 72.9859 134.281 77.4015 135.469C78.6518 135.814 79.9445 135.993 81.2443 136.002C82.9706 135.97 84.672 135.597 86.2451 134.905C87.8181 134.214 89.2297 133.218 90.3939 131.98C91.4493 130.933 92.7485 130.148 94.1817 129.692C95.6149 129.235 97.1401 129.12 98.6286 129.357C101.179 129.678 103.769 129.219 106.04 128.046C108.248 126.817 110.001 124.943 111.049 122.69C111.721 121.035 112.796 119.564 114.183 118.403C115.57 117.241 117.226 116.425 119.009 116.023C121.392 115.521 123.54 114.272 125.123 112.47C126.705 110.667 127.635 108.41 127.77 106.044C127.799 104.256 128.292 102.503 129.204 100.949C130.115 99.3955 131.416 98.0903 132.985 97.155C135.036 95.8736 136.633 94.012 137.56 91.8213C138.365 89.6763 138.422 87.3334 137.72 85.1542C137.221 83.5264 137.079 81.815 137.304 80.1305C137.528 78.4461 138.115 76.8263 139.024 75.3758C140.393 73.281 141.134 70.8566 141.162 68.3752C141.19 65.8939 140.505 63.4541 139.184 61.3304ZM137.08 74.3313C136.021 76.0396 135.341 77.9444 135.085 79.9232C134.829 81.902 135.002 83.911 135.593 85.8209C136.19 87.603 136.133 89.531 135.433 91.2771C134.732 93.0232 133.431 94.4798 131.75 95.3993C129.9 96.5332 128.367 98.0949 127.289 99.9447C126.212 101.795 125.622 103.875 125.574 106C125.454 107.894 124.701 109.698 123.43 111.138C122.158 112.578 120.437 113.575 118.529 113.978C116.425 114.419 114.462 115.346 112.805 116.68C111.149 118.015 109.848 119.718 109.013 121.646C108.206 123.539 106.763 125.112 104.919 126.108C103.075 127.105 100.939 127.466 98.8573 127.135C97.0495 126.857 95.1998 126.998 93.4588 127.547C91.7177 128.095 90.1347 129.035 88.8385 130.291C87.5222 131.746 85.7974 132.797 83.8756 133.314C81.9538 133.831 79.9184 133.792 78.0191 133.202C75.7842 132.6 73.476 132.293 71.1568 132.291C68.5317 132.308 65.919 132.644 63.3796 133.291C62.4695 133.528 61.5312 133.647 60.589 133.646C59.186 133.636 57.8004 133.343 56.5206 132.784C55.2407 132.225 54.0945 131.414 53.1549 130.402C51.9182 129.133 50.3843 128.173 48.6837 127.604C46.9831 127.036 45.1662 126.875 43.3877 127.135C41.2041 127.498 38.9584 127.139 37.0095 126.115C35.0606 125.092 33.521 123.463 32.6369 121.49C31.7871 119.61 30.4963 117.95 28.8678 116.642C27.2393 115.334 25.3184 114.414 23.2585 113.956C21.2249 113.521 19.4048 112.425 18.0989 110.849C16.793 109.274 16.0794 107.312 16.0761 105.289C16.0058 103.452 15.4933 101.657 14.5796 100.048C13.6659 98.4381 12.3766 97.0592 10.8151 96.0216C8.8405 94.8611 7.33042 93.0832 6.53244 90.9795C5.73446 88.8757 5.69595 86.5709 6.42323 84.4431C6.93517 82.6229 6.99476 80.7107 6.59707 78.8638C6.19939 77.0169 5.35582 75.2882 4.13583 73.8201C3.18929 72.7145 2.57178 71.3786 2.35005 69.9568C2.12831 68.535 2.31079 67.0813 2.87775 65.7529C5.31638 60.4129 6.40648 54.584 6.05725 48.7518C5.96234 47.2422 6.29093 45.7358 7.00798 44.3934C7.72503 43.0509 8.80365 41.9227 10.1288 41.1291C11.898 39.9987 13.3658 38.4766 14.4116 36.6878C15.4574 34.8991 16.0514 32.8947 16.1447 30.8395C16.1811 28.8882 16.9119 27.0094 18.213 25.5224C19.5141 24.0355 21.305 23.0323 23.2814 22.6834C25.3883 22.2426 27.3541 21.313 29.0111 19.974C30.6681 18.635 31.967 16.9264 32.797 14.994C33.4905 13.1824 34.7829 11.6455 36.4717 10.624C38.1605 9.60254 40.1504 9.15418 42.1296 9.34918C44.1919 9.71876 46.3163 9.58533 48.3124 8.96086C50.3085 8.33639 52.1139 7.24041 53.5667 5.77117C54.9273 4.2217 56.7943 3.17317 58.8554 2.801C60.9164 2.42882 63.0465 2.75557 64.8893 3.72659C66.7572 4.6206 68.8116 5.08556 70.8938 5.08556C72.976 5.08556 75.0304 4.6206 76.8982 3.72659C78.7641 2.71091 80.9422 2.37667 83.0395 2.78419C85.1367 3.19172 87.015 4.31416 88.3353 5.94896C89.5717 7.25843 91.1094 8.26519 92.8228 8.88703C94.5362 9.50887 96.3767 9.72816 98.194 9.52697C100.571 9.11866 103.019 9.54796 105.099 10.7376C107.179 11.9273 108.754 13.7991 109.54 16.0163C110.233 17.6237 111.318 19.0438 112.7 20.1546C114.082 21.2655 115.722 22.0341 117.477 22.3945C119.772 22.7533 121.861 23.8939 123.37 25.6122C124.878 27.3305 125.708 29.5143 125.711 31.7729C126.118 35.2645 127.926 38.4592 130.744 40.6624C132.319 42.2586 133.75 43.9836 135.021 45.8183L135.89 47.0184C136.098 47.3693 136.223 47.7611 136.254 48.1649C136.286 48.5687 136.224 48.9743 136.073 49.3518C135.199 51.4731 134.855 53.7656 135.07 56.0411C135.285 58.3166 136.052 60.5102 137.309 62.4416C138.434 64.2409 139.01 66.3137 138.969 68.4187C138.929 70.5236 138.273 72.5741 137.08 74.3313Z" fill="#766458"/>
<path d="M50.5019 75.6425L53.4984 72.8868L60.109 79.5539L80.2611 52.1743L83.7379 54.6189L60.8639 85.7321L50.5019 75.6425Z" fill="white"/>
<path d="M70.562 117.223H69.4411V112.423H72.5749L72.735 117.223H70.4476H70.562ZM70.2875 116.423H71.9344L71.82 113.245H70.3332L70.2875 116.423ZM65.827 117.023H65.4153L62.8991 116.712H62.4874L63.2423 111.956H63.654L65.9414 112.245H66.3531L65.827 117.023ZM63.5396 115.912C64.0657 115.912 64.6147 116.067 65.1637 116.112L65.5068 112.956L64.02 112.778L63.5396 115.912ZM76.5092 116.912L75.8916 112.134H76.3262L78.6136 111.801H79.0254L79.8946 116.534H79.4828C78.6594 116.668 77.813 116.801 76.9896 116.89L76.5092 116.912ZM76.8295 112.845L77.1497 116.023L78.7737 115.779L78.2248 112.645L76.8295 112.845ZM58.9191 116.023H58.5073C57.7067 115.823 56.8833 115.601 56.0827 115.356H55.6709L57.0891 110.756H57.5009L59.7883 111.356H60.2L58.9191 116.023ZM56.6316 114.601L58.21 115.045L59.0106 111.956L57.661 111.578L56.6316 114.601ZM83.2113 115.756L81.9075 111.112H82.3192L84.6066 110.467L85.0184 110.334L86.5509 114.912L86.1621 115.045C85.3615 115.29 84.538 115.534 83.7145 115.734L83.2113 115.756ZM83.0283 111.578L83.8975 114.645L85.4758 114.178L84.4465 111.178L83.0283 111.578ZM52.2398 113.801H51.851L49.5636 112.823L49.1747 112.645L51.2562 108.2L51.6222 108.356C52.3313 108.689 53.0404 108.978 53.7266 109.245L54.1155 109.4L52.2398 113.801ZM50.387 112.178L51.8967 112.823L53.109 109.867L51.6451 109.356L50.387 112.178ZM90.0278 113.467L88.0835 109.023L88.4724 108.867L90.531 107.956L90.9199 107.778L93.0929 112.089L92.7269 112.267C91.9721 112.623 91.1944 112.978 90.4395 113.289L90.0278 113.467ZM89.1814 109.489L90.4853 112.401L91.9721 111.734L90.531 108.889L89.1814 109.489ZM46.041 110.956L45.675 110.756C44.943 110.356 44.2339 109.911 43.5248 109.467L43.1588 109.245L45.8122 105.222L46.1782 105.445L48.1225 106.6L48.4885 106.8L46.041 110.956ZM44.3254 109L45.7436 109.845L47.2533 107.134L45.9723 106.378L44.3254 109ZM96.1352 110.423L93.5733 106.311L93.9393 106.089L95.8607 104.911L96.2038 104.667L98.9715 108.645L98.6284 108.889L96.5011 110.2L96.1352 110.423ZM94.7398 106.578L96.4554 109.356C96.9129 109.089 97.3704 108.8 97.8279 108.489L95.9979 105.867L94.7398 106.578ZM40.0937 107.134L39.7506 106.867C39.0872 106.378 38.4468 105.845 37.8063 105.311L37.4861 105.045L40.7113 101.4L41.0315 101.667C41.6034 102.155 42.1981 102.622 42.7928 103.089L43.136 103.333L40.0937 107.134ZM38.6755 104.911C39.0872 105.267 39.5219 105.6 39.9565 105.933L41.9465 103.422L40.8028 102.511L38.6755 104.911ZM101.899 106.422L98.7886 102.689H99.1088C99.7035 102.222 100.275 101.733 100.847 101.244L101.145 100.955L104.461 104.533L104.164 104.8C103.523 105.363 102.883 105.896 102.243 106.4L101.899 106.422ZM99.9551 102.8L102.037 105.267L103.272 104.222L101.099 101.867C100.71 102.311 100.344 102.689 99.9551 102.933V102.8ZM34.8555 102.689L34.5582 102.4C33.9635 101.822 33.3916 101.2 32.8426 100.6L32.5681 100.289L36.2737 97.1107L36.5482 97.4218C37.0515 97.9774 37.5776 98.533 38.1037 99.0663L38.401 99.3552L34.8555 102.689ZM33.7576 100.466L34.8555 101.644L37.1429 99.4219L36.2051 98.2441L33.7576 100.466ZM106.955 102.044L103.34 98.7552L103.615 98.4663C104.133 97.9329 104.637 97.3773 105.125 96.7995L105.399 96.4884L109.196 99.5775L108.922 99.8886C108.373 100.533 107.801 101.133 107.252 101.733L106.955 102.044ZM104.507 98.7108L106.794 100.933L107.892 99.733L105.376 97.6885C105.285 97.9107 104.942 98.2441 104.599 98.6219L104.507 98.7108ZM30.2121 97.644L29.9605 97.3329C29.4573 96.6662 28.9769 95.9772 28.5194 95.3105L28.2907 94.955L32.408 92.3326L32.6596 92.6659C33.0485 93.266 33.4831 93.8882 33.9406 94.4883L34.1922 94.8216L30.2121 97.644ZM29.4573 95.1994C29.7546 95.6439 30.0749 96.0884 30.3951 96.5106L33.0256 94.6438L32.1793 93.4437L29.4573 95.1994ZM111.392 96.7773L107.343 94.0216L107.572 93.6882C108.007 93.0882 108.441 92.4659 108.83 91.8436L109.059 91.5103L113.245 94.0438L113.039 94.3994C112.582 95.0883 112.124 95.7772 111.644 96.4439L111.392 96.7773ZM108.602 93.7993L111.278 95.6217C111.598 95.1772 111.895 94.7327 112.193 94.2882L109.425 92.5992L108.602 93.7993ZM26.5294 91.9103L26.3235 91.577C25.9347 90.8658 25.5458 90.1324 25.1798 89.3546L24.9968 88.999L29.5716 86.9322L29.7546 87.31C30.0749 87.9545 30.418 88.6212 30.784 89.2879L30.9669 89.6435L26.5294 91.9103ZM26.1176 89.3546L26.8725 90.7769L29.8004 89.3546L29.1141 88.0656L26.1176 89.3546ZM115.121 90.9325L110.729 88.7101L110.912 88.3545C111.255 87.6878 111.575 87.0211 111.895 86.3544L112.056 85.9766L116.63 87.9323L116.447 88.3101C116.127 89.0434 115.761 89.799 115.372 90.5324L115.121 90.9325ZM111.85 88.399L114.755 89.8435C115.006 89.3546 115.235 88.8657 115.464 88.399L112.49 87.1322C112.284 87.4878 112.147 87.9323 111.85 88.3545V88.399ZM23.6015 85.6655L23.4643 85.2876C23.1593 84.5024 22.8848 83.7246 22.6408 82.9542V82.5764L27.3528 81.154L27.4901 81.5318C27.7188 82.243 27.9476 82.9542 28.2221 83.7542L28.3593 84.132L23.6015 85.6655ZM23.6015 83.1097C23.7616 83.6209 23.9446 84.132 24.1276 84.6209L27.1927 83.532L26.7124 82.1763L23.6015 83.1097ZM117.934 84.6432L113.245 83.0875L113.382 82.7097C113.634 82.0208 113.863 81.3096 114.068 80.5984L114.183 80.1984L118.941 81.5318L118.826 81.9096C118.597 82.7097 118.346 83.4875 118.071 84.2654L117.934 84.6432ZM114.297 82.6875L117.385 83.732C117.545 83.2208 117.728 82.7097 117.866 82.1985L114.732 81.3318C114.595 81.6652 114.434 82.1319 114.297 82.6875ZM21.6115 79.1539V78.7539C21.4285 77.976 21.2683 77.1538 21.1311 76.3537V75.9537L26.0262 75.1759V75.5759C26.0262 76.3093 26.2778 77.0427 26.4379 77.7983V78.1983L21.6115 79.1539ZM21.9546 76.6204C21.9546 77.1538 22.1376 77.6649 22.2519 78.1983L25.4543 77.5316C25.4543 77.0649 25.2484 76.576 25.1798 76.1093L21.9546 76.6204ZM119.764 78.0872L114.892 77.1982V76.7982C115.029 76.087 115.144 75.3536 115.258 74.5758V74.1758L120.176 74.8425V75.2425C120.176 76.0426 119.924 76.8649 119.764 77.6649V78.0872ZM115.875 76.5537L119.078 77.1315C119.078 76.6204 119.284 76.087 119.352 75.5537L116.127 75.1314C116.058 75.5981 115.967 76.0204 115.875 76.5537ZM20.6507 72.4423V72.0423C20.6507 71.22 20.6507 70.3978 20.6507 69.5755V69.1755L25.5915 69.0644V69.4866C25.5915 70.22 25.5915 70.9534 25.5915 71.709V72.1312L20.6507 72.4423ZM21.3598 69.9755V71.5756L24.6308 71.3534C24.6308 70.8645 24.6308 70.3755 24.6308 69.9088L21.3598 69.9755ZM120.725 71.3534L115.784 71.1089V70.7089C115.784 69.9755 115.784 69.2421 115.784 68.4865V67.8198H120.725V68.5088C120.725 69.331 120.725 70.1755 120.725 70.9756V71.3534ZM116.676 70.3533L119.924 70.5089C119.924 69.8866 119.924 69.2421 119.924 68.6199H116.722C116.722 69.1977 116.722 69.7755 116.585 70.3533H116.676ZM25.5 65.9086L20.5821 65.5975V65.1752C20.5821 64.3752 20.7194 63.5529 20.8109 62.7306V62.3306L25.7288 62.8862V63.2862C25.7288 64.0196 25.5687 64.7752 25.5229 65.5086L25.5 65.9086ZM21.3827 64.9085L24.6308 65.1308L24.7681 63.6862L21.52 63.3306L21.3827 64.9085ZM115.624 64.753V64.3529C115.624 63.6195 115.464 62.8639 115.349 62.1306V61.7083L120.244 61.0194V61.4194C120.382 62.2417 120.473 63.064 120.542 63.864V64.2863L115.624 64.753ZM116.196 62.4195C116.196 62.9084 116.333 63.3751 116.379 63.864L119.627 63.5529C119.627 63.0417 119.512 62.5084 119.421 61.975L116.196 62.4195ZM26.2091 59.9082L21.3598 58.9081V58.5081C21.5428 57.7303 21.7258 56.908 21.9317 56.1302L22.0461 55.7301L26.8267 56.9524V57.3302C26.6209 58.0414 26.4608 58.7748 26.3006 59.5526L26.2091 59.9082ZM22.3663 58.2414L25.5687 58.8859C25.5687 58.4192 25.7745 57.9525 25.8889 57.4858L22.7323 56.6857C22.595 57.2413 22.4807 57.7747 22.3663 58.2414ZM114.64 58.6414V58.2414C114.48 57.5303 114.274 56.7969 114.068 56.019L113.931 55.6412L118.689 54.2856V54.6856C118.941 55.4857 119.146 56.2857 119.352 57.0636V57.4636L114.64 58.6414ZM114.892 56.2635C115.029 56.7302 115.144 57.1969 115.281 57.6414L118.437 56.908C118.331 56.4043 118.193 55.8931 118.026 55.3746L114.892 56.2635ZM27.8561 54.0411L23.2813 52.3966L23.4185 52.0188C23.7159 51.2632 24.0132 50.4853 24.3335 49.7964L24.5165 49.4186L29.0913 51.2632L28.9312 51.641C28.6338 52.3299 28.3593 53.0188 28.1077 53.73L27.8561 54.0411ZM24.2877 51.8188L27.3528 52.9077L27.9018 51.5521L24.8824 50.3298C24.6766 50.8631 24.4707 51.3743 24.2877 51.8632V51.8188ZM112.81 52.7744L112.673 52.3966C112.399 51.7076 112.101 51.0187 111.781 50.352L111.598 49.9964L116.173 47.9963L116.356 48.3741C116.699 49.1297 117.042 49.8853 117.339 50.5965L117.5 50.9743L112.81 52.7744ZM112.81 50.3964C113.016 50.8409 113.199 51.2632 113.382 51.7076L116.424 50.552C116.219 50.0631 116.013 49.5742 115.784 49.0852L112.81 50.3964ZM30.4637 48.3296L26.0948 46.1073L26.3006 45.7517C26.6895 45.0183 27.1241 44.3072 27.5358 43.5293L27.7646 43.1737L31.9963 45.6184L31.7904 45.9739C31.4016 46.6184 31.0356 47.2629 30.6696 47.9074L30.4637 48.3296ZM27.2385 45.7295L30.1206 47.2185L30.8526 45.9517L28.0391 44.3294L27.2385 45.7295ZM110.271 47.2185L109.86 46.9073C109.494 46.2851 109.105 45.6406 108.693 45.0183L108.464 44.6627L112.65 42.107L112.879 42.4404C113.336 43.1293 113.771 43.8405 114.183 44.5516L114.434 44.9072L110.271 47.2185ZM109.837 44.9961C110.088 45.3961 110.363 45.8184 110.592 46.2184L113.451 44.6627L112.604 43.3071L109.837 44.9961ZM33.6432 43.1293L29.6174 40.3069L29.869 39.9735C30.3722 39.329 30.8755 38.6623 31.4016 38.0178L31.676 37.7067L35.5418 40.7069L35.2673 41.0403C34.7869 41.5959 34.3294 42.1959 33.8948 42.7959L33.6432 43.1293ZM30.8068 40.1291L33.4602 41.9959C33.7347 41.5959 34.0549 41.2181 34.3523 40.8403L31.8133 38.8624L30.8068 40.1291ZM106.749 42.1292L106.497 41.8181C106.04 41.2403 105.536 40.6402 105.056 40.0847L104.782 39.7735L108.556 36.6622L108.83 36.9733C109.379 37.5956 109.905 38.2401 110.409 38.8846L110.66 39.2179L106.749 42.1292ZM105.971 39.9069L106.886 41.0403L109.494 39.1068L108.464 37.8623L105.971 39.9069ZM37.6233 38.4401L34.0549 35.1065L34.3523 34.8176C34.947 34.2176 35.5418 33.6398 36.1594 33.0842L36.4567 32.7953L39.8421 36.2844L39.5447 36.5733L37.9207 38.129L37.6233 38.4401ZM35.3359 35.0843L37.6233 37.3067C37.9664 36.9511 38.3324 36.6178 38.6755 36.2844L36.3881 34.062L35.3359 35.0843ZM102.7 37.5512L102.403 37.2622C101.877 36.7511 101.328 36.24 100.733 35.751L100.435 35.4621L103.729 31.8841L104.027 32.1508C104.667 32.7064 105.285 33.262 105.88 33.8398L106.177 34.1287L102.7 37.5512ZM101.625 35.3288L102.7 36.3066L104.987 34.0843L103.798 32.9953L101.625 35.3288ZM42.3582 34.1732L39.2016 30.4618L39.5218 30.1951C40.1852 29.7062 40.8714 29.195 41.5576 28.7283L41.9008 28.4839L44.76 32.4175L44.4169 32.6397L42.587 33.9731L42.3582 34.1732ZM40.4826 30.5507L42.4955 33.0397L43.6849 32.173L41.7864 29.5951L40.4826 30.5507ZM97.9651 33.4175L97.622 33.1731C97.0273 32.7508 96.3868 32.3064 95.7463 31.9063L95.4032 31.6841L98.1481 27.6838L98.5141 27.9061C99.2003 28.3505 99.8865 28.8395 100.573 29.3284L100.916 29.5728L97.9651 33.4175ZM96.4783 31.573C96.89 31.8397 97.3017 32.1063 97.6906 32.3953L99.6349 29.8618C99.2003 29.5284 98.7428 29.2173 98.2853 28.9284L96.4783 31.573ZM47.4363 30.7951L44.943 26.6393L45.309 26.4393C46.041 26.0393 46.7729 25.6393 47.5964 25.2614L47.9624 25.0614L50.2498 29.3284L49.8609 29.5284L47.8709 30.5951L47.4363 30.7951ZM46.0867 26.9504L47.7336 29.684L49.0375 28.995L47.5278 26.1726L46.0867 26.9504ZM92.5897 30.1729L92.2237 29.9951C91.5603 29.6395 90.8741 29.2839 90.1879 28.9728L89.8219 28.795L91.9721 24.3503L92.3381 24.5281C93.1158 24.8836 93.8783 25.2614 94.6255 25.6615L94.9915 25.8615L92.5897 30.1729ZM90.9427 28.4172C91.3774 28.6394 91.812 28.8395 92.2466 29.0839L93.8478 26.2171L92.3838 25.4837L90.9427 28.4172ZM53.0633 28.0394L51.1876 23.5947L51.5765 23.4391C52.3542 23.128 53.1319 22.8391 53.8639 22.5724L54.2756 22.4168L55.8997 26.9727L55.5108 27.106L53.3835 27.8838L53.0633 28.0394ZM52.2856 24.0391L53.5208 26.9727L54.9161 26.4615L53.8181 23.4613L52.2856 24.0391ZM86.9855 27.506L86.5738 27.3727C85.8647 27.106 85.1556 26.8616 84.4236 26.6393L84.0119 26.506L85.5216 21.9279L85.9333 22.0612C86.7415 22.2983 87.504 22.565 88.2207 22.8613L88.6096 23.0169L86.9855 27.506ZM85.087 25.9726L86.4823 26.4615L87.626 23.4836L86.0706 22.9724L85.087 25.9726ZM59.1249 25.9726L57.8211 21.3501L58.21 21.239L60.6804 20.7056H61.0921L62.0757 25.417H61.6639C60.9091 25.5504 60.1771 25.7281 59.3765 25.9059L59.1249 25.9726ZM58.9191 21.9057L59.5367 25.017L60.9777 24.7059L60.3601 21.5945C59.9026 21.6834 59.3765 21.8168 58.8276 21.9279L58.9191 21.9057ZM80.9468 25.6837H80.535C79.8031 25.5281 79.0482 25.3726 78.2476 25.2614H77.8359L78.6365 20.4611H79.0482L81.5186 20.9501H81.9304L80.9468 25.6837ZM78.8652 24.4392L80.3063 24.7059L81.0154 21.6168L79.4142 21.3056L78.8652 24.4392ZM65.2094 24.9059L64.6833 20.1278H65.0951C65.9338 20.0389 66.7801 19.9722 67.6341 19.9278H68.0458L68.3203 24.7281H67.9086L65.6212 24.9059H65.2094ZM65.6212 20.8612L65.9643 24.0169L67.4511 23.8836L67.2452 20.6834C66.6962 20.7056 66.1473 20.75 65.6212 20.8167V20.8612ZM74.6335 24.7725H74.2218C73.467 24.7725 72.7121 24.6614 71.9344 24.6392H71.5227L71.6599 19.8389H72.0945C72.918 19.8389 73.7872 19.8389 74.6107 19.9722H75.0224L74.6335 24.7725ZM72.3461 23.8169H73.8101L74.0846 20.6611H72.4376L72.3461 23.8169Z" fill="white"/>
</svg>
