<svg width="90" height="21" viewBox="0 0 90 21" fill="none" xmlns="http://www.w3.org/2000/svg">
  <g clip-path="url(#clip0_1646:50657)">
    <path d="M0 1.70694H5.6734V20.5721H7.71006V1.70694H13.3542V0H0V1.70694Z" fill="#003BB3"/>
    <path d="M29.3857 12.5391C29.3857 7.41812 25.9234 4.26904 21.4428 4.26904C16.9914 4.26904 13.5 7.41812 13.5 12.5391C13.5 17.6305 16.9042 20.8091 21.3846 20.8091C25.8652 20.8091 29.3857 17.6305 29.3857 12.5391ZM15.5657 12.5391C15.5657 8.1244 18.388 6.06434 21.4137 6.06434C24.4396 6.06434 27.2909 8.1244 27.2909 12.5391C27.2909 16.9537 24.3814 19.0138 21.3846 19.0138C18.3589 19.0138 15.5657 16.9537 15.5657 12.5391Z" fill="#003BB3"/>
    <path d="M44.2296 0.0332031V17.309L32.9701 0.0332031H30.9336V20.6053H32.9701V3.3L44.2296 20.6053H46.2663V0.0332031H44.2296Z" fill="#003BB3"/>
    <path d="M67.0275 16.2123C67.0275 19.4202 68.5113 20.568 71.2753 20.568H73.4573V18.8022H71.5955C69.7624 18.8022 69.0933 18.1841 69.0933 16.2123V6.23522H73.4573V4.49881H69.0933V0.466797H67.0275V4.49881H64.8164V6.23522H67.0275V16.2123Z" fill="#003BB3"/>
    <path d="M82.3585 6.03487C85.2971 6.03487 87.9738 7.91847 87.8864 11.6562H76.7142C76.947 7.91847 79.4783 6.03487 82.3585 6.03487ZM89.7195 15.4821H87.5663C86.9846 17.6305 85.1515 19.0727 82.4457 19.0727C79.4783 19.0727 76.8888 17.1009 76.7142 13.3338H89.8939C89.9521 12.7745 89.9521 12.3624 89.9521 11.7151C89.9521 7.6241 87.1009 4.26904 82.4457 4.26904C77.8779 4.26904 74.6484 7.41812 74.6484 12.5391C74.6484 17.6305 77.9362 20.8091 82.4457 20.8091C86.4316 20.8091 88.992 18.5134 89.7195 15.4821Z" fill="#003BB3"/>
    <path fill-rule="evenodd" clip-rule="evenodd" d="M56.6009 20.799C61.1418 20.799 64.8228 17.0753 64.8228 12.4821C64.8228 7.88857 61.1418 4.16504 56.6009 4.16504C52.0601 4.16504 48.3789 7.88857 48.3789 12.4821C48.3789 17.0753 52.0601 20.799 56.6009 20.799ZM62.4256 13.5213C62.4858 13.1734 62.8803 12.8475 62.8803 12.4821C62.8803 12.1168 62.4858 11.7909 62.4256 11.4428C62.3636 11.085 62.6231 10.6428 62.5031 10.3089C62.381 9.96949 61.8999 9.79952 61.7232 9.4909C61.5449 9.1791 61.6387 8.67314 61.4112 8.39888C61.183 8.12401 60.6737 8.13026 60.402 7.89929C60.1312 7.66906 60.0492 7.16043 59.7411 6.98021C59.4358 6.80162 58.9596 6.98288 58.6239 6.8592C58.2939 6.73777 58.045 6.28821 57.6914 6.22556C57.3473 6.16453 56.9619 6.49997 56.6008 6.49997C56.2396 6.49997 55.8544 6.16453 55.5102 6.22556C55.1567 6.28821 54.9077 6.73777 54.5777 6.8592C54.2419 6.98288 53.7657 6.80162 53.4605 6.98021C53.1524 7.16043 53.0705 7.66906 52.7996 7.89929C52.5279 8.13026 52.0187 8.12401 51.7904 8.39888C51.563 8.67314 51.6567 9.1791 51.4784 9.4909C51.3018 9.79952 50.8207 9.96931 50.6985 10.3089C50.5784 10.6428 50.8379 11.085 50.776 11.4428C50.7158 11.7909 50.3213 12.1168 50.3213 12.4821C50.3213 12.8475 50.7158 13.1734 50.776 13.5213C50.8379 13.879 50.5784 14.3213 50.6985 14.6551C50.8207 14.9947 51.3018 15.1645 51.4784 15.4733C51.6567 15.785 51.563 16.2911 51.7904 16.5654C52.0187 16.8401 52.5279 16.8339 52.7996 17.0648C53.0705 17.295 53.1524 17.8036 53.4605 17.984C53.7657 18.1626 54.2419 17.9813 54.5777 18.1049C54.9077 18.2264 55.1567 18.676 55.5102 18.7387C55.8544 18.7997 56.2396 18.4641 56.6008 18.4641C56.9619 18.4641 57.3473 18.7997 57.6914 18.7387C58.045 18.676 58.2939 18.2264 58.6239 18.1049C58.9596 17.9813 59.4358 18.1626 59.7411 17.984C60.0492 17.8036 60.1312 17.295 60.402 17.0648C60.6737 16.8339 61.183 16.8401 61.4112 16.5654C61.6387 16.2911 61.5449 15.785 61.7232 15.4733C61.8999 15.1645 62.381 14.9947 62.5031 14.6551C62.6231 14.3213 62.3636 13.879 62.4256 13.5213Z" fill="#003BB3"/>
    <path fill-rule="evenodd" clip-rule="evenodd" d="M59.8063 9.82216C59.0511 8.91008 57.9169 8.33008 56.6486 8.33008C54.3747 8.33008 52.5312 10.1949 52.5312 12.4953C52.5312 12.5937 52.5346 12.6913 52.5412 12.7881C52.5769 12.779 52.6159 12.7744 52.6578 12.7744C52.9337 12.7744 53.3598 12.9664 53.9236 13.3448C54.3962 13.662 54.818 14.0158 55.0214 14.2203C55.574 13.3881 56.1117 12.6878 56.6645 12.0792C56.9816 11.7301 57.3077 11.4084 57.6339 11.1227C57.9846 10.8156 58.3473 10.5396 58.7114 10.3028L58.7125 10.3022C59.0651 10.0817 59.5349 9.81854 59.769 9.81854H59.7781C59.7877 9.81883 59.7972 9.82006 59.8063 9.82216ZM59.9204 9.9662C59.9204 9.98953 59.9148 10.0129 59.9037 10.0343C59.8532 10.1322 59.7233 10.254 59.5086 10.4553L59.5047 10.459C58.7944 11.1245 57.1311 12.6833 55.4891 16.2391C55.4466 16.3309 55.3694 16.3966 55.277 16.4235C55.706 16.5768 56.1678 16.6603 56.6486 16.6603C58.9226 16.6603 60.766 14.7955 60.766 12.4953C60.766 11.5441 60.4508 10.6674 59.9204 9.9662ZM54.8845 16.2597C54.8831 16.257 54.8816 16.2543 54.8803 16.2516C54.3432 15.2026 53.6018 14.2203 52.6769 13.3322L52.673 13.3285L52.6699 13.3245C52.6502 13.3008 52.6253 13.276 52.5987 13.2499C52.8399 14.5834 53.709 15.6949 54.8845 16.2597Z" fill="#003BB3"/>
  </g>
  <defs>
    <clipPath id="clip0_1646:50657">
      <rect width="90" height="20.8092" fill="white"/>
    </clipPath>
  </defs>
</svg>
