<svg width="228" height="61" viewBox="0 0 278 71" fill="none" xmlns="http://www.w3.org/2000/svg">
<g clip-path="url(#clip0_3858_80246)">
<path d="M101.352 10.4917L101.184 14.5332H88.4594V60.4969H83.8752V14.6131H70.8779V10.4917H101.352Z" fill="#766458"/>
<path d="M90.0117 62.1867H82.3225V16.2458H69.3252V8.81348H102.967L102.673 16.2229H90.0117V62.1867ZM85.4275 58.7616H86.9067V12.8436H99.7046V12.1814H72.4303V12.8778H85.4275V58.7616Z" fill="#766458"/>
<path d="M145.977 60.7023H141.592V10.8569H146.113C154.505 24.7092 162.953 38.5996 171.457 52.528L171.719 52.4481V10.8569H176.209V60.7023H171.719C163.278 46.7739 154.799 32.8037 146.281 18.7916L145.977 18.8715V60.7023Z" fill="#766458"/>
<path d="M177.73 62.3803H170.859L147.498 23.8946V62.3803H140.008V9.16699H146.91L170.104 47.3673V9.16699H177.699L177.73 62.3803ZM172.485 58.9553H174.583V12.5463H173.251V53.715L170.775 54.5028L145.242 12.5463H143.144V59.0124H144.435V17.5697L146.984 16.8504L172.485 58.9553Z" fill="#766458"/>
<path d="M245.842 42.9491C245.077 48.6574 249.273 54.9138 254.895 56.6491C260.518 58.3845 268.008 56.8318 270.568 48.5433H275.173C274.537 51.6288 273.034 54.4221 270.872 56.535C267.064 60.3139 262.48 61.5012 257.434 61.193C254.731 61.0634 252.092 60.2546 249.724 58.8297C247.888 57.7366 246.269 56.2589 244.96 54.4817C243.651 52.7045 242.678 50.663 242.098 48.4748C240.58 43.3906 240.673 37.8998 242.36 32.8795C244.647 26.098 249.273 22.2734 255.808 21.2345C260.438 20.3286 265.209 21.4443 269.089 24.3398C270.999 25.7875 272.584 27.6866 273.724 29.8949C274.865 32.1032 275.533 34.5637 275.676 37.0923C275.844 38.976 275.676 40.8826 275.676 42.9262L245.842 42.9491ZM271.271 38.9646C271.271 33.9527 269.76 29.934 265.847 27.2853C263.591 25.8225 261.002 25.078 258.377 25.1365C255.751 25.195 253.193 26.0542 250.993 27.6164C247.447 30.3792 245.926 34.2609 245.675 38.9646H271.271Z" fill="#766458"/>
<path d="M258.914 62.9399C258.4 62.9399 257.865 62.9399 257.35 62.9399C254.41 62.7913 251.539 61.9127 248.958 60.3711C246.943 59.1758 245.164 57.559 243.724 55.6135C242.283 53.668 241.21 51.4322 240.566 49.0343C238.944 43.5995 239.048 37.729 240.86 32.3659C243.273 25.1734 248.35 20.7665 255.546 19.6362C260.574 18.6678 265.75 19.8986 269.949 23.0613C272.043 24.6497 273.782 26.7304 275.037 29.1494C276.291 31.5683 277.03 34.2635 277.198 37.0353C277.288 38.4069 277.306 39.783 277.25 41.1568C277.25 41.7618 277.25 42.4012 277.25 43.0291V44.6389H247.311C247.469 49.0571 250.92 53.6581 255.305 54.9824C260.424 56.5351 266.928 54.9824 269.099 47.9725L269.456 46.8309H277.103L276.684 48.863C275.976 52.2967 274.309 55.4076 271.911 57.7681C268.36 61.2639 263.699 63.1187 258.914 62.9399ZM259.092 22.6845C258.067 22.6859 257.043 22.7699 256.029 22.9357C249.965 23.8833 245.853 27.4339 243.818 33.4847C242.247 38.1524 242.166 43.2599 243.587 47.984C244.112 49.9651 244.99 51.814 246.173 53.4245C247.356 55.035 248.819 56.3753 250.479 57.3685C252.643 58.6639 255.051 59.402 257.518 59.5263C262.627 59.8345 266.655 58.4531 269.823 55.3021C271.263 53.9025 272.38 52.1545 273.086 50.1988H271.638C270.985 51.9586 270.001 53.5503 268.749 54.8716C267.497 56.1928 266.005 57.2145 264.368 57.8708C261.185 59.1017 257.729 59.2294 254.476 58.2362C248.088 56.3068 243.43 49.1941 244.311 42.7094L244.5 41.2709H274.177C274.177 41.1796 274.177 41.0883 274.177 40.9969C274.228 39.7563 274.211 38.5134 274.124 37.2751C273.995 34.9909 273.394 32.7679 272.366 30.7715C271.338 28.775 269.909 27.0567 268.187 25.7442C265.529 23.7016 262.345 22.6303 259.092 22.6845ZM272.834 40.6544H244.028L244.122 38.862C244.427 33.2678 246.388 29.135 250.091 26.3036C252.547 24.5625 255.401 23.6026 258.331 23.532C261.262 23.4614 264.152 24.2829 266.676 25.904C270.788 28.7011 272.802 32.9824 272.823 39.0104L272.834 40.6544ZM247.395 37.2294H269.655C269.596 35.4969 269.142 33.8075 268.335 32.313C267.527 30.8185 266.392 29.5656 265.029 28.6669C263.035 27.3745 260.747 26.7152 258.427 26.7636C256.106 26.8121 253.843 27.5662 251.896 28.9409C250.645 29.9031 249.597 31.1439 248.821 32.5809C248.045 34.0178 247.559 35.618 247.395 37.2751V37.2294Z" fill="#766458"/>
<path d="M100.869 41.1911C100.869 35.4028 102.358 30.2425 106.303 26.1553C109.371 22.9916 113.407 21.1776 117.632 21.0634C124.01 20.7552 129.486 22.9015 133.367 28.6441C135.389 31.6868 136.552 35.3052 136.714 39.0562C137.142 43.3901 136.367 47.7642 134.49 51.6146C133.161 54.25 131.26 56.4915 128.953 58.1432C126.645 59.795 124.001 60.8069 121.251 61.0904C117.832 61.6523 114.336 61.1619 111.16 59.6748C104.866 56.6608 101.718 51.1351 100.921 43.874C100.869 43.2233 100.869 42.5839 100.869 41.9446C100.806 41.6934 100.869 41.4423 100.869 41.1911ZM132.213 40.8714C132.213 40.5289 132.15 39.9467 132.119 39.353C131.689 31.5326 127.325 26.2695 120.202 25.3104C117.396 24.8565 114.532 25.4342 112.061 26.952C109.591 28.4699 107.657 30.8411 106.565 33.6903C105.083 37.6821 104.836 42.0907 105.862 46.2487C107.079 51.5118 110.058 55.1195 114.947 56.5238C120.024 57.928 124.65 56.8206 128.405 52.6763C131.29 49.4911 132.15 45.4381 132.213 40.8714Z" fill="#766458"/>
<path d="M118.43 62.9627C115.712 62.9759 113.022 62.3733 110.531 61.1931C104.027 58.0991 100.282 52.3337 99.3692 44.068C99.3692 43.5428 99.2957 43.0291 99.2852 42.5267C99.2852 42.3669 99.2852 42.2071 99.2852 42.0472C99.2747 41.8419 99.2747 41.6361 99.2852 41.4307V41.2138C99.2852 34.3638 101.215 29.0893 105.202 24.9564C108.537 21.5091 112.929 19.5319 117.528 19.4079C124.871 19.0425 130.63 21.8168 134.626 27.6622C136.827 30.9623 138.093 34.8913 138.267 38.9647C138.715 43.6167 137.875 48.3085 135.854 52.4365C134.401 55.2913 132.331 57.7185 129.824 59.5086C127.316 61.2987 124.446 62.3979 121.461 62.7115C120.457 62.869 119.444 62.9529 118.43 62.9627ZM118.807 22.7301C118.419 22.7301 118.042 22.7301 117.653 22.7301C113.802 22.8247 110.12 24.4725 107.321 27.3539C103.985 30.7789 102.359 35.3456 102.359 41.1567V41.8417C102.359 42.013 102.359 42.1842 102.359 42.3555C102.359 42.8007 102.359 43.2232 102.432 43.6227C103.209 50.7239 106.261 55.4505 111.748 58.0649C114.665 59.4243 117.873 59.8711 121.01 59.355C126.57 58.5444 130.535 55.7131 133.105 50.7239C134.843 47.1737 135.549 43.1327 135.13 39.136C135 35.7087 133.942 32.3999 132.088 29.6258C128.93 25.0021 124.577 22.7301 118.807 22.7301ZM118.975 58.7841C117.488 58.7775 116.008 58.5665 114.569 58.1562C109.324 56.6835 105.768 52.7219 104.373 46.7395C103.261 42.2258 103.53 37.4406 105.139 33.1079C106.356 29.9152 108.517 27.2554 111.28 25.5495C114.042 23.8435 117.249 23.1889 120.391 23.6891C128.228 24.7509 133.189 30.5963 133.661 39.3072C133.661 39.7296 133.661 40.1635 133.735 40.4489V40.8485V40.8713C133.735 44.479 133.189 49.7307 129.539 53.8293C128.183 55.3975 126.546 56.6463 124.729 57.4986C122.912 58.3508 120.954 58.7884 118.975 58.7841ZM118.535 26.8972C116.301 26.843 114.103 27.5248 112.232 28.8531C110.36 30.1814 108.9 32.0943 108.044 34.3409C106.691 38.008 106.466 42.0541 107.405 45.8718C108.527 50.6897 111.202 53.7265 115.377 54.8796C117.467 55.5827 119.696 55.6345 121.812 55.0292C123.927 54.4238 125.844 53.1855 127.346 51.4546C129.581 48.9772 130.619 45.7463 130.693 40.9056V40.6544C130.693 40.3119 130.693 39.8666 130.619 39.4328C130.242 32.3659 126.423 27.822 120.056 26.9543C119.55 26.9038 119.042 26.8847 118.535 26.8972Z" fill="#766458"/>
<path d="M181.989 41.1911C181.989 35.4028 183.479 30.2425 187.434 26.1553C190.498 22.9924 194.531 21.1782 198.752 21.0634C205.141 20.7552 210.606 22.9015 214.488 28.6441C216.514 31.6843 217.678 35.3041 217.834 39.0562C218.26 43.3887 217.489 47.7611 215.621 51.6146C212.715 57.2316 208.194 60.2342 202.372 61.0905C198.952 61.6517 195.457 61.1613 192.28 59.6748C185.986 56.6608 182.839 51.1351 182.052 43.874C181.979 43.2461 181.979 42.6068 181.947 41.9674C181.979 41.6934 181.989 41.4423 181.989 41.1911ZM213.386 40.8714C213.386 40.5289 213.323 39.9467 213.292 39.353C212.872 31.5326 208.498 26.2695 201.375 25.3104C198.569 24.8544 195.703 25.4312 193.233 26.9493C190.762 28.4674 188.828 30.8399 187.738 33.6903C186.25 37.6808 186.004 42.0913 187.035 46.2487C188.252 51.5118 191.231 55.1195 196.109 56.5238C201.197 57.928 205.812 56.8206 209.568 52.6763C212.474 49.4911 213.334 45.4381 213.386 40.8714Z" fill="#766458"/>
<path d="M199.602 62.9627C196.885 62.9759 194.195 62.3733 191.703 61.1931C185.21 58.0991 181.455 52.3337 180.552 44.068C180.489 43.5428 180.479 43.0291 180.458 42.5267C180.458 42.3669 180.458 42.2071 180.458 42.0472C180.458 41.8874 180.458 41.6134 180.458 41.4307V41.2138C180.458 34.3638 182.388 29.0893 186.385 24.9564C189.719 21.5073 194.112 19.5298 198.711 19.4079C206.054 19.0425 211.813 21.8168 215.799 27.6622C217.999 30.9638 219.267 34.8913 219.45 38.9647C219.894 43.6165 219.054 48.3066 217.037 52.4365C215.583 55.2907 213.513 57.7173 211.006 59.5073C208.499 61.2973 205.629 62.397 202.645 62.7115C201.637 62.8686 200.621 62.9525 199.602 62.9627ZM199.98 22.7301C199.602 22.7301 199.214 22.7301 198.826 22.7301C194.978 22.8254 191.299 24.4732 188.504 27.3539C185.158 30.7789 183.542 35.3456 183.542 41.1567V41.4079C183.542 41.5563 183.542 41.6933 183.542 41.8417C183.542 41.9901 183.542 42.1842 183.542 42.3555C183.542 42.8007 183.542 43.2232 183.605 43.6113C184.392 50.7239 187.434 55.4505 192.931 58.0649C195.844 59.4251 199.049 59.872 202.183 59.355C207.753 58.5444 211.708 55.7131 214.289 50.7239C216.02 47.1713 216.726 43.1324 216.313 39.136C216.183 35.7087 215.125 32.3999 213.271 29.6258C210.114 25.0021 205.771 22.7301 199.98 22.7301ZM200.148 58.7841C198.664 58.7768 197.188 58.5658 195.753 58.1562C190.508 56.6835 186.941 52.7219 185.546 46.7395C184.437 42.2245 184.709 37.4393 186.322 33.1079C187.531 29.9054 189.689 27.2345 192.452 25.5197C195.216 23.8049 198.427 23.1445 201.575 23.6435C209.411 24.7052 214.373 30.5506 214.845 39.2616C214.845 39.6726 214.845 40.095 214.918 40.4032V40.8256V40.8713C214.918 44.479 214.383 49.7307 210.722 53.8293C209.364 55.3978 207.725 56.6467 205.907 57.499C204.088 58.3512 202.128 58.7886 200.148 58.7841ZM199.707 26.8972C197.473 26.8399 195.274 27.5203 193.402 28.849C191.529 30.1777 190.071 32.0924 189.217 34.3409C187.853 38.0054 187.628 42.0553 188.577 45.8718C189.689 50.6897 192.375 53.7265 196.539 54.8796C198.629 55.5827 200.858 55.6345 202.974 55.0292C205.089 54.4238 207.007 53.1855 208.509 51.4546C210.754 48.9772 211.782 45.7463 211.855 40.8941V40.6201C211.855 40.2891 211.803 39.8552 211.782 39.4785C211.393 32.4115 207.585 27.8677 201.218 27C200.717 26.9353 200.212 26.901 199.707 26.8972Z" fill="#766458"/>
<path d="M223.74 25.6757H218.768V21.6342H223.719V11.8843H228.177V21.6227H238.122V25.6414H228.335C228.335 26.3607 228.24 26.9087 228.24 27.4453C228.24 34.7748 228.24 42.1043 228.24 49.4225C228.242 50.6061 228.343 51.787 228.544 52.9502C228.648 53.8269 229.026 54.638 229.614 55.2472C230.203 55.8563 230.966 56.2265 231.775 56.2953C233.275 56.5008 234.807 56.4894 236.328 56.5579C236.895 56.5579 237.471 56.5579 238.111 56.5579V60.4396C237.811 60.5161 237.506 60.5657 237.199 60.588C235.447 60.588 233.685 60.588 231.954 60.588C226.793 60.3597 223.866 57.163 223.803 51.5688C223.708 43.5771 223.803 35.6539 223.75 27.685L223.74 25.6757Z" fill="#766458"/>
<path d="M234.513 62.3007C233.642 62.3007 232.761 62.3007 231.88 62.3007C225.827 62.0382 222.313 58.1451 222.24 51.6147C222.177 46.0205 222.177 40.335 222.24 34.8321C222.24 32.4574 222.24 30.0828 222.24 27.7081V27.4112H217.257V19.9904H222.208V10.1948H229.772V19.9333H239.716V27.3313H229.793V30.0713C229.793 36.419 229.793 42.9722 229.793 49.4798C229.802 50.5598 229.897 51.6369 230.076 52.6993C230.142 53.2073 230.371 53.6736 230.722 54.016C231.073 54.3585 231.524 54.5552 231.995 54.5716C233.045 54.72 234.094 54.7429 235.143 54.7885H236.38C236.727 54.7885 237.094 54.7885 237.492 54.7885H239.653V61.8783L238.353 62.1181H238.111C237.812 62.1952 237.506 62.2373 237.199 62.2437H234.513V62.3007ZM220.32 23.9862H225.292V34.7979C225.292 40.2779 225.292 45.952 225.292 51.5348C225.345 56.2156 227.579 58.6931 231.954 58.8757C233.275 58.8757 234.639 58.8757 235.95 58.8757H236.527V58.225H236.223H235.017C233.853 58.2116 232.69 58.1315 231.534 57.9852C230.398 57.8746 229.329 57.3501 228.501 56.4965C227.673 55.6429 227.134 54.5101 226.971 53.2815C226.79 52.0089 226.717 50.7212 226.75 49.4341C226.75 42.9837 226.75 36.419 226.75 30.0257V27.3998C226.75 26.9774 226.75 26.5664 226.813 26.1326C226.813 25.9385 226.813 25.7216 226.813 25.4932L226.908 23.9177H236.59V23.267H226.646V13.5628H225.282V23.3241H220.341L220.32 23.9862Z" fill="#766458"/>
<path d="M63.9125 39.41C63.4953 40.1551 63.2265 40.9873 63.1235 41.8526C63.0205 42.7179 63.0856 43.5971 63.3145 44.4333C63.6362 45.5528 63.6103 46.7564 63.2411 47.8583C62.8158 48.9837 62.0835 49.9401 61.1431 50.5984C60.4234 51.0788 59.8268 51.7493 59.4087 52.5476C58.9906 53.346 58.7645 54.2463 58.7513 55.1651C58.6861 56.3814 58.2555 57.5408 57.5258 58.4649C56.7962 59.389 55.8078 60.0266 54.7126 60.2797C53.8947 60.4861 53.1351 60.9056 52.4992 61.5022C51.8633 62.0989 51.3701 62.8547 51.0621 63.7048C50.583 64.8662 49.7789 65.8332 48.7647 66.4676C47.7234 67.0704 46.5356 67.3058 45.3659 67.1412C44.6924 67.0181 44.0017 67.0708 43.3506 67.2951C42.6995 67.5194 42.1067 67.9088 41.621 68.4313C41.0871 69.0677 40.4397 69.5791 39.7183 69.9343C38.9969 70.2896 38.2166 70.4813 37.4249 70.4977C36.8288 70.4932 36.236 70.401 35.6626 70.2237C33.6376 69.6138 31.4984 69.6138 29.4734 70.2237C28.969 70.3617 28.4514 70.4345 27.9313 70.4406C27.1419 70.4354 26.3619 70.2533 25.64 69.9056C24.9181 69.558 24.2697 69.0522 23.7353 68.4199C23.2728 67.8956 22.6987 67.5036 22.0637 67.2785C21.4288 67.0535 20.7526 67.0024 20.0952 67.1298C18.8666 67.3009 17.6192 67.0621 16.5181 66.4448C15.4586 65.7994 14.6195 64.7981 14.1263 63.5906C13.8064 62.7729 13.3155 62.0477 12.6927 61.4729C12.0698 60.8981 11.3322 60.4896 10.5387 60.2797C9.42797 59.9929 8.43354 59.3195 7.70637 58.3617C6.99355 57.3418 6.5771 56.1133 6.5105 54.834C6.48195 54.056 6.28574 53.2962 5.93769 52.616C5.58965 51.9358 5.09952 51.3541 4.50688 50.918C3.44925 50.176 2.63417 49.0891 2.17808 47.8127C1.76232 46.5093 1.72569 45.0981 2.07318 43.7712C2.26974 43.0011 2.29423 42.191 2.14459 41.4085C1.99495 40.626 1.67553 39.8938 1.21298 39.273C0.667608 38.5498 0.316322 37.6767 0.197858 36.75C0.0793935 35.8233 0.198352 34.8791 0.541617 34.0213C1.58988 31.4338 2.06078 28.6132 1.91582 25.7898C1.85579 24.8163 2.03973 23.8434 2.44803 22.9747C2.85633 22.1061 3.47366 21.3745 4.23414 20.8578C4.91662 20.3718 5.48227 19.715 5.88377 18.9424C6.28527 18.1697 6.51096 17.3037 6.54197 16.4167C6.60168 15.1952 7.01269 14.025 7.71686 13.0716C8.45359 12.1327 9.44545 11.4731 10.5492 11.1878C11.3633 11.0014 12.1237 10.6028 12.765 10.0261C13.4063 9.44942 13.9095 8.71193 14.2312 7.87698C14.6355 6.72682 15.3791 5.75525 16.3455 5.11471C17.3118 4.47417 18.4462 4.20091 19.5707 4.3378C21.6058 4.52047 22.8331 4.10946 23.9451 2.84221C24.7408 1.90698 25.7868 1.26792 26.9348 1.01553C28.0958 0.809598 29.2869 1.01364 30.3336 1.59779C31.0575 1.98135 31.852 2.18068 32.6571 2.18068C33.4623 2.18068 34.2568 1.98135 34.9807 1.59779C36.0278 0.967031 37.2451 0.756382 38.4203 1.00259C39.5956 1.24879 40.654 1.93622 41.4112 2.94496C41.8726 3.49322 42.4469 3.91462 43.0869 4.17459C43.727 4.43457 44.4145 4.52571 45.0932 4.44055C46.3924 4.25831 47.7112 4.53018 48.8591 5.21689C49.9738 5.96308 50.8381 7.0799 51.3243 8.40215C51.5798 9.06659 51.9795 9.65367 52.4893 10.113C52.9991 10.5723 53.6036 10.8902 54.2511 11.0394C55.5199 11.3299 56.6703 12.0539 57.5345 13.1058C58.3459 14.1742 58.8007 15.5103 58.8248 16.8962C58.9997 18.4167 59.7152 19.8021 60.8179 20.755C61.5945 21.6196 62.2968 22.5597 62.9159 23.5636L63.325 24.1801C63.5187 24.5176 63.6384 24.8991 63.6748 25.2951C63.7112 25.6911 63.6633 26.0908 63.5348 26.4634C63.1936 27.3868 63.0566 28.3845 63.1349 29.3761C63.2133 30.3677 63.5048 31.3254 63.9859 32.1718C64.5959 33.2654 64.9124 34.523 64.8994 35.8023C64.8865 37.0816 64.5446 38.3313 63.9125 39.41Z" fill="#766458"/>
<path d="M63.9649 32.1831C63.4838 31.3367 63.1923 30.379 63.114 29.3874C63.0356 28.3958 63.1726 27.3981 63.5139 26.4747C63.6423 26.1021 63.6902 25.7023 63.6538 25.3064C63.6174 24.9104 63.4978 24.5289 63.3041 24.1913L62.8949 23.5748C62.2758 22.5709 61.5735 21.6309 60.7969 20.7663C59.6997 19.8066 58.9918 18.4172 58.8248 16.8961C58.7984 15.5141 58.3437 14.1825 57.5345 13.1171C56.6703 12.0652 55.5199 11.3412 54.2511 11.0507C53.6036 10.9015 52.9991 10.5836 52.4893 10.1243C51.9796 9.66495 51.5798 9.07788 51.3243 8.41344C50.8381 7.09119 49.9738 5.97437 48.8591 5.22817C47.7112 4.54147 46.3924 4.2696 45.0932 4.45184C44.4145 4.537 43.727 4.44586 43.0869 4.18588C42.4469 3.92591 41.8726 3.50451 41.4112 2.95625C40.6555 1.94563 39.5976 1.25597 38.4223 1.00766C37.247 0.759356 36.029 0.968171 34.9807 1.59766C34.2568 1.98123 33.4623 2.18055 32.6571 2.18055C31.852 2.18055 31.0575 1.98123 30.3336 1.59766C29.2869 1.01351 28.0958 0.809469 26.9348 1.0154C25.7816 1.28027 24.735 1.9357 23.9451 2.88775C22.8331 4.155 21.6058 4.566 19.5707 4.33767C18.4475 4.19999 17.3141 4.4716 16.3479 5.10996C15.3817 5.74833 14.6373 6.7174 14.2312 7.86544C13.9109 8.70252 13.4083 9.4423 12.7669 10.021C12.1255 10.5998 11.3644 11.0002 10.5492 11.1877C9.44947 11.4636 8.4581 12.111 7.71686 13.0372C7.01269 13.9906 6.60169 15.1608 6.54197 16.3823C6.51096 17.2693 6.28527 18.1353 5.88377 18.908C5.48227 19.6806 4.91662 20.3374 4.23414 20.8234C3.47366 21.3401 2.85633 22.0717 2.44803 22.9404C2.03973 23.809 1.85579 24.7819 1.91582 25.7554C2.0658 28.5902 1.59479 31.4233 0.541617 34.0211C0.198352 34.8789 0.0793935 35.8232 0.197858 36.7499C0.316322 37.6765 0.667608 38.5496 1.21298 39.2728C1.67016 39.8967 1.98387 40.6303 2.12801 41.4127C2.27215 42.1951 2.24256 43.0036 2.04171 43.771C1.69422 45.0979 1.73085 46.5091 2.14661 47.8125C2.61098 49.0938 3.43753 50.1813 4.50689 50.9179C5.10232 51.3563 5.59416 51.9415 5.94235 52.626C6.29053 53.3105 6.48521 54.0748 6.5105 54.8567C6.5771 56.136 6.99355 57.3645 7.70637 58.3844C8.43666 59.3337 9.43074 59.9989 10.5387 60.2796C11.3346 60.4771 12.0772 60.8741 12.7073 61.439C13.3374 62.0039 13.8377 62.721 14.1683 63.5334C14.6615 64.7408 15.5006 65.7421 16.56 66.3875C17.6433 67.0154 18.8751 67.2739 20.0952 67.1296C20.7512 67.0138 21.4233 67.075 22.0525 67.3079C22.6817 67.5408 23.2487 67.9383 23.7038 68.4654C24.2383 69.0977 24.8866 69.6035 25.6086 69.9512C26.3305 70.2988 27.1104 70.4809 27.8999 70.4861C28.4199 70.48 28.9375 70.4072 29.4419 70.2692C31.4669 69.6593 33.6061 69.6593 35.6311 70.2692C36.2045 70.4465 36.7973 70.5387 37.3934 70.5432C38.1851 70.5268 38.9654 70.3351 39.6868 69.9799C40.4082 69.6246 41.0556 69.1132 41.5895 68.4768C42.0735 67.939 42.6693 67.5359 43.3266 67.3014C43.9839 67.067 44.6833 67.008 45.3659 67.1296C46.5356 67.2942 47.7234 67.0588 48.7647 66.456C49.7773 65.8246 50.5812 64.8618 51.0621 63.7046C51.3701 62.8546 51.8633 62.0987 52.4992 61.5021C53.1351 60.9055 53.8947 60.4859 54.7126 60.2796C55.8055 60.0215 56.7905 59.3803 57.5162 58.4543C58.242 57.5283 58.6685 56.3687 58.7304 55.1535C58.7435 54.2347 58.9696 53.3344 59.3877 52.5361C59.8058 51.7378 60.4024 51.0673 61.1221 50.5868C62.0625 49.9285 62.7948 48.9722 63.2201 47.8468C63.5894 46.7448 63.6152 45.5413 63.2936 44.4218C63.0646 43.5856 62.9996 42.7063 63.1026 41.841C63.2056 40.9757 63.4743 40.1436 63.8915 39.3984C64.5194 38.3223 64.859 37.0768 64.8719 35.8021C64.8849 34.5274 64.5708 33.2741 63.9649 32.1831ZM62.9998 38.8618C62.514 39.7394 62.2024 40.718 62.0849 41.7345C61.9675 42.7511 62.0469 43.7831 62.318 44.7643C62.5917 45.6798 62.5658 46.6702 62.2445 47.5672C61.9232 48.4642 61.3265 49.2125 60.5556 49.6849C59.707 50.2674 59.0041 51.0696 58.5099 52.0199C58.0156 52.9702 57.7454 54.039 57.7233 55.1307C57.6683 56.1036 57.323 57.0303 56.7399 57.7701C56.1567 58.5099 55.3675 59.0222 54.4923 59.2293C53.5275 59.4555 52.6271 59.9316 51.8674 60.6173C51.1077 61.303 50.5112 62.178 50.1285 63.168C49.758 64.1408 49.0963 64.9487 48.2508 65.4606C47.4053 65.9725 46.4256 66.1583 45.4708 65.988C44.6418 65.8453 43.7935 65.9178 42.995 66.1995C42.1966 66.4812 41.4706 66.9642 40.8762 67.6091C40.2725 68.3568 39.4815 68.8966 38.6002 69.1622C37.7188 69.4279 36.7854 69.4079 35.9143 69.1047C34.8894 68.7955 33.8309 68.638 32.7673 68.6366C31.5634 68.6455 30.3652 68.818 29.2006 69.1504C28.7832 69.2721 28.353 69.3335 27.9209 69.3331C27.2774 69.3279 26.642 69.177 26.0551 68.8901C25.4681 68.6031 24.9425 68.1863 24.5116 67.6662C23.9444 67.0144 23.2409 66.5215 22.461 66.2293C21.6811 65.937 20.8479 65.8543 20.0323 65.988C19.0309 66.1743 18.001 65.9899 17.1072 65.4642C16.2134 64.9385 15.5074 64.1019 15.1019 63.0881C14.7122 62.1225 14.1202 61.2696 13.3734 60.5976C12.6266 59.9255 11.7456 59.453 10.801 59.2178C9.86832 58.9944 9.03362 58.4314 8.43473 57.6218C7.83585 56.8123 7.5086 55.8046 7.50706 54.7653C7.47484 53.8218 7.23979 52.8995 6.82078 52.0728C6.40176 51.2459 5.81045 50.5376 5.09433 50.0046C4.1888 49.4084 3.49627 48.4951 3.13031 47.4143C2.76436 46.3336 2.7467 45.1496 3.08023 44.0564C3.31501 43.1214 3.34233 42.139 3.15995 41.1903C2.97757 40.2415 2.59071 39.3534 2.03121 38.5992C1.59713 38.0313 1.31394 37.345 1.21225 36.6146C1.11056 35.8842 1.19425 35.1374 1.45426 34.455C2.57262 31.7117 3.07254 28.7173 2.91239 25.7212C2.86886 24.9457 3.01955 24.1718 3.34839 23.4822C3.67724 22.7925 4.1719 22.213 4.77963 21.8053C5.59097 21.2246 6.26411 20.4426 6.74372 19.5237C7.22334 18.6048 7.49574 17.5751 7.53853 16.5193C7.55521 15.5169 7.89037 14.5517 8.48705 13.7878C9.08373 13.024 9.90508 12.5086 10.8115 12.3294C11.7777 12.1029 12.6792 11.6254 13.4391 10.9375C14.199 10.2496 14.7947 9.3719 15.1753 8.37919C15.4934 7.44855 16.0861 6.65901 16.8606 6.13425C17.6351 5.6095 18.5476 5.37917 19.4553 5.47934C20.4011 5.6692 21.3753 5.60065 22.2907 5.27985C23.2062 4.95905 24.0341 4.39602 24.7004 3.64125C25.3244 2.84526 26.1806 2.30661 27.1258 2.11542C28.071 1.92422 29.0479 2.09208 29.893 2.59091C30.7496 3.05018 31.6917 3.28904 32.6467 3.28904C33.6016 3.28904 34.5437 3.05018 35.4003 2.59091C36.256 2.06914 37.2549 1.89743 38.2167 2.10679C39.1785 2.31614 40.0399 2.89276 40.6454 3.73258C41.2124 4.40528 41.9176 4.92248 42.7034 5.24193C43.4892 5.56138 44.3332 5.67403 45.1666 5.57068C46.2566 5.36092 47.3795 5.58146 48.3334 6.1926C49.2873 6.80374 50.0093 7.76535 50.3697 8.90436C50.6878 9.73013 51.1852 10.4596 51.8192 11.0303C52.4532 11.601 53.2048 11.9958 54.0098 12.181C55.0624 12.3653 56.0203 12.9513 56.7122 13.834C57.4041 14.7167 57.7848 15.8385 57.7862 16.9988C57.9726 18.7925 58.802 20.4337 60.0941 21.5655C60.8165 22.3855 61.4728 23.2717 62.0557 24.2142L62.4544 24.8307C62.5497 25.011 62.6067 25.2123 62.6213 25.4197C62.6358 25.6271 62.6074 25.8355 62.5383 26.0294C62.1373 27.1192 61.9795 28.2969 62.078 29.4658C62.1765 30.6348 62.5284 31.7617 63.1047 32.7539C63.6207 33.6782 63.8848 34.7431 63.8662 35.8244C63.8476 36.9058 63.5472 37.9591 62.9998 38.8618Z" fill="#766458"/>
<path d="M23.2949 39.5356L24.6691 38.1199L27.7008 41.5449L36.9426 27.4795L38.5371 28.7353L28.0469 44.7187L23.2949 39.5356Z" fill="white"/>
<path d="M32.4942 60.8962H31.9802V58.4302H33.4173L33.4907 60.8962H32.4417H32.4942ZM32.3683 60.4852H33.1236L33.0711 58.8526H32.3893L32.3683 60.4852ZM30.3227 60.7935H30.1339L28.98 60.6337H28.7912L29.1373 58.1905H29.3262L30.3752 58.3389H30.564L30.3227 60.7935ZM29.2737 60.2226C29.515 60.2226 29.7667 60.3026 30.0185 60.3254L30.1759 58.7042L29.494 58.6129L29.2737 60.2226ZM35.2216 60.7364L34.9384 58.2818H35.1377L36.1867 58.1106H36.3755L36.7741 60.5423H36.5853C36.2077 60.6108 35.8195 60.6793 35.4419 60.725L35.2216 60.7364ZM35.3685 58.6471L35.5153 60.2797L36.2601 60.1541L36.0084 58.5444L35.3685 58.6471ZM27.1547 60.2797H26.9659C26.5987 60.177 26.2211 60.0628 25.8539 59.9372H25.6651L26.3155 57.574H26.5043L27.5533 57.8822H27.7421L27.1547 60.2797ZM26.1057 59.5491L26.8295 59.7774L27.1967 58.1905L26.5777 57.9964L26.1057 59.5491ZM38.2952 60.1427L37.6973 57.7566H37.8861L38.9351 57.4256L39.1239 57.3571L39.8268 59.7089L39.6484 59.7774C39.2813 59.903 38.9036 60.0286 38.526 60.1313L38.2952 60.1427ZM38.2113 57.9964L38.6099 59.5719L39.3337 59.3321L38.8617 57.7909L38.2113 57.9964ZM24.0916 59.1381H23.9132L22.8642 58.6357L22.6859 58.5444L23.6405 56.261L23.8083 56.341C24.1335 56.5122 24.4587 56.6606 24.7734 56.7976L24.9518 56.8776L24.0916 59.1381ZM23.2419 58.3046L23.9342 58.6357L24.4902 57.1173L23.8188 56.8547L23.2419 58.3046ZM41.4213 58.9668L40.5296 56.6835L40.7079 56.6035L41.6521 56.1355L41.8304 56.0441L42.8269 58.259L42.6591 58.3503C42.3129 58.533 41.9563 58.7156 41.6101 58.8755L41.4213 58.9668ZM41.0331 56.9232L41.6311 58.4188L42.3129 58.0763L41.6521 56.615L41.0331 56.9232ZM21.2488 57.6767L21.0809 57.574C20.7452 57.3685 20.42 57.1401 20.0948 56.9118L19.927 56.7976L21.1439 54.7312L21.3117 54.8454L22.2034 55.439L22.3712 55.5418L21.2488 57.6767ZM20.462 56.6721L21.1124 57.1059L21.8047 55.713L21.2173 55.3249L20.462 56.6721ZM44.2221 57.4027L43.0472 55.2906L43.2151 55.1765L44.0963 54.5714L44.2536 54.4458L45.5229 56.4894L45.3656 56.615L44.39 57.2886L44.2221 57.4027ZM43.5822 55.4276L44.369 56.8547C44.5788 56.7177 44.7886 56.5693 44.9984 56.4095L44.1592 55.0623L43.5822 55.4276ZM18.5213 55.713L18.364 55.576C18.0598 55.3249 17.766 55.0509 17.4723 54.7769L17.3254 54.6399L18.8046 52.7675L18.9514 52.9045C19.2137 53.1557 19.4864 53.3955 19.7592 53.6352L19.9165 53.7608L18.5213 55.713ZM17.8709 54.5714C18.0598 54.754 18.2591 54.9253 18.4584 55.0965L19.371 53.8065L18.8465 53.3384L17.8709 54.5714ZM46.8657 55.3477L45.439 53.4297H45.5859C45.8586 53.1899 46.1209 52.9388 46.3831 52.6876L46.5195 52.5392L48.0405 54.3773L47.9042 54.5143C47.6104 54.8035 47.3167 55.0775 47.023 55.3363L46.8657 55.3477ZM45.974 53.4868L46.9286 54.754L47.4951 54.2175L46.4985 53.0073C46.3202 53.2356 46.1523 53.4297 45.974 53.5553V53.4868ZM16.1191 53.4297L15.9827 53.2813C15.71 52.9844 15.4477 52.6648 15.196 52.3565L15.0701 52.1967L16.7695 50.5641L16.8954 50.7239C17.1261 51.0094 17.3674 51.2948 17.6087 51.5688L17.7451 51.7172L16.1191 53.4297ZM15.6156 52.288L16.1191 52.8931L17.1681 51.7514L16.738 51.1464L15.6156 52.288ZM49.184 53.0986L47.5265 51.4089L47.6524 51.2605C47.8902 50.9865 48.121 50.7011 48.3448 50.4043L48.4706 50.2444L50.212 51.8314L50.0861 51.9912C49.8344 52.3223 49.5721 52.6305 49.3203 52.9388L49.184 53.0986ZM48.0615 51.3861L49.1105 52.5278L49.6141 51.9113L48.4602 50.8609C48.4182 50.9751 48.2608 51.1464 48.1035 51.3404L48.0615 51.3861ZM13.9896 50.8381L13.8742 50.6783C13.6434 50.3358 13.4231 49.9818 13.2133 49.6393L13.1084 49.4567L14.9966 48.1095L15.112 48.2808C15.2904 48.589 15.4897 48.9087 15.6995 49.2169L15.8149 49.3882L13.9896 50.8381ZM13.6434 49.5823C13.7798 49.8106 13.9266 50.0389 14.0735 50.2559L15.2799 49.2968L14.8917 48.6803L13.6434 49.5823ZM51.2191 50.3929L49.3623 48.9772L49.4672 48.8059C49.6665 48.4977 49.8658 48.178 50.0442 47.8583L50.1491 47.6871L52.0688 48.9886L51.9743 49.1713C51.7645 49.5252 51.5547 49.8791 51.3344 50.2216L51.2191 50.3929ZM49.9393 48.863L51.1666 49.7992C51.3135 49.5708 51.4498 49.3425 51.5862 49.1142L50.3169 48.2465L49.9393 48.863ZM12.3007 47.8926L12.2063 47.7213C12.0279 47.356 11.8496 46.9793 11.6818 46.5797L11.5978 46.397L13.6959 45.3352L13.7798 45.5293C13.9266 45.8604 14.084 46.2029 14.2518 46.5454L14.3358 46.7281L12.3007 47.8926ZM12.1119 46.5797L12.458 47.3103L13.8008 46.5797L13.4861 45.9175L12.1119 46.5797ZM52.9289 47.3903L50.9148 46.2486L50.9988 46.0659C51.1561 45.7234 51.303 45.3809 51.4498 45.0384L51.5233 44.8443L53.6213 45.849L53.5374 46.0431C53.3905 46.4198 53.2227 46.808 53.0443 47.1848L52.9289 47.3903ZM51.4289 46.0887L52.7611 46.8308C52.8765 46.5797 52.9814 46.3285 53.0863 46.0887L51.7226 45.438C51.6282 45.6207 51.5652 45.849 51.4289 46.0659V46.0887ZM10.9579 44.6845L10.895 44.4904C10.7551 44.087 10.6292 43.6874 10.5174 43.2916V43.0976L12.6783 42.3669L12.7413 42.561C12.8462 42.9263 12.9511 43.2916 13.0769 43.7027L13.1399 43.8967L10.9579 44.6845ZM10.9579 43.3716C11.0314 43.6342 11.1153 43.8967 11.1992 44.1479L12.6049 43.5885L12.3846 42.8921L10.9579 43.3716ZM54.2192 44.1593L52.0688 43.3602L52.1317 43.1661C52.2471 42.8121 52.352 42.4468 52.4464 42.0815L52.4988 41.876L54.6808 42.561L54.6283 42.7551C54.5234 43.1661 54.4081 43.5657 54.2822 43.9652L54.2192 44.1593ZM52.5513 43.1547L53.9675 43.6912C54.0409 43.4287 54.1248 43.1661 54.1878 42.9035L52.7506 42.4582C52.6877 42.6295 52.6142 42.8692 52.5513 43.1547ZM10.0453 41.3394V41.1339C9.96138 40.7343 9.88795 40.3119 9.82501 39.9009V39.6954L12.0699 39.2958V39.5013C12.0699 39.878 12.1853 40.2548 12.2587 40.643V40.8485L10.0453 41.3394ZM10.2026 40.0379C10.2026 40.3119 10.2866 40.5745 10.339 40.8485L11.8076 40.506C11.8076 40.2662 11.7132 40.0151 11.6818 39.7753L10.2026 40.0379ZM55.0584 40.7914L52.824 40.3347V40.1292C52.887 39.7639 52.9394 39.3871 52.9919 38.9875V38.782L55.2473 39.1245V39.3301C55.2473 39.7411 55.1319 40.1635 55.0584 40.5745V40.7914ZM53.2751 40.0036L54.7437 40.3005C54.7437 40.0379 54.8382 39.7639 54.8696 39.4899L53.3905 39.273C53.359 39.5127 53.3171 39.7296 53.2751 40.0036ZM9.60471 37.8915V37.686C9.60471 37.2636 9.60471 36.8412 9.60471 36.4188V36.2133L11.8706 36.1562V36.3731C11.8706 36.7499 11.8706 37.1266 11.8706 37.5148V37.7317L9.60471 37.8915ZM9.92991 36.6243V37.4463L11.43 37.3321C11.43 37.081 11.43 36.8298 11.43 36.59L9.92991 36.6243ZM55.499 37.3321L53.2332 37.2065V37.001C53.2332 36.6243 53.2332 36.2475 53.2332 35.8594V35.5169H55.499V35.8708C55.499 36.2932 55.499 36.727 55.499 37.138V37.3321ZM53.6423 36.8184L55.1319 36.8983C55.1319 36.5786 55.1319 36.2475 55.1319 35.9279H53.6633C53.6633 36.2247 53.6632 36.5215 53.6003 36.8184H53.6423ZM11.8286 34.535L9.57324 34.3752V34.1583C9.57324 33.7473 9.63618 33.3249 9.67814 32.9024V32.6969L11.9335 32.9824V33.1879C11.9335 33.5646 11.8601 33.9528 11.8391 34.3295L11.8286 34.535ZM9.9404 34.0213L11.43 34.1354L11.4929 33.3934L10.0033 33.2107L9.9404 34.0213ZM53.1597 33.9414V33.7359C53.1597 33.3591 53.0863 32.9709 53.0338 32.5942V32.3773L55.2787 32.0233V32.2288C55.3417 32.6513 55.3836 33.0737 55.4151 33.4847V33.7016L53.1597 33.9414ZM53.422 32.7426C53.422 32.9938 53.4849 33.2335 53.5059 33.4847L54.9955 33.3249C54.9955 33.0623 54.9431 32.7883 54.9011 32.5143L53.422 32.7426ZM12.1538 31.4525L9.92991 30.9388V30.7333C10.0138 30.3337 10.0977 29.9113 10.1922 29.5117L10.2446 29.3062L12.437 29.9341V30.1282C12.3426 30.4935 12.2692 30.8703 12.1958 31.2698L12.1538 31.4525ZM10.3915 30.5963L11.8601 30.9273C11.8601 30.6876 11.9545 30.4478 12.007 30.2081L10.5593 29.7971C10.4964 30.0825 10.4439 30.3565 10.3915 30.5963ZM52.7087 30.8018V30.5963C52.6352 30.2309 52.5408 29.8542 52.4464 29.4546L52.3835 29.2605L54.5654 28.5641V28.7696C54.6808 29.1806 54.7752 29.5916 54.8696 29.9912V30.1967L52.7087 30.8018ZM52.824 29.5802C52.887 29.8199 52.9394 30.0597 53.0024 30.288L54.45 29.9113C54.4011 29.6525 54.3381 29.3899 54.2612 29.1235L52.824 29.5802ZM12.9091 28.4385L10.8111 27.5937L10.874 27.3996C11.0104 27.0114 11.1468 26.6118 11.2936 26.2579L11.3775 26.0638L13.4756 27.0114L13.4021 27.2055C13.2658 27.5594 13.1399 27.9133 13.0245 28.2787L12.9091 28.4385ZM11.2726 27.2968L12.6783 27.8562L12.9301 27.1598L11.5454 26.5319C11.451 26.8059 11.3566 27.0685 11.2726 27.3197V27.2968ZM51.8694 27.7877L51.8065 27.5937C51.6806 27.2397 51.5442 26.8858 51.3974 26.5433L51.3135 26.3607L53.4115 25.3331L53.4954 25.5272C53.6528 25.9154 53.8101 26.3036 53.9465 26.6689L54.0199 26.863L51.8694 27.7877ZM51.8694 26.5662C51.9639 26.7945 52.0478 27.0114 52.1317 27.2397L53.5269 26.6461C53.4325 26.3949 53.3381 26.1437 53.2332 25.8926L51.8694 26.5662ZM14.105 25.5044L12.1014 24.3627L12.1958 24.1801C12.3741 23.8033 12.5734 23.438 12.7622 23.0384L12.8671 22.8557L14.8078 24.1116L14.7134 24.2942C14.5351 24.6253 14.3672 24.9564 14.1994 25.2875L14.105 25.5044ZM12.6259 24.1686L13.9476 24.9336L14.2833 24.2828L12.993 23.4494L12.6259 24.1686ZM50.705 24.9336L50.5162 24.7737C50.3484 24.4541 50.17 24.123 49.9812 23.8033L49.8763 23.6206L51.796 22.3077L51.9009 22.479C52.1107 22.8329 52.31 23.1982 52.4988 23.5636L52.6142 23.7462L50.705 24.9336ZM50.5057 23.7919C50.6211 23.9974 50.747 24.2143 50.8519 24.4198L52.1632 23.6206L51.775 22.9242L50.5057 23.7919ZM15.5631 22.8329L13.7168 21.383L13.8322 21.2117C14.063 20.8806 14.2938 20.5381 14.5351 20.207L14.661 20.0472L16.4338 21.5885L16.3079 21.7597C16.0876 22.0451 15.8778 22.3534 15.6785 22.6616L15.5631 22.8329ZM14.2623 21.2916L15.4792 22.2506C15.6051 22.0451 15.7519 21.851 15.8883 21.657L14.7239 20.6409L14.2623 21.2916ZM49.0896 22.3191L48.9742 22.1593C48.7644 21.8625 48.5336 21.5542 48.3133 21.2688L48.1874 21.109L49.9183 19.5106L50.0442 19.6705C50.2959 19.9901 50.5372 20.3212 50.768 20.6523L50.8834 20.8235L49.0896 22.3191ZM48.7329 21.1775L49.1525 21.7597L50.3484 20.7665L49.8763 20.1271L48.7329 21.1775ZM17.3884 20.424L15.7519 18.7115L15.8883 18.563C16.161 18.2548 16.4338 17.9579 16.717 17.6725L16.8534 17.5241L18.4059 19.3165L18.2696 19.465L17.5248 20.2641L17.3884 20.424ZM16.3394 18.7L17.3884 19.8417C17.5457 19.659 17.7136 19.4878 17.8709 19.3165L16.8219 18.1749L16.3394 18.7ZM47.2328 19.9673L47.0964 19.8189C46.8552 19.5563 46.6034 19.2937 46.3307 19.0425L46.1943 18.8941L47.7049 17.056L47.8412 17.193C48.135 17.4784 48.4182 17.7639 48.6909 18.0607L48.8273 18.2091L47.2328 19.9673ZM46.7398 18.8256L47.2328 19.328L48.2818 18.1863L47.7363 17.6269L46.7398 18.8256ZM19.5598 18.2319L18.1122 16.3254L18.2591 16.1884C18.5633 15.9372 18.878 15.6746 19.1927 15.4349L19.35 15.3093L20.6613 17.33L20.504 17.4442L19.6647 18.1292L19.5598 18.2319ZM18.6997 16.371L19.6228 17.6497L20.1683 17.2044L19.2976 15.8801L18.6997 16.371ZM45.0613 17.8438L44.904 17.7182C44.6313 17.5013 44.3375 17.2729 44.0438 17.0674L43.8865 16.9533L45.1453 14.8983L45.3131 15.0124C45.6278 15.2408 45.9425 15.4919 46.2572 15.7431L46.4146 15.8687L45.0613 17.8438ZM44.3795 16.8962C44.5683 17.0332 44.7571 17.1702 44.9355 17.3186L45.8271 16.0171C45.6278 15.8459 45.418 15.686 45.2082 15.5376L44.3795 16.8962ZM21.8887 16.4966L20.7452 14.3617L20.9131 14.2589C21.2488 14.0534 21.5844 13.8479 21.9621 13.6538L22.1299 13.5511L23.1789 15.7431L23.0006 15.8459L22.088 16.3939L21.8887 16.4966ZM21.2697 14.5215L22.025 15.9258L22.623 15.5719L21.9306 14.1219L21.2697 14.5215ZM42.5962 16.1769L42.4283 16.0856C42.1241 15.9029 41.8094 15.7203 41.4947 15.5604L41.3269 15.4691L42.3129 13.1858L42.4808 13.2771C42.8374 13.4598 43.1871 13.6538 43.5298 13.8593L43.6976 13.9621L42.5962 16.1769ZM41.8409 15.275C42.0402 15.3892 42.2395 15.4919 42.4388 15.6175L43.1731 14.1448L42.5018 13.768L41.8409 15.275ZM24.4692 15.0809L23.609 12.7976L23.7874 12.7177C24.144 12.5578 24.5007 12.4094 24.8364 12.2724L25.0252 12.1925L25.77 14.5329L25.5917 14.6014L24.6161 15.001L24.4692 15.0809ZM24.1126 13.0259L24.679 14.5329L25.3189 14.2703L24.8154 12.7291L24.1126 13.0259ZM40.0261 14.8069L39.8373 14.7384C39.5121 14.6014 39.1869 14.4758 38.8512 14.3617L38.6624 14.2932L39.3547 11.9413L39.5435 12.0098C39.9142 12.1316 40.2639 12.2686 40.5926 12.4208L40.7709 12.5008L40.0261 14.8069ZM39.1554 14.0192L39.7953 14.2703L40.3198 12.7405L39.6065 12.4779L39.1554 14.0192ZM27.2491 14.0192L26.6512 11.6445L26.8295 11.5874L27.9624 11.3134H28.1513L28.6023 13.7338H28.4135C28.0673 13.8023 27.7317 13.8936 27.3645 13.9849L27.2491 14.0192ZM27.1547 11.9299L27.4379 13.5283L28.0988 13.3684L27.8156 11.7701C27.6058 11.8158 27.3645 11.8843 27.1127 11.9413L27.1547 11.9299ZM37.2567 13.8708H37.0679C36.7322 13.7908 36.386 13.7109 36.0189 13.6538H35.83L36.1972 11.1878H36.386L37.5189 11.439H37.7078L37.2567 13.8708ZM36.3021 13.2314L36.963 13.3684L37.2882 11.7815L36.5539 11.6217L36.3021 13.2314ZM30.0395 13.4712L29.7982 11.0166H29.987C30.3717 10.9709 30.7598 10.9367 31.1514 10.9138H31.3403L31.4661 13.3798H31.2773L30.2283 13.4712H30.0395ZM30.2283 11.3933L30.3857 13.0145L31.0675 12.946L30.9731 11.302C30.7213 11.3134 30.4696 11.3362 30.2283 11.3705V11.3933ZM34.3614 13.4027H34.1726C33.8264 13.4027 33.4802 13.3456 33.1236 13.3342H32.9348L32.9977 10.8682H33.197C33.5747 10.8682 33.9733 10.8682 34.3509 10.9367H34.5397L34.3614 13.4027ZM33.3124 12.9118H33.9838L34.1097 11.2906H33.3544L33.3124 12.9118Z" fill="white"/>
</g>
<defs>
<clipPath id="clip0_3858_80246">
<rect width="277.149" height="69.5393" fill="white" transform="translate(0.166016 0.915039)"/>
</clipPath>
</defs>
</svg>
