<svg width="16" height="16" viewBox="0 0 16 16" fill="none" xmlns="http://www.w3.org/2000/svg">
<path d="M10.0137 8.22374C9.88585 8.09589 9.88585 7.90411 10.0137 7.77626L14.8082 2.98174C14.9361 2.85388 15 2.6621 15 2.53425C15 2.40639 14.9361 2.21461 14.8082 2.08676L13.9132 1.19178C13.7854 1.06393 13.5936 1 13.4658 1C13.274 1 13.1461 1.06393 13.0183 1.19178L8.22374 5.9863C8.09589 6.11416 7.90411 6.11416 7.77626 5.9863L2.98174 1.19178C2.85388 1.06393 2.6621 1 2.53425 1C2.40639 1 2.21461 1.06393 2.08676 1.19178L1.19178 2.08676C1.06393 2.21461 1 2.40639 1 2.53425C1 2.6621 1.06393 2.85388 1.19178 2.98174L5.9863 7.77626C6.11416 7.90411 6.11416 8.09589 5.9863 8.22374L1.19178 13.0183C1.06393 13.1461 1 13.3379 1 13.4658C1 13.5936 1.06393 13.7854 1.19178 13.9132L2.08676 14.8082C2.21461 14.9361 2.40639 15 2.53425 15C2.6621 15 2.85388 14.9361 2.98174 14.8082L7.77626 10.0137C7.90411 9.88585 8.09589 9.88585 8.22374 10.0137L13.0183 14.8082C13.1461 14.9361 13.3379 15 13.4658 15C13.5936 15 13.7854 14.9361 13.9132 14.8082L14.8082 13.9132C14.9361 13.7854 15 13.5936 15 13.4658C15 13.3379 14.9361 13.1461 14.8082 13.0183L10.0137 8.22374Z" fill="black"/>
</svg>
