<svg width="20" height="19" viewBox="0 0 20 19" fill="none" xmlns="http://www.w3.org/2000/svg">
  <path d="M17.0166 2.50052C15.1354 0.888064 12.6435 0 10 0C7.35652 0 4.86465 0.888064 2.98342 2.50052C1.05955 4.14955 0 6.35471 0 8.70968C0 11.0646 1.05955 13.2698 2.98342 14.9188C3.32819 15.2144 3.69361 15.4853 4.07658 15.7311C3.36942 16.7966 2.54271 17.7759 1.6129 18.6471C3.6411 18.4793 5.56419 17.9419 7.31581 17.1036C8.17935 17.3116 9.08045 17.4194 10 17.4194C12.6435 17.4194 15.1354 16.5313 17.0166 14.9188C18.9405 13.2698 20 11.0646 20 8.70968C20 6.35471 18.9405 4.14955 17.0166 2.50052ZM5.48387 10C4.77123 10 4.19355 9.42232 4.19355 8.70968C4.19355 7.99703 4.77123 7.41935 5.48387 7.41935C6.19652 7.41935 6.77419 7.99703 6.77419 8.70968C6.77419 9.42232 6.19652 10 5.48387 10ZM10 10C9.28735 10 8.70968 9.42232 8.70968 8.70968C8.70968 7.99703 9.28735 7.41935 10 7.41935C10.7126 7.41935 11.2903 7.99703 11.2903 8.70968C11.2903 9.42232 10.7126 10 10 10ZM14.5161 10C13.8035 10 13.2258 9.42232 13.2258 8.70968C13.2258 7.99703 13.8035 7.41935 14.5161 7.41935C15.2288 7.41935 15.8065 7.99703 15.8065 8.70968C15.8065 9.42232 15.2288 10 14.5161 10Z" fill="#363740"/>
</svg>
