<svg width="16" height="16" viewBox="0 0 16 16" fill="none" xmlns="http://www.w3.org/2000/svg">
  <path d="M13.7143 0H2.28571C1.02336 0 0 1.02329 0 2.28571V13.7143C0 14.9766 1.02336 16 2.28571 16H13.7143C14.9766 16 16 14.9766 16 13.7143V2.28571C16 1.02329 14.9766 0 13.7143 0ZM12.1361 6.42186L7.56471 10.9933C7.36943 11.1886 7.11271 11.2857 6.85714 11.2857C6.60157 11.2857 6.34486 11.1886 6.14957 10.9933L3.86386 8.70757C3.47432 8.31697 3.47432 7.68304 3.86386 7.29243C4.25446 6.90179 4.88839 6.90179 5.279 7.29243L6.85714 8.87164L10.721 5.00671C11.1116 4.61607 11.7455 4.61607 12.1361 5.00671C12.5257 5.39732 12.5257 6.03125 12.1361 6.42186Z" fill="#766458"/>
</svg>
