<svg width="24" height="24" viewBox="0 0 24 24" fill="none" xmlns="http://www.w3.org/2000/svg">
  <g clip-path="url(#clip0_4504:1200)">
    <path d="M12.0021 10.1074C9.52822 10.1074 7.51562 12.1201 7.51562 14.5939C7.51562 17.0677 9.52822 19.0803 12.0021 19.0803C14.4759 19.0803 16.4885 17.0677 16.4885 14.5939C16.4885 12.1201 14.4759 10.1074 12.0021 10.1074ZM11.2774 17.119L8.84848 14.7174L9.83723 13.7174L11.3146 15.1782L14.1864 12.5488L15.1361 13.586L11.2774 17.119Z" fill="black"/>
    <path d="M17.1134 1.97594H14.2183L14.0597 1.49186C13.7671 0.599537 12.9394 0 12.0001 0C11.0607 0 10.2331 0.599537 9.94052 1.49186L9.78184 1.97594H6.88672V4.31648H17.1134V1.97594Z" fill="black"/>
    <path d="M18.5197 3.11719V5.72295H5.48046V3.11719H2.8125V24.0002H21.1877V3.11719H18.5197ZM12.0001 20.4866C8.75082 20.4866 6.10738 17.8431 6.10738 14.5938C6.10738 11.3446 8.75082 8.70113 12.0001 8.70113C15.2494 8.70113 17.8928 11.3446 17.8928 14.5938C17.8928 17.8431 15.2493 20.4866 12.0001 20.4866Z" fill="black"/>
  </g>
  <defs>
    <clipPath id="clip0_4504:1200">
      <rect width="24" height="24" fill="white"/>
    </clipPath>
  </defs>
</svg>
