<svg width="24" height="24" viewBox="0 0 24 24" fill="none" xmlns="http://www.w3.org/2000/svg">
  <path d="M19.8631 17.2105L17.1597 14.5071L18.4856 13.1813C18.6004 13.0665 18.6477 12.9003 18.6103 12.7422C18.573 12.5841 18.4565 12.4566 18.3023 12.4052L10.3475 9.75356C10.1791 9.69741 9.99332 9.74125 9.86779 9.86681C9.74223 9.99237 9.69839 10.1781 9.75454 10.3465L12.4062 18.3014C12.4576 18.4555 12.5851 18.5721 12.7432 18.6094C12.9013 18.6468 13.0675 18.5995 13.1823 18.4846L14.5082 17.1588L17.2115 19.8621C17.303 19.9537 17.423 19.9994 17.5429 19.9994C17.6629 19.9994 17.7829 19.9537 17.8744 19.8621L19.8631 17.8734C20.0462 17.6903 20.0462 17.3936 19.8631 17.2105ZM17.5429 18.8678L14.8396 16.1644C14.6565 15.9814 14.3597 15.9814 14.1767 16.1644L13.0557 17.2854L10.9404 10.9394L17.2864 13.0548L16.1654 14.1757C15.9825 14.3586 15.9823 14.6556 16.1654 14.8386L18.8687 17.542L17.5429 18.8678Z" fill="black"/>
  <path d="M10.0937 7.74997C10.3526 7.74997 10.5625 7.5401 10.5625 7.28122V4.46875C10.5625 4.20987 10.3526 4 10.0937 4C9.83487 4 9.625 4.20987 9.625 4.46875V7.28122C9.625 7.5401 9.83487 7.74997 10.0937 7.74997Z" fill="black"/>
  <path d="M6.44863 5.78524C6.2656 5.60218 5.96879 5.60218 5.78573 5.78524C5.60267 5.96831 5.60267 6.26508 5.78573 6.44815L7.77447 8.43688C7.9575 8.61994 8.25434 8.61994 8.43737 8.43688C8.62043 8.25382 8.62043 7.95704 8.43737 7.77398L6.44863 5.78524Z" fill="black"/>
  <path d="M7.77447 11.752L5.78573 13.7408C5.60267 13.9238 5.60267 14.2206 5.78573 14.4037C5.96876 14.5867 6.2656 14.5867 6.44863 14.4037L8.43737 12.4149C8.62043 12.2319 8.62043 11.9351 8.43737 11.752C8.25431 11.569 7.9575 11.569 7.77447 11.752Z" fill="black"/>
  <path d="M12.4135 8.43688L14.4022 6.44815C14.5853 6.26508 14.5853 5.96831 14.4022 5.78524C14.2192 5.60218 13.9224 5.60218 13.7393 5.78524L11.7506 7.77398C11.5675 7.95704 11.5675 8.25382 11.7506 8.43688C11.9336 8.61994 12.2304 8.61994 12.4135 8.43688Z" fill="black"/>
  <path d="M7.74997 10.0937C7.74997 9.83487 7.5401 9.625 7.28122 9.625H4.46875C4.20987 9.625 4 9.83487 4 10.0937C4 10.3526 4.20987 10.5625 4.46875 10.5625H7.28122C7.5401 10.5625 7.74997 10.3526 7.74997 10.0937Z" fill="black"/>
</svg>
