<svg width="20" height="20" fill="none" xmlns="http://www.w3.org/2000/svg"><g clip-path="url(#a)" fill="#7B7171"><path d="M14.26 1.647h-2.412l-.132-.404A1.802 1.802 0 0 0 9.999 0c-.782 0-1.472.5-1.716 1.243l-.132.404H5.738v1.95h8.523v-1.95Z"/><path d="M15.433 2.598v2.171H4.567V2.598H2.344V20h15.312V2.598h-2.223ZM10 17.072a4.916 4.916 0 0 1-4.91-4.91A4.916 4.916 0 0 1 10 7.25a4.916 4.916 0 0 1 4.91 4.91A4.916 4.916 0 0 1 10 17.072Z"/></g><defs><clipPath id="a"><path fill="#fff" d="M0 0h20v20H0z"/></clipPath></defs></svg>