<svg width="35" height="35" fill="none" xmlns="http://www.w3.org/2000/svg">
  <path d="M17.5 2.188C9.044 2.188 2.187 9.043 2.187 17.5S9.044 32.813 17.5 32.813 32.813 25.956 32.813 17.5 25.956 2.187 17.5 2.187Zm5.653 21.13-2.255-.01-3.398-4.051-3.394 4.047-2.26.01a.272.272 0 0 1-.273-.273c0-.065.024-.127.065-.178l4.447-5.298-4.447-5.295a.274.274 0 0 1 .209-.451l2.259.01 3.394 4.05 3.394-4.046 2.256-.01c.15 0 .273.12.273.273a.284.284 0 0 1-.065.178l-4.44 5.294 4.444 5.298a.274.274 0 0 1-.208.451Z" fill="#003BB3"/>
</svg>
