<svg width="24" height="24" viewBox="0 0 24 24" fill="none" xmlns="http://www.w3.org/2000/svg">
  <path d="M16.7136 4H7.26859C5.46628 4 4 5.46628 4 7.26856V12.6887C4 14.4909 5.46628 15.9572 7.26859 15.9572H9.88575L11.606 18.9368C11.6897 19.0818 11.8445 19.1712 12.0119 19.1712C12.1794 19.1712 12.3342 19.0818 12.4179 18.9368L14.1381 15.9572H16.7314C18.5337 15.9572 20 14.4909 20 12.6887V7.28644C20 5.47428 18.5257 4 16.7136 4ZM19.0625 12.6887C19.0625 13.974 18.0168 15.0198 16.7314 15.0198H13.8675C13.7 15.0198 13.5453 15.1091 13.4616 15.2541L12.0119 17.7649L10.5623 15.2541C10.4786 15.1091 10.3238 15.0198 10.1564 15.0198H7.26859C5.98322 15.0198 4.9375 13.974 4.9375 12.6887V7.26856C4.9375 5.98322 5.98322 4.9375 7.26859 4.9375H16.7136C18.0088 4.9375 19.0625 5.99122 19.0625 7.28644V12.6887Z" fill="black"/>
  <path d="M17.87 8.96891C17.7321 8.8886 17.5703 8.88682 17.4358 8.94947C17.0269 8.35416 16.3447 7.979 15.5837 7.979C14.3443 7.979 13.3359 8.98735 13.3359 10.2268C13.3359 11.4662 14.3443 12.4745 15.5837 12.4745C16.1027 12.4745 16.6091 12.2934 17.0096 11.9644C17.2096 11.8001 17.2386 11.5048 17.0743 11.3047C16.91 11.1046 16.6147 11.0757 16.4146 11.24C16.178 11.4343 15.8907 11.537 15.5837 11.537C14.8613 11.537 14.2734 10.9492 14.2734 10.2267C14.2734 9.50425 14.8613 8.91647 15.5837 8.91647C15.9728 8.91647 16.3265 9.08466 16.5684 9.35991C16.3869 9.40063 16.2394 9.54766 16.208 9.74257C16.1668 9.99816 16.3406 10.2387 16.5962 10.2799C16.6323 10.2838 17.3043 10.3995 17.3157 10.3898C17.4806 10.3898 17.6358 10.3026 17.7207 10.1568L18.0392 9.60975C18.1695 9.38613 18.0937 9.09916 17.87 8.96891Z" fill="black"/>
  <path d="M9.12628 7.62695H6.42188C6.163 7.62695 5.95312 7.41708 5.95312 7.1582C5.95312 6.89933 6.163 6.68945 6.42188 6.68945H9.12628C9.38516 6.68945 9.59503 6.89933 9.59503 7.1582C9.59503 7.41708 9.38519 7.62695 9.12628 7.62695Z" fill="black"/>
  <path d="M10.3677 9.5083H6.42188C6.163 9.5083 5.95312 9.29843 5.95312 9.03955C5.95312 8.78068 6.163 8.5708 6.42188 8.5708H10.3677C10.6266 8.5708 10.8365 8.78068 10.8365 9.03955C10.8365 9.29843 10.6266 9.5083 10.3677 9.5083Z" fill="black"/>
  <path d="M10.3677 11.3877H6.42188C6.163 11.3877 5.95312 11.1778 5.95312 10.9189C5.95312 10.6601 6.163 10.4502 6.42188 10.4502H10.3677C10.6266 10.4502 10.8365 10.6601 10.8365 10.9189C10.8365 11.1778 10.6266 11.3877 10.3677 11.3877Z" fill="black"/>
  <path d="M10.3677 13.2686H6.42188C6.163 13.2686 5.95312 13.0587 5.95312 12.7998C5.95312 12.5409 6.163 12.3311 6.42188 12.3311H10.3677C10.6266 12.3311 10.8365 12.5409 10.8365 12.7998C10.8365 13.0587 10.6266 13.2686 10.3677 13.2686Z" fill="black"/>
</svg>
