<svg width="24" height="24" viewBox="0 0 24 24" fill="none" xmlns="http://www.w3.org/2000/svg">
  <path d="M13.5998 19.9971H5.60075C5.17206 20.012 4.75643 19.8482 4.45311 19.5449C4.1498 19.2416 3.98604 18.826 4.00093 18.3973V10.3982C3.98604 9.96954 4.1498 9.55391 4.45311 9.2506C4.75643 8.94729 5.17206 8.78352 5.60075 8.79842H8.80037V5.59879C8.78548 5.1701 8.94924 4.75447 9.25255 4.45116C9.55586 4.14785 9.9715 3.98408 10.4002 3.99898H18.3993C18.8279 3.98408 19.2436 4.14785 19.5469 4.45116C19.8502 4.75447 20.014 5.1701 19.9991 5.59879V13.5979C20.0137 14.0265 19.8499 14.442 19.5466 14.7452C19.2434 15.0485 18.8279 15.2123 18.3993 15.1977H15.1996V18.3973C15.2143 18.8259 15.0504 19.2414 14.7472 19.5447C14.4439 19.8479 14.0284 20.0118 13.5998 19.9971ZM5.60075 10.3982V18.3973H13.5998V15.1977H10.4002C9.97156 15.2123 9.55607 15.0485 9.25282 14.7452C8.94956 14.442 8.78572 14.0265 8.80037 13.5979V10.3982H5.60075ZM10.4002 5.59879V13.5979H18.3993V5.59879H10.4002Z" fill="#363740"/>
</svg>
