<svg width="27" height="27" viewBox="0 0 27 27" fill="none" xmlns="http://www.w3.org/2000/svg">
<g opacity="0.3">
<path d="M3.375 5.0625V21.9295" stroke="white" stroke-width="1.68666" stroke-linecap="round"/>
<path d="M23.625 10.125V21.9375" stroke="white" stroke-width="1.68666" stroke-linecap="round" stroke-linejoin="round"/>
<path d="M6.75 1.6875H15.1875" stroke="white" stroke-width="1.68666" stroke-linecap="round" stroke-linejoin="round"/>
<path d="M6.75 25.3125H20.25" stroke="white" stroke-width="1.68666" stroke-linecap="round"/>
<path d="M23.625 21.9375C23.6342 23.6231 21.9375 25.3125 20.25 25.3125" stroke="white" stroke-width="1.68666" stroke-linecap="round" stroke-linejoin="round"/>
<path d="M3.375 21.9375C3.375 23.625 5.0625 25.3125 6.75 25.3125" stroke="white" stroke-width="1.68666" stroke-linecap="round" stroke-linejoin="round"/>
<path d="M3.375 5.06007C3.375 3.375 5.0625 1.72515 6.75 1.6875" stroke="white" stroke-width="1.68666" stroke-linecap="round" stroke-linejoin="round"/>
<path d="M23.6158 10.1326L15.1875 1.6875" stroke="white" stroke-width="1.68666" stroke-linecap="round" stroke-linejoin="round"/>
<path d="M15.1875 6.75C15.1928 8.42832 16.8819 10.125 18.5625 10.125" stroke="white" stroke-width="1.68666" stroke-linecap="round" stroke-linejoin="round"/>
<path d="M15.1875 6.75V1.6875" stroke="white" stroke-width="1.68666" stroke-linecap="round" stroke-linejoin="round"/>
<path d="M18.5625 10.125H23.625" stroke="white" stroke-width="1.68666" stroke-linecap="round" stroke-linejoin="round"/>
<path d="M6.75 21.9375H11.8125" stroke="white" stroke-width="1.6875" stroke-linecap="round" stroke-linejoin="round"/>
<path d="M6.75 18.5625H15.1875" stroke="white" stroke-width="1.6875" stroke-linecap="round" stroke-linejoin="round"/>
<path d="M6.75 15.1875H11.8125" stroke="white" stroke-width="1.6875" stroke-linecap="round" stroke-linejoin="round"/>
</g>
</svg>
