<svg width="200" height="180" viewBox="0 0 200 180" fill="none" xmlns="http://www.w3.org/2000/svg">
<g clip-path="url(#clip0_1_100245)">
<path d="M102.426 0.391065L95.9183 2.06925L15.7427 22.7449L9.23508 24.4231C6.07635 25.2415 3.37122 27.2794 1.71317 30.0898C0.0551227 32.9002 -0.420436 36.2535 0.390828 39.414L28.6094 148.839C29.4278 151.998 31.4657 154.703 34.2761 156.361C37.0865 158.019 40.4398 158.495 43.6003 157.684L43.6171 157.679L136.774 133.656L136.791 133.652C139.95 132.833 142.655 130.795 144.313 127.985C145.971 125.175 146.447 121.821 145.635 118.661L117.417 9.23538C116.598 6.07663 114.561 3.37149 111.75 1.71344C108.94 0.0553763 105.586 -0.420192 102.426 0.391065Z" fill="#DFE0EB"/>
<path d="M103.312 3.8219L95.6037 5.8096L17.8284 25.8663L10.1206 27.854C7.87123 28.4367 5.94484 29.888 4.76409 31.8893C3.58335 33.8907 3.24469 36.2786 3.82241 38.5293L32.041 147.955C32.6238 150.204 34.075 152.13 36.0764 153.311C38.0777 154.492 40.4657 154.831 42.7164 154.253L42.7332 154.249L135.89 130.225L135.907 130.221C138.157 129.638 140.083 128.187 141.264 126.185C142.445 124.184 142.783 121.796 142.205 119.545L113.987 10.1201C113.404 7.87075 111.953 5.94437 109.952 4.76363C107.95 3.58289 105.562 3.24421 103.312 3.8219V3.8219Z" fill="white"/>
<path d="M97.491 39.2571L50.365 51.4099C49.8387 51.5457 49.28 51.4667 48.8118 51.1905C48.3436 50.9143 48.0044 50.4635 47.8686 49.9371C47.7329 49.4108 47.8118 48.8521 48.088 48.3839C48.3642 47.9157 48.8151 47.5765 49.3415 47.4407L96.4674 35.2879C96.9936 35.1527 97.5519 35.2319 98.0197 35.5082C98.4874 35.7844 98.8264 36.2351 98.962 36.7611C99.0977 37.2872 99.019 37.8456 98.7431 38.3136C98.4673 38.7816 98.0169 39.1209 97.491 39.2571V39.2571Z" fill="#DFE0EB"/>
<path d="M107.405 43.8435L52.0926 58.1074C51.5662 58.2432 51.0075 58.1643 50.5393 57.888C50.0712 57.6118 49.7319 57.161 49.5962 56.6346C49.4604 56.1083 49.5394 55.5496 49.8156 55.0814C50.0918 54.6132 50.5426 54.274 51.069 54.1382L106.381 39.8743C106.908 39.7385 107.467 39.8174 107.935 40.0936C108.403 40.3699 108.742 40.8207 108.878 41.3471C109.014 41.8734 108.935 42.4321 108.658 42.9003C108.382 43.3685 107.931 43.7077 107.405 43.8435V43.8435Z" fill="#DFE0EB"/>
<path d="M105.232 69.2739L58.1062 81.4267C57.8456 81.494 57.5743 81.5092 57.3078 81.4715C57.0413 81.4339 56.7848 81.3441 56.553 81.2074C56.3212 81.0706 56.1186 80.8895 55.9568 80.6745C55.7949 80.4594 55.6771 80.2146 55.6098 79.9539C55.5426 79.6933 55.5274 79.422 55.5651 79.1555C55.6027 78.889 55.6925 78.6325 55.8292 78.4007C55.966 78.1689 56.1471 77.9663 56.3621 77.8045C56.5772 77.6426 56.822 77.5247 57.0827 77.4575L104.209 65.3047C104.469 65.2375 104.741 65.2222 105.007 65.2599C105.274 65.2975 105.53 65.3873 105.762 65.5241C105.994 65.6608 106.196 65.8419 106.358 66.057C106.52 66.272 106.638 66.5169 106.705 66.7775C106.772 67.0381 106.787 67.3094 106.75 67.5759C106.712 67.8424 106.622 68.0989 106.486 68.3307C106.349 68.5625 106.168 68.7651 105.953 68.927C105.738 69.0888 105.493 69.2067 105.232 69.2739V69.2739Z" fill="#DFE0EB"/>
<path d="M115.146 73.861L59.8338 88.125C59.5732 88.1922 59.3018 88.2074 59.0353 88.1698C58.7688 88.1322 58.5124 88.0424 58.2806 87.9056C58.0487 87.7689 57.8461 87.5878 57.6843 87.3727C57.5225 87.1577 57.4046 86.9128 57.3374 86.6522C57.2702 86.3916 57.255 86.1203 57.2926 85.8538C57.3302 85.5873 57.42 85.3308 57.5568 85.099C57.6935 84.8672 57.8746 84.6646 58.0897 84.5027C58.3047 84.3409 58.5496 84.223 58.8102 84.1558L114.123 69.8918C114.649 69.7561 115.208 69.835 115.676 70.1112C116.144 70.3874 116.483 70.8383 116.619 71.3647C116.755 71.891 116.676 72.4497 116.4 72.9179C116.123 73.386 115.673 73.7253 115.146 73.861Z" fill="#DFE0EB"/>
<path d="M112.973 99.2905L65.8471 111.443C65.3209 111.579 64.7625 111.499 64.2946 111.223C63.8267 110.947 63.4877 110.496 63.352 109.97C63.2164 109.444 63.2952 108.886 63.5711 108.418C63.847 107.949 64.2975 107.61 64.8235 107.474L111.949 95.3213C112.476 95.1855 113.035 95.2645 113.503 95.5407C113.971 95.8169 114.31 96.2677 114.446 96.7941C114.582 97.3204 114.503 97.8792 114.226 98.3473C113.95 98.8155 113.499 99.1547 112.973 99.2905Z" fill="#DFE0EB"/>
<path d="M122.887 103.878L67.5748 118.142C67.3141 118.209 67.0426 118.225 66.776 118.187C66.5093 118.15 66.2526 118.06 66.0206 117.923C65.7886 117.786 65.5858 117.605 65.4238 117.39C65.2619 117.175 65.1439 116.93 65.0767 116.669C65.0094 116.408 64.9942 116.137 65.0319 115.87C65.0696 115.604 65.1596 115.347 65.2965 115.115C65.4334 114.883 65.6147 114.681 65.83 114.519C66.0453 114.357 66.2904 114.239 66.5512 114.172L121.864 99.9084C122.39 99.7727 122.949 99.8516 123.417 100.128C123.885 100.404 124.224 100.855 124.36 101.381C124.496 101.908 124.417 102.466 124.141 102.934C123.864 103.403 123.414 103.742 122.887 103.878V103.878Z" fill="#DFE0EB"/>
<path d="M42.3196 63.8707L25.6421 68.1715C25.3898 68.2363 25.122 68.1983 24.8976 68.0659C24.6732 67.9335 24.5105 67.7175 24.4451 67.4653L20.6168 52.62C20.5521 52.3676 20.59 52.0999 20.7224 51.8755C20.8548 51.6511 21.0708 51.4883 21.323 51.423L38.0005 47.1222C38.2529 47.0574 38.5206 47.0954 38.745 47.2278C38.9694 47.3602 39.1322 47.5762 39.1975 47.8284L43.0258 62.6737C43.0906 62.9261 43.0526 63.1938 42.9202 63.4182C42.7878 63.6426 42.5718 63.8054 42.3196 63.8707V63.8707Z" fill="#DFE0EB"/>
<path d="M50.0608 93.8882L33.3834 98.189C33.131 98.2538 32.8632 98.2158 32.6388 98.0834C32.4144 97.9511 32.2517 97.735 32.1863 97.4828L28.358 82.6376C28.2933 82.3852 28.3312 82.1174 28.4636 81.893C28.596 81.6686 28.812 81.5059 29.0643 81.4406L45.7417 77.1398C45.9941 77.075 46.2618 77.113 46.4862 77.2454C46.7106 77.3778 46.8734 77.5938 46.9387 77.846L50.767 92.6912C50.8318 92.9436 50.7938 93.2114 50.6614 93.4358C50.529 93.6602 50.313 93.8229 50.0608 93.8882V93.8882Z" fill="#DFE0EB"/>
<path d="M57.801 123.905L41.1236 128.206C40.8712 128.27 40.6035 128.232 40.379 128.1C40.1546 127.968 39.9919 127.752 39.9266 127.499L36.0983 112.654C36.0335 112.402 36.0715 112.134 36.2039 111.91C36.3363 111.685 36.5523 111.523 36.8045 111.457L53.4819 107.156C53.7343 107.092 54.0021 107.13 54.2265 107.262C54.4509 107.394 54.6136 107.61 54.6789 107.863L58.5072 122.708C58.572 122.96 58.534 123.228 58.4016 123.452C58.2693 123.677 58.0532 123.84 57.801 123.905V123.905Z" fill="#DFE0EB"/>
<path d="M167.423 28.1289H71.1835C67.9204 28.1326 64.7921 29.4304 62.4848 31.7378C60.1775 34.0451 58.8796 37.1734 58.876 40.4364V153.442C58.8796 156.705 60.1775 159.833 62.4848 162.14C64.7921 164.448 67.9204 165.746 71.1835 165.749H167.423C170.686 165.746 173.814 164.448 176.122 162.14C178.429 159.833 179.727 156.705 179.731 153.442V40.4364C179.727 37.1734 178.429 34.0451 176.122 31.7378C173.814 29.4304 170.686 28.1326 167.423 28.1289V28.1289Z" fill="#DFE0EB"/>
<path d="M167.423 31.6724H71.1834C68.8597 31.675 66.632 32.5992 64.9889 34.2423C63.3458 35.8854 62.4216 38.1131 62.4189 40.4368V153.442C62.4216 155.766 63.3458 157.994 64.9889 159.637C66.632 161.28 68.8597 162.204 71.1834 162.207H167.423C169.747 162.204 171.975 161.28 173.618 159.637C175.261 157.994 176.185 155.766 176.188 153.442V40.4368C176.185 38.1132 175.261 35.8854 173.618 34.2423C171.975 32.5992 169.747 31.675 167.423 31.6724V31.6724Z" fill="white"/>
<path d="M188.278 154.102H180.463V146.287C180.463 145.51 180.155 144.765 179.605 144.215C179.055 143.666 178.31 143.357 177.533 143.357C176.756 143.357 176.01 143.666 175.461 144.215C174.911 144.765 174.602 145.51 174.602 146.287V154.102H166.788C166.011 154.102 165.265 154.411 164.716 154.96C164.166 155.51 163.857 156.255 163.857 157.032C163.857 157.81 164.166 158.555 164.716 159.105C165.265 159.654 166.011 159.963 166.788 159.963H174.602V167.777C174.602 168.555 174.911 169.3 175.461 169.85C176.01 170.399 176.756 170.708 177.533 170.708C178.31 170.708 179.055 170.399 179.605 169.85C180.155 169.3 180.463 168.555 180.463 167.777V159.963H188.278C189.055 159.963 189.801 159.654 190.35 159.105C190.9 158.555 191.208 157.81 191.208 157.032C191.208 156.255 190.9 155.51 190.35 154.96C189.801 154.411 189.055 154.102 188.278 154.102V154.102Z" fill="white"/>
<path d="M152.939 93.7687H104.272C104.002 93.769 103.735 93.7163 103.487 93.6134C103.238 93.5105 103.011 93.3596 102.821 93.1693C102.63 92.9789 102.479 92.7529 102.376 92.5041C102.273 92.2552 102.22 91.9885 102.22 91.7192C102.22 91.4499 102.273 91.1832 102.376 90.9344C102.479 90.6855 102.63 90.4595 102.821 90.2692C103.011 90.0788 103.238 89.9279 103.487 89.825C103.735 89.7222 104.002 89.6694 104.272 89.6697H152.939C153.482 89.6703 154.003 89.8865 154.387 90.2708C154.771 90.6551 154.987 91.176 154.987 91.7192C154.987 92.2624 154.771 92.7833 154.387 93.1676C154.003 93.5519 153.482 93.7681 152.939 93.7687V93.7687Z" fill="#DFE0EB"/>
<path d="M161.394 100.685H104.272C104.002 100.685 103.735 100.633 103.487 100.53C103.238 100.427 103.011 100.276 102.821 100.086C102.63 99.8952 102.479 99.6691 102.376 99.4203C102.273 99.1715 102.22 98.9048 102.22 98.6355C102.22 98.3661 102.273 98.0994 102.376 97.8506C102.479 97.6018 102.63 97.3758 102.821 97.1854C103.011 96.9951 103.238 96.8442 103.487 96.7413C103.735 96.6384 104.002 96.5856 104.272 96.5859H161.394C161.937 96.5859 162.458 96.8019 162.843 97.1862C163.227 97.5706 163.443 98.0919 163.443 98.6355C163.443 99.179 163.227 99.7003 162.843 100.085C162.458 100.469 161.937 100.685 161.394 100.685Z" fill="#DFE0EB"/>
<path d="M152.939 124.768H104.272C104.002 124.769 103.735 124.716 103.487 124.613C103.238 124.51 103.011 124.359 102.821 124.169C102.63 123.978 102.479 123.752 102.376 123.504C102.273 123.255 102.22 122.988 102.22 122.719C102.22 122.449 102.273 122.183 102.376 121.934C102.479 121.685 102.63 121.459 102.821 121.269C103.011 121.078 103.238 120.927 103.487 120.825C103.735 120.722 104.002 120.669 104.272 120.669H152.939C153.483 120.669 154.004 120.885 154.389 121.269C154.773 121.654 154.989 122.175 154.989 122.719C154.989 123.262 154.773 123.784 154.389 124.168C154.004 124.552 153.483 124.768 152.939 124.768V124.768Z" fill="#DFE0EB"/>
<path d="M161.394 131.685H104.272C104.002 131.685 103.735 131.632 103.487 131.529C103.238 131.426 103.011 131.275 102.821 131.085C102.63 130.895 102.479 130.669 102.376 130.42C102.273 130.171 102.22 129.904 102.22 129.635C102.22 129.366 102.273 129.099 102.376 128.85C102.479 128.601 102.63 128.375 102.821 128.185C103.011 127.995 103.238 127.844 103.487 127.741C103.735 127.638 104.002 127.585 104.272 127.585H161.394C161.663 127.585 161.93 127.638 162.179 127.741C162.428 127.844 162.654 127.995 162.844 128.185C163.035 128.375 163.186 128.601 163.289 128.85C163.392 129.099 163.445 129.366 163.445 129.635C163.445 129.904 163.392 130.171 163.289 130.42C163.186 130.669 163.035 130.895 162.844 131.085C162.654 131.275 162.428 131.426 162.179 131.529C161.93 131.632 161.663 131.685 161.394 131.685Z" fill="#DFE0EB"/>
<path d="M93.3679 103.826H76.1449C75.8843 103.826 75.6345 103.722 75.4503 103.538C75.266 103.354 75.1624 103.104 75.1621 102.843V87.5123C75.1624 87.2517 75.266 87.0019 75.4503 86.8177C75.6345 86.6335 75.8843 86.5298 76.1449 86.5295H93.3679C93.6285 86.5298 93.8783 86.6335 94.0625 86.8177C94.2468 87.0019 94.3504 87.2517 94.3507 87.5123V102.843C94.3504 103.104 94.2468 103.354 94.0625 103.538C93.8783 103.722 93.6285 103.826 93.3679 103.826V103.826Z" fill="#DFE0EB"/>
<path d="M93.3679 134.825H76.1449C75.8843 134.824 75.6345 134.721 75.4503 134.537C75.266 134.352 75.1624 134.103 75.1621 133.842V118.511C75.1624 118.251 75.266 118.001 75.4503 117.816C75.6345 117.632 75.8843 117.529 76.1449 117.528H93.3679C93.6285 117.529 93.8783 117.632 94.0625 117.816C94.2468 118.001 94.3504 118.251 94.3507 118.511V133.842C94.3504 134.103 94.2468 134.352 94.0625 134.537C93.8783 134.721 93.6285 134.824 93.3679 134.825V134.825Z" fill="#DFE0EB"/>
<path d="M152.993 59.2607H117.112C116.568 59.2607 116.047 59.0448 115.663 58.6604C115.278 58.276 115.062 57.7547 115.062 57.2112C115.062 56.6676 115.278 56.1463 115.663 55.7619C116.047 55.3775 116.568 55.1616 117.112 55.1616H152.993C153.536 55.1616 154.058 55.3775 154.442 55.7619C154.826 56.1463 155.042 56.6676 155.042 57.2112C155.042 57.7547 154.826 58.276 154.442 58.6604C154.058 59.0448 153.536 59.2607 152.993 59.2607Z" fill="#CACACA"/>
<path d="M161.447 66.1777H117.112C116.843 66.1777 116.576 66.1247 116.328 66.0217C116.079 65.9187 115.853 65.7677 115.663 65.5774C115.472 65.3871 115.322 65.1611 115.219 64.9125C115.116 64.6638 115.062 64.3973 115.062 64.1281C115.062 63.859 115.116 63.5925 115.219 63.3438C115.322 63.0952 115.472 62.8692 115.663 62.6789C115.853 62.4886 116.079 62.3376 116.328 62.2346C116.576 62.1316 116.843 62.0786 117.112 62.0786H161.447C161.991 62.0786 162.512 62.2945 162.896 62.6789C163.281 63.0633 163.497 63.5846 163.497 64.1281C163.497 64.6717 163.281 65.193 162.896 65.5774C162.512 65.9617 161.991 66.1777 161.447 66.1777V66.1777Z" fill="#CACACA"/>
<path d="M109.17 74.5603H76.0911C75.8306 74.56 75.5808 74.4564 75.3966 74.2722C75.2123 74.0879 75.1087 73.8381 75.1084 73.5776V47.7613C75.1087 47.5008 75.2123 47.251 75.3966 47.0667C75.5808 46.8825 75.8306 46.7789 76.0911 46.7786H109.17C109.431 46.7789 109.68 46.8825 109.865 47.0667C110.049 47.251 110.153 47.5008 110.153 47.7613V73.5776C110.153 73.8381 110.049 74.0879 109.865 74.2722C109.68 74.4564 109.431 74.56 109.17 74.5603V74.5603Z" fill="#003BB3"/>
</g>
<defs>
<clipPath id="clip0_1_100245">
<rect width="200" height="179.499" fill="white"/>
</clipPath>
</defs>
</svg>
