<svg width="24" height="24" viewBox="0 0 24 24" fill="none" xmlns="http://www.w3.org/2000/svg">
  <path d="M16.2051 11.293C16.1241 11.114 15.9461 11 15.7501 11H13.7501V4.5C13.7501 4.224 13.5261 4 13.2501 4H11.2501C10.9741 4 10.7501 4.224 10.7501 4.5V11H8.75006C8.55406 11 8.37606 11.115 8.29506 11.293C8.21306 11.472 8.24506 11.681 8.37406 11.829L11.8741 15.829C11.9691 15.938 12.1061 16 12.2501 16C12.3941 16 12.5311 15.937 12.6261 15.829L16.1261 11.829C16.2561 11.682 16.2861 11.472 16.2051 11.293Z" fill="black"/>
  <path d="M17.75 15V18H6.75V15H4.75V19C4.75 19.553 5.198 20 5.75 20H18.75C19.303 20 19.75 19.553 19.75 19V15H17.75Z" fill="black"/>
</svg>
