<svg width="27" height="27" viewBox="0 0 27 27" fill="none" xmlns="http://www.w3.org/2000/svg">
<g opacity="0.3">
<path d="M16.1992 21.749C16.1992 21.5501 16.1202 21.3593 15.9795 21.2187C15.8389 21.078 15.6481 20.999 15.4492 20.999H10.9492C10.7503 20.999 10.5595 21.078 10.4189 21.2187C10.2782 21.3593 10.1992 21.5501 10.1992 21.749C10.1992 21.9479 10.2782 22.1387 10.4189 22.2794C10.5595 22.42 10.7503 22.499 10.9492 22.499H15.4492C15.6481 22.499 15.8389 22.42 15.9795 22.2794C16.1202 22.1387 16.1992 21.9479 16.1992 21.749Z" fill="white"/>
<path d="M16.9043 18H12.4043C12.2054 18 12.0146 18.079 11.874 18.2197C11.7333 18.3603 11.6543 18.5511 11.6543 18.75C11.6543 18.9489 11.7333 19.1397 11.874 19.2803C12.0146 19.421 12.2054 19.5 12.4043 19.5H16.9043C17.1032 19.5 17.294 19.421 17.4346 19.2803C17.5753 19.1397 17.6543 18.9489 17.6543 18.75C17.6543 18.5511 17.5753 18.3603 17.4346 18.2197C17.294 18.079 17.1032 18 16.9043 18Z" fill="white"/>
<path d="M16.5 23.999H12C11.8011 23.999 11.6103 24.078 11.4697 24.2187C11.329 24.3593 11.25 24.5501 11.25 24.749C11.25 24.9479 11.329 25.1387 11.4697 25.2794C11.6103 25.42 11.8011 25.499 12 25.499H16.5C16.6989 25.499 16.8897 25.42 17.0303 25.2794C17.171 25.1387 17.25 24.9479 17.25 24.749C17.25 24.5501 17.171 24.3593 17.0303 24.2187C16.8897 24.078 16.6989 23.999 16.5 23.999Z" fill="white"/>
<path d="M24.5234 23.999H19.2734C19.0745 23.999 18.8838 24.078 18.7431 24.2187C18.6025 24.3593 18.5234 24.5501 18.5234 24.749C18.5234 24.9479 18.6025 25.1387 18.7431 25.2794C18.8838 25.42 19.0745 25.499 19.2734 25.499H24.5234C24.7223 25.499 24.9131 25.42 25.0538 25.2794C25.1944 25.1387 25.2734 24.9479 25.2734 24.749C25.2734 24.5501 25.1944 24.3593 25.0538 24.2187C24.9131 24.078 24.7223 23.999 24.5234 23.999Z" fill="white"/>
<path d="M25.2734 20.999H20.0234C19.8245 20.999 19.6338 21.078 19.4931 21.2187C19.3525 21.3593 19.2734 21.5501 19.2734 21.749C19.2734 21.9479 19.3525 22.1387 19.4931 22.2794C19.6338 22.42 19.8245 22.499 20.0234 22.499H25.2734C25.4723 22.499 25.6631 22.42 25.8038 22.2794C25.9444 22.1387 26.0234 21.9479 26.0234 21.749C26.0234 21.5501 25.9444 21.3593 25.8038 21.2187C25.6631 21.078 25.4723 20.999 25.2734 20.999Z" fill="white"/>
<path d="M25.4994 19.679H25.3038H23.7963H23.6323L23.6171 19.5157C23.3967 17.146 22.7501 14.8356 21.7084 12.6958C20.6717 10.7524 19.1846 9.08553 17.3716 7.83469L17.3665 7.83114L17.3665 7.83106C17.0808 7.61899 16.78 7.42819 16.4663 7.2602L16.3174 7.1804L16.3876 7.0267L18.1461 3.17903H8.80038L10.0214 5.81903H15.3363H15.616L15.5002 6.07357L14.8176 7.57357L14.7697 7.67903H14.6538H14.3277C14.7231 8.76697 15.0173 9.88929 15.2063 11.0317C15.3344 11.7832 15.4153 12.542 15.4486 13.3037L15.453 13.4021L15.3723 13.4588L14.1873 14.2913L13.9027 14.4913L13.9038 14.1434C13.907 13.1837 13.8276 12.2254 13.6664 11.2793L13.6659 11.2765L13.6659 11.2765C13.475 10.0421 13.1393 8.83466 12.666 7.67903H12.1247C11.4697 8.52995 10.8789 9.42846 10.3572 10.3671C9.92169 11.195 9.55209 12.0559 9.25178 12.9418L9.17626 13.1646L8.98096 13.0335L7.95346 12.3435L7.83822 12.2661L7.88378 12.1349C8.18686 11.2627 8.55943 10.4162 8.9979 9.60355L8.99948 9.60062L8.99951 9.60064C9.3715 8.94074 9.77543 8.29944 10.2098 7.67903H9.86145C7.92573 8.92249 6.34481 10.6463 5.2731 12.6829L5.27254 12.6839C3.73957 15.5499 3.32827 19.244 3.22355 21.1962L3.22344 21.1983C3.21401 21.3421 3.23471 21.4862 3.28422 21.6216C3.33373 21.7569 3.41094 21.8804 3.51093 21.9841L3.51152 21.9847C3.61197 22.09 3.73266 22.1738 3.86632 22.2313L3.79525 22.3967L3.86632 22.2313C3.99982 22.2887 4.14352 22.3185 4.28881 22.319C4.289 22.319 4.28919 22.319 4.28937 22.319L8.99881 22.319H9.17881V22.499V23.954V24.134H8.99881H4.3511C3.9492 24.1442 3.5493 24.0742 3.17481 23.9279C2.79955 23.7814 2.45738 23.5613 2.1684 23.2806L2.16405 23.2764L2.16413 23.2764C1.88831 22.9898 1.67483 22.6492 1.53715 22.2761C1.39953 21.9032 1.34061 21.5058 1.36409 21.1089C1.4996 18.5577 2.00399 14.8592 3.63489 11.8245C4.74846 9.70893 6.33815 7.88172 8.27785 6.48644L6.50296 2.63963C6.50295 2.63961 6.50294 2.6396 6.50294 2.63958L6.50287 2.63944L6.66631 2.56403C6.61336 2.4496 6.5901 2.32368 6.5987 2.19789C6.6073 2.0721 6.64746 1.95051 6.71549 1.84435C6.78352 1.7382 6.87721 1.65091 6.98791 1.59055C7.0986 1.53019 7.22273 1.49871 7.34881 1.49903L25.4994 19.679ZM25.4994 19.679L25.4832 19.4841C25.2615 16.8207 24.5377 14.2233 23.3501 11.829L23.3501 11.829L23.3481 11.8252C22.2299 9.6988 20.6289 7.86492 18.6742 6.47035L20.4117 2.64063C20.4828 2.49425 20.5143 2.33177 20.5029 2.1694C20.4915 2.00611 20.4371 1.84872 20.3454 1.71315L20.3454 1.71312L20.343 1.70964C20.2583 1.59072 20.1468 1.49338 20.0176 1.42552C19.8883 1.35767 19.7449 1.32119 19.599 1.31905V1.31903H19.5963H7.34902L25.4994 19.679ZM3.38131 22.109C3.26394 21.9872 3.1733 21.8423 3.11518 21.6834C3.05706 21.5246 3.03275 21.3553 3.04381 21.1865C3.14881 19.229 3.56131 15.5015 5.11381 12.599C6.20823 10.5194 7.82659 8.7614 9.80881 7.49903L3.38131 22.109Z" fill="white" stroke="white" stroke-width="0.36"/>
</g>
</svg>
