<svg width="200" height="158" viewBox="0 0 200 158" fill="none" xmlns="http://www.w3.org/2000/svg">
<g clip-path="url(#clip0_1_101637)">
<path d="M122.819 139.815L117.482 144.728L121.724 137.611C118.382 131.55 112.916 126.312 112.916 126.312C112.916 126.312 101.576 137.177 101.576 145.717C101.576 154.257 106.653 157.239 112.916 157.239C119.179 157.239 124.256 154.257 124.256 145.717C124.256 143.816 123.693 141.8 122.819 139.815Z" fill="#F2F2F2"/>
<path d="M116.111 144.995V145.416C116.086 150.309 115.26 154.127 113.641 156.815C113.618 156.855 113.593 156.893 113.57 156.932L113.389 156.822L113.216 156.713C115.012 153.81 115.648 149.707 115.671 145.439C115.673 145.302 115.675 145.162 115.673 145.022C115.667 143.216 115.556 141.388 115.379 139.613C115.367 139.475 115.352 139.335 115.338 139.196C115.092 136.853 114.737 134.615 114.375 132.671C114.35 132.533 114.323 132.396 114.296 132.26C113.668 128.972 113.029 126.59 112.883 126.063C112.866 125.998 112.856 125.963 112.854 125.954L113.051 125.898L113.054 125.896L113.254 125.84C113.256 125.848 113.291 125.967 113.349 126.188C113.572 127.013 114.152 129.253 114.721 132.208C114.746 132.342 114.773 132.479 114.798 132.617C115.094 134.194 115.383 135.957 115.613 137.808C115.671 138.273 115.723 138.731 115.769 139.183C115.786 139.323 115.8 139.462 115.813 139.6C116.004 141.519 116.104 143.318 116.111 144.995Z" fill="white"/>
<path d="M114.72 132.208C114.581 132.227 114.439 132.245 114.295 132.26C113.905 132.3 113.512 132.32 113.12 132.32C111.447 132.323 109.795 131.95 108.285 131.229C108.198 131.339 108.11 131.449 108.021 131.562C109.609 132.337 111.353 132.739 113.12 132.737C113.539 132.737 113.958 132.715 114.374 132.671C114.516 132.656 114.658 132.637 114.797 132.616C115.95 132.451 117.071 132.112 118.121 131.61C118.032 131.495 117.944 131.383 117.859 131.272C116.864 131.737 115.807 132.052 114.72 132.208Z" fill="white"/>
<path d="M115.767 139.182C115.623 139.191 115.479 139.195 115.336 139.195C115.292 139.197 115.246 139.197 115.202 139.197C113.389 139.197 111.604 138.759 109.997 137.919C108.39 137.08 107.01 135.865 105.975 134.377C105.891 134.5 105.808 134.623 105.727 134.748C106.806 136.253 108.228 137.48 109.876 138.326C111.524 139.172 113.35 139.614 115.202 139.614C115.261 139.614 115.319 139.614 115.377 139.612C115.523 139.61 115.667 139.605 115.811 139.599C118.036 139.485 120.181 138.733 121.99 137.432C121.923 137.309 121.856 137.186 121.787 137.063C120.03 138.34 117.937 139.077 115.767 139.182Z" fill="white"/>
<path d="M116.109 144.995C115.963 145.008 115.817 145.016 115.672 145.022C115.515 145.028 115.359 145.033 115.203 145.033C112.767 145.03 110.397 144.238 108.449 142.776C106.501 141.314 105.079 139.26 104.395 136.922C104.302 137.091 104.208 137.257 104.118 137.426C104.888 139.759 106.373 141.79 108.363 143.23C110.353 144.67 112.746 145.447 115.203 145.449C115.359 145.449 115.515 145.447 115.669 145.439C115.817 145.435 115.963 145.426 116.109 145.416C119.056 145.185 121.804 143.844 123.799 141.663C123.755 141.509 123.705 141.356 123.655 141.202C121.729 143.4 119.022 144.76 116.109 144.995Z" fill="white"/>
<path d="M27.3556 55.5491C42.4637 55.5491 54.7113 43.3016 54.7113 28.1935C54.7113 13.0854 42.4637 0.837891 27.3556 0.837891C12.2475 0.837891 0 13.0854 0 28.1935C0 43.3016 12.2475 55.5491 27.3556 55.5491Z" fill="#E4E4E4"/>
<path d="M27.3569 50.9892C39.947 50.9892 50.1532 40.7829 50.1532 28.1928C50.1532 15.6028 39.947 5.39648 27.3569 5.39648C14.7668 5.39648 4.56055 15.6028 4.56055 28.1928C4.56055 40.7829 14.7668 50.9892 27.3569 50.9892Z" fill="#003BB3"/>
<path d="M100 55.5491C115.108 55.5491 127.356 43.3016 127.356 28.1935C127.356 13.0854 115.108 0.837891 100 0.837891C84.8921 0.837891 72.6445 13.0854 72.6445 28.1935C72.6445 43.3016 84.8921 55.5491 100 55.5491Z" fill="#E4E4E4"/>
<path d="M99.9985 50.9892C112.589 50.9892 122.795 40.7829 122.795 28.1928C122.795 15.6028 112.589 5.39648 99.9985 5.39648C87.4084 5.39648 77.2021 15.6028 77.2021 28.1928C77.2021 40.7829 87.4084 50.9892 99.9985 50.9892Z" fill="white"/>
<path d="M172.645 55.5491C187.753 55.5491 200 43.3016 200 28.1935C200 13.0854 187.753 0.837891 172.645 0.837891C157.537 0.837891 145.289 13.0854 145.289 28.1935C145.289 43.3016 157.537 55.5491 172.645 55.5491Z" fill="#E4E4E4"/>
<path d="M172.643 50.9892C185.233 50.9892 195.439 40.7829 195.439 28.1928C195.439 15.6028 185.233 5.39648 172.643 5.39648C160.053 5.39648 149.847 15.6028 149.847 28.1928C149.847 40.7829 160.053 50.9892 172.643 50.9892Z" fill="white"/>
<path d="M25.4195 36.4375C25.3787 36.4375 25.3379 36.4366 25.2971 36.4346C24.9365 36.4172 24.584 36.322 24.2637 36.1556C23.9434 35.9892 23.6629 35.7555 23.4414 35.4705L19.9446 30.9745C19.5374 30.4497 19.355 29.7849 19.4373 29.1259C19.5197 28.4668 19.8601 27.8674 20.3839 27.459L20.5097 27.3611C21.0344 26.9539 21.6993 26.7715 22.3584 26.8539C23.0174 26.9362 23.6169 27.2766 24.0254 27.8004C24.2225 28.0538 24.472 28.2616 24.7568 28.4097C25.0417 28.5577 25.3552 28.6424 25.6758 28.6581C25.9965 28.6737 26.3167 28.6198 26.6146 28.5002C26.9125 28.3806 27.1811 28.198 27.4019 27.965L34.5023 20.4698C34.7285 20.2309 34.9996 20.039 35.3001 19.9049C35.6005 19.7709 35.9244 19.6973 36.2533 19.6884C36.5822 19.6795 36.9096 19.7355 37.2169 19.8532C37.5241 19.9708 37.8052 20.1479 38.044 20.3742L38.1599 20.484C38.6422 20.941 38.9232 21.5708 38.9412 22.2349C38.9591 22.8991 38.7125 23.5432 38.2555 24.0255L27.2376 35.6552C27.0036 35.9024 26.7218 36.0993 26.4092 36.2338C26.0965 36.3683 25.7598 36.4376 25.4195 36.4375Z" fill="white"/>
<path d="M87.9948 22.653H69.9893V6.99379C70.0078 6.02421 70.41 5.10153 71.1077 4.42802C71.8055 3.75452 72.7418 3.38514 73.7114 3.40087H79.6965C84.2722 3.40087 87.9948 6.99418 87.9948 11.411V22.653Z" fill="#2F2E41"/>
<path d="M94.6596 153.69L91.2416 153.69L89.6152 140.506L94.6601 140.506L94.6596 153.69Z" fill="#FFB6B6"/>
<path d="M95.5313 157.002L84.5098 157.002V156.862C84.5098 155.724 84.9618 154.633 85.7663 153.829C86.5708 153.024 87.6619 152.572 88.7997 152.572H88.7999L95.5316 152.573L95.5313 157.002Z" fill="#2F2E41"/>
<path d="M63.1537 153.69L59.7354 153.69L58.1094 140.506L63.1543 140.506L63.1537 153.69Z" fill="#FFB6B6"/>
<path d="M64.0245 157.002L53.0029 157.002V156.862C53.003 155.724 53.455 154.633 54.2595 153.829C55.064 153.024 56.1551 152.572 57.2928 152.572H57.2931L64.0247 152.573L64.0245 157.002Z" fill="#2F2E41"/>
<path d="M67.2803 47.7695L65.0498 61.9889L86.2393 62.2676L83.4512 48.6061L67.2803 47.7695Z" fill="#9E616A"/>
<path d="M65.6653 58.5176L58.9165 76.4877L58.0801 150.959H63.7957L77.4574 91.1252L90.0039 149.397H95.5801L91.6767 83.8761C91.6767 83.8761 92.8278 70.7254 86.937 62.9654L85.5031 58.8228L65.6653 58.5176Z" fill="#2F2E41"/>
<path d="M94.6153 72.5266C94.0253 72.3659 93.4777 72.0777 93.0112 71.6824C92.5446 71.2871 92.1704 70.7943 91.9149 70.2387C91.6594 69.6832 91.5288 69.0783 91.5323 68.4668C91.5358 67.8554 91.6734 67.2521 91.9353 66.6995L82.9209 37.3104L89.5513 35.9961L97.7959 64.8035C98.695 65.305 99.3789 66.1189 99.7181 67.091C100.057 68.0631 100.028 69.1258 99.6359 70.0778C99.2439 71.0298 98.5162 71.8049 97.5909 72.2562C96.6656 72.7075 95.6068 72.8038 94.6153 72.5266H94.6153Z" fill="#9E616A"/>
<path d="M82.686 55.6218L68.0795 55.3398C67.662 55.3309 67.259 55.1854 66.9321 54.9256C66.6052 54.6658 66.3724 54.306 66.2695 53.9013C65.4865 50.8011 63.7637 42.7214 64.6775 34.6741C64.8578 33.1151 65.349 31.6082 66.122 30.2424C66.8949 28.8766 67.934 27.6798 69.1776 26.7226C70.4213 25.7654 71.8443 25.0674 73.3624 24.6699C74.8806 24.2724 76.4631 24.1833 78.0162 24.4081C79.6546 24.6427 81.2249 25.221 82.6241 26.1051C84.0233 26.9893 85.2197 28.1593 86.1349 29.5383C87.0501 30.9174 87.6634 32.4744 87.9345 34.1072C88.2056 35.7399 88.1285 37.4116 87.7081 39.0124C85.8695 45.9947 84.831 50.9899 84.6214 53.8596C84.5903 54.2745 84.4243 54.6679 84.1487 54.9796C83.8732 55.2913 83.5031 55.5042 83.0951 55.5858C82.9738 55.6099 82.8504 55.6221 82.7266 55.6222C82.7131 55.6222 82.6996 55.6221 82.686 55.6218Z" fill="#E4E4E4"/>
<path d="M38.3159 29.8062C38.4036 30.003 38.4757 30.2064 38.5314 30.4145L56.8147 36.6273L60.3475 33.541L65.7022 38.2639L59.9789 44.3354C59.5166 44.8259 58.9076 45.1532 58.2434 45.2681C57.5792 45.383 56.8956 45.2794 56.2953 44.9728L36.7312 34.9794C36.0237 35.4134 35.2008 35.6217 34.372 35.5766C33.5433 35.5315 32.7479 35.2352 32.0916 34.727C31.4354 34.2188 30.9494 33.5229 30.6983 32.7318C30.4473 31.9407 30.443 31.0919 30.6861 30.2983C30.9292 29.5047 31.4081 28.8039 32.0592 28.2892C32.7103 27.7744 33.5027 27.4701 34.331 27.4167C35.1592 27.3633 35.9842 27.5633 36.696 27.9901C37.4078 28.4169 37.9728 29.0504 38.3159 29.8062V29.8062Z" fill="#9E616A"/>
<path d="M56.8536 35.6392C56.855 35.3874 56.9107 35.1389 57.0169 34.9107C57.1231 34.6824 57.2774 34.4797 57.4691 34.3165L64.1636 28.614C65.0108 27.6431 66.2084 27.0479 67.4938 26.9589C68.7792 26.8699 70.0474 27.2943 71.0204 28.139C71.9933 28.9838 72.5914 30.1799 72.6836 31.4651C72.7759 32.7503 72.3546 34.0196 71.5122 34.9946L66.7449 42.4182C66.6089 42.6301 66.4287 42.8101 66.2168 42.9461C66.0049 43.082 65.7661 43.1707 65.5168 43.2061C65.2676 43.2415 65.0136 43.2227 64.7722 43.1511C64.5308 43.0794 64.3077 42.9566 64.1181 42.791L57.453 36.9696C57.2633 36.804 57.1115 36.5995 57.008 36.3699C56.9046 36.1403 56.8519 35.8911 56.8536 35.6392Z" fill="#E4E4E4"/>
<path d="M82.5152 44.7534C82.2923 44.6362 82.0974 44.4723 81.9436 44.2729C81.7899 44.0735 81.681 43.8432 81.6244 43.5979L79.6451 35.0295C79.1737 33.8305 79.197 32.4935 79.7099 31.3117C80.2228 30.1298 81.1834 29.1996 82.3811 28.725C83.5789 28.2504 84.9159 28.2702 86.0991 28.7799C87.2823 29.2897 88.2151 30.2479 88.6928 31.4444L93.0873 39.0946C93.2127 39.3129 93.2896 39.5557 93.3127 39.8064C93.3358 40.0572 93.3046 40.3099 93.2213 40.5475C93.1379 40.7851 93.0043 41.0019 92.8295 41.1832C92.6548 41.3645 92.443 41.506 92.2087 41.5981L83.9721 44.8339C83.7378 44.9261 83.4863 44.9666 83.2349 44.9527C82.9834 44.9388 82.7379 44.8708 82.5152 44.7534Z" fill="#E4E4E4"/>
<path d="M89.6016 4.93197C90.2779 3.34872 89.1148 1.33425 87.0038 0.432506C84.8928 -0.469237 82.6333 0.0832229 81.957 1.66647C81.2807 3.24972 82.4437 5.26421 84.5547 6.16595C86.6657 7.0677 88.9253 6.51522 89.6016 4.93197Z" fill="#2F2E41"/>
<path d="M83.0532 16.7018C85.3115 12.5706 83.7933 7.39093 79.6621 5.13262C75.5309 2.87432 70.3512 4.39259 68.0929 8.52376C65.8346 12.6549 67.3529 17.8346 71.4841 20.0929C75.6152 22.3512 80.7949 20.833 83.0532 16.7018Z" fill="#9E616A"/>
<path d="M80.2498 2.84789H70.4989C69.784 2.83864 69.0921 3.1 68.5619 3.57955C68.0316 4.05909 67.7023 4.72137 67.6399 5.43357C67.6147 5.81204 67.6675 6.19166 67.795 6.5489C67.9225 6.90614 68.122 7.2334 68.3811 7.51039C68.6402 7.78738 68.9535 8.0082 69.3015 8.15917C69.6494 8.31014 70.0247 8.38805 70.404 8.38806C71.1387 8.38806 71.8433 8.6799 72.3628 9.1994C72.8823 9.71889 73.1741 10.4235 73.1741 11.1581V22.5155H88.4096V11.0076C88.4096 9.93608 88.1985 8.87502 87.7884 7.88504C87.3784 6.89505 86.7773 5.99553 86.0196 5.23783C85.2619 4.48012 84.3624 3.87908 83.3724 3.46902C82.3824 3.05895 81.3214 2.84789 80.2498 2.84789Z" fill="#2F2E41"/>
<path d="M128.318 157.419H22.778C22.7045 157.419 22.6341 157.39 22.5821 157.338C22.5302 157.286 22.501 157.216 22.501 157.142C22.501 157.069 22.5302 156.998 22.5821 156.946C22.6341 156.894 22.7045 156.865 22.778 156.865H128.318C128.392 156.865 128.462 156.894 128.514 156.946C128.566 156.998 128.595 157.069 128.595 157.142C128.595 157.216 128.566 157.286 128.514 157.338C128.462 157.39 128.392 157.419 128.318 157.419Z" fill="#CACACA"/>
</g>
<defs>
<clipPath id="clip0_1_101637">
<rect width="200" height="157.419" fill="white"/>
</clipPath>
</defs>
</svg>
