<svg width="16" height="17" viewBox="0 0 16 17" fill="none" xmlns="http://www.w3.org/2000/svg">
<path fill-rule="evenodd" clip-rule="evenodd" d="M6.19775 9.36185C5.9374 9.6222 5.9374 10.0443 6.19775 10.3047C6.4581 10.565 6.88021 10.565 7.14056 10.3047L13.333 4.1122V6.49992C13.333 6.86811 13.6315 7.16659 13.9997 7.16659C14.3679 7.16659 14.6663 6.86811 14.6663 6.49992V2.56125C14.6838 2.37082 14.6197 2.1743 14.4739 2.02851C14.3433 1.89796 14.1721 1.83288 14.001 1.83325C14.0006 1.83325 14.0001 1.83325 13.9997 1.83325H9.99967C9.63148 1.83325 9.33301 2.13173 9.33301 2.49992C9.33301 2.86811 9.63148 3.16659 9.99967 3.16659H12.393L6.19775 9.36185ZM3.33301 5.16659C3.1562 5.16659 2.98663 5.23682 2.8616 5.36185C2.73658 5.48687 2.66634 5.65644 2.66634 5.83325V13.1666C2.66634 13.3434 2.73658 13.513 2.8616 13.638C2.98663 13.763 3.1562 13.8333 3.33301 13.8333H10.6663C10.8432 13.8333 11.0127 13.763 11.1377 13.638C11.2628 13.513 11.333 13.3434 11.333 13.1666V9.16659C11.333 8.7984 11.6315 8.49992 11.9997 8.49992C12.3679 8.49992 12.6663 8.7984 12.6663 9.16659V13.1666C12.6663 13.697 12.4556 14.2057 12.0806 14.5808C11.7055 14.9559 11.1968 15.1666 10.6663 15.1666H3.33301C2.80257 15.1666 2.29387 14.9559 1.91879 14.5808C1.54372 14.2057 1.33301 13.697 1.33301 13.1666V5.83325C1.33301 5.30282 1.54372 4.79411 1.91879 4.41904C2.29387 4.04397 2.80257 3.83325 3.33301 3.83325H7.33301C7.7012 3.83325 7.99967 4.13173 7.99967 4.49992C7.99967 4.86811 7.7012 5.16659 7.33301 5.16659H3.33301Z" fill="black"/>
</svg>
