<svg width="24" height="24" fill="none" xmlns="http://www.w3.org/2000/svg">
  <path d="M18.419 11.6c-1.272-2.892-3.788-4.85-6.669-4.85S6.352 8.709 5.081 11.6A1.204 1.204 0 0 0 5 12c0 .117.037.295.081.399 1.272 2.893 3.788 4.851 6.669 4.851s5.398-1.959 6.669-4.851c.044-.104.081-.283.081-.399 0-.117-.037-.295-.081-.4Zm-3.294.402a3.375 3.375 0 0 1-3.373 3.373h-.002a3.376 3.376 0 0 1 0-6.75A3.376 3.376 0 0 1 15.125 12v.002ZM11.75 9.75h-.005c-.054 0-.126.01-.193.018.122.217.198.465.198.732a1.5 1.5 0 0 1-1.5 1.5c-.268 0-.517-.076-.735-.2-.006.07-.015.144-.015.2a2.25 2.25 0 1 0 2.25-2.25Z" fill="#363740"/>
</svg>
