<svg width="20" height="20" viewBox="0 0 20 20" fill="none" xmlns="http://www.w3.org/2000/svg">
<g clip-path="url(#clip0_5956:8164)">
<path d="M9.9999 6.78125C8.22409 6.78125 6.78125 8.22409 6.78125 9.9999C6.78125 11.7757 8.22409 13.2186 9.9999 13.2186C11.7757 13.2186 13.2186 11.7757 13.2186 9.9999C13.2186 8.22409 11.7757 6.78125 9.9999 6.78125ZM9.75573 9.04541C9.35617 9.04541 9.02321 9.37837 9.02321 9.77793H7.95772C7.97992 8.77903 8.77904 7.97992 9.75573 7.97992V9.04541Z" fill="#7B7171"/>
<path d="M19.7669 9.33386C18.6792 7.97981 14.7947 3.5625 10 3.5625C5.20533 3.5625 1.32075 7.97981 0.233074 9.33386C-0.0776914 9.71122 -0.0776914 10.2662 0.233074 10.6657C1.32075 12.0198 5.20533 16.4371 10 16.4371C14.7947 16.4371 18.6792 12.0198 19.7669 10.6657C20.0777 10.2884 20.0777 9.73342 19.7669 9.33386ZM10 14.6613C7.42508 14.6613 5.33851 12.5747 5.33851 9.99979C5.33851 7.42487 7.42508 5.3383 10 5.3383C12.5749 5.3383 14.6615 7.42487 14.6615 9.99979C14.6615 12.5747 12.5749 14.6613 10 14.6613Z" fill="#7B7171"/>
</g>
<defs>
<clipPath id="clip0_5956:8164">
<rect width="20" height="20" fill="white"/>
</clipPath>
</defs>
</svg>
