<svg width="24" height="24" viewBox="0 0 24 24" fill="none" xmlns="http://www.w3.org/2000/svg">
  <path d="M11.6198 14.238L9.29167 12.4132C9.48625 13.4576 10.3994 14.25 11.5 14.25C11.541 14.25 11.5793 14.2401 11.6198 14.238ZM11.5014 15.375H11.5C9.63667 15.375 8.12498 13.863 8.12498 12.0001C8.12498 11.841 8.1505 11.6888 8.17183 11.5356L5.90514 9.75895C5.48863 10.3155 5.1253 10.9319 4.83128 11.601C4.78661 11.7048 4.74998 11.8839 4.74998 12.0001C4.74998 12.1167 4.78661 12.2953 4.83128 12.3991C6.10276 15.2924 8.61862 17.25 11.5 17.25C12.5655 17.25 13.5805 16.9807 14.5017 16.4968L12.7555 15.1281C12.3671 15.2841 11.9454 15.375 11.5014 15.375ZM18.7846 16.9946L16.3547 15.09C17.0899 14.3409 17.7132 13.4356 18.1686 12.3991C18.2133 12.2953 18.2499 12.1163 18.2499 12.0001C18.2499 11.8834 18.2133 11.7048 18.1686 11.601C16.8971 8.70776 14.3813 6.75016 11.5 6.75016C10.0306 6.75016 8.65862 7.26377 7.49605 8.14687L4.9097 6.11974C4.80641 6.03919 4.68412 6 4.56325 6C4.39626 6 4.23074 6.07397 4.12014 6.21532C3.92826 6.45996 3.97073 6.8137 4.21537 7.00523L18.0903 17.8801C18.3364 18.0723 18.6894 18.0284 18.8799 17.7845C19.0717 17.5399 19.0293 17.1861 18.7846 16.9946ZM14.8749 12.0015C14.8749 12.584 14.7181 13.1253 14.4546 13.6008L13.5509 12.8925C13.6737 12.6187 13.75 12.3201 13.75 12.0001C13.75 10.758 12.742 9.75012 11.5 9.75012H11.4948C11.4409 9.75082 11.3693 9.76048 11.3016 9.76802C11.4242 9.98536 11.5 10.2328 11.5 10.5001C11.5 10.7385 11.4396 10.9604 11.3397 11.1595L9.24323 9.51626C9.84006 8.9682 10.6258 8.62514 11.5 8.62514C13.3632 8.62514 14.8749 10.1372 14.8749 12.0001V12.0015Z" fill="#363740"/>
</svg>
