<svg width="22" height="22" viewBox="0 0 22 22" fill="none" xmlns="http://www.w3.org/2000/svg">
  <g clip-path="url(#clip0_4504:7508)">
    <path d="M11.0015 7.45947C9.04807 7.45947 7.46094 9.0466 7.46094 11C7.46094 12.9534 9.04807 14.5405 11.0015 14.5405C12.9548 14.5405 14.542 12.9534 14.542 11C14.542 9.0466 12.9548 7.45947 11.0015 7.45947ZM10.7329 9.95004C10.2934 9.95004 9.92709 10.3163 9.92709 10.7558H8.75506C8.77948 9.65704 9.6585 8.77801 10.7329 8.77801V9.95004Z" fill="black"/>
    <path d="M21.7436 10.2674C20.5472 8.77799 16.2741 3.91895 11 3.91895C5.72586 3.91895 1.45283 8.77799 0.256382 10.2674C-0.0854606 10.6825 -0.0854606 11.293 0.256382 11.7325C1.45283 13.2219 5.72586 18.081 11 18.081C16.2741 18.081 20.5472 13.2219 21.7436 11.7325C22.0855 11.3174 22.0855 10.707 21.7436 10.2674ZM11 16.1276C8.16759 16.1276 5.87236 13.8324 5.87236 11C5.87236 8.16756 8.16759 5.87233 11 5.87233C13.8324 5.87233 16.1276 8.16756 16.1276 11C16.1276 13.8324 13.8324 16.1276 11 16.1276Z" fill="black"/>
  </g>
  <defs>
    <clipPath id="clip0_4504:7508">
      <rect width="22" height="22" fill="white"/>
    </clipPath>
  </defs>
</svg>
