<svg width="24" height="24" viewBox="0 0 24 24" fill="none" xmlns="http://www.w3.org/2000/svg">
  <path d="M18.4187 11.6009C17.1472 8.70762 14.6314 6.75 11.75 6.75C8.86864 6.75 6.35206 8.70891 5.0813 11.6009C5.03661 11.7047 5 11.8838 5 12C5 12.1166 5.03661 12.2952 5.0813 12.399C6.35279 15.2923 8.86864 17.25 11.75 17.25C14.6314 17.25 17.1479 15.291 18.4187 12.399C18.4634 12.2952 18.5 12.1162 18.5 12C18.5 11.8834 18.4634 11.7047 18.4187 11.6009ZM15.125 12.0015C15.125 13.8637 13.614 15.375 11.7515 15.375H11.75C9.88672 15.375 8.375 13.8629 8.375 12C8.375 10.1371 9.88672 8.625 11.75 8.625C13.6133 8.625 15.125 10.1371 15.125 12V12.0015ZM11.75 9.75H11.7449C11.6909 9.75068 11.6194 9.76034 11.5517 9.76791C11.6743 9.98524 11.75 10.2327 11.75 10.5C11.75 11.3284 11.0784 12 10.25 12C9.98166 12 9.73341 11.9238 9.51547 11.8004C9.50851 11.8706 9.5 11.9443 9.5 12C9.5 13.2421 10.5079 14.25 11.75 14.25C12.9921 14.25 14 13.2421 14 12C14 10.7579 12.9921 9.75 11.75 9.75Z" fill="#363740"/>
</svg>
