<svg width="24" height="24" viewBox="0 0 24 24" fill="none" xmlns="http://www.w3.org/2000/svg">
  <path d="M7.54612 13.6702L6.98915 15.7494L4.95346 15.7925C4.34508 14.6641 4 13.373 4 12.0011C4 10.6744 4.32264 9.42337 4.89455 8.32178H4.89498L6.70733 8.65404L7.50124 10.4555C7.33508 10.9399 7.24451 11.46 7.24451 12.0011C7.24457 12.5884 7.35095 13.1511 7.54612 13.6702Z" fill="#FBBB00"/>
  <path d="M19.8605 10.5054C19.9524 10.9893 20.0003 11.4891 20.0003 11.9999C20.0003 12.5727 19.9401 13.1314 19.8254 13.6704C19.4359 15.5043 18.4183 17.1057 17.0085 18.239L17.0081 18.2385L14.7254 18.122L14.4023 16.1052C15.3377 15.5566 16.0687 14.6981 16.4538 13.6704H12.1758V10.5054H16.5162H19.8605Z" fill="#518EF8"/>
  <path d="M17.0082 18.2384L17.0087 18.2388C15.6376 19.3409 13.896 20.0002 12.0001 20.0002C8.95333 20.0002 6.30441 18.2973 4.95312 15.7912L7.54579 13.6689C8.22142 15.4721 9.96085 16.7557 12.0001 16.7557C12.8766 16.7557 13.6978 16.5187 14.4024 16.1051L17.0082 18.2384Z" fill="#28B446"/>
  <path d="M17.107 5.84185L14.5152 7.96371C13.786 7.50787 12.9239 7.24454 12.0004 7.24454C9.91501 7.24454 8.14304 8.58702 7.50126 10.4548L4.89497 8.3211H4.89453C6.22604 5.75393 8.90836 4 12.0004 4C13.9416 4 15.7215 4.69147 17.107 5.84185Z" fill="#F14336"/>
</svg>
