<svg width="24" height="24" viewBox="0 0 24 24" fill="none" xmlns="http://www.w3.org/2000/svg">
  <path d="M12.4091 20L5.5 16V8L12.4091 4L19.3182 8V16L12.4091 20ZM12.4091 5.68145L6.95455 8.83855V15.1615L12.4091 18.3193L17.8636 15.1615V8.83855L12.4091 5.68073V5.68145ZM12.4091 14.9091C11.6378 14.9069 10.8985 14.6006 10.3516 14.0567C9.51981 13.2247 9.27109 11.9734 9.72144 10.8865C10.1718 9.79953 11.2325 9.09091 12.4091 9.09091C13.1802 9.09298 13.9193 9.39929 14.4658 9.94327C15.6015 11.0793 15.6015 12.9207 14.4658 14.0567C13.9192 14.6005 13.1801 14.9068 12.4091 14.9091ZM12.4091 10.5455C11.7152 10.5453 11.1178 11.0354 10.9822 11.716C10.8467 12.3965 11.2108 13.078 11.8519 13.3437C12.493 13.6094 13.2324 13.3852 13.6181 12.8083C14.0037 12.2314 13.9281 11.4624 13.4375 10.9716C13.1653 10.698 12.795 10.5446 12.4091 10.5455Z" fill="#363740"/>
</svg>
