<svg width="15" height="15" viewBox="0 0 15 15" fill="none" xmlns="http://www.w3.org/2000/svg">
  <path d="M14.5307 6.49528C14.5304 6.49494 14.53 6.4946 14.5297 6.49425L8.43807 0.402865C8.17842 0.143099 7.8332 0 7.466 0C7.09879 0 6.75358 0.142985 6.49381 0.402751L0.405386 6.49106C0.403336 6.49312 0.401285 6.49528 0.399234 6.49733C-0.133969 7.03361 -0.133058 7.90371 0.401855 8.43862C0.646239 8.68312 0.969009 8.82474 1.31411 8.83955C1.32812 8.84092 1.34225 8.8416 1.35649 8.8416H1.59928V13.3245C1.59928 14.2116 2.32104 14.9333 3.20835 14.9333H5.59158C5.83312 14.9333 6.02908 14.7375 6.02908 14.4958V10.9812C6.02908 10.5764 6.35835 10.2472 6.76315 10.2472H8.16885C8.57365 10.2472 8.90291 10.5764 8.90291 10.9812V14.4958C8.90291 14.7375 9.09876 14.9333 9.34041 14.9333H11.7236C12.611 14.9333 13.3327 14.2116 13.3327 13.3245V8.8416H13.5578C13.9249 8.8416 14.2701 8.69862 14.53 8.43885C15.0655 7.90303 15.0657 7.03145 14.5307 6.49528Z" fill="#363740"/>
</svg>
