<svg width="16" height="16" viewBox="0 0 16 16" fill="none" xmlns="http://www.w3.org/2000/svg">
  <path d="M14.3525 5.25142L9.1338 0.438117C8.50087 -0.145608 7.50165 -0.14647 6.86779 0.438117L1.64903 5.25142C1.15879 5.70356 0.800781 6.51712 0.800781 7.18211V14.4021C0.800781 15.2844 1.52052 16 2.4009 16H7.21354V11.2323H8.80504V16H13.5981C14.4823 16 15.2007 15.2862 15.2007 14.4021V7.18211C15.2008 6.51697 14.8438 5.70446 14.3525 5.25142ZM13.5981 14.4H10.4051V9.63232H5.61356V14.4C3.47172 14.4006 2.40079 14.4013 2.40079 14.4021V7.18211C2.40079 6.96487 2.57127 6.57742 2.73379 6.42754L7.95255 1.61427C7.97321 1.59522 8.02845 1.59525 8.04904 1.61427L13.2678 6.42754C13.4311 6.57814 13.6008 6.96439 13.6008 7.18211C13.6005 11.994 13.5996 14.4 13.5981 14.4Z" fill="black"/>
</svg>
