<svg width="16" height="16" viewBox="0 0 16 16" fill="none" xmlns="http://www.w3.org/2000/svg">
  <g clip-path="url(#clip0_999:41313)">
    <path d="M8.24506 2.2087C6.86967 2.14786 5.57125 2.63444 4.58127 3.58094C3.59184 4.5269 3.04688 5.80125 3.04688 7.16912C3.04688 8.72717 3.7559 10.165 4.99252 11.114C5.80312 11.7359 6.28725 12.714 6.28725 13.735V14.7744C6.28725 14.9513 6.43025 15.0944 6.60717 15.0944C6.92996 15.0944 7.19287 15.3572 7.19287 15.68C7.19287 15.8569 7.33588 16 7.51279 16H8.50223C8.679 16 8.82215 15.8569 8.82215 15.68C8.82215 15.3572 9.08506 15.0944 9.40785 15.0944C9.58463 15.0944 9.72777 14.9513 9.72777 14.7744L9.72818 13.7356C9.73037 12.7196 10.2212 11.7527 11.0747 11.0831C12.2866 10.1325 12.9813 8.70557 12.981 7.16776C12.9803 4.55096 10.8556 2.32628 8.24506 2.2087ZM9.08779 14.4968C8.66875 14.6103 8.33816 14.9409 8.22469 15.3599H7.79033C7.67685 14.9409 7.34627 14.6103 6.92723 14.4968V14.055H9.08779V14.4968ZM8.40502 8.75725V13.415H7.62285V8.75725H8.40502ZM7.73988 8.11713L8.01441 7.2491L8.28812 8.11713H7.73988ZM10.6797 10.5794C9.75963 11.3013 9.19662 12.321 9.10215 13.415H9.045V8.43869C9.045 8.41777 9.04254 8.39494 9.03844 8.37443C9.03721 8.36814 9.03338 8.36322 9.03174 8.35721C9.03037 8.35174 9.03174 8.34641 9.02996 8.34094L8.31998 6.09028C8.27787 5.95725 8.15441 5.8666 8.01469 5.8666C7.87496 5.8666 7.7515 5.95684 7.70967 6.09L6.99818 8.34066C6.99641 8.34613 6.98273 8.39248 6.98287 8.43869V13.415H6.9141C6.82373 12.3163 6.26537 11.2838 5.38189 10.6062C4.30469 9.77935 3.68686 8.5266 3.68686 7.16912C3.68686 5.97748 4.16154 4.86747 5.02342 4.04346C5.88598 3.21878 7.02156 2.79194 8.21621 2.84813C10.49 2.95067 12.3403 4.88838 12.3409 7.16776C12.3413 8.50787 11.7356 9.75119 10.6797 10.5794Z" fill="black"/>
    <path d="M12.4291 11.1304C12.3041 11.0053 12.1015 11.0053 11.9765 11.1304C11.8516 11.2554 11.8516 11.4579 11.9765 11.5828L12.6335 12.24C12.696 12.3025 12.7778 12.3338 12.8597 12.3338C12.9415 12.3338 13.0234 12.3025 13.0859 12.24C13.211 12.1151 13.211 11.9126 13.0859 11.7875L12.4291 11.1304Z" fill="black"/>
    <path d="M14.8665 6.8501H13.9371C13.7603 6.8501 13.6172 6.99324 13.6172 7.17016C13.6172 7.34694 13.7603 7.49008 13.9371 7.49008H14.8665C15.0434 7.49008 15.1866 7.34694 15.1866 7.17016C15.1866 6.99324 15.0434 6.8501 14.8665 6.8501Z" fill="black"/>
    <path d="M12.6335 2.10007L11.9765 2.75728C11.8516 2.88224 11.8516 3.08472 11.9765 3.20982C12.039 3.2723 12.1209 3.30347 12.2028 3.30347C12.2847 3.30347 12.3666 3.2723 12.4291 3.20982L13.0859 2.55261C13.211 2.42751 13.211 2.22503 13.0859 2.10007C12.9609 1.97511 12.7584 1.97511 12.6335 2.10007Z" fill="black"/>
    <path d="M8.01537 1.56939C8.19228 1.56939 8.33542 1.42625 8.33542 1.24934V0.320059C8.33542 0.143145 8.19228 0 8.01537 0C7.83846 0 7.69531 0.143145 7.69531 0.320059V1.24934C7.69531 1.42625 7.83846 1.56939 8.01537 1.56939Z" fill="black"/>
    <path d="M3.60218 3.20982C3.66466 3.2723 3.74655 3.30347 3.82845 3.30347C3.91034 3.30347 3.99224 3.2723 4.05472 3.20982C4.17968 3.08472 4.17968 2.88224 4.05472 2.75728L3.39779 2.10007C3.27283 1.97511 3.07035 1.97511 2.94539 2.10007C2.82029 2.22503 2.82029 2.42751 2.94539 2.55261L3.60218 3.20982Z" fill="black"/>
    <path d="M2.09713 6.8501H1.16771C0.990801 6.8501 0.847656 6.99324 0.847656 7.17016C0.847656 7.34694 0.990801 7.49008 1.16771 7.49008H2.09713C2.2739 7.49008 2.41705 7.34694 2.41705 7.17016C2.41705 6.99324 2.2739 6.8501 2.09713 6.8501Z" fill="black"/>
    <path d="M3.60218 11.1304L2.94539 11.7875C2.82029 11.9126 2.82029 12.1151 2.94539 12.24C3.00787 12.3025 3.08976 12.3338 3.17152 12.3338C3.25341 12.3338 3.33531 12.3025 3.39779 12.24L4.05472 11.5828C4.17968 11.4579 4.17968 11.2554 4.05472 11.1304C3.92976 11.0053 3.72714 11.0053 3.60218 11.1304Z" fill="black"/>
  </g>
  <defs>
    <clipPath id="clip0_999:41313">
      <rect width="16" height="16" fill="white"/>
    </clipPath>
  </defs>
</svg>
