<svg width="14" height="16" viewBox="0 0 14 16" fill="none" xmlns="http://www.w3.org/2000/svg">
  <path d="M8.43545 5.2174C8.14742 5.2174 7.9137 4.98368 7.9137 4.69565V0H1.13112C0.843093 0 0.609375 0.233718 0.609375 0.521749V15.4783C0.609375 15.7663 0.843093 16 1.13112 16H12.6094C12.8974 16 13.1311 15.7663 13.1311 15.4783V5.2174H8.43545ZM7.39199 12.8695H3.21806C2.93003 12.8695 2.69631 12.6358 2.69631 12.3478C2.69631 12.0598 2.93003 11.826 3.21806 11.826H7.39196C7.67999 11.826 7.9137 12.0598 7.9137 12.3478C7.9137 12.6358 7.68002 12.8695 7.39199 12.8695ZM10.5224 10.7826H3.21806C2.93003 10.7826 2.69631 10.5489 2.69631 10.2608C2.69631 9.97279 2.93003 9.73908 3.21806 9.73908H10.5224C10.8104 9.73908 11.0442 9.97279 11.0442 10.2608C11.0442 10.5489 10.8104 10.7826 10.5224 10.7826ZM10.5224 8.69564H3.21806C2.93003 8.69564 2.69631 8.46192 2.69631 8.17389C2.69631 7.88586 2.93003 7.65214 3.21806 7.65214H10.5224C10.8104 7.65214 11.0442 7.88586 11.0442 8.17389C11.0441 8.46192 10.8104 8.69564 10.5224 8.69564Z" fill="black"/>
</svg>
