<svg width="24" height="24" viewBox="0 0 24 24" fill="none" xmlns="http://www.w3.org/2000/svg">
  <path d="M19.5013 11.5H13.168C12.892 11.5 12.668 11.276 12.668 11C12.668 10.724 12.892 10.5 13.168 10.5H19.5013C19.7773 10.5 20.0013 10.724 20.0013 11C20.0013 11.276 19.7773 11.5 19.5013 11.5Z" fill="black"/>
  <path d="M16.9999 13.9992C16.8718 13.9992 16.7439 13.9505 16.6465 13.8526C16.4512 13.6572 16.4512 13.3405 16.6465 13.1452L18.7932 10.9986L16.6465 8.8519C16.4512 8.65658 16.4512 8.33993 16.6465 8.14462C16.8419 7.94919 17.1586 7.94919 17.3539 8.14462L19.8539 10.6446C20.0492 10.8399 20.0492 11.1566 19.8539 11.3519L17.3539 13.8519C17.2559 13.9505 17.1279 13.9992 16.9999 13.9992Z" fill="black"/>
  <path d="M9.33337 20C9.19067 20 9.0553 19.98 8.92004 19.938L4.90796 18.6013C4.36206 18.4106 4 17.902 4 17.3334V5.33337C4 4.59802 4.59802 4 5.33337 4C5.47595 4 5.61133 4.02002 5.7467 4.06201L9.75867 5.39868C10.3047 5.58936 10.6666 6.09802 10.6666 6.66663V18.6666C10.6666 19.402 10.0687 20 9.33337 20ZM5.33337 5C5.15002 5 5 5.15002 5 5.33337V17.3334C5 17.4753 5.09534 17.6073 5.23132 17.6547L9.22461 18.9854C9.2533 18.9946 9.29065 19 9.33337 19C9.51672 19 9.66663 18.85 9.66663 18.6666V6.66663C9.66663 6.52466 9.57129 6.3927 9.4353 6.34534L5.44202 5.01465C5.41333 5.00537 5.37598 5 5.33337 5Z" fill="black"/>
  <path d="M14.1653 9.33337C13.8893 9.33337 13.6653 9.10938 13.6653 8.83337V5.83337C13.6653 5.37402 13.2914 5 12.832 5H5.33203C5.05603 5 4.83203 4.776 4.83203 4.5C4.83203 4.224 5.05603 4 5.33203 4H12.832C13.8434 4 14.6653 4.82202 14.6653 5.83337V8.83337C14.6653 9.10938 14.4413 9.33337 14.1653 9.33337Z" fill="black"/>
  <path d="M12.8347 17.9999H10.168C9.89197 17.9999 9.66797 17.7759 9.66797 17.4999C9.66797 17.2239 9.89197 16.9999 10.168 16.9999H12.8347C13.2941 16.9999 13.668 16.6258 13.668 16.1665V13.1665C13.668 12.8905 13.892 12.6665 14.168 12.6665C14.444 12.6665 14.668 12.8905 14.668 13.1665V16.1665C14.668 17.1778 13.8461 17.9999 12.8347 17.9999Z" fill="black"/>
</svg>
