<svg width="85" height="20" viewBox="0 0 85 20" fill="none" xmlns="http://www.w3.org/2000/svg">
  <g clip-path="url(#clip0_5480:42865)">
    <path d="M31.0336 2.75586L30.9822 3.91823H27.0796V17.1377H25.6737V3.94121H21.6875V2.75586H31.0336Z" fill="white"/>
    <path d="M27.5564 17.624H25.1981V4.41102H21.2119V2.27344H31.5297L31.4396 4.40445H27.5564V17.624ZM26.1504 16.6389H26.604V3.43252H30.5291V3.24208H22.1642V3.44238H26.1504V16.6389Z" fill="white"/>
    <path d="M44.7198 17.1972H43.375V2.86133H44.7616C47.3354 6.84535 49.9264 10.8403 52.5345 14.8462L52.615 14.8232V2.86133H53.992V17.1972H52.615C50.0261 13.1913 47.4255 9.17337 44.8131 5.14338L44.7198 5.16637V17.1972Z" fill="white"/>
    <path d="M54.4589 17.6795H52.3516L45.1868 6.61076V17.6795H42.8896V2.375H45.0066L52.12 13.3617V2.375H54.4493L54.4589 17.6795ZM52.8503 16.6945H53.4937V3.34693H53.0851V15.1873L52.3259 15.4139L44.4951 3.34693H43.8516V16.7109H44.2473V4.79168L45.0291 4.58482L52.8503 16.6945Z" fill="white"/>
    <path d="M75.3481 12.0914C75.1132 13.7332 76.4001 15.5326 78.1246 16.0317C79.849 16.5308 82.1462 16.0842 82.9312 13.7004H84.3436C84.1485 14.5878 83.6875 15.3912 83.0245 15.9989C81.8566 17.0857 80.4507 17.4272 78.9032 17.3385C78.0741 17.3013 77.2647 17.0686 76.5385 16.6588C75.9754 16.3445 75.4788 15.9195 75.0774 15.4083C74.676 14.8972 74.3776 14.31 74.1995 13.6807C73.7343 12.2184 73.7626 10.6392 74.28 9.19537C74.9813 7.24495 76.4001 6.14497 78.4045 5.84617C79.8244 5.58564 81.2878 5.90651 82.4775 6.73929C83.0634 7.15567 83.5495 7.70185 83.8993 8.33698C84.2492 8.97211 84.4539 9.67976 84.498 10.407C84.5495 10.9488 84.498 11.4971 84.498 12.0849L75.3481 12.0914ZM83.1467 10.9455C83.1467 9.50402 82.6834 8.34822 81.4834 7.58644C80.7914 7.16571 79.9976 6.95159 79.1922 6.96842C78.3869 6.98526 77.6023 7.23237 76.9278 7.68166C75.8403 8.47628 75.3738 9.59268 75.2966 10.9455H83.1467Z" fill="white"/>
    <path d="M79.3572 17.8402C79.1995 17.8402 79.0354 17.8402 78.8778 17.8402C77.9759 17.7975 77.0955 17.5448 76.304 17.1014C75.6858 16.7577 75.1402 16.2926 74.6985 15.7331C74.2568 15.1736 73.9278 14.5305 73.7302 13.8409C73.2327 12.2778 73.2644 10.5894 73.8203 9.04694C74.5602 6.97831 76.1174 5.71087 78.3244 5.3858C79.8665 5.10726 81.454 5.46127 82.7417 6.37086C83.3839 6.8277 83.9172 7.42613 84.302 8.12184C84.6868 8.81755 84.9134 9.59271 84.9649 10.3899C84.9927 10.7844 84.998 11.1802 84.9809 11.5753C84.9809 11.7493 84.9809 11.9332 84.9809 12.1138V12.5767H75.7989C75.8471 13.8475 76.9056 15.1707 78.2504 15.5516C79.8205 15.9982 81.8152 15.5516 82.4811 13.5355L82.5905 13.2072H84.9359L84.8072 13.7916C84.5902 14.7792 84.0788 15.6739 83.3434 16.3528C82.2544 17.3582 80.8248 17.8917 79.3572 17.8402ZM79.4119 6.2625C79.0974 6.26291 78.7834 6.28705 78.4724 6.33474C76.6129 6.60727 75.3517 7.62845 74.7275 9.36872C74.2456 10.7112 74.2207 12.1801 74.6568 13.5388C74.8176 14.1086 75.0871 14.6404 75.4498 15.1036C75.8125 15.5667 76.2614 15.9522 76.7705 16.2379C77.4342 16.6104 78.1727 16.8227 78.9293 16.8585C80.4961 16.9471 81.7315 16.5498 82.7031 15.6436C83.1447 15.241 83.4874 14.7383 83.7037 14.1758H83.2597C83.0594 14.682 82.7575 15.1397 82.3736 15.5197C81.9896 15.8997 81.532 16.1936 81.0301 16.3823C80.0538 16.7364 78.9939 16.7731 77.9963 16.4874C76.037 15.9325 74.6085 13.8869 74.8788 12.0218L74.9367 11.6081H84.0383C84.0383 11.5818 84.0383 11.5556 84.0383 11.5293C84.0541 11.1725 84.0487 10.815 84.0222 10.4589C83.9825 9.80191 83.7982 9.16255 83.4829 8.58837C83.1676 8.01418 82.7295 7.51996 82.2012 7.14249C81.3862 6.55503 80.4095 6.2469 79.4119 6.2625ZM83.6265 11.4308H74.7919L74.8208 10.9153C74.9141 9.30634 75.5158 8.1177 76.6515 7.30338C77.4047 6.80264 78.28 6.52655 79.1787 6.50625C80.0774 6.48594 80.9638 6.72222 81.7379 7.18846C82.9991 7.99292 83.6168 9.22425 83.6233 10.958L83.6265 11.4308ZM75.8246 10.4457H82.6516C82.6334 9.94744 82.4943 9.46156 82.2466 9.03173C81.999 8.6019 81.6506 8.24156 81.2328 7.98307C80.6211 7.61137 79.9196 7.42176 79.2078 7.43569C78.496 7.44962 77.8022 7.66652 77.2048 8.06188C76.8213 8.33863 76.4999 8.69549 76.262 9.10877C76.024 9.52204 75.8749 9.98226 75.8246 10.4589V10.4457Z" fill="white"/>
    <path d="M30.8855 11.5842C30.8855 9.9195 31.3424 8.43534 32.5521 7.25984C33.493 6.34995 34.7309 5.8282 36.0267 5.79538C37.9828 5.70672 39.6622 6.32403 40.8526 7.97565C41.4728 8.85073 41.8294 9.89141 41.8789 10.9702C42.0102 12.2167 41.7726 13.4747 41.1968 14.5821C40.7894 15.3401 40.2064 15.9847 39.4986 16.4598C38.7909 16.9349 37.98 17.2259 37.1367 17.3074C36.088 17.469 35.0159 17.328 34.0417 16.9003C32.1113 16.0334 31.1461 14.4442 30.9016 12.3559C30.8855 12.1687 30.8855 11.9848 30.8855 11.801C30.8662 11.7287 30.8855 11.6565 30.8855 11.5842ZM40.4987 11.4923C40.4987 11.3938 40.4794 11.2263 40.4697 11.0556C40.3378 8.80638 38.9995 7.29267 36.8149 7.01685C35.9544 6.88629 35.0758 7.05244 34.3183 7.48898C33.5607 7.92552 32.9675 8.60752 32.6325 9.42697C32.178 10.575 32.1023 11.843 32.4169 13.0389C32.7902 14.5526 33.7039 15.5902 35.2031 15.994C36.7602 16.3979 38.1791 16.0794 39.3308 14.8875C40.2156 13.9714 40.4794 12.8057 40.4987 11.4923Z" fill="white"/>
    <path d="M36.2724 17.8464C35.439 17.8502 34.6139 17.6769 33.8498 17.3375C31.8551 16.4476 30.7065 14.7894 30.4266 12.4122C30.4266 12.2611 30.4041 12.1134 30.4009 11.9689C30.4009 11.9229 30.4009 11.8769 30.4009 11.831C30.3976 11.7719 30.3976 11.7127 30.4009 11.6537V11.5913C30.4009 9.62115 30.9928 8.10416 32.2154 6.91552C33.2383 5.92406 34.5854 5.3554 35.9957 5.31972C38.2477 5.21465 40.014 6.01255 41.2398 7.69371C41.9148 8.64287 42.3029 9.77287 42.3562 10.9444C42.4939 12.2824 42.2362 13.6318 41.6162 14.819C41.1705 15.6401 40.5358 16.3381 39.7668 16.853C38.9978 17.3678 38.1176 17.684 37.2021 17.7742C36.8941 17.8194 36.5835 17.8436 36.2724 17.8464ZM36.3882 6.27523C36.2691 6.27523 36.1533 6.27523 36.0343 6.27523C34.853 6.30243 33.7237 6.77634 32.8653 7.60506C31.8422 8.59012 31.3435 9.90353 31.3435 11.5749V11.7719C31.3435 11.8211 31.3435 11.8704 31.3435 11.9196C31.3435 12.0477 31.3435 12.1692 31.366 12.2841C31.6041 14.3265 32.5403 15.6858 34.223 16.4378C35.1177 16.8287 36.1015 16.9572 37.0638 16.8088C38.7689 16.5757 39.9851 15.7614 40.7733 14.3265C41.3063 13.3054 41.5229 12.1431 41.3942 10.9937C41.3544 10.008 41.0298 9.05633 40.4612 8.25848C39.4928 6.92865 38.1577 6.27523 36.3882 6.27523ZM36.4397 16.6446C35.9836 16.6427 35.5296 16.582 35.0884 16.464C33.4798 16.0405 32.3891 14.9011 31.9612 13.1805C31.6201 11.8823 31.7026 10.5061 32.1961 9.25996C32.5695 8.34169 33.2322 7.57672 34.0795 7.08609C34.9267 6.59545 35.9101 6.40718 36.874 6.55105C39.2773 6.85641 40.799 8.53758 40.9438 11.0429C40.9438 11.1644 40.9438 11.2892 40.9663 11.3713V11.4862V11.4928C40.9663 12.5304 40.799 14.0408 39.6794 15.2196C39.2636 15.6706 38.7615 16.0298 38.2043 16.2749C37.647 16.52 37.0465 16.6458 36.4397 16.6446ZM36.3045 7.47372C35.6193 7.45813 34.9455 7.6542 34.3714 8.03623C33.7973 8.41826 33.3497 8.96842 33.0873 9.61458C32.6721 10.6693 32.6032 11.8329 32.891 12.931C33.2353 14.3166 34.0557 15.19 35.3361 15.5217C35.9771 15.7239 36.6607 15.7388 37.3095 15.5647C37.9584 15.3906 38.5464 15.0344 39.007 14.5366C39.6923 13.8241 40.0108 12.8948 40.0333 11.5026V11.4304C40.0333 11.3319 40.0333 11.2038 40.0108 11.079C39.895 9.04653 38.7239 7.73968 36.771 7.49014C36.616 7.47559 36.4602 7.47011 36.3045 7.47372Z" fill="white"/>
    <path d="M55.7648 11.5842C55.7648 9.9195 56.2217 8.43534 57.4346 7.25984C58.3743 6.35017 59.6112 5.82839 60.906 5.79538C62.8653 5.70672 64.5415 6.32403 65.7319 7.97565C66.3534 8.85001 66.7102 9.89111 66.7582 10.9702C66.8889 12.2163 66.6525 13.4738 66.0794 14.5821C65.1882 16.1976 63.8015 17.0612 62.016 17.3074C60.9673 17.4689 59.8953 17.3278 58.921 16.9003C56.9906 16.0334 56.0254 14.4442 55.7841 12.3559C55.7616 12.1753 55.7616 11.9914 55.752 11.8075C55.7616 11.7287 55.7648 11.6565 55.7648 11.5842ZM65.3941 11.4923C65.3941 11.3938 65.3748 11.2263 65.3651 11.0556C65.2364 8.80638 63.8948 7.29267 61.7103 7.01685C60.8497 6.88571 59.9709 7.0516 59.2132 7.48821C58.4555 7.92483 57.8624 8.60716 57.5279 9.42697C57.0717 10.5747 56.996 11.8431 57.3123 13.0389C57.6855 14.5526 58.5992 15.5902 60.0953 15.994C61.6556 16.3979 63.0712 16.0794 64.223 14.8875C65.1142 13.9714 65.378 12.8057 65.3941 11.4923Z" fill="white"/>
    <path d="M61.1674 17.8464C60.334 17.8502 59.509 17.6769 58.7448 17.3375C56.7533 16.4476 55.6015 14.7894 55.3249 12.4122C55.3056 12.2611 55.3023 12.1134 55.2959 11.9689C55.2959 11.9229 55.2959 11.8769 55.2959 11.831C55.2959 11.785 55.2959 11.7062 55.2959 11.6537V11.5913C55.2959 9.62115 55.8879 8.10416 57.1137 6.91552C58.1362 5.92353 59.4835 5.35478 60.8939 5.31972C63.146 5.21465 64.9123 6.01255 66.1349 7.69371C66.8095 8.6433 67.1985 9.77287 67.2545 10.9444C67.3906 12.2823 67.1329 13.6312 66.5145 14.819C66.0686 15.6399 65.4338 16.3378 64.6648 16.8526C63.8959 17.3674 63.0158 17.6837 62.1004 17.7742C61.7913 17.8193 61.4796 17.8435 61.1674 17.8464ZM61.2832 6.27523C61.1674 6.27523 61.0484 6.27523 60.9293 6.27523C59.749 6.30262 58.6208 6.77655 57.7635 7.60506C56.7372 8.59012 56.2418 9.90353 56.2418 11.5749V11.6471C56.2418 11.6898 56.2418 11.7292 56.2418 11.7719C56.2418 11.8145 56.2418 11.8704 56.2418 11.9196C56.2418 12.0477 56.2418 12.1692 56.2611 12.2808C56.5024 14.3265 57.4354 15.6858 59.1212 16.4378C60.0147 16.829 60.9976 16.9575 61.9588 16.8088C63.6672 16.5757 64.8801 15.7614 65.6716 14.3265C66.2027 13.3047 66.4191 12.1431 66.2925 10.9937C66.2527 10.008 65.928 9.05633 65.3595 8.25848C64.3911 6.92865 63.0592 6.27523 61.2832 6.27523ZM61.3347 16.6446C60.8797 16.6425 60.4268 16.5818 59.9867 16.464C58.378 16.0405 57.2842 14.9011 56.8563 13.1805C56.5162 11.882 56.5998 10.5057 57.0944 9.25996C57.4651 8.3389 58.1268 7.57073 58.9744 7.07753C59.822 6.58432 60.8068 6.39439 61.7722 6.53791C64.1755 6.84328 65.6973 8.52445 65.8421 11.0298C65.8421 11.148 65.8421 11.2695 65.8646 11.3581V11.4796V11.4928C65.8646 12.5304 65.7005 14.0408 64.5777 15.2196C64.1613 15.6707 63.6586 16.0299 63.1009 16.275C62.5431 16.5201 61.942 16.6459 61.3347 16.6446ZM61.1996 7.47372C60.5142 7.45722 59.84 7.65292 59.2657 8.03506C58.6914 8.4172 58.244 8.96788 57.9823 9.61458C57.5639 10.6685 57.4949 11.8333 57.7861 12.931C58.1271 14.3166 58.9507 15.19 60.228 15.5217C60.8689 15.7239 61.5526 15.7388 62.2014 15.5647C62.8502 15.3906 63.4383 15.0344 63.8989 14.5366C64.5874 13.8241 64.9026 12.8948 64.9252 11.4993V11.4205C64.9252 11.3253 64.9091 11.2005 64.9026 11.0922C64.7836 9.05966 63.6157 7.75282 61.6629 7.50327C61.5091 7.48467 61.3544 7.47481 61.1996 7.47372Z" fill="white"/>
    <path d="M68.5699 7.12276H67.0449V5.96039H68.5635V3.15625H69.9308V5.9571H72.9808V7.11291H69.9791C69.9791 7.31977 69.9501 7.47738 69.9501 7.63171C69.9501 9.73973 69.9501 11.8478 69.9501 13.9525C69.9505 14.2929 69.9818 14.6326 70.0434 14.9671C70.0752 15.2192 70.191 15.4525 70.3715 15.6277C70.5519 15.8029 70.786 15.9094 71.0343 15.9292C71.4944 15.9883 71.9641 15.985 72.4306 16.0047C72.6043 16.0047 72.7813 16.0047 72.9776 16.0047V17.1211C72.8855 17.1431 72.7919 17.1574 72.6977 17.1638C72.1604 17.1638 71.6199 17.1638 71.089 17.1638C69.5061 17.0981 68.6085 16.1787 68.5892 14.5698C68.5603 12.2713 68.5892 9.99257 68.5731 7.70066L68.5699 7.12276Z" fill="white"/>
    <path d="M71.8744 17.656C71.6074 17.656 71.3371 17.656 71.0669 17.656C69.2105 17.5804 68.1328 16.4608 68.1102 14.5826C68.0909 12.9736 68.0909 11.3385 68.1102 9.75579C68.1102 9.07281 68.1102 8.38984 68.1102 7.70686V7.62149H66.582V5.48719H68.1006V2.66992H70.4202V5.47078H73.4702V7.59851H70.4267V8.38655C70.4267 10.2122 70.4267 12.0969 70.4267 13.9686C70.4296 14.2792 70.4587 14.589 70.5135 14.8945C70.5339 15.0406 70.6041 15.1747 70.7118 15.2732C70.8195 15.3717 70.9577 15.4283 71.1023 15.433C71.424 15.4757 71.7457 15.4823 72.0675 15.4954H72.4471C72.5533 15.4954 72.6659 15.4954 72.7881 15.4954H73.4509V17.5345L73.0519 17.6034H72.9779C72.8862 17.6256 72.7923 17.6377 72.698 17.6396H71.8744V17.656ZM67.5215 6.63643H69.0465V9.74594C69.0465 11.322 69.0465 12.9539 69.0465 14.5596C69.0625 15.9058 69.7478 16.6184 71.0894 16.6709C71.4948 16.6709 71.913 16.6709 72.3152 16.6709H72.4921V16.4837H72.3988H72.0289C71.6719 16.4799 71.3153 16.4569 70.9607 16.4148C70.6123 16.383 70.2846 16.2321 70.0306 15.9866C69.7766 15.7411 69.6112 15.4153 69.5612 15.062C69.5059 14.696 69.4833 14.3256 69.4937 13.9554C69.4937 12.1002 69.4937 10.2122 69.4937 8.37342V7.61821C69.4937 7.49672 69.4937 7.37851 69.513 7.25374C69.513 7.19792 69.513 7.13553 69.513 7.06986L69.5419 6.61673H72.5114V6.42957H69.4615V3.63856H69.0432V6.44599H67.5279L67.5215 6.63643Z" fill="white"/>
    <path d="M19.5516 11.0731C19.4237 11.2874 19.3413 11.5268 19.3097 11.7756C19.2781 12.0245 19.298 12.2774 19.3682 12.5179C19.4669 12.8399 19.459 13.186 19.3457 13.5029C19.2153 13.8266 18.9907 14.1017 18.7023 14.291C18.4815 14.4292 18.2986 14.622 18.1703 14.8516C18.0421 15.0812 17.9728 15.3401 17.9687 15.6044C17.9487 15.9542 17.8167 16.2877 17.5929 16.5535C17.3691 16.8192 17.066 17.0026 16.7301 17.0754C16.4792 17.1348 16.2463 17.2554 16.0512 17.427C15.8562 17.5986 15.705 17.816 15.6105 18.0605C15.4636 18.3945 15.217 18.6726 14.9059 18.8551C14.5865 19.0285 14.2222 19.0962 13.8635 19.0488C13.657 19.0134 13.4451 19.0286 13.2454 19.0931C13.0457 19.1576 12.8639 19.2696 12.7149 19.4199C12.5512 19.6029 12.3527 19.75 12.1314 19.8522C11.9102 19.9543 11.6708 20.0095 11.428 20.0142C11.2452 20.0129 11.0634 19.9864 10.8875 19.9354C10.2665 19.76 9.61042 19.76 8.98936 19.9354C8.83466 19.9751 8.67592 19.996 8.51642 19.9978C8.27431 19.9963 8.0351 19.9439 7.81369 19.8439C7.59228 19.7439 7.39343 19.5984 7.22952 19.4166C7.08769 19.2658 6.9116 19.153 6.71687 19.0883C6.52213 19.0236 6.31476 19.0089 6.11313 19.0455C5.73632 19.0948 5.35375 19.0261 5.01604 18.8485C4.6911 18.6629 4.43377 18.3749 4.28251 18.0276C4.1844 17.7925 4.03383 17.5839 3.84281 17.4186C3.65179 17.2533 3.42558 17.1358 3.18221 17.0754C2.84155 16.9929 2.53656 16.7992 2.31355 16.5238C2.09493 16.2305 1.96721 15.8771 1.94678 15.5092C1.93802 15.2854 1.87785 15.0669 1.7711 14.8713C1.66436 14.6756 1.51404 14.5084 1.33228 14.3829C1.00791 14.1695 0.757931 13.8569 0.618051 13.4898C0.490541 13.1149 0.479307 12.7091 0.585878 12.3274C0.646164 12.1059 0.653673 11.873 0.60778 11.6479C0.561888 11.4229 0.463924 11.2123 0.322063 11.0337C0.154799 10.8257 0.0470621 10.5746 0.0107297 10.3081C-0.0256026 10.0416 0.0108811 9.77 0.116159 9.5233C0.437656 8.77913 0.582076 7.96789 0.537619 7.15587C0.519207 6.87589 0.575622 6.59605 0.700844 6.34623C0.826067 6.09641 1.0154 5.88598 1.24863 5.73738C1.45795 5.5976 1.63143 5.4087 1.75456 5.18649C1.8777 4.96427 1.94692 4.71519 1.95643 4.46009C1.97475 4.10877 2.1008 3.77222 2.31676 3.49801C2.54271 3.22799 2.84691 3.03826 3.18542 2.95623C3.4351 2.90262 3.6683 2.78797 3.865 2.62211C4.06169 2.45625 4.21601 2.24414 4.31468 2.004C4.43865 1.67321 4.66672 1.39378 4.9631 1.20955C5.25948 1.02533 5.6074 0.946737 5.95227 0.986109C6.57642 1.03865 6.95283 0.920438 7.29386 0.555966C7.53792 0.286988 7.8587 0.10319 8.21078 0.0306009C8.56685 -0.0286276 8.93215 0.0300574 9.25318 0.198061C9.47518 0.308378 9.71887 0.365706 9.9658 0.365706C10.2127 0.365706 10.4564 0.308378 10.6784 0.198061C10.9996 0.0166513 11.3729 -0.0439328 11.7333 0.0268777C12.0938 0.0976883 12.4184 0.295398 12.6506 0.585518C12.7921 0.743202 12.9683 0.864399 13.1646 0.93917C13.3608 1.01394 13.5717 1.04015 13.7799 1.01566C14.1783 0.963248 14.5828 1.04144 14.9349 1.23894C15.2767 1.45355 15.5418 1.77476 15.6909 2.15505C15.7693 2.34614 15.8919 2.51499 16.0482 2.6471C16.2045 2.77921 16.39 2.87064 16.5885 2.91354C16.9777 2.99708 17.3305 3.20531 17.5955 3.50786C17.8444 3.81514 17.9839 4.19941 17.9913 4.598C18.0449 5.03531 18.2644 5.43375 18.6025 5.70783C18.8407 5.95647 19.0561 6.22685 19.246 6.51558L19.3715 6.69289C19.4309 6.78996 19.4676 6.89969 19.4787 7.01358C19.4899 7.12746 19.4752 7.24244 19.4358 7.3496C19.3311 7.61516 19.2891 7.90212 19.3132 8.18732C19.3372 8.47251 19.4266 8.74793 19.5741 8.99136C19.7612 9.30589 19.8583 9.6676 19.8543 10.0355C19.8503 10.4035 19.7455 10.7629 19.5516 11.0731Z" fill="white"/>
    <path d="M19.5677 8.99362C19.4202 8.7502 19.3308 8.47477 19.3067 8.18958C19.2827 7.90439 19.3247 7.61742 19.4294 7.35186C19.4688 7.2447 19.4835 7.12972 19.4723 7.01584C19.4611 6.90196 19.4244 6.79222 19.365 6.69515L19.2395 6.51784C19.0497 6.22911 18.8343 5.95873 18.5961 5.71009C18.2596 5.43407 18.0425 5.03447 17.9913 4.59697C17.9832 4.19952 17.8437 3.81652 17.5955 3.51013C17.3305 3.20757 16.9777 2.99934 16.5885 2.91581C16.39 2.8729 16.2045 2.78147 16.0482 2.64936C15.8919 2.51725 15.7693 2.34841 15.6909 2.15731C15.5418 1.77702 15.2767 1.45582 14.9349 1.2412C14.5828 1.0437 14.1783 0.965512 13.7799 1.01792C13.5717 1.04242 13.3608 1.0162 13.1646 0.941434C12.9683 0.866663 12.7921 0.745465 12.6506 0.587781C12.4188 0.297121 12.0944 0.0987705 11.7339 0.027355C11.3735 -0.0440605 10.9999 0.0159963 10.6784 0.197041C10.4564 0.307358 10.2127 0.364686 9.9658 0.364686C9.71887 0.364686 9.47518 0.307358 9.25318 0.197041C8.93215 0.0290374 8.56685 -0.0296475 8.21078 0.0295809C7.8571 0.105758 7.53612 0.294265 7.29386 0.56808C6.95283 0.932552 6.57642 1.05076 5.95227 0.985089C5.60779 0.945491 5.26017 1.02361 4.96384 1.20721C4.66751 1.3908 4.43921 1.66952 4.31468 1.9997C4.21643 2.24045 4.0623 2.45322 3.86558 2.61967C3.66886 2.78612 3.43544 2.90128 3.18542 2.95521C2.84815 3.03457 2.5441 3.22076 2.31676 3.48714C2.1008 3.76135 1.97475 4.0979 1.95643 4.44922C1.94692 4.70432 1.8777 4.9534 1.75456 5.17562C1.63143 5.39783 1.45795 5.58673 1.24863 5.72651C1.0154 5.8751 0.826067 6.08554 0.700844 6.33536C0.575622 6.58518 0.519207 6.86501 0.537619 7.145C0.583615 7.96031 0.439162 8.7751 0.116159 9.52227C0.0108811 9.76898 -0.0256026 10.0406 0.0107297 10.3071C0.0470621 10.5736 0.154799 10.8247 0.322063 11.0327C0.462277 11.2121 0.558489 11.4231 0.602696 11.6481C0.646904 11.8732 0.637829 12.1057 0.576227 12.3264C0.469655 12.708 0.480889 13.1139 0.608399 13.4888C0.750821 13.8573 1.00432 14.17 1.33228 14.3819C1.5149 14.508 1.66574 14.6763 1.77253 14.8732C1.87932 15.07 1.93902 15.2898 1.94678 15.5147C1.96721 15.8827 2.09493 16.236 2.31355 16.5293C2.53752 16.8024 2.8424 16.9937 3.18221 17.0744C3.42631 17.1312 3.65405 17.2454 3.8473 17.4079C4.04056 17.5703 4.19399 17.7766 4.29538 18.0102C4.44664 18.3575 4.70397 18.6455 5.02891 18.8311C5.36115 19.0117 5.73893 19.086 6.11313 19.0445C6.31432 19.0112 6.52045 19.0288 6.71342 19.0958C6.90639 19.1628 7.0803 19.2771 7.21987 19.4287C7.38378 19.6106 7.58263 19.756 7.80404 19.856C8.02545 19.956 8.26466 20.0084 8.50677 20.0099C8.66627 20.0081 8.82501 19.9872 8.97971 19.9475C9.60076 19.7721 10.2568 19.7721 10.8779 19.9475C11.0538 19.9985 11.2356 20.025 11.4184 20.0263C11.6612 20.0216 11.9005 19.9664 12.1218 19.8643C12.343 19.7621 12.5415 19.615 12.7053 19.432C12.8537 19.2773 13.0365 19.1614 13.2381 19.0939C13.4396 19.0265 13.6542 19.0095 13.8635 19.0445C14.2222 19.0919 14.5865 19.0241 14.9059 18.8508C15.2164 18.6692 15.463 18.3923 15.6105 18.0595C15.705 17.815 15.8562 17.5976 16.0512 17.426C16.2463 17.2544 16.4792 17.1337 16.7301 17.0744C17.0653 17.0002 17.3673 16.8158 17.5899 16.5494C17.8125 16.2831 17.9433 15.9496 17.9623 15.6001C17.9663 15.3358 18.0357 15.0769 18.1639 14.8473C18.2921 14.6177 18.4751 14.4249 18.6958 14.2867C18.9842 14.0974 19.2088 13.8223 19.3393 13.4986C19.4525 13.1817 19.4604 12.8355 19.3618 12.5136C19.2916 12.2731 19.2716 12.0202 19.3032 11.7713C19.3348 11.5225 19.4172 11.2831 19.5452 11.0688C19.7378 10.7593 19.8419 10.4011 19.8459 10.0345C19.8499 9.66788 19.7535 9.3074 19.5677 8.99362ZM19.2717 10.9145C19.1227 11.1669 19.0271 11.4483 18.9911 11.7407C18.9551 12.0331 18.9795 12.3299 19.0626 12.6121C19.1466 12.8754 19.1386 13.1602 19.0401 13.4182C18.9415 13.6762 18.7585 13.8914 18.5221 14.0273C18.2618 14.1948 18.0463 14.4255 17.8947 14.6989C17.7431 14.9722 17.6602 15.2795 17.6534 15.5935C17.6366 15.8733 17.5307 16.1399 17.3518 16.3526C17.173 16.5654 16.9309 16.7128 16.6625 16.7723C16.3666 16.8374 16.0905 16.9743 15.8575 17.1715C15.6245 17.3687 15.4415 17.6204 15.3241 17.9051C15.2105 18.1849 15.0076 18.4173 14.7483 18.5645C14.489 18.7117 14.1885 18.7652 13.8957 18.7162C13.6414 18.6751 13.3812 18.696 13.1364 18.777C12.8915 18.858 12.6688 18.9969 12.4865 19.1824C12.3014 19.3975 12.0588 19.5527 11.7885 19.6291C11.5182 19.7055 11.2319 19.6998 10.9648 19.6126C10.6504 19.5236 10.3258 19.4783 9.99958 19.4779C9.63035 19.4805 9.26288 19.5301 8.90571 19.6257C8.7777 19.6607 8.64573 19.6784 8.51321 19.6782C8.31587 19.6768 8.12099 19.6334 7.94098 19.5508C7.76096 19.4683 7.59975 19.3484 7.4676 19.1988C7.29365 19.0114 7.0779 18.8696 6.83871 18.7856C6.59952 18.7015 6.34397 18.6777 6.09383 18.7162C5.7867 18.7698 5.47083 18.7167 5.19672 18.5655C4.9226 18.4143 4.70606 18.1737 4.58171 17.8821C4.46218 17.6044 4.28064 17.3591 4.05159 17.1658C3.82254 16.9726 3.55236 16.8367 3.26264 16.769C2.9766 16.7048 2.72061 16.5428 2.53693 16.31C2.35326 16.0772 2.25289 15.7874 2.25242 15.4885C2.24254 15.2171 2.17045 14.9518 2.04194 14.714C1.91343 14.4763 1.73208 14.2725 1.51245 14.1192C1.23473 13.9478 1.02233 13.6851 0.910095 13.3742C0.797859 13.0634 0.792443 12.7229 0.894735 12.4085C0.966741 12.1396 0.975121 11.857 0.919186 11.5842C0.863252 11.3113 0.744602 11.0559 0.573009 10.839C0.439878 10.6756 0.353025 10.4782 0.321838 10.2682C0.290651 10.0581 0.316316 9.84331 0.39606 9.64705C0.739056 8.85806 0.892379 7.99685 0.843259 7.13515C0.82991 6.9121 0.876126 6.68953 0.97698 6.49119C1.07783 6.29284 1.22954 6.12615 1.41593 6.00889C1.66476 5.84189 1.87121 5.617 2.01831 5.35271C2.1654 5.08842 2.24895 4.79227 2.26207 4.48862C2.26718 4.20031 2.36998 3.92272 2.55298 3.70303C2.73597 3.48334 2.98788 3.33511 3.26586 3.28356C3.56219 3.21843 3.83869 3.08108 4.07174 2.88325C4.3048 2.68542 4.48749 2.43297 4.60424 2.14746C4.70177 1.8798 4.88355 1.65272 5.12108 1.5018C5.35862 1.35088 5.6385 1.28463 5.91688 1.31344C6.20693 1.36805 6.50573 1.34833 6.78648 1.25607C7.06724 1.1638 7.32117 1.00187 7.52551 0.784793C7.71688 0.555861 7.97948 0.400941 8.26937 0.345953C8.55926 0.290964 8.85886 0.339242 9.11805 0.482708C9.38077 0.614798 9.66971 0.683495 9.96258 0.683495C10.2554 0.683495 10.5444 0.614798 10.8071 0.482708C11.0696 0.332642 11.3759 0.283259 11.6709 0.34347C11.9659 0.403682 12.23 0.569522 12.4157 0.811062C12.5897 1.00453 12.8059 1.15328 13.0469 1.24516C13.2879 1.33704 13.5468 1.36943 13.8024 1.33971C14.1367 1.27938 14.4811 1.34281 14.7736 1.51858C15.0662 1.69435 15.2876 1.97092 15.3981 2.2985C15.4957 2.536 15.6482 2.74581 15.8427 2.90994C16.0371 3.07407 16.2677 3.18763 16.5145 3.24088C16.8373 3.29389 17.1311 3.46242 17.3433 3.71629C17.5555 3.97017 17.6723 4.29282 17.6727 4.62653C17.7299 5.14241 17.9843 5.61442 18.3805 5.93994C18.6021 6.17579 18.8034 6.43065 18.9822 6.70172L19.1044 6.87903C19.1337 6.93089 19.1512 6.98877 19.1556 7.04843C19.1601 7.1081 19.1514 7.16802 19.1302 7.2238C19.0072 7.53721 18.9588 7.87593 18.989 8.21214C19.0192 8.54834 19.1271 8.87244 19.3039 9.1578C19.4621 9.42365 19.5431 9.7299 19.5374 10.0409C19.5317 10.3519 19.4396 10.6549 19.2717 10.9145Z" fill="white"/>
    <path d="M7.09375 11.11L7.51521 10.7028L8.445 11.6879L11.2794 7.64258L11.7684 8.00377L8.55117 12.6007L7.09375 11.11Z" fill="#766458"/>
    <path d="M9.91545 17.2517H9.75781V16.5425H10.1986L10.2211 17.2517H9.89937H9.91545ZM9.87685 17.1335H10.1085L10.0924 16.664H9.88328L9.87685 17.1335ZM9.24948 17.2222H9.19157L8.83767 17.1762H8.77976L8.88593 16.4735H8.94384L9.26557 16.5162H9.32348L9.24948 17.2222ZM8.92776 17.058C9.00175 17.058 9.07897 17.081 9.15618 17.0875L9.20444 16.6213L8.99532 16.595L8.92776 17.058ZM10.7519 17.2058L10.6651 16.4998H10.7262L11.0479 16.4505H11.1058L11.2281 17.1499H11.1702C11.0544 17.1696 10.9353 17.1893 10.8195 17.2025L10.7519 17.2058ZM10.797 16.6049L10.842 17.0744L11.0704 17.0383L10.9932 16.5753L10.797 16.6049ZM8.27787 17.0744H8.21996C8.10735 17.0449 7.99153 17.012 7.87893 16.9759H7.82102L8.02049 16.2962H8.0784L8.40013 16.3849H8.45804L8.27787 17.0744ZM7.95614 16.8643L8.17813 16.9299L8.29074 16.4735L8.10092 16.4177L7.95614 16.8643ZM11.6946 17.035L11.5112 16.3488H11.5691L11.8909 16.2535L11.9488 16.2338L12.1643 16.9102L12.1096 16.9299C11.997 16.9661 11.8812 17.0022 11.7654 17.0317L11.6946 17.035ZM11.6689 16.4177L11.7911 16.8708L12.0131 16.8019L11.8683 16.3586L11.6689 16.4177ZM7.33843 16.7461H7.28374L6.96201 16.6016L6.90732 16.5753L7.20009 15.9186L7.25156 15.9416C7.3513 15.9908 7.45103 16.0335 7.54755 16.0729L7.60224 16.0959L7.33843 16.7461ZM7.07783 16.5064L7.29017 16.6016L7.46069 16.1649L7.25478 16.0894L7.07783 16.5064ZM12.6533 16.6968L12.3799 16.0401L12.4346 16.0171L12.7241 15.8825L12.7788 15.8562L13.0845 16.4932L13.033 16.5195C12.9268 16.572 12.8174 16.6246 12.7113 16.6705L12.6533 16.6968ZM12.5343 16.1091L12.7177 16.5392L12.9268 16.4407L12.7241 16.0204L12.5343 16.1091ZM6.46655 16.3258L6.41508 16.2962C6.31212 16.2371 6.21239 16.1714 6.11265 16.1058L6.06118 16.0729L6.43438 15.4786L6.48586 15.5115L6.75932 15.6822L6.8108 15.7117L6.46655 16.3258ZM6.22526 16.0368L6.42473 16.1616L6.63707 15.761L6.4569 15.6494L6.22526 16.0368ZM13.5124 16.247L13.152 15.6395L13.2035 15.6067L13.4737 15.4326L13.522 15.3965L13.9113 15.9843L13.863 16.0204L13.5638 16.2141L13.5124 16.247ZM13.3161 15.6789L13.5574 16.0894C13.6217 16.05 13.6861 16.0073 13.7504 15.9613L13.493 15.5738L13.3161 15.6789ZM5.63006 15.761L5.58181 15.7216C5.48851 15.6494 5.39842 15.5706 5.30834 15.4918L5.2633 15.4523L5.71693 14.9138L5.76197 14.9533C5.8424 15.0255 5.92605 15.0944 6.0097 15.1634L6.05796 15.1995L5.63006 15.761ZM5.43059 15.4326C5.4885 15.4852 5.54963 15.5344 5.61076 15.5837L5.89066 15.2127L5.7298 15.078L5.43059 15.4326ZM14.3231 15.6559L13.8856 15.1043H13.9306C14.0142 15.0353 14.0947 14.9631 14.1751 14.8909L14.2169 14.8482L14.6834 15.3768L14.6416 15.4162C14.5515 15.4994 14.4614 15.5782 14.3714 15.6526L14.3231 15.6559ZM14.0496 15.1207L14.3424 15.4852L14.5161 15.3309L14.2105 14.9828C14.1558 15.0485 14.1043 15.1043 14.0496 15.1404V15.1207ZM4.89331 15.1043L4.85149 15.0616C4.76784 14.9762 4.68741 14.8843 4.61019 14.7956L4.57159 14.7497L5.09278 14.2801L5.13139 14.3261C5.20217 14.4082 5.27617 14.4903 5.35016 14.5691L5.39199 14.6118L4.89331 15.1043ZM4.73888 14.7759L4.89331 14.95L5.21504 14.6216L5.08313 14.4476L4.73888 14.7759ZM15.0341 15.0091L14.5258 14.5231L14.5644 14.4804C14.6373 14.4016 14.7081 14.3195 14.7767 14.2342L14.8153 14.1882L15.3494 14.6446L15.3108 14.6906C15.2336 14.7858 15.1532 14.8744 15.0759 14.9631L15.0341 15.0091ZM14.6899 14.5165L15.0116 14.8449L15.166 14.6676L14.8121 14.3655C14.7993 14.3983 14.751 14.4476 14.7027 14.5034L14.6899 14.5165ZM4.24021 14.3589L4.20482 14.313C4.13404 14.2145 4.06648 14.1127 4.00213 14.0142L3.96996 13.9616L4.54907 13.5742L4.58446 13.6234C4.63915 13.7121 4.70028 13.804 4.76462 13.8927L4.80001 13.9419L4.24021 14.3589ZM4.13404 13.9977C4.17586 14.0634 4.2209 14.1291 4.26595 14.1915L4.63593 13.9157L4.51689 13.7383L4.13404 13.9977ZM15.6583 14.2309L15.0888 13.8237L15.121 13.7745C15.1821 13.6858 15.2432 13.5939 15.2979 13.5019L15.3301 13.4527L15.9189 13.827L15.8899 13.8795C15.8256 13.9813 15.7612 14.0831 15.6937 14.1816L15.6583 14.2309ZM15.2658 13.7909L15.6422 14.0601C15.6872 13.9945 15.729 13.9288 15.7709 13.8631L15.3816 13.6136L15.2658 13.7909ZM3.72223 13.5118L3.69327 13.4625C3.63858 13.3575 3.58389 13.2491 3.53241 13.1342L3.50667 13.0816L4.15013 12.7763L4.17586 12.8321C4.2209 12.9273 4.26916 13.0258 4.32064 13.1243L4.34638 13.1769L3.72223 13.5118ZM3.66432 13.1342L3.77049 13.3443L4.1823 13.1342L4.08578 12.9437L3.66432 13.1342ZM16.1827 13.3673L15.565 13.039L15.5907 12.9864C15.639 12.8879 15.684 12.7894 15.729 12.6909L15.7516 12.6351L16.395 12.924L16.3693 12.9798C16.3242 13.0882 16.2728 13.1998 16.2181 13.3082L16.1827 13.3673ZM15.7226 12.993L16.1312 13.2064C16.1666 13.1342 16.1988 13.0619 16.2309 12.993L15.8127 12.8058C15.7837 12.8584 15.7644 12.924 15.7226 12.9864V12.993ZM3.31042 12.5891L3.29112 12.5333C3.24822 12.4173 3.20961 12.3023 3.1753 12.1885V12.1327L3.83805 11.9226L3.85735 11.9784C3.88953 12.0834 3.9217 12.1885 3.96031 12.3067L3.97961 12.3625L3.31042 12.5891ZM3.31042 12.2115C3.33294 12.287 3.35868 12.3625 3.38442 12.4348L3.81553 12.2739L3.74797 12.0736L3.31042 12.2115ZM16.5784 12.4381L15.9189 12.2082L15.9382 12.1524C15.9736 12.0506 16.0057 11.9455 16.0347 11.8405L16.0508 11.7814L16.72 11.9784L16.7039 12.0342C16.6717 12.1524 16.6363 12.2673 16.5977 12.3822L16.5784 12.4381ZM16.0669 12.1491L16.5012 12.3034C16.5237 12.2279 16.5494 12.1524 16.5687 12.0769L16.128 11.9488C16.1087 11.9981 16.0862 12.067 16.0669 12.1491ZM3.03052 11.627V11.5679C3.00478 11.453 2.98226 11.3315 2.96296 11.2133V11.1542L3.65145 11.0393V11.0984C3.65145 11.2067 3.68684 11.3151 3.70936 11.4267V11.4858L3.03052 11.627ZM3.07878 11.2527C3.07878 11.3315 3.10452 11.407 3.1206 11.4858L3.57102 11.3873C3.57102 11.3184 3.54206 11.2461 3.53241 11.1772L3.07878 11.2527ZM16.8358 11.4694L16.1505 11.3381V11.279C16.1698 11.1739 16.1859 11.0655 16.202 10.9506V10.8915L16.8937 10.99V11.0491C16.8937 11.1673 16.8583 11.2888 16.8358 11.407V11.4694ZM16.2888 11.2429L16.7393 11.3282C16.7393 11.2527 16.7682 11.1739 16.7779 11.0951L16.3242 11.0327C16.3146 11.1017 16.3017 11.1641 16.2888 11.2429ZM2.89539 10.6354V10.5763C2.89539 10.4548 2.89539 10.3333 2.89539 10.2118V10.1527L3.59032 10.1363V10.1987C3.59032 10.3071 3.59032 10.4154 3.59032 10.527V10.5894L2.89539 10.6354ZM2.99513 10.2709V10.5073L3.4552 10.4745C3.4552 10.4023 3.4552 10.33 3.4552 10.2611L2.99513 10.2709ZM16.9709 10.4745L16.276 10.4384V10.3793C16.276 10.2709 16.276 10.1626 16.276 10.0509V9.95243H16.9709V10.0542C16.9709 10.1757 16.9709 10.3005 16.9709 10.4187V10.4745ZM16.4014 10.3268L16.8583 10.3497C16.8583 10.2578 16.8583 10.1626 16.8583 10.0706H16.4079C16.4079 10.156 16.4079 10.2414 16.3886 10.3268H16.4014ZM3.57745 9.67005L2.88574 9.62408V9.56169C2.88574 9.44348 2.90505 9.32199 2.91791 9.2005V9.1414L3.60963 9.22348V9.28259C3.60963 9.39095 3.5871 9.50259 3.58067 9.61094L3.57745 9.67005ZM2.99835 9.52229L3.4552 9.55512L3.4745 9.34169L3.01765 9.28916L2.99835 9.52229ZM16.2535 9.4993V9.4402C16.2535 9.33184 16.2309 9.2202 16.2148 9.11185V9.04946L16.9033 8.94767V9.00677C16.9226 9.12826 16.9355 9.24975 16.9452 9.36796V9.43035L16.2535 9.4993ZM16.3339 9.15453C16.3339 9.22677 16.3532 9.29572 16.3596 9.36796L16.8165 9.32199C16.8165 9.24647 16.8004 9.16767 16.7875 9.08886L16.3339 9.15453ZM3.67719 8.78349L2.99513 8.63573V8.57663C3.02087 8.46171 3.04661 8.34021 3.07556 8.22529L3.09165 8.16619L3.76405 8.34678V8.4026C3.7351 8.50767 3.71258 8.61603 3.69006 8.73096L3.67719 8.78349ZM3.13669 8.53723L3.5871 8.63245C3.5871 8.5635 3.61606 8.49454 3.63215 8.42559L3.18816 8.30738C3.16886 8.38947 3.15277 8.46827 3.13669 8.53723ZM16.1151 8.59633V8.53723C16.0926 8.43215 16.0636 8.3238 16.0347 8.20887L16.0154 8.15305L16.6846 7.95276V8.01186C16.72 8.13007 16.7489 8.24828 16.7779 8.3632V8.4223L16.1151 8.59633ZM16.1505 8.24499C16.1698 8.31395 16.1859 8.3829 16.2052 8.44857L16.6492 8.34022C16.6342 8.26579 16.6149 8.19027 16.5913 8.11365L16.1505 8.24499ZM3.90883 7.91664L3.26538 7.67366L3.28468 7.61784C3.32651 7.5062 3.36833 7.39127 3.41337 7.28948L3.43911 7.23366L4.08256 7.5062L4.06004 7.56202C4.01822 7.66381 3.97961 7.7656 3.94422 7.87067L3.90883 7.91664ZM3.40694 7.58829L3.83805 7.74918L3.91527 7.54888L3.49059 7.36829C3.46163 7.44709 3.43268 7.52261 3.40694 7.59485V7.58829ZM15.8577 7.72948L15.8384 7.67366C15.7998 7.57187 15.758 7.47008 15.713 7.37157L15.6872 7.31904L16.3307 7.02352L16.3564 7.07934C16.4047 7.19098 16.4529 7.30262 16.4948 7.40769L16.5173 7.46351L15.8577 7.72948ZM15.8577 7.37814C15.8867 7.44381 15.9124 7.5062 15.9382 7.57187L16.3661 7.40112C16.3371 7.32889 16.3081 7.25665 16.276 7.18441L15.8577 7.37814ZM4.2756 7.07277L3.6611 6.74442L3.69006 6.69188C3.74475 6.58352 3.80588 6.47845 3.86379 6.36353L3.89596 6.31099L4.49115 6.67218L4.4622 6.72472C4.40751 6.81994 4.35603 6.91516 4.30455 7.01038L4.2756 7.07277ZM3.82196 6.6886L4.22734 6.90859L4.33029 6.72143L3.93457 6.48173L3.82196 6.6886ZM15.5006 6.90859L15.4427 6.86262C15.3912 6.77069 15.3365 6.67546 15.2786 6.58352L15.2465 6.53099L15.8352 6.15338L15.8674 6.20263C15.9317 6.30442 15.9929 6.4095 16.0508 6.51457L16.0862 6.56711L15.5006 6.90859ZM15.4395 6.58024C15.4749 6.63934 15.5135 6.70173 15.5457 6.76084L15.9478 6.53099L15.8288 6.33069L15.4395 6.58024ZM4.7228 6.30442L4.15656 5.88742L4.19195 5.83816C4.26273 5.74294 4.33351 5.64443 4.40751 5.54921L4.44611 5.50324L4.98983 5.94652L4.95122 5.99577C4.88366 6.07786 4.81932 6.16652 4.75819 6.25517L4.7228 6.30442ZM4.32386 5.86115L4.69706 6.13696C4.73567 6.07786 4.78071 6.02204 4.82253 5.96622L4.46542 5.67399L4.32386 5.86115ZM15.0052 6.15667L14.9698 6.1107C14.9054 6.02532 14.8346 5.93667 14.7671 5.85458L14.7285 5.80861L15.2593 5.34892L15.2979 5.39489C15.3751 5.48682 15.4491 5.58205 15.5199 5.67727L15.5553 5.72652L15.0052 6.15667ZM14.8958 5.82831L15.0245 5.99577L15.3912 5.7101L15.2465 5.52623L14.8958 5.82831ZM5.2826 5.6116L4.78071 5.11907L4.82253 5.07638C4.90618 4.98773 4.98983 4.90236 5.0767 4.82027L5.11852 4.77758L5.59467 5.2931L5.55285 5.33578L5.32442 5.56563L5.2826 5.6116ZM4.96087 5.11579L5.2826 5.44414C5.33086 5.3916 5.38234 5.34235 5.43059 5.2931L5.10887 4.96474L4.96087 5.11579ZM14.4357 5.48026L14.3939 5.43757C14.3199 5.36205 14.2427 5.28653 14.159 5.21429L14.1172 5.17161L14.5805 4.64296L14.6223 4.68236C14.7124 4.76445 14.7993 4.84654 14.8829 4.93191L14.9247 4.97459L14.4357 5.48026ZM14.2845 5.1519L14.4357 5.29638L14.7574 4.96803L14.5901 4.80713L14.2845 5.1519ZM5.94857 4.98116L5.50459 4.43281L5.54963 4.39341C5.64293 4.32117 5.73945 4.24565 5.83597 4.17669L5.88423 4.14058L6.28639 4.72176L6.23813 4.7546L5.98075 4.95161L5.94857 4.98116ZM5.68476 4.44594L5.96788 4.8137L6.13517 4.68564L5.86814 4.30475L5.68476 4.44594ZM13.7697 4.86952L13.7215 4.8334C13.6378 4.77101 13.5477 4.70534 13.4577 4.64624L13.4094 4.6134L13.7955 4.02237L13.8469 4.0552C13.9435 4.12087 14.04 4.19311 14.1365 4.26535L14.1848 4.30147L13.7697 4.86952ZM13.5606 4.59699C13.6185 4.63639 13.6764 4.67579 13.7311 4.71848L14.0046 4.34415C13.9435 4.2949 13.8791 4.24893 13.8148 4.20625L13.5606 4.59699ZM6.6628 4.48206L6.31212 3.86804L6.3636 3.83849C6.46655 3.77939 6.5695 3.72028 6.68533 3.66446L6.7368 3.63491L7.05853 4.26535L7.00383 4.2949L6.72393 4.45251L6.6628 4.48206ZM6.47299 3.91401L6.70463 4.31789L6.88801 4.2161L6.67567 3.79909L6.47299 3.91401ZM13.0137 4.39012L12.9622 4.36386C12.8689 4.31132 12.7724 4.25878 12.6759 4.21281L12.6244 4.18655L12.9268 3.52984L12.9783 3.55611C13.0877 3.60864 13.1949 3.66446 13.3 3.72357L13.3515 3.75312L13.0137 4.39012ZM12.782 4.13073C12.8432 4.16356 12.9043 4.19311 12.9654 4.22923L13.1906 3.80566L12.9847 3.6973L12.782 4.13073ZM7.45425 4.0749L7.19044 3.4182L7.24513 3.39521C7.35452 3.34924 7.4639 3.30656 7.56685 3.26716L7.62477 3.24417L7.85319 3.9173L7.7985 3.937L7.49929 4.05192L7.45425 4.0749ZM7.34486 3.48387L7.5186 3.9173L7.71485 3.84177L7.56042 3.3985L7.34486 3.48387ZM12.2254 3.9961L12.1675 3.9764C12.0678 3.937 11.9681 3.90088 11.8651 3.86804L11.8072 3.84834L12.0195 3.17193L12.0775 3.19163C12.1911 3.22666 12.2984 3.26606 12.3992 3.30984L12.4539 3.33283L12.2254 3.9961ZM11.9584 3.76954L12.1547 3.84177L12.3155 3.40178L12.0968 3.32626L11.9584 3.76954ZM8.30682 3.76954L8.12344 3.08656L8.17813 3.07014L8.5256 2.99134H8.58351L8.72185 3.68745H8.66394C8.55777 3.70715 8.45482 3.73342 8.34221 3.75969L8.30682 3.76954ZM8.27787 3.16865L8.36474 3.62834L8.56742 3.58237L8.48056 3.12268C8.41621 3.13581 8.34222 3.15552 8.265 3.17193L8.27787 3.16865ZM11.3761 3.72685H11.3182C11.2152 3.70387 11.1091 3.68088 10.9965 3.66446H10.9385L11.0511 2.95522H11.1091L11.4565 3.02746H11.5144L11.3761 3.72685ZM11.0833 3.54297L11.286 3.58237L11.3857 3.12596L11.1605 3.07999L11.0833 3.54297ZM9.16262 3.61193L9.08862 2.90597H9.14653C9.2645 2.89283 9.38353 2.88298 9.50364 2.87642H9.56156L9.60016 3.58566H9.54225L9.22053 3.61193H9.16262ZM9.22053 3.01432L9.26879 3.48059L9.47791 3.46088L9.44895 2.98806C9.37174 2.99134 9.29452 2.99791 9.22053 3.00776V3.01432ZM10.4881 3.59223H10.4302C10.324 3.59223 10.2179 3.57581 10.1085 3.57252H10.0506L10.0699 2.86328H10.131C10.2468 2.86328 10.3691 2.86328 10.4849 2.88298H10.5428L10.4881 3.59223ZM10.1664 3.45103H10.3723L10.4109 2.98477H10.1793L10.1664 3.45103Z" fill="#766458"/>
  </g>
  <defs>
    <clipPath id="clip0_5480:42865">
      <rect width="85" height="20" fill="white"/>
    </clipPath>
  </defs>
</svg>
