<svg width="385" height="383" viewBox="0 0 385 383" fill="none" xmlns="http://www.w3.org/2000/svg">
<g clip-path="url(#clip0_1_99485)">
<path d="M256.079 383H21.0145C15.4431 382.994 10.1016 380.777 6.16195 376.837C2.22232 372.896 0.00628899 367.554 0 361.981V21.0186C0.00628899 15.4461 2.22232 10.1036 6.16195 6.16317C10.1016 2.22278 15.4431 0.00629022 21.0145 0H256.079C261.65 0.00628241 266.992 2.22276 270.931 6.16316C274.871 10.1036 277.087 15.4461 277.093 21.0186V361.981C277.087 367.554 274.871 372.896 270.931 376.837C266.992 380.777 261.65 382.994 256.079 383Z" fill="#3F3D56"/>
<path d="M256.491 369.589H20.599C18.8816 369.587 17.235 368.904 16.0206 367.689C14.8062 366.475 14.1231 364.828 14.1211 363.11V19.8894C14.1231 18.1716 14.8062 16.5247 16.0206 15.31C17.235 14.0954 18.8816 13.4121 20.599 13.4102H256.491C258.208 13.4121 259.855 14.0954 261.069 15.31C262.284 16.5247 262.967 18.1716 262.969 19.8894V363.11C262.967 364.828 262.284 366.475 261.069 367.689C259.855 368.904 258.208 369.587 256.491 369.589Z" fill="white"/>
<path d="M137.651 8.22454C138.638 8.22454 139.439 7.424 139.439 6.43649C139.439 5.44897 138.638 4.64844 137.651 4.64844C136.664 4.64844 135.863 5.44897 135.863 6.43649C135.863 7.424 136.664 8.22454 137.651 8.22454Z" fill="white"/>
<path d="M201.469 158.561L193.659 135.168L193.527 134.761L226.414 113.984L228.162 116.341L237.321 128.676L233.973 138.654L225.32 164.431L224.94 165.564L240.965 177.481C241.6 178.652 242.128 179.72 242.557 180.702C247.341 191.605 240.26 191.111 240.26 191.111L207.668 177.138L201.469 158.561Z" fill="#9E616A"/>
<path d="M218.722 162.915L217.285 158.609L210.234 137.469L208.765 133.062L207.531 129.375L223.611 119.212L240.417 108.598L251.325 123.29L248.019 133.141L246.412 137.928L243.928 145.331L238.944 160.177L254.969 172.094C256.182 174.221 257.139 176.483 257.821 178.834C258.1 179.816 258.232 180.833 258.213 181.853C258.239 182.375 258.154 182.896 257.964 183.383C257.774 183.87 257.482 184.311 257.109 184.677C256.736 185.043 256.289 185.325 255.799 185.506C255.308 185.686 254.785 185.761 254.264 185.724L221.672 171.751L218.722 162.915Z" fill="#9E616A"/>
<path opacity="0.15" d="M217.192 163.869L215.301 143.928L224.726 138.816L225.342 139.955L216.669 144.658L218.423 163.144L237.692 176.343L236.961 177.41L217.192 163.869Z" fill="black"/>
<path opacity="0.15" d="M237.753 163.201L236.984 164.242L256.43 178.612L257.199 177.572L237.753 163.201Z" fill="black"/>
<path d="M236.594 182.748L138.769 113.965L39.9453 182.107L137.295 223.223L236.594 182.748Z" fill="white"/>
<path d="M166.553 124.367L199.494 92.153L258.408 88.1719L331.641 158.117L384.999 187.323L369.967 231.536L305.565 200.959C292.453 199.996 284.016 195.644 278.68 191.067C276.846 189.496 275.192 187.724 273.75 185.785C272.171 183.73 270.939 181.43 270.103 178.976L243.927 145.333L238.53 138.391L235.035 133.898L223.61 119.214L222.788 118.159L203.378 117.645L193.277 130.909L186.182 140.217C186.016 143.495 184.832 146.64 182.795 149.214C176.433 156.955 163.531 155.444 163.531 155.444L166.553 124.367Z" fill="#9E616A"/>
<path d="M40.3229 182.043H40.3934L80.7956 199.298L136.074 222.907C136.29 222.998 136.522 223.045 136.756 223.047C136.991 223.048 137.223 223.003 137.44 222.914L194.471 199.249L235.866 182.071L235.929 182.043H235.999C236.653 182.044 237.279 182.304 237.741 182.765C238.202 183.227 238.462 183.854 238.463 184.507V291.516C238.462 292.17 238.202 292.796 237.741 293.258C237.279 293.72 236.653 293.98 235.999 293.98H40.3229C39.6698 293.98 39.0436 293.72 38.5817 293.258C38.1199 292.796 37.8601 292.17 37.8594 291.516V184.507C37.8601 183.854 38.1199 183.227 38.5817 182.765C39.0436 182.304 39.6698 182.044 40.3229 182.043Z" fill="white"/>
<path d="M40.1451 182.75C40.2169 182.75 40.287 182.728 40.346 182.686L137.677 114.889C137.973 114.684 138.325 114.574 138.686 114.575C139.046 114.575 139.398 114.686 139.693 114.893L236.323 182.686C236.399 182.739 236.494 182.76 236.586 182.744C236.677 182.727 236.759 182.675 236.813 182.599C236.866 182.523 236.887 182.428 236.871 182.337C236.855 182.245 236.803 182.163 236.727 182.109L140.097 114.316C139.684 114.027 139.191 113.872 138.687 113.871C138.182 113.87 137.689 114.024 137.275 114.311L39.9437 182.109C39.8822 182.151 39.836 182.213 39.8118 182.284C39.7876 182.355 39.7867 182.431 39.8092 182.503C39.8316 182.574 39.8763 182.637 39.9368 182.681C39.9972 182.726 40.0702 182.75 40.1451 182.75L40.1451 182.75Z" fill="#3F3D56"/>
<path d="M230.802 185.15L138.59 116.797L45.6797 190.014L133.84 242.287L181.703 231.375L230.802 185.15Z" fill="#E6E6E6"/>
<path d="M177.664 274.574H223.219C223.783 274.574 224.324 274.35 224.723 273.952C225.122 273.553 225.347 273.012 225.348 272.448C225.349 271.884 225.126 271.343 224.728 270.943C224.33 270.543 223.789 270.318 223.225 270.316H177.664C177.1 270.316 176.559 270.54 176.16 270.938C175.761 271.337 175.536 271.878 175.535 272.442C175.534 273.006 175.757 273.548 176.155 273.947C176.553 274.347 177.094 274.572 177.658 274.574H177.664Z" fill="#6C63FF"/>
<path d="M206.875 265.421H223.219C223.783 265.422 224.324 265.198 224.723 264.799C225.123 264.401 225.347 263.86 225.348 263.296C225.349 262.732 225.126 262.19 224.728 261.791C224.33 261.391 223.789 261.166 223.225 261.164H206.875C206.311 261.164 205.77 261.388 205.371 261.786C204.972 262.185 204.747 262.725 204.746 263.29C204.745 263.854 204.968 264.395 205.366 264.795C205.764 265.195 206.305 265.42 206.869 265.421H206.875Z" fill="#6C63FF"/>
<path d="M137.292 223.222C137.639 223.222 137.982 223.155 138.302 223.024L195.172 199.423V125.546C195.171 124.893 194.911 124.267 194.449 123.805C193.988 123.343 193.361 123.083 192.708 123.082H83.6081C82.9549 123.083 82.3288 123.343 81.8669 123.805C81.4051 124.267 81.1453 124.893 81.1445 125.546V199.474L81.2514 199.52L136.252 223.013C136.581 223.151 136.935 223.222 137.292 223.222Z" fill="white"/>
<path d="M136.183 223.175L80.9688 199.591V125.546C80.9695 124.846 81.2479 124.175 81.7427 123.68C82.2376 123.185 82.9085 122.907 83.6083 122.906H192.708C193.408 122.907 194.079 123.185 194.574 123.68C195.069 124.175 195.347 124.846 195.348 125.546V199.54L138.369 223.187C137.668 223.473 136.882 223.468 136.183 223.175H136.183ZM194.644 125.546C194.644 125.033 194.439 124.541 194.077 124.178C193.714 123.815 193.222 123.611 192.708 123.61H83.6082C83.0951 123.611 82.6031 123.815 82.2402 124.178C81.8773 124.541 81.6732 125.033 81.6726 125.546V199.126L136.458 222.527C136.983 222.747 137.574 222.751 138.101 222.536L194.644 199.07L194.644 125.546Z" fill="#3F3D56"/>
<path d="M38.3867 184.507V291.516C38.3874 292.17 38.6472 292.796 39.1091 293.258C39.5709 293.72 40.1971 293.98 40.8503 293.98H236.527C237.18 293.98 237.806 293.72 238.268 293.258C238.73 292.796 238.99 292.17 238.99 291.516V184.507C238.99 183.854 238.73 183.227 238.268 182.765C237.806 182.304 237.18 182.044 236.527 182.043H236.456L236.393 182.071L194.998 199.249L137.967 222.914C137.75 223.003 137.518 223.048 137.284 223.047C137.049 223.045 136.817 222.998 136.601 222.907L81.3229 199.298L40.9207 182.043H40.8503C40.1971 182.044 39.5709 182.304 39.1091 182.765C38.6472 183.227 38.3874 183.854 38.3867 184.507ZM39.0906 184.507C39.0917 184.053 39.2678 183.616 39.5824 183.288C39.897 182.96 40.3259 182.767 40.7798 182.747L81.3229 200.062L136.323 223.555C136.935 223.812 137.624 223.815 138.238 223.565L194.998 200.009L236.594 182.747C237.048 182.765 237.478 182.959 237.794 183.287C238.109 183.615 238.286 184.052 238.286 184.507V291.516C238.286 291.983 238.101 292.431 237.771 292.761C237.441 293.091 236.993 293.276 236.527 293.276H40.8503C40.3836 293.276 39.9362 293.091 39.6062 292.761C39.2762 292.431 39.0908 291.983 39.0906 291.516V184.507Z" fill="#3F3D56"/>
<path d="M93.1592 150.698H131.872C132.619 150.698 133.335 150.402 133.863 149.874C134.391 149.346 134.688 148.629 134.688 147.882C134.688 147.136 134.391 146.419 133.863 145.891C133.335 145.363 132.619 145.066 131.872 145.066H93.1592C92.4125 145.066 91.6964 145.363 91.1684 145.891C90.6404 146.419 90.3438 147.136 90.3438 147.882C90.3438 148.629 90.6404 149.346 91.1684 149.874C91.6964 150.402 92.4125 150.698 93.1592 150.698Z" fill="#6C63FF"/>
<path d="M93.1827 138.73H111.835C112.582 138.73 113.298 138.433 113.826 137.905C114.354 137.377 114.651 136.661 114.651 135.914C114.651 135.167 114.354 134.451 113.826 133.922C113.298 133.394 112.582 133.098 111.835 133.098H93.1827C92.436 133.098 91.7198 133.394 91.1918 133.922C90.6638 134.451 90.3672 135.167 90.3672 135.914C90.3672 136.661 90.6638 137.377 91.1918 137.905C91.7198 138.433 92.436 138.73 93.1827 138.73Z" fill="#6C63FF"/>
<path d="M109.206 178.859H168.331C169.078 178.859 169.794 178.562 170.322 178.034C170.85 177.506 171.147 176.789 171.147 176.043C171.147 175.296 170.85 174.579 170.322 174.051C169.794 173.523 169.078 173.227 168.331 173.227H109.206C108.459 173.227 107.743 173.523 107.215 174.051C106.687 174.579 106.391 175.296 106.391 176.043C106.391 176.789 106.687 177.506 107.215 178.034C107.743 178.562 108.459 178.859 109.206 178.859Z" fill="#CCCCCC"/>
<path d="M109.206 191.882H168.331C169.078 191.882 169.794 191.585 170.322 191.057C170.85 190.529 171.147 189.813 171.147 189.066C171.147 188.319 170.85 187.603 170.322 187.075C169.794 186.547 169.078 186.25 168.331 186.25H109.206C108.459 186.25 107.743 186.547 107.215 187.075C106.687 187.603 106.391 188.319 106.391 189.066C106.391 189.813 106.687 190.529 107.215 191.057C107.743 191.585 108.459 191.882 109.206 191.882Z" fill="#CCCCCC"/>
<path opacity="0.1" d="M246.414 137.929L258.157 137.25L305.078 195.087L288.501 192.551L278.684 191.067C276.849 189.495 275.195 187.724 273.753 185.785L262.843 182.546L257.823 178.836C258.138 180.041 246.414 137.929 246.414 137.929Z" fill="black"/>
<path d="M171.348 136.087C171.685 133.924 172.864 131.982 174.627 130.685C176.391 129.388 178.595 128.842 180.76 129.165L193.278 130.907L208.765 133.062L220.734 134.726L235.037 133.896L248.019 133.141L255.689 132.698L306.69 195.564L262.842 182.544L257.822 178.834L235.841 162.596C235.841 162.596 228.639 161.269 217.286 158.609C215.596 158.207 196.485 153.41 187.507 150.802C185.768 150.295 184.207 149.765 182.797 149.212C172.787 145.271 170.785 140.219 171.348 136.087Z" fill="#9E616A"/>
<path opacity="0.15" d="M178.52 143.939C178.564 143.934 183.032 143.377 184.94 140.104C186.225 137.9 186.095 134.931 184.556 131.28L185.748 130.777C187.456 134.828 187.558 138.188 186.052 140.765C183.812 144.597 178.876 145.201 178.667 145.225L178.52 143.939Z" fill="black"/>
<path opacity="0.15" d="M223.696 135.203L223.693 133.909L246.697 133.873L222.445 118.707L223.131 117.609L251.196 135.159L223.696 135.203Z" fill="black"/>
</g>
<defs>
<clipPath id="clip0_1_99485">
<rect width="385" height="383" fill="white"/>
</clipPath>
</defs>
</svg>
