<svg width="265" height="61" viewBox="0 0 265 61" fill="none" xmlns="http://www.w3.org/2000/svg">
  <path d="M96.4602 8.38867L96.3002 11.9287H84.1702V52.1887H79.8002V11.9987H67.4102V8.38867H96.4602Z" fill="#003BB3"/>
  <path d="M85.6507 53.6699H78.3207V13.4299H65.9307V6.91992H98.0007L97.7207 13.4099H85.6507V53.6699ZM81.2807 50.6699H82.6907V10.4499H94.8907V9.86992H68.8907V10.4799H81.2807V50.6699Z" fill="#003BB3"/>
  <path d="M139 52.369H134.82V8.70898H139.13C147.13 20.8423 155.184 33.009 163.29 45.209L163.54 45.139V8.70898H167.82V52.369H163.54C155.494 40.169 147.41 27.9323 139.29 15.659L139 15.729V52.369Z" fill="#003BB3"/>
  <path d="M169.271 53.8385H162.721L140.451 20.1285V53.8385H133.311V7.22852H139.891L162.001 40.6885V7.22852H169.241L169.271 53.8385ZM164.271 50.8385H166.271V10.1885H165.001V46.2485L162.641 46.9385L138.301 10.1885H136.301V50.8885H137.531V14.5885L139.961 13.9585L164.271 50.8385Z" fill="#003BB3"/>
  <path d="M234.2 36.8203C233.47 41.8203 237.47 47.3003 242.83 48.8203C248.19 50.3403 255.33 48.9803 257.77 41.7203H262.16C261.554 44.423 260.121 46.8696 258.06 48.7203C254.43 52.0303 250.06 53.0703 245.25 52.8003C242.673 52.6869 240.158 51.9784 237.9 50.7303C236.15 49.7729 234.607 48.4785 233.359 46.9219C232.111 45.3652 231.184 43.577 230.63 41.6603C229.184 37.2071 229.272 32.3977 230.88 28.0003C233.06 22.0603 237.47 18.7103 243.7 17.8003C248.114 17.0069 252.662 17.9841 256.36 20.5203C258.181 21.7884 259.692 23.4518 260.78 25.3861C261.867 27.3204 262.503 29.4755 262.64 31.6903C262.8 33.3403 262.64 35.0103 262.64 36.8003L234.2 36.8203ZM258.44 33.3303C258.44 28.9403 257 25.4203 253.27 23.1003C251.119 21.819 248.652 21.1669 246.149 21.2182C243.646 21.2694 241.207 22.022 239.11 23.3903C235.73 25.8103 234.28 29.2103 234.04 33.3303H258.44Z" fill="#003BB3"/>
  <path d="M246.66 54.3299C246.17 54.3299 245.66 54.3299 245.17 54.3299C242.367 54.1998 239.63 53.4302 237.17 52.0799C235.248 51.0329 233.553 49.6167 232.18 47.9127C230.807 46.2086 229.784 44.2502 229.17 42.1499C227.624 37.3895 227.722 32.2475 229.45 27.5499C231.75 21.2499 236.59 17.3899 243.45 16.3999C248.243 15.5516 253.177 16.6297 257.18 19.3999C259.176 20.7912 260.834 22.6137 262.03 24.7325C263.226 26.8513 263.93 29.2121 264.09 31.6399C264.176 32.8413 264.193 34.0466 264.14 35.2499C264.14 35.7799 264.14 36.3399 264.14 36.8899V38.2999H235.6C235.75 42.1699 239.04 46.1999 243.22 47.3599C248.1 48.7199 254.3 47.3599 256.37 41.2199L256.71 40.2199H264L263.6 41.9999C262.925 45.0075 261.336 47.7323 259.05 49.7999C255.665 52.8619 251.222 54.4866 246.66 54.3299ZM246.83 19.0699C245.853 19.0711 244.877 19.1447 243.91 19.2899C238.13 20.1199 234.21 23.2299 232.27 28.5299C230.772 32.6183 230.695 37.0921 232.05 41.2299C232.55 42.9652 233.387 44.5847 234.515 45.9953C235.642 47.406 237.037 48.58 238.62 49.4499C240.683 50.5845 242.978 51.2311 245.33 51.3399C250.2 51.6099 254.04 50.3999 257.06 47.6399C258.432 46.414 259.498 44.8829 260.17 43.1699H258.79C258.167 44.7113 257.229 46.1055 256.036 47.2628C254.842 48.4201 253.42 49.315 251.86 49.8899C248.825 50.968 245.531 51.0798 242.43 50.2099C236.34 48.5199 231.9 42.2899 232.74 36.6099L232.92 35.3499H261.21C261.21 35.2699 261.21 35.1899 261.21 35.1099C261.259 34.0232 261.243 32.9346 261.16 31.8499C261.037 29.8492 260.464 27.902 259.484 26.1533C258.504 24.4046 257.142 22.8995 255.5 21.7499C252.967 19.9608 249.931 19.0224 246.83 19.0699ZM259.93 34.8099H232.47L232.56 33.2399C232.85 28.3399 234.72 24.7199 238.25 22.2399C240.591 20.7149 243.312 19.8741 246.105 19.8122C248.899 19.7504 251.654 20.47 254.06 21.8899C257.98 24.3399 259.9 28.0899 259.92 33.3699L259.93 34.8099ZM235.68 31.8099H256.9C256.843 30.2924 256.411 28.8126 255.641 27.5036C254.871 26.1945 253.789 25.0971 252.49 24.3099C250.589 23.1779 248.408 22.6004 246.196 22.6428C243.983 22.6853 241.827 23.3458 239.97 24.5499C238.778 25.3927 237.779 26.4796 237.039 27.7382C236.3 28.9968 235.836 30.3984 235.68 31.8499V31.8099Z" fill="#003BB3"/>
  <path d="M96.0003 35.2802C96.0003 30.2102 97.4203 25.6902 101.18 22.1102C104.105 19.3391 107.953 17.7502 111.98 17.6502C118.06 17.3802 123.28 19.2602 126.98 24.2902C128.908 26.9553 130.017 30.1246 130.17 33.4102C130.578 37.2063 129.84 41.0376 128.05 44.4102C126.784 46.7186 124.972 48.6819 122.772 50.1287C120.572 51.5755 118.052 52.4618 115.43 52.7102C112.171 53.2023 108.839 52.7728 105.81 51.4702C99.8103 48.8302 96.8103 43.9902 96.0503 37.6302C96.0003 37.0602 96.0003 36.5002 96.0003 35.9402C95.9403 35.7202 96.0003 35.5002 96.0003 35.2802ZM125.88 35.0002C125.88 34.7002 125.82 34.1902 125.79 33.6702C125.38 26.8202 121.22 22.2102 114.43 21.3702C111.756 20.9726 109.025 21.4785 106.67 22.808C104.315 24.1375 102.471 26.2146 101.43 28.7102C100.017 32.2066 99.7823 36.0681 100.76 39.7102C101.92 44.3202 104.76 47.4802 109.42 48.7102C114.26 49.9402 118.67 48.9702 122.25 45.3402C125 42.5502 125.82 39.0002 125.88 35.0002Z" fill="#003BB3"/>
  <path d="M112.74 54.3498C110.15 54.3614 107.585 53.8335 105.21 52.7998C99.0099 50.0898 95.4399 45.0398 94.5699 37.7998C94.5699 37.3398 94.4999 36.8898 94.4899 36.4498C94.4899 36.3098 94.4899 36.1698 94.4899 36.0298C94.4799 35.85 94.4799 35.6697 94.4899 35.4898V35.2998C94.4899 29.2998 96.3299 24.6798 100.13 21.0598C103.309 18.0403 107.497 16.3085 111.88 16.1998C118.88 15.8798 124.37 18.3098 128.18 23.4298C130.278 26.3205 131.484 29.7619 131.65 33.3298C132.078 37.4045 131.277 41.5141 129.35 45.1298C127.965 47.6304 125.992 49.7564 123.602 51.3243C121.211 52.8923 118.475 53.8552 115.63 54.1298C114.673 54.2677 113.707 54.3412 112.74 54.3498ZM113.1 19.1098C112.73 19.1098 112.37 19.1098 112 19.1098C108.328 19.1927 104.818 20.6359 102.15 23.1598C98.9699 26.1598 97.4199 30.1598 97.4199 35.2498V35.8498C97.4199 35.9998 97.4199 36.1498 97.4199 36.2998C97.4199 36.6898 97.4199 37.0598 97.4899 37.4098C98.2299 43.6298 101.14 47.7698 106.37 50.0598C109.151 51.2505 112.209 51.6419 115.2 51.1898C120.5 50.4798 124.28 47.9998 126.73 43.6298C128.387 40.5201 129.06 36.9805 128.66 33.4798C128.536 30.4779 127.527 27.5796 125.76 25.1498C122.75 21.0998 118.6 19.1098 113.1 19.1098ZM113.26 50.6898C111.842 50.684 110.431 50.4992 109.06 50.1398C104.06 48.8498 100.67 45.3798 99.3399 40.1398C98.2797 36.1862 98.536 31.9948 100.07 28.1998C101.231 25.4032 103.291 23.0735 105.924 21.5793C108.557 20.0851 111.614 19.5117 114.61 19.9498C122.08 20.8798 126.81 25.9998 127.26 33.6298C127.26 33.9998 127.26 34.3798 127.33 34.6298V34.9798V34.9998C127.33 38.1598 126.81 42.7598 123.33 46.3498C122.037 47.7234 120.477 48.8173 118.745 49.5638C117.013 50.3103 115.146 50.6935 113.26 50.6898ZM112.84 22.7598C110.71 22.7123 108.616 23.3095 106.831 24.4729C105.047 25.6364 103.656 27.3119 102.84 29.2798C101.549 32.4919 101.335 36.0358 102.23 39.3798C103.3 43.5998 105.85 46.2598 109.83 47.2698C111.822 47.8857 113.947 47.9311 115.964 47.4008C117.98 46.8706 119.808 45.7859 121.24 44.2698C123.37 42.0998 124.36 39.2698 124.43 35.0298V34.8098C124.43 34.5098 124.43 34.1198 124.36 33.7398C124 27.5498 120.36 23.5698 114.29 22.8098C113.808 22.7655 113.324 22.7488 112.84 22.7598Z" fill="#003BB3"/>
  <path d="M173.33 35.2802C173.33 30.2102 174.75 25.6902 178.52 22.1102C181.441 19.3398 185.285 17.7507 189.31 17.6502C195.4 17.3802 200.61 19.2602 204.31 24.2902C206.242 26.9531 207.351 30.1237 207.5 33.4102C207.906 37.2051 207.172 41.0349 205.39 44.4102C202.62 49.3302 198.31 51.9602 192.76 52.7102C189.5 53.2018 186.168 52.7723 183.14 51.4702C177.14 48.8302 174.14 43.9902 173.39 37.6302C173.32 37.0802 173.32 36.5202 173.29 35.9602C173.32 35.7202 173.33 35.5002 173.33 35.2802ZM203.26 35.0002C203.26 34.7002 203.2 34.1902 203.17 33.6702C202.77 26.8202 198.6 22.2102 191.81 21.3702C189.135 20.9708 186.404 21.476 184.048 22.8057C181.693 24.1354 179.85 26.2135 178.81 28.7102C177.392 32.2055 177.157 36.0687 178.14 39.7102C179.3 44.3202 182.14 47.4802 186.79 48.7102C191.64 49.9402 196.04 48.9702 199.62 45.3402C202.39 42.5502 203.21 39.0002 203.26 35.0002Z" fill="#003BB3"/>
  <path d="M190.12 54.3498C187.53 54.3614 184.965 53.8335 182.59 52.7998C176.4 50.0898 172.82 45.0398 171.96 37.7998C171.9 37.3398 171.89 36.8898 171.87 36.4498C171.87 36.3098 171.87 36.1698 171.87 36.0298C171.87 35.8898 171.87 35.6498 171.87 35.4898V35.2998C171.87 29.2998 173.71 24.6798 177.52 21.0598C180.699 18.0387 184.886 16.3066 189.27 16.1998C196.27 15.8798 201.76 18.3098 205.56 23.4298C207.657 26.3218 208.866 29.7619 209.04 33.3298C209.463 37.4043 208.662 41.5125 206.74 45.1298C205.354 47.6298 203.381 49.7554 200.991 51.3233C198.601 52.8911 195.865 53.8543 193.02 54.1298C192.059 54.2674 191.091 54.3409 190.12 54.3498ZM190.48 19.1098C190.12 19.1098 189.75 19.1098 189.38 19.1098C185.711 19.1932 182.205 20.6366 179.54 23.1598C176.35 26.1598 174.81 30.1598 174.81 35.2498V35.4698C174.81 35.5998 174.81 35.7198 174.81 35.8498C174.81 35.9798 174.81 36.1498 174.81 36.2998C174.81 36.6898 174.81 37.0598 174.87 37.3998C175.62 43.6298 178.52 47.7698 183.76 50.0598C186.537 51.2513 189.592 51.6427 192.58 51.1898C197.89 50.4798 201.66 47.9998 204.12 43.6298C205.771 40.518 206.444 36.9803 206.05 33.4798C205.926 30.4779 204.917 27.5796 203.15 25.1498C200.14 21.0998 196 19.1098 190.48 19.1098ZM190.64 50.6898C189.226 50.6834 187.818 50.4986 186.45 50.1398C181.45 48.8498 178.05 45.3798 176.72 40.1398C175.663 36.1851 175.923 31.9937 177.46 28.1998C178.613 25.3947 180.669 23.0553 183.304 21.5532C185.938 20.0512 188.999 19.4727 192 19.9098C199.47 20.8398 204.2 25.9598 204.65 33.5898C204.65 33.9498 204.65 34.3198 204.72 34.5898V34.9598V34.9998C204.72 38.1598 204.21 42.7598 200.72 46.3498C199.426 47.7237 197.863 48.8176 196.13 49.5641C194.396 50.3106 192.528 50.6937 190.64 50.6898ZM190.22 22.7598C188.09 22.7096 185.994 23.3056 184.209 24.4694C182.424 25.6332 181.034 27.3103 180.22 29.2798C178.92 32.4896 178.705 36.0368 179.61 39.3798C180.67 43.5998 183.23 46.2598 187.2 47.2698C189.192 47.8857 191.317 47.9311 193.334 47.4008C195.351 46.8706 197.178 45.7859 198.61 44.2698C200.75 42.0998 201.73 39.2698 201.8 35.0198V34.7798C201.8 34.4898 201.75 34.1098 201.73 33.7798C201.36 27.5898 197.73 23.6098 191.66 22.8498C191.182 22.7932 190.701 22.7631 190.22 22.7598Z" fill="#003BB3"/>
  <path d="M213.131 21.6894H208.391V18.1494H213.111V9.60938H217.361V18.1394H226.841V21.6594H217.511C217.511 22.2894 217.421 22.7694 217.421 23.2394C217.421 29.6594 217.421 36.0794 217.421 42.4894C217.422 43.5261 217.519 44.5605 217.711 45.5794C217.809 46.3472 218.169 47.0577 218.73 47.5913C219.291 48.1249 220.019 48.4491 220.791 48.5094C222.221 48.6894 223.681 48.6794 225.131 48.7394C225.671 48.7394 226.221 48.7394 226.831 48.7394V52.1394C226.545 52.2064 226.254 52.2499 225.961 52.2694C224.291 52.2694 222.611 52.2694 220.961 52.2694C216.041 52.0694 213.251 49.2694 213.191 44.3694C213.101 37.3694 213.191 30.4294 213.141 23.4494L213.131 21.6894Z" fill="#003BB3"/>
  <path d="M223.4 53.7689C222.57 53.7689 221.73 53.7689 220.89 53.7689C215.12 53.5389 211.77 50.1289 211.7 44.4089C211.64 39.5089 211.64 34.5289 211.7 29.7089C211.7 27.6289 211.7 25.5489 211.7 23.4689V23.2089H206.95V16.7089H211.67V8.12891H218.88V16.6589H228.36V23.1389H218.9V25.5389C218.9 31.0989 218.9 36.8389 218.9 42.5389C218.909 43.4849 219 44.4284 219.17 45.3589C219.234 45.8039 219.452 46.2123 219.786 46.5123C220.121 46.8122 220.551 46.9846 221 46.9989C222 47.1289 223 47.1489 224 47.1889H225.18C225.51 47.1889 225.86 47.1889 226.24 47.1889H228.3V53.3989L227.06 53.6089H226.83C226.545 53.6765 226.253 53.7134 225.96 53.7189H223.4V53.7689ZM209.87 20.2089H214.61V29.6789C214.61 34.4789 214.61 39.4489 214.61 44.3389C214.66 48.4389 216.79 50.6089 220.96 50.7689C222.22 50.7689 223.52 50.7689 224.77 50.7689H225.32V50.1989H225.03H223.88C222.771 50.1872 221.662 50.1171 220.56 49.9889C219.477 49.892 218.459 49.4326 217.669 48.6849C216.88 47.9372 216.366 46.945 216.21 45.8689C216.038 44.7542 215.968 43.6263 216 42.4989C216 36.8489 216 31.0989 216 25.4989V23.1989C216 22.8289 216 22.4689 216.06 22.0889C216.06 21.9189 216.06 21.7289 216.06 21.5289L216.15 20.1489H225.38V19.5789H215.9V11.0789H214.6V19.6289H209.89L209.87 20.2089Z" fill="#003BB3"/>
  <path d="M60.7704 33.7194C60.3727 34.372 60.1165 35.1009 60.0183 35.8589C59.9201 36.6168 59.9822 37.3869 60.2004 38.1194C60.507 39.1 60.4824 40.1542 60.1304 41.1194C59.7249 42.1051 59.0269 42.9428 58.1304 43.5194C57.4443 43.9402 56.8756 44.5275 56.4771 45.2268C56.0785 45.926 55.8629 46.7146 55.8504 47.5194C55.7882 48.5848 55.3778 49.6003 54.6822 50.4097C53.9866 51.2192 53.0443 51.7777 52.0004 51.9994C51.2207 52.1801 50.4966 52.5476 49.8904 53.0702C49.2842 53.5928 48.814 54.2548 48.5204 54.9994C48.0637 56.0167 47.2972 56.8637 46.3304 57.4194C45.3377 57.9473 44.2054 58.1535 43.0904 58.0094C42.4484 57.9015 41.7899 57.9477 41.1692 58.1442C40.5485 58.3407 39.9834 58.6817 39.5204 59.1394C39.0114 59.6968 38.3943 60.1447 37.7066 60.4559C37.0189 60.7671 36.2751 60.935 35.5204 60.9494C34.9521 60.9454 34.387 60.8647 33.8404 60.7094C31.91 60.1751 29.8708 60.1751 27.9404 60.7094C27.4596 60.8302 26.9662 60.894 26.4704 60.8994C25.7179 60.8948 24.9743 60.7353 24.2861 60.4308C23.5979 60.1263 22.9799 59.6833 22.4704 59.1294C22.0295 58.6702 21.4822 58.3268 20.8769 58.1297C20.2717 57.9326 19.6271 57.8878 19.0004 57.9994C17.8292 58.1493 16.6401 57.9401 15.5904 57.3994C14.5804 56.8341 13.7805 55.957 13.3104 54.8994C13.0054 54.1831 12.5374 53.548 11.9437 53.0445C11.35 52.541 10.6469 52.1832 9.89039 51.9994C8.83154 51.7481 7.88358 51.1583 7.19039 50.3194C6.51087 49.426 6.11388 48.35 6.05039 47.2294C6.02318 46.548 5.83613 45.8825 5.50434 45.2867C5.17256 44.6908 4.70534 44.1814 4.14039 43.7994C3.13217 43.1494 2.35517 42.1974 1.92039 41.0794C1.52406 39.9377 1.48914 38.7016 1.82039 37.5394C2.00777 36.8648 2.03111 36.1553 1.88847 35.4699C1.74582 34.7845 1.44133 34.1431 1.00039 33.5994C0.480493 32.9659 0.14562 32.2012 0.032691 31.3895C-0.0802384 30.5778 0.0331616 29.7507 0.360389 28.9994C1.35968 26.733 1.80857 24.2624 1.67039 21.7894C1.61316 20.9367 1.78851 20.0845 2.17773 19.3236C2.56695 18.5628 3.15544 17.9219 3.88039 17.4694C4.53098 17.0437 5.0702 16.4684 5.45294 15.7916C5.83568 15.1149 6.05083 14.3563 6.08039 13.5794C6.13731 12.5094 6.52911 11.4845 7.20039 10.6494C7.90269 9.82703 8.84821 9.24921 9.90039 8.99938C10.6765 8.83612 11.4013 8.48694 12.0127 7.98181C12.624 7.47669 13.1037 6.83072 13.4104 6.09938C13.7957 5.09194 14.5046 4.24093 15.4258 3.67988C16.347 3.11882 17.4285 2.87947 18.5004 2.99938C20.4404 3.15938 21.6104 2.79938 22.6704 1.68938C23.429 0.870205 24.426 0.310447 25.5204 0.0893776C26.6271 -0.0910027 27.7626 0.0877224 28.7604 0.599378C29.4504 0.935348 30.2079 1.10994 30.9754 1.10994C31.7429 1.10994 32.5003 0.935348 33.1904 0.599378C34.1886 0.0468941 35.349 -0.137615 36.4693 0.0780388C37.5896 0.293692 38.5987 0.895819 39.3204 1.77938C39.7603 2.2596 40.3077 2.62871 40.9179 2.85643C41.528 3.08414 42.1834 3.16397 42.8304 3.08938C44.0689 2.92976 45.3261 3.16788 46.4204 3.76938C47.4829 4.42298 48.3069 5.40121 48.7704 6.55938C49.0139 7.14137 49.395 7.65559 49.8809 8.05793C50.3669 8.46027 50.9432 8.73871 51.5604 8.86938C52.7699 9.12379 53.8666 9.75795 54.6904 10.6794C55.4639 11.6152 55.8975 12.7855 55.9204 13.9994C56.0872 15.3312 56.7693 16.5447 57.8204 17.3794C58.5607 18.1366 59.2302 18.9601 59.8204 19.8394L60.2104 20.3794C60.395 20.675 60.5091 21.0092 60.5438 21.356C60.5785 21.7029 60.5328 22.053 60.4104 22.3794C60.0851 23.1882 59.9545 24.0621 60.0292 24.9307C60.1039 25.7992 60.3818 26.638 60.8404 27.3794C61.4219 28.3373 61.7236 29.4389 61.7112 30.5594C61.6989 31.6799 61.3729 32.7746 60.7704 33.7194Z" fill="#003BB3"/>
  <path d="M60.8204 27.3902C60.3618 26.6488 60.0839 25.81 60.0092 24.9415C59.9345 24.0729 60.0651 23.199 60.3904 22.3902C60.5128 22.0638 60.5585 21.7137 60.5238 21.3668C60.4891 21.02 60.375 20.6858 60.1904 20.3902L59.8004 19.8502C59.2102 18.9709 58.5407 18.1474 57.8004 17.3902C56.7545 16.5495 56.0796 15.3326 55.9204 14.0002C55.8952 12.7897 55.4618 11.6233 54.6904 10.6902C53.8666 9.76875 52.7699 9.13459 51.5604 8.88018C50.9432 8.74951 50.3669 8.47107 49.8809 8.06873C49.395 7.66639 49.0139 7.15217 48.7704 6.57018C48.3069 5.41201 47.4829 4.43378 46.4204 3.78018C45.3261 3.17868 44.0689 2.94056 42.8304 3.10018C42.1834 3.17477 41.528 3.09494 40.9179 2.86723C40.3077 2.63951 39.7603 2.2704 39.3204 1.79018C38.6 0.904972 37.5916 0.300894 36.4712 0.0833985C35.3508 -0.134097 34.1897 0.0488055 33.1904 0.600178C32.5003 0.936148 31.7429 1.11074 30.9754 1.11074C30.2079 1.11074 29.4504 0.936148 28.7604 0.600178C27.7626 0.0885223 26.6271 -0.0902027 25.5204 0.0901776C24.421 0.322176 23.4234 0.896273 22.6704 1.73018C21.6104 2.84018 20.4404 3.20018 18.5004 3.00018C17.4297 2.87958 16.3492 3.11749 15.4281 3.67663C14.5071 4.23578 13.7974 5.0846 13.4104 6.09018C13.105 6.82338 12.6259 7.47136 12.0145 7.9783C11.403 8.48523 10.6775 8.83593 9.90039 9.00018C8.85205 9.24188 7.90699 9.80891 7.20039 10.6202C6.52911 11.4553 6.13731 12.4802 6.08039 13.5502C6.05083 14.3271 5.83568 15.0857 5.45294 15.7624C5.0702 16.4392 4.53098 17.0145 3.88039 17.4402C3.15544 17.8927 2.56695 18.5336 2.17773 19.2944C1.78851 20.0553 1.61316 20.9075 1.67039 21.7602C1.81335 24.2432 1.36436 26.7247 0.360389 29.0002C0.0331616 29.7515 -0.0802384 30.5786 0.032691 31.3903C0.14562 32.202 0.480493 32.9667 1.00039 33.6002C1.43621 34.1466 1.73526 34.7892 1.87266 35.4745C2.01007 36.1598 1.98186 36.868 1.79039 37.5402C1.45914 38.7024 1.49406 39.9385 1.89039 41.0802C2.33307 42.2024 3.121 43.155 4.14039 43.8002C4.708 44.1841 5.17687 44.6968 5.50878 45.2963C5.8407 45.8959 6.02628 46.5653 6.05039 47.2502C6.11388 48.3708 6.51087 49.4468 7.19039 50.3402C7.88656 51.1717 8.83418 51.7543 9.89039 52.0002C10.6491 52.1732 11.357 52.5209 11.9577 53.0157C12.5583 53.5105 13.0352 54.1386 13.3504 54.8502C13.8205 55.9078 14.6204 56.7849 15.6304 57.3502C16.6631 57.9001 17.8373 58.1266 19.0004 58.0002C19.6257 57.8987 20.2664 57.9524 20.8662 58.1564C21.466 58.3604 22.0066 58.7085 22.4404 59.1702C22.9499 59.724 23.5679 60.1671 24.2561 60.4716C24.9443 60.7761 25.6879 60.9356 26.4404 60.9402C26.9362 60.9348 27.4296 60.871 27.9104 60.7502C29.8408 60.2159 31.88 60.2159 33.8104 60.7502C34.357 60.9055 34.9221 60.9862 35.4904 60.9902C36.2451 60.9758 36.9889 60.8079 37.6766 60.4967C38.3643 60.1855 38.9814 59.7376 39.4904 59.1802C39.9518 58.7091 40.5197 58.356 41.1463 58.1507C41.7729 57.9453 42.4397 57.8937 43.0904 58.0002C44.2054 58.1443 45.3377 57.9381 46.3304 57.4102C47.2956 56.8571 48.062 56.0138 48.5204 55.0002C48.814 54.2556 49.2842 53.5936 49.8904 53.071C50.4966 52.5484 51.2207 52.1809 52.0004 52.0002C53.0422 51.7741 53.9811 51.2125 54.673 50.4014C55.3648 49.5903 55.7714 48.5746 55.8304 47.5102C55.8429 46.7054 56.0585 45.9168 56.4571 45.2176C56.8556 44.5183 57.4243 43.931 58.1104 43.5102C59.0069 42.9336 59.7049 42.0959 60.1104 41.1102C60.4624 40.145 60.487 39.0908 60.1804 38.1102C59.9622 37.3777 59.9001 36.6076 59.9983 35.8497C60.0965 35.0917 60.3527 34.3628 60.7504 33.7102C61.349 32.7676 61.6727 31.6767 61.685 30.5601C61.6974 29.4436 61.3979 28.3458 60.8204 27.3902ZM59.9004 33.2402C59.4373 34.0089 59.1402 34.866 59.0282 35.7564C58.9163 36.6468 58.992 37.5508 59.2504 38.4102C59.5114 39.2121 59.4866 40.0796 59.1803 40.8653C58.8741 41.651 58.3052 42.3064 57.5704 42.7202C56.7614 43.2304 56.0914 43.9331 55.6202 44.7654C55.149 45.5978 54.8914 46.5339 54.8704 47.4902C54.818 48.3424 54.4888 49.1541 53.9329 49.8021C53.377 50.4501 52.6247 50.8988 51.7904 51.0802C50.8707 51.2783 50.0123 51.6954 49.2881 52.296C48.5639 52.8966 47.9953 53.663 47.6304 54.5302C47.2772 55.3822 46.6464 56.0898 45.8404 56.5382C45.0344 56.9866 44.1006 57.1494 43.1904 57.0002C42.4001 56.8752 41.5914 56.9387 40.8303 57.1854C40.0691 57.4322 39.377 57.8553 38.8104 58.4202C38.2349 59.0751 37.4809 59.5479 36.6407 59.7805C35.8006 60.0132 34.9108 59.9957 34.0804 59.7302C33.1034 59.4593 32.0943 59.3214 31.0804 59.3202C29.9327 59.3279 28.7905 59.4791 27.6804 59.7702C27.2825 59.8767 26.8723 59.9305 26.4604 59.9302C25.847 59.9257 25.2413 59.7935 24.6818 59.5422C24.1222 59.2908 23.6212 58.9257 23.2104 58.4702C22.6697 57.8993 21.9991 57.4675 21.2557 57.2115C20.5122 56.9556 19.7179 56.8831 18.9404 57.0002C17.9858 57.1634 17.004 57.0019 16.152 56.5414C15.3 56.081 14.6269 55.3482 14.2404 54.4602C13.8689 53.6144 13.3046 52.8673 12.5926 52.2787C11.8807 51.69 11.0409 51.2762 10.1404 51.0702C9.25133 50.8745 8.45562 50.3813 7.88472 49.6722C7.31381 48.9631 7.00186 48.0805 7.00039 47.1702C6.96968 46.3437 6.74561 45.5359 6.34617 44.8117C5.94673 44.0875 5.38305 43.4671 4.70039 43.0002C3.83716 42.478 3.17699 41.678 2.82813 40.7314C2.47927 39.7847 2.46244 38.7476 2.78039 37.7902C3.0042 36.9712 3.03025 36.1107 2.85639 35.2797C2.68253 34.4486 2.31374 33.6708 1.78039 33.0102C1.36659 32.5127 1.09662 31.9116 0.999688 31.2718C0.902751 30.632 0.982526 29.9779 1.23039 29.3802C2.2965 26.9773 2.77306 24.3545 2.62039 21.7302C2.5789 21.0509 2.72255 20.3731 3.03603 19.769C3.3495 19.1649 3.82105 18.6573 4.40039 18.3002C5.17382 17.7916 5.81551 17.1067 6.27271 16.3018C6.72992 15.4969 6.98959 14.595 7.03039 13.6702C7.04628 12.7922 7.36579 11.9467 7.93459 11.2777C8.50339 10.6086 9.28637 10.1572 10.1504 10.0002C11.0715 9.80181 11.9309 9.38352 12.6553 8.78103C13.3797 8.17853 13.9475 7.40971 14.3104 6.54018C14.6136 5.72502 15.1786 5.03346 15.9169 4.57382C16.6552 4.11418 17.5251 3.91243 18.3904 4.00018C19.292 4.16647 20.2207 4.10644 21.0933 3.82544C21.966 3.54445 22.7553 3.05129 23.3904 2.39018C23.9852 1.69296 24.8014 1.22116 25.7025 1.05369C26.6035 0.88622 27.5348 1.03325 28.3404 1.47018C29.157 1.87246 30.0551 2.08167 30.9654 2.08167C31.8757 2.08167 32.7738 1.87246 33.5904 1.47018C34.4061 1.01315 35.3583 0.862754 36.2752 1.04613C37.1921 1.2295 38.0132 1.73457 38.5904 2.47018C39.1309 3.0594 39.8032 3.51241 40.5522 3.79222C41.3013 4.07203 42.1059 4.1707 42.9004 4.08018C43.9394 3.89645 45.0099 4.08962 45.9192 4.62493C46.8285 5.16023 47.5168 6.00251 47.8604 7.00018C48.1636 7.72348 48.6377 8.36245 49.2421 8.86231C49.8465 9.36217 50.563 9.70801 51.3304 9.87018C52.3338 10.0316 53.247 10.5449 53.9065 11.3181C54.5661 12.0912 54.9291 13.0739 54.9304 14.0902C55.108 15.6613 55.8987 17.0988 57.1304 18.0902C57.8191 18.8085 58.4447 19.5846 59.0004 20.4102L59.3804 20.9502C59.4713 21.1081 59.5257 21.2844 59.5395 21.4661C59.5534 21.6478 59.5263 21.8303 59.4604 22.0002C59.0781 22.9547 58.9278 23.9862 59.0216 25.0102C59.1155 26.0341 59.4509 27.0211 60.0004 27.8902C60.4923 28.6998 60.744 29.6325 60.7263 30.5797C60.7086 31.5268 60.4222 32.4495 59.9004 33.2402Z" fill="#003BB3"/>
  <path d="M22.0508 33.8295L23.3608 32.5895L26.2508 35.5895L35.0608 23.2695L36.5808 24.3695L26.5808 38.3695L22.0508 33.8295Z" fill="white"/>
  <path d="M30.8207 52.5387H30.3307V50.3787H31.7007L31.7707 52.5387H30.7707H30.8207ZM30.7007 52.1787H31.4207L31.3707 50.7487H30.7207L30.7007 52.1787ZM28.7507 52.4487H28.5707L27.4707 52.3088H27.2907L27.6207 50.1687H27.8007L28.8007 50.2987H28.9807L28.7507 52.4487ZM27.7507 51.9487C27.9807 51.9487 28.2207 52.0187 28.4607 52.0387L28.6107 50.6187L27.9607 50.5387L27.7507 51.9487ZM33.4207 52.3988L33.1507 50.2487H33.3407L34.3407 50.0987H34.5207L34.9007 52.2287H34.7207C34.3607 52.2887 33.9907 52.3487 33.6307 52.3887L33.4207 52.3988ZM33.5607 50.5687L33.7007 51.9987L34.4107 51.8887L34.1707 50.4787L33.5607 50.5687ZM25.7307 51.9987H25.5507C25.2007 51.9087 24.8407 51.8088 24.4907 51.6987H24.3107L24.9307 49.6287H25.1107L26.1107 49.8988H26.2907L25.7307 51.9987ZM24.7307 51.3587L25.4207 51.5588L25.7707 50.1687L25.1807 49.9987L24.7307 51.3587ZM36.3507 51.8787L35.7807 49.7887H35.9607L36.9607 49.4987L37.1407 49.4387L37.8107 51.4987L37.6407 51.5588C37.2907 51.6688 36.9307 51.7787 36.5707 51.8687L36.3507 51.8787ZM36.2707 49.9987L36.6507 51.3787L37.3407 51.1687L36.8907 49.8187L36.2707 49.9987ZM22.8107 50.9987H22.6407L21.6407 50.5588L21.4707 50.4787L22.3807 48.4787L22.5407 48.5487C22.8507 48.6987 23.1607 48.8288 23.4607 48.9487L23.6307 49.0187L22.8107 50.9987ZM22.0007 50.2687L22.6607 50.5588L23.1907 49.2287L22.5507 48.9987L22.0007 50.2687ZM39.3307 50.8487L38.4807 48.8487L38.6507 48.7787L39.5507 48.3687L39.7207 48.2887L40.6707 50.2287L40.5107 50.3088C40.1807 50.4688 39.8407 50.6287 39.5107 50.7687L39.3307 50.8487ZM38.9607 49.0588L39.5307 50.3687L40.1807 50.0687L39.5507 48.7887L38.9607 49.0588ZM20.1007 49.7188L19.9407 49.6287C19.6207 49.4487 19.3107 49.2487 19.0007 49.0487L18.8407 48.9487L20.0007 47.1387L20.1607 47.2388L21.0107 47.7587L21.1707 47.8487L20.1007 49.7188ZM19.3507 48.8387L19.9707 49.2188L20.6307 47.9987L20.0707 47.6587L19.3507 48.8387ZM42.0007 49.4787L40.8807 47.6287L41.0407 47.5287L41.8807 46.9987L42.0307 46.8887L43.2407 48.6787L43.0907 48.7887L42.1607 49.3787L42.0007 49.4787ZM41.3907 47.7487L42.1407 48.9987C42.3407 48.8787 42.5407 48.7487 42.7407 48.6087L41.9407 47.4287L41.3907 47.7487ZM17.5007 47.9987L17.3507 47.8787C17.0607 47.6587 16.7807 47.4188 16.5007 47.1787L16.3607 47.0588L17.7707 45.4187L17.9107 45.5387C18.1607 45.7588 18.4207 45.9688 18.6807 46.1787L18.8307 46.2887L17.5007 47.9987ZM16.8807 46.9987C17.0607 47.1587 17.2507 47.3087 17.4407 47.4587L18.3107 46.3288L17.8107 45.9187L16.8807 46.9987ZM44.5207 47.6787L43.1607 45.9987H43.3007C43.5607 45.7887 43.8107 45.5687 44.0607 45.3487L44.1907 45.2188L45.6407 46.8288L45.5107 46.9487C45.2307 47.2021 44.9507 47.4421 44.6707 47.6687L44.5207 47.6787ZM43.6707 46.0487L44.5807 47.1587L45.1207 46.6887L44.1707 45.6287C44.0007 45.8288 43.8407 45.9987 43.6707 46.1087V46.0487ZM15.2107 45.9987L15.0807 45.8687C14.8207 45.6087 14.5707 45.3288 14.3307 45.0588L14.2107 44.9187L15.8307 43.4888L15.9507 43.6287C16.1707 43.8787 16.4007 44.1287 16.6307 44.3687L16.7607 44.4987L15.2107 45.9987ZM14.7307 44.9987L15.2107 45.5287L16.2107 44.5287L15.8007 43.9987L14.7307 44.9987ZM46.7307 45.7087L45.1507 44.2287L45.2707 44.0987C45.4974 43.8587 45.7174 43.6087 45.9307 43.3487L46.0507 43.2087L47.7107 44.5987L47.5907 44.7388C47.3507 45.0288 47.1007 45.2987 46.8607 45.5687L46.7307 45.7087ZM45.6607 44.2087L46.6607 45.2087L47.1407 44.6687L46.0407 43.7487C46.0007 43.8487 45.8507 43.9987 45.7007 44.1687L45.6607 44.2087ZM13.1807 43.7287L13.0707 43.5887C12.8507 43.2887 12.6407 42.9787 12.4407 42.6787L12.3407 42.5187L14.1407 41.3387L14.2507 41.4888C14.4207 41.7588 14.6107 42.0387 14.8107 42.3088L14.9207 42.4587L13.1807 43.7287ZM12.8507 42.6287C12.9807 42.8288 13.1207 43.0288 13.2607 43.2188L14.4107 42.3787L14.0407 41.8387L12.8507 42.6287ZM48.6707 43.3387L46.9007 42.0987L47.0007 41.9487C47.1907 41.6787 47.3807 41.3987 47.5507 41.1187L47.6507 40.9688L49.4807 42.1087L49.3907 42.2687C49.1907 42.5788 48.9907 42.8887 48.7807 43.1887L48.6707 43.3387ZM47.4507 41.9987L48.6207 42.8187C48.7607 42.6187 48.8907 42.4188 49.0207 42.2188L47.8107 41.4587L47.4507 41.9987ZM11.5707 41.1488L11.4807 40.9987C11.3107 40.6787 11.1407 40.3487 10.9807 39.9987L10.9007 39.8387L12.9007 38.9087L12.9807 39.0788C13.1207 39.3688 13.2707 39.6688 13.4307 39.9688L13.5107 40.1287L11.5707 41.1488ZM11.3907 39.9987L11.7207 40.6387L13.0007 39.9987L12.7007 39.4187L11.3907 39.9987ZM50.3007 40.7087L48.3807 39.7087L48.4607 39.5487C48.6107 39.2487 48.7507 38.9487 48.8907 38.6488L48.9607 38.4787L50.9607 39.3587L50.8807 39.5287C50.7407 39.8587 50.5807 40.1987 50.4107 40.5287L50.3007 40.7087ZM48.8707 39.5687L50.1407 40.2188C50.2507 39.9988 50.3507 39.7787 50.4507 39.5687L49.1507 38.9987C49.0607 39.1587 49.0007 39.3587 48.8707 39.5487V39.5687ZM10.2907 38.3387L10.2307 38.1687C10.0974 37.8154 9.97737 37.4654 9.8707 37.1187V36.9487L11.9307 36.3088L11.9907 36.4787C12.0907 36.7987 12.1907 37.1187 12.3107 37.4787L12.3707 37.6488L10.2907 38.3387ZM10.2907 37.1887C10.3607 37.4187 10.4407 37.6487 10.5207 37.8687L11.8607 37.3787L11.6507 36.7687L10.2907 37.1887ZM51.5307 37.8787L49.4807 37.1787L49.5407 37.0087C49.6507 36.6987 49.7507 36.3787 49.8407 36.0588L49.8907 35.8787L51.9707 36.4787L51.9207 36.6488C51.8207 37.0088 51.7107 37.3587 51.5907 37.7087L51.5307 37.8787ZM49.9407 36.9987L51.2907 37.4688C51.3607 37.2388 51.4407 37.0087 51.5007 36.7787L50.1307 36.3887C50.0707 36.5387 50.0007 36.7487 49.9407 36.9987ZM9.4207 35.4087V35.2287C9.3407 34.8787 9.2707 34.5088 9.2107 34.1488V33.9688L11.3507 33.6187V33.7987C11.3507 34.1287 11.4607 34.4587 11.5307 34.7987V34.9787L9.4207 35.4087ZM9.5707 34.2687C9.5707 34.5087 9.6507 34.7387 9.7007 34.9787L11.1007 34.6787C11.1007 34.4688 11.0107 34.2487 10.9807 34.0387L9.5707 34.2687ZM52.3307 34.9287L50.2007 34.5287V34.3487C50.2607 34.0287 50.3107 33.6987 50.3607 33.3487V33.1687L52.5107 33.4688V33.6488C52.5107 34.0088 52.4007 34.3787 52.3307 34.7388V34.9287ZM50.6307 34.2388L52.0307 34.4987C52.0307 34.2687 52.1207 34.0287 52.1507 33.7887L50.7407 33.5987C50.7107 33.8087 50.6707 33.9988 50.6307 34.2388ZM9.0007 32.3887V32.2087C9.0007 31.8387 9.0007 31.4688 9.0007 31.0988V30.9188L11.1607 30.8688V31.0588C11.1607 31.3888 11.1607 31.7188 11.1607 32.0588V32.2487L9.0007 32.3887ZM9.3107 31.2788V31.9987L10.7407 31.8988C10.7407 31.6788 10.7407 31.4587 10.7407 31.2487L9.3107 31.2788ZM52.7507 31.8988L50.5907 31.7887V31.6087C50.5907 31.2787 50.5907 30.9487 50.5907 30.6087V30.3088H52.7507V30.6188C52.7507 30.9888 52.7507 31.3687 52.7507 31.7287V31.8988ZM50.9807 31.4487L52.4007 31.5187C52.4007 31.2387 52.4007 30.9488 52.4007 30.6688H51.0007C51.0007 30.9288 51.0007 31.1887 50.9407 31.4487H50.9807ZM11.1207 29.4487L8.9707 29.3088V29.1188C8.9707 28.7588 9.0307 28.3888 9.0707 28.0187V27.8387L11.2207 28.0887V28.2687C11.2207 28.5987 11.1507 28.9387 11.1307 29.2687L11.1207 29.4487ZM9.3207 28.9987L10.7407 29.0988L10.8007 28.4487L9.3807 28.2887L9.3207 28.9987ZM50.5207 28.9287V28.7487C50.5207 28.4187 50.4507 28.0787 50.4007 27.7487V27.5588L52.5407 27.2487V27.4287C52.6007 27.7987 52.6407 28.1688 52.6707 28.5288V28.7188L50.5207 28.9287ZM50.7707 27.8787C50.7707 28.0987 50.8307 28.3088 50.8507 28.5288L52.2707 28.3887C52.2707 28.1587 52.2207 27.9187 52.1807 27.6787L50.7707 27.8787ZM11.4307 26.7487L9.3107 26.2987V26.1188C9.3907 25.7688 9.4707 25.3987 9.5607 25.0487L9.6107 24.8688L11.7007 25.4188V25.5887C11.6107 25.9087 11.5407 26.2387 11.4707 26.5887L11.4307 26.7487ZM9.7507 25.9987L11.1507 26.2887C11.1507 26.0788 11.2407 25.8687 11.2907 25.6587L9.9107 25.2987C9.8507 25.5487 9.8007 25.7887 9.7507 25.9987ZM50.0907 26.1787V25.9987C50.0207 25.6787 49.9307 25.3487 49.8407 24.9987L49.7807 24.8288L51.8607 24.2187V24.3987C51.9707 24.7587 52.0607 25.1187 52.1507 25.4688V25.6488L50.0907 26.1787ZM50.2007 25.1087C50.2607 25.3187 50.3107 25.5287 50.3707 25.7287L51.7507 25.3988C51.704 25.1721 51.644 24.9421 51.5707 24.7087L50.2007 25.1087ZM12.1507 24.1088L10.1507 23.3688L10.2107 23.1988C10.3407 22.8588 10.4707 22.5088 10.6107 22.1988L10.6907 22.0288L12.6907 22.8588L12.6207 23.0288C12.4907 23.3388 12.3707 23.6487 12.2607 23.9687L12.1507 24.1088ZM10.5907 23.1088L11.9307 23.5988L12.1707 22.9887L10.8507 22.4388C10.7607 22.6788 10.6707 22.9087 10.5907 23.1287V23.1088ZM49.2907 23.5388L49.2307 23.3688C49.1107 23.0588 48.9807 22.7488 48.8407 22.4488L48.7607 22.2888L50.7607 21.3887L50.8407 21.5587C50.9907 21.8987 51.1407 22.2387 51.2707 22.5587L51.3407 22.7287L49.2907 23.5388ZM49.2907 22.4687C49.3807 22.6687 49.4607 22.8587 49.5407 23.0587L50.8707 22.5388C50.7807 22.3188 50.6907 22.0987 50.5907 21.8787L49.2907 22.4687ZM13.2907 21.5388L11.3807 20.5388L11.4707 20.3787C11.6407 20.0487 11.8307 19.7287 12.0107 19.3787L12.1107 19.2187L13.9607 20.3187L13.8707 20.4787C13.7007 20.7687 13.5407 21.0588 13.3807 21.3488L13.2907 21.5388ZM11.8807 20.3688L13.1407 21.0388L13.4607 20.4687L12.2307 19.7387L11.8807 20.3688ZM48.1807 21.0388L48.0007 20.8987C47.8407 20.6187 47.6707 20.3287 47.4907 20.0487L47.3907 19.8887L49.2207 18.7387L49.3207 18.8887C49.5207 19.1987 49.7107 19.5188 49.8907 19.8387L50.0007 19.9987L48.1807 21.0388ZM47.9907 20.0388C48.1007 20.2188 48.2207 20.4087 48.3207 20.5887L49.5707 19.8887L49.2007 19.2788L47.9907 20.0388ZM14.6807 19.1988L12.9207 17.9288L13.0307 17.7788C13.2507 17.4888 13.4707 17.1887 13.7007 16.8987L13.8207 16.7587L15.5107 18.1088L15.3907 18.2587C15.1807 18.5087 14.9807 18.7787 14.7907 19.0487L14.6807 19.1988ZM13.4407 17.8488L14.6007 18.6888C14.7207 18.5087 14.8607 18.3387 14.9907 18.1687L13.8807 17.2788L13.4407 17.8488ZM46.6407 18.7487L46.5307 18.6088C46.3307 18.3488 46.1107 18.0787 45.9007 17.8287L45.7807 17.6888L47.4307 16.2888L47.5507 16.4288C47.7907 16.7088 48.0207 16.9988 48.2407 17.2888L48.3507 17.4388L46.6407 18.7487ZM46.3007 17.7487L46.7007 18.2587L47.8407 17.3887L47.3907 16.8287L46.3007 17.7487ZM16.4207 17.0887L14.8607 15.5887L14.9907 15.4587C15.2507 15.1887 15.5107 14.9288 15.7807 14.6788L15.9107 14.5487L17.3907 16.1188L17.2607 16.2487L16.5507 16.9488L16.4207 17.0887ZM15.4207 15.5787L16.4207 16.5787C16.5707 16.4187 16.7307 16.2688 16.8807 16.1188L15.8807 15.1187L15.4207 15.5787ZM44.8707 16.6888L44.7407 16.5587C44.5107 16.3287 44.2707 16.0987 44.0107 15.8787L43.8807 15.7487L45.3207 14.1388L45.4507 14.2587C45.7307 14.5087 46.0007 14.7587 46.2607 15.0188L46.3907 15.1487L44.8707 16.6888ZM44.4007 15.6887L44.8707 16.1287L45.8707 15.1287L45.3507 14.6388L44.4007 15.6887ZM18.4907 15.1687L17.1107 13.4987L17.2507 13.3787C17.5407 13.1588 17.8407 12.9288 18.1407 12.7188L18.2907 12.6087L19.5407 14.3787L19.3907 14.4787L18.5907 15.0787L18.4907 15.1687ZM17.6707 13.5387L18.5507 14.6587L19.0707 14.2688L18.2407 13.1087L17.6707 13.5387ZM42.8007 14.8287L42.6507 14.7188C42.3907 14.5287 42.1107 14.3287 41.8307 14.1487L41.6807 14.0487L42.8807 12.2487L43.0407 12.3488C43.3407 12.5488 43.6407 12.7687 43.9407 12.9887L44.0907 13.0988L42.8007 14.8287ZM42.1507 13.9987C42.3307 14.1187 42.5107 14.2387 42.6807 14.3687L43.5307 13.2287C43.3407 13.0787 43.1407 12.9388 42.9407 12.8088L42.1507 13.9987ZM20.7107 13.6487L19.6207 11.7787L19.7807 11.6887C20.1007 11.5087 20.4207 11.3287 20.7807 11.1587L20.9407 11.0687L21.9407 12.9887L21.7707 13.0787L20.9007 13.5588L20.7107 13.6487ZM20.1207 11.9187L20.8407 13.1487L21.4107 12.8387L20.7507 11.5687L20.1207 11.9187ZM40.4507 13.3687L40.2907 13.2887C40.0007 13.1287 39.7007 12.9687 39.4007 12.8287L39.2407 12.7487L40.1807 10.7487L40.3407 10.8287C40.6807 10.9887 41.014 11.1587 41.3407 11.3387L41.5007 11.4288L40.4507 13.3687ZM39.7307 12.5787C39.9207 12.6787 40.1107 12.7687 40.3007 12.8787L41.0007 11.5887L40.3607 11.2587L39.7307 12.5787ZM23.1707 12.4087L22.3507 10.4087L22.5207 10.3387C22.8607 10.1987 23.2007 10.0687 23.5207 9.94875L23.7007 9.87875L24.4107 11.9288L24.2407 11.9887L23.3107 12.3387L23.1707 12.4087ZM22.8307 10.6087L23.3707 11.9288L23.9807 11.6987L23.5007 10.3488L22.8307 10.6087ZM38.0007 12.1687L37.8207 12.1087C37.5107 11.9887 37.2007 11.8787 36.8807 11.7787L36.7007 11.7188L37.3607 9.65875L37.5407 9.71875C37.894 9.82542 38.2274 9.94542 38.5407 10.0787L38.7107 10.1487L38.0007 12.1687ZM37.1707 11.4787L37.7807 11.6987L38.2807 10.3587L37.6007 10.1287L37.1707 11.4787ZM25.8207 11.4787L25.2507 9.39875L25.4207 9.34875L26.5007 9.10875H26.6807L27.1107 11.2287H26.9307C26.6007 11.2887 26.2807 11.3687 25.9307 11.4487L25.8207 11.4787ZM25.7307 9.64875L26.0007 11.0487L26.6307 10.9087L26.3607 9.50875C26.1607 9.54875 25.9307 9.60875 25.6907 9.65875L25.7307 9.64875ZM35.3607 11.3488H35.1807C34.8607 11.2788 34.5307 11.2087 34.1807 11.1587H34.0007L34.3507 8.99875H34.5307L35.6107 9.21875H35.7907L35.3607 11.3488ZM34.4507 10.7887L35.0807 10.9087L35.3907 9.51875L34.6907 9.37875L34.4507 10.7887ZM28.4807 10.9987L28.2507 8.84875H28.4307C28.7974 8.80875 29.1674 8.77875 29.5407 8.75875H29.7207L29.8407 10.9187H29.6607L28.6607 10.9987H28.4807ZM28.6607 9.17875L28.8107 10.5988L29.4607 10.5387L29.3707 9.09875C29.1307 9.10875 28.8907 9.12875 28.6607 9.15875V9.17875ZM32.6007 10.9387H32.4207C32.0907 10.9387 31.7607 10.8887 31.4207 10.8787H31.2407L31.3007 8.71875H31.4907C31.8507 8.71875 32.2307 8.71875 32.5907 8.77875H32.7707L32.6007 10.9387ZM31.6007 10.5087H32.2407L32.3607 9.08875H31.6407L31.6007 10.5087Z" fill="white"/>
</svg>
