<svg width="15" height="16" viewBox="0 0 15 16" fill="none" xmlns="http://www.w3.org/2000/svg">
<path d="M7.40909 16L0.5 12V4L7.40909 0L14.3182 4V12L7.40909 16ZM7.40909 1.68145L1.95455 4.83855V11.1615L7.40909 14.3193L12.8636 11.1615V4.83855L7.40909 1.68073V1.68145ZM7.40909 10.9091C6.63781 10.9069 5.8985 10.6006 5.35164 10.0567C4.51981 9.22465 4.27109 7.97344 4.72144 6.88649C5.17179 5.79953 6.23253 5.09091 7.40909 5.09091C8.18019 5.09298 8.91931 5.39929 9.46582 5.94327C10.6015 7.07927 10.6015 8.92073 9.46582 10.0567C8.91917 10.6005 8.18014 10.9068 7.40909 10.9091ZM7.40909 6.54545C6.71516 6.54531 6.11775 7.03538 5.98224 7.71595C5.84672 8.39652 6.21084 9.07805 6.8519 9.34372C7.49297 9.6094 8.23243 9.38523 8.61805 8.8083C9.00368 8.23138 8.92807 7.4624 8.43745 6.97164C8.16528 6.69802 7.79502 6.54457 7.40909 6.54545Z" fill="#363740"/>
</svg>
