<svg width="16" height="16" viewBox="0 0 16 16" fill="none" xmlns="http://www.w3.org/2000/svg">
  <path d="M13.3109 7.86875L13.7352 7.44453C14.0867 7.09297 14.0867 6.52344 13.7352 6.17188C13.3836 5.82031 12.8141 5.82031 12.4625 6.17188L11.5977 7.03672V5.6L8.00234 2H3.5C2.67266 2 2 2.67266 2 3.5V12.5C2 13.3273 2.67266 14 3.5 14H10.1C10.9273 14 11.6 13.3273 11.6 12.5V9.58203L12.8891 8.29297L13.1 8.50391L12.6758 8.92813C12.5563 9.04297 12.5539 9.23281 12.6688 9.35234C12.7836 9.47188 12.9734 9.47422 13.093 9.35938C13.0953 9.35703 13.0977 9.35469 13.1 9.35234L13.7375 8.71484C13.8547 8.59766 13.8547 8.40781 13.7375 8.29062L13.3109 7.86875ZM8.3 3.15078L10.4445 5.3H9.2C8.70313 5.3 8.3 4.89688 8.3 4.4V3.15078ZM11 12.5C11 12.9969 10.5969 13.4 10.1 13.4H3.5C3.00313 13.4 2.6 12.9969 2.6 12.5V3.5C2.6 3.00312 3.00313 2.6 3.5 2.6H7.7V4.4C7.7 5.22734 8.37266 5.9 9.2 5.9H11V7.63672L8.22031 10.4141C7.95078 10.6836 7.88047 11.0938 8.04688 11.4359L8.02109 11.4617C7.69766 11.1148 7.38125 10.9625 7.0625 11.0023C6.75781 11.0398 6.575 11.2367 6.42734 11.3961C6.31719 11.5156 6.24453 11.5906 6.1625 11.6023C6.12734 11.6 6.03359 11.4945 5.97734 11.4289C5.83906 11.2648 5.64922 11.0422 5.33281 11.0023C4.94141 10.9555 4.55938 11.1898 4.15859 11.7195C4.05547 11.8508 4.07891 12.0383 4.21016 12.1414C4.34141 12.2445 4.52891 12.2211 4.63203 12.0898C4.63438 12.0875 4.63672 12.0852 4.63906 12.0828C4.88516 11.757 5.1125 11.5789 5.26484 11.6C5.33984 11.6094 5.41719 11.6914 5.52266 11.818C5.66328 11.982 5.85078 12.2047 6.15547 12.2047C6.18125 12.2047 6.20938 12.2023 6.23516 12.2C6.53984 12.1625 6.72266 11.9656 6.87031 11.8062C6.98281 11.6844 7.05313 11.6117 7.13516 11.6C7.28516 11.5789 7.5125 11.7594 7.76094 12.0828C7.81719 12.1555 7.90391 12.2 7.99766 12.2C8.00234 12.2 8.00938 12.2 8.01406 12.2H8.02578C8.10078 12.1977 8.17109 12.1648 8.22266 12.1133L8.47344 11.8625C8.81563 12.0312 9.22813 11.9609 9.49531 11.6891L11.0047 10.182V12.5H11ZM9.06875 11.2625C8.95156 11.3797 8.76172 11.3797 8.64453 11.2625C8.52734 11.1453 8.52734 10.9555 8.64453 10.8383L12.0383 7.44453L12.4625 7.86875L9.06875 11.2625ZM12.8867 7.44453L12.8094 7.36719L12.4625 7.02031L12.8867 6.59609C12.9102 6.575 12.9359 6.55625 12.9641 6.54219C12.9898 6.52813 13.018 6.51875 13.0461 6.51406C13.0625 6.51172 13.0813 6.50937 13.0977 6.50937C13.1164 6.50937 13.1328 6.51172 13.1516 6.51641C13.1867 6.52344 13.2195 6.53516 13.25 6.55156C13.393 6.63594 13.4398 6.82109 13.3531 6.96406C13.3414 6.98516 13.325 7.00391 13.3086 7.02266L12.8867 7.44453ZM4.1 6.5C4.1 6.33359 4.23359 6.2 4.4 6.2H6.20938C6.37578 6.2 6.50938 6.33359 6.50938 6.5C6.50938 6.66641 6.37578 6.8 6.20938 6.8H4.4C4.23359 6.8 4.1 6.66641 4.1 6.5ZM4.1 7.7C4.1 7.53359 4.23359 7.4 4.4 7.4H8.00938C8.17578 7.4 8.30938 7.53359 8.30938 7.7C8.30938 7.86641 8.17578 8 8.00938 8H4.4C4.23359 8 4.1 7.86641 4.1 7.7Z" fill="#141C28"/>
</svg>
