<svg width="24" height="24" viewBox="0 0 24 24" fill="none" xmlns="http://www.w3.org/2000/svg">
  <path d="M15.4296 10.875C15.4296 10.5298 15.1498 10.25 14.8046 10.25H8.36718C8.022 10.25 7.74219 10.5298 7.74219 10.875C7.74219 11.2202 8.022 11.5 8.36718 11.5H14.8046C15.1498 11.5 15.4296 11.2202 15.4296 10.875Z" fill="black"/>
  <path d="M8.36718 12.75C8.022 12.75 7.74219 13.0298 7.74219 13.375C7.74219 13.7202 8.022 14 8.36718 14H12.2768C12.622 14 12.9018 13.7202 12.9018 13.375C12.9018 13.0298 12.622 12.75 12.2768 12.75H8.36718Z" fill="black"/>
  <path d="M9.83632 18.7498H7.74606C7.05682 18.7498 6.49608 18.1891 6.49608 17.4998V6.49997C6.49608 5.81073 7.05682 5.24998 7.74606 5.24998H15.43C16.1192 5.24998 16.68 5.81073 16.68 6.49997V10.3437C16.68 10.6889 16.9598 10.9687 17.305 10.9687C17.6502 10.9687 17.93 10.6889 17.93 10.3437V6.49997C17.93 5.12149 16.8085 4 15.43 4H7.74606C6.36758 4 5.24609 5.12149 5.24609 6.49997V17.4998C5.24609 18.8783 6.36758 19.9998 7.74606 19.9998H9.83632C10.1815 19.9998 10.4613 19.72 10.4613 19.3748C10.4613 19.0296 10.1815 18.7498 9.83632 18.7498Z" fill="black"/>
  <path d="M19.0367 13.0493C18.3056 12.3183 17.1162 12.3183 16.3856 13.0488L12.9543 16.4725C12.8814 16.5453 12.8276 16.6348 12.7977 16.7333L12.0504 19.1934C11.9842 19.4116 12.0419 19.6484 12.2011 19.8116C12.3203 19.9338 12.4823 20.0001 12.6485 20.0001C12.7041 20.0001 12.7602 19.9927 12.8153 19.9774L15.3379 19.2786C15.4417 19.2499 15.5364 19.1948 15.6126 19.1187L19.0367 15.701C19.7678 14.9699 19.7678 13.7805 19.0367 13.0493ZM14.8459 18.1179L13.5768 18.4695L13.9482 17.2467L16.2634 14.9366L17.1475 15.8206L14.8459 18.1179ZM18.1533 14.8168L18.0322 14.9376L17.1483 14.0537L17.269 13.9333C17.5127 13.6896 17.9092 13.6896 18.1529 13.9333C18.3965 14.177 18.3965 14.5734 18.1533 14.8168Z" fill="black"/>
  <path d="M14.8046 7.75H8.36718C8.022 7.75 7.74219 8.02981 7.74219 8.37499C7.74219 8.72017 8.022 8.99998 8.36718 8.99998H14.8046C15.1498 8.99998 15.4296 8.72017 15.4296 8.37499C15.4296 8.02981 15.1498 7.75 14.8046 7.75Z" fill="black"/>
</svg>
