<svg width="16" height="16" viewBox="0 0 16 16" fill="none" xmlns="http://www.w3.org/2000/svg">
  <g clip-path="url(#clip0_999:41536)">
    <path d="M13.3121 7.86945L13.7363 7.44523C13.8199 7.36167 13.8863 7.26246 13.9315 7.15326C13.9768 7.04406 14.0001 6.92701 14.0002 6.8088C14.0002 6.69059 13.9769 6.57353 13.9317 6.46431C13.8865 6.35509 13.8202 6.25584 13.7367 6.17223C13.6531 6.08862 13.5539 6.02228 13.4447 5.97702C13.3355 5.93175 13.2185 5.90843 13.1002 5.9084C12.982 5.90837 12.865 5.93162 12.7558 5.97683C12.6465 6.02203 12.5473 6.08831 12.4637 6.17188L11.6 7.03602V5.6L8.00328 2H3.5C3.10218 2 2.72064 2.15804 2.43934 2.43934C2.15804 2.72064 2 3.10218 2 3.5L2 12.5C2 12.8978 2.15804 13.2794 2.43934 13.5607C2.72064 13.842 3.10218 14 3.5 14H10.1C10.4978 14 10.8794 13.842 11.1607 13.5607C11.442 13.2794 11.6 12.8978 11.6 12.5V9.58156L12.8891 8.2925L13.1 8.50461L12.6758 8.92906C12.6473 8.95677 12.6245 8.98987 12.6089 9.02644C12.5933 9.063 12.5851 9.10231 12.5848 9.14208C12.5845 9.18184 12.5921 9.22127 12.6072 9.25806C12.6223 9.29486 12.6445 9.32829 12.6727 9.3564C12.7008 9.38452 12.7342 9.40677 12.771 9.42185C12.8078 9.43694 12.8472 9.44455 12.887 9.44426C12.9267 9.44397 12.9661 9.43578 13.0026 9.42016C13.0392 9.40454 13.0723 9.38181 13.1 9.35328L13.7366 8.71672C13.7928 8.66043 13.8243 8.58414 13.8243 8.50461C13.8243 8.42507 13.7928 8.34879 13.7366 8.2925L13.3121 7.86945ZM9.06992 11.2637C9.01367 11.32 8.93736 11.3516 8.85778 11.3516C8.7782 11.3516 8.70187 11.32 8.64559 11.2638C8.5893 11.2075 8.55767 11.1312 8.55764 11.0516C8.55762 10.9721 8.58921 10.8957 8.64547 10.8395L12.0395 7.44523L12.4637 7.86945L9.06992 11.2637ZM13.3121 6.5968C13.34 6.62464 13.3621 6.6577 13.3772 6.6941C13.3923 6.73049 13.4001 6.76951 13.4001 6.80891C13.4001 6.84831 13.3923 6.88732 13.3772 6.92372C13.3621 6.96011 13.34 6.99317 13.3121 7.02102L13.1438 7.1893L12.8879 7.44523L12.8645 7.4218L12.4639 7.02125L12.8881 6.59703C12.944 6.54092 13.0199 6.50931 13.0991 6.50914C13.1472 6.50917 13.1946 6.52066 13.2373 6.54266C13.2649 6.55672 13.2901 6.57498 13.3121 6.5968ZM7.7 2.6L11 5.9H9.2C8.80218 5.9 8.42064 5.74196 8.13934 5.46066C7.85804 5.17936 7.7 4.79782 7.7 4.4V2.6ZM4.4 6.2H6.20891C6.28847 6.2 6.36478 6.23161 6.42104 6.28787C6.4773 6.34413 6.50891 6.42043 6.50891 6.5C6.50891 6.57957 6.4773 6.65587 6.42104 6.71213C6.36478 6.76839 6.28847 6.8 6.20891 6.8H4.4C4.32044 6.8 4.24413 6.76839 4.18787 6.71213C4.13161 6.65587 4.1 6.57957 4.1 6.5C4.1 6.42043 4.13161 6.34413 4.18787 6.28787C4.24413 6.23161 4.32044 6.2 4.4 6.2ZM4.4 7.4H8.00937C8.04877 7.4 8.08778 7.40776 8.12418 7.42284C8.16058 7.43791 8.19365 7.46001 8.22151 7.48787C8.24936 7.51573 8.27146 7.5488 8.28654 7.5852C8.30162 7.62159 8.30938 7.6606 8.30938 7.7C8.30938 7.7394 8.30162 7.77841 8.28654 7.81481C8.27146 7.8512 8.24936 7.88427 8.22151 7.91213C8.19365 7.93999 8.16058 7.96209 8.12418 7.97716C8.08778 7.99224 8.04877 8 8.00937 8H4.4C4.32044 8 4.24413 7.96839 4.18787 7.91213C4.13161 7.85587 4.1 7.77956 4.1 7.7C4.1 7.62043 4.13161 7.54413 4.18787 7.48787C4.24413 7.43161 4.32044 7.4 4.4 7.4ZM8.18117 12.1391C8.11776 12.1871 8.03787 12.208 7.95907 12.1971C7.88026 12.1863 7.80899 12.1446 7.76094 12.0812C7.51414 11.7556 7.28844 11.5798 7.13609 11.5977C7.05406 11.6075 6.98164 11.6823 6.87031 11.8032C6.72383 11.9626 6.54219 12.1606 6.23609 12.1977C6.20934 12.2009 6.18242 12.2026 6.15547 12.2026C5.84938 12.2026 5.66188 11.9811 5.52266 11.8156C5.41625 11.6898 5.34055 11.6068 5.26484 11.5974C5.11602 11.5782 4.88703 11.7552 4.64 12.0809C4.59192 12.1443 4.52062 12.186 4.44179 12.1969C4.36296 12.2077 4.28305 12.1868 4.21965 12.1387C4.15625 12.0906 4.11454 12.0193 4.1037 11.9405C4.09287 11.8617 4.11379 11.7818 4.16188 11.7184C4.56336 11.1887 4.94773 10.9548 5.33703 11.0019C5.65203 11.0401 5.84187 11.2641 5.98062 11.4277C6.03687 11.4943 6.12969 11.6033 6.16484 11.6019C6.24664 11.592 6.31883 11.5173 6.43016 11.3966C6.57688 11.2372 6.75828 11.0389 7.06484 11.0019C7.41945 10.9583 7.76937 11.1488 8.13172 11.5822C8.14967 11.6066 8.16884 11.63 8.18914 11.6525C8.20625 11.6738 8.22312 11.6956 8.24023 11.7181C8.26407 11.7496 8.28145 11.7855 8.29138 11.8237C8.30131 11.8619 8.3036 11.9018 8.29811 11.9409C8.29263 11.98 8.27947 12.0176 8.2594 12.0516C8.23934 12.0856 8.21275 12.1153 8.18117 12.1391Z" fill="#141F38"/>
  </g>
  <defs>
    <clipPath id="clip0_999:41536">
      <rect width="12" height="12" fill="white" transform="translate(2 2)"/>
    </clipPath>
  </defs>
</svg>
