<svg width="16" height="16" viewBox="0 0 16 16" fill="none" xmlns="http://www.w3.org/2000/svg">
  <path d="M7.65234 16C6.27441 16 5.15234 14.8787 5.15234 13.5C5.15234 13.224 5.37634 13 5.65234 13C5.92834 13 6.15234 13.224 6.15234 13.5C6.15234 14.3274 6.82568 15 7.65234 15C8.479 15 9.15234 14.3274 9.15234 13.5C9.15234 13.224 9.37634 13 9.65234 13C9.92835 13 10.1523 13.224 10.1523 13.5C10.1523 14.8787 9.0304 16 7.65234 16Z" fill="#363740"/>
  <path d="M13.151 14H2.151C1.50769 14 0.984375 13.4767 0.984375 12.8334C0.984375 12.4919 1.13306 12.1687 1.39233 11.9467C1.40906 11.932 1.427 11.9187 1.44568 11.9066C2.42432 11.0526 2.98438 9.82397 2.98438 8.52661V6.66663C2.98438 4.09338 5.07837 2 7.651 2C7.75769 2 7.87305 2.00195 7.97974 2.02002C8.25232 2.06531 8.4364 2.32336 8.39099 2.59534C8.3457 2.86731 8.08301 3.05139 7.81567 3.00598C7.76233 2.99731 7.70374 3 7.651 3C5.62976 3 3.98438 4.64465 3.98438 6.66663V8.52661C3.98438 10.1373 3.27832 11.6614 2.04907 12.7073C2.03906 12.7153 2.0304 12.7227 2.01965 12.73C2.00171 12.7527 1.98438 12.7874 1.98438 12.8334C1.98438 12.924 2.06042 13 2.151 13H13.151C13.2417 13 13.3177 12.924 13.3177 12.8334C13.3177 12.7866 13.3004 12.7527 13.2817 12.73C13.2717 12.7227 13.2631 12.7153 13.2531 12.7073C12.0231 11.6606 11.3177 10.1373 11.3177 8.52661V7.80005C11.3177 7.52405 11.5417 7.30005 11.8177 7.30005C12.0938 7.30005 12.3177 7.52405 12.3177 7.80005V8.52661C12.3177 9.82471 12.8784 11.054 13.8584 11.9087C13.8763 11.9207 13.8937 11.9333 13.9097 11.9474C14.1691 12.1687 14.3177 12.4919 14.3177 12.8334C14.3177 13.4767 13.7944 14 13.151 14Z" fill="#363740"/>
  <path d="M12.3177 6.66663C10.4797 6.66663 8.98438 5.17139 8.98438 3.33337C8.98438 1.49536 10.4797 0 12.3177 0C14.1558 0 15.651 1.49536 15.651 3.33337C15.651 5.17139 14.1558 6.66663 12.3177 6.66663ZM12.3177 1C11.031 1 9.98438 2.04663 9.98438 3.33337C9.98438 4.62 11.031 5.66663 12.3177 5.66663C13.6044 5.66663 14.651 4.62 14.651 3.33337C14.651 2.04663 13.6044 1 12.3177 1Z" fill="#363740"/>
</svg>
