<svg width="440" height="288" viewBox="0 0 440 288" fill="none" xmlns="http://www.w3.org/2000/svg">
<g clip-path="url(#clip0_1_99269)">
<path d="M292.673 263.24L292.125 262.426C292.935 261.879 293.739 261.324 294.538 260.762L295.102 261.565C294.299 262.131 293.489 262.69 292.673 263.24Z" fill="#CCCCCC"/>
<path d="M213.569 287.693L213.562 286.711C215.544 286.697 217.548 286.641 219.518 286.546L219.565 287.527C217.582 287.623 215.564 287.678 213.569 287.693ZM207.57 287.613C205.58 287.545 203.564 287.435 201.581 287.285L201.654 286.306C203.625 286.455 205.626 286.564 207.604 286.631L207.57 287.613ZM225.548 287.113L225.461 286.135C227.428 285.958 229.42 285.737 231.381 285.478L231.509 286.451C229.535 286.712 227.53 286.935 225.548 287.113ZM195.609 286.71C193.628 286.477 191.628 286.2 189.667 285.886L189.822 284.916C191.77 285.228 193.755 285.503 195.723 285.735L195.609 286.71ZM237.437 285.54L237.268 284.573C239.214 284.233 241.181 283.845 243.113 283.423L243.323 284.382C241.377 284.808 239.396 285.198 237.437 285.54ZM183.764 284.813C181.814 284.416 179.845 283.972 177.912 283.493L178.147 282.54C180.067 283.016 182.022 283.456 183.96 283.851L183.764 284.813ZM249.155 282.977L248.905 282.027C250.817 281.524 252.744 280.973 254.633 280.389L254.923 281.327C253.02 281.915 251.08 282.47 249.155 282.977ZM172.106 281.924C170.194 281.363 168.265 280.754 166.374 280.112L166.688 279.182C168.567 279.819 170.482 280.425 172.382 280.982L172.106 281.924ZM260.616 279.436L260.288 278.511C262.151 277.848 264.025 277.137 265.859 276.396L266.225 277.307C264.379 278.052 262.492 278.769 260.616 279.436ZM160.723 278.059C158.862 277.338 156.992 276.568 155.166 275.771L155.558 274.871C157.372 275.663 159.228 276.427 161.077 277.144L160.723 278.059ZM271.741 274.943L271.336 274.049C273.139 273.23 274.947 272.364 276.71 271.473L277.152 272.349C275.377 273.246 273.556 274.119 271.741 274.943ZM149.711 273.251C147.919 272.377 146.121 271.453 144.367 270.505L144.833 269.641C146.575 270.583 148.361 271.501 150.14 272.369L149.711 273.251ZM282.45 269.531L281.972 268.674C283.699 267.708 285.429 266.692 287.112 265.656L287.626 266.493C285.93 267.536 284.189 268.558 282.45 269.531ZM139.144 267.537C137.434 266.517 135.72 265.446 134.051 264.354L134.587 263.532C136.245 264.617 137.947 265.681 139.646 266.693L139.144 267.537ZM129.095 260.961C127.476 259.802 125.857 258.592 124.285 257.365L124.888 256.591C126.45 257.81 128.057 259.011 129.665 260.162L129.095 260.961ZM119.63 253.572C118.11 252.281 116.598 250.941 115.136 249.59L115.801 248.868C117.253 250.21 118.755 251.541 120.264 252.823L119.63 253.572ZM110.812 245.424C109.406 244.012 108.011 242.552 106.665 241.083L107.388 240.419C108.724 241.878 110.11 243.328 111.506 244.731L110.812 245.424ZM102.702 236.575C101.42 235.053 100.151 233.483 98.9301 231.906L99.705 231.304C100.917 232.87 102.178 234.43 103.451 235.941L102.702 236.575ZM95.3557 227.084C94.2029 225.46 93.0688 223.789 91.9852 222.119L92.8074 221.584C93.8837 223.243 95.0099 224.902 96.1549 226.516L95.3557 227.084ZM88.8249 217.018C87.8113 215.304 86.8206 213.545 85.8804 211.791L86.7443 211.327C87.6781 213.069 88.6619 214.815 89.6686 216.518L88.8249 217.018ZM83.1574 206.446C82.2911 204.654 81.4511 202.819 80.6607 200.993L81.5605 200.602C82.3454 202.416 83.1796 204.238 84.0399 206.018L83.1574 206.446ZM78.3954 195.441C77.6815 193.581 76.9977 191.681 76.3633 189.795L77.2924 189.481C77.9227 191.355 78.6016 193.241 79.3106 195.089L78.3954 195.441Z" fill="#CCCCCC"/>
<path d="M74.5549 184.009C74.2811 183.064 74.0167 182.115 73.7617 181.162L74.7088 180.908C74.9619 181.855 75.2245 182.797 75.4965 183.736L74.5549 184.009Z" fill="#CCCCCC"/>
<path d="M354.3 127.837C354.191 126.863 354.073 125.892 353.945 124.924L354.917 124.795C355.046 125.77 355.165 126.748 355.274 127.729L354.3 127.837Z" fill="#CCCCCC"/>
<path d="M341.615 207.011L340.734 206.58C341.577 204.856 342.395 203.092 343.168 201.334L344.065 201.73C343.287 203.5 342.463 205.276 341.615 207.011ZM346.298 196.353L345.385 195.994C346.085 194.208 346.758 192.382 347.384 190.568L348.311 190.889C347.68 192.716 347.003 194.554 346.298 196.353ZM350.1 185.348L349.16 185.065C349.713 183.224 350.235 181.35 350.711 179.493L351.661 179.737C351.181 181.607 350.656 183.494 350.1 185.348ZM352.992 174.068L352.034 173.863C352.434 171.986 352.802 170.075 353.126 168.183L354.092 168.349C353.766 170.254 353.396 172.179 352.992 174.068ZM354.959 162.589L353.987 162.463C354.234 160.562 354.446 158.627 354.617 156.712L355.593 156.799C355.421 158.728 355.208 160.676 354.959 162.589ZM355.994 150.988L355.015 150.94C355.108 149.026 355.164 147.08 355.181 145.157L356.162 145.166C356.144 147.102 356.088 149.061 355.994 150.988ZM355.119 139.371C355.06 137.452 354.961 135.508 354.826 133.596L355.804 133.526C355.94 135.452 356.039 137.408 356.099 139.341L355.119 139.371Z" fill="#CCCCCC"/>
<path d="M337.532 214.757L336.68 214.272C337.161 213.422 337.635 212.567 338.099 211.706L338.962 212.173C338.494 213.04 338.017 213.901 337.532 214.757Z" fill="#CCCCCC"/>
<path d="M83.6742 82.4445L82.7891 82.0221C83.2128 81.132 83.6453 80.2471 84.0866 79.3672L84.9629 79.8078C84.5246 80.6818 84.0951 81.5607 83.6742 82.4445Z" fill="#CCCCCC"/>
<path d="M87.6971 74.6189L86.8398 74.1423C87.7905 72.4271 88.7894 70.7093 89.8088 69.0358L90.6458 69.5473C89.6333 71.2091 88.6413 72.9154 87.6971 74.6189ZM334.815 70.2365C333.814 68.5714 332.762 66.9022 331.691 65.2755L332.509 64.7347C333.588 66.3727 334.647 68.0534 335.655 69.7298L334.815 70.2365ZM93.8005 64.5999L92.9852 64.0548C94.073 62.4237 95.2095 60.7929 96.363 59.2081L97.1553 59.7863C96.0097 61.3606 94.881 62.9802 93.8005 64.6V64.5999ZM328.366 60.4465C327.229 58.8665 326.045 57.2889 324.846 55.7575L325.617 55.1515C326.825 56.6934 328.017 58.2818 329.161 59.8726L328.366 60.4465ZM100.704 55.1149L99.9359 54.5045C101.154 52.9677 102.419 51.4358 103.697 49.9515L104.44 50.593C103.17 52.0671 101.913 53.5884 100.704 55.1149V55.1149ZM321.137 51.216C319.875 49.7329 318.565 48.2569 317.246 46.8294L317.966 46.1624C319.294 47.5998 320.612 49.0856 321.883 50.5788L321.137 51.216ZM108.357 46.2277L107.641 45.5565C108.979 44.1261 110.365 42.7028 111.761 41.3268L112.449 42.0263C111.062 43.3932 109.685 44.8069 108.357 46.2277ZM313.179 42.6053C311.801 41.2317 310.376 39.8674 308.943 38.5504L309.606 37.8269C311.049 39.153 312.484 40.5266 313.871 41.9096L313.179 42.6053ZM116.707 37.9964L116.049 37.2691C117.498 35.9525 118.995 34.6475 120.498 33.3904L121.127 34.1441C119.634 35.3925 118.147 36.6887 116.707 37.9964ZM304.544 34.6719C303.058 33.4146 301.527 32.1712 299.991 30.9761L300.593 30.2009C302.139 31.4041 303.681 32.6561 305.177 33.9221L304.544 34.6719ZM125.699 30.4759L125.102 29.6972C126.653 28.5039 128.252 27.3259 129.852 26.1959L130.417 26.9984C128.827 28.1208 127.24 29.2909 125.699 30.4758V30.4759ZM295.29 27.4695C293.706 26.3378 292.078 25.2238 290.45 24.1585L290.986 23.3365C292.625 24.4092 294.265 25.5306 295.86 26.6703L295.29 27.4695ZM135.273 23.7176L134.741 22.8925C136.385 21.8303 138.074 20.7875 139.761 19.7931L140.258 20.6393C138.583 21.627 136.905 22.6626 135.273 23.7176ZM285.476 21.049C283.807 20.0518 282.092 19.0752 280.38 18.1465L280.847 17.283C282.571 18.2182 284.297 19.2015 285.979 20.2057L285.476 21.049ZM145.365 17.7684L144.903 16.9026C146.63 15.9782 148.398 15.0781 150.159 14.227L150.585 15.1111C148.836 15.9564 147.08 16.8505 145.365 17.7684V17.7684ZM275.168 15.4561C273.415 14.5974 271.626 13.7655 269.848 12.9836L270.242 12.0846C272.032 12.8719 273.834 13.7095 275.598 14.5744L275.168 15.4561ZM155.909 12.6722L155.519 11.7708C157.314 10.9934 159.149 10.2424 160.976 9.53878L161.328 10.4555C159.514 11.154 157.691 11.8998 155.909 12.6722ZM264.43 10.7328C262.618 10.0237 260.765 9.34246 258.924 8.70838L259.242 7.7797C261.097 8.41832 262.963 9.10416 264.787 9.81829L264.43 10.7328ZM166.833 8.46507L166.519 7.53495C168.374 6.90735 170.265 6.31093 172.139 5.7622L172.414 6.70479C170.553 7.24968 168.675 7.84203 166.833 8.46507ZM253.337 6.91383C251.47 6.35672 249.567 5.83125 247.68 5.35228L247.92 4.40059C249.821 4.88291 251.737 5.41173 253.617 5.97268L253.337 6.91383ZM178.063 5.1768L177.827 4.22367C179.726 3.75214 181.659 3.31417 183.572 2.92246L183.768 3.88423C181.869 4.27354 179.949 4.70839 178.063 5.1768ZM241.961 4.02686C240.064 3.62796 238.127 3.26263 236.203 2.94068L236.365 1.9722C238.301 2.29631 240.252 2.66428 242.163 3.06604L241.961 4.02686ZM189.532 2.82681L189.375 1.85738C191.307 1.54382 193.273 1.26646 195.217 1.03298L195.334 2.00768C193.403 2.23974 191.451 2.51541 189.532 2.82681ZM230.406 2.09302C228.481 1.85187 226.52 1.64691 224.578 1.48437L224.66 0.505828C226.615 0.669555 228.589 0.875722 230.528 1.1188L230.406 2.09302ZM201.164 1.42779L201.087 0.448766C203.038 0.295099 205.019 0.179314 206.976 0.104758L207.014 1.08595C205.07 1.16003 203.102 1.27485 201.164 1.4278V1.42779ZM218.731 1.11423C216.789 1.03129 214.818 0.986696 212.873 0.9819L212.875 0C214.834 0.00479658 216.818 0.0496299 218.773 0.133293L218.731 1.11423Z" fill="#CCCCCC"/>
<path d="M339.138 77.9553C338.687 77.0868 338.227 76.2236 337.758 75.3658L338.618 74.8945C339.09 75.7582 339.553 76.6273 340.008 77.5017L339.138 77.9553Z" fill="#CCCCCC"/>
<path d="M181.146 96.2256H172.076V173.059C172.074 175.012 171.299 176.883 169.92 178.264C168.541 179.644 166.672 180.421 164.723 180.424H16.4219V187.051C16.425 189.264 17.3041 191.385 18.8664 192.949C20.4287 194.514 22.5467 195.394 24.7561 195.397H181.146C183.356 195.394 185.474 194.514 187.036 192.949C188.598 191.385 189.477 189.264 189.48 187.051V104.572C189.477 102.359 188.598 100.238 187.036 98.6736C185.474 97.109 183.356 96.2287 181.146 96.2256Z" fill="#F2F2F2"/>
<path d="M164.724 82.2334H8.33426C6.12484 82.2365 4.0068 83.1169 2.4445 84.6814C0.882198 86.2459 0.00312554 88.367 0 90.5795V173.059C0.00312683 175.272 0.882206 177.393 2.44451 178.957C4.00681 180.522 6.12484 181.402 8.33426 181.405H164.724C166.934 181.402 169.052 180.522 170.614 178.957C172.176 177.393 173.055 175.272 173.058 173.059V90.5795C173.055 88.367 172.176 86.2459 170.614 84.6814C169.052 83.1169 166.934 82.2365 164.724 82.2334ZM172.078 173.059C172.076 175.012 171.3 176.883 169.921 178.264C168.543 179.644 166.674 180.421 164.724 180.423H8.33426C6.38465 180.421 4.51557 179.644 3.13699 178.264C1.7584 176.883 0.982873 175.012 0.980501 173.059V90.5795C0.982873 88.6272 1.7584 86.7554 3.13699 85.3749C4.51557 83.9943 6.38465 83.2177 8.33426 83.2153H164.724C166.674 83.2177 168.543 83.9943 169.921 85.3749C171.3 86.7554 172.076 88.6272 172.078 90.5795V173.059Z" fill="#3F3D56"/>
<path d="M152.928 143.111H98.0197C96.9795 143.111 95.9819 142.697 95.2464 141.961C94.5109 141.224 94.0977 140.225 94.0977 139.183C94.0977 138.142 94.5109 137.143 95.2464 136.406C95.9819 135.67 96.9795 135.256 98.0197 135.256H152.928C153.968 135.256 154.965 135.67 155.701 136.406C156.437 137.143 156.85 138.142 156.85 139.183C156.85 140.225 156.437 141.224 155.701 141.961C154.965 142.697 153.968 143.111 152.928 143.111Z" fill="#CCCCCC"/>
<path d="M118.61 126.419H98.0197C96.9795 126.419 95.9819 126.005 95.2464 125.268C94.5109 124.532 94.0977 123.533 94.0977 122.491C94.0977 121.449 94.5109 120.45 95.2464 119.714C95.9819 118.977 96.9795 118.563 98.0197 118.563H118.61C119.65 118.563 120.648 118.977 121.383 119.714C122.119 120.45 122.532 121.449 122.532 122.491C122.532 123.533 122.119 124.532 121.383 125.268C120.648 126.005 119.65 126.419 118.61 126.419Z" fill="#CCCCCC"/>
<path d="M73.2938 162.749H23.2882C22.1834 162.748 21.1242 162.308 20.343 161.526C19.5618 160.743 19.1223 159.683 19.1211 158.576V103.099C19.1223 101.992 19.5618 100.932 20.343 100.149C21.1242 99.3671 22.1834 98.927 23.2882 98.9258H73.2938C74.3986 98.927 75.4578 99.3671 76.239 100.149C77.0202 100.932 77.4597 101.992 77.4609 103.099V158.576C77.4597 159.683 77.0202 160.743 76.239 161.526C75.4578 162.308 74.3986 162.748 73.2938 162.749Z" fill="#003BB3"/>
<path d="M49.0482 151.194C47.9456 151.163 46.5733 151.124 45.5167 150.351C45.202 150.111 44.9434 149.806 44.759 149.455C44.5747 149.105 44.469 148.719 44.4495 148.323C44.4304 148.042 44.4765 147.76 44.5841 147.5C44.6917 147.24 44.858 147.008 45.0699 146.823C45.3849 146.587 45.7537 146.435 46.1427 146.378C46.5317 146.322 46.9285 146.365 47.297 146.502L46.3969 139.914L47.0576 139.823L48.1159 147.568L47.5641 147.314C46.9244 147.02 46.0462 146.871 45.5005 147.333C45.3665 147.453 45.2621 147.603 45.1954 147.771C45.1288 147.939 45.1016 148.12 45.1161 148.299C45.1322 148.594 45.2115 148.881 45.3486 149.142C45.4856 149.403 45.6771 149.632 45.9102 149.812C46.7324 150.413 47.8262 150.491 49.0669 150.526L49.0482 151.194Z" fill="white"/>
<path d="M43.1274 140.482H39.5352V141.15H43.1274V140.482Z" fill="white"/>
<path d="M54.4672 140.482H50.875V141.15H54.4672V140.482Z" fill="white"/>
<path d="M33.2935 131.259C30.4008 130.929 28.1604 128.153 27.9143 125.337C27.6216 121.987 29.57 118.805 32.2429 116.925C35.0383 114.959 38.521 114.138 41.8907 113.957C48.4641 113.629 54.9243 115.762 60.0149 119.939C62.5399 122.039 64.898 124.715 65.7918 127.946C66.568 130.752 65.9363 133.931 63.6826 135.896C63.1251 136.378 62.4739 136.739 61.7702 136.956C61.0665 137.173 60.3256 137.241 59.5941 137.157C57.8453 136.975 56.2318 136.054 54.8351 135.037C52.1183 133.059 49.8879 130.303 46.5779 129.27C44.1509 128.512 41.0014 129.179 39.5182 131.377C39.1817 131.88 38.9636 132.453 38.8804 133.053C38.8498 133.181 38.8688 133.316 38.9337 133.43C38.9985 133.544 39.1044 133.63 39.2298 133.669C39.3577 133.704 39.494 133.686 39.6092 133.621C39.7244 133.555 39.8092 133.447 39.8451 133.319C40.2345 130.551 43.6335 129.518 46.0188 130.15C49.4965 131.072 51.8311 134.18 54.6845 136.154C56.1615 137.257 57.9015 137.953 59.7309 138.171C61.3171 138.296 62.8912 137.812 64.134 136.817C66.5716 134.889 67.5038 131.574 66.9648 128.589C66.3406 125.132 64.0174 122.17 61.4683 119.876C56.3007 115.275 49.5918 112.793 42.6785 112.925C39.1524 113.006 35.4732 113.735 32.4355 115.601C29.4889 117.412 27.2114 120.44 26.9137 123.961C26.6517 127.06 28.3119 130.301 31.1618 131.659C31.8337 131.977 32.5543 132.181 33.2935 132.261C33.9321 132.334 33.9269 131.332 33.2935 131.259Z" fill="white"/>
<path d="M430.687 226.327H422.813V252.014C422.81 254.226 421.931 256.347 420.369 257.912C418.807 259.476 416.688 260.357 414.479 260.36H217.918V264.13C217.92 266.604 218.902 268.975 220.649 270.724C222.395 272.473 224.763 273.456 227.233 273.458H430.687C433.157 273.456 435.524 272.473 437.271 270.724C439.017 268.975 439.999 266.604 440.002 264.13V235.655C439.999 233.182 439.017 230.811 437.271 229.062C435.524 227.313 433.157 226.329 430.687 226.327Z" fill="#F2F2F2"/>
<path d="M414.476 214.211H211.022C208.552 214.213 206.184 215.197 204.438 216.946C202.691 218.694 201.709 221.066 201.707 223.539V252.014C201.709 254.487 202.691 256.859 204.438 258.608C206.184 260.356 208.552 261.34 211.022 261.342H414.476C416.946 261.34 419.314 260.356 421.06 258.608C422.806 256.859 423.788 254.487 423.791 252.014V223.539C423.788 221.066 422.806 218.694 421.06 216.946C419.314 215.197 416.946 214.213 414.476 214.211ZM422.81 252.014C422.807 254.227 421.928 256.348 420.366 257.912C418.803 259.477 416.685 260.357 414.476 260.36H211.022C208.812 260.357 206.694 259.477 205.132 257.912C203.57 256.348 202.691 254.227 202.688 252.014V223.539C202.691 221.326 203.57 219.205 205.132 217.641C206.694 216.076 208.812 215.196 211.022 215.193H414.476C416.685 215.196 418.803 216.076 420.366 217.641C421.928 219.205 422.807 221.326 422.81 223.539V252.014Z" fill="#3F3D56"/>
<path d="M246.731 222.067C243.628 222.067 240.595 222.989 238.015 224.715C235.435 226.441 233.425 228.895 232.237 231.766C231.05 234.636 230.739 237.795 231.344 240.843C231.95 243.89 233.444 246.69 235.638 248.887C237.832 251.084 240.627 252.58 243.67 253.186C246.714 253.792 249.868 253.481 252.735 252.292C255.601 251.103 258.051 249.09 259.775 246.506C261.499 243.922 262.419 240.885 262.419 237.778C262.414 233.613 260.76 229.619 257.819 226.674C254.878 223.729 250.89 222.072 246.731 222.067Z" fill="#003BB3"/>
<path d="M390.537 251.033H278.27C277.229 251.033 276.232 250.619 275.496 249.883C274.761 249.146 274.348 248.147 274.348 247.105C274.348 246.064 274.761 245.065 275.496 244.328C276.232 243.592 277.229 243.178 278.27 243.178H390.537C391.577 243.178 392.575 243.592 393.31 244.328C394.046 245.065 394.459 246.064 394.459 247.105C394.459 248.147 394.046 249.146 393.31 249.883C392.575 250.619 391.577 251.033 390.537 251.033Z" fill="#CCCCCC"/>
<path d="M334.158 234.341H278.27C277.229 234.341 276.232 233.927 275.496 233.19C274.761 232.454 274.348 231.455 274.348 230.413C274.348 229.371 274.761 228.372 275.496 227.636C276.232 226.899 277.229 226.485 278.27 226.485H334.158C335.198 226.485 336.196 226.899 336.932 227.636C337.667 228.372 338.08 229.371 338.08 230.413C338.08 231.455 337.667 232.454 336.932 233.19C336.196 233.927 335.198 234.341 334.158 234.341Z" fill="#CCCCCC"/>
<path d="M245.667 244.648C245.261 244.648 244.867 244.517 244.543 244.274L244.522 244.258L240.288 241.014C239.892 240.71 239.632 240.261 239.567 239.766C239.502 239.27 239.636 238.769 239.939 238.372C240.243 237.975 240.691 237.716 241.186 237.65C241.681 237.585 242.182 237.719 242.578 238.023L245.321 240.13L251.802 231.661C251.952 231.465 252.14 231.3 252.354 231.177C252.568 231.053 252.804 230.972 253.049 230.94C253.294 230.908 253.542 230.924 253.781 230.988C254.02 231.052 254.243 231.162 254.44 231.313L254.44 231.313L254.4 231.369L254.441 231.313C254.837 231.617 255.095 232.067 255.161 232.562C255.226 233.057 255.092 233.558 254.789 233.955L247.165 243.911C246.989 244.14 246.762 244.326 246.503 244.453C246.243 244.58 245.958 244.646 245.668 244.646L245.667 244.648Z" fill="white"/>
<path d="M401.761 86.4062H400.722C400.742 86.6174 400.751 86.8334 400.751 87.0543V115.529C400.748 117.742 399.869 119.863 398.307 121.428C396.745 122.992 394.627 123.872 392.417 123.876H294.887V124.209C294.887 124.425 294.897 124.641 294.911 124.857C295.075 127.213 296.125 129.419 297.85 131.029C299.574 132.64 301.844 133.536 304.201 133.537H401.761C404.231 133.535 406.599 132.552 408.345 130.803C410.092 129.054 411.074 126.683 411.076 124.209V95.7343C411.074 93.261 410.092 90.8897 408.345 89.1408C406.599 87.392 404.231 86.4085 401.761 86.4062Z" fill="#F2F2F2"/>
<path d="M401.708 86.4066C401.544 84.051 400.494 81.8454 398.77 80.2346C397.045 78.6237 394.776 77.7275 392.418 77.7266H294.858C292.388 77.7288 290.02 78.7123 288.274 80.4612C286.527 82.21 285.545 84.5813 285.543 87.0546V115.53C285.545 118.003 286.527 120.374 288.274 122.123C290.02 123.872 292.388 124.855 294.858 124.858H392.418C394.887 124.855 397.255 123.872 399.002 122.123C400.748 120.374 401.73 118.003 401.732 115.53V87.0546C401.732 86.8386 401.723 86.6226 401.708 86.4066ZM400.752 115.53C400.749 117.742 399.87 119.863 398.307 121.428C396.745 122.992 394.627 123.873 392.418 123.876H294.858C292.648 123.873 290.53 122.992 288.968 121.428C287.406 119.863 286.527 117.742 286.523 115.53V87.0546C286.527 84.842 287.406 82.721 288.968 81.1564C290.53 79.5919 292.648 78.7116 294.858 78.7085H392.418C394.515 78.7114 396.534 79.5052 398.073 80.9317C399.612 82.3583 400.558 84.313 400.722 86.4066C400.742 86.6177 400.752 86.8337 400.752 87.0546V115.53Z" fill="#3F3D56"/>
<path d="M367.658 113.567H319.613C318.573 113.567 317.576 113.153 316.84 112.417C316.105 111.68 315.691 110.681 315.691 109.64C315.691 108.598 316.105 107.599 316.84 106.862C317.576 106.126 318.573 105.712 319.613 105.712H367.658C368.698 105.712 369.696 106.126 370.431 106.862C371.167 107.599 371.58 108.598 371.58 109.64C371.58 110.681 371.167 111.68 370.431 112.417C369.696 113.153 368.698 113.567 367.658 113.567Z" fill="#CCCCCC"/>
<path d="M352.95 96.8747H319.613C318.573 96.8747 317.576 96.4609 316.84 95.7244C316.105 94.9878 315.691 93.9888 315.691 92.9471C315.691 91.9055 316.105 90.9065 316.84 90.1699C317.576 89.4333 318.573 89.0195 319.613 89.0195H352.95C353.991 89.0195 354.988 89.4333 355.724 90.1699C356.459 90.9065 356.872 91.9055 356.872 92.9471C356.872 93.9888 356.459 94.9878 355.724 95.7244C354.988 96.4609 353.991 96.8747 352.95 96.8747Z" fill="#CCCCCC"/>
</g>
<defs>
<clipPath id="clip0_1_99269">
<rect width="440" height="287.692" fill="white"/>
</clipPath>
</defs>
</svg>
