<svg width="16" height="16" viewBox="0 0 16 16" fill="none" xmlns="http://www.w3.org/2000/svg">
  <path d="M14.1026 13.6489H2.68621C1.94547 13.6489 1.3431 13.0465 1.3431 12.3058C1.3431 11.5651 1.9455 10.9627 2.68621 10.9627H4.02931C4.39999 10.9627 4.70086 10.6619 4.70086 10.2912C4.70086 9.9205 4.39999 9.61963 4.02931 9.61963H2.68621C1.20476 9.61963 0 10.8244 0 12.3058C0 13.7873 1.20476 14.992 2.68621 14.992H14.1026C14.4733 14.992 14.7742 14.6912 14.7742 14.3205C14.7742 13.9498 14.4733 13.6489 14.1026 13.6489Z" fill="#363740"/>
  <path d="M15.2486 1.75877C14.2467 0.758164 12.6161 0.75682 11.6122 1.75877L10.5847 2.78626C10.5719 2.79701 10.5565 2.80104 10.5444 2.81313C10.5323 2.82523 10.5283 2.84066 10.5175 2.85341L7.0718 6.29914C6.40831 6.96397 6.04297 7.84774 6.04297 8.78726V10.2915C6.04297 10.6622 6.34384 10.9631 6.71452 10.9631H8.21881C9.15833 10.9631 10.0421 10.5978 10.7083 9.93361L15.248 5.3939C16.2492 4.39195 16.2492 2.76073 15.2486 1.75877ZM9.75935 8.98335C9.3477 9.39365 8.80036 9.61999 8.21881 9.61999H7.38607V8.78726C7.38607 8.2057 7.61238 7.65837 8.02203 7.24737L11.0259 4.24352L12.7625 5.98014L9.75935 8.98335ZM14.2984 4.44432L13.7121 5.0306L11.9755 3.29397L12.5611 2.70838C13.0399 2.23023 13.8195 2.23092 14.2977 2.70838C14.7759 3.18719 14.7759 3.96618 14.2984 4.44432Z" fill="#363740"/>
</svg>
