<svg width="24" height="24" viewBox="0 0 24 24" fill="none" xmlns="http://www.w3.org/2000/svg">
  <path d="M5.29575 19.3594C5.0494 19.3589 4.81456 19.2551 4.64852 19.0731C4.47942 18.8926 4.39539 18.6485 4.41756 18.4021L4.63271 16.0363L14.5721 6.10046L17.6782 9.20574L7.74151 19.1407L5.37566 19.3559C5.34844 19.3585 5.32121 19.3594 5.29575 19.3594ZM18.2982 8.58486L15.1929 5.47958L17.0556 3.61694C17.2203 3.45203 17.4438 3.35938 17.6769 3.35938C17.91 3.35938 18.1335 3.45203 18.2982 3.61694L20.1609 5.47958C20.3258 5.6443 20.4184 5.86782 20.4184 6.1009C20.4184 6.33398 20.3258 6.5575 20.1609 6.72222L18.2991 8.58398L18.2982 8.58486Z" fill="#363740"/>
</svg>
