<svg width="24" height="24" viewBox="0 0 24 24" fill="none" xmlns="http://www.w3.org/2000/svg">
  <path d="M17.7737 5.09887C16.9673 4.29386 15.6614 4.29386 14.855 5.09887L14.1243 5.83351L6.34682 13.6069L6.3303 13.6235C6.32629 13.6275 6.32629 13.6318 6.32203 13.6318C6.31377 13.6442 6.30137 13.6565 6.29323 13.6689C6.29323 13.673 6.28897 13.673 6.28897 13.6771C6.28071 13.6895 6.27671 13.6978 6.26831 13.7102C6.26431 13.7143 6.26431 13.7183 6.26018 13.7226C6.25604 13.735 6.25191 13.7432 6.24765 13.7556C6.24765 13.7596 6.24365 13.7596 6.24365 13.7639L4.51805 18.953C4.46743 19.1007 4.50592 19.2643 4.6171 19.3739C4.69522 19.451 4.80059 19.4942 4.91023 19.4938C4.95504 19.493 4.99946 19.486 5.04233 19.4731L10.2274 17.7434C10.2314 17.7434 10.2314 17.7434 10.2356 17.7394C10.2487 17.7355 10.2612 17.7299 10.2727 17.7227C10.2759 17.7223 10.2788 17.7209 10.2811 17.7187C10.2934 17.7104 10.3099 17.7021 10.3223 17.6938C10.3346 17.6857 10.3471 17.6733 10.3595 17.665C10.3636 17.6607 10.3676 17.6607 10.3676 17.6567C10.3719 17.6526 10.3801 17.6486 10.3843 17.6402L18.8924 9.13206C19.6974 8.32563 19.6974 7.01972 18.8924 6.21342L17.7737 5.09887ZM10.0953 16.7732L7.22208 13.9001L14.4133 6.7089L17.2865 9.58196L10.0953 16.7732ZM6.81738 14.6638L9.32745 17.1738L5.55834 18.4287L6.81738 14.6638ZM18.3104 8.55407L17.8728 8.99583L14.9995 6.12251L15.4413 5.68087C15.9247 5.19792 16.7081 5.19792 17.1916 5.68087L18.3144 6.80368C18.7941 7.28922 18.7923 8.07085 18.3104 8.55407Z" fill="black"/>
</svg>
