<svg width="26" height="27" viewBox="0 0 26 27" fill="none" xmlns="http://www.w3.org/2000/svg">
<path opacity="0.3" d="M12.7895 0C11.3842 0 10.0105 0.416716 8.842 1.19745C7.67355 1.97819 6.76285 3.08788 6.22507 4.3862C5.68729 5.68451 5.54658 7.11314 5.82074 8.49143C6.09489 9.86972 6.7716 11.1358 7.76529 12.1294C8.75898 13.1231 10.025 13.7998 11.4033 14.074C12.7816 14.3482 14.2102 14.2075 15.5085 13.6697C16.8069 13.1319 17.9165 12.2212 18.6973 11.0527C19.478 9.88428 19.8947 8.51055 19.8947 7.10526C19.8947 5.22083 19.1461 3.41358 17.8137 2.08108C16.4812 0.748588 14.6739 0 12.7895 0ZM12.7895 11.3684C11.9463 11.3684 11.1221 11.1184 10.421 10.6499C9.71992 10.1815 9.1735 9.51569 8.85083 8.7367C8.52816 7.95771 8.44374 7.10053 8.60823 6.27356C8.77273 5.44659 9.17875 4.68697 9.77497 4.09076C10.3712 3.49454 11.1308 3.08852 11.9578 2.92402C12.7847 2.75953 13.6419 2.84395 14.4209 3.16662C15.1999 3.48929 15.8657 4.03571 16.3342 4.73678C16.8026 5.43785 17.0526 6.26209 17.0526 7.10526C17.0526 8.23592 16.6035 9.32027 15.804 10.1198C15.0045 10.9193 13.9201 11.3684 12.7895 11.3684ZM25.5789 27V25.5789C25.5789 22.9407 24.5309 20.4106 22.6654 18.5451C20.7999 16.6796 18.2698 15.6316 15.6316 15.6316H9.94737C7.30916 15.6316 4.77901 16.6796 2.91352 18.5451C1.04802 20.4106 0 22.9407 0 25.5789V27H2.84211V25.5789C2.84211 23.6945 3.59069 21.8873 4.92319 20.5548C6.25568 19.2223 8.06293 18.4737 9.94737 18.4737H15.6316C17.516 18.4737 19.3233 19.2223 20.6558 20.5548C21.9883 21.8873 22.7368 23.6945 22.7368 25.5789V27H25.5789Z" fill="white"/>
</svg>
