<svg width="24" height="24" viewBox="0 0 24 24" fill="none" xmlns="http://www.w3.org/2000/svg">
  <path d="M16.9751 7.0791L15.955 18.7036H8.4763L7.45641 7.0791L6.16406 7.19239L7.20259 19.0277C7.25724 19.5732 7.73057 20.0009 8.28042 20.0009H16.1509C16.7005 20.0009 17.174 19.5734 17.2296 19.0199L18.2675 7.19239L16.9751 7.0791Z" fill="black"/>
  <path d="M14.5958 4H9.83893C9.24279 4 8.75781 4.48498 8.75781 5.08112V7.13523H10.0551V5.29731H14.3795V7.1352H15.6768V5.08109C15.6769 4.48498 15.1919 4 14.5958 4Z" fill="black"/>
  <path d="M19.1352 6.4873H5.29711C4.93882 6.4873 4.64844 6.77769 4.64844 7.13598C4.64844 7.49427 4.93882 7.78465 5.29711 7.78465H19.1353C19.4936 7.78465 19.7839 7.49427 19.7839 7.13598C19.7839 6.77769 19.4935 6.4873 19.1352 6.4873Z" fill="black"/>
</svg>
