<svg width="116" height="127" viewBox="0 0 116 127" fill="none" xmlns="http://www.w3.org/2000/svg">
<path d="M115.995 29.6249C116.088 27.8591 114.737 26.3357 112.972 26.2203L106.59 25.7933C106.532 25.7818 106.463 25.7818 106.405 25.7818L106.082 25.7587L40.6228 22.0772C38.7994 21.9733 37.2414 23.3698 37.1491 25.1817L32.4058 109.741C32.302 111.564 33.6984 113.122 35.5103 113.214L101.293 116.907C103.116 117.011 104.674 115.615 104.766 113.803L107.778 60.1847L111.114 60.3925C112.914 60.5079 114.46 59.123 114.564 57.3226L115.995 29.6249Z" fill="#003BB3"/>
<g opacity="0.46">
<path opacity="0.46" d="M40.59 23.1035C39.9552 23.0689 39.3436 23.2189 38.8242 23.5075L44.4561 23.3228L40.59 23.1035Z" fill="#A6702A"/>
<path opacity="0.46" d="M75.3625 112.787L99.8288 113.895L103.764 25.6195L44.4564 23.3345L38.8245 23.5191C37.8551 24.05 37.1742 25.054 37.1165 26.2312L34.439 73.9637L32.7656 110.871L75.3625 112.787Z" fill="#A6702A"/>
<path opacity="0.56" d="M75.3625 112.787L99.8288 113.895L103.764 25.6195L44.4564 23.3345L38.8245 23.5191C37.8551 24.05 37.1742 25.054 37.1165 26.2312L34.439 73.9637L32.7656 110.871L75.3625 112.787Z" fill="#A6702A"/>
</g>
<g opacity="0.46">
<path opacity="0.46" d="M37.4145 25.251L30.2246 25.5972L33.5368 93.8722L37.3683 25.6203C37.3799 25.4933 37.3914 25.3664 37.4145 25.251Z" fill="#A6702A"/>
<path opacity="0.46" d="M97.4382 25.6895L65.3088 23.8892L37.4148 25.2394C37.3917 25.3664 37.3802 25.4933 37.3686 25.6203L33.5371 93.8722L34.4834 113.341C34.8643 113.526 35.2798 113.641 35.7298 113.665L56.4339 114.83L101.662 112.637L97.4382 25.6895Z" fill="#A6702A"/>
</g>
<path d="M96.1945 21.2744L29.1426 24.5327L33.5302 114.823L100.582 111.564L96.1945 21.2744Z" fill="white"/>
<g opacity="0.69">
<path opacity="0.69" d="M29.1519 24.5347L32.7987 99.5841L36.2032 24.1885L29.1519 24.5347Z" fill="#939598"/>
<path opacity="0.7" d="M96.2844 23.0231L77.5884 22.1807L36.2033 24.1888L32.7988 99.5844L33.3297 110.675L77.7385 112.683L99.4466 111.633L100.001 99.4805L96.2844 23.0231Z" fill="#939598"/>
</g>
<path d="M102.746 22.5393L95.3831 22.2046L98.2452 110.976L74.1943 111.749L98.6607 112.857L102.746 22.5393Z" fill="white"/>
<path d="M95.3833 22.205L74.7831 21.2817L35.5446 22.5397L31.5977 109.822L74.1945 111.75L98.2454 110.976L95.3833 22.205Z" fill="white"/>
<path opacity="0.46" d="M95.3833 22.205L74.7831 21.2817L35.5446 22.5397L31.5977 109.822L74.1945 111.75L98.2454 110.976L95.3833 22.205Z" fill="#939598"/>
<path d="M94.5398 19.9261L27.4409 22.0835L30.346 112.437L97.4449 110.279L94.5398 19.9261Z" fill="white"/>
<path d="M89.1876 33.2149L33.7459 34.9921C33.2843 35.0037 32.9034 34.6459 32.8919 34.1958V34.1843C32.8803 33.7227 33.2381 33.3418 33.6882 33.3303L89.1299 31.553C89.5915 31.5415 89.9724 31.8992 89.9839 32.3493V32.3609C90.007 32.8225 89.6492 33.2033 89.1876 33.2149Z" fill="#D1D3D4"/>
<path d="M62.7814 37.773L33.8719 38.7078C33.4102 38.7193 33.0294 38.3616 33.0178 37.9115V37.8999C33.0063 37.4383 33.3641 37.0575 33.8142 37.0459L62.7237 36.1111C63.1853 36.0996 63.5662 36.4573 63.5777 36.9074V36.919C63.6008 37.3806 63.2315 37.7614 62.7814 37.773Z" fill="#D1D3D4"/>
<path d="M79.8736 40.8194L33.9876 42.2966C33.526 42.3081 33.1451 41.9504 33.1336 41.5003V41.4887C33.122 41.0271 33.4798 40.6463 33.9299 40.6347L79.8159 39.1575C80.2775 39.146 80.6583 39.5037 80.6699 39.9538V39.9653C80.693 40.4154 80.3352 40.7963 79.8736 40.8194Z" fill="#D1D3D4"/>
<path d="M89.5455 44.0868L34.1038 45.864C33.6422 45.8756 33.2613 45.5178 33.2498 45.0677V45.0446C33.2382 44.583 33.596 44.2022 34.0461 44.1906L89.4878 42.4134C89.9494 42.4018 90.3303 42.7596 90.3418 43.2097V43.2328C90.3534 43.6828 89.9956 44.0752 89.5455 44.0868Z" fill="#D1D3D4"/>
<path d="M89.6612 47.8021L34.2195 49.5794C33.7579 49.5909 33.377 49.2331 33.3655 48.7831V48.76C33.354 48.2983 33.7117 47.9175 34.1618 47.906L89.6035 46.1287C90.0651 46.1171 90.446 46.4749 90.4575 46.925V46.9481C90.4806 47.4097 90.1229 47.7906 89.6612 47.8021Z" fill="#D1D3D4"/>
<path d="M89.7776 51.4027L34.3474 53.18C33.8858 53.1915 33.505 52.8337 33.4934 52.3721V52.3606C33.4819 51.8989 33.8397 51.5181 34.3013 51.5065L89.7314 49.7293C90.1931 49.7177 90.5739 50.0755 90.5855 50.5371V50.5487C90.597 51.0103 90.2277 51.3911 89.7776 51.4027Z" fill="#D1D3D4"/>
<path d="M71.3454 55.6969L34.4612 56.8856C33.9996 56.8972 33.6187 56.5394 33.6072 56.0778V56.0662C33.5957 55.6046 33.9534 55.2238 34.4151 55.2122L71.2877 54.012C71.7493 54.0004 72.1302 54.3582 72.1417 54.8198V54.8314C72.1648 55.293 71.807 55.6739 71.3454 55.6969Z" fill="#D1D3D4"/>
<path d="M90.1101 62.124L34.68 63.9013C34.2183 63.9128 33.8375 63.5551 33.826 63.0934V63.0588C33.8144 62.5972 34.1722 62.2163 34.6338 62.2048L90.064 60.4275C90.5256 60.416 90.9064 60.7737 90.918 61.2354V61.27C90.9411 61.7201 90.5718 62.1009 90.1101 62.124Z" fill="#D1D3D4"/>
<path d="M90.2366 65.8755L34.8064 67.6527C34.3448 67.6643 33.964 67.3065 33.9524 66.8449V66.8103C33.9409 66.3486 34.2986 65.9678 34.7603 65.9563L90.1904 64.179C90.6521 64.1674 91.0329 64.5252 91.0444 64.9868V65.0215C91.056 65.4716 90.6982 65.8639 90.2366 65.8755Z" fill="#D1D3D4"/>
<path d="M51.2304 82.9551L35.0849 83.4744C34.7156 83.486 34.404 83.1975 34.3924 82.8281V82.8166C34.3809 82.4473 34.6694 82.1357 35.0387 82.1242L51.1842 81.6048C51.5535 81.5933 51.8651 81.8818 51.8766 82.2511V82.2627C51.8882 82.632 51.5997 82.932 51.2304 82.9551Z" fill="#D1D3D4"/>
<path d="M49.1299 86.0015L35.1772 86.4516C34.8079 86.4631 34.4963 86.1746 34.4847 85.8053V85.7937C34.4732 85.4244 34.7617 85.1128 35.131 85.1013L49.0837 84.6512C49.453 84.6397 49.7646 84.9282 49.7762 85.2975V85.309C49.7877 85.6783 49.4992 85.9899 49.1299 86.0015Z" fill="#D1D3D4"/>
<path d="M90.643 81.6861L74.4975 82.2054C74.1282 82.2169 73.8166 81.9284 73.805 81.5591V81.5476C73.7935 81.1783 74.082 80.8667 74.4513 80.8551L90.5968 80.3358C90.9661 80.3242 91.2777 80.6128 91.2892 80.9821V80.9936C91.3008 81.3629 91.0123 81.6745 90.643 81.6861Z" fill="#D1D3D4"/>
<path d="M85.0206 84.8482L74.5878 85.1828C74.2185 85.1944 73.9069 84.9059 73.8954 84.5366V84.525C73.8838 84.1557 74.1723 83.8441 74.5416 83.8326L84.9745 83.4979C85.3438 83.4864 85.6554 83.7749 85.6669 84.1442V84.1557C85.6784 84.525 85.3899 84.8366 85.0206 84.8482Z" fill="#D1D3D4"/>
<path d="M71.1159 70.122L34.9241 71.2877C34.4625 71.2992 34.0816 70.9414 34.0701 70.4798V70.4452C34.0586 69.9836 34.4163 69.6027 34.8779 69.5912L71.0697 68.4256C71.5313 68.414 71.9122 68.7718 71.9237 69.2334V69.268C71.9353 69.7181 71.5775 70.1105 71.1159 70.122Z" fill="#D1D3D4"/>
<path d="M90.0071 58.8128L34.5769 60.5901C34.1153 60.6017 33.7345 60.2439 33.7229 59.7823V59.7707C33.7114 59.3091 34.0691 58.9282 34.5308 58.9167L89.9609 57.1394C90.4226 57.1279 90.8034 57.4857 90.815 57.9473V57.9588C90.8265 58.4205 90.4687 58.8013 90.0071 58.8128Z" fill="#D1D3D4"/>
<path d="M86.2825 92.0352C86.2705 92.0352 86.2586 92.0471 86.2466 92.0471C86.2586 92.0471 86.2825 92.0352 86.2945 92.0352C86.2825 92.0352 86.2825 92.0352 86.2825 92.0352Z" fill="#5688C7"/>
<path d="M88.4503 92.0351C88.0233 91.158 86.2229 91.1234 85.4035 91.158C83.7186 91.2388 82.0452 91.6658 80.441 92.0813C80.3025 92.0236 80.141 92.0467 80.0025 92.1852C79.9563 92.2082 79.8986 92.2429 79.8524 92.2659C79.8294 92.2313 79.8063 92.2082 79.7717 92.1967C79.6678 92.0351 79.4831 91.9197 79.2869 92.0005C79.0446 92.1044 78.8369 92.1967 78.6407 92.3583C78.583 92.4044 78.5022 92.4968 78.4214 92.5891C78.4791 92.3929 78.6407 91.8505 78.6868 91.6543C78.7791 91.2965 77.8905 91.2388 77.7866 91.5273C77.752 91.6312 77.5674 92.0928 77.4981 92.2775C77.4635 92.3583 77.4404 92.4391 77.4058 92.5198C77.3481 92.6353 77.2904 92.7391 77.2327 92.8314C77.2211 92.5891 77.1981 92.3467 77.1173 92.1044C77.1057 92.0698 77.0827 92.0351 77.0596 92.0005C76.9903 91.7582 76.8518 91.6658 76.6672 91.712C76.621 91.7235 76.5633 91.7697 76.5172 91.8274C76.6326 91.0311 76.7134 90.2463 76.5518 89.4154C76.5402 89.3808 76.5287 89.3461 76.5172 89.3231C76.5402 89.1153 76.5633 88.9422 76.5749 88.8153C76.5749 88.8037 76.5864 88.8037 76.5864 88.7922C76.6441 88.6883 76.6095 88.5498 76.5056 88.4921C76.3787 88.4113 76.2402 88.446 76.1825 88.6075C76.0786 88.8499 74.9476 90.3271 73.8974 91.562C73.5858 91.9197 73.2973 92.2544 73.0319 92.5314C72.928 92.6237 72.8357 92.716 72.7318 92.8199C72.7203 92.8314 72.7087 92.8545 72.6972 92.8661C72.5125 93.0392 72.374 93.1546 72.2933 93.1777C72.1778 93.2123 72.1086 93.3392 72.1432 93.4546C72.1778 93.57 72.3048 93.6393 72.4202 93.6047C72.6049 93.547 72.801 93.5123 73.0088 93.5354C73.1242 93.547 73.2511 93.5124 73.355 93.4085C73.9205 92.8199 74.5552 92.3237 75.1323 91.7466C75.3862 91.4927 75.5939 91.2157 75.7786 90.9157C75.7324 91.585 75.5824 92.2659 75.5131 92.9238C75.5016 93.0738 75.49 93.2354 75.4785 93.3854C75.3862 94.0432 75.3054 94.6664 75.2361 95.2088C75.19 95.4166 75.1438 95.6243 75.1323 95.8436C75.1323 95.9013 75.1438 95.9474 75.1669 95.9936C75.1784 96.0398 75.2015 96.0744 75.2361 96.0975C75.3977 96.2706 75.7209 96.3283 75.8824 96.1206C76.2633 95.6243 76.3325 95.0473 76.4941 94.4587C76.5402 94.3087 76.5864 94.1586 76.621 94.0201C76.7364 94.1009 76.8865 94.1355 77.0019 94.0894C77.2096 93.9971 77.3827 93.8817 77.5327 93.7316C77.6135 93.8239 77.7289 93.8701 77.8559 93.8817C78.306 93.8817 78.5945 93.5931 78.8946 93.2931C78.9292 93.3277 78.9753 93.3508 79.0446 93.3508C79.0792 93.3508 79.1138 93.3508 79.1369 93.3508C79.4139 93.3392 80.2448 93.2815 80.4064 92.9584C80.441 92.9584 80.4756 92.9584 80.5103 92.9469C81.722 92.6353 82.9338 92.3583 84.1918 92.1621C84.8611 92.0582 85.5766 91.9428 86.246 92.0351C86.3614 92.0005 86.4999 91.9543 86.2575 92.0351C86.0614 92.0928 86.1191 92.0698 86.2114 92.0467C85.0342 92.2775 82.3799 93.0507 81.2142 93.4546C80.6834 93.6393 80.1525 93.8355 79.6332 94.0548C78.6753 94.4471 78.9061 94.274 78.1444 94.7472C78.0175 94.828 77.9136 94.9434 77.9598 95.2204C77.9713 95.5781 78.2829 95.6935 78.6753 95.5204C80.868 94.5164 79.6216 95.0703 81.6297 94.251C82.7261 93.8009 83.9725 93.4893 85.1035 93.143C85.6459 92.9815 86.1306 92.8776 86.6846 92.8084C87.3655 92.7276 87.6886 92.7853 88.1848 92.693C88.508 92.6237 88.5542 92.2659 88.4503 92.0351Z" fill="#5688C7"/>
<path d="M48.909 91.5202C48.7128 91.2778 48.4936 91.1163 48.2974 91.047C48.2281 90.8624 48.055 90.6431 47.8011 90.4585C47.5472 90.2738 47.2933 90.1699 47.0856 90.1699C46.9702 90.0084 46.7394 89.8353 46.4509 89.7314C46.1623 89.616 45.8854 89.5929 45.6892 89.6275C45.5391 89.5006 45.2737 89.3967 44.9621 89.3621C44.6505 89.3275 44.3735 89.3736 44.2004 89.466C44.0158 89.3852 43.7388 89.3505 43.4387 89.3967C43.1387 89.4429 42.8732 89.5583 42.7232 89.6968C42.527 89.6621 42.25 89.7083 41.9615 89.8353C41.6845 89.9622 41.4537 90.1353 41.3498 90.3084C41.1537 90.32 40.8882 90.4354 40.6574 90.6316C40.415 90.8278 40.2535 91.047 40.1842 91.2432C39.9996 91.3125 39.7803 91.4856 39.5957 91.7395C39.411 91.9934 39.3071 92.2473 39.3071 92.455C39.1456 92.5704 38.9725 92.8012 38.8686 93.0897C38.7532 93.3783 38.7301 93.6552 38.7647 93.8514C38.6378 94.0015 38.5339 94.2669 38.4993 94.5785C38.4647 94.8901 38.5108 95.1671 38.6032 95.3402C38.5224 95.5248 38.4877 95.8018 38.5339 96.1019C38.5801 96.4019 38.6955 96.6674 38.834 96.8174C38.7993 97.0136 38.8455 97.2906 38.9725 97.5791C39.0994 97.8561 39.2725 98.0869 39.4456 98.1907C39.4572 98.3869 39.5726 98.6524 39.7688 98.8832C39.965 99.1255 40.1842 99.2871 40.3804 99.3564C40.4497 99.541 40.6228 99.7603 40.8767 99.9449C41.1306 100.13 41.3845 100.233 41.5922 100.233C41.7076 100.395 41.9384 100.568 42.2269 100.672C42.5155 100.787 42.7924 100.81 42.9886 100.776C43.1387 100.903 43.4041 101.007 43.7157 101.041C44.0273 101.076 44.3043 101.03 44.4774 100.937C44.662 101.018 44.939 101.053 45.2391 101.007C45.5391 100.961 45.8046 100.845 45.9546 100.707C46.1508 100.741 46.4278 100.695 46.7163 100.568C46.9933 100.441 47.2241 100.268 47.328 100.095C47.5241 100.083 47.7896 99.968 48.0204 99.7718C48.2628 99.5756 48.4243 99.3564 48.4936 99.1602C48.6782 99.0909 48.8975 98.9178 49.0821 98.6639C49.2668 98.41 49.3707 98.1561 49.3707 97.9484C49.5322 97.833 49.7053 97.6022 49.8092 97.3137C49.9246 97.0251 49.9477 96.7482 49.9131 96.552C50.04 96.4019 50.1439 96.1365 50.1785 95.8249C50.2131 95.5133 50.167 95.2363 50.0746 95.0632C50.1554 94.8786 50.1901 94.6016 50.1439 94.3015C50.0977 94.0015 49.9823 93.736 49.8438 93.586C49.8785 93.3898 49.8323 93.1128 49.7053 92.8243C49.5784 92.5473 49.4053 92.3165 49.2322 92.2126C49.2206 92.0165 49.1052 91.7626 48.909 91.5202ZM47.5934 99.241C45.3545 101.041 42.0885 100.684 40.2996 98.4446C38.4993 96.2057 38.8571 92.9397 41.096 91.1509C43.3349 89.3505 46.6009 89.7083 48.3897 91.9472C50.1901 94.1746 49.8323 97.4406 47.5934 99.241Z" fill="#CBD4E0"/>
<path d="M41.3145 91.416C39.2256 93.0894 38.9025 96.1362 40.5759 98.2251C42.2493 100.314 45.2961 100.637 47.3849 98.9637C49.4738 97.2903 49.797 94.2435 48.1236 92.1546C46.4501 90.0773 43.4034 89.7426 41.3145 91.416ZM46.5656 97.9481C45.0422 99.1714 42.8148 98.929 41.5915 97.4057C40.3682 95.8823 40.6105 93.6549 42.1339 92.4316C43.6573 91.2083 45.8846 91.4506 47.108 92.974C48.3313 94.4974 48.0889 96.7248 46.5656 97.9481Z" fill="#CBD4E0"/>
<path d="M43.1156 93.6549C43.7042 93.1817 44.489 93.1125 45.1237 93.4125L46.0123 92.697C44.9506 91.9584 43.4965 91.9699 42.4347 92.8239C41.373 93.678 41.0498 95.0975 41.5461 96.2862L42.4347 95.5706C42.2847 94.8782 42.527 94.128 43.1156 93.6549Z" fill="#CBD4E0"/>
<path d="M45.5852 96.7255C44.9966 97.1987 44.2119 97.2679 43.5771 96.9679L42.6885 97.6834C43.7502 98.422 45.2044 98.4105 46.2661 97.5565C47.3279 96.7024 47.651 95.2829 47.1547 94.0942L46.2661 94.8098C46.4046 95.5022 46.1738 96.2524 45.5852 96.7255Z" fill="#CBD4E0"/>
<path opacity="0.29" d="M95.0965 22.2047V21.3276L94.5771 21.3507L94.6002 22.2047H95.0965Z" fill="#939598"/>
<g opacity="0.61">
<path opacity="0.61" d="M65.8405 85.1945C65.8289 85.1829 65.8174 85.1829 65.8174 85.1714C65.8405 85.1945 65.8751 85.206 65.8982 85.2291C66.4637 85.5984 66.9715 85.9215 67.26 86.1062C67.3754 86.187 67.4562 86.2331 67.5023 86.2562C67.5254 86.2678 67.5254 86.2793 67.5254 86.2793C67.5023 86.2678 66.7522 85.783 65.8405 85.1945Z" fill="#58595B"/>
<path opacity="0.61" d="M60.4615 98.6978C60.4471 98.6834 60.4615 98.6978 60.4615 98.6978V98.6978Z" fill="#58595B"/>
<path opacity="0.61" d="M60.9585 92.7759C60.9822 92.7878 61.006 92.7996 61.0179 92.8115C60.9941 92.7996 60.9704 92.7878 60.9585 92.7759Z" fill="#58595B"/>
<path opacity="0.54" d="M43.729 114.334C43.5328 114.646 43.3251 114.958 43.1404 115.258L42.7019 115.939C42.7019 115.939 42.7019 115.95 42.6904 115.95C42.6788 115.95 42.6788 115.939 42.6788 115.939C42.6788 115.95 42.6211 116.054 42.4942 116.25C42.3903 116.423 42.2634 116.631 42.171 116.793C42.0441 117.012 41.8594 117.312 41.7325 117.543C41.6748 117.647 41.6055 117.774 41.5363 117.877C41.2824 118.316 40.9708 118.858 40.6015 119.482C39.3551 121.744 38.9742 122.713 38.8473 123.117L38.8242 123.105V123.117C38.8011 123.152 38.7896 123.186 38.7665 123.221C38.7665 123.232 38.755 123.232 38.755 123.244C38.7434 123.278 38.7319 123.313 38.7203 123.348V123.359C38.7088 123.394 38.7088 123.429 38.6973 123.463V123.475C38.6973 123.509 38.6973 123.555 38.6973 123.59V123.602C38.6973 123.682 38.7203 123.763 38.7434 123.832C38.7781 123.913 38.8127 123.982 38.8704 124.052C38.8588 124.086 38.8473 124.121 38.8358 124.156C38.8358 124.167 38.8358 124.167 38.8358 124.179C38.8242 124.213 38.8242 124.248 38.8242 124.283C38.8242 124.294 38.8242 124.294 38.8242 124.306C38.8242 124.34 38.8242 124.375 38.8242 124.398V124.409C38.8242 124.444 38.8358 124.479 38.8358 124.502C38.8358 124.513 38.8358 124.513 38.8358 124.525C38.8473 124.56 38.8473 124.583 38.8704 124.617V124.629C38.8819 124.652 38.8935 124.675 38.905 124.71C38.905 124.71 38.905 124.721 38.9165 124.721C38.9281 124.744 38.9512 124.767 38.9742 124.79L38.9858 124.802C39.0089 124.825 39.0319 124.848 39.055 124.86L39.9437 125.425L40.8323 125.991C41.0631 126.141 41.3978 126.06 41.6402 125.829C41.9748 125.91 42.3326 125.771 42.5173 125.471V125.46L42.4942 125.437C42.5634 125.379 42.6442 125.298 42.7365 125.194C42.8058 125.125 42.8866 125.033 42.9673 124.94C43.4059 124.467 44.0753 123.659 45.0678 122.332C46.0026 121.074 46.5911 120.22 46.9604 119.701C47.0066 119.632 47.0528 119.574 47.0989 119.505C47.2374 119.308 47.3528 119.135 47.4451 118.985L47.8837 118.304L50.6073 114.081L49.1878 114.046L43.729 114.334Z" fill="#58595B"/>
<path opacity="0.52" d="M71.3116 76.8263C71.3001 76.8147 71.277 76.8032 71.277 76.8032C71.277 76.8032 71.2654 76.7917 71.2539 76.7801C71.2424 76.7801 71.2423 76.7686 71.2308 76.7686C71.1962 76.7455 71.1385 76.7455 71.1039 76.7917C70.9884 76.8955 70.8615 76.9994 70.7115 77.1033C70.5268 77.2187 70.3191 77.3456 70.0421 77.4841C69.996 77.5072 69.9382 77.5418 69.8805 77.5649C69.6613 77.6803 69.4074 77.8072 69.1073 77.9573C69.0381 77.9919 68.9573 78.0381 68.8765 78.0727C68.8188 78.0958 68.7726 78.1304 68.7265 78.1535C68.7149 78.165 68.7034 78.165 68.6918 78.1766C68.6457 78.1996 68.5995 78.2342 68.5534 78.2573C68.5072 78.2804 68.4726 78.315 68.4264 78.3381C68.4149 78.3497 68.4149 78.3497 68.4033 78.3612C68.3802 78.3843 68.3572 78.3958 68.3341 78.4189C68.3225 78.4304 68.311 78.442 68.2995 78.4535C68.2764 78.4766 68.2533 78.4881 68.2302 78.5112C68.2187 78.5228 68.2071 78.5343 68.1956 78.5343C68.1841 78.5343 68.1841 78.5458 68.1725 78.5458C68.1379 78.5689 68.1148 78.6036 68.0802 78.6266C68.0571 78.6497 68.0225 78.6843 67.9994 78.7074L67.9879 78.719C67.9763 78.742 67.9532 78.7536 67.9417 78.7767C67.9302 78.7882 67.9186 78.7998 67.9071 78.8113C67.884 78.8344 67.8725 78.869 67.8494 78.8921C67.8494 78.8921 67.8494 78.8921 67.8494 78.9036L67.8378 78.9152C67.8147 78.9382 67.8032 78.9729 67.7801 78.9959C67.7801 78.9959 67.7801 79.0075 67.7686 79.0075C67.7455 79.0421 67.734 79.0652 67.7224 79.0998V79.1113C67.7109 79.1229 67.6993 79.146 67.6993 79.1575C67.6878 79.1691 67.6878 79.1921 67.6763 79.2037C67.6763 79.2037 67.6763 79.2152 67.6647 79.2152C67.6532 79.2383 67.6416 79.2729 67.6301 79.296C67.5955 79.3652 67.5724 79.446 67.5378 79.5153C67.5147 79.5845 67.4801 79.6538 67.457 79.723C67.457 79.7345 67.4454 79.7345 67.4454 79.7461C67.4339 79.7807 67.4108 79.8269 67.3993 79.8615C67.3993 79.8615 67.3993 79.8615 67.3993 79.873C67.3877 79.9192 67.3647 79.9538 67.3416 80C67.3185 80.0461 67.307 80.0923 67.2839 80.1269C66.6607 81.431 65.5874 83.2429 65.3335 83.6699C65.2989 83.7276 65.2758 83.7623 65.2758 83.7623C65.1027 83.6469 64.9526 83.5545 64.8488 83.4853C64.7218 83.4045 64.6641 83.3583 64.6641 83.3583C64.641 83.3468 64.641 83.3468 64.618 83.3353H64.6064C64.5949 83.3353 64.5949 83.3353 64.5833 83.3353C64.5718 83.3353 64.5718 83.3468 64.5603 83.3468C64.5603 83.3468 64.5487 83.3583 64.5487 83.3699C64.5372 83.3814 64.5372 83.393 64.5256 83.4045C64.5141 83.4391 64.5026 83.4853 64.5026 83.4968C64.4564 83.7276 64.2717 84.0508 64.2602 84.0739C64.2371 84.0969 64.1563 84.2354 63.9717 84.4893C63.9024 84.5817 63.8217 84.6971 63.7293 84.824C63.6832 84.8933 63.637 84.9625 63.5793 85.0317C63.5562 85.0664 63.5216 85.1125 63.4985 85.1472C63.4408 85.2279 63.3831 85.3087 63.3254 85.401C63.2677 85.4934 63.1985 85.5857 63.1292 85.678C63.06 85.7819 62.9907 85.8742 62.9099 85.9896C62.8291 86.0935 62.7484 86.2089 62.6676 86.3243C62.4945 86.5551 62.3098 86.8206 62.1136 87.0975C62.0098 87.236 61.9059 87.3861 61.802 87.5245C61.6982 87.6746 61.5943 87.8131 61.4904 87.9515C59.9786 90.0058 59.2515 90.6867 59.2054 90.7213C59.2054 90.7213 59.2054 90.7213 59.2054 90.7329C59.1938 90.756 59.1823 90.779 59.1592 90.7906C59.0669 90.9175 58.9399 91.056 58.8476 91.1945C58.8361 91.2176 58.813 91.2407 58.8014 91.2637C58.6052 91.5638 58.3975 91.8523 58.2013 92.1524C58.2013 92.1524 56.6549 94.4605 55.8701 95.6031L55.2123 96.5148C52.8349 100.196 49.9381 104.697 47.203 108.933C47.1799 108.967 47.1453 109.013 47.1222 109.06C47.0991 109.094 47.0876 109.117 47.0645 109.14C46.9837 109.267 46.9029 109.394 46.8337 109.498C45.7719 111.148 44.7333 112.753 43.7754 114.241L49.2342 113.976L50.6537 114.011L51.5885 112.568L51.727 112.36L59.967 99.5962L60.521 98.6152C60.521 98.6152 60.4979 98.6037 60.521 98.6152C61.2365 97.4265 62.7022 95.0606 62.7022 95.0606L63.2677 94.1374L63.5908 93.5488C63.5908 93.5373 63.6024 93.5142 63.6139 93.4796C63.6255 93.4565 63.6255 93.4334 63.637 93.4103C63.6485 93.3872 63.6601 93.3526 63.6716 93.3065C63.6832 93.2834 63.6832 93.2718 63.6947 93.2488C63.7062 93.2257 63.7178 93.2026 63.7293 93.168C63.7524 93.1218 63.764 93.0756 63.787 93.0295C63.8101 92.9718 63.8332 92.9141 63.8678 92.8448C63.8909 92.7756 63.9255 92.7063 63.9601 92.6371C64.0409 92.4524 64.1448 92.2332 64.2717 91.9908C64.3179 91.8985 64.3756 91.7946 64.4218 91.6908C64.4564 91.633 64.4795 91.5753 64.5141 91.5061C64.5487 91.4484 64.5718 91.3907 64.6064 91.333C64.768 91.0329 64.9526 90.6867 65.1604 90.3174C65.2412 90.1789 65.3219 90.0289 65.4143 89.8789C65.4143 89.8789 65.4143 89.8673 65.4258 89.8673C65.5181 89.7057 65.6105 89.5442 65.6913 89.3941C65.8182 89.1749 65.9336 88.9787 66.049 88.7825L66.0606 88.7709C66.7415 87.5938 67.1685 86.8667 67.3877 86.4974C67.3993 86.4743 67.4108 86.4628 67.4224 86.4397C67.4916 86.3243 67.5262 86.2551 67.5493 86.2204C67.5609 86.2089 67.5609 86.1974 67.5609 86.1974C67.5609 86.1974 67.5493 86.1858 67.5378 86.1743C67.5032 86.1512 67.4108 86.0935 67.2954 86.0243C67.0069 85.8396 66.5106 85.5165 65.9336 85.1472C65.9105 85.1241 65.8759 85.1125 65.8528 85.0894C65.8644 85.101 65.8759 85.101 65.8759 85.1125C66.7876 85.7011 67.5378 86.1858 67.5609 86.1974C67.5724 86.1858 67.8032 85.8742 67.9879 85.7473C67.9994 85.7473 67.9994 85.7357 68.0109 85.7357C68.0225 85.7357 68.0225 85.7242 68.034 85.7242C68.0456 85.7126 68.0456 85.7126 68.0571 85.7011C68.0686 85.6896 68.0686 85.6896 68.0802 85.678C68.0917 85.6665 68.0917 85.6665 68.0917 85.6549C68.0917 85.6434 68.1033 85.6434 68.1033 85.6319C68.1033 85.6203 68.1033 85.6203 68.1033 85.6088C68.1033 85.5972 68.1033 85.5972 68.1033 85.5857C68.1033 85.5742 68.0917 85.5742 68.0917 85.5626C68.0802 85.5511 68.0802 85.5511 68.0686 85.5395C68.0571 85.528 67.8032 85.3664 67.3993 85.1125C67.3993 85.1125 68.8303 83.0698 69.8921 81.8003C70.3999 81.1887 71 80.8886 71.1269 79.6538C71.1269 79.6422 71.1269 79.6307 71.1269 79.6191C71.1269 79.5614 71.1385 79.5037 71.1385 79.446C71.1616 78.8228 71.1846 78.3612 71.2077 77.9804C71.2193 77.8765 71.2193 77.7726 71.2308 77.6803C71.2423 77.588 71.2539 77.5072 71.2654 77.4149C71.3001 77.2071 71.3347 77.0456 71.3924 76.884C71.3924 76.8724 71.4039 76.8609 71.4039 76.8494C71.3693 76.884 71.3347 76.8494 71.3116 76.8263ZM60.9596 92.7756C60.9826 92.7871 61.0057 92.7987 61.0173 92.8102C60.9942 92.7987 60.9711 92.7871 60.9596 92.7756ZM63.1523 93.3872C63.1985 93.4103 63.2331 93.4449 63.2677 93.468C63.2331 93.4449 63.1985 93.4103 63.1523 93.3872Z" fill="#58595B"/>
</g>
<path d="M66.1122 83.0259C66.0545 82.9913 65.4659 82.5989 65.062 82.3335C65.062 82.3335 66.3546 80.1869 67.0701 78.6982C67.1624 78.5135 67.2201 78.3404 67.2894 78.1673C67.4971 77.6133 67.7279 77.0825 68.6858 76.5862C69.9553 75.9399 70.5092 75.686 70.9132 75.3052C70.9824 75.2244 71.0747 75.2936 71.0978 75.3167C71.1209 75.3283 71.2248 75.386 71.1786 75.4783C70.994 75.9976 70.9939 76.6093 70.9247 78.0288C70.867 79.1136 70.4746 79.5291 70.0592 79.9561C69.9322 80.0946 69.7937 80.2215 69.6668 80.3716C68.5935 81.6411 67.1855 83.7068 67.1855 83.7068C66.8624 83.4876 66.1699 83.0721 66.1122 83.0259Z" fill="url(#paint0_linear_3858_71043)"/>
<path d="M67.8667 84.261C67.8551 84.2726 67.8551 84.2726 67.8436 84.2841C67.8321 84.2957 67.8321 84.2957 67.8205 84.3072C67.809 84.3072 67.809 84.3187 67.7974 84.3187C67.7859 84.3187 67.7859 84.3303 67.7744 84.3303C67.5897 84.4572 67.3589 84.7688 67.3473 84.7804C67.3358 84.7688 66.5741 84.2841 65.6624 83.6956C64.7622 83.1185 64.0352 82.6453 64.0352 82.6453C64.0467 82.6223 64.2314 82.2991 64.2775 82.0683C64.2775 82.0452 64.2891 82.0106 64.3006 81.976C64.3121 81.9529 64.3121 81.9529 64.3237 81.9414C64.3237 81.9298 64.3352 81.9298 64.3352 81.9183C64.3468 81.9183 64.3468 81.9067 64.3583 81.9067C64.3698 81.9067 64.3698 81.9067 64.3814 81.9067H64.3929C64.416 81.9067 64.416 81.9183 64.4391 81.9298C64.4391 81.9298 65.1777 82.4145 66.1125 83.0146C67.0588 83.6263 67.8321 84.1226 67.8436 84.1341C67.8551 84.1456 67.8667 84.1456 67.8667 84.1572C67.8782 84.1687 67.8782 84.1687 67.8782 84.1803C67.8782 84.1918 67.8782 84.1918 67.8782 84.2033C67.8782 84.2149 67.8782 84.2149 67.8782 84.2264C67.8782 84.238 67.8667 84.238 67.8667 84.2495C67.8782 84.2495 67.8782 84.2495 67.8667 84.261Z" fill="#124A62"/>
<path d="M58.5898 89.8575C58.5898 89.8575 59.5823 90.5038 60.7826 91.2655C61.9944 92.0503 63.0215 92.7081 63.0446 92.7312L63.3677 92.1426C63.3446 92.1311 62.3521 91.4848 61.1403 90.7115C59.9401 89.9383 58.9938 89.3267 58.9938 89.3267C58.8899 89.4882 58.6937 89.6844 58.5898 89.8575Z" fill="#E6E2DE"/>
<path d="M63.3655 92.1434C63.3655 92.1434 63.3655 92.1319 63.3655 92.1434C63.3539 92.1319 63.3424 92.1203 63.3193 92.1203C63.2731 92.0972 63.2039 92.0395 63.1 91.9703C62.8461 91.8087 62.4191 91.5317 61.8998 91.1971C61.3689 90.8624 60.0533 90.0199 59.9725 89.9507C59.4993 89.6391 59.1531 89.4198 59.0261 89.339C58.9915 89.3159 58.98 89.3159 58.98 89.3159C59.0261 89.2813 59.7532 88.6004 61.265 86.5461C61.3689 86.4077 61.4728 86.2692 61.5766 86.1191C61.6805 85.9691 61.7844 85.8306 61.8882 85.6921C62.0844 85.4152 62.2691 85.1613 62.4422 84.9189C62.523 84.8035 62.6038 84.6881 62.6846 84.5842C62.7653 84.4804 62.8346 84.3765 62.9038 84.2726C62.9731 84.1688 63.0423 84.0764 63.1 83.9956C63.1577 83.9033 63.227 83.8225 63.2731 83.7417C63.2962 83.7071 63.3308 83.661 63.3539 83.6263C63.4116 83.5571 63.4578 83.4763 63.504 83.4186C63.5963 83.2917 63.6771 83.1763 63.7463 83.0839C63.931 82.8185 64.0233 82.6915 64.0348 82.6685C64.0579 82.68 64.4041 82.9108 64.9119 83.234L64.935 83.2455C65.1658 83.3955 65.4313 83.5686 65.7198 83.7533C66.2853 84.1226 66.7931 84.4457 67.0816 84.6304C67.197 84.7112 67.2778 84.7573 67.3239 84.7804C67.347 84.792 67.347 84.8035 67.347 84.8035C67.347 84.8035 67.3355 84.815 67.3355 84.8266C67.3124 84.8612 67.2778 84.9304 67.2085 85.0459C67.197 85.0689 67.1854 85.0805 67.1739 85.1036C66.9546 85.4729 66.5276 86.1999 65.8467 87.3771L65.8352 87.3886C65.7198 87.5848 65.6044 87.781 65.4774 88.0003C65.3851 88.1503 65.3043 88.3119 65.212 88.4734C65.212 88.4734 65.212 88.485 65.2004 88.485C65.1081 88.635 65.0273 88.785 64.9465 88.9235C64.7388 89.2928 64.5542 89.6391 64.3926 89.9391C64.358 89.9968 64.3349 90.0545 64.3003 90.1122C64.2656 90.1699 64.231 90.2392 64.2079 90.2969C64.1502 90.4008 64.1041 90.5046 64.0579 90.5969C63.931 90.8508 63.8271 91.0586 63.7463 91.2432C63.7117 91.3125 63.6771 91.3817 63.654 91.451C63.6309 91.5202 63.5963 91.5779 63.5732 91.6356C63.5501 91.6818 63.527 91.7279 63.5155 91.7741C63.5039 91.7972 63.4924 91.8318 63.4809 91.8549C63.4693 91.878 63.4693 91.9011 63.4578 91.9126C63.4462 91.9472 63.4347 91.9818 63.4232 92.0165C63.4116 92.0395 63.4001 92.0742 63.4001 92.0857C63.377 92.1088 63.377 92.1319 63.3655 92.1434Z" fill="#124A62"/>
<path d="M65.062 82.3218C65.062 82.3218 66.3546 80.1867 67.0701 78.6864C67.4279 77.9363 67.4163 77.2323 68.6858 76.5745C69.9553 75.9282 70.5092 75.6743 70.9132 75.2935C70.9824 75.2127 71.0747 75.2819 71.0978 75.305C71.1209 75.3166 71.2248 75.3743 71.1786 75.4666C70.994 75.9859 70.9939 76.5976 70.9247 78.0171C70.8439 79.4366 70.2092 79.7367 69.6783 80.3829C68.605 81.6524 67.1855 83.6951 67.1855 83.6951C66.8624 83.4874 66.1699 83.0719 66.1122 83.0258C66.0545 82.9911 65.4775 82.5872 65.062 82.3218Z" fill="#E6E2DE"/>
<path d="M68.477 79.4022C68.5924 79.4714 68.7425 79.4483 68.8233 79.3329C68.8925 79.2175 68.8694 79.0675 68.754 78.9867C68.6386 78.9175 68.4886 78.9405 68.4078 79.0559C68.327 79.1714 68.3616 79.3214 68.477 79.4022Z" fill="#137FAF"/>
<path d="M71.0988 75.3047L68.606 79.1593L68.629 79.1824L71.1103 75.3162L71.0988 75.3047Z" fill="#137FAF"/>
<path d="M59.7414 98.1893C59.7299 98.1778 59.7414 98.1893 59.7414 98.1893L60.2954 97.2084C60.2954 97.2084 60.2723 97.1968 60.2954 97.2084C61.0109 96.0197 62.4766 93.6538 62.4766 93.6538L63.0421 92.7306C63.019 92.719 62.0034 92.0612 60.7801 91.2649C59.5683 90.4801 58.5874 89.8569 58.5874 89.8569C58.3912 90.157 58.1834 90.4455 57.9873 90.7456C57.9873 90.7456 56.4408 93.0537 55.656 94.1963L54.9982 95.108C51.3859 100.705 46.585 108.161 42.9727 113.758L42.5342 114.439H42.5457H42.5342L42.5227 114.45C42.5111 114.45 42.5111 114.439 42.5111 114.439C42.5111 114.45 42.4534 114.554 42.3265 114.75C42.2226 114.923 42.0957 115.131 42.0033 115.293C41.8764 115.512 41.6917 115.812 41.5648 116.043C41.5071 116.147 41.4378 116.274 41.3686 116.378C41.1147 116.816 40.8031 117.359 40.4338 117.982C38.6796 121.167 38.645 121.802 38.6104 121.859C38.6104 121.859 38.6219 121.871 38.6334 121.871C38.6219 121.975 38.6334 122.079 38.645 122.159C38.6681 122.252 38.6911 122.367 38.7258 122.448C38.7604 122.529 38.8181 122.644 38.8642 122.725C38.9104 122.806 38.9797 122.91 39.0489 122.979C39.0835 123.013 39.1181 123.06 39.1412 123.094C39.1989 123.152 39.2797 123.244 39.349 123.302C39.4067 123.36 39.6375 123.567 39.8914 123.729C39.9029 123.729 39.9145 123.752 39.9491 123.764C39.9722 123.775 39.9952 123.787 40.0068 123.798C40.0299 123.81 40.0645 123.821 40.076 123.844C40.1337 123.879 40.1914 123.914 40.2607 123.948C40.3299 123.983 40.4107 124.018 40.4915 124.052C40.5723 124.087 40.6761 124.121 40.7569 124.156C40.8493 124.191 40.9531 124.214 41.0454 124.237C41.1493 124.26 41.2532 124.271 41.357 124.271C41.4609 124.283 41.5648 124.271 41.6686 124.26C41.7725 124.248 41.8648 124.225 41.9687 124.179C42.0149 124.168 42.0495 124.144 42.0841 124.121C42.0957 124.133 42.1072 124.144 42.1072 124.144C42.1187 124.133 42.1649 124.087 42.2688 123.994C42.3496 123.925 42.4419 123.833 42.5573 123.717C42.6265 123.648 42.7073 123.556 42.7881 123.464C43.2266 122.99 43.896 122.183 44.8885 120.855C45.8233 119.597 46.4119 118.743 46.7812 118.224C46.8274 118.155 46.8735 118.097 46.9197 118.028C47.0582 117.832 47.1736 117.659 47.2659 117.509L47.7045 116.828L59.7414 98.1893ZM42.9958 113.792L42.9612 113.769C42.9728 113.769 42.9843 113.781 42.9958 113.792Z" fill="#124A62"/>
<path d="M41.6438 124.134L38.8163 122.333V122.345C38.5739 122.726 38.6085 123.188 38.9086 123.372L40.6859 124.503C40.9629 124.688 41.3899 124.526 41.6438 124.134Z" fill="#E6E2DE"/>
<path d="M42.3607 123.972C42.1183 124.353 41.6105 124.468 41.2297 124.226L38.8985 122.749C38.5176 122.506 38.4022 121.998 38.6446 121.618V121.606L40.6988 122.91L46.7923 113.32L47.3809 113.689L41.2874 123.279L42.3607 123.972Z" fill="#E6E2DE"/>
<path d="M46.6074 108.091C46.6074 108.091 47.6461 108.761 48.9387 109.603C50.2543 110.446 51.3391 111.15 51.3622 111.161L51.7315 110.596C51.7084 110.584 50.6236 109.88 49.308 109.038C48.0039 108.195 46.9767 107.526 46.9767 107.526C46.8729 107.699 46.7228 107.93 46.6074 108.091Z" fill="#E6E2DE"/>
<path d="M46.796 113.328L40.708 122.914L41.0003 123.1L47.0883 113.514L46.796 113.328Z" fill="#D1D3D4"/>
<g opacity="0.51">
<path opacity="0.51" d="M67.094 84.6057C66.8054 84.421 66.3092 84.0979 65.7322 83.7286C65.7091 83.7055 65.6744 83.694 65.6514 83.6709C65.6629 83.6824 65.6745 83.6824 65.6745 83.694C66.263 84.0748 66.7939 84.4095 67.094 84.6057Z" fill="#446AB3"/>
<path opacity="0.51" d="M59.0388 89.3375C59.0042 89.3145 58.9927 89.3145 58.9927 89.3145C59.0388 89.2798 59.7659 88.5989 61.2777 86.5447C61.3816 86.4062 61.4855 86.2677 61.5893 86.1177C61.6932 85.9676 61.7971 85.8292 61.9009 85.6907C62.0971 85.4137 62.2818 85.1598 62.4549 84.9174C62.5357 84.802 62.6165 84.6866 62.6973 84.5828C62.778 84.4789 62.8473 84.375 62.9165 84.2712C62.9858 84.1673 63.055 84.075 63.1127 83.9942C63.1704 83.9019 63.2397 83.8211 63.2858 83.7403C63.3089 83.7057 63.3435 83.6595 63.3666 83.6249C63.4243 83.5556 63.4705 83.4748 63.5166 83.4171C63.609 83.2902 63.6898 83.1748 63.759 83.0825C63.9437 82.817 64.036 82.6901 64.0475 82.667C64.0706 82.6785 64.4168 82.9094 64.9246 83.2325L64.9477 83.244C65.1554 83.3825 65.3978 83.5326 65.6401 83.6941L61.1393 90.7224C60.5968 90.3762 60.0313 90.0069 59.9736 89.9607C59.5005 89.6376 59.1542 89.4183 59.0388 89.3375Z" fill="#446AB3"/>
<path opacity="0.51" d="M64.0454 82.6439C64.057 82.6208 64.2416 82.2977 64.2878 82.0668C64.2878 82.0438 64.2993 82.0091 64.3108 81.9745C64.3224 81.9514 64.3224 81.9514 64.3339 81.9399C64.3339 81.9284 64.3455 81.9284 64.3455 81.9168C64.357 81.9168 64.357 81.9053 64.3685 81.9053C64.3801 81.9053 64.3801 81.9053 64.3916 81.9053H64.4032C64.4263 81.9053 64.4263 81.9168 64.4493 81.9284C64.4493 81.9284 65.1649 82.4246 66.0881 83.0132L65.6496 83.6825C64.7609 83.1055 64.0454 82.6439 64.0454 82.6439Z" fill="#446AB3"/>
<path opacity="0.51" d="M38.6802 121.617C38.8071 121.225 39.188 120.244 40.4344 117.982C40.7921 117.347 41.1037 116.816 41.3692 116.378C41.4269 116.262 41.5077 116.135 41.5654 116.043C41.6923 115.824 41.8654 115.524 42.0039 115.293C42.0962 115.131 42.2232 114.923 42.327 114.75C42.4425 114.554 42.5002 114.45 42.5117 114.439C42.5117 114.439 42.5117 114.439 42.5232 114.45L42.5348 114.439L42.9733 113.758C44.1043 112.015 45.3392 110.088 46.6202 108.091C46.6202 108.091 47.7281 108.807 49.0207 109.638C49.0438 109.649 48.9976 109.626 49.0207 109.638L40.5844 122.817L38.6802 121.617Z" fill="#446AB3"/>
<path opacity="0.51" d="M49.32 109.038C48.0159 108.195 46.9888 107.526 46.9888 107.526C49.7239 103.29 52.6206 98.7895 54.998 95.108L55.6559 94.1963C56.4522 93.0537 57.9871 90.7456 57.9871 90.7456C58.1833 90.4455 58.391 90.157 58.5872 89.8569C58.5872 89.8569 59.5566 90.4801 60.7799 91.2649C60.7799 91.2649 60.78 91.2649 60.7915 91.2649L49.3892 109.072C49.3546 109.061 49.3431 109.049 49.32 109.038Z" fill="#446AB3"/>
</g>
<path d="M60.7657 91.277C59.5654 90.5038 58.5845 89.8575 58.5845 89.8575C58.6999 89.6844 58.873 89.4882 58.9884 89.3267C58.9884 89.3267 59.9463 89.9383 61.135 90.7115C61.1465 90.7231 61.1234 90.7 61.135 90.7115L60.7657 91.277C60.7657 91.2655 60.7772 91.2886 60.7657 91.277Z" fill="#D1D3D4"/>
<path d="M48.9502 109.603C47.6461 108.761 46.6074 108.091 46.6074 108.091C46.7228 107.918 46.8613 107.699 46.9767 107.526C46.9767 107.526 48.0154 108.195 49.3195 109.038C49.331 109.049 49.3657 109.072 49.3772 109.072L49.0194 109.638C49.0079 109.638 48.9617 109.615 48.9502 109.603Z" fill="#D1D3D4"/>
<path d="M40.0612 123.488L39.7727 123.938L38.8841 123.372C38.6533 123.222 38.5725 122.888 38.6879 122.564C38.7456 122.634 38.8148 122.691 38.8841 122.749L40.0612 123.488Z" fill="#D1D3D4"/>
<path d="M38.8159 122.333C38.7697 122.414 38.7351 122.483 38.7005 122.564C38.4927 122.298 38.4581 121.918 38.6543 121.618V121.606L40.5124 122.795L40.2239 123.245L38.8159 122.333Z" fill="#D1D3D4"/>
<path d="M38.8158 122.333L40.2353 123.233L40.0737 123.487L38.9081 122.748C38.8273 122.702 38.7581 122.633 38.7119 122.564C38.7235 122.495 38.7581 122.414 38.8158 122.333Z" fill="#D1D3D4"/>
<g opacity="0.5">
<path opacity="0.5" d="M68.3934 79.0558C68.3241 79.1712 68.3588 79.3096 68.4511 79.3904L66.0737 83.0027C66.0621 82.9911 66.1083 83.0258 66.1083 83.0258C66.0506 82.9911 65.4736 82.5872 65.0581 82.3218C65.0581 82.3218 66.3507 80.1867 67.0662 78.6864C67.424 77.9363 67.4124 77.2323 68.6819 76.5745C69.9514 75.9282 70.5053 75.6743 70.9093 75.2935C70.9785 75.2127 71.0593 75.2819 71.0939 75.305L69.9975 77.0015L68.7281 78.975C68.6127 78.9057 68.4742 78.9403 68.3934 79.0558Z" fill="#BCBEC0"/>
</g>
<defs>
<linearGradient id="paint0_linear_3858_71043" x1="72.4564" y1="78.7249" x2="64.1333" y2="80.5823" gradientUnits="userSpaceOnUse">
<stop offset="0.00561798" stop-color="#C3A95E"/>
<stop offset="0.00768708" stop-color="#CAAE65"/>
<stop offset="0.0131726" stop-color="#D9BB72"/>
<stop offset="0.020001" stop-color="#E4C47B"/>
<stop offset="0.0295814" stop-color="#EAC981"/>
<stop offset="0.0561798" stop-color="#ECCA82"/>
<stop offset="0.0614185" stop-color="#F0D389"/>
<stop offset="0.0728968" stop-color="#F5E195"/>
<stop offset="0.087193" stop-color="#FAEB9E"/>
<stop offset="0.1072" stop-color="#FDF3A3"/>
<stop offset="0.1629" stop-color="#FEF6A5"/>
<stop offset="0.229" stop-color="#FEF3A3"/>
<stop offset="0.2528" stop-color="#FCED9C"/>
<stop offset="0.2698" stop-color="#FAE490"/>
<stop offset="0.2834" stop-color="#F7D781"/>
<stop offset="0.2921" stop-color="#F4CC73"/>
<stop offset="0.2937" stop-color="#C8A460"/>
<stop offset="0.296" stop-color="#9E7C4D"/>
<stop offset="0.2985" stop-color="#7D5E3C"/>
<stop offset="0.3014" stop-color="#64492F"/>
<stop offset="0.3045" stop-color="#523925"/>
<stop offset="0.3082" stop-color="#452D1D"/>
<stop offset="0.3128" stop-color="#3D2516"/>
<stop offset="0.3192" stop-color="#382012"/>
<stop offset="0.3371" stop-color="#361E11"/>
<stop offset="0.3522" stop-color="#4B321F"/>
<stop offset="0.3733" stop-color="#664A2D"/>
<stop offset="0.3972" stop-color="#816238"/>
<stop offset="0.4235" stop-color="#9A7841"/>
<stop offset="0.4533" stop-color="#B08C47"/>
<stop offset="0.488" stop-color="#C29C4C"/>
<stop offset="0.531" stop-color="#CFA84F"/>
<stop offset="0.5912" stop-color="#D7B051"/>
<stop offset="0.7584" stop-color="#DBB352"/>
<stop offset="0.764" stop-color="#DBB352"/>
<stop offset="0.7978" stop-color="#DBB352"/>
<stop offset="0.8558" stop-color="#D8B050"/>
<stop offset="0.8767" stop-color="#D0A74A"/>
<stop offset="0.8916" stop-color="#C39B41"/>
<stop offset="0.9035" stop-color="#B38A36"/>
<stop offset="0.9045" stop-color="#B18835"/>
<stop offset="0.908" stop-color="#B38C3B"/>
<stop offset="0.9184" stop-color="#B79447"/>
<stop offset="0.9314" stop-color="#BA9A51"/>
<stop offset="0.9495" stop-color="#BC9D57"/>
<stop offset="1" stop-color="#BC9E58"/>
</linearGradient>
</defs>
</svg>
