<svg width="16" height="16" fill="none" xmlns="http://www.w3.org/2000/svg">
  <path d="M12.714 0H3.269A3.272 3.272 0 0 0 0 3.269v5.42a3.272 3.272 0 0 0 3.269 3.268h2.617l1.72 2.98a.469.469 0 0 0 .812 0l1.72-2.98h2.593A3.272 3.272 0 0 0 16 8.69V3.286A3.29 3.29 0 0 0 12.714 0Zm2.348 8.689a2.334 2.334 0 0 1-2.33 2.33H9.867a.469.469 0 0 0-.406.235l-1.45 2.51-1.45-2.51a.469.469 0 0 0-.406-.234H3.27A2.334 2.334 0 0 1 .937 8.689v-5.42A2.334 2.334 0 0 1 3.27.937h9.445a2.352 2.352 0 0 1 2.348 2.35v5.402Z" fill="#000"/>
  <path d="M13.872 4.969a.468.468 0 0 0-.434-.02 2.25 2.25 0 0 0-4.1 1.277 2.25 2.25 0 0 0 3.673 1.738.469.469 0 1 0-.595-.724 1.312 1.312 0 0 1-2.141-1.013 1.312 1.312 0 0 1 2.295-.867.469.469 0 0 0 .028.92c.036.004.708.12.72.11.165 0 .32-.087.405-.233l.318-.547a.469.469 0 0 0-.17-.641ZM5.126 3.627H2.422a.469.469 0 0 1 0-.938h2.704a.469.469 0 0 1 0 .938ZM6.368 5.508H2.422a.469.469 0 0 1 0-.937h3.946a.469.469 0 0 1 0 .937ZM6.368 7.388H2.422a.469.469 0 0 1 0-.938h3.946a.469.469 0 0 1 0 .938ZM6.368 9.269H2.422a.469.469 0 0 1 0-.938h3.946a.469.469 0 0 1 0 .938Z" fill="#000"/>
</svg>
