<svg width="186" height="200" viewBox="0 0 186 200" fill="none" xmlns="http://www.w3.org/2000/svg">
<g clip-path="url(#clip0_1_100347)">
<path d="M117.906 113.473L37.559 134.164C34.8335 134.862 31.9423 134.451 29.5195 133.021C27.0967 131.59 25.3403 129.257 24.6356 126.533L0.336604 32.1723C-0.361951 29.4468 0.0491094 26.5555 1.47961 24.1328C2.91011 21.71 5.24323 19.9536 7.9671 19.2489L82.7168 0L101.849 8.56494L125.536 100.55C126.235 103.275 125.824 106.167 124.393 108.59C122.963 111.012 120.63 112.769 117.906 113.473Z" fill="#E2E2E2"/>
<path d="M8.72838 22.2075C6.78865 22.7093 5.12719 23.9601 4.1085 25.6854C3.08981 27.4107 2.79708 29.4697 3.29454 31.4105L27.5936 125.771C28.0954 127.711 29.3462 129.373 31.0715 130.391C32.7968 131.41 34.8557 131.703 36.7966 131.205L117.143 110.515C119.083 110.013 120.745 108.762 121.763 107.037C122.782 105.312 123.075 103.253 122.577 101.312L99.2571 10.7522L82.4432 3.2251L8.72838 22.2075Z" fill="white"/>
<path d="M101.644 9.05208L89.2094 12.2542C88.3016 12.4879 87.3381 12.3515 86.5309 11.8749C85.7238 11.3983 85.139 10.6206 84.9052 9.71281L82.5402 0.528672C82.5298 0.488464 82.531 0.446151 82.5436 0.406587C82.5562 0.367023 82.5797 0.33181 82.6114 0.304984C82.6431 0.278158 82.6817 0.260806 82.7228 0.254918C82.7639 0.24903 82.8058 0.254844 82.8438 0.271695L101.679 8.63627C101.721 8.65489 101.756 8.68609 101.779 8.72555C101.802 8.765 101.813 8.81075 101.809 8.85646C101.805 8.90216 101.787 8.94555 101.758 8.98061C101.728 9.01566 101.689 9.04064 101.644 9.05208Z" fill="#E2E2E2"/>
<path d="M95.1022 89.6339L58.5214 99.0539C58.2967 99.1117 58.0627 99.1248 57.8329 99.0922C57.6031 99.0597 57.382 98.9822 57.1822 98.8642C56.9823 98.7462 56.8077 98.59 56.6682 98.4045C56.5288 98.219 56.4272 98.0079 56.3693 97.7832C56.3114 97.5584 56.2984 97.3245 56.3309 97.0947C56.3635 96.8649 56.4409 96.6438 56.5589 96.444C56.6769 96.2441 56.8331 96.0695 57.0186 95.93C57.2041 95.7905 57.4152 95.689 57.64 95.6311L94.2208 86.2111C94.4456 86.1532 94.6795 86.1402 94.9093 86.1727C95.1391 86.2053 95.3602 86.2827 95.56 86.4007C95.7599 86.5187 95.9345 86.6749 96.074 86.8604C96.2135 87.0459 96.315 87.257 96.3729 87.4818C96.4308 87.7065 96.4438 87.9405 96.4113 88.1702C96.3787 88.4 96.3013 88.6211 96.1833 88.821C96.0653 89.0208 95.9091 89.1955 95.7236 89.3349C95.5381 89.4744 95.327 89.576 95.1022 89.6339Z" fill="#D3CCCC"/>
<path d="M103.65 93.5922L60.0097 104.83C59.5558 104.947 59.0741 104.879 58.6705 104.64C58.2669 104.402 57.9745 104.013 57.8576 103.559C57.7407 103.106 57.8089 102.624 58.0472 102.22C58.2855 101.817 58.6744 101.524 59.1283 101.407L102.769 90.1695C103.222 90.0531 103.704 90.1215 104.107 90.3599C104.51 90.5982 104.802 90.9869 104.919 91.4405C105.036 91.8942 104.968 92.3756 104.73 92.7791C104.492 93.1825 104.103 93.475 103.65 93.5922Z" fill="#D3CCCC"/>
<path d="M43.5928 110.399C47.0425 110.399 49.839 107.603 49.839 104.153C49.839 100.704 47.0425 97.9072 43.5928 97.9072C40.1432 97.9072 37.3467 100.704 37.3467 104.153C37.3467 107.603 40.1432 110.399 43.5928 110.399Z" fill="#EDEDED"/>
<path d="M91.2127 73.2877L42.6297 85.7937C41.2257 86.1535 39.7362 85.9416 38.4882 85.2046C37.2402 84.4675 36.3355 83.2655 35.9726 81.8623L25.7914 42.3107C25.4316 40.9067 25.6435 39.4173 26.3806 38.1692C27.1176 36.9212 28.3196 36.0165 29.7228 35.6536L78.3058 23.1476C79.7099 22.7878 81.1993 22.9997 82.4473 23.7368C83.6954 24.4738 84.6001 25.6758 84.963 27.0791L95.1441 66.6306C95.5039 68.0346 95.292 69.524 94.555 70.7721C93.8179 72.0201 92.6159 72.9248 91.2127 73.2877Z" fill="white"/>
<path d="M91.2127 73.2877L42.6297 85.7937C41.2257 86.1535 39.7362 85.9416 38.4882 85.2046C37.2402 84.4675 36.3355 83.2655 35.9726 81.8623L25.7914 42.3107C25.4316 40.9067 25.6435 39.4173 26.3806 38.1692C27.1176 36.9212 28.3196 36.0165 29.7228 35.6536L78.3058 23.1476C79.7099 22.7878 81.1993 22.9997 82.4473 23.7368C83.6954 24.4738 84.6001 25.6758 84.963 27.0791L95.1441 66.6306C95.5039 68.0346 95.292 69.524 94.555 70.7721C93.8179 72.0201 92.6159 72.9248 91.2127 73.2877ZM29.8832 36.2765C28.645 36.5967 27.5845 37.395 26.9341 38.4962C26.2838 39.5974 26.0968 40.9115 26.4143 42.1504L36.5954 81.7019C36.9157 82.9401 37.7139 84.0007 38.8151 84.651C39.9163 85.3013 41.2305 85.4883 42.4694 85.1709L91.0524 72.6648C92.2905 72.3446 93.3511 71.5464 94.0014 70.4452C94.6518 69.344 94.8387 68.0298 94.5213 66.7909L84.3401 27.2394C84.0199 26.0012 83.2216 24.9407 82.1204 24.2903C81.0192 23.64 79.705 23.453 78.4662 23.7704L29.8832 36.2765Z" fill="#EDEDED"/>
<path d="M75.8421 36.446L51.3229 42.7576C51.1085 42.8175 50.8794 42.7937 50.6819 42.6911C50.4844 42.5885 50.3333 42.4148 50.2589 42.205C50.2244 42.0954 50.2125 41.9799 50.224 41.8656C50.2355 41.7512 50.2702 41.6404 50.326 41.54C50.3817 41.4395 50.4574 41.3514 50.5483 41.2811C50.6392 41.2108 50.7435 41.1598 50.8548 41.1311L75.8138 34.7063C76.822 35.2172 76.5568 36.2621 75.8418 36.4461L75.8421 36.446Z" fill="#E2E2E2"/>
<path d="M76.9485 40.7468L52.4293 47.0584C52.215 47.1183 51.9859 47.0945 51.7884 46.9919C51.5909 46.8893 51.4397 46.7156 51.3654 46.5058C51.3308 46.3962 51.3189 46.2807 51.3304 46.1663C51.342 46.052 51.3767 45.9412 51.4324 45.8407C51.4882 45.7402 51.5638 45.6522 51.6547 45.5819C51.7456 45.5116 51.8499 45.4606 51.9612 45.4319L76.9203 39.0071C77.9285 39.5179 77.6632 40.5628 76.9482 40.7469L76.9485 40.7468Z" fill="#E2E2E2"/>
<path d="M47.7601 50.8718L40.2771 52.7981C40.0327 52.8607 39.7735 52.8239 39.5562 52.6956C39.339 52.5673 39.1815 52.3581 39.1184 52.1138L36.8453 43.2832C36.7826 43.0388 36.8195 42.7796 36.9478 42.5623C37.0761 42.3451 37.2853 42.1876 37.5296 42.1245L45.0126 40.1982C45.257 40.1357 45.5162 40.1726 45.7334 40.3009C45.9506 40.4291 46.1081 40.6383 46.1713 40.8825L48.4445 49.7131C48.5071 49.9575 48.4702 50.2168 48.3419 50.434C48.2136 50.6513 48.0044 50.8087 47.7601 50.8719V50.8718Z" fill="#EDEDED"/>
<path d="M79.145 49.5716L41.7242 59.2043C41.5099 59.2641 41.2808 59.2404 41.0833 59.1378C40.8858 59.0352 40.7346 58.8614 40.6603 58.6516C40.6257 58.5421 40.6138 58.4266 40.6254 58.3122C40.6369 58.1979 40.6716 58.0871 40.7273 57.9866C40.7831 57.8861 40.8587 57.798 40.9497 57.7278C41.0406 57.6575 41.1449 57.6064 41.2561 57.5778L79.1171 47.8318C80.1253 48.3426 79.86 49.3875 79.1451 49.5716L79.145 49.5716Z" fill="#E2E2E2"/>
<path d="M80.2525 53.8736L42.8317 63.5063C42.6173 63.5661 42.3882 63.5423 42.1907 63.4398C41.9932 63.3372 41.842 63.1634 41.7677 62.9536C41.7331 62.844 41.7213 62.7286 41.7328 62.6142C41.7443 62.4999 41.779 62.3891 41.8348 62.2886C41.8905 62.1881 41.9662 62.1 42.0571 62.0297C42.148 61.9595 42.2523 61.9084 42.3636 61.8798L80.2245 52.1338C81.2327 52.6446 80.9674 53.6895 80.2525 53.8736V53.8736Z" fill="#E2E2E2"/>
<path d="M81.3589 58.1729L43.9381 67.8056C43.7238 67.8654 43.4947 67.8417 43.2972 67.7391C43.0997 67.6365 42.9485 67.4627 42.8742 67.2529C42.8396 67.1434 42.8277 67.0279 42.8392 66.9135C42.8507 66.7992 42.8854 66.6884 42.9412 66.5879C42.997 66.4874 43.0726 66.3994 43.1635 66.3291C43.2544 66.2588 43.3587 66.2078 43.47 66.1791L81.3309 56.4331C82.3392 56.944 82.0739 57.9889 81.3589 58.1729Z" fill="#E2E2E2"/>
<path d="M82.4663 62.4747L45.0455 72.1074C44.8312 72.1672 44.6021 72.1434 44.4046 72.0408C44.2071 71.9382 44.0559 71.7645 43.9816 71.5547C43.947 71.4451 43.9351 71.3296 43.9466 71.2153C43.9582 71.1009 43.9929 70.9902 44.0486 70.8897C44.1044 70.7892 44.18 70.7011 44.2709 70.6308C44.3619 70.5605 44.4662 70.5095 44.5774 70.4809L82.4384 60.7349C83.4466 61.2457 83.1813 62.2906 82.4663 62.4747L82.4663 62.4747Z" fill="#E2E2E2"/>
<path d="M83.5737 66.7742L46.153 76.4069C45.9386 76.4668 45.7095 76.443 45.512 76.3404C45.3145 76.2378 45.1633 76.0641 45.089 75.8543C45.0544 75.7447 45.0425 75.6292 45.0541 75.5149C45.0656 75.4005 45.1003 75.2897 45.156 75.1892C45.2118 75.0887 45.2874 75.0007 45.3784 74.9304C45.4693 74.8601 45.5736 74.8091 45.6849 74.7804L83.5458 65.0344C84.554 65.5453 84.2887 66.5902 83.5737 66.7742Z" fill="#E2E2E2"/>
<path d="M44.0525 106.343C43.9165 106.378 43.7727 106.368 43.6428 106.315L43.6348 106.311L41.9332 105.59C41.8542 105.557 41.7826 105.508 41.7225 105.447C41.6623 105.386 41.6148 105.313 41.5827 105.234C41.5506 105.154 41.5344 105.069 41.5352 104.983C41.5359 104.898 41.5536 104.813 41.5872 104.734C41.6207 104.655 41.6695 104.584 41.7307 104.524C41.792 104.463 41.8644 104.416 41.944 104.384C42.0235 104.352 42.1086 104.336 42.1944 104.337C42.2801 104.338 42.3648 104.356 42.4437 104.389L43.5463 104.858L44.9911 101.459C45.0246 101.381 45.0733 101.309 45.1345 101.249C45.1956 101.189 45.2679 101.142 45.3473 101.11C45.4267 101.078 45.5117 101.062 45.5973 101.063C45.6829 101.063 45.7676 101.081 45.8464 101.114L45.8466 101.115L45.8379 101.137L45.8469 101.114C46.006 101.182 46.1316 101.311 46.1963 101.471C46.2609 101.631 46.2593 101.811 46.1918 101.97L44.4919 105.966C44.4525 106.058 44.3924 106.14 44.3163 106.205C44.2401 106.271 44.15 106.317 44.0529 106.342L44.0525 106.343Z" fill="white"/>
<path d="M148.724 149.432H65.7557C62.9422 149.429 60.2448 148.31 58.2553 146.32C56.2658 144.331 55.1467 141.633 55.1436 138.82V41.3803C55.1467 38.5667 56.2658 35.8693 58.2553 33.8798C60.2448 31.8903 62.9422 30.7712 65.7557 30.7681H142.944L159.336 43.8336V138.82C159.333 141.633 158.214 144.331 156.224 146.32C154.235 148.31 151.537 149.429 148.724 149.432Z" fill="#EDEDED"/>
<path d="M65.7554 33.823C63.7518 33.8253 61.8309 34.6222 60.4142 36.0389C58.9974 37.4557 58.2005 39.3766 58.1982 41.3802V138.819C58.2005 140.823 58.9974 142.744 60.4142 144.161C61.8309 145.577 63.7518 146.374 65.7554 146.377H148.724C150.727 146.374 152.648 145.577 154.065 144.161C155.482 142.744 156.278 140.823 156.281 138.819V45.3053L141.875 33.823H65.7554Z" fill="white"/>
<path d="M132.585 62.156H94.8112C94.3425 62.156 93.893 61.9698 93.5616 61.6384C93.2301 61.307 93.0439 60.8575 93.0439 60.3888C93.0439 59.9201 93.2301 59.4706 93.5616 59.1392C93.893 58.8078 94.3425 58.6216 94.8112 58.6216H132.585C133.054 58.6216 133.504 58.8078 133.835 59.1392C134.166 59.4706 134.353 59.9201 134.353 60.3888C134.353 60.8575 134.166 61.307 133.835 61.6384C133.504 61.9698 133.054 62.156 132.585 62.156Z" fill="#003BB3"/>
<path d="M139.877 68.1204H94.8127C94.3444 68.1197 93.8955 67.9333 93.5646 67.6019C93.2337 67.2706 93.0479 66.8214 93.0479 66.3531C93.0479 65.8849 93.2337 65.4357 93.5646 65.1044C93.8955 64.773 94.3444 64.5866 94.8127 64.5859H139.877C140.109 64.5856 140.339 64.6311 140.554 64.7198C140.768 64.8084 140.963 64.9386 141.128 65.1027C141.292 65.2668 141.423 65.4617 141.511 65.6763C141.6 65.8909 141.646 66.1209 141.646 66.3531C141.646 66.5854 141.6 66.8154 141.511 67.03C141.423 67.2445 141.292 67.4395 141.128 67.6036C140.963 67.7677 140.768 67.8979 140.554 67.9865C140.339 68.0752 140.109 68.1207 139.877 68.1204Z" fill="#003BB3"/>
<path d="M132.587 85.3499H94.814C94.3453 85.3499 93.8958 85.536 93.5644 85.8674C93.233 86.1988 93.0469 86.6483 93.0469 87.1169C93.0469 87.5856 93.233 88.0351 93.5644 88.3665C93.8958 88.6979 94.3453 88.884 94.814 88.884H132.587C133.056 88.884 133.505 88.6979 133.836 88.3665C134.168 88.0351 134.354 87.5856 134.354 87.1169C134.354 86.6483 134.168 86.1988 133.836 85.8674C133.505 85.536 133.056 85.3499 132.587 85.3499Z" fill="#D3CCCC"/>
<path d="M139.877 91.3152H94.814C94.3453 91.3152 93.8958 91.5014 93.5644 91.8328C93.233 92.1642 93.0469 92.6136 93.0469 93.0823C93.0469 93.551 93.233 94.0004 93.5644 94.3318C93.8958 94.6632 94.3453 94.8494 94.814 94.8494H139.877C140.346 94.8494 140.795 94.6632 141.127 94.3318C141.458 94.0004 141.644 93.551 141.644 93.0823C141.644 92.6136 141.458 92.1642 141.127 91.8328C140.795 91.5014 140.346 91.3152 139.877 91.3152Z" fill="#D3CCCC"/>
<path d="M132.585 115.614H94.8112C94.3425 115.614 93.893 115.428 93.5616 115.097C93.2301 114.765 93.0439 114.316 93.0439 113.847C93.0439 113.378 93.2301 112.929 93.5616 112.597C93.893 112.266 94.3425 112.08 94.8112 112.08H132.585C133.054 112.08 133.504 112.266 133.835 112.597C134.166 112.929 134.353 113.378 134.353 113.847C134.353 114.316 134.166 114.765 133.835 115.097C133.504 115.428 133.054 115.614 132.585 115.614Z" fill="#D3CCCC"/>
<path d="M139.877 121.579H94.8127C94.3444 121.578 93.8955 121.392 93.5646 121.06C93.2337 120.729 93.0479 120.28 93.0479 119.811C93.0479 119.343 93.2337 118.894 93.5646 118.563C93.8955 118.231 94.3444 118.045 94.8127 118.044H139.877C140.109 118.044 140.339 118.089 140.554 118.178C140.768 118.267 140.963 118.397 141.128 118.561C141.292 118.725 141.423 118.92 141.511 119.135C141.6 119.349 141.646 119.579 141.646 119.811C141.646 120.044 141.6 120.274 141.511 120.488C141.423 120.703 141.292 120.898 141.128 121.062C140.963 121.226 140.768 121.356 140.554 121.445C140.339 121.533 140.109 121.579 139.877 121.579Z" fill="#D3CCCC"/>
<path d="M79.0821 69.617C82.5317 69.617 85.3282 66.8205 85.3282 63.3709C85.3282 59.9212 82.5317 57.1248 79.0821 57.1248C75.6324 57.1248 72.8359 59.9212 72.8359 63.3709C72.8359 66.8205 75.6324 69.617 79.0821 69.617Z" fill="#003BB3"/>
<path d="M78.463 65.7534C78.3225 65.7537 78.1857 65.7082 78.0733 65.6239L78.0663 65.6187L76.5984 64.4958C76.5302 64.4437 76.4729 64.3787 76.4299 64.3045C76.3868 64.2303 76.3588 64.1484 76.3475 64.0633C76.3362 63.9783 76.3417 63.8919 76.3639 63.809C76.386 63.7261 76.4242 63.6484 76.4764 63.5803C76.5286 63.5122 76.5937 63.4551 76.668 63.4122C76.7423 63.3693 76.8244 63.3415 76.9094 63.3304C76.9945 63.3192 77.0809 63.325 77.1637 63.3473C77.2466 63.3696 77.3242 63.408 77.3921 63.4603L78.3429 64.1895L80.5897 61.2583C80.6418 61.1903 80.7068 61.1333 80.781 61.0904C80.8551 61.0476 80.937 61.0198 81.0218 61.0085C81.1067 60.9973 81.193 61.0029 81.2757 61.0251C81.3585 61.0472 81.436 61.0854 81.504 61.1375L81.5042 61.1376L81.4902 61.157L81.5045 61.1376C81.6416 61.243 81.7313 61.3985 81.7539 61.5699C81.7766 61.7413 81.7302 61.9147 81.6251 62.0521L78.9824 65.4982C78.9213 65.5777 78.8427 65.6419 78.7527 65.686C78.6627 65.7301 78.5638 65.7529 78.4636 65.7527L78.463 65.7534Z" fill="white"/>
<path d="M85.971 90.0994C85.9714 90.9197 85.8101 91.7321 85.4964 92.4901C85.1827 93.2481 84.7227 93.9369 84.1428 94.5172C83.5629 95.0974 82.8743 95.5577 82.1165 95.8718C81.3586 96.1859 80.5463 96.3476 79.7259 96.3477C79.6723 96.3488 79.6186 96.3466 79.5651 96.3413C78.337 96.3098 77.1454 95.9168 76.1395 95.2115C75.1336 94.5061 74.358 93.5198 73.9099 92.3759C73.4617 91.232 73.3609 89.9813 73.62 88.7804C73.879 87.5795 74.4866 86.4816 75.3665 85.6243C76.2464 84.7669 77.3596 84.188 78.5668 83.9602C79.7741 83.7323 81.0217 83.8655 82.1536 84.3432C83.2855 84.8209 84.2514 85.6217 84.9304 86.6456C85.6094 87.6694 85.9714 88.8708 85.971 90.0994Z" fill="#D3CCCC"/>
<path d="M79.0821 123.075C82.5317 123.075 85.3282 120.279 85.3282 116.829C85.3282 113.379 82.5317 110.583 79.0821 110.583C75.6324 110.583 72.8359 113.379 72.8359 116.829C72.8359 120.279 75.6324 123.075 79.0821 123.075Z" fill="#D3CCCC"/>
<path d="M159.017 44.2542H146.177C145.24 44.2542 144.341 43.8819 143.678 43.219C143.015 42.5562 142.643 41.6572 142.643 40.7198V31.236C142.643 31.1945 142.654 31.1538 142.676 31.1187C142.698 31.0835 142.73 31.0552 142.767 31.0372C142.805 31.0191 142.846 31.0119 142.888 31.0165C142.929 31.021 142.968 31.0371 143.001 31.0629L159.155 43.8602C159.191 43.8887 159.217 43.9276 159.23 43.9717C159.242 44.0157 159.241 44.0626 159.226 44.106C159.211 44.1493 159.183 44.1868 159.145 44.2134C159.108 44.24 159.063 44.2542 159.017 44.2542Z" fill="#D3CCCC"/>
<path d="M85.9708 90.0995C85.9711 90.9198 85.8098 91.7322 85.4962 92.4902C85.1825 93.2482 84.7225 93.937 84.1426 94.5172C83.5627 95.0975 82.8741 95.5578 82.1162 95.8719C81.3584 96.186 80.5461 96.3477 79.7257 96.3478C79.6721 96.3489 79.6184 96.3467 79.5649 96.3414C78.758 94.3287 78.4469 92.1514 78.6579 89.9933C78.8689 87.8352 79.5958 85.7594 80.7773 83.9412C82.2303 84.1902 83.5484 84.9449 84.4988 86.0718C85.4491 87.1987 85.9705 88.6253 85.9708 90.0995Z" fill="#003BB3"/>
<path d="M93.0459 87.1186C93.0467 86.6497 93.2333 86.2003 93.5649 85.8688C93.8964 85.5373 94.3458 85.3507 94.8146 85.3499H104.227C104.777 86.4681 105.168 87.6576 105.388 88.884H94.8146C94.3461 88.8839 93.8968 88.698 93.5652 88.367C93.2336 88.036 93.0469 87.5871 93.0459 87.1186Z" fill="#003BB3"/>
<path d="M105.606 91.3152C105.607 92.5088 105.449 93.6973 105.137 94.8494H94.814C94.3453 94.8494 93.8958 94.6632 93.5644 94.3318C93.233 94.0004 93.0469 93.551 93.0469 93.0823C93.0469 92.6136 93.233 92.1642 93.5644 91.8328C93.8958 91.5014 94.3453 91.3152 94.814 91.3152H105.606Z" fill="#003BB3"/>
<path d="M128.896 113.111C128.629 113.548 128.2 113.861 127.703 113.981C127.205 114.102 126.681 114.02 126.244 113.753L103.731 100.022C103.515 99.8898 103.327 99.7166 103.177 99.5119C103.028 99.3072 102.921 99.0751 102.861 98.8289C102.801 98.5826 102.791 98.327 102.83 98.0767C102.869 97.8263 102.957 97.5861 103.089 97.3698C103.221 97.1535 103.394 96.9653 103.599 96.8159C103.803 96.6666 104.036 96.559 104.282 96.4993C104.528 96.4397 104.784 96.4291 105.034 96.4682C105.284 96.5073 105.525 96.5954 105.741 96.7273L128.253 110.459C128.69 110.725 129.003 111.155 129.124 111.652C129.244 112.149 129.162 112.674 128.896 113.111Z" fill="#363740"/>
<path d="M106.382 99.3795C104.793 101.986 102.466 104.062 99.6959 105.346C96.926 106.63 93.8376 107.064 90.8213 106.592C87.805 106.121 84.9961 104.766 82.75 102.698C80.5039 100.63 78.9214 97.943 78.2025 94.9759C77.4837 92.0088 77.6609 88.8952 78.7116 86.0287C79.7624 83.1623 81.6395 80.6719 84.1057 78.8723C86.5719 77.0727 89.5163 76.0449 92.5666 75.9187C95.6169 75.7925 98.6362 76.5737 101.243 78.1635C104.734 80.2985 107.236 83.7313 108.199 87.7087C109.163 91.6861 108.51 95.8833 106.382 99.3795ZM83.321 85.3129C82.1287 87.2677 81.5428 89.5321 81.6374 91.8199C81.7321 94.1076 82.503 96.3159 83.8526 98.1655C85.2023 100.015 87.0702 101.423 89.22 102.211C91.3698 102.999 93.705 103.132 95.9303 102.593C98.1557 102.054 100.171 100.867 101.722 99.1823C103.273 97.4977 104.289 95.3911 104.643 93.1288C104.996 90.8666 104.671 88.5503 103.708 86.4729C102.745 84.3955 101.188 82.6503 99.233 81.458C96.6109 79.8627 93.463 79.3726 90.4799 80.0952C87.4969 80.8179 84.9223 82.6944 83.321 85.3129Z" fill="#363740"/>
<path d="M155.839 93.8163C160.201 93.8163 163.737 90.2801 163.737 85.9179C163.737 81.5558 160.201 78.0195 155.839 78.0195C151.477 78.0195 147.94 81.5558 147.94 85.9179C147.94 90.2801 151.477 93.8163 155.839 93.8163Z" fill="#9E616A"/>
<path d="M155.328 130.197C155.176 129.722 155.126 129.221 155.181 128.725C155.236 128.23 155.395 127.752 155.647 127.322C155.9 126.892 156.241 126.521 156.647 126.232C157.053 125.943 157.516 125.744 158.005 125.646C158.16 125.616 158.316 125.596 158.474 125.588L166.794 112.235L159.194 105.01C158.904 104.734 158.671 104.403 158.509 104.037C158.347 103.67 158.26 103.275 158.251 102.875C158.243 102.474 158.314 102.076 158.461 101.703C158.607 101.33 158.826 100.99 159.105 100.702C159.383 100.414 159.716 100.184 160.084 100.026C160.452 99.8674 160.848 99.7834 161.249 99.7788C161.649 99.7741 162.047 99.8489 162.418 99.9987C162.79 100.149 163.128 100.371 163.414 100.652L173.907 110.998L173.928 111.024C174.252 111.518 174.409 112.103 174.374 112.693C174.34 113.283 174.116 113.847 173.736 114.299L162.079 128.086C162.114 128.197 162.143 128.309 162.166 128.423C162.263 128.912 162.257 129.416 162.146 129.902C162.035 130.388 161.823 130.845 161.523 131.243C161.223 131.641 160.842 131.972 160.406 132.212C159.969 132.453 159.487 132.599 158.99 132.641C158.89 132.65 158.79 132.654 158.691 132.654C157.943 132.651 157.215 132.412 156.611 131.97C156.008 131.529 155.559 130.908 155.328 130.197Z" fill="#9E616A"/>
<path d="M142.831 195.844L138.888 195.843L137.013 180.636L142.831 180.637L142.831 195.844Z" fill="#9E616A"/>
<path d="M143.837 199.665L131.125 199.665V199.504C131.125 198.854 131.253 198.211 131.502 197.611C131.75 197.01 132.115 196.465 132.574 196.005C133.034 195.546 133.579 195.181 134.179 194.933C134.78 194.684 135.423 194.556 136.073 194.556H136.073L143.838 194.556L143.837 199.665Z" fill="#363740"/>
<path d="M182.018 190.393L178.63 192.41L169.238 180.303L174.238 177.326L182.018 190.393Z" fill="#9E616A"/>
<path d="M184.837 193.162L173.914 199.666L173.831 199.528C173.499 198.969 173.28 198.351 173.186 197.708C173.093 197.065 173.127 196.41 173.287 195.78C173.446 195.15 173.728 194.558 174.117 194.037C174.506 193.516 174.993 193.077 175.551 192.745L175.552 192.745L182.223 188.772L184.837 193.162Z" fill="#363740"/>
<path d="M136.515 189.146C133.874 158.047 132.303 129.157 141.958 117.371L142.032 117.28L158.281 123.78L158.307 123.838C158.362 123.957 163.766 135.843 162.505 143.838L166.513 162.274L179.581 184.155C179.686 184.331 179.753 184.527 179.776 184.731C179.8 184.935 179.78 185.141 179.717 185.337C179.655 185.532 179.552 185.712 179.414 185.865C179.277 186.017 179.109 186.139 178.921 186.222L173.243 188.72C172.922 188.86 172.562 188.879 172.228 188.775C171.895 188.67 171.61 188.45 171.426 188.152L157.211 164.973L149.182 147.194C149.138 147.097 149.064 147.018 148.971 146.968C148.877 146.917 148.77 146.899 148.666 146.916C148.561 146.933 148.465 146.984 148.392 147.061C148.319 147.137 148.274 147.236 148.262 147.341L143.812 189.178C143.774 189.534 143.607 189.863 143.341 190.102C143.075 190.341 142.73 190.473 142.373 190.472H137.958C137.596 190.47 137.247 190.333 136.98 190.088C136.714 189.843 136.548 189.507 136.515 189.146Z" fill="#363740"/>
<path d="M142.013 117.618L141.936 117.581L141.924 117.496C141.317 113.248 142.035 108.528 144.059 103.467C145.056 100.99 146.911 98.9539 149.283 97.7295C151.656 96.5051 154.39 96.1739 156.987 96.7963C158.483 97.1649 159.886 97.8401 161.107 98.7791C162.328 99.7182 163.341 100.901 164.081 102.252C164.812 103.589 165.257 105.063 165.389 106.581C165.52 108.099 165.335 109.628 164.844 111.071C162.293 118.532 158.983 125.512 158.95 125.582L158.881 125.728L142.013 117.618Z" fill="#003BB3"/>
<path d="M124.285 107.037C124.676 106.728 125.128 106.505 125.612 106.383C126.095 106.261 126.599 106.243 127.09 106.329C127.58 106.415 128.048 106.604 128.46 106.884C128.873 107.163 129.222 107.527 129.485 107.95C129.568 108.085 129.641 108.225 129.703 108.37L145.125 111.486L149.231 101.838C149.388 101.469 149.616 101.135 149.903 100.855C150.189 100.575 150.528 100.355 150.901 100.207C151.273 100.059 151.671 99.986 152.072 99.9926C152.472 99.9992 152.867 100.085 153.235 100.245C153.602 100.406 153.934 100.637 154.211 100.926C154.488 101.215 154.706 101.557 154.85 101.93C154.995 102.304 155.064 102.702 155.054 103.103C155.044 103.503 154.954 103.898 154.791 104.264L148.774 117.716L148.757 117.744C148.408 118.221 147.915 118.573 147.35 118.747C146.785 118.922 146.179 118.909 145.622 118.712L128.626 112.621C128.535 112.693 128.44 112.759 128.341 112.82C127.917 113.083 127.443 113.253 126.949 113.319C126.455 113.386 125.952 113.347 125.474 113.205C124.996 113.064 124.554 112.823 124.175 112.499C123.797 112.174 123.491 111.774 123.278 111.323C123.235 111.232 123.196 111.14 123.161 111.047C122.902 110.345 122.871 109.58 123.073 108.86C123.275 108.14 123.699 107.502 124.285 107.037Z" fill="#9E616A"/>
<path d="M184.373 94.3765C183.612 93.0285 182.504 91.7938 181.038 91.2955C179.146 90.652 177.097 91.3372 175.151 91.7946C173.652 92.1471 172.086 92.3628 170.575 92.0654C169.064 91.7679 167.606 90.8886 166.919 89.5107C165.907 87.4836 166.759 85.0662 166.698 82.8017C166.666 81.5689 166.355 80.3594 165.788 79.2644C165.221 78.1693 164.413 77.2173 163.424 76.48C162.436 75.7427 161.293 75.2395 160.082 75.0081C158.871 74.7768 157.623 74.8235 156.432 75.1446C154.569 74.6069 152.882 74.5572 151.73 75.9895C150.28 75.9895 148.889 76.5654 147.864 77.5907C146.839 78.6159 146.263 80.0064 146.263 81.4563H151.49C151.242 82.7893 151.526 84.1663 152.279 85.2932C153.202 86.6489 154.807 87.6296 155.116 89.2403C155.415 90.8011 154.354 92.282 153.241 93.4166C152.128 94.5511 150.837 95.6753 150.49 97.2261C150.277 98.4034 150.519 99.6176 151.166 100.624C151.813 101.617 152.615 102.501 153.541 103.24C157.717 106.817 162.68 109.356 168.025 110.649C171.789 111.555 175.905 111.79 179.399 110.123C180.797 109.456 182.043 108.509 183.059 107.341C184.075 106.172 184.84 104.807 185.307 103.33C185.773 101.853 185.931 100.297 185.77 98.7563C185.61 97.216 185.134 95.7251 184.373 94.3765Z" fill="#363740"/>
<path d="M185.553 200H124.452C124.367 200 124.285 199.966 124.225 199.906C124.165 199.845 124.131 199.764 124.131 199.678C124.131 199.593 124.165 199.511 124.225 199.451C124.285 199.391 124.367 199.357 124.452 199.357H185.553C185.638 199.357 185.72 199.391 185.78 199.451C185.841 199.511 185.875 199.593 185.875 199.678C185.875 199.764 185.841 199.845 185.78 199.906C185.72 199.966 185.638 200 185.553 200Z" fill="#D3CCCC"/>
</g>
<defs>
<clipPath id="clip0_1_100347">
<rect width="185.875" height="200" fill="white"/>
</clipPath>
</defs>
</svg>
