<svg width="17" height="16" viewBox="0 0 17 16" fill="none" xmlns="http://www.w3.org/2000/svg">
  <path d="M15.8743 0H1.125C0.779786 0 0.5 0.279786 0.5 0.625001C0.5 2.36548 1.2461 4.02711 2.547 5.18348L5.28419 7.61635C5.7588 8.03823 6.03102 8.64443 6.03102 9.27956V15.3743C6.03102 15.8724 6.58766 16.1709 7.00258 15.8942L10.69 13.4361C10.8638 13.3201 10.9683 13.125 10.9683 12.916V9.27956C10.9683 8.64443 11.2405 8.03823 11.7151 7.61635L14.4522 5.18348C15.7531 4.02711 16.4992 2.36548 16.4992 0.625001C16.4992 0.279786 16.2194 0 15.8743 0ZM13.6217 4.24916L10.8847 6.68214C10.1435 7.34108 9.71828 8.28774 9.71828 9.27944V12.5816L7.2809 14.2065V9.27956C7.2809 8.28774 6.85573 7.34108 6.11451 6.68214L3.37745 4.24928C2.50025 3.46937 1.94031 2.40076 1.79041 1.24988H15.2088C15.0589 2.40076 14.4991 3.46937 13.6217 4.24916Z" fill="#363740"/>
</svg>
