<svg width="22" height="22" viewBox="0 0 22 22" fill="none" xmlns="http://www.w3.org/2000/svg">
  <path d="M21.888 0.900949C21.7901 0.815054 21.6507 0.795125 21.5326 0.849912L0.190292 10.7662C0.0753918 10.8196 0.00140081 10.9342 1.96414e-05 11.0609C-0.00136152 11.1875 0.070196 11.3038 0.183978 11.3596L6.22382 14.3237C6.33457 14.3781 6.46664 14.3658 6.56556 14.2919L12.4379 9.90279L7.82788 14.6448C7.76211 14.7125 7.72856 14.8051 7.7358 14.8992L8.19481 20.8769C8.205 21.0094 8.29379 21.1227 8.42 21.1642C8.45374 21.1752 8.4884 21.1806 8.52267 21.1806C8.61665 21.1806 8.70807 21.1403 8.77167 21.0666L11.9774 17.3518L15.9404 19.2453C16.0264 19.2864 16.126 19.2881 16.2134 19.2501C16.3008 19.2121 16.3674 19.138 16.3959 19.0471L21.9849 1.2467C22.024 1.1224 21.9859 0.986844 21.888 0.900949Z" fill="black"/>
</svg>
