<svg width="14" height="12" viewBox="0 0 14 12" fill="none" xmlns="http://www.w3.org/2000/svg">
  <path d="M4.33203 11.335C3.11554 11.3356 2.05282 10.5128 1.7487 9.33496H0.332031V8.00163H1.74936C2.09579 6.65993 3.41211 5.80713 4.77822 6.03934C6.14433 6.27155 7.10495 7.51138 6.98861 8.89219C6.87226 10.273 5.71774 11.3346 4.33203 11.335ZM4.33203 7.33496C3.60363 7.3357 3.01062 7.92086 3.00019 8.64919C2.98975 9.37752 3.56574 9.97943 4.29382 10.001C5.02191 10.0227 5.63259 9.45596 5.66536 8.7283V8.99496V8.6683C5.66536 7.93192 5.06841 7.33496 4.33203 7.33496ZM13.6654 9.33496H7.66536V8.00163H13.6654V9.33496ZM7.66536 6.00163C6.44912 6.00194 5.38676 5.17926 5.0827 4.00163H0.332031V2.6683H5.0827C5.42912 1.32659 6.74544 0.473797 8.11155 0.706006C9.47766 0.938214 10.4383 2.17804 10.3219 3.55885C10.2056 4.93967 9.05107 6.00128 7.66536 6.00163ZM7.66536 2.00163C6.93696 2.00237 6.34396 2.58753 6.33352 3.31586C6.32308 4.04419 6.89908 4.6461 7.62716 4.66771C8.35524 4.68932 8.96592 4.12263 8.9987 3.39496V3.66163V3.33496C8.9987 2.59858 8.40174 2.00163 7.66536 2.00163ZM13.6654 4.00163H10.9987V2.6683H13.6654V4.00163Z" fill="black"/>
</svg>
