<svg width="24" height="24" viewBox="0 0 24 24" fill="none" xmlns="http://www.w3.org/2000/svg">
  <g clip-path="url(#clip0_999:41454)">
    <path d="M18.3647 6.59081L12.2397 4.04778C12.0862 3.98409 11.9137 3.98406 11.7603 4.04778L5.63534 6.59081C5.40206 6.68768 5.25 6.91543 5.25 7.16803V10.2594C5.25 14.5161 7.82278 18.3451 11.7638 19.9537C11.9152 20.0154 12.0848 20.0154 12.2362 19.9537C16.1772 18.3451 18.75 14.5161 18.75 10.2594V7.16803C18.75 6.91543 18.598 6.68768 18.3647 6.59081ZM17.5 10.2594C17.5 13.878 15.375 17.2092 12 18.6961C8.71519 17.2489 6.5 13.9761 6.5 10.2594V7.58528L12 5.30171L17.5 7.58528V10.2594ZM11.3092 12.3661L13.9956 9.67978C14.2396 9.43572 14.6353 9.43568 14.8794 9.67978C15.1235 9.92387 15.1235 10.3196 14.8794 10.5637L11.7511 13.6919C11.507 13.9361 11.1113 13.936 10.8672 13.6919L9.12056 11.9452C8.87647 11.7012 8.87647 11.3054 9.12056 11.0614C9.36466 10.8173 9.76038 10.8173 10.0044 11.0614L11.3092 12.3661Z" fill="black"/>
  </g>
  <defs>
    <clipPath id="clip0_999:41454">
      <rect width="16" height="16" fill="white" transform="translate(4 4)"/>
    </clipPath>
  </defs>
</svg>
