<svg width="16" height="16" viewBox="0 0 16 16" fill="none" xmlns="http://www.w3.org/2000/svg">
  <path d="M14.9468 2.23976C14.9181 2.03346 14.7696 1.86377 14.569 1.808L8.13833 0.0196255C8.04665 -0.0058908 7.94982 -0.0058908 7.85807 0.0196255L1.42739 1.808C1.22675 1.86377 1.07832 2.0334 1.0496 2.23976C1.0123 2.50796 0.161407 8.84493 2.34389 11.9974C4.52379 15.1461 7.73962 15.953 7.87543 15.9858C7.91579 15.9956 7.95693 16.0004 7.9982 16.0004C8.03947 16.0004 8.08061 15.9955 8.12097 15.9858C8.25685 15.953 11.4727 15.1461 13.6525 11.9974C15.835 8.845 14.9841 2.50803 14.9468 2.23976ZM12.1452 5.93935L7.75879 10.3257C7.65673 10.4278 7.52287 10.4789 7.38908 10.4789C7.2553 10.4789 7.12144 10.4279 7.01938 10.3257L4.30732 7.61367C4.20923 7.51565 4.15416 7.38263 4.15416 7.24396C4.15416 7.10529 4.2093 6.97227 4.30732 6.87425L4.84582 6.33576C5.05002 6.13163 5.3811 6.13156 5.58523 6.33576L7.38908 8.13961L10.8673 4.66137C10.9653 4.56328 11.0983 4.5082 11.237 4.5082C11.3756 4.5082 11.5086 4.56328 11.6067 4.66137L12.1452 5.19986C12.3494 5.40406 12.3494 5.73515 12.1452 5.93935Z" fill="black"/>
</svg>
