<svg width="85" height="21" viewBox="0 0 85 21" fill="none" xmlns="http://www.w3.org/2000/svg">
<path d="M31.0375 2.75781L30.9861 3.92018H27.0835V17.1397H25.6776V3.94317H21.6914V2.75781H31.0375Z" fill="#4A494E"/>
<path d="M27.5593 17.6249H25.201V4.41199H21.2148V2.27441H31.5326L31.4425 4.40543H27.5593V17.6249ZM26.1533 16.6399H26.607V3.4335H30.532V3.24306H22.1672V3.44335H26.1533V16.6399Z" fill="#4A494E"/>
<path d="M44.7237 17.1982H43.3789V2.8623H44.7655C47.3394 6.84632 49.9303 10.8413 52.5384 14.8472L52.6189 14.8242V2.8623H53.9959V17.1982H52.6189C50.03 13.1923 47.4294 9.17435 44.817 5.14436L44.7237 5.16734V17.1982Z" fill="#4A494E"/>
<path d="M54.4618 17.6815H52.3545L45.1897 6.61271V17.6815H42.8926V2.37695H45.0095L52.1229 13.3637V2.37695H54.4522L54.4618 17.6815ZM52.8532 16.6964H53.4967V3.34888H53.0881V15.1893L52.3288 15.4159L44.498 3.34888H43.8545V16.7129H44.2503V4.79363L45.0321 4.58677L52.8532 16.6964Z" fill="#4A494E"/>
<path d="M75.351 12.0924C75.1162 13.7342 76.4031 15.5336 78.1275 16.0327C79.852 16.5318 82.1491 16.0852 82.9341 13.7014H84.3465C84.1514 14.5888 83.6904 15.3921 83.0274 15.9998C81.8595 17.0867 80.4536 17.4282 78.9061 17.3395C78.077 17.3023 77.2677 17.0696 76.5414 16.6598C75.9783 16.3454 75.4817 15.9204 75.0803 15.4093C74.6789 14.8982 74.3805 14.311 74.2025 13.6817C73.7372 12.2194 73.7655 10.6402 74.2829 9.19635C74.9843 7.24593 76.4031 6.14595 78.4074 5.84714C79.8274 5.58662 81.2907 5.90749 82.4805 6.74027C83.0663 7.15665 83.5524 7.70283 83.9023 8.33796C84.2521 8.97309 84.4568 9.68074 84.5009 10.408C84.5524 10.9498 84.5009 11.4981 84.5009 12.0859L75.351 12.0924ZM83.1497 10.9465C83.1497 9.505 82.6864 8.3492 81.4863 7.58742C80.7943 7.16669 80.0005 6.95257 79.1952 6.9694C78.3898 6.98623 77.6053 7.23334 76.9307 7.68264C75.8433 8.47725 75.3768 9.59366 75.2995 10.9465H83.1497Z" fill="#4A494E"/>
<path d="M79.3611 17.8422C79.2034 17.8422 79.0394 17.8422 78.8817 17.8422C77.9798 17.7995 77.0994 17.5468 76.3079 17.1034C75.6897 16.7596 75.1441 16.2946 74.7024 15.7351C74.2607 15.1755 73.9317 14.5325 73.7341 13.8428C73.2366 12.2798 73.2683 10.5914 73.8242 9.04889C74.5641 6.98027 76.1213 5.71282 78.3283 5.38775C79.8704 5.10921 81.4579 5.46322 82.7456 6.37281C83.3878 6.82965 83.9211 7.42809 84.3059 8.1238C84.6907 8.81951 84.9173 9.59467 84.9688 10.3919C84.9966 10.7863 85.0019 11.1821 84.9848 11.5772C84.9848 11.7512 84.9848 11.9351 84.9848 12.1157V12.5787H75.8028C75.8511 13.8494 76.9095 15.1727 78.2543 15.5536C79.8244 16.0001 81.8191 15.5536 82.485 13.5375L82.5944 13.2091H84.9398L84.8111 13.7936C84.5941 14.7811 84.0827 15.6758 83.3473 16.3548C82.2583 17.3602 80.8287 17.8936 79.3611 17.8422ZM79.4158 6.26446C79.1013 6.26486 78.7873 6.28901 78.4763 6.33669C76.6168 6.60923 75.3556 7.6304 74.7314 9.37068C74.2495 10.7131 74.2246 12.1821 74.6607 13.5408C74.8215 14.1106 75.091 14.6423 75.4537 15.1055C75.8164 15.5687 76.2653 15.9542 76.7744 16.2398C77.4381 16.6124 78.1766 16.8247 78.9332 16.8604C80.5 16.9491 81.7354 16.5518 82.707 15.6455C83.1486 15.243 83.4913 14.7402 83.7076 14.1778H83.2636C83.0633 14.6839 82.7614 15.1417 82.3775 15.5217C81.9935 15.9017 81.5359 16.1955 81.0341 16.3843C80.0577 16.7383 78.9978 16.775 78.0002 16.4894C76.0409 15.9345 74.6124 13.8888 74.8827 12.0238L74.9406 11.61H84.0422C84.0422 11.5838 84.0422 11.5575 84.0422 11.5312C84.058 11.1744 84.0527 10.817 84.0261 10.4608C83.9864 9.80386 83.8021 9.1645 83.4868 8.59032C83.1715 8.01614 82.7334 7.52192 82.2051 7.14444C81.3901 6.55699 80.4134 6.24885 79.4158 6.26446ZM83.6304 11.4327H74.7958L74.8247 10.9172C74.918 9.30829 75.5197 8.11965 76.6554 7.30534C77.4086 6.80459 78.2839 6.52851 79.1826 6.5082C80.0813 6.4879 80.9677 6.72418 81.7418 7.19041C83.003 7.99488 83.6207 9.2262 83.6272 10.9599L83.6304 11.4327ZM75.8285 10.4477H82.6555C82.6373 9.94939 82.4982 9.46352 82.2505 9.03368C82.0029 8.60385 81.6545 8.24351 81.2367 7.98503C80.625 7.61332 79.9235 7.42372 79.2117 7.43764C78.4999 7.45157 77.8061 7.66847 77.2087 8.06383C76.8252 8.34058 76.5038 8.69745 76.2659 9.11072C76.0279 9.52399 75.8788 9.98421 75.8285 10.4608V10.4477Z" fill="#4A494E"/>
<path d="M30.8894 11.5872C30.8894 9.92243 31.3463 8.43827 32.556 7.26277C33.4969 6.35288 34.7348 5.83113 36.0306 5.79831C37.9867 5.70965 39.6661 6.32696 40.8565 7.97858C41.4767 8.85366 41.8334 9.89434 41.8828 10.9732C42.0141 12.2196 41.7765 13.4777 41.2008 14.585C40.7933 15.343 40.2103 15.9877 39.5026 16.4627C38.7948 16.9378 37.9839 17.2288 37.1406 17.3104C36.0919 17.472 35.0198 17.3309 34.0456 16.9032C32.1152 16.0364 31.15 14.4471 30.9055 12.3588C30.8894 12.1716 30.8894 11.9878 30.8894 11.8039C30.8701 11.7317 30.8894 11.6594 30.8894 11.5872ZM40.5026 11.4952C40.5026 11.3967 40.4833 11.2293 40.4737 11.0585C40.3417 8.80931 39.0034 7.2956 36.8188 7.01978C35.9583 6.88922 35.0797 7.05536 34.3222 7.49191C33.5646 7.92845 32.9714 8.61045 32.6364 9.4299C32.1819 10.578 32.1062 11.8459 32.4209 13.0418C32.7941 14.5555 33.7078 15.5931 35.207 15.997C36.7642 16.4008 38.183 16.0823 39.3347 14.8904C40.2195 13.9743 40.4833 12.8087 40.5026 11.4952Z" fill="#4A494E"/>
<path d="M36.2743 17.8484C35.4409 17.8522 34.6159 17.6788 33.8517 17.3394C31.857 16.4496 30.7085 14.7914 30.4285 12.4141C30.4285 12.2631 30.406 12.1153 30.4028 11.9708C30.4028 11.9249 30.4028 11.8789 30.4028 11.8329C30.3996 11.7739 30.3996 11.7147 30.4028 11.6556V11.5932C30.4028 9.6231 30.9948 8.10611 32.2173 6.91747C33.2403 5.92601 34.5874 5.35736 35.9976 5.32167C38.2497 5.2166 40.016 6.0145 41.2418 7.69567C41.9167 8.64482 42.3048 9.77483 42.3581 10.9464C42.4958 12.2843 42.2381 13.6337 41.6182 14.8209C41.1725 15.642 40.5378 16.3401 39.7688 16.8549C38.9997 17.3698 38.1195 17.6859 37.2041 17.7761C36.8961 17.8214 36.5855 17.8455 36.2743 17.8484ZM36.3901 6.27718C36.2711 6.27718 36.1553 6.27718 36.0362 6.27718C34.8549 6.30439 33.7256 6.77829 32.8672 7.60701C31.8441 8.59207 31.3455 9.90549 31.3455 11.5768V11.7738C31.3455 11.8231 31.3455 11.8723 31.3455 11.9216C31.3455 12.0496 31.3455 12.1711 31.368 12.286C31.6061 14.3284 32.5423 15.6878 34.2249 16.4397C35.1196 16.8307 36.1034 16.9592 37.0658 16.8108C38.7709 16.5776 39.987 15.7633 40.7753 14.3284C41.3083 13.3073 41.5248 12.1451 41.3962 10.9956C41.3563 10.0099 41.0317 9.05828 40.4632 8.26044C39.4948 6.9306 38.1596 6.27718 36.3901 6.27718ZM36.4416 16.6466C35.9855 16.6447 35.5315 16.584 35.0904 16.466C33.4817 16.0424 32.3911 14.903 31.9632 13.1825C31.6221 11.8843 31.7045 10.508 32.198 9.26191C32.5714 8.34365 33.2342 7.57867 34.0814 7.08804C34.9287 6.59741 35.9121 6.40913 36.8759 6.553C39.2792 6.85837 40.801 8.53954 40.9458 11.0449C40.9458 11.1664 40.9458 11.2911 40.9683 11.3732V11.4881V11.4947C40.9683 12.5323 40.801 14.0427 39.6814 15.2215C39.2656 15.6726 38.7635 16.0317 38.2062 16.2768C37.649 16.5219 37.0484 16.6478 36.4416 16.6466ZM36.3065 7.47567C35.6213 7.46008 34.9475 7.65615 34.3734 8.03818C33.7993 8.42021 33.3517 8.97037 33.0892 9.61653C32.674 10.6712 32.6052 11.8349 32.893 12.9329C33.2372 14.3186 34.0576 15.192 35.3381 15.5236C35.979 15.7258 36.6627 15.7407 37.3115 15.5666C37.9603 15.3925 38.5484 15.0364 39.009 14.5386C39.6943 13.826 40.0128 12.8968 40.0353 11.5046V11.4323C40.0353 11.3338 40.0353 11.2058 40.0128 11.081C39.8969 9.04848 38.7259 7.74164 36.773 7.49209C36.6179 7.47755 36.4622 7.47207 36.3065 7.47567Z" fill="#4A494E"/>
<path d="M55.7668 11.5872C55.7668 9.92243 56.2236 8.43827 57.4365 7.26277C58.3763 6.35309 59.6131 5.83132 60.908 5.79831C62.8673 5.70965 64.5435 6.32696 65.7339 7.97858C66.3554 8.85294 66.7122 9.89404 66.7602 10.9732C66.8908 12.2192 66.6545 13.4768 66.0813 14.585C65.1901 16.2005 63.8035 17.0641 62.0179 17.3104C60.9692 17.4718 59.8972 17.3308 58.9229 16.9032C56.9926 16.0364 56.0274 14.4471 55.7861 12.3588C55.7636 12.1782 55.7636 11.9943 55.7539 11.8105C55.7636 11.7317 55.7668 11.6594 55.7668 11.5872ZM65.396 11.4952C65.396 11.3967 65.3767 11.2293 65.3671 11.0585C65.2384 8.80931 63.8968 7.2956 61.7123 7.01978C60.8517 6.88864 59.9729 7.05453 59.2152 7.49114C58.4575 7.92776 57.8643 8.61009 57.5298 9.4299C57.0737 10.5776 56.998 11.8461 57.3143 13.0418C57.6875 14.5555 58.6012 15.5931 60.0972 15.997C61.6576 16.4008 63.0732 16.0823 64.225 14.8904C65.1161 13.9743 65.38 12.8087 65.396 11.4952Z" fill="#4A494E"/>
<path d="M61.1703 17.8484C60.3369 17.8522 59.5119 17.6788 58.7477 17.3394C56.7562 16.4496 55.6045 14.7914 55.3278 12.4141C55.3085 12.2631 55.3053 12.1153 55.2988 11.9708C55.2988 11.9249 55.2988 11.8789 55.2988 11.8329C55.2988 11.7869 55.2988 11.7081 55.2988 11.6556V11.5932C55.2988 9.6231 55.8908 8.10611 57.1166 6.91747C58.1392 5.92548 59.4865 5.35673 60.8969 5.32167C63.1489 5.2166 64.9152 6.0145 66.1378 7.69567C66.8124 8.64526 67.2015 9.77482 67.2574 10.9464C67.3935 12.2842 67.1359 13.6332 66.5174 14.8209C66.0715 15.6418 65.4367 16.3398 64.6678 16.8546C63.8988 17.3694 63.0187 17.6857 62.1033 17.7761C61.7943 17.8213 61.4826 17.8454 61.1703 17.8484ZM61.2862 6.27718C61.1703 6.27718 61.0513 6.27718 60.9323 6.27718C59.752 6.30457 58.6237 6.77851 57.7665 7.60701C56.7402 8.59207 56.2447 9.90549 56.2447 11.5768V11.649C56.2447 11.6917 56.2447 11.7311 56.2447 11.7738C56.2447 11.8165 56.2447 11.8723 56.2447 11.9216C56.2447 12.0496 56.2447 12.1711 56.264 12.2828C56.5053 14.3284 57.4383 15.6878 59.1242 16.4397C60.0176 16.8309 61.0005 16.9594 61.9618 16.8108C63.6701 16.5776 64.883 15.7633 65.6745 14.3284C66.2056 13.3066 66.422 12.145 66.2954 10.9956C66.2556 10.0099 65.931 9.05828 65.3624 8.26044C64.394 6.9306 63.0621 6.27718 61.2862 6.27718ZM61.3376 16.6466C60.8826 16.6445 60.4297 16.5838 59.9896 16.466C58.381 16.0424 57.2871 14.903 56.8592 13.1825C56.5191 11.8839 56.6027 10.5077 57.0973 9.26191C57.468 8.34085 58.1298 7.57268 58.9774 7.07948C59.8249 6.58628 60.8097 6.39634 61.7752 6.53986C64.1785 6.84523 65.7002 8.5264 65.845 11.0317C65.845 11.1499 65.845 11.2714 65.8675 11.3601V11.4816V11.4947C65.8675 12.5323 65.7035 14.0427 64.5806 15.2215C64.1642 15.6726 63.6616 16.0318 63.1038 16.2769C62.546 16.5221 61.9449 16.6479 61.3376 16.6466ZM61.2025 7.47567C60.5171 7.45917 59.8429 7.65487 59.2686 8.03701C58.6944 8.41916 58.2469 8.96983 57.9852 9.61653C57.5668 10.6705 57.4979 11.8352 57.789 12.9329C58.13 14.3186 58.9536 15.192 60.2309 15.5236C60.8718 15.7258 61.5555 15.7407 62.2043 15.5666C62.8531 15.3925 63.4412 15.0364 63.9018 14.5386C64.5903 13.826 64.9056 12.8968 64.9281 11.5013V11.4225C64.9281 11.3273 64.912 11.2025 64.9056 11.0941C64.7865 9.06162 63.6187 7.75477 61.6658 7.50522C61.512 7.48663 61.3574 7.47676 61.2025 7.47567Z" fill="#4A494E"/>
<path d="M68.5719 7.12471H67.0469V5.96234H68.5654V3.1582H69.9328V5.95906H72.9827V7.11486H69.981C69.981 7.32172 69.9521 7.47933 69.9521 7.63366C69.9521 9.74169 69.9521 11.8497 69.9521 13.9545C69.9525 14.2949 69.9837 14.6345 70.0454 14.9691C70.0771 15.2212 70.193 15.4545 70.3734 15.6297C70.5539 15.8049 70.788 15.9113 71.0363 15.9311C71.4963 15.9903 71.9661 15.987 72.4326 16.0067C72.6063 16.0067 72.7833 16.0067 72.9795 16.0067V17.1231C72.8875 17.1451 72.7939 17.1594 72.6996 17.1658C72.1623 17.1658 71.6218 17.1658 71.091 17.1658C69.5081 17.1001 68.6105 16.1807 68.5912 14.5718C68.5622 12.2733 68.5912 9.99452 68.5751 7.70261L68.5719 7.12471Z" fill="#4A494E"/>
<path d="M71.8764 17.6579C71.6093 17.6579 71.3391 17.6579 71.0688 17.6579C69.2125 17.5824 68.1347 16.4627 68.1122 14.5845C68.0929 12.9756 68.0929 11.3404 68.1122 9.75774C68.1122 9.07477 68.1122 8.39179 68.1122 7.70882V7.62344H66.584V5.48915H68.1025V2.67188H70.4222V5.47273H73.4721V7.60046H70.4286V8.38851C70.4286 10.2142 70.4286 12.0989 70.4286 13.9705C70.4315 14.2811 70.4606 14.5909 70.5155 14.8965C70.5358 15.0426 70.606 15.1767 70.7137 15.2752C70.8214 15.3737 70.9597 15.4303 71.1042 15.435C71.426 15.4777 71.7477 15.4842 72.0694 15.4974H72.449C72.5552 15.4974 72.6678 15.4974 72.7901 15.4974H73.4528V17.5364L73.0539 17.6054H72.9799C72.8881 17.6276 72.7943 17.6397 72.7 17.6415H71.8764V17.6579ZM67.5234 6.63838H69.0484V9.74789C69.0484 11.324 69.0484 12.9559 69.0484 14.5616C69.0645 15.9078 69.7498 16.6203 71.0914 16.6729C71.4967 16.6729 71.915 16.6729 72.3171 16.6729H72.4941V16.4857H72.4008H72.0308C71.6738 16.4818 71.3173 16.4588 70.9627 16.4167C70.6143 16.3849 70.2865 16.2341 70.0326 15.9886C69.7786 15.7431 69.6132 15.4173 69.5632 15.0639C69.5079 14.6979 69.4853 14.3276 69.4956 13.9574C69.4956 12.1022 69.4956 10.2142 69.4956 8.37537V7.62016C69.4956 7.49867 69.4956 7.38046 69.5149 7.25569C69.5149 7.19987 69.5149 7.13748 69.5149 7.07181L69.5439 6.61868H72.5134V6.43152H69.4634V3.64052H69.0452V6.44794H67.5299L67.5234 6.63838Z" fill="#4A494E"/>
<path d="M19.5546 11.0751C19.4266 11.2894 19.3442 11.5287 19.3126 11.7776C19.281 12.0265 19.301 12.2793 19.3712 12.5198C19.4698 12.8418 19.4619 13.188 19.3486 13.5049C19.2182 13.8286 18.9936 14.1036 18.7052 14.2929C18.4845 14.4311 18.3015 14.624 18.1733 14.8536C18.045 15.0832 17.9757 15.3421 17.9717 15.6064C17.9517 15.9562 17.8196 16.2896 17.5958 16.5554C17.372 16.8212 17.0689 17.0046 16.733 17.0774C16.4822 17.1367 16.2492 17.2574 16.0542 17.429C15.8591 17.6006 15.7079 17.818 15.6134 18.0624C15.4665 18.3965 15.2199 18.6746 14.9088 18.857C14.5895 19.0304 14.2252 19.0981 13.8664 19.0508C13.6599 19.0154 13.448 19.0305 13.2483 19.095C13.0487 19.1596 12.8668 19.2716 12.7179 19.4218C12.5541 19.6048 12.3556 19.7519 12.1343 19.8541C11.9131 19.9563 11.6738 20.0114 11.431 20.0161C11.2482 20.0148 11.0663 19.9883 10.8905 19.9373C10.2694 19.7619 9.61335 19.7619 8.99229 19.9373C8.83759 19.977 8.67885 19.998 8.51935 19.9997C8.27724 19.9982 8.03803 19.9458 7.81662 19.8459C7.59521 19.7459 7.39636 19.6004 7.23245 19.4185C7.09062 19.2677 6.91453 19.155 6.7198 19.0903C6.52506 19.0256 6.31769 19.0109 6.11606 19.0475C5.73925 19.0967 5.35668 19.028 5.01897 18.8505C4.69403 18.6649 4.4367 18.3769 4.28544 18.0296C4.18733 17.7944 4.03676 17.5859 3.84574 17.4205C3.65472 17.2552 3.42851 17.1377 3.18514 17.0774C2.84448 16.9949 2.53949 16.8012 2.31648 16.5257C2.09786 16.2324 1.97014 15.8791 1.94971 15.5111C1.94095 15.2874 1.88078 15.0689 1.77403 14.8732C1.66729 14.6776 1.51697 14.5103 1.33521 14.3849C1.01084 14.1715 0.760861 13.8589 0.620981 13.4918C0.493471 13.1169 0.482237 12.711 0.588808 12.3294C0.649093 12.1079 0.656603 11.8749 0.61071 11.6499C0.564817 11.4248 0.466854 11.2142 0.324993 11.0357C0.157729 10.8277 0.0499917 10.5766 0.0136594 10.3101C-0.0226729 10.0435 0.0138108 9.77195 0.119088 9.52525C0.440585 8.78109 0.585006 7.96985 0.540549 7.15782C0.522137 6.87784 0.578552 6.59801 0.703774 6.34819C0.828996 6.09836 1.01833 5.88793 1.25156 5.73933C1.46088 5.59955 1.63436 5.41066 1.75749 5.18844C1.88063 4.96622 1.94985 4.71715 1.95936 4.46204C1.97767 4.11072 2.10373 3.77417 2.31969 3.49996C2.54564 3.22994 2.84984 3.04021 3.18835 2.95818C3.43803 2.90458 3.67123 2.78992 3.86793 2.62406C4.06462 2.4582 4.21894 2.2461 4.31761 2.00596C4.44158 1.67516 4.66965 1.39573 4.96603 1.21151C5.26241 1.02728 5.61033 0.948691 5.9552 0.988062C6.57935 1.0406 6.95576 0.922392 7.29679 0.557919C7.54085 0.288941 7.86163 0.105143 8.21371 0.032554C8.56978 -0.0266745 8.93508 0.0320105 9.25611 0.200014C9.47811 0.310331 9.7218 0.367659 9.96873 0.367659C10.2157 0.367659 10.4593 0.310331 10.6814 0.200014C11.0025 0.0186044 11.3758 -0.0419797 11.7363 0.0288309C12.0967 0.0996414 12.4213 0.297352 12.6535 0.587471C12.7951 0.745155 12.9712 0.866353 13.1675 0.941123C13.3638 1.01589 13.5746 1.04211 13.7828 1.01761C14.1812 0.965201 14.5857 1.04339 14.9378 1.24089C15.2796 1.45551 15.5447 1.77671 15.6938 2.157C15.7722 2.3481 15.8948 2.51694 16.0511 2.64905C16.2075 2.78116 16.3929 2.87259 16.5915 2.9155C16.9806 2.99903 17.3334 3.20726 17.5985 3.50982C17.8473 3.81709 17.9868 4.20136 17.9942 4.59995C18.0478 5.03726 18.2673 5.4357 18.6055 5.70978C18.8436 5.95843 19.059 6.2288 19.2489 6.51753L19.3744 6.69484C19.4338 6.79192 19.4705 6.90165 19.4817 7.01553C19.4928 7.12942 19.4781 7.24439 19.4387 7.35155C19.3341 7.61712 19.2921 7.90408 19.3161 8.18927C19.3401 8.47446 19.4295 8.74989 19.5771 8.99332C19.7642 9.30784 19.8612 9.66955 19.8572 10.0375C19.8533 10.4054 19.7484 10.7648 19.5546 11.0751Z" fill="#766458"/>
<path d="M19.5706 8.99655C19.4231 8.75313 19.3337 8.4777 19.3097 8.19251C19.2856 7.90732 19.3276 7.62035 19.4323 7.35479C19.4717 7.24763 19.4864 7.13265 19.4752 7.01877C19.4641 6.90489 19.4274 6.79515 19.368 6.69808L19.2425 6.52077C19.0526 6.23204 18.8372 5.96166 18.599 5.71302C18.2625 5.437 18.0454 5.0374 17.9942 4.5999C17.9861 4.20245 17.8466 3.81945 17.5985 3.51305C17.3334 3.2105 16.9806 3.00227 16.5915 2.91874C16.3929 2.87583 16.2075 2.7844 16.0511 2.65229C15.8948 2.52018 15.7722 2.35134 15.6938 2.16024C15.5447 1.77995 15.2796 1.45875 14.9378 1.24413C14.5857 1.04663 14.1812 0.968441 13.7828 1.02085C13.5746 1.04535 13.3638 1.01913 13.1675 0.944363C12.9712 0.869593 12.7951 0.748395 12.6535 0.590711C12.4218 0.300051 12.0973 0.1017 11.7369 0.0302847C11.3764 -0.0411308 11.0028 0.0189259 10.6814 0.199971C10.4593 0.310288 10.2157 0.367616 9.96873 0.367616C9.7218 0.367616 9.47811 0.310288 9.25611 0.199971C8.93508 0.0319671 8.56978 -0.0267178 8.21371 0.0325106C7.86003 0.108688 7.53905 0.297195 7.29679 0.57101C6.95576 0.935482 6.57935 1.05369 5.9552 0.988019C5.61072 0.948421 5.2631 1.02654 4.96677 1.21014C4.67044 1.39373 4.44214 1.67245 4.31761 2.00263C4.21936 2.24338 4.06523 2.45615 3.86851 2.6226C3.67179 2.78905 3.43837 2.90421 3.18835 2.95814C2.85107 3.0375 2.54703 3.22369 2.31969 3.49007C2.10373 3.76428 1.97767 4.10083 1.95936 4.45215C1.94985 4.70725 1.88063 4.95633 1.75749 5.17855C1.63436 5.40076 1.46088 5.58966 1.25156 5.72944C1.01833 5.87803 0.828996 6.08847 0.703774 6.33829C0.578552 6.58811 0.522137 6.86794 0.540549 7.14793C0.586545 7.96324 0.442092 8.77803 0.119088 9.5252C0.0138108 9.77191 -0.0226729 10.0435 0.0136594 10.31C0.0499917 10.5765 0.157729 10.8276 0.324993 11.0356C0.465207 11.215 0.561419 11.426 0.605626 11.6511C0.649834 11.8761 0.640759 12.1086 0.579156 12.3293C0.472585 12.711 0.483819 13.1168 0.611329 13.4917C0.753751 13.8602 1.00725 14.173 1.33521 14.3848C1.51783 14.5109 1.66867 14.6792 1.77546 14.8761C1.88225 15.073 1.94195 15.2928 1.94971 15.5177C1.97014 15.8856 2.09786 16.2389 2.31648 16.5323C2.54045 16.8053 2.84533 16.9966 3.18514 17.0773C3.42924 17.1341 3.65698 17.2483 3.85023 17.4108C4.04349 17.5732 4.19692 17.7795 4.29831 18.0131C4.44956 18.3604 4.7069 18.6484 5.03184 18.834C5.36408 19.0146 5.74186 19.0889 6.11606 19.0474C6.31725 19.0141 6.52338 19.0317 6.71635 19.0987C6.90932 19.1657 7.08322 19.28 7.2228 19.4316C7.38671 19.6135 7.58556 19.7589 7.80697 19.8589C8.02838 19.9589 8.26759 20.0113 8.5097 20.0128C8.6692 20.011 8.82794 19.9901 8.98264 19.9504C9.60369 19.775 10.2598 19.775 10.8808 19.9504C11.0567 20.0014 11.2385 20.0279 11.4213 20.0292C11.6641 20.0245 11.9034 19.9694 12.1247 19.8672C12.3459 19.765 12.5445 19.6179 12.7082 19.4349C12.8567 19.2802 13.0394 19.1643 13.241 19.0969C13.4426 19.0294 13.6571 19.0125 13.8664 19.0474C14.2252 19.0948 14.5895 19.0271 14.9088 18.8537C15.2194 18.6721 15.4659 18.3952 15.6134 18.0624C15.7079 17.8179 15.8591 17.6005 16.0542 17.4289C16.2492 17.2573 16.4822 17.1367 16.733 17.0773C17.0682 17.0031 17.3703 16.8187 17.5929 16.5524C17.8154 16.286 17.9463 15.9525 17.9652 15.603C17.9693 15.3388 18.0386 15.0798 18.1668 14.8502C18.2951 14.6206 18.478 14.4278 18.6988 14.2896C18.9872 14.1003 19.2118 13.8252 19.3422 13.5016C19.4555 13.1846 19.4634 12.8385 19.3647 12.5165C19.2945 12.276 19.2746 12.0231 19.3062 11.7743C19.3377 11.5254 19.4202 11.2861 19.5481 11.0717C19.7407 10.7622 19.8448 10.404 19.8488 10.0374C19.8528 9.67081 19.7565 9.31033 19.5706 8.99655ZM19.2747 10.9174C19.1257 11.1698 19.0301 11.4513 18.9941 11.7436C18.958 12.036 18.9824 12.3328 19.0655 12.615C19.1495 12.8783 19.1415 13.1632 19.043 13.4212C18.9445 13.6791 18.7614 13.8944 18.525 14.0302C18.2647 14.1977 18.0492 14.4285 17.8976 14.7018C17.746 14.9751 17.6631 15.2825 17.6564 15.5965C17.6395 15.8763 17.5336 16.1428 17.3548 16.3556C17.1759 16.5683 16.9339 16.7157 16.6655 16.7752C16.3696 16.8403 16.0934 16.9773 15.8604 17.1745C15.6274 17.3717 15.4445 17.6233 15.3271 17.9081C15.2135 18.1878 15.0105 18.4202 14.7512 18.5674C14.4919 18.7146 14.1914 18.7681 13.8986 18.7191C13.6443 18.6781 13.3842 18.6989 13.1393 18.7799C12.8944 18.861 12.6718 18.9999 12.4895 19.1854C12.3043 19.4004 12.0617 19.5556 11.7914 19.632C11.5211 19.7084 11.2348 19.7027 10.9677 19.6155C10.6534 19.5266 10.3287 19.4813 10.0025 19.4809C9.63328 19.4834 9.26581 19.533 8.90864 19.6286C8.78063 19.6636 8.64866 19.6813 8.51614 19.6812C8.3188 19.6797 8.12392 19.6363 7.94391 19.5538C7.76389 19.4712 7.60268 19.3514 7.47053 19.2018C7.29658 19.0143 7.08083 18.8725 6.84164 18.7885C6.60245 18.7045 6.3469 18.6806 6.09676 18.7191C5.78963 18.7727 5.47376 18.7197 5.19965 18.5685C4.92553 18.4173 4.70899 18.1767 4.58464 17.8851C4.46511 17.6074 4.28357 17.3621 4.05452 17.1688C3.82547 16.9755 3.55528 16.8396 3.26557 16.772C2.97953 16.7077 2.72354 16.5458 2.53986 16.3129C2.35618 16.0801 2.25582 15.7903 2.25535 15.4914C2.24547 15.22 2.17338 14.9548 2.04487 14.717C1.91636 14.4792 1.73501 14.2755 1.51538 14.1221C1.23766 13.9507 1.02526 13.688 0.913025 13.3772C0.800789 13.0663 0.795373 12.7258 0.897665 12.4114C0.96967 12.1425 0.978051 11.86 0.922116 11.5871C0.866181 11.3142 0.747532 11.0588 0.575939 10.8419C0.442808 10.6786 0.355954 10.4812 0.324767 10.2711C0.29358 10.061 0.319246 9.84624 0.39899 9.64998C0.741985 8.86099 0.895308 7.99978 0.846189 7.13807C0.832839 6.91503 0.879056 6.69246 0.97991 6.49412C1.08076 6.29577 1.23247 6.12908 1.41886 6.01182C1.66769 5.84482 1.87414 5.61993 2.02124 5.35564C2.16833 5.09135 2.25188 4.7952 2.265 4.49155C2.27011 4.20324 2.37291 3.92565 2.55591 3.70596C2.7389 3.48627 2.99081 3.33804 3.26878 3.28649C3.56512 3.22136 3.84162 3.08401 4.07467 2.88618C4.30773 2.68835 4.49042 2.4359 4.60716 2.15039C4.7047 1.88273 4.88648 1.65565 5.12401 1.50473C5.36155 1.35381 5.64143 1.28756 5.91981 1.31637C6.20986 1.37098 6.50866 1.35126 6.78941 1.259C7.07017 1.16673 7.3241 1.0048 7.52844 0.787723C7.71981 0.55879 7.98241 0.403871 8.2723 0.348882C8.56219 0.293894 8.86179 0.342171 9.12098 0.485638C9.3837 0.617727 9.67264 0.686424 9.96551 0.686424C10.2584 0.686424 10.5473 0.617727 10.81 0.485638C11.0725 0.335572 11.3788 0.286188 11.6738 0.3464C11.9688 0.406611 12.233 0.572452 12.4187 0.813991C12.5926 1.00746 12.8089 1.15621 13.0499 1.24809C13.2908 1.33997 13.5497 1.37236 13.8053 1.34264C14.1396 1.28231 14.484 1.34574 14.7765 1.52151C15.0691 1.69728 15.2905 1.97385 15.4011 2.30143C15.4986 2.53893 15.6512 2.74874 15.8456 2.91287C16.04 3.077 16.2706 3.19056 16.5175 3.24381C16.8403 3.29682 17.1341 3.46535 17.3463 3.71922C17.5585 3.9731 17.6752 4.29575 17.6757 4.62946C17.7328 5.14534 17.9872 5.61735 18.3835 5.94287C18.605 6.17872 18.8063 6.43358 18.9851 6.70465L19.1074 6.88196C19.1366 6.93382 19.1541 6.9917 19.1585 7.05136C19.163 7.11103 19.1543 7.17095 19.1331 7.22673C19.0101 7.54014 18.9617 7.87886 18.9919 8.21507C19.0221 8.55127 19.1301 8.87537 19.3068 9.16073C19.4651 9.42658 19.5461 9.73283 19.5404 10.0438C19.5347 10.3548 19.4425 10.6578 19.2747 10.9174Z" fill="#766458"/>
<path d="M7.09766 11.111L7.51912 10.7038L8.44891 11.6889L11.2833 7.64355L11.7723 8.00474L8.55507 12.6017L7.09766 11.111Z" fill="white"/>
<path d="M9.91838 17.2547H9.76074V16.5454H10.2015L10.224 17.2547H9.9023H9.91838ZM9.87978 17.1364H10.1114L10.0953 16.6669H9.88621L9.87978 17.1364ZM9.25241 17.2251H9.1945L8.8406 17.1791H8.78269L8.88886 16.4765H8.94677L9.2685 16.5191H9.32641L9.25241 17.2251ZM8.93069 17.0609C9.00468 17.0609 9.0819 17.0839 9.15911 17.0905L9.20737 16.6242L8.99825 16.5979L8.93069 17.0609ZM10.7549 17.2087L10.668 16.5027H10.7291L11.0509 16.4535H11.1088L11.231 17.1529H11.1731C11.0573 17.1726 10.9383 17.1923 10.8224 17.2054L10.7549 17.2087ZM10.7999 16.6078L10.845 17.0773L11.0734 17.0412L10.9962 16.5782L10.7999 16.6078ZM8.2808 17.0773H8.22289C8.11028 17.0478 7.99446 17.015 7.88186 16.9788H7.82395L8.02342 16.2991H8.08133L8.40305 16.3878H8.46097L8.2808 17.0773ZM7.95907 16.8672L8.18106 16.9329L8.29367 16.4765L8.10385 16.4206L7.95907 16.8672ZM11.6975 17.0379L11.5141 16.3517H11.5721L11.8938 16.2565L11.9517 16.2368L12.1672 16.9132L12.1126 16.9329C12 16.969 11.8841 17.0051 11.7683 17.0347L11.6975 17.0379ZM11.6718 16.4206L11.794 16.8738L12.016 16.8048L11.8713 16.3615L11.6718 16.4206ZM7.34136 16.749H7.28667L6.96494 16.6045L6.91025 16.5782L7.20302 15.9215L7.25449 15.9445C7.35423 15.9938 7.45396 16.0365 7.55048 16.0759L7.60517 16.0989L7.34136 16.749ZM7.08076 16.5093L7.2931 16.6045L7.46361 16.1678L7.25771 16.0923L7.08076 16.5093ZM12.6563 16.6997L12.3828 16.043L12.4375 16.02L12.7271 15.8854L12.7817 15.8592L13.0874 16.4962L13.0359 16.5224C12.9297 16.575 12.8204 16.6275 12.7142 16.6735L12.6563 16.6997ZM12.5372 16.112L12.7206 16.5421L12.9297 16.4436L12.7271 16.0233L12.5372 16.112ZM6.46948 16.3287L6.41801 16.2991C6.31505 16.24 6.21532 16.1744 6.11558 16.1087L6.06411 16.0759L6.43731 15.4815L6.48879 15.5144L6.76225 15.6851L6.81373 15.7147L6.46948 16.3287ZM6.22819 16.0397L6.42766 16.1645L6.64 15.7639L6.45983 15.6523L6.22819 16.0397ZM13.5153 16.2499L13.1549 15.6424L13.2064 15.6096L13.4767 15.4356L13.5249 15.3995L13.9142 15.9872L13.866 16.0233L13.5668 16.2171L13.5153 16.2499ZM13.319 15.6818L13.5603 16.0923C13.6247 16.0529 13.689 16.0102 13.7534 15.9642L13.496 15.5768L13.319 15.6818ZM5.63299 15.7639L5.58474 15.7245C5.49144 15.6523 5.40135 15.5735 5.31127 15.4947L5.26623 15.4553L5.71986 14.9168L5.7649 14.9562C5.84533 15.0284 5.92898 15.0974 6.01263 15.1663L6.06089 15.2024L5.63299 15.7639ZM5.43352 15.4356C5.49143 15.4881 5.55256 15.5374 5.61369 15.5866L5.89359 15.2156L5.73273 15.081L5.43352 15.4356ZM14.326 15.6589L13.8885 15.1072H13.9335C14.0172 15.0383 14.0976 14.966 14.178 14.8938L14.2199 14.8511L14.6864 15.3798L14.6445 15.4192C14.5545 15.5023 14.4644 15.5811 14.3743 15.6556L14.326 15.6589ZM14.0526 15.1236L14.3453 15.4881L14.5191 15.3338L14.2134 14.9857C14.1587 15.0514 14.1073 15.1072 14.0526 15.1433V15.1236ZM4.89624 15.1072L4.85442 15.0645C4.77077 14.9792 4.69034 14.8872 4.61312 14.7986L4.57452 14.7526L5.09571 14.2831L5.13432 14.329C5.2051 14.4111 5.2791 14.4932 5.35309 14.572L5.39492 14.6147L4.89624 15.1072ZM4.74181 14.7789L4.89624 14.9529L5.21797 14.6245L5.08606 14.4505L4.74181 14.7789ZM15.037 15.012L14.5287 14.526L14.5673 14.4834C14.6402 14.4045 14.711 14.3225 14.7797 14.2371L14.8183 14.1911L15.3523 14.6475L15.3137 14.6935C15.2365 14.7887 15.1561 14.8774 15.0789 14.966L15.037 15.012ZM14.6928 14.5195L15.0145 14.8478L15.169 14.6705L14.8151 14.3684C14.8022 14.4013 14.7539 14.4505 14.7057 14.5063L14.6928 14.5195ZM4.24314 14.3619L4.20775 14.3159C4.13697 14.2174 4.06941 14.1156 4.00506 14.0171L3.97289 13.9646L4.552 13.5771L4.58738 13.6264C4.64208 13.715 4.70321 13.8069 4.76755 13.8956L4.80294 13.9449L4.24314 14.3619ZM4.13697 14.0007C4.17879 14.0663 4.22383 14.132 4.26888 14.1944L4.63886 13.9186L4.51982 13.7413L4.13697 14.0007ZM15.6612 14.2338L15.0917 13.8266L15.1239 13.7774C15.185 13.6887 15.2462 13.5968 15.3009 13.5049L15.333 13.4556L15.9218 13.8299L15.8928 13.8825C15.8285 13.9843 15.7641 14.086 15.6966 14.1846L15.6612 14.2338ZM15.2687 13.7938L15.6451 14.0631C15.6901 13.9974 15.732 13.9317 15.7738 13.866L15.3845 13.6165L15.2687 13.7938ZM3.72516 13.5147L3.6962 13.4655C3.64151 13.3604 3.58682 13.252 3.53534 13.1371L3.5096 13.0846L4.15305 12.7792L4.17879 12.835C4.22383 12.9302 4.27209 13.0287 4.32357 13.1273L4.34931 13.1798L3.72516 13.5147ZM3.66725 13.1371L3.77342 13.3472L4.18523 13.1371L4.08871 12.9467L3.66725 13.1371ZM16.1856 13.3702L15.5679 13.0419L15.5936 12.9893C15.6419 12.8908 15.6869 12.7923 15.732 12.6938L15.7545 12.638L16.3979 12.927L16.3722 12.9828C16.3272 13.0911 16.2757 13.2028 16.221 13.3111L16.1856 13.3702ZM15.7255 12.9959L16.1341 13.2093C16.1695 13.1371 16.2017 13.0649 16.2339 12.9959L15.8156 12.8088C15.7867 12.8613 15.7674 12.927 15.7255 12.9893V12.9959ZM3.31335 12.592L3.29405 12.5362C3.25115 12.4202 3.21254 12.3053 3.17823 12.1914V12.1356L3.84098 11.9255L3.86028 11.9813C3.89246 12.0864 3.92463 12.1914 3.96324 12.3097L3.98254 12.3655L3.31335 12.592ZM3.31335 12.2144C3.33587 12.29 3.36161 12.3655 3.38735 12.4377L3.81846 12.2768L3.7509 12.0765L3.31335 12.2144ZM16.5813 12.441L15.9218 12.2111L15.9411 12.1553C15.9765 12.0535 16.0087 11.9485 16.0376 11.8434L16.0537 11.7843L16.7229 11.9813L16.7068 12.0371C16.6746 12.1553 16.6392 12.2703 16.6006 12.3852L16.5813 12.441ZM16.0698 12.152L16.5041 12.3064C16.5266 12.2308 16.5524 12.1553 16.5717 12.0798L16.1309 11.9517C16.1116 12.001 16.0891 12.07 16.0698 12.152ZM3.03345 11.63V11.5709C3.00771 11.4559 2.98519 11.3344 2.96589 11.2162V11.1571L3.65438 11.0422V11.1013C3.65438 11.2097 3.68977 11.318 3.71229 11.4297V11.4888L3.03345 11.63ZM3.08171 11.2556C3.08171 11.3344 3.10745 11.41 3.12353 11.4888L3.57395 11.3903C3.57395 11.3213 3.54499 11.2491 3.53534 11.1801L3.08171 11.2556ZM16.8387 11.4724L16.1534 11.341V11.2819C16.1727 11.1768 16.1888 11.0685 16.2049 10.9536V10.8944L16.8966 10.993V11.0521C16.8966 11.1703 16.8612 11.2918 16.8387 11.41V11.4724ZM16.2918 11.2458L16.7422 11.3312C16.7422 11.2556 16.7711 11.1768 16.7808 11.098L16.3272 11.0356C16.3175 11.1046 16.3046 11.167 16.2918 11.2458ZM2.89832 10.6383V10.5792C2.89832 10.4577 2.89832 10.3362 2.89832 10.2148V10.1557L3.59325 10.1392V10.2016C3.59325 10.31 3.59325 10.4183 3.59325 10.53V10.5924L2.89832 10.6383ZM2.99806 10.2739V10.5103L3.45813 10.4774C3.45813 10.4052 3.45813 10.333 3.45813 10.264L2.99806 10.2739ZM16.9738 10.4774L16.2789 10.4413V10.3822C16.2789 10.2739 16.2789 10.1655 16.2789 10.0539V9.95536H16.9738V10.0571C16.9738 10.1786 16.9738 10.3034 16.9738 10.4216V10.4774ZM16.4044 10.3297L16.8612 10.3527C16.8612 10.2607 16.8612 10.1655 16.8612 10.0736H16.4108C16.4108 10.1589 16.4108 10.2443 16.3915 10.3297H16.4044ZM3.58038 9.67298L2.88867 9.62701V9.56462C2.88867 9.44641 2.90798 9.32492 2.92084 9.20343V9.14433L3.61256 9.22641V9.28552C3.61256 9.39388 3.59003 9.50552 3.5836 9.61387L3.58038 9.67298ZM3.00128 9.52522L3.45813 9.55805L3.47743 9.34462L3.02058 9.29209L3.00128 9.52522ZM16.2564 9.50223V9.44313C16.2564 9.33477 16.2339 9.22313 16.2178 9.11477V9.05239L16.9063 8.9506V9.0097C16.9256 9.13119 16.9384 9.25268 16.9481 9.37089V9.43328L16.2564 9.50223ZM16.3368 9.15746C16.3368 9.2297 16.3561 9.29865 16.3626 9.37089L16.8194 9.32492C16.8194 9.2494 16.8033 9.17059 16.7905 9.09179L16.3368 9.15746ZM3.68012 8.78642L2.99806 8.63866V8.57956C3.0238 8.46464 3.04953 8.34314 3.07849 8.22822L3.09458 8.16912L3.76698 8.34971V8.40553C3.73803 8.5106 3.71551 8.61896 3.69299 8.73388L3.68012 8.78642ZM3.13962 8.54016L3.59003 8.63538C3.59003 8.56642 3.61899 8.49747 3.63508 8.42852L3.19109 8.31031C3.17179 8.3924 3.1557 8.4712 3.13962 8.54016ZM16.118 8.59926V8.54016C16.0955 8.43508 16.0666 8.32673 16.0376 8.2118L16.0183 8.15598L16.6875 7.95569V8.01479C16.7229 8.133 16.7518 8.25121 16.7808 8.36613V8.42523L16.118 8.59926ZM16.1534 8.24792C16.1727 8.31688 16.1888 8.38583 16.2081 8.4515L16.6521 8.34314C16.6371 8.26872 16.6178 8.1932 16.5942 8.11658L16.1534 8.24792ZM3.91176 7.91957L3.26831 7.67659L3.28761 7.62077C3.32944 7.50913 3.37126 7.3942 3.4163 7.29241L3.44204 7.23659L4.08549 7.50913L4.06297 7.56495C4.02115 7.66674 3.98254 7.76853 3.94715 7.8736L3.91176 7.91957ZM3.40987 7.59122L3.84098 7.75211L3.91819 7.55181L3.49352 7.37122C3.46456 7.45002 3.43561 7.52554 3.40987 7.59778V7.59122ZM15.8607 7.73241L15.8414 7.67659C15.8028 7.5748 15.7609 7.47301 15.7159 7.3745L15.6901 7.32197L16.3336 7.02645L16.3593 7.08227C16.4076 7.19391 16.4559 7.30555 16.4977 7.41062L16.5202 7.46644L15.8607 7.73241ZM15.8607 7.38107C15.8896 7.44674 15.9154 7.50913 15.9411 7.5748L16.369 7.40405C16.34 7.33182 16.3111 7.25958 16.2789 7.18734L15.8607 7.38107ZM4.27853 7.0757L3.66403 6.74735L3.69299 6.69481C3.74768 6.58645 3.80881 6.48138 3.86672 6.36646L3.89889 6.31392L4.49408 6.67511L4.46513 6.72765C4.41044 6.82287 4.35896 6.91809 4.30748 7.01331L4.27853 7.0757ZM3.82489 6.69153L4.23027 6.91152L4.33322 6.72436L3.9375 6.48466L3.82489 6.69153ZM15.5035 6.91152L15.4456 6.86555C15.3942 6.77362 15.3395 6.67839 15.2816 6.58645L15.2494 6.53392L15.8381 6.15631L15.8703 6.20556C15.9347 6.30735 15.9958 6.41243 16.0537 6.5175L16.0891 6.57004L15.5035 6.91152ZM15.4424 6.58317C15.4778 6.64227 15.5164 6.70466 15.5486 6.76377L15.9507 6.53392L15.8317 6.33362L15.4424 6.58317ZM4.72573 6.30735L4.15949 5.89035L4.19488 5.84109C4.26566 5.74587 4.33644 5.64736 4.41044 5.55214L4.44904 5.50617L4.99276 5.94945L4.95415 5.9987C4.88659 6.08079 4.82224 6.16945 4.76112 6.2581L4.72573 6.30735ZM4.32679 5.86408L4.69999 6.13989C4.7386 6.08079 4.78364 6.02497 4.82546 5.96915L4.46835 5.67692L4.32679 5.86408ZM15.0081 6.1596L14.9727 6.11363C14.9084 6.02825 14.8376 5.9396 14.77 5.85751L14.7314 5.81154L15.2623 5.35185L15.3009 5.39782C15.3781 5.48975 15.4521 5.58498 15.5229 5.6802L15.5582 5.72945L15.0081 6.1596ZM14.8987 5.83124L15.0274 5.9987L15.3942 5.71303L15.2494 5.52916L14.8987 5.83124ZM5.28553 5.61453L4.78364 5.122L4.82546 5.07931C4.90911 4.99066 4.99276 4.90529 5.07963 4.8232L5.12145 4.78051L5.5976 5.29603L5.55578 5.33871L5.32735 5.56856L5.28553 5.61453ZM4.9638 5.11871L5.28553 5.44707C5.33379 5.39453 5.38527 5.34528 5.43352 5.29603L5.1118 4.96767L4.9638 5.11871ZM14.4386 5.48319L14.3968 5.4405C14.3228 5.36498 14.2456 5.28946 14.1619 5.21722L14.1201 5.17453L14.5834 4.64589L14.6252 4.68529C14.7153 4.76738 14.8022 4.84947 14.8858 4.93484L14.9277 4.97752L14.4386 5.48319ZM14.2874 5.15483L14.4386 5.29931L14.7604 4.97096L14.5931 4.81006L14.2874 5.15483ZM5.9515 4.98409L5.50752 4.43574L5.55256 4.39634C5.64586 4.3241 5.74238 4.24858 5.8389 4.17962L5.88716 4.14351L6.28932 4.72469L6.24106 4.75753L5.98368 4.95454L5.9515 4.98409ZM5.68769 4.44887L5.97081 4.81663L6.1381 4.68857L5.87107 4.30768L5.68769 4.44887ZM13.7727 4.87245L13.7244 4.83633C13.6408 4.77394 13.5507 4.70827 13.4606 4.64917L13.4123 4.61633L13.7984 4.0253L13.8499 4.05813C13.9464 4.1238 14.0429 4.19604 14.1394 4.26828L14.1877 4.3044L13.7727 4.87245ZM13.5635 4.59992C13.6215 4.63932 13.6794 4.67872 13.7341 4.72141L14.0075 4.34708C13.9464 4.29783 13.882 4.25186 13.8177 4.20918L13.5635 4.59992ZM6.66573 4.48499L6.31505 3.87097L6.36653 3.84142C6.46948 3.78232 6.57243 3.72321 6.68826 3.66739L6.73973 3.63784L7.06146 4.26828L7.00676 4.29783L6.72686 4.45544L6.66573 4.48499ZM6.47592 3.91694L6.70756 4.32082L6.89094 4.21903L6.6786 3.80202L6.47592 3.91694ZM13.0166 4.39305L12.9651 4.36679C12.8718 4.31425 12.7753 4.26171 12.6788 4.21574L12.6273 4.18947L12.9297 3.53277L12.9812 3.55904C13.0906 3.61157 13.1978 3.66739 13.3029 3.7265L13.3544 3.75605L13.0166 4.39305ZM12.785 4.13365C12.8461 4.16649 12.9072 4.19604 12.9683 4.23216L13.1936 3.80858L12.9876 3.70023L12.785 4.13365ZM7.45718 4.07783L7.19337 3.42113L7.24806 3.39814C7.35745 3.35217 7.46683 3.30949 7.56978 3.27009L7.6277 3.2471L7.85612 3.92023L7.80143 3.93993L7.50222 4.05485L7.45718 4.07783ZM7.34779 3.4868L7.52153 3.92023L7.71778 3.8447L7.56335 3.40143L7.34779 3.4868ZM12.2284 3.99903L12.1705 3.97933C12.0707 3.93993 11.971 3.90381 11.868 3.87097L11.8101 3.85127L12.0225 3.17486L12.0804 3.19456C12.1941 3.22959 12.3013 3.26899 12.4021 3.31277L12.4568 3.33576L12.2284 3.99903ZM11.9613 3.77247L12.1576 3.8447L12.3185 3.40471L12.0997 3.32919L11.9613 3.77247ZM8.30975 3.77247L8.12637 3.08949L8.18106 3.07307L8.52853 2.99427H8.58644L8.72478 3.69038H8.66687C8.5607 3.71008 8.45775 3.73635 8.34514 3.76262L8.30975 3.77247ZM8.2808 3.17158L8.36766 3.63127L8.57035 3.5853L8.48349 3.12561C8.41914 3.13874 8.34514 3.15845 8.26793 3.17486L8.2808 3.17158ZM11.379 3.72978H11.3211C11.2182 3.7068 11.112 3.68381 10.9994 3.66739H10.9415L11.0541 2.95815H11.112L11.4595 3.03039H11.5174L11.379 3.72978ZM11.0862 3.5459L11.2889 3.5853L11.3887 3.12889L11.1635 3.08292L11.0862 3.5459ZM9.16554 3.61486L9.09155 2.9089H9.14946C9.26743 2.89576 9.38646 2.88591 9.50657 2.87935H9.56449L9.60309 3.58859H9.54518L9.22346 3.61486H9.16554ZM9.22346 3.01725L9.27172 3.48352L9.48084 3.46381L9.45188 2.99099C9.37467 2.99427 9.29745 3.00084 9.22346 3.01069V3.01725ZM10.4911 3.59516H10.4331C10.327 3.59516 10.2208 3.57874 10.1114 3.57545H10.0535L10.0728 2.86621H10.1339C10.2498 2.86621 10.372 2.86621 10.4878 2.88591H10.5457L10.4911 3.59516ZM10.1693 3.45396H10.3752L10.4138 2.9877H10.1822L10.1693 3.45396Z" fill="white"/>
</svg>
