<svg width="9" height="12" viewBox="0 0 9 12" fill="none" xmlns="http://www.w3.org/2000/svg">
  <path d="M8.63513 0H2.19503C2.09826 0 2.00547 0.0370313 1.93704 0.102984L0.106881 1.8664C0.0384567 1.93233 0 2.02177 0 2.115V11.6484C0 11.8426 0.163362 12 0.364865 12H8.63513C8.83664 12 9 11.8426 9 11.6484V0.351562C9 0.157406 8.83664 0 8.63513 0ZM1.82432 5.88281H3.77027C3.97177 5.88281 4.13514 6.04022 4.13514 6.23438C4.13514 6.42853 3.97177 6.58594 3.77027 6.58594H1.82432C1.62282 6.58594 1.45946 6.42853 1.45946 6.23438C1.45946 6.04022 1.62282 5.88281 1.82432 5.88281ZM7.17568 10.1016H5.22973C5.02823 10.1016 4.86486 9.94416 4.86486 9.75C4.86486 9.55584 5.02823 9.39844 5.22973 9.39844H7.17568C7.37718 9.39844 7.54054 9.55584 7.54054 9.75C7.54054 9.94416 7.37718 10.1016 7.17568 10.1016ZM7.17568 8.34375H1.82432C1.62282 8.34375 1.45946 8.18634 1.45946 7.99219C1.45946 7.79803 1.62282 7.64062 1.82432 7.64062H7.17568C7.37718 7.64062 7.54054 7.79803 7.54054 7.99219C7.54054 8.18634 7.37718 8.34375 7.17568 8.34375Z" fill="black"/>
</svg>
