<svg width="10" height="11" viewBox="0 0 10 11" fill="none" xmlns="http://www.w3.org/2000/svg">
  <path d="M6.43836 5.65982C6.34703 5.56849 6.34703 5.43151 6.43836 5.34018L9.86301 1.91553C9.95434 1.8242 10 1.68721 10 1.59589C10 1.50457 9.95434 1.36758 9.86301 1.27626L9.22375 0.636986C9.13242 0.545662 8.99543 0.5 8.90411 0.5C8.76712 0.5 8.6758 0.545662 8.58447 0.636986L5.15982 4.06164C5.06849 4.15297 4.93151 4.15297 4.84018 4.06164L1.41553 0.636986C1.3242 0.545662 1.18721 0.5 1.09589 0.5C1.00457 0.5 0.86758 0.545662 0.776256 0.636986L0.136986 1.27626C0.0456621 1.36758 0 1.50457 0 1.59589C0 1.68721 0.0456621 1.8242 0.136986 1.91553L3.56164 5.34018C3.65297 5.43151 3.65297 5.56849 3.56164 5.65982L0.136986 9.08447C0.0456621 9.1758 0 9.31279 0 9.40411C0 9.49543 0.0456621 9.63242 0.136986 9.72375L0.776256 10.363C0.86758 10.4543 1.00457 10.5 1.09589 10.5C1.18721 10.5 1.3242 10.4543 1.41553 10.363L4.84018 6.93836C4.93151 6.84703 5.06849 6.84703 5.15982 6.93836L8.58447 10.363C8.6758 10.4543 8.81279 10.5 8.90411 10.5C8.99543 10.5 9.13242 10.4543 9.22375 10.363L9.86301 9.72375C9.95434 9.63242 10 9.49543 10 9.40411C10 9.31279 9.95434 9.1758 9.86301 9.08447L6.43836 5.65982Z" fill="black"/>
</svg>
