<svg width="16" height="16" fill="none" xmlns="http://www.w3.org/2000/svg">
  <g clip-path="url(#a)">
    <path d="M14.365 2.59 8.24.049a.625.625 0 0 0-.48 0L1.635 2.59a.625.625 0 0 0-.385.577v3.091c0 4.257 2.573 8.086 6.514 9.695a.626.626 0 0 0 .472 0 10.467 10.467 0 0 0 6.514-9.695V3.168a.625.625 0 0 0-.385-.577ZM13.5 6.26A9.219 9.219 0 0 1 8 14.695 9.219 9.219 0 0 1 2.5 6.26V3.585L8 1.302l5.5 2.283V6.26ZM7.31 8.365 9.995 5.68a.625.625 0 1 1 .883.884L7.751 9.692a.625.625 0 0 1-.884 0L5.121 7.945a.625.625 0 1 1 .883-.884L7.31 8.366Z" fill="#000"/>
  </g>
  <defs>
    <clipPath id="a">
      <path fill="#fff" d="M0 0h16v16H0z"/>
    </clipPath>
  </defs>
</svg>
