<svg width="29" height="29" viewBox="0 0 29 29" fill="none" xmlns="http://www.w3.org/2000/svg">
<g opacity="0.3">
<path d="M14.4993 2.41699C7.8366 2.41699 2.41602 7.83758 2.41602 14.5003C2.41602 21.1631 7.8366 26.5837 14.4993 26.5837C21.1621 26.5837 26.5827 21.1631 26.5827 14.5003C26.5827 7.83758 21.1621 2.41699 14.4993 2.41699ZM14.4993 24.167C9.16939 24.167 4.83268 19.8303 4.83268 14.5003C4.83268 9.17037 9.16939 4.83366 14.4993 4.83366C19.8293 4.83366 24.166 9.17037 24.166 14.5003C24.166 19.8303 19.8293 24.167 14.4993 24.167Z" fill="white"/>
<path d="M15.7077 8.45801H13.291V15.708H20.541V13.2913H15.7077V8.45801Z" fill="white"/>
</g>
</svg>
