<svg width="85" height="20" fill="none" xmlns="http://www.w3.org/2000/svg"><g clip-path="url(#a)"><path d="m31.034 2.755-.052 1.162H27.08v13.22h-1.406V3.94h-3.986V2.755h9.346Z" fill="#fff"/><path d="M27.556 17.622h-2.358V4.409h-3.986V2.271H31.53l-.09 2.131h-3.884v13.22Zm-1.406-.985h.454V3.43h3.925v-.19h-8.365v.2h3.986v13.196ZM44.72 17.195h-1.345V2.86h1.387c2.573 3.984 5.164 7.98 7.773 11.985l.08-.023V2.86h1.377v14.336h-1.377c-2.589-4.006-5.19-8.024-7.802-12.054l-.093.023v12.031Z" fill="#fff"/><path d="M54.459 17.679h-2.107l-7.165-11.07v11.07H42.89V2.374h2.117l7.113 10.987V2.374h2.33l.009 15.305Zm-1.609-.985h.644V3.345h-.409v11.84l-.76.227-7.83-12.067h-.643V16.71h.395V4.79l.782-.206 7.821 12.11ZM75.348 12.09c-.235 1.641 1.052 3.44 2.777 3.94 1.724.499 4.021.052 4.806-2.332h1.413a4.397 4.397 0 0 1-1.32 2.299c-1.167 1.087-2.573 1.428-4.12 1.34a5.294 5.294 0 0 1-2.365-.68 4.89 4.89 0 0 1-1.462-1.25 5.003 5.003 0 0 1-.877-1.728 7.01 7.01 0 0 1 .08-4.486c.701-1.95 2.12-3.05 4.124-3.349 1.42-.26 2.884.06 4.074.893a4.798 4.798 0 0 1 1.421 1.598c.35.635.555 1.343.599 2.07.051.542 0 1.09 0 1.678l-9.15.006Zm7.799-1.146c0-1.442-.464-2.598-1.664-3.36a4.238 4.238 0 0 0-4.555.096c-1.088.794-1.554 1.91-1.631 3.264h7.85Z" fill="#fff"/><path d="M79.357 17.84h-.48a5.831 5.831 0 0 1-2.573-.74 5.374 5.374 0 0 1-1.606-1.368 5.496 5.496 0 0 1-.968-1.892 7.471 7.471 0 0 1 .09-4.794c.74-2.069 2.297-3.336 4.504-3.661a5.847 5.847 0 0 1 4.418.985 5.288 5.288 0 0 1 1.56 1.75c.385.697.611 1.472.663 2.269.028.394.033.79.016 1.185v1.002h-9.182c.048 1.27 1.107 2.594 2.451 2.975 1.57.446 3.565 0 4.231-2.016l.11-.329h2.345l-.129.585a4.922 4.922 0 0 1-1.464 2.56 5.586 5.586 0 0 1-3.986 1.488Zm.055-11.578c-.315 0-.629.024-.94.072-1.86.272-3.12 1.293-3.744 3.034a6.487 6.487 0 0 0-.071 4.17c.16.57.43 1.101.793 1.565.362.463.811.848 1.32 1.134a4.878 4.878 0 0 0 2.16.62c1.566.09 2.801-.308 3.773-1.214a3.86 3.86 0 0 0 1-1.468h-.443a3.92 3.92 0 0 1-.886 1.344c-.384.38-.842.674-1.344.862a4.92 4.92 0 0 1-3.034.105c-1.959-.555-3.387-2.6-3.117-4.465l.058-.414h9.101v-.079c.016-.357.01-.714-.016-1.07a4.444 4.444 0 0 0-.54-1.87 4.347 4.347 0 0 0-1.28-1.446 4.644 4.644 0 0 0-2.79-.88Zm4.214 5.168h-8.834l.029-.516c.093-1.609.695-2.797 1.83-3.612a4.75 4.75 0 0 1 5.086-.115c1.262.805 1.88 2.036 1.886 3.77l.003.473Zm-7.801-.985h6.827a3.056 3.056 0 0 0-.405-1.414 2.982 2.982 0 0 0-1.014-1.049 3.756 3.756 0 0 0-4.028.079 3.353 3.353 0 0 0-.943 1.047 3.426 3.426 0 0 0-.437 1.35v-.013ZM30.886 11.584c0-1.665.456-3.149 1.666-4.324a5.187 5.187 0 0 1 3.475-1.465c1.956-.088 3.635.529 4.826 2.18.62.876.976 1.916 1.026 2.995a6.385 6.385 0 0 1-.682 3.612 5.256 5.256 0 0 1-1.698 1.878 5.12 5.12 0 0 1-2.362.847 5.58 5.58 0 0 1-3.095-.407c-1.93-.867-2.896-2.456-3.14-4.544-.017-.187-.017-.371-.017-.555-.019-.072 0-.145 0-.217Zm9.613-.092c0-.098-.02-.266-.03-.436-.131-2.25-1.47-3.763-3.654-4.04-.86-.13-1.74.036-2.497.473a3.964 3.964 0 0 0-1.685 1.938 5.808 5.808 0 0 0-.216 3.612c.373 1.514 1.287 2.551 2.786 2.955 1.557.404 2.976.085 4.128-1.107.885-.916 1.148-2.081 1.168-3.395Z" fill="#fff"/><path d="M36.272 17.845a5.9 5.9 0 0 1-2.422-.508c-1.995-.89-3.144-2.548-3.423-4.926 0-.15-.023-.299-.026-.443v-.138a1.589 1.589 0 0 1 0-.177v-.063c0-1.97.592-3.487 1.814-4.675a5.636 5.636 0 0 1 3.78-1.596c2.253-.105 4.019.693 5.245 2.374a6.088 6.088 0 0 1 1.116 3.25 6.859 6.859 0 0 1-.74 3.875 5.741 5.741 0 0 1-1.85 2.034 5.596 5.596 0 0 1-2.564.921 6.81 6.81 0 0 1-.93.072Zm.116-11.57h-.354a4.719 4.719 0 0 0-3.169 1.33c-1.023.984-1.522 2.298-1.522 3.969v.345c0 .128 0 .25.023.364.238 2.043 1.174 3.402 2.857 4.154.895.39 1.879.52 2.84.37 1.706-.232 2.922-1.047 3.71-2.481a5.81 5.81 0 0 0 .621-3.333 5.066 5.066 0 0 0-.933-2.735c-.968-1.33-2.303-1.984-4.073-1.984Zm.052 10.369a5.315 5.315 0 0 1-1.352-.18c-1.608-.424-2.699-1.564-3.127-3.284a6.306 6.306 0 0 1 .235-3.921 4.44 4.44 0 0 1 1.884-2.174 4.304 4.304 0 0 1 2.794-.535c2.403.305 3.925 1.987 4.07 4.492 0 .121 0 .246.022.328V11.492c0 1.037-.167 2.548-1.287 3.727-.415.45-.918.81-1.475 1.055a4.358 4.358 0 0 1-1.764.37Zm-.136-9.171a3.35 3.35 0 0 0-1.933.562 3.455 3.455 0 0 0-1.284 1.579 5.355 5.355 0 0 0-.196 3.316c.344 1.386 1.165 2.259 2.445 2.59a3.521 3.521 0 0 0 1.974.044 3.576 3.576 0 0 0 1.697-1.028c.685-.713 1.004-1.642 1.026-3.034v-.073c0-.098 0-.226-.022-.35-.116-2.033-1.287-3.34-3.24-3.59a4.004 4.004 0 0 0-.467-.016ZM55.765 11.584c0-1.665.457-3.149 1.67-4.324a5.18 5.18 0 0 1 3.471-1.465c1.96-.088 3.636.529 4.826 2.18a5.6 5.6 0 0 1 1.026 2.995 6.412 6.412 0 0 1-.679 3.612c-.89 1.616-2.277 2.48-4.063 2.725a5.583 5.583 0 0 1-3.095-.407c-1.93-.867-2.896-2.456-3.137-4.544-.022-.18-.022-.365-.032-.549a1.81 1.81 0 0 0 .013-.223Zm9.63-.092c0-.098-.02-.266-.03-.436-.129-2.25-1.47-3.763-3.655-4.04a3.839 3.839 0 0 0-2.497.472 3.96 3.96 0 0 0-1.685 1.939 5.784 5.784 0 0 0-.216 3.612c.373 1.514 1.287 2.551 2.783 2.955 1.56.404 2.976.085 4.128-1.107.891-.916 1.155-2.081 1.171-3.395Z" fill="#fff"/><path d="M61.167 17.845a5.9 5.9 0 0 1-2.422-.508c-1.992-.89-3.143-2.548-3.42-4.926-.02-.15-.023-.299-.03-.443v-.378c0-1.97.593-3.487 1.819-4.675a5.63 5.63 0 0 1 3.78-1.596c2.252-.105 4.018.693 5.24 2.374a6.119 6.119 0 0 1 1.12 3.25 6.887 6.887 0 0 1-.74 3.875 5.744 5.744 0 0 1-1.85 2.034 5.598 5.598 0 0 1-2.564.921c-.309.045-.62.07-.933.072Zm.116-11.57h-.354a4.712 4.712 0 0 0-3.166 1.33c-1.026.984-1.521 2.298-1.521 3.969v.345c0 .128 0 .25.02.36.24 2.046 1.173 3.406 2.86 4.158a5.12 5.12 0 0 0 2.837.37c1.708-.232 2.921-1.047 3.713-2.481a5.844 5.844 0 0 0 .62-3.333 5.067 5.067 0 0 0-.933-2.735c-.968-1.33-2.3-1.984-4.076-1.984Zm.052 10.369a5.307 5.307 0 0 1-1.348-.18c-1.609-.424-2.703-1.564-3.13-3.284a6.305 6.305 0 0 1 .237-3.921 4.438 4.438 0 0 1 1.88-2.182 4.301 4.301 0 0 1 2.798-.54c2.404.305 3.925 1.986 4.07 4.492 0 .118 0 .24.023.328v.135c0 1.037-.164 2.548-1.287 3.727-.417.45-.92.81-1.477 1.055a4.366 4.366 0 0 1-1.766.37ZM61.2 7.473a3.344 3.344 0 0 0-1.934.561 3.449 3.449 0 0 0-1.284 1.58 5.308 5.308 0 0 0-.196 3.316c.341 1.386 1.165 2.259 2.442 2.59.64.203 1.325.218 1.973.044a3.577 3.577 0 0 0 1.698-1.028c.688-.713 1.004-1.642 1.026-3.038v-.079c0-.095-.016-.22-.022-.328-.12-2.032-1.287-3.34-3.24-3.589a4.102 4.102 0 0 0-.463-.03ZM68.57 7.122h-1.525V5.959h1.519V3.155h1.367v2.801h3.05v1.156h-3.002c0 .207-.029.364-.029.519v6.32c0 .34.032.68.093 1.015.032.252.148.486.328.66.18.176.415.282.663.302.46.06.93.056 1.397.076h.547v1.116a1.7 1.7 0 0 1-.28.043h-1.609c-1.583-.066-2.48-.985-2.5-2.594-.029-2.299 0-4.577-.016-6.87l-.003-.577Z" fill="#fff"/><path d="M71.874 17.655h-.807c-1.856-.076-2.934-1.195-2.957-3.073-.02-1.61-.02-3.245 0-4.827V7.62h-1.528V5.486h1.519V2.67h2.32v2.8h3.05v2.129h-3.044v6.37c.003.31.032.62.086.925.02.147.091.28.199.38a.608.608 0 0 0 .39.159c.322.043.644.05.965.062H73.451v2.04l-.4.069h-.073a1.301 1.301 0 0 1-.28.036h-.824v.016Zm-4.352-11.02h1.524V14.56c.016 1.346.702 2.058 2.043 2.11h1.403v-.186H72.03a9.986 9.986 0 0 1-1.068-.07 1.54 1.54 0 0 1-.93-.427 1.597 1.597 0 0 1-.47-.925 6.235 6.235 0 0 1-.067-1.107V7.617c0-.121 0-.24.019-.364v-.184l.029-.453h2.97v-.187h-3.05V3.638h-.419v2.807h-1.515l-.007.19ZM19.552 11.072a1.819 1.819 0 0 0-.184 1.445c.099.322.091.668-.022.985-.13.324-.355.599-.644.788-.22.138-.403.331-.532.56-.128.23-.197.49-.201.753-.02.35-.152.684-.376.95a1.56 1.56 0 0 1-.863.521c-.25.06-.484.18-.679.352a1.622 1.622 0 0 0-.44.634 1.724 1.724 0 0 1-.705.794c-.32.174-.684.241-1.043.194a1.297 1.297 0 0 0-1.148.37 1.79 1.79 0 0 1-.584.433c-.22.102-.46.158-.703.162a1.991 1.991 0 0 1-.54-.079 3.49 3.49 0 0 0-1.899 0 1.733 1.733 0 0 1-1.176-.091c-.22-.1-.42-.245-.583-.427a1.241 1.241 0 0 0-.513-.329 1.22 1.22 0 0 0-.604-.042c-.377.049-.76-.02-1.097-.197a1.748 1.748 0 0 1-.733-.821 1.64 1.64 0 0 0-.44-.61 1.598 1.598 0 0 0-.66-.343 1.604 1.604 0 0 1-.87-.551 1.872 1.872 0 0 1-.366-1.015 1.45 1.45 0 0 0-.176-.638 1.42 1.42 0 0 0-.439-.488 1.86 1.86 0 0 1-.714-.893 1.968 1.968 0 0 1-.032-1.163 1.47 1.47 0 0 0-.264-1.293 1.488 1.488 0 0 1-.206-1.51 5.249 5.249 0 0 0 .422-2.368c-.019-.28.038-.56.163-.81s.314-.46.548-.609c.209-.14.382-.328.506-.55.123-.223.192-.472.201-.727.019-.351.145-.688.36-.962.227-.27.53-.46.87-.542.25-.053.482-.168.679-.334.197-.166.351-.378.45-.618.124-.33.352-.61.648-.794.296-.185.644-.263.99-.224.623.053 1-.066 1.34-.43.245-.269.566-.453.918-.525.356-.06.721 0 1.042.167a1.6 1.6 0 0 0 1.425 0 1.54 1.54 0 0 1 1.055-.171c.36.07.685.268.918.559.141.157.317.278.514.353a1.3 1.3 0 0 0 .615.077c.398-.053.803.025 1.155.223.342.215.607.536.756.916.078.191.2.36.357.492.157.132.342.224.54.267.39.083.742.291 1.008.594.248.307.388.691.395 1.09.054.437.273.836.611 1.11.239.248.454.519.644.808l.126.177a.755.755 0 0 1 .064.657 1.858 1.858 0 0 0 .138 1.641 2 2 0 0 1-.022 2.082Z" fill="#fff"/><path d="M19.568 8.994a1.853 1.853 0 0 1-.139-1.642.759.759 0 0 0-.064-.657l-.125-.177a5.669 5.669 0 0 0-.644-.808 1.693 1.693 0 0 1-.605-1.113 1.785 1.785 0 0 0-.395-1.087 1.858 1.858 0 0 0-1.008-.594 1.245 1.245 0 0 1-.54-.267 1.28 1.28 0 0 1-.357-.492 1.899 1.899 0 0 0-.756-.916 1.863 1.863 0 0 0-1.155-.223 1.3 1.3 0 0 1-1.13-.43 1.562 1.562 0 0 0-.916-.56 1.54 1.54 0 0 0-1.056.169 1.6 1.6 0 0 1-1.425 0A1.66 1.66 0 0 0 8.211.03a1.704 1.704 0 0 0-.917.538c-.341.365-.718.483-1.342.417a1.541 1.541 0 0 0-.988.222 1.592 1.592 0 0 0-.65.793c-.098.24-.252.453-.448.62-.197.166-.43.281-.68.335-.338.08-.642.266-.87.532-.215.274-.341.61-.36.962-.01.255-.078.504-.201.727a1.586 1.586 0 0 1-.506.55 1.538 1.538 0 0 0-.548.61c-.125.25-.182.529-.163.809a5.249 5.249 0 0 1-.422 2.377 1.489 1.489 0 0 0 .206 1.51 1.455 1.455 0 0 1 .254 1.294c-.106.382-.095.788.032 1.163.143.368.396.681.724.893.183.126.334.294.44.491.107.197.167.417.175.642.02.368.148.721.367 1.014.224.273.528.465.868.545.244.057.472.171.665.334.194.162.347.369.448.602.152.348.409.635.734.821.332.18.71.255 1.084.213a1.221 1.221 0 0 1 1.107.385c.164.182.363.327.584.427a1.733 1.733 0 0 0 1.176.091 3.49 3.49 0 0 1 1.898 0c.176.052.358.078.54.08a1.76 1.76 0 0 0 1.287-.595 1.297 1.297 0 0 1 1.158-.387c.36.047.723-.02 1.043-.194.31-.182.557-.459.704-.791.095-.245.246-.462.441-.634s.428-.292.68-.352a1.56 1.56 0 0 0 .859-.525c.223-.266.353-.6.372-.949.004-.264.074-.523.202-.753.128-.23.311-.422.532-.56.288-.19.513-.465.643-.788.114-.317.121-.664.023-.985a1.828 1.828 0 0 1 .183-1.445 2 2 0 0 0 .023-2.075Zm-.296 1.92a2.14 2.14 0 0 0-.21 1.698c.085.263.077.548-.022.806a1.192 1.192 0 0 1-.518.61c-.26.167-.476.397-.627.67a1.93 1.93 0 0 0-.242.896 1.3 1.3 0 0 1-.301.759c-.179.212-.421.36-.69.42a1.867 1.867 0 0 0-.804.399 1.919 1.919 0 0 0-.534.733c-.114.28-.316.512-.576.66-.259.147-.56.2-.852.151a1.602 1.602 0 0 0-.76.061c-.244.081-.467.22-.65.405a1.413 1.413 0 0 1-1.522.43 3.559 3.559 0 0 0-.964-.134c-.37.002-.737.052-1.094.148a1.395 1.395 0 0 1-1.438-.427 1.567 1.567 0 0 0-.63-.413 1.539 1.539 0 0 0-.744-.07c-.307.054-.623 0-.897-.15a1.411 1.411 0 0 1-.615-.684 1.94 1.94 0 0 0-.53-.716c-.23-.193-.5-.33-.79-.397a1.283 1.283 0 0 1-.725-.459 1.33 1.33 0 0 1-.285-.821 1.765 1.765 0 0 0-.21-.775 1.726 1.726 0 0 0-.53-.595 1.454 1.454 0 0 1-.602-.745 1.49 1.49 0 0 1-.015-.966 1.795 1.795 0 0 0-.322-1.569 1.178 1.178 0 0 1-.177-1.192c.343-.789.496-1.65.447-2.512a1.256 1.256 0 0 1 .134-.644c.1-.198.253-.365.439-.482.249-.167.455-.392.602-.656.147-.265.23-.56.244-.864.005-.289.108-.566.291-.786.183-.22.435-.368.713-.42.296-.065.573-.202.806-.4.233-.198.415-.45.532-.736.098-.267.28-.494.517-.645.238-.151.517-.217.796-.189.29.055.589.035.87-.057.28-.092.534-.254.739-.471A1.264 1.264 0 0 1 9.119.483a1.88 1.88 0 0 0 1.688 0c.263-.15.569-.2.864-.14.295.06.559.227.745.468a1.6 1.6 0 0 0 1.387.529 1.4 1.4 0 0 1 .97.179c.293.175.515.452.625.78.098.237.25.447.445.61.194.165.425.279.672.332.322.053.616.221.828.475.212.254.33.577.33.91.057.516.311.988.708 1.314.221.236.422.49.601.762l.122.177a.405.405 0 0 1 .026.345 2.174 2.174 0 0 0 .174 1.934 1.668 1.668 0 0 1-.032 1.757Z" fill="#fff"/><path d="m7.094 11.108.421-.407.93.985 2.834-4.045.49.36L8.55 12.6l-1.457-1.491ZM9.915 17.252h-.157v-.71h.44l.023.71H9.9h.016Zm-.038-.118h.231l-.016-.47h-.209l-.006.47Zm-.628.088h-.057l-.354-.046H8.78l.106-.702h.058l.322.042h.057l-.074.706Zm-.321-.164c.074 0 .151.023.228.03l.048-.467-.209-.026-.067.463Zm1.824.148-.087-.706h.061l.322-.05h.058l.122.7h-.058c-.116.02-.235.04-.35.053l-.068.003Zm.045-.601.045.47.228-.037-.077-.463-.196.03Zm-2.52.47H8.22a6.622 6.622 0 0 1-.341-.1H7.82l.2-.679h.057l.322.089h.058l-.18.69Zm-.32-.21.221.065.113-.456-.19-.056-.145.446Zm3.738.17-.184-.686h.058l.322-.096.058-.02.215.677-.054.02a5.858 5.858 0 0 1-.345.102l-.07.003Zm-.026-.617.122.453.222-.07-.145-.442-.2.059Zm-4.33.328h-.055l-.322-.144-.055-.027.293-.656.052.023c.1.049.199.091.296.13l.054.024-.264.65Zm-.261-.24.212.096.17-.437-.205-.076-.177.417Zm5.575.19-.273-.656.055-.023.29-.134.054-.027.306.637-.052.027a7.097 7.097 0 0 1-.322.15l-.058.027Zm-.119-.587.184.43.209-.098-.203-.42-.19.088Zm-6.067.217-.052-.03c-.103-.059-.203-.125-.302-.19l-.052-.033.373-.594.052.033.273.17.052.03-.344.614Zm-.242-.29.2.126.212-.401-.18-.112-.232.388Zm7.287.211-.36-.607.052-.033.27-.174.048-.037.39.588-.049.036-.3.194-.05.033Zm-.196-.568.241.41c.065-.039.13-.082.193-.128l-.257-.387-.177.105Zm-7.686.082-.048-.04a5.971 5.971 0 0 1-.274-.23l-.045-.039.454-.538.045.04c.08.071.164.14.248.21l.048.036-.428.561Zm-.2-.328c.059.052.12.101.18.15l.28-.37-.16-.135-.3.355Zm8.893.223-.437-.552h.045c.083-.069.164-.14.244-.213l.042-.043.466.529-.041.04c-.09.082-.18.161-.27.236l-.049.003Zm-.273-.535.292.364.174-.154-.306-.348a.8.8 0 0 1-.16.157v-.02Zm-9.157-.017-.042-.042a6.161 6.161 0 0 1-.24-.266l-.04-.046.522-.47.038.046c.071.082.145.164.22.243l.041.043-.499.492Zm-.154-.328.154.174.322-.328-.132-.174-.344.328Zm10.295.233-.508-.486.038-.043c.073-.078.144-.16.213-.246l.038-.046.534.457-.038.046c-.077.095-.158.183-.235.272l-.042.046Zm-.344-.492.322.328.154-.177-.354-.302c-.013.032-.061.082-.11.137l-.012.014Zm-10.45-.158-.035-.046c-.071-.099-.139-.2-.203-.299l-.032-.052.58-.388.034.05c.055.088.116.18.18.269l.036.049-.56.417Zm-.106-.361c.042.065.087.131.132.194l.37-.276-.12-.178-.382.26Zm11.524.233-.57-.407.033-.05c.061-.088.122-.18.177-.272l.032-.05.589.375-.03.053a9.653 9.653 0 0 1-.195.302l-.036.049Zm-.392-.44.376.27c.045-.066.087-.132.129-.198l-.39-.25-.115.178Zm-11.544-.28-.029-.048a6.155 6.155 0 0 1-.16-.329l-.026-.052.643-.306.026.056c.045.095.093.194.145.292l.025.053-.624.335Zm-.058-.377.106.21.412-.21-.096-.19-.422.19Zm12.519.233-.618-.328.026-.053c.048-.098.093-.197.138-.295l.023-.056.643.289-.026.056c-.045.108-.096.22-.15.328l-.036.06Zm-.46-.374.408.213c.036-.072.068-.144.1-.213l-.418-.187c-.03.052-.049.118-.09.18v.007ZM3.31 12.589l-.019-.056a5.926 5.926 0 0 1-.116-.345v-.055l.663-.21.02.055c.032.105.064.21.102.329l.02.056-.67.226Zm0-.378c.023.076.049.152.074.224l.432-.161-.068-.2-.438.137Zm13.268.227-.66-.23.02-.056c.036-.101.068-.207.097-.311l.016-.06.669.197-.016.056a6.23 6.23 0 0 1-.106.348l-.02.056Zm-.511-.289.434.154c.023-.075.048-.15.068-.226l-.441-.128a1.51 1.51 0 0 0-.061.2ZM3.03 11.627v-.06a6.256 6.256 0 0 1-.068-.354v-.059l.688-.115v.06c0 .108.036.216.058.328v.059l-.678.141Zm.048-.374c0 .079.026.154.042.233l.45-.099c0-.069-.029-.14-.039-.21l-.453.076Zm13.757.216-.685-.13v-.06c.019-.105.035-.213.051-.328v-.06l.692.099v.06c0 .117-.036.239-.058.357v.062Zm-.547-.226.45.085c0-.075.03-.154.039-.233l-.454-.062c-.01.069-.022.131-.035.21Zm-13.394-.608v-.483l.695-.016v.453l-.695.046Zm.1-.364v.236l.46-.032v-.214l-.46.01Zm13.976.204-.695-.037v-.486h.695v.523Zm-.57-.148.457.023v-.28h-.45c0 .086 0 .171-.02.257h.013ZM3.577 9.67l-.691-.046v-.062c0-.119.02-.24.032-.361v-.06l.692.082v.06c0 .108-.023.22-.03.328l-.003.059Zm-.579-.148.457.033.02-.213-.457-.053-.02.233ZM16.253 9.5V9.44c0-.108-.022-.22-.038-.328v-.063l.688-.101v.059c.02.121.033.243.042.361v.062l-.692.07Zm.08-.344c0 .072.02.14.027.213l.457-.046c0-.076-.017-.154-.03-.233l-.453.066ZM3.678 8.783l-.682-.147v-.06c.026-.114.052-.236.08-.35l.017-.06.672.18v.057a4.475 4.475 0 0 0-.074.328l-.013.052Zm-.54-.246.45.095c0-.069.03-.137.045-.206l-.444-.119c-.02.082-.035.161-.051.23Zm12.978.06v-.06c-.022-.105-.051-.213-.08-.328l-.02-.056.67-.2v.059c.035.118.064.236.093.351v.06l-.663.173Zm.036-.352c.019.069.035.138.054.204l.444-.109a2.341 2.341 0 0 0-.058-.226l-.44.131ZM3.909 7.917l-.644-.243.02-.056c.042-.112.083-.227.128-.329l.026-.055.644.272-.023.056c-.042.102-.08.204-.116.309l-.035.046Zm-.502-.329.431.161.077-.2-.424-.18-.084.226v-.007Zm12.45.141-.019-.055a4.976 4.976 0 0 0-.125-.302l-.026-.053.644-.295.025.055c.049.112.097.224.139.329l.022.056-.66.265Zm0-.35c.03.065.055.127.081.193l.428-.17c-.029-.073-.058-.145-.09-.218l-.418.194ZM4.277 7.072l-.615-.329.03-.052c.054-.108.115-.214.173-.328l.032-.053.595.361-.029.053c-.054.095-.106.19-.157.285l-.03.063Zm-.454-.384.405.22.103-.188-.395-.24-.113.208Zm11.679.22-.058-.046a6.34 6.34 0 0 0-.164-.28l-.033-.052.59-.378.031.05c.065.101.126.207.184.312l.035.052-.585.342Zm-.061-.329c.035.06.074.122.106.18l.402-.229-.12-.2-.388.25ZM4.723 6.304l-.566-.417.035-.049c.07-.095.142-.194.216-.289l.038-.046.544.444-.039.049c-.067.082-.132.17-.193.26l-.035.048Zm-.4-.443.374.276c.039-.06.084-.115.126-.17l-.358-.293-.141.187Zm10.682.296-.035-.046a7.952 7.952 0 0 0-.203-.256l-.038-.046.53-.46.039.046c.077.092.151.187.222.282l.035.05-.55.43Zm-.11-.329.13.168.366-.286-.145-.184-.35.302Zm-9.612-.216-.502-.493.042-.043c.083-.088.167-.174.254-.256l.042-.042.476.515-.042.043-.229.23-.041.046Zm-.322-.496.322.328c.048-.052.1-.102.148-.15l-.322-.33-.148.152Zm9.475.364-.042-.042a3.865 3.865 0 0 0-.235-.224l-.042-.042.463-.529.042.04c.09.081.177.164.26.249l.043.043-.49.505Zm-.152-.328.152.144.321-.328-.167-.16-.306.344Zm-8.335-.17-.444-.55.045-.039c.093-.072.19-.147.286-.216l.048-.036.402.58-.048.034-.257.197-.032.03Zm-.264-.536.283.368.167-.128-.267-.381-.183.14Zm8.085.424-.048-.037a5.511 5.511 0 0 0-.264-.187l-.049-.033.386-.59.052.032c.097.066.193.138.29.21l.048.036-.415.569Zm-.21-.273c.058.04.116.079.171.121l.274-.374a2.55 2.55 0 0 0-.19-.138l-.254.391Zm-6.897-.115-.35-.614.05-.03c.104-.059.206-.118.322-.174l.052-.03.322.631-.055.03-.28.158-.061.03Zm-.19-.568.232.404.183-.102-.212-.417-.203.115Zm6.54.476-.05-.026a4.783 4.783 0 0 0-.287-.151l-.052-.026.303-.657.051.026c.11.053.217.108.322.168l.051.03-.337.636Zm-.231-.26c.061.034.122.063.183.1l.226-.424-.206-.109-.203.434Zm-5.328-.055-.264-.657.055-.023c.11-.046.219-.088.322-.128l.058-.023.228.673-.054.02-.3.115-.045.023Zm-.11-.591.175.433.196-.075-.155-.444-.215.086Zm4.881.512-.057-.02c-.1-.039-.2-.075-.303-.108l-.058-.02.213-.676.058.02c.113.035.22.074.321.118l.055.023-.229.663Zm-.267-.226.197.072.16-.44-.218-.076-.139.444Zm-3.651 0-.184-.683.055-.017.348-.079h.058l.138.696h-.058c-.106.02-.21.046-.322.073l-.035.01Zm-.03-.601.088.46.202-.047-.086-.46c-.065.014-.139.034-.216.05l.013-.003Zm3.1.558h-.059a4.33 4.33 0 0 0-.322-.063h-.058l.113-.709h.058l.348.072h.057l-.138.7Zm-.294-.184.203.04.1-.457-.225-.046-.078.463Zm-1.92.069-.074-.706h.058c.117-.013.237-.023.357-.03h.058l.038.71h-.058l-.321.026h-.058Zm.058-.598.048.467.209-.02-.029-.473a2.57 2.57 0 0 0-.228.02v.006Zm1.267.578h-.058c-.106 0-.212-.016-.322-.02h-.057l.019-.709h.061c.116 0 .238 0 .354.02h.058l-.055.71Zm-.322-.141h.206l.039-.466h-.232l-.013.466Z" fill="#003BB3"/></g><defs><clipPath id="a"><path fill="#fff" d="M0 0h85v20H0z"/></clipPath></defs></svg>