<svg width="90" height="21" fill="none" xmlns="http://www.w3.org/2000/svg">
  <g clip-path="url(#a)">
    <path d="m32.857 2.857-.055 1.206H28.67v13.715h-1.488V4.088H22.96v-1.23h9.896Z" fill="#003BB3"/>
    <path d="M29.175 18.283h-2.497V4.575h-4.221V2.357h10.925l-.096 2.211h-4.111v13.715Zm-1.489-1.022h.48V3.56h4.156v-.198h-8.857v.208h4.221v13.69ZM47.35 17.84h-1.424V2.967h1.468c2.725 4.133 5.469 8.278 8.23 12.434l.085-.024V2.967h1.458V17.84H55.71a10591.82 10591.82 0 0 0-8.26-12.506l-.1.024V17.84Z" fill="#003BB3"/>
    <path d="M57.66 18.34h-2.231L47.842 6.858v11.484H45.41V2.463h2.242l7.531 11.398V2.463h2.467l.01 15.878Zm-1.703-1.021h.681V3.47h-.433v12.284l-.804.235L47.11 3.471h-.681v13.865h.419V4.97l.828-.215 8.28 12.564ZM79.78 12.541c-.249 1.704 1.114 3.57 2.94 4.088 1.826.518 4.258.055 5.089-2.418h1.495a4.54 4.54 0 0 1-1.396 2.384c-1.237 1.128-2.725 1.482-4.364 1.39a5.693 5.693 0 0 1-2.504-.705 5.151 5.151 0 0 1-2.476-3.09 7.134 7.134 0 0 1 .085-4.653c.742-2.023 2.245-3.165 4.367-3.475a5.808 5.808 0 0 1 4.313.927 5.014 5.014 0 0 1 2.139 3.805c.054.562 0 1.131 0 1.74l-9.688.007Zm8.257-1.188c0-1.496-.49-2.695-1.761-3.485a4.558 4.558 0 0 0-4.824.099c-1.151.824-1.645 1.982-1.727 3.386h8.312Z" fill="#003BB3"/>
    <path d="M84.025 18.507h-.507a6.268 6.268 0 0 1-2.725-.766 5.662 5.662 0 0 1-2.726-3.383 7.603 7.603 0 0 1 .096-4.973c.783-2.146 2.432-3.461 4.769-3.798a6.292 6.292 0 0 1 4.677 1.021 5.525 5.525 0 0 1 2.354 4.17c.03.41.035.82.017 1.23V13.047h-9.722c.05 1.318 1.172 2.69 2.595 3.086 1.663.463 3.775 0 4.48-2.091l.116-.341h2.483l-.136.606a5.083 5.083 0 0 1-1.55 2.657 5.985 5.985 0 0 1-4.22 1.543Zm.058-12.01c-.333 0-.665.025-.995.074-1.968.283-3.304 1.342-3.965 3.148a6.602 6.602 0 0 0-.075 4.326 4.672 4.672 0 0 0 2.238 2.8 5.247 5.247 0 0 0 2.286.644c1.66.092 2.967-.32 3.996-1.26.468-.418.83-.94 1.06-1.523h-.47a4.06 4.06 0 0 1-2.361 2.289 5.31 5.31 0 0 1-3.213.109c-2.074-.576-3.587-2.698-3.3-4.633l.06-.43h9.638v-.08c.017-.371.01-.742-.017-1.111a4.54 4.54 0 0 0-1.928-3.441 4.987 4.987 0 0 0-2.954-.913Zm4.463 5.36H79.19l.031-.534c.099-1.67.736-2.902 1.938-3.747a5.11 5.11 0 0 1 5.386-.12c1.335.835 1.99 2.113 1.996 3.911l.004.49Zm-8.261-1.021h7.228a3.124 3.124 0 0 0-1.502-2.555 4.04 4.04 0 0 0-4.265.082 3.504 3.504 0 0 0-1.461 2.487v-.014ZM32.7 12.018c0-1.727.484-3.267 1.765-4.486a5.55 5.55 0 0 1 3.68-1.52c2.07-.091 3.848.549 5.109 2.262a5.76 5.76 0 0 1 1.087 3.107 6.51 6.51 0 0 1-.723 3.747 5.495 5.495 0 0 1-4.299 2.828 6.02 6.02 0 0 1-3.277-.423c-2.044-.899-3.066-2.548-3.325-4.714-.017-.195-.017-.385-.017-.576-.02-.075 0-.15 0-.225Zm10.18-.095c0-.102-.021-.276-.032-.453-.14-2.334-1.556-3.904-3.87-4.19a4.139 4.139 0 0 0-4.428 2.5 5.91 5.91 0 0 0-.228 3.747c.395 1.57 1.363 2.647 2.95 3.066 1.649.42 3.151.089 4.37-1.148.937-.95 1.217-2.16 1.237-3.522Z" fill="#003BB3"/>
    <path d="M38.403 18.513a6.358 6.358 0 0 1-2.565-.528c-2.112-.923-3.328-2.643-3.625-5.11 0-.156-.023-.31-.027-.46v-.143a1.612 1.612 0 0 1 0-.184v-.064c0-2.044.627-3.618 1.921-4.851a6.03 6.03 0 0 1 4.003-1.656c2.385-.109 4.255.72 5.553 2.463a6.233 6.233 0 0 1 1.182 3.373 6.993 6.993 0 0 1-.784 4.02 6.002 6.002 0 0 1-4.673 3.065 7.372 7.372 0 0 1-.985.075Zm.123-12.004h-.375a5.049 5.049 0 0 0-3.356 1.38c-1.083 1.021-1.61 2.384-1.61 4.118v.357c0 .133 0 .26.023.378.252 2.12 1.244 3.53 3.025 4.31a5.539 5.539 0 0 0 3.008.385c1.806-.242 3.093-1.087 3.928-2.576a5.924 5.924 0 0 0 .657-3.457 5.188 5.188 0 0 0-.988-2.838C41.813 7.186 40.4 6.51 38.526 6.51Zm.054 10.757a5.74 5.74 0 0 1-1.43-.187c-1.704-.44-2.859-1.622-3.312-3.407a6.417 6.417 0 0 1 .249-4.067 4.636 4.636 0 0 1 4.953-2.81c2.545.317 4.156 2.06 4.31 4.66 0 .126 0 .255.023.34v.127c0 1.076-.177 2.643-1.362 3.866a4.698 4.698 0 0 1-3.43 1.478Zm-.143-9.514a3.6 3.6 0 0 0-3.406 2.221 5.45 5.45 0 0 0-.208 3.44c.364 1.438 1.233 2.344 2.589 2.688a3.803 3.803 0 0 0 3.887-1.022c.725-.739 1.062-1.703 1.086-3.147v-.075c0-.102 0-.235-.024-.365C42.24 9.384 41 8.028 38.931 7.77a4.326 4.326 0 0 0-.494-.017ZM59.045 12.018c0-1.727.484-3.267 1.768-4.486a5.542 5.542 0 0 1 3.675-1.52c2.075-.091 3.85.549 5.11 2.262a5.734 5.734 0 0 1 1.087 3.107 6.538 6.538 0 0 1-.719 3.747c-.943 1.676-2.412 2.572-4.302 2.828a6.022 6.022 0 0 1-3.277-.423c-2.044-.899-3.066-2.548-3.322-4.714-.023-.188-.023-.378-.034-.57.01-.081.014-.156.014-.23Zm10.196-.095c0-.102-.02-.276-.031-.453-.136-2.334-1.557-3.904-3.87-4.19a4.136 4.136 0 0 0-4.428 2.5 5.887 5.887 0 0 0-.229 3.747c.396 1.57 1.363 2.647 2.947 3.066 1.652.42 3.151.089 4.37-1.148.944-.95 1.224-2.16 1.24-3.522Z" fill="#003BB3"/>
    <path d="M64.764 18.513a6.358 6.358 0 0 1-2.565-.528c-2.109-.923-3.328-2.643-3.621-5.11-.02-.156-.024-.31-.031-.46V12.024c0-2.044.627-3.618 1.925-4.851a6.022 6.022 0 0 1 4.002-1.656c2.385-.109 4.255.72 5.55 2.463a6.265 6.265 0 0 1 1.185 3.373 7.021 7.021 0 0 1-.784 4.02 6.006 6.006 0 0 1-4.673 3.065 7.454 7.454 0 0 1-.988.075Zm.122-12.004h-.374a5.041 5.041 0 0 0-3.352 1.38c-1.087 1.021-1.612 2.384-1.612 4.118v.357c0 .133 0 .26.02.375.256 2.122 1.244 3.533 3.03 4.313.945.406 1.986.539 3.004.385 1.809-.242 3.093-1.087 3.93-2.576a5.958 5.958 0 0 0 .658-3.457 5.188 5.188 0 0 0-.988-2.838c-1.025-1.38-2.435-2.057-4.316-2.057Zm.055 10.757a5.73 5.73 0 0 1-1.427-.187c-1.704-.44-2.862-1.622-3.315-3.407a6.418 6.418 0 0 1 .252-4.067 4.633 4.633 0 0 1 4.953-2.824c2.545.317 4.156 2.061 4.31 4.66 0 .123 0 .249.023.34V11.923c0 1.076-.173 2.643-1.362 3.866a4.706 4.706 0 0 1-3.434 1.478Zm-.143-9.514a3.594 3.594 0 0 0-3.407 2.221 5.403 5.403 0 0 0-.207 3.44c.36 1.438 1.233 2.344 2.585 2.688a3.803 3.803 0 0 0 3.887-1.022c.729-.739 1.063-1.703 1.087-3.15v-.082c0-.1-.017-.229-.024-.341-.126-2.109-1.363-3.464-3.43-3.723a4.43 4.43 0 0 0-.491-.031ZM72.603 7.388h-1.615V6.183h1.608v-2.91h1.448V6.18h3.23v1.2h-3.179c0 .214-.03.377-.03.538v6.557c0 .353.033.706.098 1.053a1.148 1.148 0 0 0 1.05.998c.487.061.984.058 1.478.078h.579v1.158a1.819 1.819 0 0 1-.296.045H75.27c-1.676-.069-2.626-1.022-2.647-2.692-.03-2.384 0-4.748-.017-7.126l-.003-.6Z" fill="#003BB3"/>
    <path d="M76.1 18.317h-.855c-1.966-.079-3.107-1.24-3.13-3.189-.021-1.669-.021-3.365 0-5.007V7.907h-1.619V5.692h1.608V2.77h2.456v2.905h3.23v2.208h-3.223V14.49c.003.323.034.644.092.961a.65.65 0 0 0 .623.559c.34.044.681.05 1.022.064H77.77v2.116l-.422.071h-.079a1.395 1.395 0 0 1-.296.038H76.1v.017ZM71.49 6.885h1.616V15.104c.017 1.397.742 2.136 2.163 2.19H76.754v-.193h-.491a10.793 10.793 0 0 1-1.13-.072 1.646 1.646 0 0 1-1.483-1.403 6.355 6.355 0 0 1-.071-1.148V7.903c0-.126 0-.249.02-.378v-.19l.031-.47h3.144V6.67h-3.23V3.774h-.442v2.913h-1.604l-.007.198ZM20.7 11.486a1.86 1.86 0 0 0-.193 1.499c.104.334.096.693-.024 1.022a1.774 1.774 0 0 1-.681.817 1.63 1.63 0 0 0-.777 1.363 1.66 1.66 0 0 1-1.312 1.526 1.682 1.682 0 0 0-1.185 1.022 1.801 1.801 0 0 1-.746.824c-.338.18-.724.25-1.104.201a1.4 1.4 0 0 0-1.216.385 1.894 1.894 0 0 1-1.362.617 2.151 2.151 0 0 1-.573-.082 3.767 3.767 0 0 0-2.01 0 1.866 1.866 0 0 1-1.863-.538 1.318 1.318 0 0 0-1.182-.385 1.987 1.987 0 0 1-1.162-.204 1.826 1.826 0 0 1-.776-.852 1.704 1.704 0 0 0-1.165-.988 1.704 1.704 0 0 1-.92-.572 1.918 1.918 0 0 1-.389-1.053 1.481 1.481 0 0 0-.65-1.168 1.938 1.938 0 0 1-.756-.927 2.003 2.003 0 0 1-.034-1.206 1.495 1.495 0 0 0-.28-1.342 1.516 1.516 0 0 1-.218-1.567c.34-.772.494-1.614.446-2.456a1.608 1.608 0 0 1 .753-1.472 1.659 1.659 0 0 0 .75-1.325 1.74 1.74 0 0 1 .381-.998c.24-.28.562-.477.92-.562a1.67 1.67 0 0 0 1.196-.988 1.659 1.659 0 0 1 1.734-1.056c.66.055 1.059-.068 1.42-.446.259-.28.598-.47.971-.545.377-.062.764 0 1.104.174a1.724 1.724 0 0 0 1.509 0 1.659 1.659 0 0 1 2.088.402 1.403 1.403 0 0 0 1.196.446c.421-.055.85.027 1.223.231.361.223.642.556.8.95a1.33 1.33 0 0 0 .95.788c.413.086.786.302 1.067.616.263.32.411.718.419 1.131.057.454.289.867.647 1.152.252.258.48.538.681.838l.133.184a.772.772 0 0 1 .068.681 1.895 1.895 0 0 0 .147 1.703 2.044 2.044 0 0 1-.024 2.16Z" fill="#003BB3"/>
    <path d="M20.718 9.33a1.895 1.895 0 0 1-.146-1.703.774.774 0 0 0-.069-.681l-.133-.184c-.2-.3-.429-.58-.68-.838a1.747 1.747 0 0 1-.641-1.155 1.83 1.83 0 0 0-.42-1.127 1.976 1.976 0 0 0-1.066-.617 1.329 1.329 0 0 1-.95-.787 1.98 1.98 0 0 0-.8-.95 2.007 2.007 0 0 0-1.223-.232A1.404 1.404 0 0 1 13.394.61a1.66 1.66 0 0 0-2.088-.406 1.724 1.724 0 0 1-1.51 0A1.788 1.788 0 0 0 8.694.031a1.812 1.812 0 0 0-.97.558c-.362.379-.76.501-1.421.433a1.659 1.659 0 0 0-1.734 1.053 1.67 1.67 0 0 1-1.196.991 1.737 1.737 0 0 0-.92.552 1.74 1.74 0 0 0-.381.998 1.659 1.659 0 0 1-.75 1.325 1.608 1.608 0 0 0-.753 1.472 5.348 5.348 0 0 1-.446 2.466 1.516 1.516 0 0 0 .218 1.567 1.495 1.495 0 0 1 .27 1.342c-.114.396-.102.817.033 1.206.151.382.42.707.767.927a1.481 1.481 0 0 1 .65 1.175c.022.382.157.748.389 1.052.237.284.56.482.92.566a1.703 1.703 0 0 1 1.178.97c.16.361.433.66.777.852.352.188.752.265 1.148.222a1.318 1.318 0 0 1 1.172.398 1.868 1.868 0 0 0 1.863.539 3.768 3.768 0 0 1 2.01 0c.186.053.379.08.572.081a1.894 1.894 0 0 0 1.363-.616 1.4 1.4 0 0 1 1.226-.402c.38.049.766-.021 1.104-.201.329-.188.59-.476.746-.821a1.684 1.684 0 0 1 1.185-1.022 1.66 1.66 0 0 0 1.305-1.53 1.628 1.628 0 0 1 .777-1.362c.305-.197.543-.482.681-.818.12-.329.128-.688.024-1.022a1.861 1.861 0 0 1 .194-1.498 2.044 2.044 0 0 0 .024-2.153Zm-.314 1.993a2.193 2.193 0 0 0-.22 1.761 1.244 1.244 0 0 1-.573 1.469 1.973 1.973 0 0 0-.92 1.625 1.336 1.336 0 0 1-1.05 1.223 1.993 1.993 0 0 0-1.416 1.175 1.393 1.393 0 0 1-1.513.841 1.731 1.731 0 0 0-1.492.484 1.525 1.525 0 0 1-1.611.446 3.84 3.84 0 0 0-1.022-.14c-.391.003-.78.055-1.158.154a1.504 1.504 0 0 1-1.523-.443 1.662 1.662 0 0 0-1.455-.5 1.475 1.475 0 0 1-1.6-.866 2.018 2.018 0 0 0-1.397-1.155 1.363 1.363 0 0 1-1.07-1.328 1.802 1.802 0 0 0-.783-1.42 1.516 1.516 0 0 1-.654-1.776 1.826 1.826 0 0 0-.341-1.628 1.21 1.21 0 0 1-.187-1.237 5.62 5.62 0 0 0 .473-2.606 1.28 1.28 0 0 1 .606-1.168 1.993 1.993 0 0 0 .896-1.577 1.294 1.294 0 0 1 1.063-1.25 1.99 1.99 0 0 0 1.417-1.179 1.339 1.339 0 0 1 1.39-.865A1.887 1.887 0 0 0 7.967.814 1.363 1.363 0 0 1 9.654.501a2.023 2.023 0 0 0 1.788 0 1.335 1.335 0 0 1 1.703.34 1.727 1.727 0 0 0 1.469.549 1.509 1.509 0 0 1 1.69.995 1.652 1.652 0 0 0 1.181.977A1.458 1.458 0 0 1 18.712 4.8c.06.535.33 1.025.749 1.362.235.245.448.51.637.79l.13.185a.415.415 0 0 1 .027.357 2.213 2.213 0 0 0 .184 2.007 1.703 1.703 0 0 1-.035 1.822Z" fill="#003BB3"/>
    <path d="m7.512 11.523.446-.422.984 1.022 3.002-4.197.517.374-3.406 4.77-1.543-1.547ZM10.498 17.898h-.167v-.736h.467l.024.736h-.341.017Zm-.041-.123h.245l-.017-.487h-.221l-.007.487Zm-.664.092H9.73l-.374-.047h-.062l.113-.73h.061l.34.045h.062l-.078.732Zm-.34-.17c.077 0 .16.024.241.03l.051-.483-.221-.027-.072.48Zm1.93.153-.091-.732h.064l.341-.051h.061l.13.725h-.062c-.122.02-.248.041-.37.055l-.072.003Zm.048-.623.048.487.242-.037-.082-.48-.208.03Zm-2.667.487h-.061a7.176 7.176 0 0 1-.361-.102H8.28l.211-.705h.062l.34.092h.062l-.191.715Zm-.34-.218.234.068.12-.473-.201-.058-.154.463Zm3.958.177-.194-.712h.06l.341-.099.062-.02.228.702-.058.02c-.12.038-.242.075-.364.106l-.075.003Zm-.027-.64.129.47.235-.072-.153-.46-.212.062Zm-4.586.34h-.058l-.34-.15-.058-.027.31-.681.054.024c.106.05.212.095.314.136l.058.024-.28.674Zm-.276-.248.225.099.18-.454-.217-.078-.188.433Zm5.904.197-.29-.681.058-.024.307-.14.058-.027.323.661-.054.027a7.586 7.586 0 0 1-.34.157l-.062.027Zm-.126-.61.194.447.221-.102-.214-.436-.201.092Zm-6.425.225-.054-.03c-.11-.062-.215-.13-.32-.198l-.055-.034.395-.617.055.035.29.177.054.03-.365.637Zm-.255-.3.21.13.226-.415-.191-.116-.245.402Zm7.715.219-.381-.63.054-.035.287-.18.05-.038.413.61-.051.038-.317.2-.055.035Zm-.207-.59.255.426c.068-.04.136-.085.205-.133l-.273-.402-.187.11Zm-8.139.086-.05-.041a6.26 6.26 0 0 1-.29-.239l-.048-.04.48-.56.048.042c.085.074.174.146.262.218l.052.037-.454.583Zm-.21-.341c.06.054.125.105.19.157l.296-.385-.17-.14-.317.368Zm9.415.232-.463-.573h.047c.089-.071.174-.146.26-.221l.043-.044.494.548-.044.04c-.095.087-.19.169-.286.246l-.051.003Zm-.29-.556.31.378.184-.16-.323-.36a.837.837 0 0 1-.17.163v-.02ZM5.18 15.67l-.044-.044a6.506 6.506 0 0 1-.255-.276l-.041-.048.552-.487.04.048c.075.085.154.17.232.252l.044.044-.528.511Zm-.163-.34.163.18.341-.34-.14-.181-.364.34Zm10.9.241-.538-.504.041-.044a4.82 4.82 0 0 0 .225-.256l.041-.047.566.473-.041.048c-.082.099-.167.19-.249.283l-.044.047Zm-.364-.51.34.34.164-.184-.374-.313c-.014.034-.065.085-.116.143l-.014.013ZM4.49 14.896l-.038-.048a8.451 8.451 0 0 1-.214-.31l-.034-.054.613-.402.037.05c.058.093.123.188.191.28l.038.051-.593.433Zm-.113-.375c.045.068.092.136.14.201l.392-.286-.126-.184-.406.27Zm12.202.242-.602-.422.034-.052c.064-.091.13-.187.187-.282l.034-.051.623.388-.03.054c-.068.106-.137.212-.208.314l-.038.051Zm-.415-.456.398.279c.048-.068.093-.136.137-.204l-.412-.26-.123.185Zm-12.223-.29-.03-.051a6.35 6.35 0 0 1-.17-.34l-.028-.055.681-.317.028.058c.047.099.098.2.153.303l.027.055-.66.347Zm-.06-.392.111.218.437-.218-.103-.197-.446.197Zm13.254.242-.654-.34.027-.055c.051-.102.099-.204.146-.307l.024-.058.682.3-.028.058a5.116 5.116 0 0 1-.16.34l-.037.062Zm-.487-.388.432.221c.038-.075.072-.15.106-.221l-.443-.194c-.03.054-.051.122-.095.187v.007Zm-13.143-.42-.02-.057a6.078 6.078 0 0 1-.123-.358v-.058l.702-.218.02.058c.035.11.069.218.11.34l.02.059-.709.235Zm0-.391c.024.078.051.157.079.232l.456-.167-.071-.208-.464.143Zm14.049.235-.698-.238.02-.058c.037-.106.071-.215.102-.324l.017-.061.709.204-.017.058a6.3 6.3 0 0 1-.113.361l-.02.058Zm-.542-.3.46.16c.024-.078.051-.156.072-.235l-.467-.133c-.02.052-.044.123-.065.208Zm-13.803-.541V12a6.402 6.402 0 0 1-.072-.367v-.062l.73-.12v.062c0 .113.037.225.06.34v.062l-.718.147Zm.051-.389c0 .082.027.16.044.242l.477-.102c0-.072-.03-.146-.04-.218l-.48.078Zm14.566.225-.725-.136v-.061c.02-.11.037-.222.054-.341V11.3l.733.102v.061c0 .123-.038.249-.062.371v.065Zm-.579-.235.477.089c0-.079.03-.16.041-.242l-.48-.065c-.01.072-.024.136-.038.218Zm-14.181-.63v-.5l.736-.018V10.986l-.736.048Zm.106-.378v.245l.487-.034v-.221l-.487.01Zm14.797.211-.735-.038v-.504h.735v.542Zm-.603-.153.484.024v-.29h-.477c0 .089 0 .177-.02.266h.013Zm-13.578-.682-.732-.047V9.92c0-.123.02-.249.034-.375v-.061l.732.085v.061c0 .113-.024.229-.03.341l-.004.061Zm-.613-.153.484.034.02-.221-.484-.055-.02.242Zm14.035-.024v-.061c0-.112-.024-.228-.041-.34v-.065l.729-.106v.061c.02.126.034.252.044.375v.065l-.732.071Zm.085-.357c0 .075.02.146.027.221l.484-.048c0-.078-.017-.16-.03-.242l-.481.069ZM3.893 9.113l-.722-.154v-.061c.027-.12.054-.245.085-.364l.017-.062.712.188v.057c-.031.11-.055.222-.079.341l-.013.055Zm-.573-.256.477.099c0-.072.031-.143.048-.215l-.47-.122-.055.238Zm13.742.061v-.06c-.024-.11-.054-.222-.085-.341l-.02-.058.708-.208v.061c.038.123.068.245.099.365v.06l-.702.181Zm.038-.364c.02.072.037.143.058.211l.47-.112a2.39 2.39 0 0 0-.062-.235l-.466.136Zm-12.962-.34-.681-.253.02-.058c.044-.115.089-.235.136-.34l.028-.058.68.283-.023.057a5.172 5.172 0 0 0-.123.32l-.037.048Zm-.531-.341.456.167.082-.208-.45-.188c-.03.082-.061.16-.088.235v-.006Zm13.183.146-.02-.058a5.092 5.092 0 0 0-.134-.313l-.027-.055.681-.306.028.058c.05.115.102.231.146.34l.024.058-.698.276Zm0-.364c.03.068.058.133.085.2l.453-.177c-.03-.074-.061-.15-.095-.224l-.443.2ZM4.526 7.338l-.65-.34.03-.055c.058-.113.123-.222.184-.341l.034-.054.63.374-.03.055a12.98 12.98 0 0 0-.167.296l-.03.065Zm-.48-.399.43.229.108-.195-.419-.248-.119.214Zm12.366.229-.062-.048a6.518 6.518 0 0 0-.173-.29l-.035-.054.624-.392.034.051c.068.106.133.215.194.324l.038.054-.62.355Zm-.065-.341c.037.061.078.126.112.187l.426-.238-.126-.208-.412.259ZM5 6.54l-.6-.433.038-.051c.075-.099.15-.201.228-.3l.04-.047.577.46-.041.05c-.072.086-.14.178-.205.27L5 6.54Zm-.423-.46.396.286c.04-.061.088-.12.132-.177l-.378-.303-.15.194Zm11.31.306-.037-.047a8.003 8.003 0 0 0-.215-.266l-.04-.048.561-.477.041.048c.082.095.16.194.235.293l.038.051-.583.446Zm-.116-.34.136.174.389-.297-.154-.19-.37.313ZM5.593 5.822l-.532-.511.044-.044c.089-.092.178-.18.27-.266l.044-.044.504.535-.044.044-.242.238-.044.048Zm-.341-.514.34.34c.052-.054.106-.105.157-.156l-.34-.341-.157.157Zm10.032.378-.044-.045a4.08 4.08 0 0 0-.249-.231l-.044-.045.49-.548.045.04c.095.086.187.171.276.26l.044.044-.518.525Zm-.16-.341.16.15.34-.34-.176-.168-.324.358Zm-8.826-.177-.47-.569.047-.04c.1-.076.201-.154.303-.226l.052-.037.425.603-.05.034-.273.204-.034.03Zm-.28-.555.3.381.177-.133-.282-.395-.195.147Zm8.56.44-.05-.038a5.774 5.774 0 0 0-.28-.195l-.05-.034.408-.613.055.034c.102.068.204.143.306.218l.051.038-.44.59Zm-.22-.284c.06.041.122.082.18.126l.29-.388a2.697 2.697 0 0 0-.201-.143l-.27.405ZM7.053 4.65l-.371-.637.054-.03c.11-.062.218-.123.34-.181l.055-.03.34.653-.057.03-.296.164-.065.031Zm-.201-.59.245.42.194-.106-.224-.432-.215.119Zm6.925.495-.054-.028a5.097 5.097 0 0 0-.303-.156l-.055-.027.32-.682.055.027c.116.055.23.113.34.174l.055.03-.358.662Zm-.245-.27c.065.035.13.065.194.103l.239-.44-.218-.112-.215.45Zm-5.641-.057-.28-.682.059-.023c.115-.048.231-.092.34-.133l.061-.024.242.698-.058.02-.316.12-.048.024Zm-.116-.613.184.45.208-.08-.164-.459-.228.089Zm5.168.53-.062-.02a5.085 5.085 0 0 0-.32-.112l-.061-.02.225-.702.061.02c.12.037.234.078.34.123l.059.024-.242.688Zm-.283-.234.208.075.17-.457-.232-.078-.146.46Zm-3.866 0L8.6 3.202l.058-.017.368-.081h.062l.146.722h-.061c-.113.02-.222.047-.34.075l-.038.01Zm-.031-.623.092.476.215-.047-.092-.477c-.069.013-.147.034-.229.05l.014-.002Zm3.28.579h-.06a4.67 4.67 0 0 0-.341-.065h-.062l.12-.736h.06l.369.075h.06l-.146.726Zm-.31-.191.215.04.106-.473-.239-.047-.082.48Zm-2.033.071-.079-.732h.062c.125-.014.25-.024.378-.03h.061l.041.735h-.061l-.34.027H9.7Zm.061-.62.051.484.222-.02-.031-.49c-.082.003-.164.01-.242.02v.006Zm1.342.6h-.061c-.112 0-.225-.017-.34-.02h-.062l.02-.736h.065c.123 0 .252 0 .375.02h.061l-.058.736Zm-.34-.147h.218l.04-.483h-.245l-.013.483Z" fill="#fff"/>
  </g>
  <defs>
    <clipPath id="a">
      <path fill="#fff" d="M0 0h90v20.749H0z"/>
    </clipPath>
  </defs>
</svg>
