<svg width="24" height="24" fill="none" xmlns="http://www.w3.org/2000/svg">
  <path d="m16.976 7.08-1.02 11.624H8.477L7.457 7.079l-1.292.113 1.039 11.836c.054.545.528.973 1.077.973h7.87c.55 0 1.024-.428 1.08-.981l1.037-11.828-1.292-.113Z" fill="#000"/>
  <path d="M14.595 4H9.838c-.596 0-1.081.485-1.081 1.081v2.054h1.297V5.297h4.325v1.838h1.297V5.081c0-.596-.485-1.081-1.081-1.081Z" fill="#000"/>
  <path d="M19.135 6.487H5.297a.649.649 0 1 0 0 1.298h13.838a.649.649 0 1 0 0-1.298Z" fill="#000"/>
</svg>
