<svg width="24" height="24" viewBox="0 0 24 24" fill="none" xmlns="http://www.w3.org/2000/svg">
  <path d="M12 20C9.86316 20 7.85413 19.1678 6.34314 17.6569C4.83215 16.1459 4 14.1368 4 12C4 9.86316 4.83215 7.85413 6.34314 6.34314C7.85413 4.83215 9.86316 4 12 4C14.1368 4 16.1459 4.83215 17.6569 6.34314C19.1678 7.85413 20 9.86316 20 12C20 14.1368 19.1678 16.1459 17.6569 17.6569C16.1459 19.1678 14.1368 20 12 20ZM12 5.25C8.27808 5.25 5.25 8.27808 5.25 12C5.25 15.7219 8.27808 18.75 12 18.75C15.7219 18.75 18.75 15.7219 18.75 12C18.75 8.27808 15.7219 5.25 12 5.25ZM15.4375 11.3744H8.5625V12.6244H15.4375V11.3744Z" fill="black"/>
</svg>
