<svg width="24" height="24" viewBox="0 0 24 24" fill="none" xmlns="http://www.w3.org/2000/svg">
  <g clip-path="url(#clip0_2726:79713)">
    <path d="M17.3309 9.88152C16.5914 6.93565 13.6039 5.14704 10.658 5.88652C8.3559 6.46442 6.6843 8.45411 6.51207 10.8214C4.87747 11.0909 3.77087 12.6346 4.04044 14.2692C4.28007 15.7223 5.53924 16.7866 7.01202 16.7807H9.51174V15.7808H7.01202C5.90758 15.7808 5.01224 14.8855 5.01224 13.7811C5.01224 12.6766 5.90758 11.7813 7.01202 11.7813C7.28814 11.7813 7.51196 11.5575 7.51196 11.2813C7.50946 8.79633 9.52196 6.7798 12.007 6.77733C14.1581 6.77517 16.0099 8.29594 16.426 10.4064C16.4671 10.6172 16.6381 10.7781 16.8509 10.8064C18.2177 11.001 19.1679 12.2668 18.9733 13.6335C18.7985 14.8608 17.7507 15.7747 16.511 15.7808H14.5112V16.7807H16.511C18.4438 16.7749 20.0058 15.2033 20 13.2705C19.9951 11.6616 18.8938 10.2633 17.3309 9.88152Z" fill="#363740"/>
    <path d="M11.656 11.9262L9.65625 13.9259L10.3612 14.6308L11.511 13.486V18.2804H12.5109V13.486L13.6558 14.6308L14.3607 13.9259L12.361 11.9262C12.1659 11.7323 11.851 11.7323 11.656 11.9262Z" fill="#363740"/>
  </g>
  <defs>
    <clipPath id="clip0_2726:79713">
      <rect width="16" height="16" fill="white" transform="translate(4 4)"/>
    </clipPath>
  </defs>
</svg>
