<svg width="16" height="17" viewBox="0 0 16 17" fill="none" xmlns="http://www.w3.org/2000/svg">
  <g clip-path="url(#clip0_999:41312)">
    <path d="M13.3309 6.38152C12.5914 3.43565 9.60389 1.64704 6.65803 2.38652C4.3559 2.96442 2.6843 4.95411 2.51207 7.32138C0.87747 7.59095 -0.229127 9.13456 0.0404372 10.7692C0.280067 12.2223 1.53924 13.2866 3.01202 13.2807H5.51174V12.2808H3.01202C1.90758 12.2808 1.01224 11.3855 1.01224 10.2811C1.01224 9.17662 1.90758 8.28128 3.01202 8.28128C3.28814 8.28128 3.51196 8.05746 3.51196 7.78133C3.50946 5.29633 5.52196 3.2798 8.00697 3.27733C10.1581 3.27517 12.0099 4.79594 12.426 6.90643C12.4671 7.11716 12.6381 7.27814 12.8509 7.30639C14.2177 7.50102 15.1679 8.76679 14.9733 10.1335C14.7985 11.3608 13.7507 12.2747 12.511 12.2808H10.5112V13.2807H12.511C14.4438 13.2749 16.0058 11.7033 16 9.77052C15.9951 8.16164 14.8938 6.76332 13.3309 6.38152Z" fill="#727272"/>
    <path d="M7.65603 8.42615L5.65625 10.4259L6.36117 11.1308L7.51105 9.98598V14.7804H8.51094V9.98598L9.65581 11.1308L10.3607 10.4259L8.36095 8.42615C8.16594 8.2323 7.85104 8.2323 7.65603 8.42615Z" fill="#727272"/>
  </g>
  <defs>
    <clipPath id="clip0_999:41312">
      <rect width="16" height="16" fill="white" transform="translate(0 0.5)"/>
    </clipPath>
  </defs>
</svg>
