<svg width="24" height="24" viewBox="0 0 24 24" fill="none" xmlns="http://www.w3.org/2000/svg">
  <path d="M18.7308 14.1566C18.2006 13.6907 17.5575 13.2881 16.8193 12.9601C16.5038 12.8199 16.1345 12.962 15.9944 13.2775C15.8542 13.5929 15.9963 13.9622 16.3118 14.1024C16.9342 14.379 17.4706 14.7131 17.9058 15.0956C18.4423 15.567 18.75 16.2496 18.75 16.9688V18.125C18.75 18.4696 18.4696 18.75 18.125 18.75H5.875C5.5304 18.75 5.25 18.4696 5.25 18.125V16.9688C5.25 16.2496 5.55774 15.567 6.09424 15.0956C6.72571 14.5406 8.56555 13.25 12 13.25C14.5502 13.25 16.625 11.1752 16.625 8.625C16.625 6.07483 14.5502 4 12 4C9.44983 4 7.375 6.07483 7.375 8.625C7.375 10.1158 8.08423 11.444 9.18286 12.2903C7.17261 12.7322 5.92212 13.5828 5.26917 14.1566C4.46265 14.8652 4 15.8901 4 16.9688V18.125C4 19.1589 4.84106 20 5.875 20H18.125C19.1589 20 20 19.1589 20 18.125V16.9688C20 15.8901 19.5374 14.8652 18.7308 14.1566ZM8.625 8.625C8.625 6.76404 10.139 5.25 12 5.25C13.861 5.25 15.375 6.76404 15.375 8.625C15.375 10.486 13.861 12 12 12C10.139 12 8.625 10.486 8.625 8.625Z" fill="black"/>
</svg>
