<svg width="24" height="22" viewBox="0 0 24 22" fill="none" xmlns="http://www.w3.org/2000/svg">
<path d="M10.469 0.912254L0.401541 19.6621C-0.167209 20.7218 0.660119 21.9688 1.93249 21.9688H22.0675C23.3398 21.9688 24.1674 20.7218 23.5984 19.6621L13.5309 0.912254C12.9 -0.262418 11.0999 -0.262418 10.469 0.912254Z" fill="#363740"/>
<path d="M12 4.43958C11.8536 4.43736 11.7081 4.4644 11.5722 4.51912C11.4364 4.57384 11.3128 4.65514 11.2087 4.75825C11.1047 4.86135 11.0222 4.98419 10.9663 5.11957C10.9103 5.25494 10.882 5.40013 10.8828 5.54661L11.0894 14.5428C11.0979 14.7775 11.198 14.9995 11.3682 15.1613C11.5384 15.323 11.7652 15.4117 12 15.4083C12.2348 15.4117 12.4615 15.323 12.6317 15.1612C12.8018 14.9994 12.9019 14.7774 12.9104 14.5428L13.1172 5.54661C13.1181 5.40013 13.0897 5.25494 13.0338 5.11957C12.9778 4.98419 12.8954 4.86135 12.7913 4.75825C12.6873 4.65514 12.5637 4.57384 12.4278 4.51912C12.2919 4.4644 12.1465 4.43736 12 4.43958Z" fill="#FF9900"/>
<path d="M12 19.5723C12.6731 19.5723 13.2188 19.0266 13.2188 18.3535C13.2188 17.6804 12.6731 17.1348 12 17.1348C11.3269 17.1348 10.7812 17.6804 10.7812 18.3535C10.7812 19.0266 11.3269 19.5723 12 19.5723Z" fill="#FF9900"/>
</svg>
