<svg width="24" height="24" viewBox="0 0 24 24" fill="none" xmlns="http://www.w3.org/2000/svg">
  <path d="M7.5991 13.4854L7.41406 16.723L10.3267 15.5308L7.5991 13.4854Z" fill="black"/>
  <path d="M16.7708 7.68024C17.0317 7.34346 17.1468 6.91618 17.0905 6.49383C17.0343 6.07163 16.8112 5.68938 16.4713 5.43267L15.7844 4.91375C15.0866 4.39033 14.0983 4.52267 13.5627 5.21085L13.1055 5.80261L16.3295 8.25013L16.7708 7.68024Z" fill="black"/>
  <path d="M15.8746 8.83479L12.6511 6.3877L7.77734 12.6942L11.0086 15.1177L15.8746 8.83479Z" fill="black"/>
  <path d="M19.6293 19.0894H4.37066C4.16593 19.0894 4 19.2553 4 19.46C4 19.6648 4.16593 19.8307 4.37066 19.8307H19.6293C19.8341 19.8307 20 19.6648 20 19.46C20 19.2553 19.8341 19.0894 19.6293 19.0894Z" fill="black"/>
</svg>
