<svg width="48" height="48" fill="none" xmlns="http://www.w3.org/2000/svg"><path d="m44.921 38.594-.836 4.1a3.116 3.116 0 0 1-3.053 2.493H4.894a3.116 3.116 0 0 1-3.053-3.739l3.475-17.033a3.288 3.288 0 0 1 2.455-2.538l.013-.003c.076-.018.153-.034.23-.047l.074-.01a3.166 3.166 0 0 1 .45-.033H46.433a1.566 1.566 0 0 1 1.535 1.88l-3.046 14.93Zm-.015-19.234a2.76 2.76 0 0 0-2.742-2.467h-1.257v2.467h3.999ZM2.942 23.93a5.737 5.737 0 0 1 4.59-4.479v-6.675H3.235A3.239 3.239 0 0 0 0 16.012V38.35l2.942-14.42ZM38.484 4.178V19.36H9.954V4.177c0-.75.611-1.36 1.361-1.36h25.81c.75 0 1.36.61 1.36 1.36Zm-3.487 10.73c0-.67-.542-1.213-1.211-1.213H14.653a1.212 1.212 0 0 0 0 2.424h19.133c.669 0 1.211-.543 1.211-1.212Zm0-6.257c0-.669-.542-1.212-1.211-1.212H14.653a1.212 1.212 0 0 0 0 2.424h19.133c.669 0 1.211-.543 1.211-1.212Z" fill="#003BB3"/></svg>