<svg width="46" height="46" viewBox="0 0 46 46" fill="none" xmlns="http://www.w3.org/2000/svg">
<rect x="0.25293" y="0.171875" width="45.1627" height="45.1627" rx="22.5813" fill="#EEEDFD"/>
<path d="M26.3292 14.3379L21.7712 17.2635L22.2332 17.5165L26.2883 14.9136L33.1665 18.8096L29.2213 21.342L29.4135 21.4471V21.7681L32.5036 19.7846L33.1522 20.152L29.4135 22.5518V23.1013L32.4431 21.1566L33.1522 21.5583L29.4135 23.958V24.5076L32.4431 22.5629L33.1522 22.9646L29.4135 25.3643V25.9139L34.1025 22.904L32.9387 22.2449L34.1025 21.4978L32.9386 20.8386L34.1024 20.0915L32.9991 19.4665L34.1167 18.7491L26.3291 14.3379H26.3292ZM27.7854 16.4351C26.7993 16.9299 25.4857 17.0136 24.5609 16.6405L22.7529 17.801L28.7015 21.0574L30.4163 19.9568C29.7408 19.4235 29.7971 18.6279 30.5542 18.0035L27.7854 16.4351H27.7854ZM21.664 18.1668L18.3505 20.3275L24.7072 23.9868L24.7696 23.947C24.8868 23.8715 25.0522 23.7646 25.2497 23.637C25.6444 23.3819 26.1667 23.0436 26.6875 22.7061C27.4376 22.22 27.8242 21.9692 28.1836 21.736L21.664 18.1668ZM27.0765 18.2217C27.0766 18.2217 27.0766 18.2217 27.0767 18.2217C27.2266 18.2226 27.364 18.2547 27.4667 18.3128C27.5264 18.3467 27.5728 18.3884 27.603 18.4356C27.6333 18.4829 27.647 18.5347 27.6432 18.5882C27.6394 18.6416 27.6182 18.6957 27.581 18.7472C27.5437 18.7988 27.491 18.8468 27.4259 18.8886C27.3608 18.9303 27.2846 18.965 27.2017 18.9907C27.1187 19.0163 27.0306 19.0324 26.9423 19.038C26.8541 19.0436 26.7674 19.0387 26.6874 19.0234C26.6073 19.0081 26.5353 18.9829 26.4756 18.949C26.355 18.8807 26.2916 18.7817 26.2992 18.6737C26.3069 18.5658 26.385 18.4578 26.5164 18.3734C26.591 18.3255 26.6802 18.287 26.7772 18.2607C26.8741 18.2344 26.9765 18.2211 27.0765 18.2217ZM16.838 20.4302L11.8971 23.6015L13.0004 24.2265L11.8828 24.9439L13.0466 25.6031L11.8828 26.3502L13.0466 27.0094L11.8828 27.7565L19.6704 32.1677L24.3721 29.1496V28.6003L19.7112 31.592L12.8331 27.6959L13.5013 27.267L19.6704 30.7614L24.3721 27.7434V27.194L19.7112 30.1858L12.8331 26.2897L13.5013 25.8607L19.6704 29.3551L24.3721 26.3371V25.7878L19.7112 28.7795L12.8331 24.8834L13.4551 24.484L19.6848 28.0128L24.3721 25.004V24.7672L24.1153 24.6194L19.7254 27.4371L12.8475 23.541L17.2893 20.6899L16.8379 20.43L16.838 20.4302ZM17.797 20.9824L15.5977 22.394C16.2731 22.9272 16.2169 23.7228 15.4598 24.3473L18.2286 25.9157C19.2147 25.4209 20.5281 25.3372 21.453 25.7102L23.6076 24.3272L17.7969 20.9823L17.797 20.9824ZM28.5697 22.4913C28.1926 22.7358 27.8601 22.9517 27.1464 23.4142C26.6671 23.7249 26.1875 24.0354 25.7078 24.3457C25.5102 24.4734 25.3443 24.5805 25.2261 24.6566C25.2218 24.6594 25.2201 24.6603 25.216 24.663V28.6907L28.5697 26.4366V22.4913H28.5697ZM19.1483 23.3107C19.2982 23.3116 19.4357 23.3438 19.5383 23.4019C19.6589 23.4702 19.7224 23.5693 19.7147 23.6772C19.7071 23.7852 19.6289 23.8932 19.4975 23.9775C19.3661 24.0619 19.1922 24.1156 19.014 24.127C18.8358 24.1383 18.668 24.1063 18.5474 24.038C18.4268 23.9697 18.3633 23.8707 18.371 23.7627C18.3786 23.6548 18.4567 23.5467 18.5881 23.4624C18.6628 23.4145 18.7519 23.376 18.8489 23.3497C18.9459 23.3234 19.0482 23.3101 19.1483 23.3107V23.3107Z" fill="#000C24"/>
</svg>
