<svg width="25" height="25" viewBox="0 0 25 25" fill="none" xmlns="http://www.w3.org/2000/svg">
<path d="M6.15833 9.78516V2.78516H18.1583V9.78516" stroke="black" stroke-width="2" stroke-linecap="round" stroke-linejoin="round"/>
<path d="M6.15833 18.7852H4.15833C3.62789 18.7852 3.11918 18.5744 2.74411 18.1994C2.36904 17.8243 2.15833 17.3156 2.15833 16.7852V11.7852C2.15833 11.2547 2.36904 10.746 2.74411 10.3709C3.11918 9.99587 3.62789 9.78516 4.15833 9.78516H20.1583C20.6888 9.78516 21.1975 9.99587 21.5725 10.3709C21.9476 10.746 22.1583 11.2547 22.1583 11.7852V16.7852C22.1583 17.3156 21.9476 17.8243 21.5725 18.1994C21.1975 18.5744 20.6888 18.7852 20.1583 18.7852H18.1583" stroke="black" stroke-width="2" stroke-linecap="round" stroke-linejoin="round"/>
<path d="M18.1583 14.7852H6.15833V22.7852H18.1583V14.7852Z" stroke="black" stroke-width="2" stroke-linecap="round" stroke-linejoin="round"/>
</svg>
