<svg width="46" height="46" viewBox="0 0 46 46" fill="none" xmlns="http://www.w3.org/2000/svg">
<rect x="0.25293" y="0.171875" width="45.1627" height="45.1627" rx="22.5813" fill="#EEEDFD"/>
<path d="M34.1482 19.9092H28.1482C28.0451 19.9092 27.9607 19.9936 27.9607 20.0967V21.2217C27.9607 21.3248 28.0451 21.4092 28.1482 21.4092H34.1482C34.2514 21.4092 34.3357 21.3248 34.3357 21.2217V20.0967C34.3357 19.9936 34.2514 19.9092 34.1482 19.9092ZM31.0076 23.0967H28.1482C28.0451 23.0967 27.9607 23.1811 27.9607 23.2842V24.4092C27.9607 24.5123 28.0451 24.5967 28.1482 24.5967H31.0076C31.1107 24.5967 31.1951 24.5123 31.1951 24.4092V23.2842C31.1951 23.1811 31.1107 23.0967 31.0076 23.0967ZM23.1865 17.8115H22.1717C22.0264 17.8115 21.9092 17.9287 21.9092 18.074V23.8865C21.9092 23.9709 21.949 24.0482 22.017 24.0975L25.5068 26.6428C25.624 26.7271 25.7881 26.7037 25.8725 26.5865L26.4748 25.7639V25.7615C26.5592 25.6443 26.5334 25.4803 26.4162 25.3959L23.4467 23.249V18.074C23.449 17.9287 23.3295 17.8115 23.1865 17.8115Z" fill="#000C24"/>
<path d="M30.8625 26.0478H29.5078C29.3766 26.0478 29.2524 26.1158 29.182 26.2283C28.8844 26.6993 28.5375 27.1353 28.1391 27.5337C27.4524 28.2204 26.6531 28.7595 25.7649 29.1345C24.8438 29.5236 23.8664 29.7204 22.8586 29.7204C21.8485 29.7204 20.8711 29.5236 19.9524 29.1345C19.0641 28.7595 18.2649 28.2204 17.5781 27.5337C16.8914 26.847 16.3524 26.0478 15.9774 25.1595C15.5883 24.2408 15.3914 23.2634 15.3914 22.2533C15.3914 21.2431 15.5883 20.2681 15.9774 19.347C16.3524 18.4587 16.8914 17.6595 17.5781 16.9728C18.2649 16.2861 19.0641 15.747 19.9524 15.372C20.8711 14.9829 21.8508 14.7861 22.8586 14.7861C23.8688 14.7861 24.8461 14.9829 25.7649 15.372C26.6531 15.747 27.4524 16.2861 28.1391 16.9728C28.5375 17.3712 28.8844 17.8072 29.182 18.2783C29.2524 18.3908 29.3766 18.4587 29.5078 18.4587H30.8625C31.0242 18.4587 31.1274 18.29 31.0547 18.147C29.5266 15.1072 26.4281 13.1314 22.9688 13.0915C17.9039 13.0283 13.6969 17.1743 13.6875 22.2345C13.6781 27.304 17.7867 31.4173 22.8563 31.4173C26.3602 31.4173 29.5102 29.4345 31.0547 26.3595C31.1274 26.2165 31.0219 26.0478 30.8625 26.0478Z" fill="#000C24"/>
</svg>
