<svg width="39" height="10" viewBox="0 0 39 10" fill="none" xmlns="http://www.w3.org/2000/svg">
<path d="M14.2601 1.67969L14.2401 2.1897H12.4901V8.00969H11.86V2.19969H10.0601V1.67969H14.2601Z" fill="#766458"/>
<path d="M12.0701 7.7907H12.2701V2.0007H14.0001V1.91071H10.2401V2.0007H12.0301L12.0701 7.7907ZM12.7001 8.2207H11.6401V2.41071H9.8501V1.4707H14.4901L14.4401 2.4007H12.7001V8.2207Z" fill="#766458"/>
<path d="M20.4101 8.0014H19.8101V1.69141H20.4301C21.5901 3.45141 22.7534 5.21141 23.9201 6.97141V1.7014H24.5401V8.0014H24.0001C22.8301 6.2414 21.6701 4.4714 20.4901 2.7014L20.4101 8.0014Z" fill="#766458"/>
<path d="M24.0601 7.80977H24.3501V1.93977H24.1701V7.14977L23.83 7.24977L20.3101 1.93977H20.0001V7.81978H20.1801V2.56978L20.5301 2.47977L24.0601 7.80977ZM24.7901 8.24977H23.7901L20.5701 3.36977V8.24977H19.5701V1.50977H20.5701L23.7701 6.34978V1.50977H24.7701L24.7901 8.24977Z" fill="#766458"/>
<path d="M37.67 5.28092C37.6932 4.99021 37.6365 4.69868 37.5061 4.43783C37.3757 4.17698 37.1765 3.95675 36.9299 3.80093C36.6227 3.60837 36.2675 3.50625 35.905 3.50625C35.5424 3.50625 35.1872 3.60837 34.88 3.80093C34.653 3.96373 34.4683 4.17849 34.3413 4.42727C34.2143 4.67605 34.1487 4.9516 34.1499 5.23092L37.67 5.28092ZM34.17 5.79092C34.1593 6.2054 34.2944 6.6105 34.5519 6.93552C34.8093 7.26055 35.1726 7.48489 35.5786 7.56941C35.9845 7.65392 36.4072 7.59326 36.773 7.39799C37.1387 7.20272 37.4243 6.88523 37.5799 6.50092H38.2099C38.1206 6.88691 37.9146 7.23605 37.62 7.50092C37.3694 7.7222 37.0755 7.88891 36.757 7.99049C36.4385 8.09206 36.1024 8.12626 35.7699 8.09092C35.3984 8.07268 35.0359 7.97009 34.7099 7.79092C34.4559 7.65274 34.2317 7.46585 34.0499 7.24093C33.8705 7.0147 33.7348 6.75694 33.6499 6.48092C33.4305 5.83231 33.4305 5.12952 33.6499 4.48092C33.7833 4.08334 34.029 3.73292 34.3573 3.47204C34.6856 3.21116 35.0825 3.05099 35.5 3.01092C35.8156 2.95121 36.14 2.95495 36.4542 3.0219C36.7684 3.08886 37.0661 3.2177 37.3299 3.40092C37.5963 3.57956 37.8158 3.81965 37.97 4.10093C38.1287 4.38309 38.221 4.69773 38.2399 5.02093C38.2399 5.25093 38.2399 5.50092 38.2399 5.75092L34.17 5.79092Z" fill="#766458"/>
<path d="M34.3799 5.06111H37.45C37.441 4.84292 37.3792 4.63018 37.2699 4.44111C37.1591 4.25044 37.0006 4.0919 36.8099 3.9811C36.5377 3.81398 36.2244 3.72552 35.9049 3.72552C35.5855 3.72552 35.2722 3.81398 34.9999 3.9811C34.8323 4.10674 34.6898 4.26279 34.5799 4.44111C34.475 4.62624 34.4071 4.83002 34.3799 5.0411V5.06111ZM37.89 5.50111H33.89V5.27111C33.895 4.95977 33.9726 4.65389 34.1167 4.37785C34.2608 4.10181 34.4674 3.86322 34.7199 3.6811C35.0575 3.46089 35.4499 3.33952 35.8528 3.33068C36.2557 3.32185 36.6531 3.42592 36.9999 3.63111C37.2782 3.80541 37.5041 4.05172 37.6537 4.34396C37.8034 4.6362 37.8712 4.96347 37.85 5.2911L37.89 5.50111ZM35.9999 3.22111C35.8568 3.21082 35.7131 3.21082 35.57 3.22111C35.1914 3.26143 34.8323 3.40895 34.5347 3.64631C34.2371 3.88368 34.0134 4.20103 33.89 4.56111C33.685 5.15389 33.685 5.79833 33.89 6.39111C34.0373 6.89752 34.3788 7.32522 34.8399 7.58111C35.2591 7.80638 35.7358 7.90194 36.2095 7.85565C36.6831 7.80935 37.1323 7.62329 37.4999 7.32112C37.7013 7.14494 37.8559 6.92161 37.95 6.67111H37.7499C37.6632 6.8961 37.5303 7.10048 37.3599 7.27111C37.1812 7.43357 36.9746 7.56231 36.7499 7.6511C36.3075 7.79139 35.8324 7.79139 35.39 7.6511C34.9578 7.53709 34.58 7.27363 34.3237 6.90748C34.0674 6.54133 33.9491 6.09618 33.9899 5.6511V5.46112H38.07C38.0799 5.30461 38.0799 5.14762 38.07 4.99111C38.0527 4.70184 37.967 4.42079 37.82 4.17111C37.6827 3.9161 37.4874 3.69688 37.2499 3.53111C36.876 3.29941 36.4388 3.19098 35.9999 3.22111V3.22111ZM35.9999 8.32112H35.79C35.3829 8.30245 34.9858 8.18948 34.6299 7.99111C34.3515 7.84241 34.1064 7.63821 33.9099 7.39111C33.7113 7.14527 33.5619 6.86347 33.4699 6.56111C33.2353 5.87735 33.2353 5.13486 33.4699 4.45111C33.6177 4.02153 33.8838 3.64246 34.2377 3.3576C34.5916 3.07274 35.0187 2.89369 35.4699 2.84111C35.8151 2.77555 36.17 2.77982 36.5135 2.85368C36.857 2.92753 37.1822 3.06948 37.4699 3.27111C37.7585 3.47246 37.9982 3.73603 38.1712 4.04238C38.3443 4.34873 38.4464 4.69003 38.4699 5.0411C38.4799 5.21429 38.4799 5.38792 38.4699 5.56111V6.00111H34.3399C34.372 6.30419 34.4938 6.5908 34.6898 6.8242C34.8857 7.0576 35.147 7.22714 35.4399 7.31111C35.6231 7.37791 35.8177 7.40788 36.0124 7.39927C36.2072 7.39067 36.3983 7.34367 36.5749 7.26097C36.7514 7.17827 36.9099 7.0615 37.0412 6.91737C37.1725 6.77324 37.274 6.60459 37.3399 6.42111L37.39 6.28111H38.45L38.39 6.5411C38.289 6.97287 38.0587 7.36359 37.73 7.66111C37.2579 8.09268 36.6395 8.32862 35.9999 8.32112V8.32112Z" fill="#766458"/>
<path d="M18.5101 5.52085C18.5141 5.45758 18.5141 5.39411 18.5101 5.33085C18.5092 4.88271 18.3402 4.45124 18.0365 4.12166C17.7329 3.79209 17.3166 3.5884 16.8701 3.55085C16.4839 3.49844 16.0911 3.57208 15.7501 3.76084C15.409 3.95138 15.1414 4.25061 14.9901 4.61084C14.7878 5.11656 14.7528 5.67376 14.8901 6.20084C14.9535 6.51655 15.1058 6.80758 15.329 7.03966C15.5522 7.27174 15.8371 7.43521 16.1501 7.51084C16.4756 7.60313 16.8202 7.60439 17.1464 7.51447C17.4726 7.42455 17.7678 7.2469 18.0001 7.00084C18.1802 6.80112 18.3183 6.56711 18.4059 6.31281C18.4935 6.05851 18.529 5.78916 18.5101 5.52085ZM14.2001 5.52085C14.1824 5.16898 14.2401 4.81738 14.3695 4.48967C14.4988 4.16197 14.6968 3.86573 14.9501 3.62084C15.3709 3.21856 15.928 2.98999 16.5101 2.98084C16.9263 2.94222 17.3454 3.01438 17.7247 3.19001C18.1041 3.36563 18.4302 3.63847 18.6701 3.98084C18.9486 4.36369 19.1117 4.81826 19.1401 5.29084C19.1951 5.83978 19.0872 6.39277 18.8301 6.88085C18.6484 7.21546 18.3874 7.50044 18.0701 7.71085C17.75 7.9218 17.3821 8.04901 17.0001 8.08085C16.529 8.15186 16.0475 8.0895 15.6101 7.90084C15.2127 7.73102 14.8704 7.45404 14.6214 7.10085C14.3724 6.74766 14.2265 6.33217 14.2001 5.90084V5.66085C14.195 5.62771 14.195 5.59398 14.2001 5.56084V5.52085Z" fill="#766458"/>
<path d="M16.6301 3.75039C16.3218 3.7465 16.0192 3.83345 15.7601 4.00039C15.5004 4.16713 15.3007 4.41235 15.1901 4.70039C15.0005 5.16396 14.9689 5.67705 15.1001 6.1604C15.1531 6.43663 15.2853 6.69147 15.4806 6.89389C15.6759 7.0963 15.9259 7.23754 16.2001 7.3004C16.4879 7.38057 16.7922 7.38057 17.08 7.3004C17.3715 7.22137 17.6349 7.06196 17.8401 6.84039C18.0044 6.66209 18.1308 6.45227 18.2116 6.22364C18.2924 5.99502 18.3259 5.75235 18.3101 5.51039V5.51039C18.3147 5.45716 18.3147 5.40363 18.3101 5.3504C18.3112 4.95134 18.1613 4.56663 17.8905 4.27354C17.6197 3.98045 17.248 3.8007 16.8501 3.7704L16.6301 3.75039ZM16.6901 7.75039C16.4842 7.74844 16.2794 7.72158 16.08 7.67039C15.7344 7.58728 15.4195 7.40789 15.1717 7.15301C14.9239 6.89814 14.7534 6.57822 14.68 6.23039C14.5275 5.65787 14.5626 5.05152 14.7801 4.50039C14.9532 4.09854 15.2533 3.76455 15.6344 3.5496C16.0155 3.33466 16.4566 3.25063 16.8901 3.31039C17.3887 3.35545 17.8523 3.5859 18.1893 3.9562C18.5263 4.32651 18.7121 4.80972 18.71 5.31039C18.7047 5.3569 18.7047 5.40388 18.71 5.45039V5.50039C18.7449 6.10099 18.5399 6.69086 18.1401 7.14039C17.9501 7.33988 17.7223 7.49964 17.4701 7.61039C17.2248 7.72235 16.9595 7.78356 16.6901 7.79039V7.75039ZM16.6901 3.1904H16.5301C16.0011 3.20067 15.4949 3.40743 15.11 3.7704C14.8777 3.99661 14.696 4.26958 14.5771 4.57127C14.4581 4.87296 14.4046 5.19648 14.4201 5.5204V5.67039C14.4148 5.72359 14.4148 5.77719 14.4201 5.8304C14.4406 6.22605 14.5726 6.60783 14.8008 6.93165C15.0291 7.25547 15.3443 7.50811 15.71 7.6604C16.1097 7.83283 16.5501 7.88832 16.9801 7.8204C17.3267 7.79049 17.6606 7.67531 17.952 7.48513C18.2433 7.29496 18.4831 7.03568 18.6501 6.73039C18.8866 6.27881 18.984 5.76729 18.93 5.26039C18.9078 4.82844 18.762 4.41196 18.5101 4.06039C18.2959 3.78068 18.0157 3.55844 17.6946 3.41359C17.3735 3.26873 17.0215 3.20579 16.6701 3.23039L16.6901 3.1904ZM16.6401 8.28039C16.2654 8.28378 15.8941 8.20884 15.55 8.06039C15.1185 7.87552 14.7463 7.57509 14.4746 7.1922C14.2028 6.8093 14.0421 6.35881 14.0101 5.89039C14.0101 5.82039 14.0101 5.7604 14.0101 5.6904V5.53039C13.9899 5.14907 14.0518 4.76787 14.1915 4.4125C14.3313 4.05714 14.5456 3.73587 14.8201 3.47039C15.2784 3.0313 15.8854 2.78132 16.52 2.7704C16.9662 2.72001 17.4178 2.78556 17.8313 2.96074C18.2447 3.13591 18.6059 3.41479 18.8801 3.7704C19.1778 4.1906 19.3511 4.68621 19.3801 5.20039C19.445 5.82538 19.3121 6.455 19.0001 7.00039C18.7999 7.36017 18.515 7.66568 18.1701 7.89039C17.8223 8.11896 17.4242 8.25966 17.0101 8.3004C16.8807 8.31636 16.7504 8.32305 16.6201 8.3204L16.6401 8.28039Z" fill="#766458"/>
<path d="M29.7 5.52018C29.7 5.52018 29.7 5.41018 29.7 5.33018C29.6989 4.88045 29.5285 4.44764 29.2228 4.11782C28.917 3.788 28.4983 3.58535 28.05 3.55018C27.6638 3.49849 27.2712 3.57209 26.93 3.76017C26.5913 3.95366 26.3246 4.25197 26.17 4.61018C25.9711 5.11698 25.9395 5.67416 26.08 6.20017C26.1426 6.51461 26.2934 6.80475 26.5148 7.03671C26.7361 7.26866 27.0188 7.43287 27.33 7.51017C27.6536 7.60604 27.9974 7.61104 28.3237 7.52462C28.65 7.4382 28.9463 7.26369 29.18 7.02018C29.3621 6.81729 29.5018 6.58012 29.5911 6.32256C29.6804 6.065 29.7174 5.79222 29.7 5.52018ZM25.37 5.52018C25.3548 5.1686 25.4138 4.81775 25.543 4.49043C25.6722 4.1631 25.8688 3.8666 26.12 3.62017C26.5429 3.2212 27.0987 2.99318 27.68 2.98017C28.0038 2.94569 28.3313 2.97805 28.6421 3.07522C28.953 3.17239 29.2405 3.33231 29.487 3.5451C29.7336 3.75788 29.9338 4.01899 30.0754 4.31228C30.2169 4.60556 30.2968 4.92478 30.31 5.25018C30.3681 5.79813 30.2638 6.35105 30.01 6.84017C29.8287 7.17645 29.5664 7.46225 29.2469 7.67176C28.9274 7.88127 28.5607 8.00788 28.18 8.04017C27.709 8.11118 27.2274 8.04883 26.79 7.86018C26.392 7.69132 26.049 7.41459 25.7999 7.0612C25.5507 6.7078 25.4053 6.29182 25.38 5.86018C25.375 5.78025 25.375 5.70009 25.38 5.62017L25.37 5.52018Z" fill="#766458"/>
<path d="M27.81 3.7505C27.5026 3.74701 27.2011 3.83563 26.9445 4.00494C26.6879 4.17424 26.4878 4.41649 26.37 4.70049C26.1805 5.16407 26.1488 5.67716 26.28 6.1605C26.333 6.43673 26.4653 6.69158 26.6606 6.89399C26.8559 7.0964 27.1059 7.23765 27.38 7.3005C27.6685 7.39047 27.9766 7.39689 28.2686 7.31902C28.5606 7.24115 28.8246 7.08218 29.03 6.8605C29.1926 6.68139 29.3171 6.47118 29.3962 6.24259C29.4753 6.014 29.5072 5.77176 29.49 5.53049V5.53049C29.49 5.53049 29.49 5.4405 29.49 5.3905C29.4935 4.99076 29.3445 4.60473 29.0732 4.31113C28.8019 4.01754 28.4288 3.83849 28.03 3.81049L27.81 3.7505ZM27.87 7.7505C27.6675 7.74853 27.466 7.72166 27.27 7.67049C26.9236 7.58686 26.6077 7.40749 26.3584 7.15285C26.109 6.89822 25.9363 6.57859 25.86 6.23049C25.7106 5.65691 25.7492 5.05054 25.97 4.5005C26.1634 4.07994 26.4928 3.73677 26.9051 3.52634C27.3174 3.31591 27.7886 3.25048 28.2426 3.3406C28.6967 3.43071 29.1071 3.67112 29.4078 4.02306C29.7085 4.375 29.8819 4.81795 29.9 5.28049C29.8943 5.32698 29.8943 5.374 29.9 5.42049V5.48049C29.9176 5.77872 29.8753 6.07744 29.7757 6.35909C29.6761 6.64074 29.5212 6.89962 29.32 7.12049C29.1344 7.32055 28.9098 7.4805 28.66 7.59049C28.4132 7.71067 28.1443 7.77875 27.87 7.79049V7.7505ZM27.87 3.1905H27.71C27.1815 3.20267 26.6759 3.40915 26.29 3.7705C26.0589 3.9972 25.8788 4.27052 25.7615 4.57226C25.6443 4.874 25.5926 5.19725 25.61 5.5205V5.67049C25.6047 5.7237 25.6047 5.7773 25.61 5.8305C25.6273 6.22567 25.7569 6.60772 25.9836 6.93185C26.2103 7.25597 26.5248 7.50874 26.89 7.6605C27.2931 7.83323 27.7368 7.88869 28.17 7.8205C28.5154 7.79074 28.848 7.67553 29.1377 7.48525C29.4275 7.29497 29.6654 7.0356 29.83 6.73049C30.0712 6.28057 30.1689 5.76759 30.11 5.26049C30.0923 4.82764 29.9461 4.40988 29.69 4.06049C29.4771 3.77942 29.1971 3.55619 28.8757 3.4112C28.5543 3.26621 28.2016 3.20407 27.85 3.23049L27.87 3.1905ZM27.82 8.28049C27.4454 8.283 27.0743 8.20811 26.73 8.06049C26.2997 7.87376 25.9288 7.57283 25.6573 7.19032C25.3858 6.8078 25.2242 6.35829 25.19 5.8905C25.19 5.8205 25.19 5.7605 25.19 5.6905V5.53049C25.1712 5.14843 25.2346 4.76677 25.3761 4.41135C25.5176 4.05594 25.7338 3.73508 26.01 3.4705C26.4672 3.02971 27.075 2.77944 27.71 2.7705C28.1547 2.71992 28.605 2.78544 29.0168 2.9607C29.4287 3.13596 29.7881 3.41497 30.06 3.7705C30.3618 4.18863 30.5355 4.68544 30.56 5.20049C30.6278 5.79084 30.5126 6.38777 30.23 6.9105C30.033 7.27251 29.7474 7.5787 29.4 7.8005C29.0566 8.03048 28.6614 8.17139 28.25 8.2105C28.1031 8.25871 27.9526 8.29549 27.8 8.3205L27.82 8.28049Z" fill="#766458"/>
<path d="M31.1299 3.60156H30.4399V3.09155H31.1199V1.85156H31.7399V3.09155H33.1099V3.60156H31.7599C31.7599 3.69156 31.7599 3.76156 31.7599 3.82156V6.61156C31.7447 6.75783 31.7447 6.90529 31.7599 7.05156C31.7683 7.16244 31.8183 7.26605 31.8999 7.34155C31.982 7.41966 32.0874 7.46881 32.2 7.48155C32.41 7.48155 32.6199 7.48155 32.8299 7.48155H33.0799V8.00156H32.95H32.2299C32.078 8.01208 31.9255 7.98973 31.783 7.93602C31.6404 7.88231 31.5111 7.79849 31.4039 7.69031C31.2967 7.58212 31.214 7.4521 31.1615 7.30908C31.1091 7.16607 31.0881 7.01342 31.0999 6.86156C31.0999 5.86156 31.0999 4.86156 31.0999 3.86156L31.1299 3.60156Z" fill="#766458"/>
<path d="M30.65 3.39062H31.34V6.87062C31.3259 6.9953 31.34 7.12157 31.3811 7.24013C31.4222 7.35868 31.4893 7.46652 31.5775 7.55573C31.6658 7.64493 31.7729 7.71322 31.891 7.7556C32.0091 7.79798 32.1352 7.81337 32.26 7.80063H32.89V7.72063H32.68C32.5202 7.73056 32.3599 7.73056 32.2 7.72063C32.0422 7.70813 31.8936 7.64093 31.78 7.53062C31.6664 7.4211 31.5925 7.27683 31.57 7.12062C31.5601 6.96077 31.5601 6.80047 31.57 6.64062V3.85063C31.5648 3.79743 31.5648 3.74383 31.57 3.69063V3.41063H32.91V3.33063H31.54V2.10063H31.35V3.33063H30.67L30.65 3.39062ZM32.65 8.24063H32.29C32.1104 8.2496 31.931 8.22031 31.7635 8.15472C31.5961 8.08914 31.4445 7.98872 31.3187 7.86015C31.193 7.73158 31.096 7.57778 31.0342 7.40892C30.9723 7.24006 30.9471 7.05999 30.96 6.88063C30.96 6.18063 30.96 5.46062 30.96 4.76062V3.82063H30.27V2.88063H30.95V1.64062H31.95V2.87062H33.32V3.81062H32V6.61063C31.9848 6.74687 31.9848 6.88439 32 7.02063C32.0091 7.08445 32.0399 7.14318 32.0873 7.1869C32.1347 7.23063 32.1957 7.25666 32.26 7.26062H32.7H33.32V8.15062H33.14H33.01H32.64L32.65 8.24063Z" fill="#766458"/>
<path d="M9.11003 5.34012C9.04855 5.43289 9.01079 5.53934 9.00004 5.65012C8.97521 5.75871 8.97521 5.87152 9.00004 5.98012C9.04964 6.11916 9.04964 6.27108 9.00004 6.41013C8.93829 6.55179 8.83775 6.67311 8.71004 6.76012C8.6113 6.81889 8.52882 6.90139 8.47005 7.00012C8.42132 7.10414 8.39087 7.21577 8.38005 7.33012C8.37433 7.4839 8.3181 7.63151 8.22005 7.75012C8.11816 7.86673 7.98138 7.94738 7.83003 7.98012C7.715 8.00684 7.60845 8.06184 7.52003 8.14012C7.43406 8.21407 7.36574 8.30633 7.32005 8.41013C7.2592 8.55845 7.14994 8.68179 7.01005 8.76012C6.86669 8.83862 6.70228 8.87011 6.54005 8.85013C6.44834 8.82551 6.35176 8.82551 6.26005 8.85013C6.17172 8.88077 6.09019 8.92832 6.02003 8.99013C5.94777 9.07004 5.85994 9.13433 5.76192 9.17905C5.66389 9.22376 5.55777 9.24794 5.45006 9.25012C5.36705 9.26058 5.28306 9.26058 5.20006 9.25012C4.92233 9.17038 4.62777 9.17038 4.35005 9.25012C4.28039 9.25984 4.20972 9.25984 4.14006 9.25012C4.02995 9.24702 3.9214 9.22327 3.82005 9.18011C3.7198 9.13785 3.63077 9.07281 3.56004 8.99013C3.49519 8.92636 3.41646 8.87844 3.33003 8.85013C3.24173 8.82537 3.14834 8.82537 3.06004 8.85013C2.89135 8.87101 2.72032 8.83958 2.57005 8.76012C2.42147 8.68222 2.30474 8.5549 2.24004 8.40012C2.18829 8.29996 2.12078 8.20881 2.04005 8.13013C1.95101 8.0607 1.84901 8.0097 1.74004 7.98012C1.58845 7.94212 1.45228 7.85832 1.35005 7.74013C1.25325 7.60933 1.19755 7.45267 1.19005 7.29011C1.1836 7.19215 1.15631 7.0967 1.11003 7.01012C1.06222 6.92431 0.993422 6.85206 0.910048 6.80012C0.763876 6.70387 0.651866 6.56385 0.590041 6.40012C0.5397 6.23384 0.5397 6.05639 0.590041 5.89012C0.620118 5.79238 0.620118 5.68786 0.590041 5.59012C0.570959 5.49221 0.529936 5.3999 0.470046 5.32013C0.389849 5.23151 0.340689 5.11917 0.330031 5.00012C0.300797 4.88867 0.300797 4.77157 0.330031 4.66013C0.470312 4.34612 0.535373 4.0037 0.520034 3.66013C0.515451 3.53526 0.543013 3.4113 0.600051 3.30012C0.654654 3.19041 0.737483 3.09721 0.840041 3.03012C0.935929 2.97105 1.01512 2.88843 1.07005 2.79011C1.12862 2.69363 1.15974 2.58299 1.16005 2.47012C1.17245 2.31472 1.22785 2.16582 1.32005 2.04011C1.42283 1.92458 1.5592 1.84416 1.71004 1.81012C1.82215 1.78078 1.92745 1.72983 2.02003 1.66013C2.10888 1.58889 2.17779 1.49587 2.22005 1.39012C2.27639 1.2452 2.37813 1.12241 2.51005 1.04011C2.64446 0.95693 2.80305 0.921694 2.96004 0.940124C3.06796 0.960916 3.17939 0.954429 3.28416 0.921249C3.38894 0.888069 3.48376 0.829244 3.56004 0.750121C3.66761 0.630343 3.81176 0.549486 3.97005 0.520126C4.13017 0.493325 4.29468 0.517818 4.44005 0.590118C4.53853 0.642643 4.64844 0.67012 4.76005 0.67012C4.87167 0.67012 4.98155 0.642643 5.08003 0.590118C5.22347 0.511873 5.39002 0.487075 5.55003 0.520126C5.70992 0.551434 5.85446 0.636033 5.96004 0.760116C6.02659 0.831292 6.10876 0.886064 6.20006 0.92012C6.28893 0.940288 6.38118 0.940288 6.47005 0.92012C6.64958 0.897932 6.83153 0.93293 6.99004 1.02013C7.13906 1.11846 7.25699 1.2572 7.33003 1.42012C7.36582 1.50474 7.42056 1.58 7.49004 1.64012C7.5589 1.69932 7.64138 1.74054 7.73006 1.76012C7.90788 1.79365 8.0696 1.88508 8.19005 2.02013C8.30171 2.15498 8.36193 2.32505 8.36003 2.50012C8.38985 2.69236 8.48958 2.86684 8.64006 2.99013C8.74498 3.0997 8.84187 3.21666 8.93004 3.34012V3.42012C8.9611 3.46032 8.97863 3.50934 8.98006 3.56012C8.99479 3.60903 8.99479 3.66121 8.98006 3.71013C8.93828 3.82875 8.92124 3.95467 8.93004 4.08012C8.93932 4.20516 8.98064 4.32569 9.05003 4.43011C9.12921 4.57046 9.17059 4.72898 9.17006 4.89012C9.18712 5.04277 9.1665 5.19727 9.11003 5.34012V5.34012Z" fill="#766458"/>
<path d="M9.00004 5.2706C8.93195 5.38015 8.88766 5.50281 8.87004 5.6306C8.84444 5.75934 8.84444 5.89186 8.87004 6.0206C8.90482 6.13467 8.90482 6.25651 8.87004 6.37059C8.82413 6.48591 8.7392 6.58147 8.63005 6.64059C8.51486 6.71769 8.41904 6.82037 8.35005 6.94059C8.28355 7.06027 8.24586 7.19381 8.24004 7.33059C8.23245 7.45309 8.18555 7.56985 8.10628 7.66354C8.027 7.75723 7.91958 7.82284 7.80003 7.8506C7.66839 7.87833 7.5451 7.93655 7.44005 8.0206C7.33218 8.10735 7.24936 8.22125 7.20006 8.3506C7.14125 8.46903 7.05138 8.56925 6.94005 8.64059C6.82105 8.70556 6.68305 8.72678 6.55003 8.70059C6.43592 8.68409 6.31954 8.69449 6.21016 8.73095C6.10078 8.76741 6.00145 8.82893 5.92006 8.91059C5.83585 9.00305 5.72898 9.07198 5.61003 9.11059C5.48914 9.14532 5.36092 9.14532 5.24004 9.11059C5.09684 9.07036 4.94877 9.05017 4.80003 9.05059C4.63488 9.05078 4.47036 9.07093 4.31004 9.11059C4.25385 9.12093 4.19626 9.12093 4.14006 9.11059C4.04991 9.11107 3.96088 9.09053 3.88005 9.05059C3.80239 9.01229 3.73148 8.96162 3.67006 8.90059C3.59085 8.81394 3.49112 8.74861 3.38005 8.7106C3.27097 8.69049 3.15911 8.69049 3.05003 8.7106C2.91376 8.73667 2.77267 8.71549 2.65004 8.65059C2.52584 8.58464 2.42728 8.47904 2.37004 8.3506C2.31663 8.22636 2.23437 8.11665 2.13005 8.03059C2.02753 7.94852 1.90793 7.89043 1.78004 7.86059C1.64838 7.83253 1.53124 7.75798 1.45006 7.65059C1.36792 7.54837 1.32218 7.4217 1.32005 7.29058C1.31993 7.17138 1.28892 7.05424 1.23006 6.95059C1.16918 6.84805 1.08739 6.75947 0.990035 6.69059C0.866361 6.61476 0.77161 6.49972 0.72087 6.36381C0.67013 6.2279 0.666317 6.07892 0.710036 5.94059C0.744766 5.81971 0.744766 5.69149 0.710036 5.5706C0.691592 5.45181 0.63955 5.34076 0.560042 5.25059C0.501328 5.17881 0.463312 5.09238 0.450057 5.00059C0.420281 4.90963 0.420281 4.81155 0.450057 4.72059C0.600613 4.37424 0.669044 3.99777 0.650039 3.62059C0.644608 3.52036 0.665279 3.42044 0.710036 3.33059C0.757483 3.24452 0.826392 3.17217 0.910048 3.12059C1.02189 3.04683 1.11445 2.94741 1.18004 2.83059C1.24164 2.71252 1.27906 2.58332 1.29005 2.45059C1.29009 2.32512 1.33638 2.20408 1.42006 2.11059C1.49898 2.00921 1.61324 1.94135 1.74004 1.92059C1.87313 1.89143 1.99687 1.82957 2.10005 1.7406C2.20947 1.65954 2.29287 1.54833 2.34004 1.42059C2.38143 1.30313 2.46287 1.204 2.57005 1.14059C2.62838 1.08915 2.6966 1.0502 2.77055 1.02612C2.8445 1.00204 2.92261 0.993358 3.00004 1.00059C3.12771 1.03546 3.2624 1.03546 3.39006 1.00059C3.51733 0.962385 3.63153 0.889696 3.72005 0.790585C3.80809 0.689954 3.9282 0.622847 4.06004 0.600597C4.18968 0.570225 4.32607 0.591756 4.44005 0.660595C4.55804 0.719566 4.68814 0.750256 4.82005 0.750256C4.95196 0.750256 5.08206 0.719566 5.20006 0.660595C5.2563 0.625998 5.31883 0.602885 5.38405 0.592587C5.44927 0.582288 5.51587 0.585012 5.58003 0.600597C5.71453 0.622004 5.836 0.693438 5.92006 0.800594C5.9956 0.886841 6.092 0.952264 6.20006 0.990597C6.30843 1.0317 6.42444 1.04874 6.54005 1.04058C6.69041 1.01304 6.84567 1.03775 6.98006 1.11059C7.11193 1.19037 7.21117 1.31442 7.26005 1.4606C7.30482 1.56493 7.37328 1.65736 7.46004 1.73059C7.54719 1.80091 7.65018 1.84896 7.76005 1.87059C7.90401 1.89557 8.0348 1.96981 8.13005 2.08059C8.22743 2.19101 8.28081 2.33337 8.28004 2.48059C8.30606 2.70855 8.42108 2.91702 8.60005 3.06059C8.70085 3.16491 8.79126 3.27878 8.87004 3.40059V3.47059C8.87845 3.4966 8.87845 3.52459 8.87004 3.55059C8.87433 3.57709 8.87433 3.6041 8.87004 3.6306C8.81144 3.76592 8.78738 3.91367 8.80003 4.06059C8.81473 4.20929 8.86259 4.35281 8.94005 4.48059C9.01532 4.59488 9.05543 4.72874 9.05543 4.8656C9.05543 5.00245 9.01532 5.1363 8.94005 5.25059L9.00004 5.2706ZM9.13005 4.42059C9.06677 4.31402 9.02909 4.19421 9.02003 4.0706C9.00131 3.94502 9.01866 3.81669 9.07005 3.70059C9.07976 3.65106 9.07976 3.60012 9.07005 3.55059C9.06252 3.50115 9.04552 3.45362 9.02003 3.41059L8.96004 3.33059C8.87536 3.20726 8.78177 3.09028 8.68004 2.98059C8.52647 2.85994 8.42602 2.68416 8.40004 2.4906C8.40025 2.31581 8.34023 2.14628 8.23006 2.01059C8.10698 1.87884 7.94638 1.78809 7.77003 1.75059C7.68135 1.73102 7.59891 1.6898 7.53004 1.6306C7.46291 1.57228 7.40845 1.5008 7.37004 1.42059C7.2939 1.24519 7.16444 1.09824 7.00004 1.00059C6.84154 0.913396 6.65959 0.878397 6.48006 0.900585C6.39119 0.920753 6.29891 0.920753 6.21004 0.900585C6.11874 0.86653 6.0366 0.811773 5.97005 0.740597C5.8661 0.614587 5.72081 0.529537 5.56004 0.500591C5.40003 0.467541 5.23348 0.492354 5.09004 0.570599C4.99156 0.623124 4.88165 0.650585 4.77003 0.650585C4.65842 0.650585 4.54854 0.623124 4.45006 0.570599C4.30469 0.498299 4.14018 0.473791 3.98006 0.500591C3.82099 0.534049 3.6771 0.618282 3.57005 0.740597C3.49443 0.820321 3.39924 0.878866 3.29399 0.910442C3.18874 0.942018 3.07707 0.94552 2.97005 0.920589C2.81306 0.90216 2.65444 0.937411 2.52003 1.0206C2.38811 1.10289 2.2864 1.22567 2.23006 1.37059C2.1878 1.47633 2.11889 1.56935 2.03004 1.64059C1.93866 1.71223 1.83294 1.76338 1.72005 1.79058C1.56759 1.82045 1.42994 1.90163 1.33003 2.0206C1.23766 2.14243 1.18216 2.28818 1.17006 2.44059C1.17252 2.55383 1.14116 2.66523 1.08003 2.76059C1.02266 2.8598 0.944154 2.94516 0.850051 3.01059C0.745734 3.07116 0.662075 3.16177 0.61003 3.2706C0.554212 3.38221 0.52675 3.50585 0.530044 3.6306C0.54465 3.97412 0.47962 4.31637 0.340041 4.6306C0.310807 4.74204 0.310807 4.85914 0.340041 4.97059C0.350698 5.08964 0.399859 5.20196 0.480056 5.29058C0.539946 5.37036 0.580969 5.46268 0.600051 5.56059C0.625024 5.65903 0.625024 5.76215 0.600051 5.86059C0.545136 6.02616 0.545136 6.20502 0.600051 6.37059C0.659329 6.53576 0.771925 6.67651 0.920058 6.7706C1.00126 6.82516 1.0695 6.89683 1.12004 6.98059C1.16499 7.0677 1.1922 7.16287 1.20006 7.26059C1.20569 7.4235 1.26155 7.5807 1.36003 7.7106C1.45945 7.83206 1.59681 7.91658 1.75004 7.95059C1.85902 7.98017 1.96099 8.03117 2.05003 8.1006C2.13849 8.16808 2.20751 8.25779 2.25004 8.36059C2.31475 8.51537 2.43145 8.6427 2.58003 8.72059C2.72942 8.8029 2.90035 8.83779 3.07005 8.8206C3.15835 8.79584 3.25174 8.79584 3.34004 8.8206C3.42651 8.85365 3.50494 8.90478 3.57005 8.97059C3.64348 9.05029 3.73179 9.11484 3.83003 9.16059C3.92843 9.20074 4.03379 9.22112 4.14006 9.22059H4.36003C4.63775 9.14085 4.93231 9.14085 5.21004 9.22059C5.28975 9.23023 5.37035 9.23023 5.45006 9.22059C5.56016 9.21749 5.66869 9.19374 5.77003 9.15059C5.8545 9.1137 5.93224 9.06301 6.00004 9.00059C6.06718 8.93247 6.14938 8.88109 6.24004 8.8506C6.33174 8.82598 6.42832 8.82598 6.52003 8.8506C6.68226 8.87058 6.84667 8.83909 6.99004 8.76059C7.12992 8.68226 7.23918 8.55891 7.30003 8.41059C7.34572 8.3068 7.41407 8.21454 7.50004 8.14059C7.58846 8.06231 7.69501 8.00731 7.81004 7.98059C7.95948 7.95013 8.09376 7.86886 8.19005 7.75059C8.29106 7.63292 8.35076 7.4854 8.36003 7.33059C8.36051 7.2146 8.39158 7.10077 8.45006 7.00059C8.50851 6.89896 8.59089 6.81314 8.69005 6.75059C8.82238 6.67516 8.92455 6.55629 8.97923 6.41412C9.03391 6.27195 9.03772 6.11526 8.99004 5.97059C8.96978 5.86489 8.96978 5.75629 8.99004 5.65059C9.00539 5.54088 9.04282 5.43543 9.10005 5.34059C9.18951 5.20368 9.23805 5.04412 9.24004 4.8806C9.24217 4.71791 9.197 4.5581 9.11003 4.42059H9.13005Z" fill="#766458"/>
<path d="M3.51001 5.35008L3.70001 5.18007L4.12 5.61008L5.39001 3.83008L5.60999 3.99008L4.16 6.01007L3.51001 5.35008Z" fill="white"/>
<path d="M4.88992 1.99977H4.99991V1.79977H4.88992V1.99977ZM5.02991 2.06978H4.8399V1.75977H5.0499L5.02991 2.06978ZM4.4599 1.80977V2.01978H4.5499V1.80977H4.4599ZM4.4599 2.07977V1.75977H4.6799V1.99977H4.52991L4.4599 2.07977ZM5.31992 2.07977H5.40991L5.4599 1.87978H5.35989L5.31992 2.07977ZM5.44992 2.16977H5.2999L5.34991 1.85977H5.50992L5.44992 2.16977ZM4.05991 1.91977V2.11977H4.1499V1.91977H4.0499H4.05991ZM4.05991 2.17976L3.97992 1.87978H4.12991L4.18991 2.18977H4.0499L4.05991 2.17976ZM5.69992 2.17976H5.78992L5.85989 1.97977H5.7699L5.69992 2.17976ZM5.81992 2.27977L5.6799 2.22977L5.7699 1.92976H5.90991L5.81992 2.27977ZM3.62991 2.05977L3.7099 2.24977H3.7999L3.72992 2.04977L3.62991 2.05977ZM3.6799 2.31978L3.55991 2.02977L3.69992 1.96977L3.7999 2.26978L3.66992 2.31978H3.6799ZM6.06992 2.31978L6.15991 2.36977L6.25992 2.17976H6.15991L6.06992 2.31978ZM6.1799 2.43977L6.05991 2.36977L6.19992 2.07977L6.34991 2.14977L6.1799 2.43977ZM3.2399 2.22977L3.3399 2.40977L3.4299 2.35977L3.3299 2.17976L3.2399 2.22977ZM3.31992 2.47977L3.16992 2.20978L3.30991 2.13977L3.44992 2.40977L3.31992 2.47977ZM6.41992 2.52977H6.49991L6.6199 2.36977L6.53992 2.30977L6.41992 2.52977ZM6.5199 2.64977L6.3999 2.56978L6.56992 2.30977L6.69992 2.39977L6.5199 2.64977ZM2.88992 2.45978L3.00992 2.61977L3.0899 2.56978L2.96991 2.39977L2.88992 2.45978ZM2.99991 2.69977L2.7999 2.45978L2.9299 2.35977L3.1199 2.60977L3.00992 2.68977L2.99991 2.69977ZM6.74991 2.76978L6.81992 2.83977L6.9599 2.68977L6.88992 2.61977L6.74991 2.76978ZM6.81992 2.91977L6.7099 2.81978L6.91992 2.58977L7.03992 2.69977L6.81992 2.91977ZM2.55991 2.75977L2.69992 2.89977L2.7699 2.83977L2.62991 2.68977L2.55991 2.75977ZM2.69992 2.97977L2.47992 2.75977C2.51404 2.72064 2.55078 2.68388 2.5899 2.64977V2.64977L2.7999 2.87978L2.68991 2.98978L2.69992 2.97977ZM6.99991 2.99977L7.05991 3.06978L7.22992 2.94977L7.15991 2.86977L6.99991 2.99977ZM7.0499 3.14977L6.99991 2.99977L7.2399 2.79977L7.3399 2.91977L7.0499 3.14977ZM2.24991 3.01978L2.41992 3.13977L2.47992 3.05977L2.31992 2.92976L2.24991 3.01978ZM2.4299 3.20978L2.1799 3.02977L2.27991 2.89977L2.5199 3.08977L2.4299 3.20978V3.20978ZM7.24991 3.32977C7.26059 3.35974 7.27764 3.38704 7.2999 3.40977L7.47992 3.30977L7.41992 3.21977L7.24991 3.32977ZM7.24991 3.47977L7.1799 3.34978L7.44992 3.17976L7.52991 3.30977L7.24991 3.47977ZM2.00992 3.37978L2.18991 3.47977V3.38977L2.00992 3.28976V3.37978ZM2.2099 3.54977L1.93991 3.39977C1.96277 3.35102 1.98951 3.3042 2.0199 3.25977L2.28992 3.41977C2.26292 3.45752 2.23948 3.49768 2.21991 3.53976L2.2099 3.54977ZM7.41992 3.67976V3.76978L7.60989 3.68977C7.61366 3.65989 7.61366 3.62966 7.60989 3.59978L7.41992 3.67976ZM7.41992 3.83977L7.35989 3.70978L7.6499 3.57977L7.7099 3.72977L7.41992 3.83977ZM1.81992 3.77977L2.0199 3.84978V3.75977L1.8299 3.67976V3.77977H1.81992ZM2.0499 3.91977L1.75992 3.80977C1.75992 3.80977 1.75991 3.70977 1.80991 3.65977L2.09991 3.77977L2.03992 3.91977H2.0499ZM7.5499 4.05977C7.5499 4.05977 7.5499 4.12977 7.5499 4.14977H7.74991C7.7557 4.11668 7.7557 4.08286 7.74991 4.04977L7.5499 4.05977ZM7.5499 4.21977C7.55317 4.17316 7.55317 4.12638 7.5499 4.07977L7.84991 3.99977C7.84991 3.99977 7.84991 4.10977 7.84991 4.15977L7.5499 4.21977ZM1.71991 4.21977L1.91992 4.26978C1.91992 4.26978 1.91992 4.19977 1.91992 4.16977H1.71991C1.72466 4.18612 1.72801 4.20285 1.72992 4.21977H1.71991ZM1.9599 4.32977L1.65991 4.26978V4.11977L1.9599 4.19977V4.34978V4.32977ZM7.6499 4.48978C7.6499 4.48978 7.6499 4.55977 7.6499 4.58977H7.85989C7.86455 4.5566 7.86455 4.52295 7.85989 4.48978H7.6499ZM7.6499 4.64977C7.6499 4.59977 7.6499 4.54977 7.6499 4.50977H7.9599C7.9599 4.50977 7.9599 4.61977 7.9599 4.66977L7.6499 4.64977ZM1.69992 4.64977H1.8999V4.55977H1.69992V4.64977ZM1.9599 4.70978H1.6499C1.6499 4.70978 1.6499 4.60977 1.6499 4.55977H1.9599C1.9599 4.55977 1.9599 4.65978 1.9599 4.70978ZM7.71991 4.99977H7.91992V4.87978H7.71991C7.72485 4.91628 7.72485 4.95328 7.71991 4.98978V4.99977ZM7.97992 5.06978H7.65991V4.85977H7.99991V5.08977L7.97992 5.06978ZM1.69992 4.97977V5.07977H1.8999V4.99977L1.69992 4.97977ZM1.6499 5.13977V4.91977H1.9599V5.11977L1.6499 5.13977ZM7.6499 5.39977H7.84991C7.84526 5.36659 7.84526 5.33295 7.84991 5.29977H7.63992C7.63992 5.29977 7.63992 5.37977 7.63992 5.40977L7.6499 5.39977ZM7.88992 5.49977H7.5899C7.5899 5.44977 7.5899 5.40977 7.5899 5.35977H7.8999C7.90379 5.41303 7.90379 5.46651 7.8999 5.51978L7.88992 5.49977ZM1.7099 5.40977C1.7099 5.40977 1.7099 5.47977 1.7099 5.50977H1.91992C1.91992 5.50977 1.91992 5.44977 1.91992 5.41977L1.7099 5.40977ZM1.7099 5.56978V5.40977L2.0199 5.34978C2.01424 5.39627 2.01424 5.44328 2.0199 5.48978V5.48978L1.7099 5.56978ZM7.56992 5.79977L7.75992 5.86977C7.76432 5.83658 7.76432 5.80296 7.75992 5.76978L7.56992 5.70978V5.79977ZM7.7999 5.92976L7.49991 5.82977C7.50425 5.78655 7.50425 5.74299 7.49991 5.69977V5.69977L7.7999 5.78976C7.7999 5.83976 7.79991 5.88977 7.74991 5.94977L7.7999 5.92976ZM1.7999 5.82977V5.92976L1.99991 5.85977V5.76978L1.7999 5.82977ZM1.7999 5.99977C1.77876 5.95137 1.76204 5.90118 1.74991 5.84978V5.84978L2.0499 5.74977C2.0499 5.74977 2.04991 5.83977 2.09991 5.88977L1.7999 5.99977ZM7.3699 6.16977L7.55991 6.26978V6.16977L7.37991 6.08977L7.3299 6.16977H7.3699ZM7.5799 6.33977L7.2999 6.18977L7.35989 6.05977L7.6499 6.17976C7.6499 6.17976 7.5999 6.27978 7.5799 6.31978V6.33977ZM1.9599 6.23978V6.32977L2.13992 6.23978V6.14977L1.9599 6.23978ZM1.9599 6.39977C1.9599 6.39977 1.90992 6.30977 1.88992 6.25977L2.1799 6.12978L2.2399 6.25977L1.9599 6.39977ZM7.1499 6.52977L7.31992 6.63977L7.37991 6.55977L7.19992 6.44977L7.1499 6.52977ZM7.3299 6.71977L7.06992 6.53976C7.10001 6.50216 7.12677 6.46201 7.1499 6.41977L7.40991 6.57977L7.31992 6.71977H7.3299ZM2.1499 6.61977L2.2099 6.69977L2.3699 6.57977V6.49977L2.1499 6.61977ZM2.19992 6.77977L2.10989 6.63977L2.3699 6.46977L2.44992 6.58977L2.19992 6.77977ZM6.88992 6.83977L7.03992 6.98978L7.09991 6.90977L6.94992 6.77977L6.8999 6.83977H6.88992ZM7.0499 7.05977L6.81992 6.84978L6.91992 6.73978L7.15991 6.93977L7.0499 7.05977V7.05977ZM2.41992 6.95978L2.4899 7.03976L2.62991 6.88977L2.5799 6.80977L2.41992 6.95978ZM2.4899 7.09978C2.45077 7.06566 2.41403 7.02891 2.37991 6.98978V6.98978L2.60989 6.77977L2.7099 6.88977L2.4899 7.09978ZM6.59991 7.09978L6.72992 7.25977L6.80991 7.18977L6.6799 7.03976L6.59991 7.10977V7.09978ZM6.72992 7.33977L6.52991 7.08977L6.63992 6.99977L6.84991 7.22977L6.72992 7.33977ZM2.72992 7.23978L2.80991 7.29977L2.93991 7.13977L2.8699 7.07977L2.72992 7.23978ZM2.81992 7.37978L2.69992 7.26978L2.8999 7.02977L3.00992 7.11977L2.81992 7.37978ZM6.2699 7.37978L6.37991 7.55977L6.46991 7.49977L6.34991 7.32977L6.2699 7.37978ZM6.35989 7.62978L6.19992 7.35977L6.31992 7.28976L6.4899 7.54977L6.34991 7.62978H6.35989ZM3.0899 7.52977L3.1799 7.58977L3.2699 7.40977L3.18991 7.35977L3.0899 7.52977ZM3.19992 7.65977L3.06992 7.56978L3.2399 7.30977L3.35989 7.38977L3.19992 7.65977ZM5.91992 7.56978L5.99991 7.75977L6.09991 7.70978L6.00992 7.52977L5.91992 7.56978ZM5.97992 7.81978L5.84991 7.53976L5.97992 7.47977L6.1199 7.76978L5.96991 7.82977L5.97992 7.81978ZM3.46991 7.73978H3.56992L3.63992 7.54977H3.5499L3.46991 7.73978ZM3.5899 7.84978L3.44992 7.77977L3.5899 7.48978L3.71991 7.54977L3.5899 7.84978ZM5.52991 7.69977L5.5899 7.89977H5.68991L5.6199 7.70978L5.52991 7.69977ZM5.52991 7.96977L5.43991 7.66977H5.5799L5.6799 7.96977H5.52991V7.96977ZM3.84991 7.89977H3.94992L3.99991 7.69977H3.90991L3.84991 7.89977ZM3.9899 7.98978H3.8399L3.91992 7.68977H4.06992L3.9899 7.98978ZM5.1199 7.77977V7.98978H5.21991V7.78976L5.1199 7.77977ZM5.1199 8.04977V7.73978H5.25992L5.31992 8.03976H5.15991L5.1199 8.04977ZM4.2999 7.97977H4.3999V7.76978H4.2999V7.97977ZM4.44992 8.05977H4.28992V7.74977H4.4299L4.44992 8.05977ZM4.72992 8.05977H4.8299V7.84978H4.72992V8.05977ZM4.72992 8.10977H4.65991V7.79977H4.84991V8.10977H4.71991H4.72992Z" fill="white"/>
</svg>
